<svg width="887" height="543" viewBox="0 0 887 543" fill="none" xmlns="http://www.w3.org/2000/svg">
<path d="M177.106 140.697C177.044 141.008 176.981 141.31 176.91 141.621C173.659 155.495 174.379 169.538 178.42 183.724H110.915L121.573 134.968C121.57 131.404 122.333 127.881 123.808 124.637C125.284 121.393 127.439 118.504 130.127 116.164C130.58 115.765 131.051 115.374 131.539 115.019C135.858 111.753 141.127 109.991 146.542 110H152.333C155.821 109.995 159.274 110.692 162.485 112.052C163.027 112.283 163.56 112.531 164.075 112.798C175.267 116.688 182.009 128.209 180.65 140.111C179.033 154.27 181.387 168.135 187.045 181.752L183.519 182.16C177.879 168.606 175.525 154.803 177.106 140.697Z" fill="#2F2E41"/>
<path d="M136.229 147.75C136.229 147.75 141.559 170.844 130.9 172.621C120.241 174.397 158.435 179.727 158.435 179.727C158.435 179.727 155.77 161.074 161.988 154.856L136.229 147.75Z" fill="#FBBEBE"/>
<path d="M91.7611 307.576C91.7611 307.576 89.5839 334.736 98.8501 335.101C108.116 335.466 102.969 308.358 102.969 308.358L91.7611 307.576Z" fill="#FBBEBE"/>
<path d="M215.282 320.956C215.282 320.956 224.165 346.715 215.282 349.379C206.4 352.044 204.624 324.509 204.624 324.509L215.282 320.956Z" fill="#FBBEBE"/>
<path d="M168.206 193.05L180.707 191.142L185.971 194.827L190.412 208.15L201.071 262.333L209.065 297.862L221.5 322.733L201.071 331.615L181.529 267.662L168.206 193.05Z" fill="#FF5757"/>
<path d="M118.909 259.224C118.909 259.224 113.579 294.753 117.132 301.859C117.132 301.859 110.521 343.105 105.585 370.253L98.4794 409.335L82.4912 468.847L108.25 475.953L160.656 330.282L175.756 412L178.421 470.624L205.956 469.735L202.403 367.588C202.403 367.588 218.391 300.082 190.856 275.212C163.321 250.341 158.879 250.341 158.879 250.341L118.909 259.224Z" fill="#2F2E41"/>
<path d="M197.517 467.071L204.623 491.053L209.064 512.371C209.064 512.371 225.053 536.353 209.064 533.688C193.076 531.024 191.3 522.141 191.3 522.141V516.812L186.859 514.147V505.265C186.859 505.265 180.641 500.824 186.859 493.718L184.194 468.847L197.517 467.071Z" fill="#2F2E41"/>
<path d="M89.1529 467.071L82.0471 491.053L77.6059 512.371C77.6059 512.371 61.6177 536.353 77.6059 533.688C93.5941 531.024 95.3706 522.141 95.3706 522.141V516.812L99.8118 514.147V505.265C99.8118 505.265 106.029 500.824 99.8118 493.718L102.476 468.847L89.1529 467.071Z" fill="#2F2E41"/>
<path d="M153.106 160.185C165.37 160.185 175.312 150.243 175.312 137.979C175.312 125.715 165.37 115.774 153.106 115.774C140.842 115.774 130.9 125.715 130.9 137.979C130.9 150.243 140.842 160.185 153.106 160.185Z" fill="#FBBEBE"/>
<path d="M130.9 168.179C130.9 168.179 153.994 177.95 160.212 176.174C166.429 174.397 168.206 182.391 168.206 182.391L185.97 194.827L180.641 225.027C180.641 225.027 185.082 241.015 179.753 251.674C179.753 251.674 193.964 256.115 188.635 263.221C188.635 263.221 198.406 268.55 193.076 279.209C193.076 279.209 166.429 272.103 163.764 258.779L136.229 262.332L116.688 277.432C116.688 277.432 106.917 276.544 110.47 262.332C112.559 253.53 112.252 244.329 109.582 235.685L99.8115 173.509L130.9 168.179Z" fill="#FF5757"/>
<path d="M102.753 172.685L99.2065 173.625C97.97 173.953 96.8625 174.649 96.0306 175.621L94.8812 176.964C93.7438 178.292 93.0639 179.952 92.9421 181.697L92.1518 193.02L90.9022 248.148L92.022 284.549L86.1826 311.735L108.182 315.241L111.155 248.436L105.656 174.751C105.631 174.412 105.531 174.083 105.364 173.786C105.197 173.49 104.967 173.234 104.69 173.037C104.412 172.84 104.095 172.706 103.761 172.645C103.426 172.584 103.082 172.598 102.753 172.685V172.685Z" fill="#FF5757"/>
<path d="M157.458 181.192C153.812 172.363 148.408 163.031 144.841 154.655C142.379 144.869 141.76 136.492 147.332 132.206C147.332 122.782 147.661 116.635 140.173 112.052C138.37 112.838 136.667 113.835 135.098 115.022L135.092 115.019C134.796 115.234 134.509 115.465 134.225 115.701C134.105 115.799 133.989 115.901 133.871 116.002C133.808 116.057 133.743 116.109 133.68 116.164L133.686 116.168C130.997 118.507 128.841 121.395 127.364 124.639C125.888 127.882 125.124 131.405 125.126 134.968V181.947H152.662C151.751 177.979 150.539 173.867 149.283 169.769C151.271 173.737 153.226 177.732 154.838 181.627L157.458 181.192Z" fill="#2F2E41"/>
<path d="M178.421 132.206C166.387 135.58 152.851 135.024 138.45 132.206V114.441H160.656C165.368 114.441 169.886 116.313 173.218 119.644C176.549 122.976 178.421 127.494 178.421 132.206V132.206Z" fill="#2F2E41"/>
<path d="M817 40.3663H266V383.48H817V40.3663Z" fill="#D0EEFF"/>
<path d="M403.864 106.466H302.949V172.061H403.864V106.466Z" fill="white"/>
<path d="M529.26 106.466H428.344V172.061H529.26V106.466Z" fill="white"/>
<path d="M654.656 106.466H553.74V172.061H654.656V106.466Z" fill="white"/>
<path d="M780.051 106.466H679.135V172.061H780.051V106.466Z" fill="white"/>
<path d="M403.864 199.309H302.949V264.904H403.864V199.309Z" fill="white"/>
<path d="M529.26 199.309H428.344V264.904H529.26V199.309Z" fill="white"/>
<path d="M654.656 199.309H553.74V264.904H654.656V199.309Z" fill="white"/>
<path d="M780.051 199.309H679.135V264.904H780.051V199.309Z" fill="white"/>
<path d="M403.864 292.151H302.949V357.746H403.864V292.151Z" fill="white"/>
<path d="M529.26 292.151H428.344V357.746H529.26V292.151Z" fill="white"/>
<path d="M654.656 292.151H553.74V357.746H654.656V292.151Z" fill="white"/>
<path d="M780.051 292.151H679.135V357.746H780.051V292.151Z" fill="white"/>
<path d="M410.31 80.7326C418.67 80.7326 425.447 73.9554 425.447 65.5952C425.447 57.2351 418.67 50.4579 410.31 50.4579C401.95 50.4579 395.172 57.2351 395.172 65.5952C395.172 73.9554 401.95 80.7326 410.31 80.7326Z" fill="white"/>
<path d="M660.581 80.7326C668.941 80.7326 675.718 73.9554 675.718 65.5952C675.718 57.2351 668.941 50.4579 660.581 50.4579C652.221 50.4579 645.443 57.2351 645.443 65.5952C645.443 73.9554 652.221 80.7326 660.581 80.7326Z" fill="white"/>
<path d="M416.364 0H404.254V69.6319H416.364V0Z" fill="#E6E6E6"/>
<path d="M666.635 0H654.525V69.6319H666.635V0Z" fill="#E6E6E6"/>
<path d="M752.414 139.264C752.409 144.744 750.426 150.038 746.83 154.174C743.234 158.309 738.267 161.008 732.841 161.775C727.414 162.542 721.894 161.324 717.293 158.346C712.692 155.369 709.32 150.831 707.797 145.567C706.274 140.302 706.702 134.665 709.002 129.691C711.302 124.717 715.32 120.74 720.318 118.49C725.315 116.241 730.957 115.871 736.205 117.448C741.454 119.025 745.957 122.442 748.887 127.073C751.192 130.722 752.415 134.949 752.414 139.264V139.264Z" fill="#5271FF"/>
<path d="M748.887 127.073L726.423 149.533C725.011 147.347 717.146 137.189 717.146 137.189C718.154 136.17 719.229 135.221 720.365 134.347L726.888 143.044L746.256 123.675C747.239 124.722 748.12 125.86 748.887 127.073V127.073Z" fill="white"/>
<path d="M501.623 232.106C501.618 237.586 499.635 242.881 496.039 247.016C492.443 251.152 487.476 253.851 482.05 254.617C476.623 255.384 471.102 254.167 466.502 251.189C461.901 248.211 458.529 243.673 457.006 238.409C455.483 233.145 455.911 227.507 458.211 222.533C460.511 217.559 464.529 213.582 469.527 211.333C474.524 209.084 480.165 208.714 485.414 210.29C490.662 211.867 495.166 215.285 498.096 219.916C500.401 223.564 501.624 227.791 501.623 232.106V232.106Z" fill="#5271FF"/>
<path d="M498.096 219.916L475.632 242.376C474.22 240.19 466.354 230.032 466.354 230.032C467.363 229.013 468.438 228.063 469.574 227.189L476.097 235.886L495.465 216.518C496.448 217.565 497.328 218.702 498.096 219.916V219.916Z" fill="white"/>
<path d="M376.228 232.106C376.223 237.586 374.24 242.881 370.644 247.016C367.048 251.152 362.081 253.851 356.654 254.618C351.228 255.384 345.707 254.167 341.106 251.189C336.506 248.211 333.134 243.673 331.611 238.409C330.088 233.145 330.516 227.507 332.816 222.533C335.116 217.559 339.134 213.582 344.131 211.333C349.129 209.084 354.77 208.713 360.019 210.29C365.267 211.867 369.77 215.285 372.701 219.916C375.006 223.564 376.228 227.791 376.228 232.106Z" fill="#5271FF"/>
<path d="M372.701 219.916L350.237 242.376C348.825 240.19 340.959 230.032 340.959 230.032C341.967 229.013 343.043 228.063 344.179 227.189L350.701 235.886L370.07 216.518C371.052 217.565 371.933 218.702 372.701 219.916Z" fill="white"/>
</svg>
