<svg width="1112" height="590" viewBox="0 0 1112 590" fill="none" xmlns="http://www.w3.org/2000/svg">
<g clip-path="url(#clip0)">
<path opacity="0.1" d="M47.11 80.64C48.91 92.06 53.51 103.09 53.55 114.64C53.7 152.38 7.90995 175.56 0.899951 212.64C-3.26005 234.64 7.51995 257.12 22.72 273.53C37.92 289.94 57.2999 301.77 75.1499 315.27C124.538 352.691 162.606 403.049 185.14 460.77C189.65 472.37 193.53 484.33 194.81 496.71C195.74 505.71 195.3 514.92 197.41 523.71C205.76 558.6 248.1 572.14 283.9 574.4C341.559 577.979 399.273 568.341 452.64 546.22C464.64 541.22 477.03 535.54 489.91 536.95C500.21 538.08 509.4 543.65 518.44 548.72C545.062 563.661 573.395 575.326 602.82 583.46C619.12 587.96 636.23 591.38 652.88 588.46C702.88 579.64 729.45 519 778.51 505.74C812.45 496.57 847.77 512.59 878.21 530.18C908.65 547.77 940.07 568.03 975.21 568.08C1022.09 568.14 1060.63 532.66 1092.43 498.22C1099.1 490.99 1105.88 483.43 1109.06 474.12C1115.51 455.22 1105.06 433.99 1089.61 421.29C1074.16 408.59 1054.68 402.29 1036.07 395.03C1004.53 382.724 974.424 367.003 946.3 348.15C928.1 335.95 910.47 322.15 898.02 304.15C887.31 288.63 880.88 270.64 873.7 253.2C857.96 215.01 835.7 176.2 798.53 158.28C768.18 143.64 732.93 145.28 699.24 144.89C649.6 144.34 598.7 138.37 554.69 115.41C517.52 96.02 486.99 65.41 449.27 47.08C389.27 17.95 320.68 23.66 256.03 24.76C224.96 25.29 188.03 28.39 158.19 18.21C136.12 10.68 124.76 -4.71 99.4099 1.49C64.7399 9.94 41.57 45.41 47.11 80.64Z" fill="#5271FF"/>
<path d="M966.33 355.53C964.76 350.332 964.925 344.765 966.8 339.67C969.8 331.91 977.11 326.31 979.68 318.38C984.46 303.65 971.58 289.86 963.68 276.51C956.433 264.124 953.15 249.817 954.27 235.51C955.5 220.15 961.79 205.46 962.27 190.06C962.7 175.71 958.05 161.75 953.46 148.15C949.67 136.91 945.81 125.54 939.4 115.56C927.28 96.6899 905.75 84.8299 883.61 82.8699C873.16 81.9399 862.94 85.3399 852.67 84.0099C838.41 82.1699 824.93 78.4699 810.39 78.0099C796.58 77.5999 781.31 79.3499 771.9 89.4699C764.71 97.2199 762.41 108.41 755.83 116.69C746.49 128.44 730.16 132.47 719.83 143.35C715.367 148.158 712.233 154.047 710.737 160.434C709.241 166.822 709.435 173.49 711.3 179.78C712.73 184.42 715.07 188.73 716.59 193.34C722.98 212.6 714.59 233.2 709.52 252.84C708.949 254.445 708.845 256.178 709.22 257.84C710.02 260.24 712.54 261.5 714.63 262.92C721.47 267.58 724.96 276.02 725.63 284.27C726.3 292.52 724.39 300.74 722.51 308.8C717.72 329.29 711.73 351.24 695.94 364.87C693.073 358.032 689.683 351.426 685.8 345.11C676.14 329.45 668.99 310.11 668.87 291.6C668.863 291.543 668.863 291.486 668.87 291.43C668.87 290.43 668.92 289.43 668.98 288.43C670.23 266.59 679.67 245.52 679.46 223.78C679.46 222.02 679.41 220.257 679.31 218.49C678.08 199.88 669.14 182.67 658.89 167.09C651.24 155.46 642.62 144.23 631.58 135.76C614.51 122.77 592.82 117.13 571.51 114.15C550.2 111.17 530.81 108.37 509.33 106.93C486.23 105.38 460.81 104.51 442.55 118.73C418.74 137.27 417.42 173.08 399.27 197.18C388.47 211.52 371.27 222.6 365.58 238.89C364.041 234.892 362.758 230.801 361.74 226.64C361.68 226.36 361.62 226.09 361.56 225.81C368.422 206.154 370.019 185.044 366.19 164.58C366.642 161.266 366.872 157.925 366.88 154.58C366.992 150.94 366.598 147.302 365.71 143.77C363.14 134.03 356.05 126.24 349.2 118.85C346.706 116.029 343.998 113.404 341.1 111C323.174 89.2811 298.11 74.6419 270.387 69.6969C242.663 64.7518 214.084 69.8229 189.754 84.0045C165.424 98.1861 146.928 120.555 137.568 147.115C128.209 173.676 128.596 202.698 138.66 229C137.78 235.82 135.14 242.45 130.29 247.26C128.08 249.45 125.22 252.19 125.7 254.99C125.551 255.787 125.663 256.611 126.02 257.34C126.511 258.213 127.195 258.962 128.02 259.53C135.016 264.876 143.729 267.473 152.51 266.83C159.92 288.608 174.447 307.256 193.75 319.77C193.75 320.437 193.727 321.083 193.68 321.71C193.68 322.82 193.59 323.92 193.54 325.04C193.54 325.29 193.54 325.54 193.54 325.79C193.54 325.7 193.54 325.6 193.54 325.5C193.54 325.4 158.72 370.89 126.54 372.58C109.36 373.48 94.37 385.07 83.01 398.32C69.37 414.22 60.95 432.5 60.23 437.56C58.9 446.84 49.62 491.94 49.62 491.94H316.96C313.8 508.18 309.54 528.87 309.54 528.87H742.33C741.33 514.96 740.22 502.1 739.19 491.21H793.6L793.54 491.54H1044.54L1060.46 467.65C1056.51 398.04 1015.45 359.77 966.33 355.53ZM341.43 277.77C347.077 280.808 353.143 282.992 359.43 284.25C362.16 284.81 365.21 285.16 367.54 283.63C369.084 282.464 370.227 280.845 370.81 279L370.93 279.3C377.68 296.3 383.93 313.84 385.14 332.1C385.25 333.82 385.32 335.54 385.33 337.27C385.357 347.686 383.208 357.993 379.02 367.53C356.411 355.64 334.607 342.278 313.75 327.53L312.34 326.93C312.34 327.04 312.83 328.29 313.41 330.4C313.55 330.91 313.7 331.47 313.85 332.07C312.42 327.45 311.12 322.73 309.98 317.92C309.85 317.35 309.72 316.78 309.59 316.21C323.208 306.215 334.145 293.01 341.43 277.77V277.77Z" fill="url(#paint0_linear)"/>
<path d="M806.38 81.55C792.79 81.14 777.75 82.87 768.5 92.83C761.42 100.45 759.16 111.47 752.68 119.62C743.49 131.19 727.42 135.15 717.24 145.86C712.846 150.593 709.761 156.389 708.288 162.677C706.815 168.965 707.005 175.528 708.84 181.72C710.25 186.28 712.55 190.53 714.05 195.06C720.34 214.06 712.13 234.29 707.05 253.62C706.483 255.205 706.383 256.919 706.76 258.56C707.54 260.92 710.03 262.16 712.08 263.56C718.81 268.15 722.25 276.45 722.86 284.56C723.47 292.67 721.64 300.77 719.79 308.7C714.88 329.7 708.68 352.31 691.63 365.54C684.43 371.19 674.81 375.77 672.93 384.77C670.73 395.31 680.79 404.27 690.44 409.04C718.77 423.04 751.66 423.24 782.65 429.48C809.94 434.98 837.16 445.4 864.78 441.84C877.09 440.26 888.86 435.93 900.51 431.64L973.05 404.91C975.099 404.284 977.027 403.313 978.75 402.04C983.12 398.4 983.27 391.48 980.89 386.31C978.51 381.14 974.19 377.18 970.39 372.94C962.11 363.67 955.81 350.58 960.33 339C963.33 331.36 970.48 325.85 973.01 318C977.71 303.5 965.01 289.92 957.31 276.78C950.187 264.601 946.956 250.536 948.05 236.47C949.26 221.35 955.45 206.89 955.9 191.73C956.32 177.61 951.75 163.87 947.23 150.48C943.5 139.42 939.7 128.23 933.39 118.4C921.46 99.83 900.27 88.16 878.47 86.22C868.18 85.31 858.13 88.65 848.02 87.35C833.97 85.62 820.69 81.98 806.38 81.55Z" fill="#F7D6C8"/>
<path d="M826.67 478.36C826.67 478.36 744.43 426.8 776.41 367.36C783.81 353.62 787.08 340.62 787.75 328.75C787.926 325.622 787.926 322.488 787.75 319.36C787.75 319.21 787.75 319.06 787.75 318.91C787.643 317.297 787.5 315.71 787.32 314.15C783.51 282.77 763.35 262.32 763.35 262.32C763.35 262.32 899.76 222.51 876.92 258.4C866.32 275.06 869.49 291.4 876.59 308.31C877.34 310.09 878.14 311.89 878.97 313.68C887.17 331.51 898.55 349.98 901.73 370.01C908.25 411.13 826.67 478.36 826.67 478.36Z" fill="#EFB7B9"/>
<path opacity="0.1" d="M876.92 258.4C866.32 275.06 869.49 291.4 876.59 308.31C863.43 316.795 848.326 321.787 832.702 322.816C817.077 323.844 801.449 320.876 787.29 314.19C783.51 282.77 763.35 262.32 763.35 262.32C763.35 262.32 899.77 222.5 876.92 258.4Z" fill="black"/>
<path d="M826.66 321.06C877.487 321.06 918.69 279.857 918.69 229.03C918.69 178.203 877.487 137 826.66 137C775.833 137 734.63 178.203 734.63 229.03C734.63 279.857 775.833 321.06 826.66 321.06Z" fill="#EFB7B9"/>
<path opacity="0.1" d="M787.75 319.4C787.75 319.25 787.75 319.1 787.75 318.95L787.86 318.77C787.8 318.99 787.76 319.2 787.75 319.4Z" fill="black"/>
<path opacity="0.1" d="M826.67 478.36C826.67 478.36 744.43 426.8 776.41 367.36C783.81 353.62 787.08 340.62 787.75 328.75C789.62 343.43 799.75 361.68 818.19 386.94C826.19 397.94 829.63 413.32 830.72 428.69L832.55 430.02L841.55 424.58C842.55 407.58 845.99 390.4 854.13 378.22C875.52 346.22 880.6 330.22 879.02 313.64C887.22 331.47 898.6 349.94 901.78 369.97C908.25 411.13 826.67 478.36 826.67 478.36Z" fill="black"/>
<path d="M958.51 354.51C909.51 350.95 878.51 312.91 878.51 312.91C881.12 330.73 876.88 346.68 854.03 380.91C845.94 393.05 842.51 410.2 841.51 427.24L832.51 432.68L830.68 431.35C829.59 415.99 826.16 400.59 818.15 389.6C795.31 358.27 785.15 337.71 787.8 321.39C787.8 321.39 762.67 362.18 713.72 365.45C664.77 368.72 623.65 403.31 619.72 466.62L635.38 488.16H789.85L789.79 488.49H1036.79L1052.51 464.96C1048.58 395.84 1007.51 358.07 958.51 354.51Z" fill="#5271FF"/>
<path opacity="0.05" d="M958.51 354.51C909.51 350.95 878.51 312.91 878.51 312.91C881.12 330.73 876.88 346.68 854.03 380.91C845.94 393.05 842.51 410.2 841.51 427.24L832.51 432.68L830.68 431.35C829.59 415.99 826.16 400.59 818.15 389.6C795.31 358.27 785.15 337.71 787.8 321.39C787.8 321.39 762.67 362.18 713.72 365.45C664.77 368.72 623.65 403.31 619.72 466.62L635.38 488.16H789.85L789.79 488.49H1036.79L1052.51 464.96C1048.58 395.84 1007.51 358.07 958.51 354.51Z" fill="black"/>
<path opacity="0.1" d="M888.88 184.55C884.88 194.45 877.78 202.81 870.02 210.15C859.3 220.3 845.82 229.24 831.08 228.55C839.116 221.064 844.933 211.507 847.89 200.93C838.59 206.35 831.56 214.93 822.68 221.04C813.8 227.15 801.25 230.3 792.57 223.92C808.336 215.994 821.432 203.621 830.24 188.33C809.16 193.8 798.34 217.54 779.35 228.2C770.45 233.2 760.04 235.08 749.84 234.86C742.59 234.71 734.51 233.02 730.47 227C728.11 223.5 727.56 219.1 727.47 214.87C727.03 195.69 734.84 176.87 746.87 161.94C758.9 147.01 774.87 135.66 791.95 126.85C798.03 123.71 804.37 120.85 811.14 119.85C819.56 118.63 828.14 120.42 836.4 122.32C847.14 124.78 857.94 127.48 867.83 132.32C888.94 142.77 898.16 161.71 888.88 184.55Z" fill="black"/>
<path d="M888.88 183.24C884.88 193.14 877.78 201.5 870.02 208.84C859.3 218.99 845.82 227.93 831.08 227.24C839.116 219.754 844.933 210.197 847.89 199.62C838.59 205.04 831.56 213.62 822.68 219.73C813.8 225.84 801.25 228.99 792.57 222.61C808.336 214.684 821.432 202.31 830.24 187.02C809.16 192.49 798.34 216.23 779.35 226.89C770.45 231.89 760.04 233.77 749.84 233.55C742.59 233.4 734.51 231.71 730.47 225.69C728.11 222.19 727.56 217.79 727.47 213.56C727.03 194.38 734.84 175.56 746.87 160.63C758.9 145.7 774.87 134.35 791.95 125.54C798.03 122.4 804.37 119.54 811.14 118.54C819.56 117.32 828.14 119.11 836.4 121.01C847.14 123.47 857.94 126.17 867.83 131.01C888.94 141.44 898.16 160.4 888.88 183.24Z" fill="#F7D6C8"/>
<path d="M254.32 305.14C318.843 305.14 371.15 252.833 371.15 188.31C371.15 123.787 318.843 71.48 254.32 71.48C189.797 71.48 137.49 123.787 137.49 188.31C137.49 252.833 189.797 305.14 254.32 305.14Z" fill="#C3705A"/>
<path d="M359.08 413.16C359.08 413.16 252.08 440.57 249.43 443.16C246.78 445.75 159.36 450.34 184.81 396.82C194.16 377.17 198.05 350.48 199.23 324.57C199.28 323.47 199.33 322.38 199.37 321.29C200.98 277.86 195.26 237.56 195.26 237.56C195.26 237.56 319.26 188.56 310.13 263.02C307.85 281.54 309.74 300.15 313.88 317.65C315.26 323.49 316.88 329.2 318.68 334.74C333.16 379.38 359.08 413.16 359.08 413.16Z" fill="#ECB4B6"/>
<path opacity="0.1" d="M313.87 317.67C297.424 329.864 277.647 336.746 257.184 337.396C236.721 338.047 216.547 332.435 199.36 321.31C200.97 277.88 195.25 237.58 195.25 237.58C195.25 237.58 319.25 188.58 310.12 263.04C307.85 281.57 309.74 300.18 313.87 317.67Z" fill="black"/>
<path d="M253.99 335.48C309.5 335.48 354.5 290.48 354.5 234.97C354.5 179.46 309.5 134.46 253.99 134.46C198.48 134.46 153.48 179.46 153.48 234.97C153.48 290.48 198.48 335.48 253.99 335.48Z" fill="#ECB4B6"/>
<path opacity="0.1" d="M359.08 413.16C359.08 413.16 252.08 440.57 249.43 443.16C246.78 445.75 159.36 450.34 184.81 396.82C194.16 377.17 198.05 350.48 199.23 324.57C200.23 338.11 207.97 370.9 208.96 381.81C209.023 382.448 209.15 383.078 209.34 383.69C210.79 388.54 215.96 394.13 222.19 399.43L222.56 399.74C230.309 406.24 239.926 410.107 250.018 410.781C260.11 411.455 270.155 408.902 278.7 403.49C287.594 397.887 296.131 391.735 304.26 385.07C315.9 375.46 319.53 362.51 319.98 351.07C320.166 345.578 319.73 340.083 318.68 334.69C333.16 379.38 359.08 413.16 359.08 413.16Z" fill="black"/>
<path d="M494.19 488.88H57.51C57.51 488.88 66.65 444.5 67.95 435.36C68.66 430.36 76.95 412.36 90.38 396.73C101.56 383.73 116.31 372.28 133.22 371.39C164.87 369.73 199.14 325.05 199.14 325.05C199.9 338.05 207.92 372 208.93 383.14C208.993 383.778 209.12 384.408 209.31 385.02C210.76 389.87 215.93 395.46 222.16 400.76L222.53 401.07C230.278 407.573 239.893 411.443 249.986 412.118C260.078 412.794 270.124 410.242 278.67 404.83C287.563 399.224 296.099 393.073 304.23 386.41C315.87 376.8 319.5 363.85 319.95 352.41C320.179 344.819 319.259 337.236 317.22 329.92C316.65 327.84 316.22 326.62 316.16 326.51L317.55 327.1C317.55 327.1 376.68 370.1 430.85 387.68C437.198 389.747 443.189 392.783 448.61 396.68C453.001 399.854 457.043 403.485 460.67 407.51C468.002 415.802 474.068 425.133 478.67 435.2C491.23 461.82 494.19 488.88 494.19 488.88Z" fill="#5271FF"/>
<path opacity="0.05" d="M494.19 488.88H57.51C57.51 488.88 66.65 444.5 67.95 435.36C68.66 430.36 76.95 412.36 90.38 396.73C101.56 383.73 116.31 372.28 133.22 371.39C164.87 369.73 199.14 325.05 199.14 325.05C199.9 338.05 207.92 372 208.93 383.14C208.993 383.778 209.12 384.408 209.31 385.02C210.76 389.87 215.93 395.46 222.16 400.76L222.53 401.07C230.278 407.573 239.893 411.443 249.986 412.118C260.078 412.794 270.124 410.242 278.67 404.83C287.563 399.224 296.099 393.073 304.23 386.41C315.87 376.8 319.5 363.85 319.95 352.41C320.179 344.819 319.259 337.236 317.22 329.92C316.65 327.84 316.22 326.62 316.16 326.51L317.55 327.1C317.55 327.1 376.68 370.1 430.85 387.68C437.198 389.747 443.189 392.783 448.61 396.68C453.001 399.854 457.043 403.485 460.67 407.51C468.002 415.802 474.068 425.133 478.67 435.2C491.23 461.82 494.19 488.88 494.19 488.88Z" fill="black"/>
<path opacity="0.1" d="M302.31 201.22C304.91 211.22 308.31 222.33 317.24 227.54C318.437 228.114 319.539 228.865 320.51 229.77C322.71 232.16 322.04 235.89 321.71 239.13C320.57 250.25 325.35 261.52 333.19 269.49C341.03 277.46 351.64 282.33 362.59 284.57C365.27 285.12 368.28 285.47 370.59 283.96C372.151 282.774 373.299 281.126 373.87 279.25C376.92 271.14 375.63 262.03 373.08 253.75C370.53 245.47 366.77 237.57 364.84 229.12C360.25 209.07 366.33 188.35 369.07 167.96C369.98 161.18 370.51 154.19 368.76 147.58C366.23 138 359.25 130.32 352.51 123.05C348.88 119.14 345.17 115.16 340.51 112.6C326.77 105.09 309.08 111.76 294.41 106.29C288.54 104.1 283.55 100.1 277.96 97.29C266.09 91.29 252.02 90.96 239.01 93.69C226 96.42 213.81 102.03 201.74 107.59L192.51 111.77C179.51 117.77 165.58 124.55 158.58 137.1C151.13 150.46 153.2 167.56 145.75 180.92C143.49 184.92 140.34 188.76 139.75 193.36C139.35 196.68 140.37 200 141.32 203.21C143.64 211.02 145.66 219.05 145.48 227.21C145.3 235.37 142.7 243.73 136.92 249.47C134.48 251.89 131.22 254.99 132.72 258.08C133.212 258.944 133.897 259.683 134.72 260.24C139.467 263.845 145.047 266.193 150.944 267.067C156.84 267.942 162.861 267.313 168.45 265.24C172.83 263.57 176.97 260.89 179.45 256.94C181.099 254.046 182.293 250.917 182.99 247.66C186.15 235.89 189.33 223.92 189.08 211.73C188.94 204.73 187.66 197.67 188.68 190.73C189.7 183.79 193.75 176.64 200.5 174.73C205.5 173.3 210.85 175.03 216.07 174.98C223.59 174.92 232.81 166.58 239.78 169.03C245.78 171.15 250.53 182.63 255.49 187.03C268.07 198.26 285.63 204.13 302.31 201.22Z" fill="black"/>
<path d="M302.31 199.91C304.91 209.91 308.31 221.02 317.24 226.23C318.419 226.792 319.508 227.527 320.47 228.41C322.67 230.8 322 234.53 321.67 237.77C320.53 248.89 325.31 260.16 333.15 268.13C340.99 276.1 351.6 280.97 362.55 283.21C365.23 283.76 368.24 284.11 370.55 282.6C372.111 281.414 373.259 279.766 373.83 277.89C376.88 269.78 375.59 260.67 373.04 252.39C370.49 244.11 366.73 236.21 364.8 227.76C360.21 207.71 366.29 186.99 369.03 166.6C369.94 159.82 370.47 152.83 368.72 146.22C366.19 136.64 359.21 128.96 352.47 121.69C348.84 117.78 345.13 113.8 340.47 111.24C326.73 103.73 309.04 110.4 294.37 104.93C288.5 102.74 283.51 98.7401 277.92 95.9301C266.05 89.9301 251.98 89.6001 238.97 92.3301C225.96 95.0601 213.77 100.67 201.7 106.23L192.59 110.43C179.59 116.43 165.66 123.21 158.66 135.76C151.21 149.12 153.28 166.22 145.83 179.58C143.57 183.58 140.42 187.42 139.83 192.02C139.43 195.34 140.45 198.66 141.4 201.87C143.72 209.68 145.74 217.71 145.56 225.87C145.38 234.03 142.78 242.39 137 248.13C134.56 250.55 131.3 253.65 132.8 256.74C133.292 257.604 133.976 258.343 134.8 258.9C139.547 262.505 145.127 264.853 151.024 265.727C156.92 266.602 162.941 265.973 168.53 263.9C172.91 262.23 177.05 259.55 179.53 255.6C181.179 252.706 182.373 249.577 183.07 246.32C186.23 234.55 189.41 222.58 189.16 210.39C189.02 203.39 187.74 196.33 188.76 189.39C189.78 182.45 193.83 175.3 200.58 173.39C205.58 171.96 210.93 173.69 216.15 173.64C223.67 173.58 232.89 165.24 239.86 167.69C245.86 169.81 250.61 181.29 255.57 185.69C268.07 196.96 285.63 202.83 302.31 199.91Z" fill="#C3705A"/>
<path d="M637.13 242.6H408.03V439.06H637.13V242.6Z" fill="#463A3E"/>
<path opacity="0.05" d="M637.13 242.6H408.03V439.06H637.13V242.6Z" fill="black"/>
<path d="M604.28 525.22H408.28C410.81 510.95 418.21 495.31 432.63 478.45C444.016 465.196 453.328 450.294 460.25 434.25C462.11 429.963 463.777 425.667 465.25 421.36C469.581 408.572 472.528 395.357 474.04 381.94C474.04 381.56 474.13 381.18 474.17 380.8C475.181 371.53 475.588 362.203 475.39 352.88C475.39 352.21 475.39 351.56 475.39 350.88C474.69 328.003 470.906 305.325 464.14 283.46L463.89 282.68C461.76 275.97 460.2 272.2 460.2 272.2C460.2 272.2 464.09 270.09 470.51 266.98L471.05 266.72C494.66 255.38 550.55 231.72 575.19 248.58L575.59 248.85C584.21 254.99 588.85 266.26 586.67 285.03C586.67 285.1 586.67 285.18 586.67 285.25C586.67 285.6 586.59 285.94 586.56 286.25C585.24 299.187 584.616 312.186 584.69 325.19C584.69 325.84 584.69 326.49 584.69 327.19C584.69 330.237 584.723 333.323 584.79 336.45C584.79 336.87 584.79 337.29 584.79 337.71C584.99 347.81 585.44 358.24 586.07 368.82C586.94 383.49 588.18 398.43 589.61 413.09C590.22 419.36 590.88 425.59 591.61 431.72C591.69 432.44 591.77 433.18 591.85 433.89C592.69 441.36 593.56 448.68 594.45 455.78L594.51 456.24C597.91 484.44 601.67 509.06 604.28 525.22Z" fill="#C17174"/>
<path opacity="0.1" d="M586.59 285.07C586.59 285.14 586.59 285.22 586.59 285.29C585.181 298.576 584.513 311.93 584.59 325.29C584.59 325.94 584.59 326.59 584.59 327.29C571.429 342.565 553.768 353.278 534.14 357.892C514.512 362.505 493.928 360.782 475.34 352.97C475.34 352.3 475.34 351.65 475.34 350.97C474.635 327.819 470.766 304.872 463.84 282.77C461.71 276.06 460.15 272.29 460.15 272.29C460.15 272.29 464.04 270.18 470.46 267.07C493.84 255.77 550.89 231.37 575.51 248.89C584.12 255.03 588.76 266.3 586.59 285.07Z" fill="black"/>
<path d="M512.35 358.39C564.994 358.39 607.67 315.714 607.67 263.07C607.67 210.426 564.994 167.75 512.35 167.75C459.706 167.75 417.03 210.426 417.03 263.07C417.03 315.714 459.706 358.39 512.35 358.39Z" fill="#C17174"/>
<path opacity="0.1" d="M517.4 524.57H314.05C314.05 524.57 323.19 480.19 324.49 471.05C325.2 466.05 333.49 448.05 346.92 432.42C364.17 418.659 385.535 411.079 407.6 410.89C446.49 410.31 457.81 423.7 460.88 433.6C461.953 436.919 462.227 440.445 461.68 443.89L469.04 454.55L517.4 524.57Z" fill="black"/>
<path d="M516.75 525.22H313.4C313.4 525.22 322.54 480.84 323.84 471.7C324.55 466.7 332.84 448.7 346.27 433.07C363.52 419.309 384.885 411.729 406.95 411.54C445.84 410.96 457.16 424.35 460.23 434.25C461.302 437.569 461.577 441.095 461.03 444.54L468.39 455.2L516.75 525.22Z" fill="#5271FF"/>
<path opacity="0.1" d="M738.73 524.57H525.67C535.83 502.95 562.46 445.31 563.94 431.98C564.51 426.82 570.01 421.98 577.29 417.87C579.589 416.554 581.956 415.359 584.38 414.29L584.82 414.09C586.153 413.503 587.503 412.96 588.87 412.46C607.299 405.713 627.549 405.873 645.87 412.91C663.36 419.56 685.87 428.52 703.39 436.91L703.53 436.98C708.03 439.14 712.22 441.25 715.91 443.28C723.29 447.33 728.68 451.03 730.75 453.99C731.7 455.35 732.75 461.48 733.9 470.99C735.43 483.85 737.1 502.93 738.73 524.57Z" fill="black"/>
<path d="M739.38 525.22H526.32C536.48 503.6 563.11 445.96 564.59 432.63C565.16 427.47 570.66 422.63 577.94 418.52C580.239 417.204 582.606 416.009 585.03 414.94L585.47 414.74C586.803 414.153 588.153 413.61 589.52 413.11C607.95 406.363 628.199 406.523 646.52 413.56C664.01 420.21 686.52 429.17 704.04 437.56L704.18 437.63C708.68 439.79 712.87 441.9 716.56 443.93C723.94 447.98 729.33 451.68 731.4 454.64C732.35 456 733.4 462.13 734.55 471.64C736.09 484.5 737.75 503.59 739.38 525.22Z" fill="#5271FF"/>
<path opacity="0.1" d="M705.09 420.67C705.09 423.743 705.007 426.82 704.84 429.9C704.747 431.4 704.633 432.9 704.5 434.4C704.41 435.48 704.3 436.55 704.19 437.62L704.05 438.86C702.42 453.4 699.41 467.86 699.05 482.47C699.05 483.16 699.05 483.85 699.05 484.54C698.98 498.26 701.2 511.77 704.21 525.22H581.51C581.31 522.73 581.21 520.22 581.24 517.75C581.24 515.52 581.38 513.29 581.61 511.05C583.5 492.64 592.91 475.41 594.33 457.12L594.39 456.28C594.48 454.91 594.53 453.53 594.51 452.15C594.51 452.03 594.51 451.91 594.51 451.78C594.354 445.733 593.424 439.73 591.74 433.92C591.66 433.63 591.58 433.34 591.5 433.05C589.785 427.287 587.783 421.613 585.5 416.05L585.06 414.94C581.73 406.62 578.23 398.37 575.86 390.1C573.976 383.941 573.002 377.54 572.97 371.1C572.97 369.95 573.04 368.8 573.13 367.65C573.21 366.71 573.32 365.77 573.46 364.82C573.678 363.336 573.972 361.864 574.34 360.41C576.34 352.53 580.61 345.14 584.7 337.82C589.25 329.67 593.59 321.61 594.37 313.04C594.469 311.956 594.505 310.868 594.48 309.78C594.449 308.379 594.315 306.982 594.08 305.6C593.03 299.52 589.9 294.05 587.33 288.44C587.07 287.87 586.81 287.3 586.56 286.72C586.56 286.63 586.48 286.54 586.45 286.45C581.45 274.9 578.55 262.58 575.5 250.32C575.37 249.79 575.24 249.26 575.1 248.74C574.35 245.74 573.58 242.74 572.76 239.74C568.28 223.38 561.9 206.85 549.76 195.04C537.62 183.23 518.26 177.25 503.06 184.77C489.91 191.32 482.79 205.98 479.58 220.3C476.37 234.62 476.11 249.57 471.94 263.65C471.64 264.677 471.307 265.7 470.94 266.72C470.76 267.24 470.58 267.72 470.4 268.29C468.61 273.39 466.4 278.44 464.02 283.46L463.77 283.99C456.17 300.16 447.34 316.05 447.06 332.3V332.51C447.06 332.95 447.06 333.38 447.06 333.82C447.112 337.682 447.697 341.518 448.8 345.22C450.8 351.88 454.42 357.69 458.64 363.22C459.473 364.307 460.327 365.383 461.2 366.45C465.4 371.61 469.96 376.61 473.95 381.93L474.08 382.1C477.114 386.029 479.675 390.302 481.71 394.83C484.122 400.502 485.382 406.597 485.417 412.76C485.451 418.923 484.259 425.032 481.91 430.73C480.777 433.363 479.478 435.922 478.02 438.39C475.45 442.83 472.62 447.15 470.39 451.77C469.64 453.32 468.97 454.9 468.39 456.5C463.39 469.38 462.31 483.63 458.23 496.92C455.07 507.124 450.153 516.697 443.7 525.21H313.7C315.21 517.82 322.7 481.21 323.88 472.99C324.59 467.99 332.88 449.99 346.31 434.36C345.18 435.25 344.09 436.15 343.04 437.05C334.571 444.267 327.232 452.715 321.27 462.11C321.56 461.21 321.86 460.3 322.16 459.4C323.99 453.94 325.97 448.53 327.98 443.19C333.8 427.81 340.28 412.12 351.88 400.46C358.43 393.88 366.4 388.81 372.64 381.94C383.64 369.85 388.19 353.1 388.06 336.68C388.06 334.98 387.99 333.29 387.88 331.6C386.69 313.6 380.54 296.37 373.88 279.6C370.3 270.6 366.5 261.14 366.67 251.6C366.681 250.262 366.778 248.926 366.96 247.6C369.71 227.83 389.71 215.99 401.72 200.04C419.58 176.31 420.88 141.04 444.31 122.82C462.31 108.82 487.31 109.68 510.04 111.2C531.18 112.62 550.26 115.37 571.24 118.31C592.22 121.25 613.51 126.77 630.34 139.7C641.21 148.04 649.69 159.09 657.22 170.54C667.3 185.88 676.11 202.82 677.32 221.13C677.41 222.44 677.46 223.74 677.46 225.03C677.67 246.43 668.38 267.17 667.15 288.66C667.1 289.66 667.06 290.66 667.05 291.66C667.044 291.713 667.044 291.767 667.05 291.82C666.83 310.45 673.98 330.01 683.71 345.82C697.534 368.351 704.928 394.236 705.09 420.67V420.67Z" fill="black"/>
<path d="M705.09 420.67C705.09 423.31 704.99 425.96 704.84 428.59C704.747 430.09 704.633 431.59 704.5 433.09C704.367 434.59 704.217 436.077 704.05 437.55C702.42 452.09 699.41 466.55 699.05 481.16C699.05 482.28 699.05 483.41 699.05 484.53C699.12 498.24 701.44 511.76 704.5 525.21H581.62C581.39 522.72 581.25 520.21 581.23 517.74C581.204 515.069 581.327 512.398 581.6 509.74C583.49 491.33 592.9 474.1 594.32 455.81C594.42 454.47 594.49 453.13 594.5 451.81C594.5 451.5 594.5 451.18 594.5 450.87C594.372 444.397 593.366 437.972 591.51 431.77C589.795 426.007 587.793 420.333 585.51 414.77C582.05 406.08 578.34 397.45 575.86 388.77C574.112 383.015 573.141 377.052 572.97 371.04C572.942 369.452 572.995 367.863 573.13 366.28C573.21 365.34 573.32 364.4 573.46 363.45C573.679 361.966 573.972 360.494 574.34 359.04C576.34 351.16 580.61 343.77 584.7 336.45C589.26 328.29 593.62 320.21 594.39 311.63C594.45 310.98 594.48 310.32 594.5 309.63C594.547 307.791 594.413 305.952 594.1 304.14C593.05 298.06 589.92 292.59 587.35 286.98C587.09 286.41 586.83 285.84 586.58 285.26C581.51 273.64 578.58 261.26 575.52 248.86C574.64 245.32 573.74 241.78 572.79 238.27C568.31 221.91 561.93 205.38 549.79 193.57C537.65 181.76 518.32 175.9 503.13 183.46C489.98 190.01 482.86 204.67 479.65 218.99C476.44 233.31 476.18 248.26 472.01 262.34C471.55 263.89 471.01 265.44 470.5 266.98C468.64 272.25 466.32 277.48 463.88 282.68C456.07 299.27 446.98 315.59 447.17 332.3V332.51C447.222 336.372 447.807 340.208 448.91 343.91C450.91 350.57 454.53 356.38 458.75 361.91C459.583 362.997 460.437 364.073 461.31 365.14C465.56 370.36 470.17 375.41 474.19 380.79C477.224 384.719 479.785 388.992 481.82 393.52C484.232 399.192 485.492 405.287 485.527 411.45C485.561 417.613 484.369 423.722 482.02 429.42C480.887 432.053 479.588 434.612 478.13 437.08C475.56 441.52 472.73 445.84 470.5 450.46C469.75 452.01 469.08 453.59 468.5 455.19C463.5 468.07 462.42 482.32 458.34 495.61C455.013 506.339 449.75 516.367 442.81 525.2H313.4C313.4 525.2 322.54 480.82 323.84 471.68C324.49 467.11 331.5 451.68 343 437.05C344 435.71 345.14 434.37 346.27 433.05C336.866 440.482 328.716 449.375 322.13 459.39L321.24 460.79C323.32 454.4 325.61 448.09 327.96 441.87C333.78 426.49 340.26 410.8 351.86 399.14C358.41 392.56 366.38 387.49 372.62 380.62C383.3 368.85 387.92 352.62 388.04 336.62C388.04 334.48 388.04 332.35 387.86 330.23C386.67 312.23 380.52 295 373.86 278.23C370.45 269.61 366.86 260.63 366.65 251.49C366.604 249.728 366.701 247.966 366.94 246.22C369.7 226.56 389.7 214.77 401.71 198.77C419.57 175.04 420.87 139.77 444.3 121.55C462.3 107.55 487.3 108.41 510.03 109.93C531.17 111.35 550.25 114.1 571.23 117.04C592.21 119.98 613.53 125.49 630.34 138.38C641.21 146.77 649.69 157.77 657.22 169.23C667.3 184.57 676.11 201.51 677.32 219.82C677.44 221.56 677.487 223.297 677.46 225.03C677.29 245.96 668.35 266.3 667.15 287.36C667.07 288.78 667.03 290.19 667.05 291.62C667.044 291.673 667.044 291.727 667.05 291.78C667.17 310.02 674.21 329.04 683.71 344.45C697.776 367.378 705.179 393.771 705.09 420.67V420.67Z" fill="#463A3E"/>
</g>
<defs>
<linearGradient id="paint0_linear" x1="555.02" y1="528.85" x2="555.02" y2="67.85" gradientUnits="userSpaceOnUse">
<stop stop-color="#808080" stop-opacity="0.25"/>
<stop offset="0.54" stop-color="#808080" stop-opacity="0.12"/>
<stop offset="1" stop-color="#808080" stop-opacity="0.1"/>
</linearGradient>
<clipPath id="clip0">
<rect width="1111.01" height="589.53" fill="white"/>
</clipPath>
</defs>
</svg>
