<svg width="1116" height="902" viewBox="0 0 1116 902" fill="none" xmlns="http://www.w3.org/2000/svg">
<path opacity="0.95" d="M906 502.937L680.936 689.07L664.93 701H490.043H373.318H352.862H342.661L247.777 592.771L200.147 538.436L185.826 522.105L175.466 510.285L152.379 483.95L115 441.316L152.858 410.01L189.014 380.106L215.003 358.615L542.223 88L906 502.937Z" fill="white"/>
<path d="M724.827 655.594C724.827 655.594 722.085 672.956 717.516 675.698C712.947 678.439 741.275 684.835 741.275 684.835L745.844 657.422L724.827 655.594Z" fill="#FBBEBE"/>
<path d="M698.327 231.6C698.327 231.6 702.896 263.582 691.931 265.41C680.965 267.238 671.828 266.324 671.828 267.238C671.828 268.151 699.241 296.479 699.241 296.479L724.827 294.651L747.671 269.979C747.671 269.979 726.654 266.324 726.654 253.531C726.654 240.738 725.741 231.6 725.741 231.6H698.327Z" fill="#FBBEBE"/>
<path opacity="0.1" d="M698.327 231.6C698.327 231.6 702.896 263.582 691.931 265.41C680.965 267.238 671.828 266.324 671.828 267.238C671.828 268.151 699.241 296.479 699.241 296.479L724.827 294.651L747.671 269.979C747.671 269.979 726.654 266.324 726.654 253.531C726.654 240.738 725.741 231.6 725.741 231.6H698.327Z" fill="black"/>
<path d="M659.035 278.203H648.983L643.5 350.392C643.5 350.392 663.604 355.874 666.345 352.219C669.086 348.564 659.035 278.203 659.035 278.203Z" fill="#3F3D56"/>
<path d="M646.241 343.081L643.5 350.392C643.5 350.392 641.672 374.15 652.638 373.236C663.603 372.322 670 358.616 670 358.616C670 358.616 663.603 341.254 656.293 343.081C648.983 344.909 646.241 343.081 646.241 343.081Z" fill="#3F3D56"/>
<path d="M755.895 278.203L773.257 282.772C773.257 282.772 786.05 329.375 786.964 330.289C787.877 331.202 788.791 336.685 788.791 336.685C788.791 336.685 788.791 337.599 790.619 340.34C792.446 343.081 795.188 341.254 793.36 344.909C791.532 348.564 788.791 346.737 790.619 350.392C792.446 354.047 791.532 364.098 791.532 364.098C791.532 364.098 786.964 346.737 770.516 351.306L759.55 301.961L755.895 278.203Z" fill="#3F3D56"/>
<path d="M778.282 336.228L769.145 350.848C769.145 350.848 790.161 353.589 791.989 358.158C793.817 362.727 783.765 334.4 783.765 334.4L778.282 336.228Z" fill="#3F3D56"/>
<path d="M758.637 457.304L768.689 469.183L764.12 510.303L760.465 591.63C760.465 591.63 767.775 661.991 760.465 663.818C753.155 665.646 720.258 664.732 721.172 660.163C722.086 655.594 723 651.939 724.827 645.543C726.655 639.146 723 616.302 723 616.302L727.569 590.716L711.121 480.148L758.637 457.304Z" fill="#2F2E41"/>
<path d="M725.741 672.956C725.741 672.956 715.689 671.129 714.775 672.956C713.861 674.784 696.5 693.973 693.758 693.973C691.017 693.973 670.914 712.249 691.931 713.163C712.948 714.076 747.671 697.628 747.671 697.628C747.671 697.628 742.561 674.376 742.832 675.494C743.102 676.612 725.741 677.525 725.741 672.956Z" fill="#2F2E41"/>
<path d="M714.775 630.922C714.775 630.922 740.361 659.249 741.275 661.991C742.188 664.732 755.895 661.991 755.895 661.991L761.378 643.715L756.809 637.319L731.223 616.302L714.775 630.922Z" fill="#FBBEBE"/>
<path d="M751.326 651.939L738.076 664.41C738.076 664.41 754.981 690.318 754.981 693.059C754.981 695.8 755.895 718.645 765.033 714.99C774.171 711.334 775.084 674.783 775.084 674.783C775.084 674.783 774.171 637.318 768.688 634.577C763.205 631.836 751.189 632.702 751.189 632.702C751.189 632.702 758.636 651.025 751.326 651.939Z" fill="#2F2E41"/>
<path d="M675.483 375.978C675.483 375.978 670.914 390.599 670 394.254C669.086 397.909 663.603 407.96 663.603 423.495C663.603 439.029 665.431 457.305 663.603 459.132C661.776 460.96 632.535 563.303 645.328 574.268C658.121 585.234 700.155 621.785 702.896 626.354C705.637 630.923 706.551 641.888 712.034 640.061C717.516 638.233 738.533 619.958 739.447 616.302C740.361 612.647 727.568 606.251 727.568 606.251C727.568 606.251 701.982 568.786 695.586 569.7C689.189 570.613 690.103 565.131 691.017 562.389C691.931 559.648 693.758 557.82 691.017 557.82C688.276 557.82 690.103 550.51 691.017 546.855C691.931 543.2 712.948 493.856 712.948 493.856L768.688 469.184C768.688 469.184 765.947 402.478 745.844 384.202L741.275 373.237C741.275 373.237 690.103 369.582 675.483 375.978Z" fill="#2F2E41"/>
<path d="M712.491 244.85C728.135 244.85 740.818 232.168 740.818 216.523C740.818 200.878 728.135 188.196 712.491 188.196C696.846 188.196 684.164 200.878 684.164 216.523C684.164 232.168 696.846 244.85 712.491 244.85Z" fill="#FBBEBE"/>
<path d="M687.362 262.669C687.362 262.669 651.724 267.238 648.983 279.117C646.241 290.996 667.258 365.012 670 371.409C672.741 377.805 671.827 382.374 671.827 382.374C675.962 379.282 680.711 377.111 685.755 376.008C690.799 374.904 696.02 374.894 701.068 375.978C718.43 379.633 743.102 377.805 743.102 377.805C743.102 377.805 751.326 343.995 753.154 340.34C754.981 336.685 762.292 316.582 762.292 311.099C762.292 305.616 773.257 282.772 773.257 282.772C773.257 282.772 767.774 266.324 747.671 267.238C747.671 267.238 738.902 263.313 736.433 266.189C733.964 269.065 720.258 281.858 702.896 276.375C685.534 270.893 687.362 262.669 687.362 262.669Z" fill="#3F3D56"/>
<path d="M680.225 193.182C674.464 203.303 673.167 215.291 672.372 226.909C672.031 231.892 671.775 237.006 673.253 241.777C674.811 246.807 678.278 251.919 676.5 256.876C674.781 261.67 669.03 263.589 665.818 267.542C663.096 270.892 662.413 275.482 662.649 279.792C662.885 284.102 663.93 288.334 664.237 292.639C664.869 302.097 661.95 311.45 656.05 318.869C669.814 318.338 684.529 312.235 690.333 299.744C692.068 296.01 692.912 291.923 694.478 288.115C696.249 283.807 698.922 279.908 700.6 275.562C703.131 269.006 703.268 261.806 703.373 254.779C703.436 250.573 703.481 246.254 702.025 242.307C698.821 233.618 688.855 228.003 687.865 218.795C687.695 217.822 687.839 216.819 688.277 215.933C688.742 215.285 689.306 214.715 689.948 214.243C696.171 208.751 695.144 197.123 702.552 193.379C705.876 191.698 709.883 192.289 713.452 193.353C717.416 194.534 721.371 196.363 723.95 199.597C729.142 206.108 727.093 215.514 725.486 223.686C723.158 235.54 722.332 247.64 723.029 259.7C723.074 261.629 723.358 263.545 723.875 265.404C724.83 268.42 726.864 270.954 728.399 273.72C731.528 279.405 732.544 286.015 731.265 292.377C730.132 297.915 727.316 303.811 729.795 308.891C730.886 310.852 732.406 312.542 734.241 313.835C742.339 320.182 752.619 324.114 758.64 332.458C759.677 325.643 757.699 318.785 756.238 312.048C754.778 305.311 753.889 297.976 756.891 291.77C758.207 289.048 760.22 286.679 761.296 283.853C763.782 277.326 760.819 270.167 759.02 263.419C757.734 258.119 756.805 252.739 756.241 247.315L754.385 232.675C752.851 220.572 751.246 208.222 745.931 197.241C735.916 176.546 713.251 168.86 692.957 180.327C687.639 183.396 683.242 187.835 680.225 193.182Z" fill="#FF6584"/>
<path d="M655.379 347.65C655.379 347.65 649.897 364.098 656.293 364.098C662.69 364.098 674.569 354.046 675.483 345.822C676.396 337.598 692.844 306.53 680.965 309.271C669.086 312.013 663.603 334.857 663.603 334.857L655.379 347.65Z" fill="#FBBEBE"/>
<path d="M747.671 278.203L717.516 375.978L758.636 385.115L788.791 290.082L747.671 278.203Z" fill="#6C63FF"/>
<path d="M786.05 348.563L791.759 358.103C791.759 358.103 794.274 375.977 781.482 375.977C768.689 375.977 750.413 358.615 750.413 358.615C750.413 358.615 741.275 354.96 735.793 355.874C730.31 356.787 700.155 355.874 712.948 340.339C725.741 324.805 747.672 340.339 747.672 340.339L770.516 351.305L782.395 344.908L786.05 348.563Z" fill="#FBBEBE"/>
<path d="M1116 699.728H0V701.755H1116V699.728Z" fill="#3F3D56"/>
<path d="M404.278 386.617L392.693 398.203L404.278 409.788L415.864 386.617H404.278Z" fill="#A0616A"/>
<path d="M406.887 286.159C410.138 287.49 411.685 291.127 412.91 294.42L427.938 334.803L430.864 342.663C432.298 346.518 433.734 350.375 434.947 354.305C435.714 356.791 436.392 359.302 436.979 361.839C437.588 364.01 437.823 366.269 437.672 368.519C437.266 370.994 436.362 373.361 435.016 375.478C429.787 384.584 422.341 392.221 413.37 397.679C412.853 394.34 411.506 391.184 409.454 388.499C407.401 385.815 404.709 383.689 401.622 382.314L409.393 378.04C411.037 377.268 412.516 376.185 413.748 374.851C414.5 373.81 415.036 372.627 415.321 371.375C415.607 370.122 415.637 368.825 415.411 367.561C414.944 365.038 414.169 362.581 413.104 360.247C410.497 353.74 408.234 347.099 406.326 340.354C405.197 336.364 404.16 332.263 401.923 328.772C399.894 325.604 396.956 323.071 395.112 319.792C392.302 314.795 392.374 308.642 393.615 303.045C394.662 298.32 396.419 293.772 397.897 289.172C399.058 285.557 403.406 284.735 406.887 286.159Z" fill="#FF5757"/>
<path d="M335.235 178.267C329.259 180.285 323.845 185.005 322.622 191.192C322.055 194.061 322.402 197.042 321.925 199.927C320.818 206.617 315.567 211.726 310.723 216.471C305.88 221.217 300.878 226.731 300.525 233.502C300.138 240.917 305.515 247.864 304.585 255.231C303.504 263.789 294.464 269.335 292.229 277.667C290.737 283.23 292.566 289.224 295.574 294.136C301.306 303.497 311.105 309.852 321.54 313.259C331.974 316.666 343.088 317.383 354.064 317.498C367.428 317.638 381.939 316.49 391.981 307.67C397.717 302.586 401.319 295.522 402.065 287.894C403.019 277.677 398.755 267.12 401.696 257.289C403.547 251.101 408.19 245.451 407.497 239.03C406.819 232.752 401.336 228.302 397.575 223.23C394.063 218.494 391.931 212.902 389.843 207.389L382.696 188.525C381.291 184.816 379.748 180.916 376.617 178.482C370.756 173.926 361.331 174.821 354.478 175.761C348.119 176.633 341.35 176.202 335.235 178.267Z" fill="#2F2E41"/>
<path d="M340.763 240.435C340.763 240.435 341.463 261.42 339.364 263.519C337.266 265.617 347.759 279.608 347.759 279.608L366.645 278.908L376.438 271.214L368.044 260.021C368.044 260.021 364.547 241.834 367.345 237.637C370.143 233.44 340.763 240.435 340.763 240.435Z" fill="#A0616A"/>
<path opacity="0.1" d="M340.763 240.435C340.763 240.435 341.463 261.42 339.364 263.519C337.266 265.617 347.759 279.608 347.759 279.608L366.645 278.908L376.438 271.214L368.044 260.021C368.044 260.021 364.547 241.834 367.345 237.637C370.143 233.44 340.763 240.435 340.763 240.435Z" fill="black"/>
<path d="M297.044 402.372L308.936 428.954L318.031 417.761L299.843 393.977L297.044 402.372Z" fill="#A0616A"/>
<path d="M374.768 652.005L371.473 696.299L379.709 702.626L392.889 691.552V659.124L374.768 652.005Z" fill="#A0616A"/>
<path d="M265.217 668.535L260.32 695.817L251.926 707.709L256.823 710.506L265.217 709.107L275.01 705.609L279.206 689.521L286.902 668.535H265.217Z" fill="#A0616A"/>
<path d="M352.306 248.479C366.214 248.479 377.488 237.205 377.488 223.297C377.488 209.389 366.214 198.114 352.306 198.114C338.398 198.114 327.124 209.389 327.124 223.297C327.124 237.205 338.398 248.479 352.306 248.479Z" fill="#A0616A"/>
<path d="M371.737 257.167C370.983 256.804 370.159 256.608 369.321 256.592C368.484 256.576 367.653 256.74 366.885 257.074C365.358 257.751 363.874 258.523 362.445 259.388C358.77 261.3 354.603 262.058 350.49 261.563C350.006 261.526 349.533 261.404 349.093 261.203C348.625 260.912 348.195 260.565 347.812 260.17C346.321 258.958 344.417 258.373 342.503 258.538C340.588 258.703 338.813 259.605 337.551 261.054C336.811 261.976 336.305 263.076 335.498 263.939C333.407 266.174 329.958 266.265 326.897 266.259C320.552 266.083 314.209 266.664 308.002 267.991C301.766 269.337 296.024 272.38 291.409 276.784C290.149 277.968 289.146 279.398 288.461 280.986C287.617 283.163 287.728 285.607 286.97 287.815C286.125 290.274 284.253 292.291 283.496 294.778C282.925 296.651 283.005 298.736 282.05 300.446C286.138 303.984 289.602 308.703 293.689 312.241C296.396 314.584 299.23 317.118 300.247 320.55C300.705 322.666 300.908 324.83 300.853 326.994C301.358 337.341 306.97 346.727 313.245 354.97C314.966 357.414 317.025 359.602 319.361 361.467C322.533 363.627 326.135 365.073 329.919 365.707C337.065 367.169 344.421 367.161 351.715 367.088C359.253 367.013 366.924 366.854 374.089 364.511C377.736 363.494 381.016 361.456 383.546 358.639C386.493 355.019 387.643 349.783 391.664 347.412C392.637 346.965 393.559 346.415 394.414 345.769C395.233 344.881 395.812 343.799 396.099 342.625C397.505 338.231 398.28 333.66 398.401 329.048C398.297 326.281 398.485 323.511 398.961 320.782C399.656 318.378 400.669 316.078 401.973 313.942L410.306 298.83C410.983 297.602 410.807 295.795 410.869 294.393C410.807 292.373 410.187 290.409 409.077 288.72C403.672 279.168 395.182 271.736 384.999 267.643C384.196 267.37 383.432 266.996 382.725 266.529C381.892 265.828 381.187 264.988 380.643 264.045C378.432 260.713 375.731 256.959 371.737 257.167Z" fill="#FF5757"/>
<path d="M267.888 339.47C266.245 343.465 265.038 347.626 264.289 351.88C263.485 357.758 264.433 363.742 267.014 369.083C271.504 378.326 280.345 384.596 286.584 392.761C292.381 400.347 295.834 409.44 300.854 417.561C299.978 415.494 301.042 413.101 302.475 411.372C303.907 409.643 305.739 408.21 306.789 406.225C307.504 404.689 307.954 403.042 308.119 401.355C308.868 396.319 309.272 390.847 306.705 386.451C304.772 383.141 301.434 380.943 298.791 378.168C296.147 375.344 294.205 371.939 293.119 368.226C292.033 364.514 291.835 360.598 292.54 356.795C293.048 354.177 293.984 351.664 294.685 349.091C295.552 345.632 296.209 342.124 296.651 338.586L299.801 316.951C300.639 311.196 301.348 304.828 298.089 300.012C297.453 299.004 296.574 298.172 295.532 297.593C294.67 297.199 293.752 296.94 292.811 296.827C289.383 296.266 284.739 294.765 283.066 298.438C281.045 302.872 279.638 307.705 277.947 312.277L267.888 339.47Z" fill="#FF5757"/>
<path d="M387.944 351.308C387.944 351.308 346.36 359.352 336.567 359.352H319.079C319.079 359.352 312.783 370.544 312.783 381.736C312.783 392.929 271.512 549.619 271.512 549.619C271.512 549.619 232.34 678.329 275.709 679.029C319.079 679.728 346.36 681.827 347.059 667.137C347.759 652.447 351.956 462.88 351.956 462.88L358.485 560.355C360.24 584.486 358.366 608.744 352.926 632.319C349.794 645.536 350.28 660.025 365.946 662.94C396.025 668.536 433.799 663.639 433.799 653.147C433.799 642.654 414.213 409.717 414.213 409.717C414.213 409.717 404.419 375.441 398.823 372.643C393.227 369.845 387.944 351.308 387.944 351.308Z" fill="#2F2E41"/>
<path d="M257.522 706.31L272.911 700.714L283.404 674.132L294.596 672.733C294.596 672.733 288.3 686.024 284.803 688.122C281.305 690.221 275.709 707.709 275.709 707.709C275.709 707.709 278.507 714.704 265.216 717.502C251.926 720.3 242.132 722.399 242.132 722.399C242.132 722.399 240.733 719.601 247.029 712.605C253.325 705.61 260.676 693.834 260.676 693.834L257.522 706.31Z" fill="#2F2E41"/>
<path d="M372.341 683.465L369.526 705.484C369.526 705.484 377.267 717.228 379.378 717.228C381.489 717.228 392.748 706.952 392.748 706.952C392.748 706.952 392.044 695.943 392.748 693.007C393.452 690.071 394.859 676.125 392.748 675.391C390.637 674.657 390.637 691.75 390.637 691.75L381.489 701.814L372.668 696.298L372.341 683.465Z" fill="#2F2E41"/>
<path d="M354.404 223.297C369.471 223.297 381.685 216.72 381.685 208.607C381.685 200.495 369.471 193.918 354.404 193.918C339.338 193.918 327.124 200.495 327.124 208.607C327.124 216.72 339.338 223.297 354.404 223.297Z" fill="#2F2E41"/>
<path d="M972.102 679.59C968.797 691.808 957.475 699.375 957.475 699.375C957.475 699.375 951.512 687.132 954.818 674.914C958.123 662.695 969.445 655.128 969.445 655.128C969.445 655.128 975.407 667.371 972.102 679.59Z" fill="#3F3D56"/>
<path opacity="0.8" d="M967.245 676.964C958.175 685.793 957.067 699.365 957.067 699.365C957.067 699.365 970.665 698.623 979.735 689.794C988.805 680.965 989.913 667.392 989.913 667.392C989.913 667.392 976.315 668.134 967.245 676.964Z" fill="white"/>
<path d="M15.2046 603.796C15.2046 652.428 45.7138 691.781 83.4174 691.781L15.2046 603.796Z" fill="#3F3D56"/>
<path opacity="0.8" d="M83.4175 691.78C83.4175 642.602 117.464 602.807 159.539 602.807L83.4175 691.78Z" fill="white"/>
<path opacity="0.8" d="M39.9194 608.204C39.9194 654.4 59.3746 691.78 83.4174 691.78L39.9194 608.204Z" fill="white"/>
<path d="M83.4175 691.781C83.4175 628.941 122.77 578.093 171.402 578.093L83.4175 691.781Z" fill="#3F3D56"/>
<path d="M69.0674 692.401C69.0674 692.401 78.7411 692.103 81.6565 690.027C84.5719 687.951 96.5371 685.472 97.2603 688.801C97.9836 692.131 111.798 705.361 100.877 705.449C89.955 705.537 75.4997 703.748 72.5899 701.975C69.6801 700.203 69.0674 692.401 69.0674 692.401Z" fill="#A8A8A8"/>
<path opacity="0.2" d="M101.071 704.29C90.1499 704.378 75.6946 702.589 72.7848 700.816C70.5688 699.466 69.6858 694.623 69.3903 692.388C69.1857 692.397 69.0674 692.401 69.0674 692.401C69.0674 692.401 69.6801 700.203 72.5899 701.975C75.4997 703.748 89.955 705.537 100.877 705.449C104.029 705.423 105.118 704.302 105.058 702.64C104.62 703.644 103.418 704.271 101.071 704.29Z" fill="black"/>
<path d="M508.485 305.43C508.485 305.43 470.977 310.234 468.091 322.724C465.206 335.213 487.326 413.032 490.212 419.758C493.097 426.483 492.135 431.286 492.135 431.286C496.487 428.035 501.485 425.753 506.794 424.593C512.102 423.433 517.598 423.422 522.911 424.561C541.184 428.404 567.151 426.483 567.151 426.483C567.151 426.483 575.807 390.936 577.731 387.093C579.654 383.25 587.348 362.114 587.348 356.349C587.348 350.585 598.889 326.567 598.889 326.567C598.889 326.567 593.119 309.273 571.96 310.234C571.96 310.234 562.731 306.108 560.132 309.132C557.534 312.156 543.108 325.606 524.835 319.841C506.561 314.077 508.485 305.43 508.485 305.43Z" fill="#213CBB"/>
<path d="M511.483 738.481L514.675 778.309C514.675 778.309 501.91 810.172 522.653 813.358C522.86 813.39 523.066 813.42 523.269 813.449C525.841 813.802 528.46 813.543 530.913 812.692C533.365 811.842 535.581 810.424 537.38 808.555C539.179 806.686 540.509 804.418 541.262 801.938C542.016 799.457 542.17 796.834 541.714 794.282L538.61 776.716C538.61 776.716 540.205 744.854 530.631 738.481C521.057 732.109 511.483 738.481 511.483 738.481Z" fill="#2F2E41"/>
<path d="M491.612 421.925C491.612 421.925 458.149 466.101 476.401 531.603C494.654 597.105 496.175 615.385 496.175 615.385L506.822 740.296C506.822 740.296 525.075 746.389 540.285 737.249L535.722 616.908V543.789L544.848 624.524V705.259C544.848 705.259 566.143 726.586 581.353 706.783L584.395 616.908C584.395 616.908 593.521 491.997 587.437 479.81C581.353 467.624 567.664 424.971 567.664 424.971L491.612 421.925Z" fill="#2F2E41"/>
<path d="M552.017 703.801C552.017 703.801 548.871 713.382 550.444 722.963C552.017 732.545 553.589 759.692 553.589 759.692C553.589 759.692 553.589 788.436 564.599 788.436C568.531 788.436 571.861 784.973 574.518 780.521C577.267 775.799 579.043 770.56 579.739 765.121C580.434 759.682 580.036 754.156 578.566 748.878L572.463 726.157V708.591L552.017 703.801Z" fill="#2F2E41"/>
<path d="M613.174 506.916C613.174 506.916 622.355 544.564 603.994 548.942C585.633 553.32 592.059 506.916 592.059 506.916H613.174Z" fill="#C6866B"/>
<path d="M463.859 460.97C463.859 460.97 498.49 479.933 489.69 495.869C480.89 511.805 449.918 475.893 449.918 475.893L463.859 460.97Z" fill="#C6866B"/>
<path d="M581.578 321.596L594.663 319.828C594.663 319.828 602.514 330.437 603.387 338.393C604.259 346.35 618.216 480.727 618.216 480.727L632.174 506.364C632.174 506.364 631.301 510.785 624.323 510.785H617.344L614.727 521.393C614.727 521.393 609.493 501.06 589.429 511.669L581.578 509.016L586.812 499.292C586.812 499.292 581.578 452.437 581.578 430.335C581.578 408.234 579.833 384.364 579.833 384.364L581.578 321.596Z" fill="#213CBB"/>
<path d="M478.494 319.54L468.786 320.43L446.722 406.73C446.722 406.73 437.896 463.67 439.661 466.339C441.426 469.008 439.661 473.456 437.896 475.236C436.131 477.015 444.957 501.926 453.782 501.037C462.608 500.147 466.138 497.478 466.138 497.478C466.138 497.478 458.195 474.346 478.494 466.339L483.789 448.545L478.494 419.185L485.555 378.26L478.494 319.54Z" fill="#213CBB"/>
<path d="M593.587 301.985C593.167 306.088 592.364 310.305 590.044 313.7C586.696 318.595 580.84 320.932 575.337 323.01L557.762 329.632C554.412 331.002 550.957 332.092 547.431 332.89C545.744 333.221 544.036 333.424 542.319 333.499C535.628 333.669 528.981 332.344 522.852 329.617C515.119 326.321 508.182 321.388 501.546 316.182C497.469 312.977 493.468 309.635 490.142 305.646C487.574 302.602 485.345 298.841 485.525 294.814C485.71 292.877 486.155 290.974 486.846 289.158C489.37 281.392 491.219 273.417 492.372 265.325C493.599 256.717 494.001 248.008 493.573 239.322C493.415 236.132 493.137 232.935 493.573 229.768C495.074 218.411 498.903 210.601 507.837 203.62C509.736 202.144 517.507 200.279 519.804 199.601L520.232 199.495C524.354 198.635 532.447 201.512 536.26 202.829C543.584 205.327 549.968 210.06 554.537 216.378C559.106 222.697 561.638 230.293 561.786 238.126C561.846 240.943 561.748 244.148 563.385 246.279C563.591 246.559 563.828 246.814 564.091 247.04C565.006 247.802 566.178 248.266 567.139 249.004C569.796 251.052 570.232 254.942 569.789 258.291C569.346 261.64 568.242 264.975 568.678 268.324C568.778 269.072 568.949 269.809 569.188 270.524C570.134 273.401 572.041 275.951 573.903 278.38L581.448 288.275C582.822 290.072 584.346 291.975 586.47 292.652L586.688 292.721C587.972 293.071 589.361 292.942 590.584 293.482C593.565 294.67 593.918 298.75 593.587 301.985Z" fill="#FEDDB6"/>
<path d="M501.507 234.591C498.182 240.715 497.11 247.75 496.972 254.653C496.895 258.189 497.064 261.784 498.236 265.136C499.297 267.816 500.672 270.371 502.334 272.752L509.643 284.162C510.631 285.706 511.704 287.33 513.389 288.154C515.074 288.977 517.319 288.845 519.319 288.609C524.076 288.051 528.91 287.338 533.177 285.25C538.678 282.559 542.745 277.847 546.652 273.26C547.91 272.131 548.862 270.725 549.424 269.163C549.986 267.601 550.142 265.931 549.878 264.298L549.043 246.074C549.058 244.222 548.771 242.379 548.192 240.612C546.522 236.311 541.826 233.996 537.827 231.489C531.936 227.813 525.286 221.822 517.671 222.241C510.677 222.652 504.548 228.997 501.507 234.591Z" fill="#C6866B"/>
</svg>
