<svg width="1116" height="827" viewBox="0 0 1116 827" fill="none" xmlns="http://www.w3.org/2000/svg">
<path opacity="0.95" d="M906 494.937L680.936 681.07L664.93 693H490.043H373.318H352.862H342.661L247.777 584.771L200.147 530.436L185.826 514.105L175.466 502.285L152.379 475.95L115 433.316L152.858 402.01L189.014 372.106L215.003 350.615L542.223 80L906 494.937Z" fill="white"/>
<path d="M724.827 647.594C724.827 647.594 722.085 664.956 717.516 667.698C712.947 670.439 741.275 676.835 741.275 676.835L745.844 649.422L724.827 647.594Z" fill="#FBBEBE"/>
<path d="M698.327 223.6C698.327 223.6 702.896 255.582 691.931 257.41C680.965 259.238 671.828 258.324 671.828 259.238C671.828 260.151 699.241 288.479 699.241 288.479L724.827 286.651L747.671 261.979C747.671 261.979 726.654 258.324 726.654 245.531C726.654 232.738 725.741 223.6 725.741 223.6H698.327Z" fill="#FBBEBE"/>
<path opacity="0.1" d="M698.327 223.6C698.327 223.6 702.896 255.582 691.931 257.41C680.965 259.238 671.828 258.324 671.828 259.238C671.828 260.151 699.241 288.479 699.241 288.479L724.827 286.651L747.671 261.979C747.671 261.979 726.654 258.324 726.654 245.531C726.654 232.738 725.741 223.6 725.741 223.6H698.327Z" fill="black"/>
<path d="M659.035 270.203H648.983L643.5 342.392C643.5 342.392 663.604 347.874 666.345 344.219C669.086 340.564 659.035 270.203 659.035 270.203Z" fill="#3F3D56"/>
<path d="M646.241 335.081L643.5 342.392C643.5 342.392 641.672 366.15 652.638 365.236C663.603 364.322 670 350.616 670 350.616C670 350.616 663.603 333.254 656.293 335.081C648.983 336.909 646.241 335.081 646.241 335.081Z" fill="#3F3D56"/>
<path d="M755.895 270.203L773.257 274.772C773.257 274.772 786.05 321.375 786.964 322.289C787.877 323.202 788.791 328.685 788.791 328.685C788.791 328.685 788.791 329.599 790.619 332.34C792.446 335.081 795.188 333.254 793.36 336.909C791.532 340.564 788.791 338.737 790.619 342.392C792.446 346.047 791.532 356.098 791.532 356.098C791.532 356.098 786.964 338.737 770.516 343.306L759.55 293.961L755.895 270.203Z" fill="#3F3D56"/>
<path d="M778.282 328.228L769.145 342.848C769.145 342.848 790.161 345.589 791.989 350.158C793.817 354.727 783.765 326.4 783.765 326.4L778.282 328.228Z" fill="#3F3D56"/>
<path d="M758.637 449.304L768.689 461.183L764.12 502.303L760.465 583.63C760.465 583.63 767.775 653.991 760.465 655.818C753.155 657.646 720.258 656.732 721.172 652.163C722.086 647.594 723 643.939 724.827 637.543C726.655 631.146 723 608.302 723 608.302L727.569 582.716L711.121 472.148L758.637 449.304Z" fill="#2F2E41"/>
<path d="M725.741 664.956C725.741 664.956 715.689 663.129 714.775 664.956C713.861 666.784 696.5 685.973 693.758 685.973C691.017 685.973 670.914 704.249 691.931 705.163C712.948 706.076 747.671 689.628 747.671 689.628C747.671 689.628 742.561 666.376 742.832 667.494C743.102 668.612 725.741 669.525 725.741 664.956Z" fill="#2F2E41"/>
<path d="M714.775 622.922C714.775 622.922 740.361 651.249 741.275 653.991C742.188 656.732 755.895 653.991 755.895 653.991L761.378 635.715L756.809 629.319L731.223 608.302L714.775 622.922Z" fill="#FBBEBE"/>
<path d="M751.326 643.939L738.076 656.41C738.076 656.41 754.981 682.318 754.981 685.059C754.981 687.8 755.895 710.645 765.033 706.99C774.171 703.334 775.084 666.783 775.084 666.783C775.084 666.783 774.171 629.318 768.688 626.577C763.205 623.836 751.189 624.702 751.189 624.702C751.189 624.702 758.636 643.025 751.326 643.939Z" fill="#2F2E41"/>
<path d="M675.483 367.978C675.483 367.978 670.914 382.599 670 386.254C669.086 389.909 663.603 399.96 663.603 415.495C663.603 431.029 665.431 449.305 663.603 451.132C661.776 452.96 632.535 555.303 645.328 566.268C658.121 577.234 700.155 613.785 702.896 618.354C705.637 622.923 706.551 633.888 712.034 632.061C717.516 630.233 738.533 611.958 739.447 608.302C740.361 604.647 727.568 598.251 727.568 598.251C727.568 598.251 701.982 560.786 695.586 561.7C689.189 562.613 690.103 557.131 691.017 554.389C691.931 551.648 693.758 549.82 691.017 549.82C688.276 549.82 690.103 542.51 691.017 538.855C691.931 535.2 712.948 485.856 712.948 485.856L768.688 461.184C768.688 461.184 765.947 394.478 745.844 376.202L741.275 365.237C741.275 365.237 690.103 361.582 675.483 367.978Z" fill="#2F2E41"/>
<path d="M712.491 236.85C728.135 236.85 740.818 224.168 740.818 208.523C740.818 192.878 728.135 180.196 712.491 180.196C696.846 180.196 684.164 192.878 684.164 208.523C684.164 224.168 696.846 236.85 712.491 236.85Z" fill="#FBBEBE"/>
<path d="M687.362 254.669C687.362 254.669 651.724 259.238 648.983 271.117C646.241 282.996 667.258 357.012 670 363.409C672.741 369.805 671.827 374.374 671.827 374.374C675.962 371.282 680.711 369.111 685.755 368.008C690.799 366.904 696.02 366.894 701.068 367.978C718.43 371.633 743.102 369.805 743.102 369.805C743.102 369.805 751.326 335.995 753.154 332.34C754.981 328.685 762.292 308.582 762.292 303.099C762.292 297.616 773.257 274.772 773.257 274.772C773.257 274.772 767.774 258.324 747.671 259.238C747.671 259.238 738.902 255.313 736.433 258.189C733.964 261.065 720.258 273.858 702.896 268.375C685.534 262.893 687.362 254.669 687.362 254.669Z" fill="#3F3D56"/>
<path d="M680.225 185.182C674.464 195.303 673.167 207.291 672.372 218.909C672.031 223.892 671.775 229.006 673.253 233.777C674.811 238.807 678.278 243.919 676.5 248.876C674.781 253.67 669.03 255.589 665.818 259.542C663.096 262.892 662.413 267.482 662.649 271.792C662.885 276.102 663.93 280.334 664.237 284.639C664.869 294.097 661.95 303.45 656.05 310.869C669.814 310.338 684.529 304.235 690.333 291.744C692.068 288.01 692.912 283.923 694.478 280.115C696.249 275.807 698.922 271.908 700.6 267.562C703.131 261.006 703.268 253.806 703.373 246.779C703.436 242.573 703.481 238.254 702.025 234.307C698.821 225.618 688.855 220.003 687.865 210.795C687.695 209.822 687.839 208.819 688.277 207.933C688.742 207.285 689.306 206.715 689.948 206.243C696.171 200.751 695.144 189.123 702.552 185.379C705.876 183.698 709.883 184.289 713.452 185.353C717.416 186.534 721.371 188.363 723.95 191.597C729.142 198.108 727.093 207.514 725.486 215.686C723.158 227.54 722.332 239.64 723.029 251.7C723.074 253.629 723.358 255.545 723.875 257.404C724.83 260.42 726.864 262.954 728.399 265.72C731.528 271.405 732.544 278.015 731.265 284.377C730.132 289.915 727.316 295.811 729.795 300.891C730.886 302.852 732.406 304.542 734.241 305.835C742.339 312.182 752.619 316.114 758.64 324.458C759.677 317.643 757.699 310.785 756.238 304.048C754.778 297.311 753.889 289.976 756.891 283.77C758.207 281.048 760.22 278.679 761.296 275.853C763.782 269.326 760.819 262.167 759.02 255.419C757.734 250.119 756.805 244.739 756.241 239.315L754.385 224.675C752.851 212.572 751.246 200.222 745.931 189.241C735.916 168.546 713.251 160.86 692.957 172.327C687.639 175.396 683.242 179.835 680.225 185.182Z" fill="#FF6584"/>
<path d="M655.379 339.65C655.379 339.65 649.897 356.098 656.293 356.098C662.69 356.098 674.569 346.046 675.483 337.822C676.396 329.598 692.844 298.53 680.965 301.271C669.086 304.013 663.603 326.857 663.603 326.857L655.379 339.65Z" fill="#FBBEBE"/>
<path d="M747.671 270.203L717.516 367.978L758.636 377.115L788.791 282.082L747.671 270.203Z" fill="#6C63FF"/>
<path d="M786.05 340.563L791.759 350.103C791.759 350.103 794.274 367.977 781.482 367.977C768.689 367.977 750.413 350.615 750.413 350.615C750.413 350.615 741.275 346.96 735.793 347.874C730.31 348.787 700.155 347.874 712.948 332.339C725.741 316.805 747.672 332.339 747.672 332.339L770.516 343.305L782.395 336.908L786.05 340.563Z" fill="#FBBEBE"/>
<path d="M1116 691.728H0V693.755H1116V691.728Z" fill="#3F3D56"/>
<path d="M404.278 378.617L392.693 390.203L404.278 401.788L415.864 378.617H404.278Z" fill="#A0616A"/>
<path d="M406.887 278.159C410.138 279.49 411.685 283.127 412.91 286.42L427.938 326.803L430.864 334.663C432.298 338.518 433.734 342.375 434.947 346.305C435.714 348.791 436.392 351.302 436.979 353.839C437.588 356.01 437.823 358.269 437.672 360.519C437.266 362.994 436.362 365.361 435.016 367.478C429.787 376.584 422.341 384.221 413.37 389.679C412.853 386.34 411.506 383.184 409.454 380.499C407.401 377.815 404.709 375.689 401.622 374.314L409.393 370.04C411.037 369.268 412.516 368.185 413.748 366.851C414.5 365.81 415.036 364.627 415.321 363.375C415.607 362.122 415.637 360.825 415.411 359.561C414.944 357.038 414.169 354.581 413.104 352.247C410.497 345.74 408.234 339.099 406.326 332.354C405.197 328.364 404.16 324.263 401.923 320.772C399.894 317.604 396.956 315.071 395.112 311.792C392.302 306.795 392.374 300.642 393.615 295.045C394.662 290.32 396.419 285.772 397.897 281.172C399.058 277.557 403.406 276.735 406.887 278.159Z" fill="#FF5757"/>
<path d="M335.235 170.267C329.259 172.285 323.845 177.005 322.622 183.192C322.055 186.061 322.402 189.042 321.925 191.927C320.818 198.617 315.567 203.726 310.723 208.471C305.88 213.217 300.878 218.731 300.525 225.502C300.138 232.917 305.515 239.864 304.585 247.231C303.504 255.789 294.464 261.335 292.229 269.667C290.737 275.23 292.566 281.224 295.574 286.136C301.306 295.497 311.105 301.852 321.54 305.259C331.974 308.666 343.088 309.383 354.064 309.498C367.428 309.638 381.939 308.49 391.981 299.67C397.717 294.586 401.319 287.522 402.065 279.894C403.019 269.677 398.755 259.12 401.696 249.289C403.547 243.101 408.19 237.451 407.497 231.03C406.819 224.752 401.336 220.302 397.575 215.23C394.063 210.494 391.931 204.902 389.843 199.389L382.696 180.525C381.291 176.816 379.748 172.916 376.617 170.482C370.756 165.926 361.331 166.821 354.478 167.761C348.119 168.633 341.35 168.202 335.235 170.267Z" fill="#2F2E41"/>
<path d="M340.763 232.435C340.763 232.435 341.463 253.42 339.364 255.519C337.266 257.617 347.759 271.608 347.759 271.608L366.645 270.908L376.438 263.214L368.044 252.021C368.044 252.021 364.547 233.834 367.345 229.637C370.143 225.44 340.763 232.435 340.763 232.435Z" fill="#A0616A"/>
<path opacity="0.1" d="M340.763 232.435C340.763 232.435 341.463 253.42 339.364 255.519C337.266 257.617 347.759 271.608 347.759 271.608L366.645 270.908L376.438 263.214L368.044 252.021C368.044 252.021 364.547 233.834 367.345 229.637C370.143 225.44 340.763 232.435 340.763 232.435Z" fill="black"/>
<path d="M297.044 394.372L308.936 420.954L318.031 409.761L299.843 385.977L297.044 394.372Z" fill="#A0616A"/>
<path d="M374.768 644.005L371.473 688.299L379.709 694.626L392.889 683.552V651.124L374.768 644.005Z" fill="#A0616A"/>
<path d="M265.217 660.535L260.32 687.817L251.926 699.709L256.823 702.506L265.217 701.107L275.01 697.609L279.206 681.521L286.902 660.535H265.217Z" fill="#A0616A"/>
<path d="M352.306 240.479C366.214 240.479 377.488 229.205 377.488 215.297C377.488 201.389 366.214 190.114 352.306 190.114C338.398 190.114 327.124 201.389 327.124 215.297C327.124 229.205 338.398 240.479 352.306 240.479Z" fill="#A0616A"/>
<path d="M371.737 249.167C370.983 248.804 370.159 248.608 369.321 248.592C368.484 248.576 367.653 248.74 366.885 249.074C365.358 249.751 363.874 250.523 362.445 251.388C358.77 253.3 354.603 254.058 350.49 253.563C350.006 253.526 349.533 253.404 349.093 253.203C348.625 252.912 348.195 252.565 347.812 252.17C346.321 250.958 344.417 250.373 342.503 250.538C340.588 250.703 338.813 251.605 337.551 253.054C336.811 253.976 336.305 255.076 335.498 255.939C333.407 258.174 329.958 258.265 326.897 258.259C320.552 258.083 314.209 258.664 308.002 259.991C301.766 261.337 296.024 264.38 291.409 268.784C290.149 269.968 289.146 271.398 288.461 272.986C287.617 275.163 287.728 277.607 286.97 279.815C286.125 282.274 284.253 284.291 283.496 286.778C282.925 288.651 283.005 290.736 282.05 292.446C286.138 295.984 289.602 300.703 293.689 304.241C296.396 306.584 299.23 309.118 300.247 312.55C300.705 314.666 300.908 316.83 300.853 318.994C301.358 329.341 306.97 338.727 313.245 346.97C314.966 349.414 317.025 351.602 319.361 353.467C322.533 355.627 326.135 357.073 329.919 357.707C337.065 359.169 344.421 359.161 351.715 359.088C359.253 359.013 366.924 358.854 374.089 356.511C377.736 355.494 381.016 353.456 383.546 350.639C386.493 347.019 387.643 341.783 391.664 339.412C392.637 338.965 393.559 338.415 394.414 337.769C395.233 336.881 395.812 335.799 396.099 334.625C397.505 330.231 398.28 325.66 398.401 321.048C398.297 318.281 398.485 315.511 398.961 312.782C399.656 310.378 400.669 308.078 401.973 305.942L410.306 290.83C410.983 289.602 410.807 287.795 410.869 286.393C410.807 284.373 410.187 282.409 409.077 280.72C403.672 271.168 395.182 263.736 384.999 259.643C384.196 259.37 383.432 258.996 382.725 258.529C381.892 257.828 381.187 256.988 380.643 256.045C378.432 252.713 375.731 248.959 371.737 249.167Z" fill="#FF5757"/>
<path d="M267.888 331.47C266.245 335.465 265.038 339.626 264.289 343.88C263.485 349.758 264.433 355.742 267.014 361.083C271.504 370.326 280.345 376.596 286.584 384.761C292.381 392.347 295.834 401.44 300.854 409.561C299.978 407.494 301.042 405.101 302.475 403.372C303.907 401.643 305.739 400.21 306.789 398.225C307.504 396.689 307.954 395.042 308.119 393.355C308.868 388.319 309.272 382.847 306.705 378.451C304.772 375.141 301.434 372.943 298.791 370.168C296.147 367.344 294.205 363.939 293.119 360.226C292.033 356.514 291.835 352.598 292.54 348.795C293.048 346.177 293.984 343.664 294.685 341.091C295.552 337.632 296.209 334.124 296.651 330.586L299.801 308.951C300.639 303.196 301.348 296.828 298.089 292.012C297.453 291.004 296.574 290.172 295.532 289.593C294.67 289.199 293.752 288.94 292.811 288.827C289.383 288.266 284.739 286.765 283.066 290.438C281.045 294.872 279.638 299.705 277.947 304.277L267.888 331.47Z" fill="#FF5757"/>
<path d="M387.944 343.308C387.944 343.308 346.36 351.352 336.567 351.352H319.079C319.079 351.352 312.783 362.544 312.783 373.736C312.783 384.929 271.512 541.619 271.512 541.619C271.512 541.619 232.34 670.329 275.709 671.029C319.079 671.728 346.36 673.827 347.059 659.137C347.759 644.447 351.956 454.88 351.956 454.88L358.485 552.355C360.24 576.486 358.366 600.744 352.926 624.319C349.794 637.536 350.28 652.025 365.946 654.94C396.025 660.536 433.799 655.639 433.799 645.147C433.799 634.654 414.213 401.717 414.213 401.717C414.213 401.717 404.419 367.441 398.823 364.643C393.227 361.845 387.944 343.308 387.944 343.308Z" fill="#2F2E41"/>
<path d="M257.522 698.31L272.911 692.714L283.404 666.132L294.596 664.733C294.596 664.733 288.3 678.024 284.803 680.122C281.305 682.221 275.709 699.709 275.709 699.709C275.709 699.709 278.507 706.704 265.216 709.502C251.926 712.3 242.132 714.399 242.132 714.399C242.132 714.399 240.733 711.601 247.029 704.605C253.325 697.61 260.676 685.834 260.676 685.834L257.522 698.31Z" fill="#2F2E41"/>
<path d="M372.341 675.465L369.526 697.484C369.526 697.484 377.267 709.228 379.378 709.228C381.489 709.228 392.748 698.952 392.748 698.952C392.748 698.952 392.044 687.943 392.748 685.007C393.452 682.071 394.859 668.125 392.748 667.391C390.637 666.657 390.637 683.75 390.637 683.75L381.489 693.814L372.668 688.298L372.341 675.465Z" fill="#2F2E41"/>
<path d="M354.404 215.297C369.471 215.297 381.685 208.72 381.685 200.607C381.685 192.495 369.471 185.918 354.404 185.918C339.338 185.918 327.124 192.495 327.124 200.607C327.124 208.72 339.338 215.297 354.404 215.297Z" fill="#2F2E41"/>
<path d="M972.102 671.59C968.797 683.808 957.475 691.375 957.475 691.375C957.475 691.375 951.512 679.132 954.818 666.914C958.123 654.695 969.445 647.128 969.445 647.128C969.445 647.128 975.407 659.371 972.102 671.59Z" fill="#3F3D56"/>
<path d="M967.245 668.964C958.175 677.793 957.067 691.365 957.067 691.365C957.067 691.365 970.665 690.623 979.735 681.794C988.805 672.965 989.913 659.392 989.913 659.392C989.913 659.392 976.315 660.134 967.245 668.964Z" fill="#6C63FF"/>
<path d="M15.2046 595.796C15.2046 644.428 45.7138 683.781 83.4174 683.781L15.2046 595.796Z" fill="#3F3D56"/>
<path d="M83.4175 683.78C83.4175 634.602 117.464 594.807 159.539 594.807L83.4175 683.78Z" fill="#6C63FF"/>
<path d="M39.9194 600.204C39.9194 646.4 59.3746 683.78 83.4174 683.78L39.9194 600.204Z" fill="#6C63FF"/>
<path d="M83.4175 683.781C83.4175 620.941 122.77 570.093 171.402 570.093L83.4175 683.781Z" fill="#3F3D56"/>
<path d="M69.0674 684.401C69.0674 684.401 78.7411 684.103 81.6565 682.027C84.5719 679.951 96.5371 677.472 97.2603 680.801C97.9836 684.131 111.798 697.361 100.877 697.449C89.955 697.537 75.4997 695.748 72.5899 693.975C69.6801 692.203 69.0674 684.401 69.0674 684.401Z" fill="#A8A8A8"/>
<path opacity="0.2" d="M101.071 696.29C90.1499 696.378 75.6946 694.589 72.7848 692.816C70.5688 691.466 69.6858 686.623 69.3903 684.388C69.1857 684.397 69.0674 684.401 69.0674 684.401C69.0674 684.401 69.6801 692.203 72.5899 693.975C75.4997 695.748 89.955 697.537 100.877 697.449C104.029 697.423 105.118 696.302 105.058 694.64C104.62 695.644 103.418 696.271 101.071 696.29Z" fill="black"/>
<path d="M508.485 297.43C508.485 297.43 470.977 302.234 468.091 314.724C465.206 327.213 487.326 405.032 490.212 411.758C493.097 418.483 492.135 423.286 492.135 423.286C496.487 420.035 501.485 417.753 506.794 416.593C512.102 415.433 517.598 415.422 522.911 416.561C541.184 420.404 567.151 418.483 567.151 418.483C567.151 418.483 575.807 382.936 577.731 379.093C579.654 375.25 587.348 354.114 587.348 348.349C587.348 342.585 598.889 318.567 598.889 318.567C598.889 318.567 593.119 301.273 571.96 302.234C571.96 302.234 562.731 298.108 560.132 301.132C557.534 304.156 543.108 317.606 524.835 311.841C506.561 306.077 508.485 297.43 508.485 297.43Z" fill="#213CBB"/>
<path d="M511.483 730.481L514.675 770.309C514.675 770.309 501.91 802.172 522.653 805.358C522.86 805.39 523.066 805.42 523.269 805.449C525.841 805.802 528.46 805.543 530.913 804.692C533.365 803.842 535.581 802.424 537.38 800.555C539.179 798.686 540.509 796.418 541.262 793.938C542.016 791.457 542.17 788.834 541.714 786.282L538.61 768.716C538.61 768.716 540.205 736.854 530.631 730.481C521.057 724.109 511.483 730.481 511.483 730.481Z" fill="#2F2E41"/>
<path d="M491.612 413.925C491.612 413.925 458.149 458.101 476.401 523.603C494.654 589.105 496.175 607.385 496.175 607.385L506.822 732.296C506.822 732.296 525.075 738.389 540.285 729.249L535.722 608.908V535.789L544.848 616.524V697.259C544.848 697.259 566.143 718.586 581.353 698.783L584.395 608.908C584.395 608.908 593.521 483.997 587.437 471.81C581.353 459.624 567.664 416.971 567.664 416.971L491.612 413.925Z" fill="#2F2E41"/>
<path d="M552.017 695.801C552.017 695.801 548.871 705.382 550.444 714.963C552.017 724.545 553.589 751.692 553.589 751.692C553.589 751.692 553.589 780.436 564.599 780.436C568.531 780.436 571.861 776.973 574.518 772.521C577.267 767.799 579.043 762.56 579.739 757.121C580.434 751.682 580.036 746.156 578.566 740.878L572.463 718.157V700.591L552.017 695.801Z" fill="#2F2E41"/>
<path d="M613.174 498.916C613.174 498.916 622.355 536.564 603.994 540.942C585.633 545.32 592.059 498.916 592.059 498.916H613.174Z" fill="#C6866B"/>
<path d="M463.859 452.97C463.859 452.97 498.49 471.933 489.69 487.869C480.89 503.805 449.918 467.893 449.918 467.893L463.859 452.97Z" fill="#C6866B"/>
<path d="M581.578 313.596L594.663 311.828C594.663 311.828 602.514 322.437 603.387 330.393C604.259 338.35 618.216 472.727 618.216 472.727L632.174 498.364C632.174 498.364 631.301 502.785 624.323 502.785H617.344L614.727 513.393C614.727 513.393 609.493 493.06 589.429 503.669L581.578 501.016L586.812 491.292C586.812 491.292 581.578 444.437 581.578 422.335C581.578 400.234 579.833 376.364 579.833 376.364L581.578 313.596Z" fill="#213CBB"/>
<path d="M478.494 311.54L468.786 312.43L446.722 398.73C446.722 398.73 437.896 455.67 439.661 458.339C441.426 461.008 439.661 465.456 437.896 467.236C436.131 469.015 444.957 493.926 453.782 493.037C462.608 492.147 466.138 489.478 466.138 489.478C466.138 489.478 458.195 466.346 478.494 458.339L483.789 440.545L478.494 411.185L485.555 370.26L478.494 311.54Z" fill="#213CBB"/>
<path d="M593.587 293.985C593.167 298.088 592.364 302.305 590.044 305.7C586.696 310.595 580.84 312.932 575.337 315.01L557.762 321.632C554.412 323.002 550.957 324.092 547.431 324.89C545.744 325.221 544.036 325.424 542.319 325.499C535.628 325.669 528.981 324.344 522.852 321.617C515.119 318.321 508.182 313.388 501.546 308.182C497.469 304.977 493.468 301.635 490.142 297.646C487.574 294.602 485.345 290.841 485.525 286.814C485.71 284.877 486.155 282.974 486.846 281.158C489.37 273.392 491.219 265.417 492.372 257.325C493.599 248.717 494.001 240.008 493.573 231.322C493.415 228.132 493.137 224.935 493.573 221.768C495.074 210.411 498.903 202.601 507.837 195.62C509.736 194.144 517.507 192.279 519.804 191.601L520.232 191.495C524.354 190.635 532.447 193.512 536.26 194.829C543.584 197.327 549.968 202.06 554.537 208.378C559.106 214.697 561.638 222.293 561.786 230.126C561.846 232.943 561.748 236.148 563.385 238.279C563.591 238.559 563.828 238.814 564.091 239.04C565.006 239.802 566.178 240.266 567.139 241.004C569.796 243.052 570.232 246.942 569.789 250.291C569.346 253.64 568.242 256.975 568.678 260.324C568.778 261.072 568.949 261.809 569.188 262.524C570.134 265.401 572.041 267.951 573.903 270.38L581.448 280.275C582.822 282.072 584.346 283.975 586.47 284.652L586.688 284.721C587.972 285.071 589.361 284.942 590.584 285.482C593.565 286.67 593.918 290.75 593.587 293.985Z" fill="#FEDDB6"/>
<path d="M501.507 226.591C498.182 232.715 497.11 239.75 496.972 246.653C496.895 250.189 497.064 253.784 498.236 257.136C499.297 259.816 500.672 262.371 502.334 264.752L509.643 276.162C510.631 277.706 511.704 279.33 513.389 280.154C515.074 280.977 517.319 280.845 519.319 280.609C524.076 280.051 528.91 279.338 533.177 277.25C538.678 274.559 542.745 269.847 546.652 265.26C547.91 264.131 548.862 262.725 549.424 261.163C549.986 259.601 550.142 257.931 549.878 256.298L549.043 238.074C549.058 236.222 548.771 234.379 548.192 232.612C546.522 228.311 541.826 225.996 537.827 223.489C531.936 219.813 525.286 213.822 517.671 214.241C510.677 214.652 504.548 220.997 501.507 226.591Z" fill="#C6866B"/>
</svg>
