<svg width="1116" height="896" viewBox="0 0 1116 896" fill="none" xmlns="http://www.w3.org/2000/svg">
<path d="M995 522.903L723.272 747.599L703.948 762H492.802H351.876H327.178H314.863L200.306 631.348L142.801 565.756L125.51 546.041L113.002 531.773L85.1287 499.982L40 448.516L85.7072 410.723L129.359 374.624L160.736 348.68L555.8 22L995 522.903Z" fill="white"/>
<path d="M724.827 716.594C724.827 716.594 722.085 733.956 717.516 736.698C712.947 739.439 741.275 745.835 741.275 745.835L745.844 718.422L724.827 716.594Z" fill="#FBBEBE"/>
<path d="M698.327 292.6C698.327 292.6 702.896 324.582 691.931 326.41C680.965 328.238 671.828 327.324 671.828 328.238C671.828 329.151 699.241 357.479 699.241 357.479L724.827 355.651L747.671 330.979C747.671 330.979 726.654 327.324 726.654 314.531C726.654 301.738 725.741 292.6 725.741 292.6H698.327Z" fill="#FBBEBE"/>
<path opacity="0.1" d="M698.327 292.6C698.327 292.6 702.896 324.582 691.931 326.41C680.965 328.238 671.828 327.324 671.828 328.238C671.828 329.151 699.241 357.479 699.241 357.479L724.827 355.651L747.671 330.979C747.671 330.979 726.654 327.324 726.654 314.531C726.654 301.738 725.741 292.6 725.741 292.6H698.327Z" fill="black"/>
<path d="M659.035 339.203H648.983L643.5 411.392C643.5 411.392 663.604 416.874 666.345 413.219C669.086 409.564 659.035 339.203 659.035 339.203Z" fill="#3F3D56"/>
<path d="M646.241 404.081L643.5 411.392C643.5 411.392 641.672 435.15 652.638 434.236C663.603 433.322 670 419.616 670 419.616C670 419.616 663.603 402.254 656.293 404.081C648.983 405.909 646.241 404.081 646.241 404.081Z" fill="#3F3D56"/>
<path d="M755.895 339.203L773.257 343.772C773.257 343.772 786.05 390.375 786.964 391.289C787.877 392.202 788.791 397.685 788.791 397.685C788.791 397.685 788.791 398.599 790.619 401.34C792.446 404.081 795.188 402.254 793.36 405.909C791.532 409.564 788.791 407.737 790.619 411.392C792.446 415.047 791.532 425.098 791.532 425.098C791.532 425.098 786.964 407.737 770.516 412.306L759.55 362.961L755.895 339.203Z" fill="#3F3D56"/>
<path d="M778.282 397.228L769.145 411.848C769.145 411.848 790.161 414.589 791.989 419.158C793.817 423.727 783.765 395.4 783.765 395.4L778.282 397.228Z" fill="#3F3D56"/>
<path d="M758.637 518.304L768.689 530.183L764.12 571.303L760.465 652.63C760.465 652.63 767.775 722.991 760.465 724.818C753.155 726.646 720.258 725.732 721.172 721.163C722.086 716.594 723 712.939 724.827 706.543C726.655 700.146 723 677.302 723 677.302L727.569 651.716L711.121 541.148L758.637 518.304Z" fill="#2F2E41"/>
<path d="M725.741 733.956C725.741 733.956 715.689 732.129 714.775 733.956C713.861 735.784 696.5 754.973 693.758 754.973C691.017 754.973 670.914 773.249 691.931 774.163C712.948 775.076 747.671 758.628 747.671 758.628C747.671 758.628 742.561 735.376 742.832 736.494C743.102 737.612 725.741 738.525 725.741 733.956Z" fill="#2F2E41"/>
<path d="M714.775 691.922C714.775 691.922 740.361 720.249 741.275 722.991C742.188 725.732 755.895 722.991 755.895 722.991L761.378 704.715L756.809 698.319L731.223 677.302L714.775 691.922Z" fill="#FBBEBE"/>
<path d="M751.326 712.939L738.076 725.41C738.076 725.41 754.981 751.318 754.981 754.059C754.981 756.8 755.895 779.645 765.033 775.99C774.171 772.334 775.084 735.783 775.084 735.783C775.084 735.783 774.171 698.318 768.688 695.577C763.205 692.836 751.189 693.702 751.189 693.702C751.189 693.702 758.636 712.025 751.326 712.939Z" fill="#2F2E41"/>
<path d="M675.483 436.978C675.483 436.978 670.914 451.599 670 455.254C669.086 458.909 663.603 468.96 663.603 484.495C663.603 500.029 665.431 518.305 663.603 520.132C661.776 521.96 632.535 624.303 645.328 635.268C658.121 646.234 700.155 682.785 702.896 687.354C705.637 691.923 706.551 702.888 712.034 701.061C717.516 699.233 738.533 680.958 739.447 677.302C740.361 673.647 727.568 667.251 727.568 667.251C727.568 667.251 701.982 629.786 695.586 630.7C689.189 631.613 690.103 626.131 691.017 623.389C691.931 620.648 693.758 618.82 691.017 618.82C688.276 618.82 690.103 611.51 691.017 607.855C691.931 604.2 712.948 554.856 712.948 554.856L768.688 530.184C768.688 530.184 765.947 463.478 745.844 445.202L741.275 434.237C741.275 434.237 690.103 430.582 675.483 436.978Z" fill="#2F2E41"/>
<path d="M712.491 305.85C728.135 305.85 740.818 293.168 740.818 277.523C740.818 261.878 728.135 249.196 712.491 249.196C696.846 249.196 684.164 261.878 684.164 277.523C684.164 293.168 696.846 305.85 712.491 305.85Z" fill="#FBBEBE"/>
<path d="M687.362 323.669C687.362 323.669 651.724 328.238 648.983 340.117C646.241 351.996 667.258 426.012 670 432.409C672.741 438.805 671.827 443.374 671.827 443.374C675.962 440.282 680.711 438.111 685.755 437.008C690.799 435.904 696.02 435.894 701.068 436.978C718.43 440.633 743.102 438.805 743.102 438.805C743.102 438.805 751.326 404.995 753.154 401.34C754.981 397.685 762.292 377.582 762.292 372.099C762.292 366.616 773.257 343.772 773.257 343.772C773.257 343.772 767.774 327.324 747.671 328.238C747.671 328.238 738.902 324.313 736.433 327.189C733.964 330.065 720.258 342.858 702.896 337.375C685.534 331.893 687.362 323.669 687.362 323.669Z" fill="#3F3D56"/>
<path d="M680.225 254.182C674.464 264.303 673.167 276.291 672.372 287.909C672.031 292.892 671.775 298.006 673.253 302.777C674.811 307.807 678.278 312.919 676.5 317.876C674.781 322.67 669.03 324.589 665.818 328.542C663.096 331.892 662.413 336.482 662.649 340.792C662.885 345.102 663.93 349.334 664.237 353.639C664.869 363.097 661.95 372.45 656.05 379.869C669.814 379.338 684.529 373.235 690.333 360.744C692.068 357.01 692.912 352.923 694.478 349.115C696.249 344.807 698.922 340.908 700.6 336.562C703.131 330.006 703.268 322.806 703.373 315.779C703.436 311.573 703.481 307.254 702.025 303.307C698.821 294.618 688.855 289.003 687.865 279.795C687.695 278.822 687.839 277.819 688.277 276.933C688.742 276.285 689.306 275.715 689.948 275.243C696.171 269.751 695.144 258.123 702.552 254.379C705.876 252.698 709.883 253.289 713.452 254.353C717.416 255.534 721.371 257.363 723.949 260.597C729.142 267.108 727.093 276.514 725.486 284.686C723.158 296.54 722.332 308.64 723.029 320.7C723.074 322.629 723.358 324.545 723.875 326.404C724.83 329.42 726.864 331.954 728.399 334.72C731.528 340.405 732.544 347.015 731.265 353.377C730.132 358.915 727.316 364.811 729.795 369.891C730.886 371.852 732.406 373.542 734.241 374.835C742.339 381.182 752.619 385.114 758.64 393.458C759.677 386.643 757.699 379.785 756.238 373.048C754.778 366.311 753.889 358.976 756.891 352.77C758.207 350.048 760.22 347.679 761.296 344.853C763.782 338.326 760.819 331.167 759.02 324.419C757.734 319.119 756.805 313.739 756.241 308.315L754.385 293.675C752.851 281.572 751.246 269.222 745.931 258.241C735.916 237.546 713.251 229.86 692.957 241.327C687.639 244.396 683.242 248.835 680.225 254.182V254.182Z" fill="#FF6584"/>
<path d="M655.379 408.65C655.379 408.65 649.897 425.098 656.293 425.098C662.69 425.098 674.569 415.046 675.483 406.822C676.396 398.598 692.844 367.53 680.965 370.271C669.086 373.013 663.603 395.857 663.603 395.857L655.379 408.65Z" fill="#FBBEBE"/>
<path d="M747.671 339.203L717.516 436.978L758.636 446.115L788.791 351.082L747.671 339.203Z" fill="#6C63FF"/>
<path d="M786.05 409.563L791.759 419.103C791.759 419.103 794.275 436.977 781.482 436.977C768.689 436.977 750.413 419.615 750.413 419.615C750.413 419.615 741.275 415.96 735.793 416.874C730.31 417.787 700.155 416.874 712.948 401.339C725.741 385.805 747.672 401.339 747.672 401.339L770.516 412.305L782.395 405.908L786.05 409.563Z" fill="#FBBEBE"/>
<path d="M1116 760.728H0V762.755H1116V760.728Z" fill="#3F3D56"/>
<path d="M404.278 447.617L392.693 459.203L404.278 470.788L415.864 447.617H404.278Z" fill="#A0616A"/>
<path d="M406.887 347.159C410.138 348.49 411.685 352.127 412.91 355.42L427.938 395.803L430.864 403.663C432.298 407.518 433.734 411.375 434.947 415.305C435.714 417.791 436.392 420.302 436.979 422.839C437.588 425.01 437.823 427.269 437.672 429.519C437.266 431.994 436.362 434.361 435.016 436.478C429.787 445.584 422.341 453.221 413.37 458.679C412.853 455.34 411.506 452.184 409.454 449.499C407.401 446.815 404.709 444.689 401.622 443.314L409.393 439.04C411.037 438.268 412.516 437.185 413.748 435.851C414.5 434.81 415.036 433.627 415.321 432.375C415.607 431.122 415.637 429.825 415.411 428.561C414.944 426.038 414.169 423.581 413.104 421.247C410.497 414.74 408.234 408.099 406.326 401.354C405.197 397.364 404.16 393.263 401.923 389.772C399.894 386.604 396.956 384.071 395.112 380.792C392.302 375.795 392.374 369.642 393.615 364.045C394.662 359.32 396.419 354.772 397.897 350.172C399.058 346.557 403.406 345.735 406.887 347.159Z" fill="#FF5757"/>
<path d="M335.235 239.267C329.259 241.285 323.845 246.005 322.622 252.192C322.055 255.061 322.402 258.042 321.925 260.927C320.818 267.617 315.567 272.726 310.723 277.471C305.88 282.217 300.878 287.731 300.525 294.502C300.138 301.917 305.515 308.864 304.585 316.231C303.504 324.789 294.464 330.335 292.229 338.667C290.737 344.23 292.566 350.224 295.574 355.136C301.306 364.497 311.105 370.852 321.54 374.259C331.974 377.666 343.088 378.383 354.064 378.498C367.428 378.638 381.939 377.49 391.981 368.67C397.717 363.586 401.319 356.522 402.065 348.894C403.019 338.677 398.755 328.12 401.696 318.289C403.547 312.101 408.19 306.451 407.497 300.03C406.819 293.752 401.336 289.302 397.575 284.23C394.063 279.494 391.931 273.902 389.843 268.389L382.696 249.525C381.291 245.816 379.748 241.916 376.617 239.482C370.756 234.926 361.331 235.821 354.478 236.761C348.119 237.633 341.35 237.202 335.235 239.267Z" fill="#2F2E41"/>
<path d="M340.763 301.435C340.763 301.435 341.463 322.42 339.364 324.519C337.266 326.617 347.759 340.608 347.759 340.608L366.645 339.908L376.438 332.214L368.044 321.021C368.044 321.021 364.547 302.834 367.345 298.637C370.143 294.44 340.763 301.435 340.763 301.435Z" fill="#A0616A"/>
<path opacity="0.1" d="M340.763 301.435C340.763 301.435 341.463 322.42 339.364 324.519C337.266 326.617 347.759 340.608 347.759 340.608L366.645 339.908L376.438 332.214L368.044 321.021C368.044 321.021 364.547 302.834 367.345 298.637C370.143 294.44 340.763 301.435 340.763 301.435Z" fill="black"/>
<path d="M297.044 463.372L308.936 489.954L318.031 478.761L299.843 454.977L297.044 463.372Z" fill="#A0616A"/>
<path d="M374.768 713.005L371.473 757.299L379.709 763.626L392.889 752.552V720.124L374.768 713.005Z" fill="#A0616A"/>
<path d="M265.217 729.535L260.32 756.817L251.926 768.709L256.823 771.506L265.217 770.107L275.01 766.609L279.206 750.521L286.902 729.535H265.217Z" fill="#A0616A"/>
<path d="M352.306 309.479C366.214 309.479 377.488 298.205 377.488 284.297C377.488 270.389 366.214 259.114 352.306 259.114C338.398 259.114 327.124 270.389 327.124 284.297C327.124 298.205 338.398 309.479 352.306 309.479Z" fill="#A0616A"/>
<path d="M371.737 318.167C370.983 317.804 370.159 317.608 369.321 317.592C368.484 317.576 367.653 317.74 366.885 318.074C365.358 318.751 363.874 319.523 362.445 320.388C358.77 322.3 354.603 323.058 350.49 322.563C350.006 322.526 349.533 322.404 349.093 322.203C348.625 321.912 348.195 321.565 347.812 321.17C346.321 319.958 344.417 319.373 342.503 319.538C340.588 319.703 338.813 320.605 337.551 322.054C336.811 322.976 336.305 324.076 335.498 324.939C333.407 327.174 329.958 327.265 326.897 327.259C320.552 327.083 314.209 327.664 308.002 328.991C301.766 330.337 296.024 333.38 291.409 337.784C290.149 338.968 289.146 340.398 288.461 341.986C287.617 344.163 287.728 346.607 286.97 348.815C286.125 351.274 284.253 353.291 283.496 355.778C282.925 357.651 283.005 359.736 282.05 361.446C286.138 364.984 289.602 369.703 293.689 373.241C296.396 375.584 299.23 378.118 300.247 381.55C300.705 383.666 300.908 385.83 300.853 387.994C301.358 398.341 306.97 407.727 313.245 415.97C314.966 418.414 317.025 420.602 319.361 422.467C322.533 424.627 326.135 426.073 329.919 426.707C337.065 428.169 344.421 428.161 351.715 428.088C359.253 428.013 366.924 427.854 374.089 425.511C377.736 424.494 381.016 422.456 383.546 419.639C386.493 416.019 387.643 410.783 391.664 408.412C392.637 407.965 393.559 407.415 394.414 406.769C395.233 405.881 395.812 404.799 396.098 403.625C397.505 399.231 398.28 394.66 398.401 390.048C398.297 387.281 398.485 384.511 398.961 381.782C399.656 379.378 400.669 377.078 401.973 374.942L410.306 359.83C410.983 358.602 410.807 356.795 410.869 355.393C410.807 353.373 410.187 351.409 409.077 349.72C403.672 340.168 395.182 332.736 384.999 328.643C384.196 328.37 383.432 327.996 382.725 327.529C381.892 326.828 381.187 325.988 380.643 325.045C378.432 321.713 375.731 317.959 371.737 318.167Z" fill="#FF5757"/>
<path d="M267.888 400.47C266.245 404.465 265.038 408.626 264.289 412.88C263.485 418.758 264.433 424.742 267.014 430.083C271.504 439.326 280.345 445.596 286.584 453.761C292.381 461.347 295.834 470.44 300.854 478.561C299.978 476.494 301.042 474.101 302.475 472.372C303.907 470.643 305.739 469.21 306.789 467.225C307.504 465.689 307.954 464.042 308.119 462.355C308.868 457.319 309.272 451.847 306.705 447.451C304.772 444.141 301.434 441.943 298.791 439.168C296.147 436.344 294.205 432.939 293.119 429.226C292.033 425.514 291.835 421.598 292.54 417.795C293.048 415.177 293.984 412.664 294.685 410.091C295.552 406.632 296.209 403.124 296.651 399.586L299.801 377.951C300.639 372.196 301.348 365.828 298.089 361.012C297.453 360.004 296.574 359.172 295.532 358.593C294.67 358.199 293.752 357.94 292.811 357.827C289.383 357.266 284.739 355.765 283.066 359.438C281.045 363.872 279.638 368.705 277.947 373.277L267.888 400.47Z" fill="#FF5757"/>
<path d="M387.944 412.308C387.944 412.308 346.36 420.352 336.567 420.352H319.079C319.079 420.352 312.783 431.544 312.783 442.736C312.783 453.929 271.512 610.619 271.512 610.619C271.512 610.619 232.34 739.329 275.709 740.029C319.079 740.728 346.36 742.827 347.059 728.137C347.759 713.447 351.956 523.88 351.956 523.88L358.485 621.355C360.24 645.486 358.366 669.744 352.926 693.319C349.794 706.536 350.28 721.025 365.946 723.94C396.025 729.536 433.799 724.639 433.799 714.147C433.799 703.654 414.213 470.717 414.213 470.717C414.213 470.717 404.419 436.441 398.823 433.643C393.227 430.845 387.944 412.308 387.944 412.308Z" fill="#2F2E41"/>
<path d="M257.522 767.31L272.911 761.714L283.404 735.132L294.596 733.733C294.596 733.733 288.3 747.024 284.803 749.122C281.305 751.221 275.709 768.709 275.709 768.709C275.709 768.709 278.507 775.704 265.216 778.502C251.926 781.3 242.132 783.399 242.132 783.399C242.132 783.399 240.733 780.601 247.029 773.605C253.325 766.61 260.676 754.834 260.676 754.834L257.522 767.31Z" fill="#2F2E41"/>
<path d="M372.341 744.465L369.526 766.484C369.526 766.484 377.267 778.228 379.378 778.228C381.489 778.228 392.748 767.952 392.748 767.952C392.748 767.952 392.044 756.943 392.748 754.007C393.452 751.071 394.859 737.125 392.748 736.391C390.637 735.657 390.637 752.75 390.637 752.75L381.489 762.814L372.668 757.298L372.341 744.465Z" fill="#2F2E41"/>
<path d="M354.404 284.297C369.471 284.297 381.685 277.72 381.685 269.607C381.685 261.495 369.471 254.918 354.404 254.918C339.338 254.918 327.124 261.495 327.124 269.607C327.124 277.72 339.338 284.297 354.404 284.297Z" fill="#2F2E41"/>
<path d="M972.102 740.59C968.797 752.808 957.475 760.375 957.475 760.375C957.475 760.375 951.512 748.132 954.818 735.914C958.123 723.695 969.445 716.128 969.445 716.128C969.445 716.128 975.407 728.371 972.102 740.59Z" fill="#3F3D56"/>
<path d="M967.245 737.964C958.175 746.793 957.067 760.365 957.067 760.365C957.067 760.365 970.665 759.623 979.735 750.794C988.805 741.965 989.913 728.392 989.913 728.392C989.913 728.392 976.315 729.134 967.245 737.964Z" fill="#6C63FF"/>
<path d="M15.2046 664.796C15.2046 713.428 45.7138 752.781 83.4174 752.781L15.2046 664.796Z" fill="#3F3D56"/>
<path d="M83.4175 752.78C83.4175 703.602 117.464 663.807 159.539 663.807L83.4175 752.78Z" fill="#6C63FF"/>
<path d="M39.9194 669.204C39.9194 715.4 59.3746 752.78 83.4174 752.78L39.9194 669.204Z" fill="#6C63FF"/>
<path d="M83.4175 752.781C83.4175 689.941 122.77 639.093 171.402 639.093L83.4175 752.781Z" fill="#3F3D56"/>
<path d="M69.0674 753.401C69.0674 753.401 78.7411 753.103 81.6565 751.027C84.5719 748.951 96.5371 746.472 97.2603 749.801C97.9836 753.131 111.798 766.361 100.877 766.449C89.955 766.537 75.4997 764.748 72.5899 762.975C69.6801 761.203 69.0674 753.401 69.0674 753.401Z" fill="#A8A8A8"/>
<path opacity="0.2" d="M101.071 765.29C90.1499 765.378 75.6946 763.589 72.7848 761.816C70.5688 760.466 69.6858 755.623 69.3903 753.388C69.1857 753.397 69.0674 753.401 69.0674 753.401C69.0674 753.401 69.6801 761.203 72.5899 762.975C75.4997 764.748 89.955 766.537 100.877 766.449C104.029 766.423 105.118 765.302 105.058 763.64C104.62 764.644 103.418 765.271 101.071 765.29Z" fill="black"/>
<path d="M508.485 366.43C508.485 366.43 470.977 371.234 468.091 383.724C465.206 396.213 487.326 474.032 490.212 480.758C493.097 487.483 492.135 492.286 492.135 492.286C496.487 489.035 501.485 486.753 506.794 485.593C512.102 484.433 517.598 484.422 522.911 485.561C541.184 489.404 567.151 487.483 567.151 487.483C567.151 487.483 575.807 451.936 577.731 448.093C579.654 444.25 587.348 423.114 587.348 417.349C587.348 411.585 598.889 387.567 598.889 387.567C598.889 387.567 593.119 370.273 571.96 371.234C571.96 371.234 562.731 367.108 560.132 370.132C557.534 373.156 543.108 386.606 524.835 380.841C506.561 375.077 508.485 366.43 508.485 366.43Z" fill="#213CBB"/>
<path d="M511.483 799.481L514.675 839.309C514.675 839.309 501.91 871.172 522.653 874.358C522.86 874.39 523.066 874.42 523.269 874.449C525.841 874.802 528.46 874.543 530.913 873.692C533.365 872.842 535.581 871.424 537.38 869.555C539.179 867.686 540.509 865.418 541.262 862.938C542.016 860.457 542.17 857.834 541.714 855.282L538.61 837.716C538.61 837.716 540.205 805.854 530.631 799.481C521.057 793.109 511.483 799.481 511.483 799.481Z" fill="#2F2E41"/>
<path d="M491.612 482.925C491.612 482.925 458.149 527.101 476.401 592.603C494.654 658.105 496.175 676.385 496.175 676.385L506.822 801.296C506.822 801.296 525.075 807.389 540.285 798.249L535.722 677.908V604.789L544.848 685.524V766.26C544.848 766.26 566.143 787.586 581.353 767.783L584.395 677.908C584.395 677.908 593.521 552.997 587.437 540.81C581.353 528.624 567.664 485.971 567.664 485.971L491.612 482.925Z" fill="#2F2E41"/>
<path d="M552.017 764.801C552.017 764.801 548.871 774.382 550.444 783.963C552.017 793.545 553.589 820.692 553.589 820.692C553.589 820.692 553.589 849.436 564.599 849.436C568.531 849.436 571.861 845.973 574.518 841.521C577.267 836.799 579.043 831.56 579.739 826.121C580.434 820.682 580.036 815.156 578.566 809.878L572.463 787.157V769.591L552.017 764.801Z" fill="#2F2E41"/>
<path d="M613.174 567.916C613.174 567.916 622.355 605.564 603.994 609.942C585.633 614.32 592.059 567.916 592.059 567.916H613.174Z" fill="#FDBE92"/>
<path d="M463.859 521.97C463.859 521.97 498.49 540.933 489.69 556.869C480.89 572.805 449.918 536.893 449.918 536.893L463.859 521.97Z" fill="#FDBE92"/>
<path d="M581.578 382.596L594.663 380.828C594.663 380.828 602.514 391.437 603.387 399.393C604.259 407.35 618.216 541.727 618.216 541.727L632.174 567.364C632.174 567.364 631.301 571.785 624.323 571.785H617.344L614.727 582.393C614.727 582.393 609.493 562.06 589.429 572.669L581.578 570.016L586.812 560.292C586.812 560.292 581.578 513.437 581.578 491.335C581.578 469.234 579.833 445.364 579.833 445.364L581.578 382.596Z" fill="#213CBB"/>
<path d="M478.494 380.54L468.786 381.43L446.722 467.73C446.722 467.73 437.896 524.67 439.661 527.339C441.426 530.008 439.661 534.456 437.896 536.236C436.131 538.015 444.957 562.926 453.782 562.037C462.608 561.147 466.138 558.478 466.138 558.478C466.138 558.478 458.195 535.346 478.494 527.339L483.789 509.545L478.494 480.185L485.555 439.26L478.494 380.54Z" fill="#213CBB"/>
<path d="M593.587 362.985C593.167 367.088 592.364 371.305 590.044 374.7C586.696 379.595 580.84 381.932 575.337 384.01L557.762 390.632C554.412 392.002 550.957 393.092 547.431 393.89C545.744 394.221 544.036 394.424 542.319 394.499C535.628 394.669 528.981 393.344 522.852 390.617C515.119 387.321 508.182 382.388 501.546 377.182C497.469 373.977 493.468 370.635 490.142 366.646C487.574 363.602 485.345 359.841 485.525 355.814C485.71 353.877 486.155 351.974 486.846 350.158C489.37 342.392 491.219 334.417 492.372 326.325C493.599 317.717 494.001 309.008 493.573 300.322C493.415 297.132 493.137 293.935 493.573 290.768C495.074 279.411 498.903 271.601 507.837 264.62C509.736 263.144 517.507 261.279 519.804 260.601L520.232 260.495C524.354 259.635 532.447 262.512 536.26 263.829C543.584 266.327 549.968 271.06 554.537 277.378C559.106 283.697 561.638 291.293 561.786 299.126C561.846 301.943 561.748 305.148 563.385 307.279C563.591 307.559 563.828 307.814 564.091 308.04C565.006 308.802 566.178 309.266 567.139 310.004C569.796 312.052 570.232 315.942 569.789 319.291C569.346 322.64 568.242 325.975 568.678 329.324C568.778 330.072 568.949 330.809 569.188 331.524C570.134 334.401 572.041 336.951 573.903 339.38L581.448 349.275C582.822 351.072 584.346 352.975 586.47 353.652L586.688 353.721C587.972 354.071 589.361 353.942 590.584 354.482C593.565 355.67 593.918 359.75 593.587 362.985Z" fill="#ABCEFD"/>
<path d="M501.507 295.591C498.182 301.715 497.11 308.75 496.972 315.653C496.895 319.189 497.064 322.784 498.236 326.136C499.297 328.816 500.672 331.371 502.334 333.752L509.643 345.162C510.631 346.706 511.704 348.33 513.389 349.154C515.074 349.977 517.319 349.845 519.319 349.609C524.076 349.051 528.91 348.338 533.177 346.25C538.678 343.559 542.745 338.847 546.652 334.26C547.91 333.131 548.862 331.725 549.424 330.163C549.986 328.601 550.142 326.931 549.878 325.298L549.043 307.074C549.058 305.222 548.771 303.379 548.192 301.612C546.522 297.311 541.826 294.996 537.827 292.489C531.936 288.813 525.286 282.822 517.671 283.241C510.677 283.652 504.548 289.997 501.507 295.591Z" fill="#FDBE92"/>
</svg>
