<svg width="322" height="234" viewBox="0 0 322 234" fill="none" xmlns="http://www.w3.org/2000/svg">
<path opacity="0.1" d="M18.2276 121.817C23.3535 113.409 34.9452 114.875 43.1655 119.264C51.3857 123.653 59.5882 130.204 68.6348 128.945C76.2626 127.883 82.5175 121.204 85.8966 113.499C89.2757 105.793 90.2673 97.1051 91.2183 88.5956C92.4133 77.9048 93.6075 67.2072 94.8008 56.5028C95.2381 52.5888 95.7543 48.4579 97.946 45.3609C100.842 41.2759 106.151 40.0198 110.692 41.2478C115.233 42.4759 119.106 45.7694 122.419 49.4434C133.032 61.2082 139.045 77.1116 148.323 90.204C150.212 92.8695 152.345 95.5043 155.167 96.7911C159.236 98.6421 163.906 97.3324 167.881 95.272C180.848 88.5598 189.559 74.8623 198.12 62.0814C202.285 55.8696 207.362 49.2264 214.291 48.5498C221.58 47.8221 227.909 54.0594 232.193 60.6644C245.944 81.9166 248.891 110.93 265.502 129.466C267.564 131.764 269.839 133.888 272.461 135.315C273.325 135.784 274.227 136.181 275.156 136.502C289.649 141.54 294.48 161.761 283.76 173.75C283.529 174.005 283.292 174.261 283.053 174.516C281.461 176.204 279.659 177.799 277.508 178.302C275.507 178.767 273.44 178.231 271.456 177.651C258.779 173.936 246.254 168.258 233.147 168.534C220.393 168.789 208.295 174.705 195.684 176.834C187.204 178.266 178.577 177.981 170.004 177.672C141.448 176.64 112.899 175.44 84.3558 174.072C70.1883 173.418 56.0158 172.795 41.8509 172.067C30.9381 171.498 23.9866 170.245 22.7203 157.527C21.6118 146.391 11.6549 132.601 18.2276 121.817Z" fill="#5271FF"/>
<path d="M216.841 217C254.754 217 285.489 212.687 285.489 207.367C285.489 202.047 254.754 197.734 216.841 197.734C178.928 197.734 148.193 202.047 148.193 207.367C148.193 212.687 178.928 217 216.841 217Z" fill="#30374E"/>
<path d="M53.8188 165.81C53.8188 165.81 57.1751 165.044 59.3744 167.309C59.3744 167.309 57.9608 168.585 54.635 167.171L53.8188 165.81Z" fill="#5271FF"/>
<path d="M53.4474 165.777C53.4474 165.777 51.4591 168.605 52.7202 171.508C52.7202 171.508 54.439 170.679 54.3907 167.053L53.4474 165.777Z" fill="#5271FF"/>
<path d="M51.21 161.513C51.21 161.513 52.4024 158.921 58.075 162.054C58.075 162.054 57.4648 163.785 55.0544 163.811C52.644 163.836 51.9219 162.787 51.21 161.513Z" fill="#5271FF"/>
<path d="M50.849 161.355C50.849 161.355 48.0089 161.222 48.1691 167.717C48.1691 167.717 49.982 167.972 51.1135 165.833C52.2449 163.693 51.6449 162.588 50.849 161.355Z" fill="#5271FF"/>
<path d="M48.8711 156.299C48.8711 156.299 50.1424 151.785 56.1099 154.543C56.1099 154.543 55.0674 158.676 49.55 157.77L48.8711 156.299Z" fill="#5271FF"/>
<path d="M46.6562 149.83C46.6562 149.83 49.3463 145.173 54.9172 148.951C54.9172 148.951 53.3433 153.259 47.2156 151.39L46.6562 149.83Z" fill="#5271FF"/>
<path d="M45.6035 143.6C45.6035 143.6 48.8148 139.273 54.3399 143.01C54.3399 143.01 51.2735 146.825 45.6722 144.644L45.6035 143.6Z" fill="#5271FF"/>
<path d="M44.6528 137.544C44.6528 137.544 47.8972 133.035 53.1935 136.74C53.1935 136.74 49.4609 140.782 44.7189 138.545L44.6528 137.544Z" fill="#5271FF"/>
<path d="M44.6069 132.116C44.6069 132.116 47.9505 126.364 52.9086 129.775C52.9086 129.775 49.2421 134.771 44.6781 133.16L44.6069 132.116Z" fill="#5271FF"/>
<path d="M45.0571 125.738C45.0571 125.738 48.6168 120.019 53.4706 123.905C53.4706 123.905 49.1228 128.948 45.1131 126.752L45.0571 125.738Z" fill="#5271FF"/>
<path d="M45.9801 120.004C45.9801 120.004 50.3026 114.563 54.5106 116.335C54.5106 116.335 50.0153 122.105 45.8657 121.38L45.9801 120.004Z" fill="#5271FF"/>
<path d="M47.251 114.54C47.251 114.54 52.2193 107.902 55.4814 109.787C55.4814 109.787 51.843 114.916 46.9434 115.748L47.251 114.54Z" fill="#5271FF"/>
<path d="M49.1887 108.173C49.1887 108.173 53.5544 102.73 57.0708 103.771C57.0708 103.771 53.3968 109.36 48.6548 109.817L49.1887 108.173Z" fill="#5271FF"/>
<path d="M50.9305 102.222C50.9305 102.222 55.8072 96.9622 58.1286 97.672C58.1286 97.672 54.7342 103.381 50.7754 103.327L50.9305 102.222Z" fill="#5271FF"/>
<path d="M52.6519 96.7171C52.6519 96.7171 56.7429 90.5513 59.2169 90.8449C59.2169 90.8449 56.8497 96.255 52.6925 97.312L52.6519 96.7171Z" fill="#5271FF"/>
<path d="M54.4289 89.336C54.4289 89.336 58.0877 84.5718 60.2286 84.4391C60.2286 84.4391 57.5055 90.6534 54.3628 90.8219L54.4289 89.336Z" fill="#5271FF"/>
<path d="M55.446 84.4314L58.6446 74.8087C58.6446 74.8087 59.4074 83.2596 55.085 86.2008L55.446 84.4314Z" fill="#5271FF"/>
<path d="M56.3079 73.9994C56.3079 73.9994 56.4198 66.1383 55.9697 65.5306C55.9697 65.5306 59.1404 71.8471 56.5138 77.4563L56.3079 73.9994Z" fill="#5271FF"/>
<path d="M48.7082 156.205C48.7082 156.205 44.5739 154.004 42.4102 160.221C42.4102 160.221 46.0969 162.335 49.2752 157.716L48.7082 156.205Z" fill="#5271FF"/>
<path d="M46.5112 149.587C46.5112 149.587 41.4971 147.685 39.5571 154.152C39.5571 154.152 43.4905 156.488 47.0604 151.15L46.5112 149.587Z" fill="#5271FF"/>
<path d="M45.4029 143.991C45.4029 143.991 41.6424 140.133 36.6665 144.586C36.6665 144.586 40.2109 147.953 45.4716 145.043L45.4029 143.991Z" fill="#5271FF"/>
<path d="M44.5335 137.554C44.5335 137.554 40.7196 133.518 35.9624 137.902C35.9624 137.902 40.1984 141.407 44.6073 138.553L44.5335 137.554Z" fill="#5271FF"/>
<path d="M44.6171 132.269C44.6171 132.269 41.7286 126.277 36.5239 129.29C36.5239 129.29 39.7937 134.557 44.467 133.309L44.6171 132.269Z" fill="#5271FF"/>
<path d="M45.3542 125.693C45.3542 125.693 42.4735 119.591 37.2026 122.866C37.2026 122.866 40.9301 128.384 45.1712 126.678L45.3542 125.693Z" fill="#5271FF"/>
<path d="M46.5059 119.999C46.5059 119.999 45.0719 113.195 40.5181 112.884C40.5181 112.884 41.9623 120.065 45.9872 121.278L46.5059 119.999Z" fill="#5271FF"/>
<path d="M47.368 114.546C47.368 114.546 46.4348 106.296 42.6743 106.258C42.6743 106.258 43.221 112.531 47.0247 115.743L47.368 114.546Z" fill="#5271FF"/>
<path d="M49.5626 107.91C49.5626 107.91 47.9837 101.103 44.3579 100.506C44.3579 100.506 45.2478 107.144 49.3236 109.626L49.5626 107.91Z" fill="#5271FF"/>
<path d="M51.3575 102.242C51.3575 102.242 50.849 95.0754 48.5861 94.1691C48.5861 94.1691 47.6682 100.751 50.7854 103.202L51.3575 102.242Z" fill="#5271FF"/>
<path d="M52.8145 96.6277C52.8145 96.6277 52.0135 89.262 49.6845 88.376C49.6845 88.376 49.3031 94.2712 52.5068 97.1333L52.8145 96.6277Z" fill="#5271FF"/>
<path d="M54.7848 89.9028C54.7848 89.9028 54.3678 83.9004 52.6617 82.5983C52.6617 82.5983 51.4971 89.285 54.022 91.1666L54.7848 89.9028Z" fill="#5271FF"/>
<path d="M55.2271 84.1481L52.9896 74.2573C52.9896 74.2573 51.4055 82.5907 55.4228 85.9455L55.2271 84.1481Z" fill="#5271FF"/>
<path d="M54.8794 74.1908C54.8794 74.1908 50.3967 67.7365 50.4323 66.9859C50.4323 66.9859 51.3324 74.0019 56.6389 77.1703L54.8794 74.1908Z" fill="#5271FF"/>
<path d="M55.2272 72.1764C55.2272 72.1764 50.7878 62.8856 49.0156 62.2192C49.0156 62.2192 54.6322 64.6268 55.5272 71.8701L55.2272 72.1764Z" fill="#5271FF"/>
<path d="M54.348 90.8704L54.0938 90.8066C56.5982 80.0835 56.9516 73.3228 55.0854 71.7705L55.2583 71.5612C57.2262 73.2054 56.916 79.8843 54.348 90.8704Z" fill="#444053"/>
<path d="M47.1568 116.06L46.7627 115.95C47.0398 114.964 47.3399 113.961 47.6602 112.973C50.4571 104.364 52.7811 96.3775 54.2075 90.2653L54.5304 90.0739C53.1014 96.2014 50.841 104.481 48.0493 113.098C47.7314 114.083 47.4314 115.079 47.1568 116.06Z" fill="#444053"/>
<path d="M59.1204 173.352C59.0644 173.298 53.4707 167.768 49.1737 157.972C46.656 152.238 45.0589 146.139 44.4419 139.903C43.6791 132.109 44.7216 123.275 46.9845 115.163L47.3099 115.5C42.2247 133.707 45.7361 148.778 49.6568 157.729C53.9106 167.431 59.4407 172.908 59.4967 172.961L59.1204 173.352Z" fill="#444053"/>
<path d="M65.2783 144.192C65.2783 144.192 67.3124 143.725 68.6396 145.099C68.6396 145.099 67.7828 145.865 65.7741 145.015L65.2783 144.192Z" fill="#5271FF"/>
<path d="M65.0568 144.175C65.0568 144.175 63.8567 145.885 64.6195 147.639C64.6195 147.639 65.6569 147.129 65.6365 144.946L65.0568 144.175Z" fill="#5271FF"/>
<path d="M63.7046 141.593C63.7046 141.593 64.4242 140.028 67.8491 141.923C67.8491 141.923 67.4804 142.967 66.0235 142.982C64.5665 142.998 64.1394 142.364 63.7046 141.593Z" fill="#5271FF"/>
<path d="M63.4855 141.499C63.4855 141.499 61.7667 141.42 61.8633 145.344C61.8633 145.344 62.9592 145.497 63.6431 144.205C64.3271 142.913 63.966 142.244 63.4855 141.499Z" fill="#5271FF"/>
<path d="M62.2832 138.443C62.2832 138.443 63.0638 135.714 66.6641 137.376C66.6641 137.376 66.0361 139.875 62.7002 139.326L62.2832 138.443Z" fill="#5271FF"/>
<path d="M60.9507 134.531C60.9507 134.531 62.5754 131.723 65.9444 134C65.9444 134 64.9909 136.605 61.2889 135.474L60.9507 134.531Z" fill="#5271FF"/>
<path d="M60.313 130.766C60.313 130.766 62.2555 128.149 65.594 130.408C65.594 130.408 63.743 132.706 60.3562 131.396L60.313 130.766Z" fill="#5271FF"/>
<path d="M59.7378 127.104C59.7378 127.104 61.7007 124.378 64.9018 126.619C64.9018 126.619 62.6465 129.063 59.7785 127.709L59.7378 127.104Z" fill="#5271FF"/>
<path d="M59.7124 123.821C59.7124 123.821 61.7465 120.346 64.729 122.407C64.729 122.407 62.5118 125.427 59.7531 124.449L59.7124 123.821Z" fill="#5271FF"/>
<path d="M59.9771 119.968C59.9771 119.968 62.1357 116.509 65.0623 118.85C65.0623 118.85 62.4332 121.899 60.0076 120.571L59.9771 119.968Z" fill="#5271FF"/>
<path d="M60.5411 116.501C60.5411 116.501 63.1524 113.213 65.6975 114.285C65.6975 114.285 62.9795 117.773 60.4775 117.334L60.5411 116.501Z" fill="#5271FF"/>
<path d="M61.3091 113.198C61.3091 113.198 64.312 109.187 66.2851 110.323C66.2851 110.323 64.0857 113.425 61.1235 113.928L61.3091 113.198Z" fill="#5271FF"/>
<path d="M62.4818 109.353C62.4818 109.353 65.121 106.062 67.2517 106.692C67.2517 106.692 65.032 110.07 62.1665 110.346L62.4818 109.353Z" fill="#5271FF"/>
<path d="M63.534 105.75C63.534 105.75 66.4809 102.571 67.8844 103C67.8844 103 65.8351 106.45 63.4399 106.419L63.534 105.75Z" fill="#5271FF"/>
<path d="M64.5742 102.423C64.5742 102.423 67.0482 98.6958 68.5432 98.8694C68.5432 98.8694 67.1143 102.14 64.5996 102.781L64.5742 102.423Z" fill="#5271FF"/>
<path d="M65.652 97.9605C65.652 97.9605 67.8641 95.0805 69.1583 94.9988C69.1583 94.9988 67.5107 98.757 65.6113 98.8515L65.652 97.9605Z" fill="#5271FF"/>
<path d="M66.265 94.9938L68.1948 89.1829C68.1948 89.1829 68.6525 94.2891 66.0361 96.0763L66.265 94.9938Z" fill="#5271FF"/>
<path d="M66.786 88.6875C66.786 88.6875 66.8521 83.9361 66.5801 83.5685C66.5801 83.5685 68.4972 87.3854 66.9081 90.7785L66.786 88.6875Z" fill="#5271FF"/>
<path d="M62.1889 138.387C62.1889 138.387 59.6921 137.054 58.375 140.812C58.375 140.812 60.6049 142.089 62.5271 139.301L62.1889 138.387Z" fill="#5271FF"/>
<path d="M60.8642 134.373C60.8642 134.373 57.8308 133.224 56.6587 137.133C56.6587 137.133 59.036 138.545 61.1947 135.32L60.8642 134.373Z" fill="#5271FF"/>
<path d="M60.1907 131C60.1907 131 57.9201 128.669 54.9097 131.358C54.9097 131.358 57.0531 133.4 60.2339 131.634L60.1907 131Z" fill="#5271FF"/>
<path d="M59.6667 127.11C59.6667 127.11 57.3606 124.671 54.4849 127.321C54.4849 127.321 57.0453 129.438 59.7074 127.715L59.6667 127.11Z" fill="#5271FF"/>
<path d="M59.7178 123.905C59.7178 123.905 57.971 120.283 54.8232 122.103C54.8232 122.103 56.8014 125.287 59.6262 124.533L59.7178 123.905Z" fill="#5271FF"/>
<path d="M60.1627 119.935C60.1627 119.935 58.4211 116.246 55.2275 118.227C55.2275 118.227 57.4803 121.564 60.0458 120.525L60.1627 119.935Z" fill="#5271FF"/>
<path d="M60.8594 116.501C60.8594 116.501 59.9924 112.386 57.2388 112.199C57.2388 112.199 58.1109 116.54 60.5442 117.272L60.8594 116.501Z" fill="#5271FF"/>
<path d="M61.3804 113.2C61.3804 113.2 60.8211 108.214 58.5327 108.188C58.5327 108.188 58.8633 111.982 61.1618 113.925L61.3804 113.2Z" fill="#5271FF"/>
<path d="M62.7053 109.189C62.7053 109.189 61.7518 105.073 59.5601 104.711C59.5601 104.711 60.0991 108.722 62.5629 110.223L62.7053 109.189Z" fill="#5271FF"/>
<path d="M63.7909 105.763C63.7909 105.763 63.4782 101.422 62.1179 100.881C62.1179 100.881 61.561 104.862 63.4451 106.342L63.7909 105.763Z" fill="#5271FF"/>
<path d="M64.6732 102.367C64.6732 102.367 64.1902 97.9145 62.7815 97.3784C62.7815 97.3784 62.5502 100.953 64.4876 102.674L64.6732 102.367Z" fill="#5271FF"/>
<path d="M65.8633 98.3026C65.8633 98.3026 65.609 94.6746 64.592 93.8857C64.592 93.8857 63.8877 97.9298 65.4133 99.066L65.8633 98.3026Z" fill="#5271FF"/>
<path d="M66.1379 94.8227L64.7852 88.8433C64.7852 88.8433 63.8267 93.8831 66.2548 95.9103L66.1379 94.8227Z" fill="#5271FF"/>
<path d="M65.9215 88.805C65.9215 88.805 63.2137 84.9064 63.234 84.4493C63.234 84.4493 63.7756 88.6901 66.9843 90.6049L65.9215 88.805Z" fill="#5271FF"/>
<path d="M66.1251 87.5846C66.1251 87.5846 63.4401 81.9677 62.3696 81.572C62.3696 81.572 65.7666 83.0272 66.3056 87.4084L66.1251 87.5846Z" fill="#5271FF"/>
<path d="M65.5987 98.8847L65.4385 98.8464C66.964 92.364 67.1675 88.2764 66.0385 87.3394L66.1428 87.2118C67.3404 88.2075 67.1522 92.2466 65.5987 98.8847Z" fill="#444053"/>
<path d="M61.2532 114.117L61.0142 114.048C61.182 113.453 61.365 112.848 61.5583 112.261C63.244 107.055 64.6526 102.227 65.5146 98.5324L65.7104 98.4149C64.8459 102.117 63.4805 107.126 61.7922 112.337C61.599 112.927 61.4184 113.522 61.2532 114.117Z" fill="#444053"/>
<path d="M68.4843 148.752C68.4513 148.719 65.0696 145.377 62.471 139.454C60.9501 135.987 59.9847 132.301 59.6106 128.532C59.1453 123.819 59.781 118.477 61.1514 113.573L61.3472 113.777C58.2732 124.784 60.3963 133.896 62.766 139.308C65.3391 145.181 68.6801 148.482 68.7157 148.515L68.4843 148.752Z" fill="#444053"/>
<path d="M76.1324 161.518C75.4799 161.634 74.8409 161.817 74.2255 162.064C60.5106 167.564 60.7395 203.563 60.7395 203.563H56.7018C56.7018 203.563 55.4305 188.114 49.8901 166.073C44.899 146.243 65.3696 128.47 69.5267 125.1C69.9946 124.725 70.2539 124.526 70.2539 124.526C90.8719 132.134 76.1324 161.518 76.1324 161.518Z" fill="#AFC0E0"/>
<path opacity="0.2" d="M71.7545 125.151C71.2791 124.932 70.7883 124.722 70.2671 124.531C70.2671 124.531 70.0128 124.73 69.5399 125.105C65.3827 128.475 44.9122 146.248 49.9033 166.078C55.4437 188.119 56.7023 203.563 56.7023 203.563H58.9728C58.9728 203.563 57.7142 188.114 52.1612 166.073C47.1904 146.335 67.4626 128.629 71.7545 125.151Z" fill="white"/>
<path d="M144.158 166.078C138.605 188.119 137.354 203.563 137.354 203.563H133.309C133.309 203.563 133.563 165.94 118.884 161.74C118.566 161.644 118.243 161.568 117.916 161.513C117.916 161.513 103.168 132.129 123.794 124.526C123.794 124.526 124.003 124.682 124.379 124.985C128.2 128.057 149.205 146.018 144.158 166.078Z" fill="#AFC0E0"/>
<path opacity="0.1" d="M76.1326 161.518C75.48 161.634 74.841 161.817 74.2256 162.064C71.746 149.879 70.1754 137.525 69.5269 125.105C69.9947 124.73 70.254 124.531 70.254 124.531C90.8721 132.134 76.1326 161.518 76.1326 161.518Z" fill="black"/>
<path opacity="0.1" d="M124.387 124.99C123.546 137.374 121.708 149.669 118.892 161.755C118.574 161.66 118.251 161.584 117.923 161.528C117.923 161.528 103.176 132.144 123.802 124.541C123.794 124.531 124.003 124.687 124.387 124.99Z" fill="black"/>
<path d="M116.838 167.089C115.414 172.73 113.745 178.517 111.831 184.45C111.831 184.45 102.749 193.95 80.8113 184.45C80.8113 184.45 78.6195 178.246 76.2091 167.699C70.9027 144.509 64.5386 100.317 78.0983 54.925C82.1362 41.2792 87.8755 28.2006 95.1796 16C95.1796 16 106.764 29.3554 115.266 54.9173C123.769 80.4792 129.179 118.253 116.838 167.089Z" fill="#E3E8F4"/>
<path d="M97.0228 109.248C107.081 109.248 115.235 101.06 115.235 90.9598C115.235 80.8596 107.081 72.6718 97.0228 72.6718C86.9642 72.6718 78.8101 80.8596 78.8101 90.9598C78.8101 101.06 86.9642 109.248 97.0228 109.248Z" fill="#AFC0E0"/>
<path d="M109.939 90.97C109.939 93.4261 109.245 95.8316 107.936 97.9068C106.628 99.9821 104.76 101.642 102.549 102.692C100.338 103.743 97.876 104.142 95.4483 103.843C93.0206 103.543 90.7274 102.558 88.8356 101.001C87.9122 100.238 87.0977 99.3502 86.415 98.3639C86.1085 97.9232 85.8299 97.4636 85.5811 96.9877C84.6124 95.1311 84.1072 93.066 84.1089 90.97C84.1089 90.8653 84.1089 90.7632 84.1089 90.6611C84.1751 87.8875 85.1243 85.2082 86.8172 83.0157C88.5102 80.8232 90.858 79.2328 93.5166 78.4776C94.5317 78.1967 95.5763 78.0372 96.6287 78.0027H97.0152C98.7118 78.0017 100.392 78.3363 101.96 78.9875C103.528 79.6387 104.952 80.5937 106.153 81.7979C107.353 83.0021 108.305 84.4319 108.955 86.0057C109.604 87.5794 109.939 89.2663 109.939 90.97Z" fill="#5271FF"/>
<path d="M115.264 54.9173C94.5997 64.8515 78.0854 54.9173 78.0854 54.9173C82.128 41.2736 87.8715 28.1976 95.1794 16C95.1794 16 106.764 29.3554 115.264 54.9173Z" fill="#AFC0E0"/>
<path d="M116.838 167.089C115.872 170.908 114.795 174.793 113.609 178.744C113.046 180.628 112.453 182.528 111.829 184.443C111.829 184.443 102.747 193.943 80.809 184.443C80.809 184.443 80.097 182.428 79.0291 178.744C78.2308 175.961 77.2366 172.231 76.1992 167.691C76.1992 167.691 84.3661 171.192 95.9578 171.192C103.119 171.216 110.214 169.822 116.838 167.089V167.089Z" fill="#AFC0E0"/>
<path d="M113.608 178.744C113.046 180.628 112.452 182.528 111.828 184.443C111.828 184.443 102.746 193.943 80.8086 184.443C80.8086 184.443 80.0967 182.428 79.0288 178.744C79.0263 178.744 101.386 185.203 113.608 178.744Z" fill="#E3E8F4"/>
<path opacity="0.2" d="M93.524 78.4597L93.496 78.4801L84.1138 90.6432C84.1138 90.7453 84.1138 90.8474 84.1138 90.9521C84.1121 93.0481 84.6173 95.1132 85.5859 96.9698L96.6412 77.9848L93.524 78.4597Z" fill="white"/>
<path opacity="0.2" d="M96.5194 89.4382L88.8356 100.991C87.9122 100.227 87.0977 99.34 86.415 98.3537L95.5684 88.4884L96.5194 89.4382Z" fill="white"/>
<path opacity="0.2" d="M85.7185 184.445C85.7185 184.445 83.5268 178.238 81.1164 167.694C75.81 144.501 69.4458 100.309 83.0056 54.9173C86.6505 42.6353 91.6703 30.8077 97.9688 19.6612C96.2475 17.2383 95.172 16.0026 95.172 16.0026C87.8667 28.1996 82.1258 41.2748 78.0856 54.9173C64.5259 100.309 70.89 144.501 76.1965 167.694C78.6069 178.238 80.7986 184.445 80.7986 184.445C89.4663 188.196 96.1254 188.982 101.012 188.563C96.8374 188.244 91.7674 187.062 85.7185 184.445Z" fill="white"/>
<path d="M254.238 202.105C254.238 202.105 266.122 187.256 265.334 172.384C264.964 166.149 266.618 159.963 270.048 154.752C271.698 152.287 273.571 149.98 275.641 147.859" stroke="#535461" stroke-width="2" stroke-miterlimit="10"/>
<path d="M275.191 138.494C274.342 140.565 275.613 148.114 275.613 148.114C275.613 148.114 281.81 143.651 282.659 141.581C283.067 140.586 283.064 139.47 282.652 138.477C282.24 137.485 281.452 136.697 280.462 136.288C279.472 135.879 278.36 135.881 277.372 136.295C276.383 136.709 275.599 137.5 275.191 138.494V138.494Z" fill="#5271FF"/>
<path d="M264.314 147.415C264.723 149.615 269.877 155.258 269.877 155.258C269.877 155.258 272.674 148.132 272.255 145.929C272.058 144.871 271.452 143.936 270.569 143.327C269.685 142.719 268.597 142.488 267.544 142.685C266.491 142.882 265.559 143.491 264.954 144.378C264.348 145.265 264.118 146.357 264.314 147.415V147.415Z" fill="#5271FF"/>
<path d="M256.549 167.13C258.008 168.822 265.295 171.082 265.295 171.082C265.295 171.082 264.116 163.517 262.656 161.822C261.948 161.036 260.961 160.56 259.907 160.495C258.853 160.431 257.816 160.784 257.019 161.478C256.221 162.172 255.725 163.152 255.638 164.209C255.551 165.265 255.88 166.314 256.554 167.13H256.549Z" fill="#5271FF"/>
<path d="M254.019 183.375C255.171 185.293 261.972 188.755 261.972 188.755C261.972 188.755 262.084 181.095 260.932 179.181C260.658 178.725 260.297 178.328 259.87 178.012C259.443 177.696 258.958 177.468 258.443 177.341C257.928 177.213 257.393 177.188 256.869 177.269C256.344 177.349 255.841 177.532 255.387 177.807C254.933 178.082 254.538 178.445 254.223 178.874C253.909 179.303 253.682 179.79 253.555 180.307C253.428 180.824 253.403 181.361 253.483 181.887C253.563 182.414 253.745 182.92 254.019 183.375Z" fill="#5271FF"/>
<path d="M277.554 158.901C275.484 159.731 267.978 158.378 267.978 158.378C267.978 158.378 272.484 152.202 274.556 151.369C275.55 150.97 276.662 150.984 277.647 151.408C278.631 151.832 279.407 152.631 279.805 153.63C280.203 154.629 280.189 155.745 279.766 156.734C279.344 157.722 278.548 158.502 277.554 158.901V158.901Z" fill="#5271FF"/>
<path d="M274.355 177.863C272.132 178.034 265.374 174.488 265.374 174.488C265.374 174.488 271.512 169.946 273.737 169.775C274.792 169.716 275.828 170.074 276.623 170.774C277.418 171.473 277.909 172.457 277.99 173.515C278.071 174.573 277.735 175.621 277.056 176.434C276.376 177.247 275.406 177.76 274.355 177.863V177.863Z" fill="#5271FF"/>
<path d="M268.728 195.863C266.564 196.409 259.308 194.06 259.308 194.06C259.308 194.06 264.594 188.543 266.757 187.999C267.272 187.869 267.806 187.842 268.331 187.92C268.855 187.997 269.36 188.178 269.815 188.451C270.27 188.724 270.667 189.085 270.983 189.512C271.3 189.939 271.529 190.425 271.658 190.941C271.788 191.458 271.815 191.995 271.737 192.521C271.66 193.048 271.48 193.555 271.208 194.011C270.936 194.468 270.577 194.867 270.151 195.185C269.726 195.502 269.242 195.733 268.728 195.863V195.863Z" fill="#5271FF"/>
<path opacity="0.25" d="M275.191 138.494C274.342 140.565 275.613 148.114 275.613 148.114C275.613 148.114 281.81 143.651 282.659 141.581C283.067 140.586 283.064 139.47 282.652 138.477C282.24 137.485 281.452 136.697 280.462 136.288C279.472 135.879 278.36 135.881 277.372 136.295C276.383 136.709 275.599 137.5 275.191 138.494V138.494Z" fill="black"/>
<path opacity="0.25" d="M264.314 147.415C264.723 149.615 269.877 155.258 269.877 155.258C269.877 155.258 272.674 148.132 272.255 145.929C272.058 144.871 271.452 143.936 270.569 143.327C269.685 142.719 268.597 142.488 267.544 142.685C266.491 142.882 265.559 143.491 264.954 144.378C264.348 145.265 264.118 146.357 264.314 147.415V147.415Z" fill="black"/>
<path opacity="0.25" d="M256.549 167.13C258.008 168.822 265.295 171.082 265.295 171.082C265.295 171.082 264.116 163.517 262.656 161.822C261.948 161.036 260.961 160.56 259.907 160.495C258.853 160.431 257.816 160.784 257.019 161.478C256.221 162.172 255.725 163.152 255.638 164.209C255.551 165.265 255.88 166.314 256.554 167.13H256.549Z" fill="black"/>
<path opacity="0.25" d="M254.019 183.375C255.171 185.293 261.972 188.755 261.972 188.755C261.972 188.755 262.084 181.095 260.932 179.181C260.658 178.725 260.297 178.328 259.87 178.012C259.443 177.696 258.958 177.468 258.443 177.341C257.928 177.213 257.393 177.188 256.869 177.269C256.344 177.349 255.841 177.532 255.387 177.807C254.933 178.082 254.538 178.445 254.223 178.874C253.909 179.303 253.682 179.79 253.555 180.307C253.428 180.824 253.403 181.361 253.483 181.887C253.563 182.414 253.745 182.92 254.019 183.375Z" fill="black"/>
<path opacity="0.25" d="M277.554 158.901C275.484 159.731 267.978 158.378 267.978 158.378C267.978 158.378 272.484 152.202 274.556 151.369C275.55 150.97 276.662 150.984 277.647 151.408C278.631 151.832 279.407 152.631 279.805 153.63C280.203 154.629 280.189 155.745 279.766 156.734C279.344 157.722 278.548 158.502 277.554 158.901V158.901Z" fill="black"/>
<path opacity="0.25" d="M274.355 177.863C272.132 178.034 265.374 174.488 265.374 174.488C265.374 174.488 271.512 169.946 273.737 169.775C274.792 169.716 275.828 170.074 276.623 170.774C277.418 171.473 277.909 172.457 277.99 173.515C278.071 174.573 277.735 175.621 277.056 176.434C276.376 177.247 275.406 177.76 274.355 177.863V177.863Z" fill="black"/>
<path opacity="0.25" d="M268.728 195.863C266.564 196.409 259.308 194.06 259.308 194.06C259.308 194.06 264.594 188.543 266.757 187.999C267.272 187.869 267.806 187.842 268.331 187.92C268.855 187.997 269.36 188.178 269.815 188.451C270.27 188.724 270.667 189.085 270.983 189.512C271.3 189.939 271.529 190.425 271.658 190.941C271.788 191.458 271.815 191.995 271.737 192.521C271.66 193.048 271.48 193.555 271.208 194.011C270.936 194.468 270.577 194.867 270.151 195.185C269.726 195.502 269.242 195.733 268.728 195.863V195.863Z" fill="black"/>
<path d="M254.344 201.485C254.344 201.485 271.202 192.743 276.483 178.828C278.66 172.977 282.67 167.993 287.909 164.625C290.409 163.045 293.047 161.698 295.791 160.601" stroke="#535461" stroke-width="2" stroke-miterlimit="10"/>
<path d="M299.17 151.852C297.558 153.402 295.674 160.821 295.674 160.821C295.674 160.821 303.139 159.261 304.751 157.714C305.527 156.971 305.977 155.949 306.002 154.873C306.027 153.796 305.625 152.754 304.885 151.976C304.145 151.197 303.127 150.745 302.055 150.72C300.984 150.695 299.946 151.099 299.17 151.842V151.852Z" fill="#5271FF"/>
<path d="M285.629 155.582C285.12 157.762 287.548 165.029 287.548 165.029C287.548 165.029 292.962 159.649 293.485 157.456C293.729 156.411 293.55 155.312 292.988 154.4C292.426 153.488 291.526 152.836 290.487 152.588C289.447 152.34 288.352 152.516 287.442 153.077C286.531 153.638 285.879 154.539 285.629 155.582V155.582Z" fill="#5271FF"/>
<path d="M270.571 170.446C271.222 172.588 276.974 177.618 276.974 177.618C276.974 177.618 278.949 170.214 278.298 168.082C278.144 167.573 277.891 167.099 277.554 166.687C277.217 166.276 276.802 165.936 276.334 165.685C275.866 165.435 275.354 165.279 274.826 165.228C274.298 165.176 273.765 165.229 273.258 165.385C272.75 165.54 272.278 165.794 271.869 166.132C271.459 166.471 271.12 166.887 270.871 167.357C270.621 167.827 270.466 168.342 270.415 168.872C270.364 169.402 270.417 169.937 270.571 170.446V170.446Z" fill="#5271FF"/>
<path d="M261.703 184.269C261.982 186.493 266.803 192.424 266.803 192.424C266.803 192.424 269.996 185.471 269.714 183.248C269.579 182.181 269.028 181.212 268.181 180.553C267.335 179.894 266.262 179.6 265.2 179.736C264.137 179.871 263.172 180.425 262.516 181.275C261.86 182.125 261.568 183.202 261.703 184.269V184.269Z" fill="#5271FF"/>
<path d="M293.096 171.47C290.867 171.388 284.553 167.097 284.553 167.097C284.553 167.097 291.164 163.285 293.394 163.366C293.924 163.386 294.445 163.51 294.927 163.732C295.409 163.954 295.843 164.269 296.204 164.659C296.564 165.049 296.845 165.507 297.03 166.006C297.215 166.505 297.3 167.036 297.28 167.568C297.261 168.1 297.137 168.623 296.916 169.107C296.695 169.591 296.382 170.027 295.993 170.389C295.605 170.751 295.149 171.033 294.652 171.219C294.155 171.404 293.626 171.49 293.096 171.47V171.47Z" fill="#5271FF"/>
<path d="M282.519 187.504C280.416 186.756 275.669 180.764 275.669 180.764C275.669 180.764 283.116 179.112 285.216 179.86C285.716 180.038 286.176 180.313 286.57 180.669C286.964 181.025 287.285 181.456 287.513 181.937C287.741 182.418 287.873 182.939 287.9 183.47C287.928 184.002 287.851 184.534 287.674 185.036C287.497 185.538 287.223 186 286.868 186.396C286.513 186.791 286.084 187.113 285.605 187.342C285.127 187.571 284.608 187.703 284.078 187.731C283.548 187.759 283.019 187.682 282.519 187.504V187.504Z" fill="#5271FF"/>
<path d="M270.109 201.671C267.912 201.291 262.227 196.189 262.227 196.189C262.227 196.189 269.287 193.299 271.484 193.68C272.54 193.863 273.479 194.459 274.097 195.337C274.714 196.216 274.959 197.305 274.777 198.365C274.595 199.424 274.001 200.368 273.126 200.988C272.251 201.608 271.167 201.854 270.111 201.671H270.109Z" fill="#5271FF"/>
<path d="M278.314 193.279L265.247 174.25C265.247 174.25 264.993 169.54 264.149 168.44C263.305 167.339 263.966 164.891 263.966 164.891C263.966 164.891 264.881 163.545 264.088 163.423C263.295 163.3 263.966 160.3 263.966 160.3L263.905 155.528C263.905 155.528 264.637 150.933 264.027 149.84C263.848 149.542 263.759 149.199 263.77 148.852C263.781 148.504 263.891 148.168 264.088 147.882C264.088 147.882 264.82 145.249 264.088 144.578C263.356 143.907 263.539 139.804 263.722 136.561C263.905 133.319 262.438 131.483 262.438 130.993C262.438 130.503 257.607 125.731 257.607 125.304C257.607 124.878 254.556 123.101 252.722 122.611C250.889 122.121 249.974 121.756 250.035 121.511C250.096 121.265 247.164 120.288 247.164 120.288C247.164 120.288 244.599 120.104 243.62 118.817C242.641 117.53 239.656 117.163 239.569 117.15C239.552 117.066 239.531 116.979 239.513 116.894C239.496 116.81 239.475 116.711 239.458 116.619C239.689 116.228 239.903 115.83 240.096 115.419C240.154 115.294 240.21 115.163 240.264 115.046C241.334 114.997 242.432 114.768 243.271 114.109C243.703 113.747 244.055 113.3 244.306 112.795C244.558 112.29 244.703 111.739 244.733 111.175C244.785 110.044 244.539 108.92 244.019 107.915C243.485 106.812 242.699 105.671 242.969 104.476C243.088 103.965 243.396 103.506 243.554 103C243.851 102.043 243.577 100.991 243.114 100.103C242.651 99.2141 242.008 98.4328 241.494 97.5724C240.838 96.476 240.4 95.262 240.205 93.998C240.101 93.3342 240.06 92.6347 239.727 92.05C239.451 91.6161 239.086 91.2462 238.657 90.9649C236.746 89.5929 234.439 88.8904 232.092 88.9658C230.429 89.0245 228.771 89.4764 227.121 89.2696C226.127 89.1471 225.178 88.7922 224.217 88.5037C222.168 87.896 219.806 87.6458 218.021 88.8228C216.236 89.9998 215.527 92.3155 214.319 94.1257C213.251 95.729 211.685 97.072 210.871 98.7673C210.871 98.7366 210.886 98.7034 210.896 98.6702C210.696 99.0626 210.544 99.4774 210.441 99.906C210.131 101.239 210.39 102.633 210.713 103.963C210.879 104.65 211.107 105.395 211.7 105.776C212.292 106.156 213.131 106.072 213.833 106.197C213.808 106.312 213.777 106.429 213.752 106.547C213.025 109.994 213.618 113.59 215.413 116.618C217.208 119.646 220.072 121.884 223.437 122.887C223.437 123.012 223.437 123.142 223.437 123.259C223.435 123.611 223.414 123.962 223.373 124.311V124.311C223.373 124.311 217.233 123.035 215.582 123.903C213.932 124.771 210.696 125.435 210.207 125.92C209.719 126.405 208.499 126.042 207.411 128.92C206.322 131.797 206.19 134.731 204.784 136.068C203.378 137.406 202.648 138.333 202.587 139.313C202.526 140.294 202.77 140.536 202.218 140.845C201.667 141.154 200.876 142.436 201.12 142.926C201.12 142.926 201.425 144.149 200.449 144.759C199.472 145.37 199.592 146.595 199.592 146.595C199.592 146.595 199.226 147.943 198.372 148.247C197.517 148.551 196.965 150.573 196.965 150.573L194.186 153.777L188.697 147.675C188.286 147.218 187.711 146.943 187.098 146.911C186.485 146.88 185.885 147.094 185.43 147.506L182.734 149.947C181.694 150.201 180.754 150.763 180.037 151.561C179.449 152.166 178.976 152.874 178.641 153.649L177.164 154.982C176.699 155.56 176.416 156.263 176.348 157.003C176.281 157.742 176.433 158.485 176.785 159.139L180.301 163.042L180.324 163.075C178.994 163.244 177.82 163.673 176.922 164.467C171.672 169.116 171.608 173.403 172.404 175.356C173.2 177.309 179.854 184.841 179.854 184.841C179.854 184.841 183.721 189.888 189.305 192.574L189.261 192.618C189.152 192.735 189.043 192.873 188.936 193.001L188.844 193.118L188.76 193.236L188.661 193.384C188.633 193.422 188.608 193.463 188.582 193.504C188.557 193.544 188.511 193.618 188.478 193.68L188.41 193.797C188.369 193.874 188.326 193.953 188.285 194.035L188.244 194.114C188.193 194.221 188.143 194.331 188.094 194.446C188.076 194.487 188.061 194.53 188.043 194.571C188.013 194.65 187.98 194.732 187.949 194.826C187.919 194.921 187.911 194.931 187.893 194.984C187.876 195.038 187.84 195.143 187.815 195.224C187.789 195.306 187.779 195.339 187.764 195.395C187.748 195.452 187.713 195.574 187.69 195.666C187.667 195.758 187.662 195.773 187.647 195.832C187.614 195.972 187.581 196.118 187.553 196.271C187.553 196.327 187.532 196.386 187.522 196.445C187.502 196.547 187.484 196.652 187.469 196.759C187.456 196.833 187.448 196.907 187.438 196.981C187.428 197.055 187.413 197.183 187.4 197.285L187.377 197.52C187.377 197.632 187.357 197.749 187.349 197.867C187.349 197.938 187.349 198.01 187.337 198.081C187.337 198.275 187.316 198.469 187.314 198.674C187.192 205.822 187.609 206.872 187.609 206.872C187.609 206.872 188.471 209.152 190.85 209.315C191.2 209.341 191.551 209.322 191.895 209.259C195.071 208.707 202.521 207.423 205.148 207.913C206.727 208.207 209.651 207.773 211.733 207.377L212.28 207.273L212.661 208.488L213.869 208.156L214.886 208.751L215.534 209.124C216.739 213.229 221.636 211.83 221.636 211.83L222.786 212.499L234.573 212.805C234.573 212.805 237.116 214.337 238.746 214.817C238.939 214.876 239.137 214.92 239.338 214.947C240.431 215.035 241.528 215.056 242.623 215.009C243.526 214.986 244.225 214.947 244.225 214.947C244.225 214.947 244.105 211.733 243.933 208.136C248.438 207.947 252.432 207.663 254.851 207.237C261.146 206.126 263.773 200.379 264.739 197.308C265.029 198.563 265.236 199.837 265.357 201.12C265.613 202.24 265.94 203.344 266.336 204.423C266.679 205.292 267.13 206.114 267.678 206.869C272.321 205.279 269.511 202.894 268.532 201.852C267.553 200.811 269.206 199.955 269.206 199.955C269.206 199.955 270.477 199.1 270.366 198.303C270.254 197.507 270.182 196.652 274.335 196.713C278.487 196.774 278.314 193.279 278.314 193.279ZM213.818 154.216C213.871 154.566 214.451 158.337 214.975 159.322C215.084 159.532 215.127 160.275 215.112 161.337C212.651 161.14 210.088 161.035 210.088 161.035C210.162 161.125 210.208 161.234 210.22 161.35L209.834 161.263L209.272 161.125L213.805 154.201L213.818 154.216ZM204.837 168.565L209.096 169.244L209.455 169.3C209.333 169.967 209.259 170.642 209.234 171.319C209.234 171.383 209.33 171.46 209.467 171.549C209.408 171.886 209.38 172.228 209.384 172.571C209.452 172.91 211.443 173.64 213.726 174.248C213.696 174.37 213.665 174.488 213.635 174.598C211.619 173.533 208.44 173.035 208.074 172.244C207.708 171.452 196.887 167.648 196.887 167.648C196.887 167.648 196.493 167.439 195.811 167.107L198.659 167.648L199.442 167.569C201.217 168.015 203.02 168.346 204.837 168.56V168.565Z" fill="url(#paint0_linear)"/>
<path d="M264.411 195.942C264.411 195.942 262.717 206.213 254.121 207.732C245.524 209.251 216.831 208.947 216.831 208.947C216.831 208.947 200.426 206.578 194.494 192.658C188.562 178.739 184.748 173.206 189.833 172.964C194.919 172.721 222.341 182.265 223.904 182.385C225.468 182.505 265.924 161.232 264.411 195.942Z" fill="#434175"/>
<path opacity="0.05" d="M264.411 195.942C264.411 195.942 262.717 206.213 254.121 207.732C245.524 209.251 216.831 208.947 216.831 208.947C216.831 208.947 200.426 206.578 194.494 192.658C188.562 178.739 184.748 173.206 189.833 172.964C194.919 172.721 222.341 182.265 223.904 182.385C225.468 182.505 265.924 161.232 264.411 195.942Z" fill="black"/>
<path d="M187.461 207.367C187.461 207.367 188.318 209.634 190.675 209.795C191.021 209.82 191.368 209.801 191.71 209.739C194.857 209.193 202.244 207.916 204.845 208.401C206.411 208.695 209.307 208.261 211.369 207.87C212.742 207.615 213.744 207.359 213.744 207.359C213.744 207.359 211.323 199.276 211.018 199.034C210.713 198.791 200.123 192.408 200.123 192.408L191.732 191.803H191.707C191.707 191.803 190.154 191.908 188.864 193.481C187.977 194.555 187.217 196.322 187.166 199.217C187.049 206.333 187.461 207.367 187.461 207.367Z" fill="#565387"/>
<path opacity="0.05" d="M187.461 207.367C187.461 207.367 188.318 209.634 190.675 209.795C189.848 208.728 189.084 207.613 188.387 206.456L188.43 200.56C188.056 196.146 190.113 193.32 191.735 191.811H191.71C191.71 191.811 187.291 192.112 187.169 199.215C187.047 206.318 187.461 207.367 187.461 207.367Z" fill="black"/>
<path opacity="0.1" d="M223.854 194.481L231.662 188.354L243.95 176.196C243.95 176.196 242.623 176.132 240.622 176.045C240.114 176.364 238.728 177.368 238.677 178.598C238.616 180.084 235.354 178.701 233.661 179.551C231.967 180.401 223.673 191.06 222.219 190.991C220.764 190.922 219.618 190.251 219.01 191.285C219.01 191.308 218.982 191.328 218.967 191.351L223.854 194.481Z" fill="black"/>
<path opacity="0.1" d="M188.867 193.486C189.144 193.621 189.424 193.741 189.711 193.874C195.646 196.427 202.969 201.789 203.515 202.748C203.846 203.341 208.092 205.93 211.369 207.87C212.742 207.615 213.744 207.359 213.744 207.359C213.744 207.359 211.324 199.276 211.018 199.034C210.713 198.791 200.123 192.408 200.123 192.408L191.733 191.803H191.707C191.707 191.803 190.156 191.913 188.867 193.486Z" fill="black"/>
<path d="M172.401 176.063C173.186 178.009 179.774 185.487 179.774 185.487C179.774 185.487 183.949 190.956 189.884 193.509C195.818 196.062 203.141 201.423 203.685 202.383C204.036 203.009 208.77 205.868 212.096 207.834L212.841 208.271L214.494 209.233L215.368 209.744C215.368 209.744 217.402 208.11 219.414 206.466C221.425 204.822 223.388 203.211 223.421 203.119C223.479 202.937 224.265 200.869 224.084 200.749C223.99 200.685 223.576 199.843 222.813 198.868C221.999 197.785 220.942 196.911 219.729 196.315C216.932 195.038 215.735 192.133 215.735 192.133C215.735 192.133 215.48 191.938 215.066 191.683C214.349 191.229 213.197 190.575 212.345 190.465C211.01 190.297 208.531 187.562 208.531 187.562C208.531 187.562 206.835 186.467 206.169 185.071C205.534 183.738 196.146 177.263 195.277 176.666L218.036 191.341L223.482 194.857L231.29 188.729L243.581 176.571C243.581 176.571 241.929 176.49 239.513 176.387C233.54 176.132 222.933 175.721 221.593 176.025C220.502 176.28 219.377 176.353 218.262 176.242C218.262 176.242 215.241 176.38 213.243 175.32C211.244 174.261 208.094 173.765 207.73 172.982C207.367 172.198 196.652 168.424 196.652 168.424C196.652 168.424 182.065 160.645 176.858 165.266C171.651 169.887 171.613 174.12 172.401 176.063Z" fill="#434175"/>
<path d="M219.434 131.45L221.311 137.71L223.731 151.811L232.63 152.419L235.206 148.129L237.787 143.848C237.787 143.848 239.389 138.149 240.54 132.637C241.557 127.761 242.224 123.027 241.115 122.514C240.134 122.057 239.488 120.415 239.081 118.648C239.027 118.431 238.979 118.209 238.933 117.987C238.637 116.491 238.44 114.977 238.343 113.455C238.343 113.455 219.699 112.485 222.302 120.203C222.767 121.522 223.004 122.91 223.004 124.309C223.001 124.658 222.98 125.006 222.94 125.353C222.808 126.558 222.428 127.721 221.824 128.771C221.221 129.82 220.407 130.733 219.434 131.45V131.45Z" fill="#EE8E9E"/>
<path d="M215.56 130.416L216.226 141.052L217.739 150.108L219.435 154.303L220.947 177.25C220.947 177.25 235.544 178.946 239.094 177.22C239.35 177.11 239.572 176.934 239.737 176.709C244.024 170.217 242.618 151.385 242.618 151.385L244.253 139.224L243.162 132.913L240.531 132.632L238.496 132.415C238.496 132.415 238.039 132.982 237.378 133.857C235.583 136.237 232.292 140.917 232.504 142.87C232.804 145.546 232.14 148.28 231.11 148.706C230.08 149.133 229.234 149.86 229.053 149.133C228.873 148.405 228.69 148.221 228.87 147.187C229.051 146.153 228.082 142.993 228.082 142.993C228.082 142.993 226.45 139.285 226.556 137.705C226.663 136.125 226.376 134.299 225.89 133.875C225.405 133.452 224.741 133.023 225.285 131.067C225.829 129.111 222.898 125.335 222.898 125.335L215.56 130.416Z" fill="#E3E8F4"/>
<path opacity="0.1" d="M234.84 156.981L235.445 175.157L238.941 177.102C239.197 176.992 239.419 176.816 239.584 176.592C243.874 170.089 242.468 151.259 242.468 151.259L244.103 139.102L243.012 132.793L240.378 132.512C241.395 127.635 242.061 122.902 240.955 122.389C239.971 121.932 239.325 120.29 238.905 118.523L237.024 131.391C237.024 131.391 237.182 132.55 237.237 133.745C237.281 134.634 237.265 135.532 237.085 136.01C236.66 137.105 236.963 139.05 236.963 139.05C235.872 140.981 235.328 144.558 235.061 148.012C234.703 152.605 234.84 156.981 234.84 156.981Z" fill="black"/>
<path d="M238.964 118.242C238.964 118.242 242.015 118.623 242.981 119.899C243.948 121.176 246.493 121.352 246.493 121.352C246.493 121.352 249.399 122.325 249.338 122.567C249.277 122.81 250.185 123.178 252.003 123.663C253.821 124.148 256.834 125.912 256.834 126.338C256.834 126.765 261.616 131.503 261.616 131.991C261.616 132.479 263.071 134.289 262.888 137.521C262.705 140.753 262.524 144.815 263.251 145.484C263.978 146.153 263.251 148.768 263.251 148.768C263.058 149.054 262.952 149.389 262.945 149.735C262.939 150.08 263.032 150.42 263.213 150.713C263.818 151.808 263.094 156.368 263.094 156.368L263.152 161.109C263.152 161.109 262.486 164.086 263.274 164.209C264.062 164.332 263.152 165.667 263.152 165.667C263.152 165.667 262.486 168.1 263.335 169.193C264.184 170.285 264.423 174.968 264.423 174.968L277.391 193.861C277.391 193.861 277.574 197.326 273.457 197.264C269.341 197.203 269.389 198.056 269.521 198.845C269.653 199.634 268.372 200.486 268.372 200.486C268.372 200.486 266.737 201.337 267.706 202.371C268.675 203.405 271.459 205.774 266.859 207.354C266.315 206.604 265.867 205.787 265.527 204.924C265.136 203.851 264.813 202.756 264.558 201.643C264.558 201.643 264.133 197.022 263.287 196.414C262.44 195.806 262.56 192.888 262.56 192.888C262.56 192.888 263.77 190.519 262.076 189.546C260.383 188.573 235.778 174.909 235.778 174.909L235.173 156.733C235.173 156.733 234.748 143.301 237.291 138.803C237.291 138.803 236.989 136.857 237.413 135.765C237.838 134.672 237.352 131.143 237.352 131.143L238.964 118.242Z" fill="#565387"/>
<path opacity="0.1" d="M223.098 125.534C223.098 125.534 217.014 124.276 215.379 125.126C213.744 125.976 210.548 126.658 210.04 127.133C209.531 127.607 208.344 127.255 207.255 130.112C206.167 132.969 206.043 135.885 204.652 137.222C203.261 138.56 202.534 139.472 202.473 140.445C202.412 141.417 202.653 141.66 202.109 141.976C201.565 142.293 200.777 143.557 201.018 144.044C201.26 144.532 213.632 155.214 213.632 155.214C213.632 155.214 214.24 159.299 214.784 160.321C215.328 161.342 214.179 175.578 212.969 176.551C211.758 177.524 221.141 177.434 221.141 177.434C221.141 177.434 221.563 168.103 221.926 167.615C222.29 167.127 221.672 157.147 221.672 157.147C221.672 157.147 221.611 148.637 222.399 146.388C223.187 144.139 223.098 136.671 223.098 136.671C223.098 136.671 223.795 132.185 224.642 131.138C225.489 130.092 223.098 125.534 223.098 125.534Z" fill="black"/>
<path d="M222.918 125.353C222.918 125.353 216.831 124.094 215.196 124.944C213.561 125.795 210.365 126.464 209.869 126.951C209.373 127.439 208.176 127.071 207.072 129.928C205.969 132.785 205.862 135.703 204.469 137.041C203.075 138.379 202.351 139.29 202.29 140.263C202.229 141.236 202.473 141.479 201.929 141.782C201.384 142.086 200.596 143.363 200.838 143.848C201.079 144.333 213.429 155.033 213.429 155.033C213.429 155.033 214.034 159.118 214.578 160.139C215.122 161.161 213.973 175.394 212.763 176.367C211.552 177.34 220.935 177.25 220.935 177.25C220.935 177.25 221.359 167.919 221.723 167.434C222.086 166.948 221.469 156.966 221.469 156.966C221.469 156.966 221.41 148.456 222.196 146.207C222.981 143.958 222.895 136.479 222.895 136.479C222.895 136.479 223.592 131.994 224.436 130.949C225.28 129.905 222.918 125.353 222.918 125.353Z" fill="#565387"/>
<path opacity="0.1" d="M222.277 120.203C222.741 121.522 222.979 122.91 222.979 124.309C225.955 125.194 229.142 125.053 232.029 123.907C234.916 122.761 237.338 120.677 238.908 117.987C238.611 116.491 238.414 114.977 238.318 113.455C238.318 113.455 219.676 112.485 222.277 120.203Z" fill="black"/>
<path d="M213.078 110.598C213.081 114.164 214.447 117.593 216.893 120.177C219.34 122.761 222.681 124.304 226.227 124.487C229.773 124.671 233.255 123.481 235.953 121.162C238.651 118.844 240.36 115.575 240.728 112.028C241.096 108.482 240.094 104.929 237.93 102.102C235.765 99.275 232.603 97.3901 229.095 96.8357C225.587 96.2814 222.001 97.0999 219.077 99.1224C216.152 101.145 214.112 104.217 213.378 107.706C213.177 108.657 213.077 109.626 213.078 110.598Z" fill="#EE8E9E"/>
<path d="M204.179 142.814L200.85 143.848C200.85 143.848 201.153 145.063 200.184 145.671C199.215 146.278 199.337 147.496 199.337 147.496C199.337 147.496 198.974 148.832 198.127 149.135C197.281 149.439 196.734 151.433 196.734 151.433L193.95 154.655C193.95 154.655 192.92 155.505 193.103 155.932C193.286 156.358 192.012 156.478 192.012 156.478L192.678 167.308L198.43 168.404L201.989 168.039L204.896 166.943L207.438 165.412L208.598 162.458L213.683 154.678L204.179 142.814Z" fill="#565387"/>
<path d="M192.859 157.351C192.859 157.351 185.486 146.651 179.966 152.426C174.446 158.202 182.206 167.561 184.021 167.257C185.836 166.954 194.494 166.469 194.494 166.469L192.859 157.351Z" fill="#EE8E9E"/>
<path d="M184.42 149.896L177.589 156.083C176.273 157.275 176.169 159.312 177.356 160.633L184.944 169.081C186.131 170.403 188.16 170.508 189.476 169.316L196.307 163.129C197.623 161.937 197.727 159.9 196.541 158.578L188.952 150.13C187.765 148.809 185.736 148.704 184.42 149.896Z" fill="#30374E"/>
<path opacity="0.1" d="M184.42 149.896L177.589 156.083C176.273 157.275 176.169 159.312 177.356 160.633L184.944 169.081C186.131 170.403 188.16 170.508 189.476 169.316L196.307 163.129C197.623 161.937 197.727 159.9 196.541 158.578L188.952 150.13C187.765 148.809 185.736 148.704 184.42 149.896Z" fill="black"/>
<path d="M184.628 149.015L177.797 155.202C176.481 156.394 176.377 158.431 177.564 159.752L185.152 168.2C186.339 169.522 188.368 169.627 189.684 168.435L196.515 162.248C197.831 161.056 197.936 159.019 196.749 157.697L189.16 149.249C187.973 147.928 185.944 147.823 184.628 149.015Z" fill="#30374E"/>
<path d="M186.963 162.629C188.868 162.629 190.413 161.077 190.413 159.164C190.413 157.251 188.868 155.699 186.963 155.699C185.057 155.699 183.512 157.251 183.512 159.164C183.512 161.077 185.057 162.629 186.963 162.629Z" fill="#5271FF"/>
<path opacity="0.1" d="M186.963 162.629C188.868 162.629 190.413 161.077 190.413 159.164C190.413 157.251 188.868 155.699 186.963 155.699C185.057 155.699 183.512 157.251 183.512 159.164C183.512 161.077 185.057 162.629 186.963 162.629Z" fill="black"/>
<path d="M187.156 162.189C189.061 162.189 190.606 160.638 190.606 158.725C190.606 156.811 189.061 155.26 187.156 155.26C185.25 155.26 183.706 156.811 183.706 158.725C183.706 160.638 185.25 162.189 187.156 162.189Z" fill="#5271FF"/>
<path d="M188.079 159.59C188.018 167.615 204.545 169.315 204.545 169.315L208.765 169.989L210.657 170.291L211.445 162.458C211.445 162.458 210.578 162.327 209.495 162.075C207.896 161.699 205.824 161.053 205.389 160.147C204.664 158.628 188.137 151.568 188.079 159.59Z" fill="#EE8E9E"/>
<path opacity="0.1" d="M213.377 107.706C213.759 107.734 214.118 107.895 214.394 108.16C214.862 108.658 214.888 109.541 215.495 109.848C215.723 109.947 215.974 109.976 216.218 109.932C217.827 109.702 218.76 107.89 220.304 107.379C221.183 107.093 222.152 107.279 223.011 107.611C223.357 107.72 223.667 107.92 223.909 108.191C224.417 108.862 224.064 109.85 224.303 110.665C224.636 111.793 225.979 112.243 227.141 112.391C228.303 112.539 229.612 112.621 230.388 113.501C230.937 114.127 231.077 115.033 230.965 115.853C230.896 116.139 230.896 116.437 230.965 116.723C231.285 117.635 232.856 117.489 233.266 116.78C233.566 116.256 233.474 115.822 234.181 115.677C234.659 115.577 235.221 115.779 235.663 115.932C236.896 116.359 238.195 116.559 239.498 116.524C240.322 114.748 240.763 112.818 240.793 110.859C240.823 108.9 240.441 106.957 239.672 105.156C238.903 103.356 237.764 101.739 236.329 100.41C234.895 99.0822 233.198 98.0729 231.348 97.4486C229.499 96.8242 227.539 96.5988 225.597 96.7871C223.655 96.9754 221.775 97.5732 220.078 98.5413C218.382 99.5094 216.908 100.826 215.754 102.405C214.599 103.985 213.789 105.791 213.377 107.706V107.706Z" fill="black"/>
<path d="M230.957 116.356C230.889 116.07 230.889 115.771 230.957 115.485C231.067 114.66 230.929 113.757 230.38 113.134C229.617 112.253 228.295 112.169 227.133 112.023C225.971 111.878 224.629 111.428 224.296 110.3C224.057 109.485 224.418 108.495 223.902 107.823C223.661 107.553 223.352 107.353 223.007 107.246C222.145 106.912 221.176 106.736 220.296 107.011C218.753 107.522 217.82 109.34 216.21 109.564C215.967 109.609 215.715 109.579 215.488 109.48C214.88 109.174 214.855 108.29 214.387 107.795C213.652 107.014 212.256 107.517 211.356 106.937C210.769 106.557 210.543 105.819 210.38 105.137C210.06 103.815 209.803 102.428 210.111 101.106C210.637 98.8439 212.653 97.2941 213.924 95.364C215.122 93.564 215.793 91.279 217.593 90.0943C219.394 88.9097 221.705 89.1726 223.734 89.7777C224.685 90.0611 225.626 90.4134 226.61 90.5437C228.247 90.7454 229.889 90.2883 231.537 90.2424C233.864 90.1669 236.151 90.8642 238.044 92.2262C238.47 92.5066 238.832 92.8747 239.106 93.3061C239.434 93.8883 239.478 94.5827 239.577 95.2414C239.769 96.4979 240.201 97.7054 240.848 98.7979C241.357 99.6532 241.995 100.429 242.455 101.313C242.915 102.196 243.185 103.24 242.89 104.19C242.735 104.701 242.427 105.142 242.313 105.656C242.043 106.843 242.821 107.976 243.353 109.072C243.867 110.071 244.111 111.188 244.059 112.312C244.03 112.871 243.886 113.418 243.636 113.919C243.387 114.421 243.038 114.865 242.61 115.225C241.753 115.899 240.627 116.123 239.541 116.159C238.213 116.204 236.887 116.004 235.631 115.569C235.186 115.416 234.614 115.215 234.148 115.314C233.442 115.46 233.533 115.894 233.233 116.417C232.847 117.132 231.278 117.267 230.957 116.356Z" fill="#434175"/>
<path opacity="0.1" d="M223.49 194.846L231.298 188.719L243.589 176.561C243.589 176.561 241.936 176.479 239.521 176.377C239.081 176.827 238.689 177.398 238.664 178.037C238.603 179.523 235.341 178.141 233.647 178.992C231.954 179.842 223.66 190.499 222.206 190.43C220.751 190.361 219.605 189.689 218.997 190.723C218.984 190.747 218.97 190.77 218.954 190.792C218.712 191.069 218.389 191.261 218.031 191.341L223.49 194.846Z" fill="black"/>
<path d="M207.751 194.42L211.674 206.997L212.29 208.973L214.158 208.462L218.277 207.326L236.625 202.266C236.625 202.266 240.073 202.22 243.236 200.497C246.732 198.587 250.675 197.627 254.637 198C257.062 198.227 259.76 197.177 262.01 193.026C262.01 193.026 267.095 177.963 254.26 173.622C241.425 169.282 240.815 175.92 240.815 175.92C240.815 175.92 240.749 175.956 240.642 176.027C240.134 176.347 238.748 177.35 238.697 178.581C238.636 180.066 235.374 178.683 233.681 179.533C231.987 180.383 223.693 191.042 222.239 190.973C220.784 190.904 219.638 190.233 219.03 191.267C219.03 191.29 219.002 191.31 218.987 191.333C218.539 191.954 217.192 192.099 216.299 192.122C215.814 192.138 215.46 192.122 215.46 192.122L215.346 192.158L214.395 192.424L207.751 194.42Z" fill="#434175"/>
<path opacity="0.1" d="M208.766 169.989L210.657 170.291L211.446 162.458C211.446 162.458 210.579 162.327 209.495 162.075C209.783 163.16 209.132 167.39 208.766 169.989Z" fill="black"/>
<path opacity="0.1" d="M258.265 133.352C258.265 133.352 263.894 131.71 262.501 147.759C261.108 163.808 250.698 173.947 250.698 173.947C250.698 173.947 238.712 179.234 233.325 178.384C227.937 177.534 224.003 177.363 224.003 177.363C222.308 176.502 220.452 176.005 218.555 175.905C215.526 175.782 209.172 173.898 209.05 173.29C208.928 172.683 210.624 163.747 209.897 163.078C209.897 163.078 218.371 163.428 219.221 164.043C220.07 164.658 221.278 164.217 222.185 164.043C223.093 163.869 225.88 161.436 231.387 163.566C231.387 163.566 233.264 163.747 233.991 163.262C234.718 162.777 235.882 163.139 235.882 163.139C235.882 163.139 237.024 162.713 237.2 162.458C237.375 162.202 238.832 162.458 238.832 162.458C238.918 162.5 239.013 162.522 239.11 162.523C239.206 162.524 239.301 162.503 239.388 162.463C239.476 162.422 239.553 162.362 239.614 162.287C239.675 162.212 239.719 162.125 239.742 162.031C239.932 161.534 240.22 161.079 240.589 160.696C240.589 160.696 242.224 151.456 245.31 147.992C245.31 147.992 246.218 147.2 245.977 146.227C245.735 145.255 251.008 131.404 258.265 133.352Z" fill="black"/>
<path d="M258.128 132.116C258.128 132.116 263.757 130.475 262.366 146.523C260.976 162.572 250.548 172.721 250.548 172.721C250.548 172.721 238.562 178.009 233.175 177.158C227.787 176.308 223.853 176.124 223.853 176.124C222.158 175.263 220.302 174.767 218.405 174.667C215.379 174.544 209.022 172.66 208.9 172.052C208.778 171.445 210.474 162.509 209.75 161.84C209.75 161.84 218.224 162.189 219.071 162.805C219.917 163.42 221.13 162.978 222.038 162.805C222.946 162.631 225.73 160.201 231.24 162.327C231.24 162.327 233.116 162.509 233.841 162.024C234.565 161.538 235.735 161.901 235.735 161.901C235.735 161.901 236.869 161.475 237.05 161.232C237.23 160.99 238.685 161.232 238.685 161.232C238.771 161.275 238.865 161.297 238.961 161.298C239.057 161.299 239.152 161.279 239.239 161.238C239.326 161.197 239.403 161.138 239.464 161.063C239.525 160.989 239.569 160.902 239.592 160.808C239.782 160.31 240.07 159.855 240.439 159.47C240.439 159.47 242.074 150.231 245.161 146.766C245.161 146.766 246.068 145.975 245.827 145.004C245.585 144.034 250.851 130.171 258.128 132.116Z" fill="#565387"/>
<path opacity="0.1" d="M214.395 192.424L222.389 202.125C222.419 202.097 222.439 202.077 222.439 202.069C222.5 201.886 223.286 199.82 223.106 199.697C222.925 199.575 221.532 196.537 218.747 195.26C217.046 194.494 215.933 193.093 215.325 192.133L214.395 192.424Z" fill="black"/>
<path opacity="0.1" d="M214.504 209.233L215.379 209.744C215.379 209.744 217.413 208.11 219.424 206.466C221.436 204.822 223.398 203.211 223.432 203.119C223.49 202.937 224.276 200.869 224.095 200.749C224.001 200.685 223.587 199.843 222.824 198.868C217.403 197.336 220.853 201.122 221.314 201.296C221.314 201.296 214.703 199.764 214.352 206.992C214.304 207.742 214.355 208.496 214.504 209.233V209.233Z" fill="black"/>
<path d="M221.189 212.292L222.341 212.961L234.037 213.265C234.037 213.265 236.544 214.797 238.171 215.261C238.363 215.321 238.559 215.365 238.758 215.392C239.841 215.48 240.928 215.5 242.013 215.453C242.908 215.43 243.602 215.392 243.602 215.392C243.602 215.392 243.048 200.583 242.631 199.052C242.432 198.306 241.453 198.469 240.487 198.842C239.761 199.138 239.061 199.494 238.395 199.907C238.395 199.907 233.431 200.389 232.643 200.818C231.855 201.247 229.617 200.563 228.224 200.818C226.831 201.074 224.352 199.171 224.352 199.171C217.571 196.925 221.384 201.117 221.868 201.301C221.868 201.301 215.272 199.769 214.908 206.997C214.545 214.225 221.189 212.292 221.189 212.292Z" fill="#565387"/>
<path d="M238.079 206.578C238.206 209.642 240.584 213.444 242 215.453C242.895 215.43 243.589 215.392 243.589 215.392C243.589 215.392 243.035 200.583 242.618 199.052C242.419 198.306 241.441 198.469 240.474 198.842C239.312 201.038 237.977 204.109 238.079 206.578Z" fill="#565387"/>
<path opacity="0.1" d="M238.079 206.578C238.206 209.642 240.584 213.444 242 215.453C242.895 215.43 243.589 215.392 243.589 215.392C243.589 215.392 243.035 200.583 242.618 199.052C242.419 198.306 241.441 198.469 240.474 198.842C239.312 201.038 237.977 204.109 238.079 206.578Z" fill="black"/>
<path opacity="0.05" d="M236.081 206.984C236.884 209.941 236.876 213.257 238.158 215.261C238.35 215.321 238.546 215.365 238.745 215.392C239.828 215.48 240.915 215.5 242 215.453C242.895 215.43 243.589 215.392 243.589 215.392C243.589 215.392 243.035 200.583 242.618 199.052C242.419 198.306 241.44 198.469 240.474 198.842C239.748 199.138 239.048 199.494 238.382 199.907C238.382 199.907 235.053 203.2 236.081 206.984Z" fill="black"/>
<path opacity="0.1" d="M195.775 176.995C195.775 176.995 201.578 178.887 206.495 185.607L195.775 176.995Z" fill="black"/>
<g opacity="0.1">
<path opacity="0.1" d="M242.93 104.057C242.921 104.101 242.909 104.143 242.895 104.185C242.839 104.36 242.772 104.53 242.694 104.696C242.754 104.476 242.833 104.263 242.93 104.057V104.057Z" fill="black"/>
<path opacity="0.1" d="M210.1 101.108C210.201 100.683 210.352 100.27 210.55 99.8804C210.52 99.9851 210.487 100.09 210.461 100.197C210.154 101.52 210.41 102.906 210.731 104.228C210.896 104.91 211.12 105.648 211.707 106.028C212.61 106.608 213.996 106.102 214.738 106.884C215.206 107.382 215.231 108.265 215.841 108.571C216.068 108.671 216.32 108.7 216.564 108.656C218.17 108.426 219.106 106.613 220.65 106.102C221.529 105.816 222.495 106.003 223.357 106.337C223.702 106.444 224.012 106.644 224.252 106.914C224.761 107.586 224.408 108.576 224.647 109.388C224.98 110.517 226.322 110.966 227.484 111.112C228.646 111.257 229.955 111.341 230.731 112.225C231.28 112.848 231.42 113.757 231.308 114.576C231.241 114.862 231.241 115.161 231.308 115.447C231.629 116.358 233.2 116.213 233.596 115.503C233.897 114.98 233.808 114.546 234.514 114.4C234.99 114.3 235.552 114.502 235.994 114.655C237.251 115.09 238.576 115.29 239.905 115.245C240.99 115.207 242.119 114.99 242.974 114.311C243.364 113.998 243.685 113.607 243.914 113.162C243.715 113.972 243.26 114.696 242.618 115.225C241.763 115.899 240.637 116.123 239.549 116.159C238.221 116.204 236.896 116.004 235.641 115.569C235.196 115.416 234.624 115.215 234.158 115.314C233.452 115.46 233.541 115.894 233.243 116.417C232.831 117.137 231.262 117.272 230.939 116.361C230.872 116.075 230.872 115.777 230.939 115.49C231.051 114.666 230.914 113.762 230.365 113.139C229.587 112.258 228.277 112.174 227.115 112.028C225.953 111.883 224.611 111.433 224.28 110.305C224.039 109.49 224.402 108.5 223.886 107.828C223.644 107.558 223.334 107.359 222.989 107.251C222.127 106.917 221.161 106.741 220.281 107.016C218.735 107.527 217.802 109.345 216.195 109.57C215.951 109.614 215.7 109.585 215.473 109.485C214.863 109.179 214.837 108.296 214.369 107.8C213.634 107.019 212.241 107.522 211.341 106.942C210.751 106.562 210.527 105.824 210.362 105.142C210.047 103.817 209.79 102.431 210.1 101.108Z" fill="black"/>
</g>
<path opacity="0.1" d="M243.869 149.758C242.76 151.262 241.494 152.654 240.513 154.244C239.531 155.835 238.837 157.691 239.043 159.55C240.06 158.503 240.523 157.058 241.164 155.745C242.247 153.524 243.869 151.64 245.232 149.597C245.486 149.207 247.167 146.955 246.32 146.848C245.623 146.758 244.248 149.245 243.869 149.758Z" fill="black"/>
<defs>
<linearGradient id="paint0_linear" x1="225.173" y1="215.021" x2="225.173" y2="87.9905" gradientUnits="userSpaceOnUse">
<stop stop-color="#808080" stop-opacity="0.25"/>
<stop offset="0.54" stop-color="#808080" stop-opacity="0.12"/>
<stop offset="1" stop-color="#808080" stop-opacity="0.1"/>
</linearGradient>
</defs>
</svg>
