<svg width="322" height="234" viewBox="0 0 322 234" fill="none" xmlns="http://www.w3.org/2000/svg">
<path d="M269.943 214.5C292.618 214.5 311 212.678 311 210.431C311 208.183 292.618 206.362 269.943 206.362C247.268 206.362 228.886 208.183 228.886 210.431C228.886 212.678 247.268 214.5 269.943 214.5Z" fill="#E6E6E6"/>
<path d="M36.4287 210.589C44.5496 210.589 51.1328 209.678 51.1328 208.555C51.1328 207.431 44.5496 206.52 36.4287 206.52C28.3079 206.52 21.7246 207.431 21.7246 208.555C21.7246 209.678 28.3079 210.589 36.4287 210.589Z" fill="#E6E6E6"/>
<path d="M203.461 19H11V115.558H203.461V19Z" fill="#E6E6E6"/>
<path d="M194.623 26.8555H19.8374V107.702H194.623V26.8555Z" fill="white"/>
<path d="M20.0688 107.934L19.606 107.471L43.0768 84.0003L50.4416 91.3648L63.3703 78.4357L79.2451 94.3105L106.249 67.3069L118.523 79.5815L145.363 52.7414L160.419 67.798L188.009 40.2078L188.472 40.6706L160.419 68.7237L145.363 53.6672L118.523 80.5069L106.249 68.2327L79.2451 95.2362L63.3703 79.3615L50.4416 92.2905L43.0768 84.9257L20.0688 107.934Z" fill="#5271FF"/>
<path d="M145.526 57.6231C147.696 57.6231 149.454 55.8646 149.454 53.6954C149.454 51.5261 147.696 49.7676 145.526 49.7676C143.357 49.7676 141.599 51.5261 141.599 53.6954C141.599 55.8646 143.357 57.6231 145.526 57.6231Z" fill="#5271FF"/>
<path d="M63.6978 83.1537C65.867 83.1537 67.6256 81.3952 67.6256 79.2259C67.6256 77.0567 65.867 75.2982 63.6978 75.2982C61.5285 75.2982 59.77 77.0567 59.77 79.2259C59.77 81.3952 61.5285 83.1537 63.6978 83.1537Z" fill="#5271FF"/>
<path d="M118.687 83.481C120.856 83.481 122.614 81.7225 122.614 79.5533C122.614 77.384 120.856 75.6255 118.687 75.6255C116.517 75.6255 114.759 77.384 114.759 79.5533C114.759 81.7225 116.517 83.481 118.687 83.481Z" fill="#5271FF"/>
<path d="M80.3907 98.2102C82.5599 98.2102 84.3184 96.4517 84.3184 94.2824C84.3184 92.1131 82.5599 90.3546 80.3907 90.3546C78.2214 90.3546 76.4629 92.1131 76.4629 94.2824C76.4629 96.4517 78.2214 98.2102 80.3907 98.2102Z" fill="#5271FF"/>
<path d="M105.594 72.3523C107.763 72.3523 109.522 70.5938 109.522 68.4245C109.522 66.2553 107.763 64.4968 105.594 64.4968C103.425 64.4968 101.666 66.2553 101.666 68.4245C101.666 70.5938 103.425 72.3523 105.594 72.3523Z" fill="#5271FF"/>
<path d="M160.255 72.3523C162.425 72.3523 164.183 70.5938 164.183 68.4245C164.183 66.2553 162.425 64.4968 160.255 64.4968C158.086 64.4968 156.328 66.2553 156.328 68.4245C156.328 70.5938 158.086 72.3523 160.255 72.3523Z" fill="#5271FF"/>
<path d="M31.8089 198.554C33.4027 204.445 38.8616 208.094 38.8616 208.094C38.8616 208.094 41.7365 202.191 40.1428 196.299C38.549 190.408 33.0901 186.759 33.0901 186.759C33.0901 186.759 30.2152 192.662 31.8089 198.554Z" fill="#E6E6E6"/>
<path d="M34.1512 197.288C38.5244 201.545 39.0586 208.089 39.0586 208.089C39.0586 208.089 32.5023 207.731 28.1291 203.474C23.7558 199.217 23.2217 192.672 23.2217 192.672C23.2217 192.672 29.7779 193.03 34.1512 197.288Z" fill="#5271FF"/>
<path d="M256.161 64.5054L258.666 89.2769H279.281L278.29 51.6242C278.29 43.5198 272.688 36.431 264.584 36.431C256.479 36.431 251.207 43.1895 251.207 51.2939L249.886 89.2769H253.247L256.161 64.5054Z" fill="#2F2E41"/>
<path d="M268.483 194.407C268.483 194.407 267.593 200.043 266.11 200.933C264.627 201.822 273.822 203.898 273.822 203.898L275.305 195.001L268.483 194.407Z" fill="#FBBEBE"/>
<path d="M279.457 130.046L282.719 133.902L281.236 147.249L280.05 173.646C280.05 173.646 282.423 196.484 280.05 197.077C277.677 197.67 267 197.373 267.296 195.89C267.593 194.407 267.889 193.221 268.483 191.145C269.076 189.069 267.889 181.654 267.889 181.654L269.372 173.349L264.034 137.461L279.457 130.046Z" fill="#2F2E41"/>
<path d="M268.779 200.043C268.779 200.043 265.517 199.45 265.22 200.043C264.924 200.636 259.288 206.864 258.399 206.864C257.509 206.864 250.984 212.796 257.805 213.093C264.627 213.389 275.898 208.051 275.898 208.051C275.898 208.051 274.239 200.503 274.327 200.866C274.415 201.229 268.779 201.526 268.779 200.043Z" fill="#2F2E41"/>
<path d="M265.22 186.399C265.22 186.399 273.525 195.594 273.821 196.484C274.118 197.373 278.567 196.484 278.567 196.484L280.347 190.552L278.864 188.475L270.559 181.654L265.22 186.399Z" fill="#FBBEBE"/>
<path d="M277.084 193.221L272.783 197.269C272.783 197.269 278.27 205.678 278.27 206.568C278.27 207.458 278.567 214.872 281.533 213.686C284.499 212.5 284.795 200.636 284.795 200.636C284.795 200.636 284.499 188.476 282.719 187.586C280.94 186.696 277.039 186.977 277.039 186.977C277.039 186.977 279.457 192.924 277.084 193.221Z" fill="#2F2E41"/>
<path d="M252.467 103.649C252.467 103.649 250.984 108.395 250.687 109.581C250.39 110.768 248.611 114.03 248.611 119.072C248.611 124.114 249.204 130.046 248.611 130.64C248.018 131.233 238.527 164.451 242.679 168.01C246.831 171.57 260.475 183.433 261.364 184.916C262.254 186.399 262.551 189.959 264.33 189.365C266.11 188.772 272.932 182.84 273.228 181.654C273.525 180.467 269.373 178.391 269.373 178.391C269.373 178.391 261.068 166.231 258.992 166.528C256.916 166.824 257.212 165.045 257.509 164.155C257.805 163.265 258.399 162.672 257.509 162.672C256.619 162.672 257.212 160.299 257.509 159.113C257.805 157.926 264.627 141.91 264.627 141.91L282.719 133.902C282.719 133.902 281.83 112.251 275.304 106.319L273.821 102.76C273.821 102.76 257.212 101.573 252.467 103.649Z" fill="#2F2E41"/>
<path d="M259.882 56.7874C259.882 56.7874 261.364 67.1682 257.805 67.7614C254.246 68.3546 251.28 68.058 251.28 68.3546C251.28 68.6512 260.178 77.8456 260.178 77.8456L268.483 77.2524L275.898 69.2443C275.898 69.2443 269.076 68.058 269.076 63.9056C269.076 59.7533 268.779 56.7874 268.779 56.7874L259.882 56.7874Z" fill="#FFB8B8"/>
<path d="M264.479 61.088C269.557 61.088 273.673 56.9715 273.673 51.8935C273.673 46.8156 269.557 42.6991 264.479 42.6991C259.401 42.6991 255.284 46.8156 255.284 51.8935C255.284 56.9715 259.401 61.088 264.479 61.088Z" fill="#FFB8B8"/>
<path d="M259.113 67.0063C259.113 67.0063 244.755 68.3546 243.865 72.2103C242.976 76.066 249.797 100.09 250.687 102.166C251.577 104.243 251.28 105.726 251.28 105.726C252.622 104.722 254.164 104.017 255.801 103.659C257.438 103.301 259.133 103.298 260.771 103.649C266.407 104.836 274.415 104.243 274.415 104.243C274.415 104.243 277.084 93.2685 277.677 92.0822C278.271 90.8958 280.643 84.3707 280.643 82.5911C280.643 80.8116 284.202 73.3967 284.202 73.3967C284.202 73.3967 282.423 68.058 275.898 68.3546C275.898 68.3546 273.052 67.0807 272.25 68.0142C271.449 68.9478 267 73.1001 261.365 71.3205C255.729 69.5409 259.113 67.0063 259.113 67.0063Z" fill="#E6E6E6"/>
<path d="M278.567 71.9137L284.202 73.3967C284.202 73.3967 288.355 88.523 288.651 88.8196C288.948 89.1162 289.244 90.8958 289.244 90.8958C289.244 90.8958 289.244 91.1924 289.838 92.0821C290.431 92.9719 291.321 92.3787 290.727 93.5651C290.134 94.7515 289.244 94.1583 289.838 95.3447C290.431 96.5311 290.134 99.7936 290.134 99.7936C290.134 99.7936 288.651 94.1583 283.312 95.6413L279.753 79.6252L278.567 71.9137Z" fill="#E6E6E6"/>
<path d="M280.429 74.7527L280.409 74.8206L270.64 105.597L264.227 104.173L257.293 102.634L267.083 70.8972L280.429 74.7527Z" fill="#5271FF"/>
<path d="M249.603 71.9137L243.968 73.3967C243.968 73.3967 239.815 88.523 239.519 88.8196C239.222 89.1162 238.926 90.8958 238.926 90.8958C238.926 90.8958 238.926 91.1924 238.332 92.0821C237.739 92.9719 236.85 92.3787 237.443 93.5651C238.036 94.7515 238.926 94.1583 238.332 95.3447C237.739 96.5311 238.036 99.7936 238.036 99.7936C238.036 99.7936 239.519 94.1583 244.858 95.6413L248.417 79.6252L249.603 71.9137Z" fill="#E6E6E6"/>
<path d="M239.815 94.7515L237.963 97.848C237.963 97.848 237.146 103.649 241.298 103.649C245.451 103.649 251.383 98.014 251.383 98.014C251.383 98.014 254.349 96.8276 256.128 97.1242C257.908 97.4208 267.695 97.1242 263.543 92.0821C259.391 87.04 252.272 92.0821 252.272 92.0821L244.858 95.6413L241.002 93.5651L239.815 94.7515Z" fill="#FFB8B8"/>
<path d="M242.337 90.7475L245.303 95.493C245.303 95.493 238.481 96.3828 237.888 97.8658C237.295 99.3487 240.557 90.1543 240.557 90.1543L242.337 90.7475Z" fill="#E6E6E6"/>
<path d="M256.822 48.6516C262.795 45.4314 265.248 45.5678 272.676 48.6516L274.657 43.8235C274.656 42.9143 274.295 42.0428 273.652 41.3999C273.009 40.7571 272.137 40.3955 271.228 40.3945H257.939C257.03 40.3955 256.158 40.7571 255.515 41.3999C254.872 42.0428 254.511 42.9143 254.51 43.8235L256.822 48.6516Z" fill="#2F2E41"/>
<path opacity="0.2" d="M280.409 74.8206L270.64 105.597L264.228 104.173L273.865 72.9318L280.409 74.8206Z" fill="black"/>
<path d="M275.898 72.9312L266.11 104.667L279.457 107.633L289.244 76.7867L275.898 72.9312Z" fill="#5271FF"/>
<path d="M288.355 94.7515L290.207 97.848C290.207 97.848 291.024 103.649 286.872 103.649C282.719 103.649 276.787 98.014 276.787 98.014C276.787 98.014 273.821 96.8276 272.042 97.1242C270.262 97.4208 260.475 97.1242 264.627 92.0821C268.779 87.04 275.898 92.0821 275.898 92.0821L283.312 95.6413L287.168 93.5651L288.355 94.7515Z" fill="#FFB8B8"/>
<path d="M285.834 90.7475L282.868 95.493C282.868 95.493 289.689 96.3828 290.283 97.8658C290.876 99.3487 287.613 90.1543 287.613 90.1543L285.834 90.7475Z" fill="#E6E6E6"/>
</svg>
