<svg width="526" height="328" viewBox="0 0 526 328" fill="none" xmlns="http://www.w3.org/2000/svg">
<path d="M276.445 301.46H238.789C233.991 301.46 230.102 305.356 230.102 310.161V319.299C230.102 324.104 233.991 328 238.789 328H276.445C281.242 328 285.131 324.104 285.131 319.299V310.161C285.131 305.356 281.242 301.46 276.445 301.46Z" fill="#D0CDE1"/>
<path d="M427.488 324.665H90.1382V325.863H427.488V324.665Z" fill="#3F3D56"/>
<path d="M267.97 299.136L267.67 298.518C267.579 298.33 258.586 279.499 263.6 260.933C268.614 242.366 285.858 230.645 286.032 230.529L286.601 230.147L286.902 230.765C286.993 230.953 295.986 249.783 290.972 268.35C285.958 286.917 268.714 298.638 268.54 298.754L267.97 299.136ZM286.119 231.934C283.1 234.134 269.133 245.033 264.754 261.245C260.373 277.471 266.952 293.926 268.453 297.348C271.472 295.148 285.439 284.25 289.817 268.037C294.199 251.812 287.619 235.357 286.119 231.934Z" fill="#3F3D56"/>
<path d="M244.784 268.194C249.797 286.758 266.97 298.256 266.97 298.256C266.97 298.256 276.015 279.654 271.001 261.089C265.987 242.525 248.814 231.027 248.814 231.027C248.814 231.027 239.77 249.629 244.784 268.194Z" fill="#5271FF"/>
<path d="M268.241 298.876L267.556 298.839C267.348 298.828 246.548 297.543 232.789 284.127C219.03 270.711 217.189 249.918 217.172 249.709L217.116 249.025L217.801 249.063C218.009 249.074 238.809 250.358 252.568 263.774C266.327 277.191 268.168 297.983 268.185 298.192L268.241 298.876ZM218.441 250.316C218.892 254.028 221.609 271.553 233.623 283.268C245.638 294.984 263.199 297.233 266.916 297.585C266.465 293.872 263.749 276.349 251.733 264.633C239.71 252.908 222.156 250.667 218.441 250.316Z" fill="#3F3D56"/>
<path d="M283.027 264.204C269.27 277.619 267.589 298.241 267.589 298.241C267.589 298.241 288.214 297.113 301.972 283.698C315.73 270.283 317.41 249.661 317.41 249.661C317.41 249.661 296.785 250.789 283.027 264.204Z" fill="#3F3D56"/>
<path d="M267.302 190.218C272.258 190.218 276.274 186.194 276.274 181.231C276.274 176.268 272.258 172.244 267.302 172.244C262.347 172.244 258.33 176.268 258.33 181.231C258.33 186.194 262.347 190.218 267.302 190.218Z" fill="#5271FF"/>
<path d="M290.627 326.114H246.139C243.315 326.111 240.607 324.985 238.61 322.985C236.612 320.984 235.489 318.272 235.486 315.443V304.432C235.489 301.603 236.612 298.89 238.609 296.89C240.607 294.889 243.315 293.764 246.139 293.76H290.627C293.452 293.764 296.16 294.889 298.157 296.89C300.154 298.89 301.278 301.603 301.281 304.432V315.443C301.277 318.272 300.154 320.984 298.157 322.985C296.16 324.985 293.452 326.111 290.627 326.114ZM246.139 294.959C243.632 294.961 241.228 295.96 239.455 297.736C237.682 299.512 236.685 301.92 236.682 304.432V315.443C236.685 317.954 237.682 320.362 239.455 322.138C241.228 323.914 243.632 324.913 246.139 324.916H290.627C293.135 324.913 295.538 323.914 297.311 322.138C299.084 320.362 300.082 317.954 300.084 315.443V304.432C300.082 301.92 299.084 299.512 297.312 297.736C295.539 295.96 293.135 294.961 290.627 294.959H246.139Z" fill="#3F3D56"/>
<path d="M179.954 52.0271H0V205.147H179.954V52.0271Z" fill="#5271FF"/>
<path d="M34.12 41.8041C39.3325 41.8041 43.5581 37.5714 43.5581 32.3502C43.5581 27.1289 39.3325 22.8962 34.12 22.8962C28.9075 22.8962 24.6819 27.1289 24.6819 32.3502C24.6819 37.5714 28.9075 41.8041 34.12 41.8041Z" fill="#FF6584"/>
<path d="M215.338 184.804H33.4319V29.7285H215.338V184.804ZM35.385 182.848H213.385V31.6849H35.385V182.848Z" fill="#3F3D56"/>
<path d="M194.044 89.5233C194.042 102.138 190.627 114.516 184.164 125.342C177.701 136.168 168.43 145.039 157.338 151.01C156.506 151.463 155.661 151.895 154.803 152.309C145.283 156.928 134.84 159.318 124.263 159.299C113.685 159.28 103.25 156.852 93.7476 152.199C92.1093 151.398 90.5097 150.532 88.9488 149.602C87.3621 148.672 85.8206 147.67 84.3242 146.611C74.4836 139.68 66.6021 130.315 61.447 119.428C56.2919 108.541 54.0388 96.5025 54.9071 84.4843C55.7754 72.4661 59.7354 60.8778 66.4017 50.8476C73.0681 40.8174 82.2135 32.6871 92.9478 27.248C97.1878 25.0892 101.641 23.3787 106.235 22.144C108.26 21.5949 110.32 21.1383 112.414 20.7743C116.367 20.0876 120.372 19.7439 124.385 19.7471C125.21 19.7471 126.03 19.76 126.849 19.7987C127.449 19.8117 128.048 19.8375 128.648 19.8763C134.919 20.2517 141.11 21.4798 147.05 23.5266C147.559 23.7011 148.069 23.882 148.572 24.0693C150.327 24.7154 152.042 25.4347 153.719 26.2272C165.766 31.828 175.964 40.7625 183.109 51.9773C190.253 63.1921 194.048 76.2195 194.044 89.5233Z" fill="#3F3D56"/>
<path d="M151.574 18.1707C145.236 3.19195 129.104 0.363076 129.104 0.363076C129.104 0.363076 113.57 -3.78788 100.597 15.9809C88.506 34.407 72.9133 51.6706 92.6879 59.0254L97.9114 48.0369L98.5381 60.6829C101.414 61.2827 104.32 61.7245 107.243 62.0062C129.177 64.2382 149.853 67.9494 150.236 60.0093C150.745 49.4542 157.672 32.5832 151.574 18.1707Z" fill="#2F2E41"/>
<path d="M95.244 140.247L94.728 144.394L93.7476 152.199C92.1093 151.398 90.5097 150.532 88.9488 149.602C87.3621 148.672 85.8206 147.67 84.3242 146.611L84.479 142.586L84.6532 138.121L91.8126 139.562L95.244 140.247Z" fill="#FFB8B8"/>
<path d="M167.309 144.485C164.177 146.941 160.841 149.124 157.338 151.01L153.958 139.284L153.513 137.74L152.403 133.883L153.597 133.695L165.813 131.764L166.206 135.091L167.309 144.485Z" fill="#FFB8B8"/>
<path d="M129.114 49.0573C139.637 49.0573 148.168 40.5124 148.168 29.9718C148.168 19.4311 139.637 10.8862 129.114 10.8862C118.591 10.8862 110.061 19.4311 110.061 29.9718C110.061 40.5124 118.591 49.0573 129.114 49.0573Z" fill="#FFB8B8"/>
<path d="M116.059 37.394C116.059 37.394 117.471 61.4277 113.236 62.8414C109.002 64.2552 135.113 62.8414 135.113 62.8414C135.113 62.8414 131.584 47.9971 135.113 43.7559C138.641 39.5146 116.059 37.394 116.059 37.394Z" fill="#FFB8B8"/>
<path d="M135.466 58.9535C135.466 58.9535 117.118 57.5398 113.589 58.9535C110.061 60.3673 100.181 67.436 100.181 67.436L105.121 111.969L145.345 120.451L151.696 111.262L158.048 97.8315L155.225 80.8666L154.519 70.9704L135.466 58.9535Z" fill="#D0CDE1"/>
<path d="M96.6527 70.2634C96.6527 70.2634 87.4788 72.384 86.7731 79.4528C86.0674 86.5215 86.0674 104.193 86.7731 107.021C87.4788 109.848 86.7731 111.262 86.0674 111.969C85.3617 112.676 83.9503 111.262 85.3617 113.383C86.7731 115.503 86.7731 115.503 86.0674 117.624C85.3617 119.744 83.2446 116.917 84.656 120.451C86.0674 123.986 86.7731 124.693 86.0674 125.399C85.3617 126.106 83.2446 142.364 83.2446 142.364L95.2413 144.485L107.238 102.78L96.6527 70.2634Z" fill="#D0CDE1"/>
<path d="M151.697 70.2634C153.037 70.3383 154.333 70.7711 155.449 71.5169C156.566 72.2627 157.463 73.2943 158.048 74.5047C160.165 78.7459 165.81 106.314 165.105 108.435C164.399 110.555 162.988 107.728 164.399 111.969C165.81 116.21 164.399 115.503 165.105 118.331C165.81 121.158 162.282 118.331 165.105 121.158C167.928 123.986 169.339 124.693 167.928 126.106C166.516 127.52 164.399 124.693 166.516 127.52C168.633 130.348 168.633 134.589 168.633 134.589L151.697 138.123L146.757 98.5383L151.697 70.2634Z" fill="#D0CDE1"/>
<path d="M153.958 139.284L154.803 152.309C145.283 156.928 134.84 159.318 124.262 159.299C113.685 159.28 103.25 156.852 93.7475 152.199C92.1092 151.398 90.5096 150.532 88.9487 149.602C89.4905 147.606 90.0388 145.616 90.5999 143.665C90.9998 142.275 91.404 140.908 91.8125 139.562C94.9794 129.18 98.3915 120.348 101.591 116.917C101.591 116.917 101.591 109.145 103.003 108.434C103.519 108.169 104.048 107.336 104.5 106.379C105.025 105.212 105.469 104.01 105.828 102.781L103.493 97.3409L93.0444 72.9709C92.747 72.2739 92.7262 71.4894 92.9863 70.7775C93.2464 70.0656 93.7677 69.4798 94.4441 69.1397L97.9077 67.4018C98.2586 67.2273 98.6405 67.1239 99.0314 67.0977C99.4223 67.0715 99.8145 67.1229 100.185 67.249C100.556 67.3751 100.899 67.5733 101.193 67.8324C101.488 68.0914 101.728 68.4062 101.9 68.7585L117.825 101.366L135.466 112.679L147.837 107.168L148.166 107.019C148.166 107.019 157.344 92.883 154.519 85.8149C153.313 82.7977 151.984 78.7662 150.842 75.1288C150.178 72.9838 149.585 70.9745 149.12 69.3981C149.047 69.1477 149.053 68.8808 149.136 68.6336C149.22 68.3865 149.377 68.171 149.587 68.0165C149.797 67.862 150.049 67.7759 150.309 67.77C150.57 67.764 150.826 67.8385 151.042 67.9832L153.448 69.5919C153.994 69.9583 154.425 70.471 154.693 71.0714C154.804 71.306 154.887 71.5534 154.938 71.8079L160.163 97.1277L153.106 111.968V126.104L153.597 133.696L153.855 137.669L153.958 139.284Z" fill="#2F2E41"/>
<path d="M147.991 12.729L131.823 4.24561L109.495 7.71588L104.876 28.153L116.375 27.7099L119.587 20.2016V27.5863L124.893 27.3818L127.973 15.4281L129.898 28.153L148.761 27.7674L147.991 12.729Z" fill="#2F2E41"/>
<path d="M109.708 33.6829C110.877 33.6829 111.825 32.0214 111.825 29.9718C111.825 27.9223 110.877 26.2607 109.708 26.2607C108.539 26.2607 107.591 27.9223 107.591 29.9718C107.591 32.0214 108.539 33.6829 109.708 33.6829Z" fill="#FFB8B8"/>
<path d="M317.439 77.6827C322.651 77.6827 326.877 73.4501 326.877 68.2288C326.877 63.0076 322.651 58.7749 317.439 58.7749C312.226 58.7749 308.001 63.0076 308.001 68.2288C308.001 73.4501 312.226 77.6827 317.439 77.6827Z" fill="#FF6584"/>
<path d="M346.046 242.004L526 242.004V88.8842L346.046 88.8842V242.004Z" fill="#5271FF"/>
<path d="M497.951 221.662H316.045V66.5854H497.951V221.662ZM317.998 219.706H495.998V68.5418H317.998V219.706Z" fill="#3F3D56"/>
<path d="M476.177 114.012C476.174 126.627 472.76 139.005 466.296 149.831C459.833 160.658 450.562 169.528 439.469 175.5C438.639 175.95 437.79 176.39 436.93 176.801C427.415 181.431 416.971 183.828 406.392 183.809C395.813 183.791 385.377 181.357 375.878 176.693C374.237 175.891 372.645 175.021 371.083 174.091C369.491 173.162 367.948 172.164 366.454 171.098C356.613 164.168 348.732 154.804 343.577 143.917C338.422 133.031 336.169 120.993 337.037 108.975C337.905 96.9572 341.865 85.3694 348.531 75.3397C355.197 65.31 364.343 57.1801 375.077 51.7416C377.167 50.6754 379.325 49.7168 381.532 48.856C383.771 47.9988 386.052 47.2576 388.367 46.6356C390.389 46.0878 392.449 45.6313 394.549 45.2661C395.154 45.1585 395.769 45.0607 396.385 44.9726C399.742 44.4847 403.129 44.2395 406.521 44.239C407.341 44.239 408.162 44.2488 408.982 44.2879C409.578 44.2977 410.183 44.3271 410.779 44.3662C416.728 44.7258 422.606 45.8501 428.268 47.7115C428.581 47.8094 428.884 47.9071 429.186 48.0147C429.694 48.1908 430.202 48.3767 430.7 48.5625C432.458 49.2081 434.173 49.9255 435.846 50.7145C437.721 51.5851 439.547 52.5404 441.325 53.5805C451.924 59.6961 460.727 68.5024 466.846 79.112C472.965 89.7215 476.183 101.759 476.177 114.012Z" fill="#3F3D56"/>
<path d="M436.86 30.0458C429.02 16.7757 413.508 16.1572 413.508 16.1572C413.508 16.1572 398.393 14.2211 388.696 34.4317C379.658 53.2696 367.185 71.458 386.688 75.8679L390.211 64.885L392.393 76.6855C395.169 76.8856 397.955 76.9333 400.737 76.8284C421.623 76.1529 441.514 77.026 440.874 69.5186C440.022 59.5386 444.404 42.8144 436.86 30.0458Z" fill="#2F2E41"/>
<path d="M396.203 156.195L390.012 150.295L377.327 133.959L368.122 138.291L383.065 157.556L389.54 166.13L389.559 166.178C389.559 166.178 400.129 178.884 407.378 173.439C414.626 167.993 396.203 156.195 396.203 156.195Z" fill="#A0616A"/>
<path d="M449.661 135.925L443.469 130.026L436.523 137.287L442.998 145.861L443.016 145.909C443.016 145.909 453.587 158.615 460.836 153.169C468.084 147.724 449.661 135.925 449.661 135.925Z" fill="#A0616A"/>
<path d="M436.825 121.858L447.698 131.841L440.751 135.774L430.785 123.673L436.825 121.858Z" fill="#CFCCE0"/>
<path d="M437.429 74.9656C437.429 74.9656 441.658 71.3352 443.47 83.1339C445.282 94.9325 440.449 99.1679 440.449 99.1679L437.429 74.9656Z" fill="#CFCCE0"/>
<path d="M412.361 61.9568C421.202 61.9568 428.368 54.7781 428.368 45.9227C428.368 37.0674 421.202 29.8887 412.361 29.8887C403.521 29.8887 396.354 37.0674 396.354 45.9227C396.354 54.7781 403.521 61.9568 412.361 61.9568Z" fill="#A0616A"/>
<path d="M402.696 54.9985C402.696 54.9985 400.582 65.2845 392.126 66.4946C383.669 67.7048 370.38 71.9402 372.192 80.1085C374.004 88.2767 424.744 87.3692 424.744 87.3692L433.805 73.4528C433.805 73.4528 415.079 68.6123 416.892 57.7213L402.696 54.9985Z" fill="#A0616A"/>
<path d="M427.613 71.184C427.613 71.184 415.683 80.1086 387.595 79.5035C387.595 79.5035 371.723 82.0657 374.071 73.8264C374.071 73.8264 372.192 71.0327 370.38 79.8061C368.568 88.5794 354.977 118.53 356.185 119.74L360.715 124.278L370.682 143.64L381.253 137.589L377.628 129.723C377.628 129.723 384.575 135.472 387.897 127.001C387.897 127.001 390.615 135.169 396.354 135.471C402.092 135.774 439.241 125.185 439.241 125.185C439.241 125.185 437.127 116.715 439.241 113.084C441.355 109.454 444.678 102.193 443.167 96.7477L440.449 74.9656C440.449 74.9656 429.123 70.2764 427.613 71.184Z" fill="#CFCCE0"/>
<path d="M460.084 153.628V153.657L459.761 158.998C454.099 165.733 447.213 171.332 439.469 175.5C438.639 175.95 437.789 176.39 436.93 176.801C421.902 184.09 404.763 185.745 388.621 181.467L389.705 176.918C389.49 173.403 389.497 169.878 389.724 166.364C389.971 161.664 390.872 157.022 392.4 152.571C394.812 145.939 397.869 143.641 397.869 143.641L396.863 135.473L396.804 135.013L432.428 125.662L437.731 124.273C437.731 124.273 437.858 124.742 438.151 125.496C438.989 127.795 440.2 129.939 441.735 131.844C442.386 132.634 443.123 133.35 443.932 133.976C444.357 134.308 444.808 134.605 445.28 134.867C450.719 137.889 460.084 153.628 460.084 153.628Z" fill="#2F2E41"/>
<path d="M433.393 29.3719L418.069 21.3311L396.906 24.6207L392.527 43.9916L403.427 43.5714L406.472 36.4548V43.4544L411.501 43.2603L414.42 31.9303L416.244 43.9916L434.123 43.6257L433.393 29.3719Z" fill="#2F2E41"/>
</svg>
