<svg width="322" height="234" viewBox="0 0 322 234" fill="none" xmlns="http://www.w3.org/2000/svg">
<path opacity="0.1" d="M290.203 177.665C289.178 180.175 287.917 182.583 286.436 184.857C285.741 185.942 284.979 186.982 284.154 187.973C284.147 187.983 284.138 187.992 284.129 188H29L29.0344 187.973C29.264 187.795 30.6116 186.712 32.7075 184.857C34.2112 183.529 36.0982 181.801 38.2171 179.723C55.5471 162.802 88.8365 122.75 61.1117 86.0601C35.3383 51.9517 63.0883 45.7622 81.3939 45.0398C88.4271 44.7663 95.4435 45.9049 102.023 48.3875C110.48 51.578 125.937 56.4685 146.074 58.7109C146.735 58.7839 147.401 58.8568 148.076 58.9229C158.738 60.0005 169.471 60.1941 180.165 59.5017V59.5017C180.479 59.4835 180.796 59.4607 181.115 59.4379C191.694 58.7005 202.193 57.0883 212.502 54.618C213.17 54.4562 213.828 54.3035 214.485 54.1509C248.835 46.2613 280.501 73.1501 272.584 103.537C269.657 114.777 270.401 126.757 280.159 136.449C296.137 152.269 294.202 167.85 290.203 177.665Z" fill="#5271FF"/>
<path d="M290 178.527C288.976 180.834 287.716 183.047 286.235 185.137C285.541 186.134 284.779 187.09 283.955 188H29C29.2294 187.837 30.5761 186.842 32.6707 185.137C34.1734 183.916 36.0592 182.328 38.1767 180.418L65.0485 175.35C65.3957 175.284 65.7493 175.251 66.1038 175.251L94.7513 175.214H94.7811L108.971 175.197H109.003L120.978 175.184H128.818H136.847L169.75 175.142H169.803H172.352H176.83H182.421H183.908L189.558 175.084H191.426L207.861 175.063H213.11H215.634L234.618 175.04H240.271L258.253 175.017L273.431 175C273.854 175 274.275 175.046 274.686 175.136L290 178.527Z" fill="#454B69"/>
<path opacity="0.4" d="M32.6673 185H286C285.306 186.044 284.545 187.046 283.722 188H29C29.2246 187.818 30.5701 186.775 32.6673 185Z" fill="black"/>
<path d="M197 114.346L196.488 114.444L173.325 118.828C166.597 120.102 159.773 121.382 152.939 120.893C147.988 120.539 143.363 119.092 138.606 117.823C135.917 117.105 133.067 116.818 132.156 113.853C130.898 109.759 132.945 103.698 133.427 99.5503C133.889 95.4795 134.161 91.3064 133.34 87.2834C133.157 86.3794 132.916 85.4876 132.619 84.6135C131.795 82.2052 130.501 79.7013 131.2 77.2566C131.752 75.3167 133.434 73.9317 135.008 72.6491C138.092 70.1475 141.24 67.3435 142.463 63.5934C143.063 61.774 143.176 59.816 143.822 58.0103C145.048 54.5763 148.127 52.0087 151.552 50.6488C154.977 49.2888 158.743 49 162.438 49C165.701 49.0002 168.96 49.2137 172.194 49.639C175.721 50.0939 179.279 50.8421 182.379 52.5659C185.479 54.2897 188.091 57.1142 188.814 60.5573C189.836 65.4263 186.997 70.6115 188.521 75.3395C189.287 77.7296 191.059 79.6604 192.289 81.8481C193.293 83.6782 193.912 85.6884 194.11 87.7591C194.308 89.8298 194.081 91.9187 193.443 93.9013C191.971 98.3973 188.366 102.946 190.212 107.305C191.387 110.077 194.387 111.558 196.478 113.755C196.665 113.952 196.838 114.149 197 114.346Z" fill="#454B69"/>
<path opacity="0.1" d="M197 113.676V114.356L173.742 118.799C166.987 120.09 160.135 121.387 153.273 120.892C148.302 120.532 143.658 119.067 138.881 117.781C136.182 117.052 133.32 116.762 132.404 113.757C131.141 109.608 133.197 103.467 133.681 99.263C134.145 95.1377 141.28 80.0769 140.455 76L183.095 77.8437C183.383 80.0953 194.652 91.3973 193.95 93.5567C192.472 98.113 188.852 102.722 190.706 107.14C191.888 109.95 194.9 111.45 197 113.676Z" fill="black"/>
<path d="M153.761 102.624C154.012 104.058 154.145 105.636 153.418 106.887C152.449 108.565 150.337 109.1 148.447 109.48L141.889 110.801C141.442 110.891 140.968 110.993 140.634 111.301C140.241 111.656 140.107 112.216 140.05 112.745C139.785 115.136 140.625 117.492 141.391 119.77C142.94 124.383 144.241 129.094 146.199 133.545C148.157 137.996 150.845 142.245 154.682 145.22C158.518 148.195 163.595 149.78 168.292 148.617C172.384 147.604 175.739 144.696 178.632 141.612C181.018 139.064 183.251 136.283 184.408 132.977C185.207 130.706 185.467 128.287 185.718 125.891C186.106 122.218 186.494 118.545 186.882 114.872C187.064 113.148 187.184 111.209 186.072 109.886C185.584 109.304 184.921 108.917 184.245 108.558C181.727 107.212 179.076 106.1 176.733 104.478C174.39 102.856 172.312 100.622 171.601 97.851C171.175 96.1874 171.251 94.3754 170.526 92.8254C169.716 91.0876 167.995 89.9106 166.154 89.3939C164.313 88.8772 162.37 88.9467 160.474 89.1622C158.578 89.3776 151.269 89.9291 150.484 92.0816C150.063 93.2401 151.81 95.7263 152.224 96.8662C152.906 98.7355 153.42 100.662 153.761 102.624Z" fill="#EFB7B9"/>
<path opacity="0.1" d="M153.761 102.624C154.012 104.058 154.145 105.636 153.418 106.887C152.449 108.565 150.337 109.1 148.447 109.48L141.889 110.801C141.442 110.891 140.968 110.993 140.634 111.301C140.241 111.656 140.107 112.216 140.05 112.745C139.785 115.136 140.625 117.492 141.391 119.77C142.94 124.383 144.241 129.094 146.199 133.545C148.157 137.996 150.845 142.245 154.682 145.22C158.518 148.195 163.595 149.78 168.292 148.617C172.384 147.604 175.739 144.696 178.632 141.612C181.018 139.064 183.251 136.283 184.408 132.977C185.207 130.706 185.467 128.287 185.718 125.891C186.106 122.218 186.494 118.545 186.882 114.872C187.064 113.148 187.184 111.209 186.072 109.886C185.584 109.304 184.921 108.917 184.245 108.558C181.727 107.212 179.076 106.1 176.733 104.478C174.39 102.856 172.312 100.622 171.601 97.851C171.175 96.1874 171.251 94.3754 170.526 92.8254C169.716 91.0876 167.995 89.9106 166.154 89.3939C164.313 88.8772 162.37 88.9467 160.474 89.1622C158.578 89.3776 151.269 89.9291 150.484 92.0816C150.063 93.2401 151.81 95.7263 152.224 96.8662C152.906 98.7355 153.42 100.662 153.761 102.624Z" fill="black"/>
<path d="M169.524 126.987L173.367 118.703C175.168 114.82 177.009 110.741 176.818 106.453C176.781 105.601 176.772 104.536 177.508 104.149C177.827 104.016 178.175 103.971 178.518 104.018C182.564 104.229 186.557 105.051 190.366 106.458C191.105 106.73 191.861 107.043 192.379 107.643C192.896 108.242 193.106 109.048 193.283 109.821C193.886 112.433 194.326 115.082 194.601 117.752C195.291 124.36 194.948 131.027 194.601 137.656L193.58 157.895C193.585 158.182 193.528 158.467 193.412 158.728C193.159 159.197 192.588 159.354 192.075 159.443C190.099 159.787 188.08 159.717 186.078 159.639C172.001 159.096 157.85 158.262 143.864 160C143.927 157.894 143.894 155.787 143.765 153.678C143.211 144.571 140.892 135.687 138.615 126.863C137.288 121.712 136.002 116.092 138.139 111.237C138.453 110.471 138.905 109.77 139.471 109.172C140.38 108.266 141.619 107.788 142.848 107.446C144.966 106.859 147.161 106.607 149.355 106.697L163.858 138.841C164.521 140.311 165.066 141.859 165.726 143.311C166.319 140.803 165.606 137.864 166.319 135.146C167.088 132.324 168.298 129.624 169.524 126.987Z" fill="white"/>
<path d="M167.788 149.273C170.393 149.437 172.924 148.095 174.716 146.198C176.508 144.301 177.691 141.896 178.691 139.465C180.128 135.999 181.271 132.418 182.106 128.758C182.799 125.647 183.291 122.426 182.813 119.273C182.152 114.919 179.702 110.962 179.284 106.579C179.212 105.812 179.259 104.916 179.871 104.454C180.249 104.168 180.748 104.129 181.219 104.101C185.575 103.841 190.359 103.89 193.733 106.669C194.761 107.514 195.595 108.571 196.599 109.442C198.992 111.531 202.372 112.595 203.908 115.37C204.444 116.335 204.7 117.429 205.074 118.469C205.956 120.931 207.483 123.095 209 125.224C207.529 131.465 205.839 137.712 204.368 143.953C203.506 147.615 202.638 151.29 201.285 154.797C200.398 157.095 199.283 159.441 199.555 161.902C199.664 162.87 199.985 163.797 200.264 164.73C201.243 168.006 201.703 171.417 201.624 174.837L135.731 175C138.888 170.449 139.814 164.867 139.493 159.329C139.338 156.675 138.742 154.005 137.414 151.708C135.322 148.109 131.641 145.764 128.013 143.756C125.473 142.362 122.746 150.201 120 149.303C120.443 146.15 120.647 133.978 120.462 130.804C120.402 129.763 120.309 128.695 120.628 127.702C120.845 127.021 121.245 126.413 121.515 125.751C122.598 123.102 121.566 119.714 123.316 117.459C124.526 115.892 126.648 115.446 128.373 114.48C130.145 113.486 131.514 111.926 133.057 110.593C136.084 108.009 139.782 106.349 143.716 105.808C144.864 107.628 145.562 109.698 145.751 111.845C145.869 113.194 145.783 114.562 145.97 115.904C146.227 117.722 146.975 119.428 147.716 121.109C150.804 128.119 153.903 135.15 157.815 141.733C158.921 143.591 160.124 145.448 161.727 146.895C163.329 148.341 165.636 149.375 167.788 149.273Z" fill="#5271FF"/>
<path opacity="0.1" d="M167.788 149.273C170.393 149.437 172.924 148.095 174.716 146.198C176.508 144.301 177.691 141.896 178.691 139.465C180.128 135.999 181.271 132.418 182.106 128.758C182.799 125.647 183.291 122.426 182.813 119.273C182.152 114.919 179.702 110.962 179.284 106.579C179.212 105.812 179.259 104.916 179.871 104.454C180.249 104.168 180.748 104.129 181.219 104.101C185.575 103.841 190.359 103.89 193.733 106.669C194.761 107.514 195.595 108.571 196.599 109.442C198.992 111.531 202.372 112.595 203.908 115.37C204.444 116.335 204.7 117.429 205.074 118.469C205.956 120.931 207.483 123.095 209 125.224C207.529 131.465 205.839 137.712 204.368 143.953C203.506 147.615 202.638 151.29 201.285 154.797C200.398 157.095 199.283 159.441 199.555 161.902C199.664 162.87 199.985 163.797 200.264 164.73C201.243 168.006 201.703 171.417 201.624 174.837L135.731 175C138.888 170.449 139.814 164.867 139.493 159.329C139.338 156.675 138.742 154.005 137.414 151.708C135.322 148.109 131.641 145.764 128.013 143.756C125.473 142.362 122.746 150.201 120 149.303C120.443 146.15 120.647 133.978 120.462 130.804C120.402 129.763 120.309 128.695 120.628 127.702C120.845 127.021 121.245 126.413 121.515 125.751C122.598 123.102 121.566 119.714 123.316 117.459C124.526 115.892 126.648 115.446 128.373 114.48C130.145 113.486 131.514 111.926 133.057 110.593C136.084 108.009 139.782 106.349 143.716 105.808C144.864 107.628 145.562 109.698 145.751 111.845C145.869 113.194 145.783 114.562 145.97 115.904C146.227 117.722 146.975 119.428 147.716 121.109C150.804 128.119 153.903 135.15 157.815 141.733C158.921 143.591 160.124 145.448 161.727 146.895C163.329 148.341 165.636 149.375 167.788 149.273Z" fill="black"/>
<path d="M164.5 102C175.27 102 184 93.0457 184 82C184 70.9543 175.27 62 164.5 62C153.73 62 145 70.9543 145 82C145 93.0457 153.73 102 164.5 102Z" fill="#EFB7B9"/>
<path d="M154.521 108.361C155.058 103.249 152.951 98.2481 150.565 93.7055C149.423 91.5345 148.198 89.3704 147.624 86.985C147.051 84.5996 147.215 81.8985 148.682 79.9372C149.93 78.2686 151.909 77.3675 153.74 76.388C158.907 73.6224 163.631 69.5569 165.902 64.1201C164.618 64.8253 164.952 66.9295 166.085 67.8583C167.219 68.7871 168.764 68.9668 170.158 69.4094C175.24 71.0226 178.289 76.1345 180.734 80.9098C181.134 81.6888 181.541 82.5116 181.536 83.3897C181.532 84.2678 181.134 85.0468 180.718 85.7935C179.512 87.9599 178.035 90.0411 177.487 92.4633C176.858 95.2289 177.521 98.1375 178.383 100.85C179.297 103.736 180.51 106.644 182.704 108.714C184.898 110.783 188.301 111.811 191 110.475C188.306 105.803 185.515 100.583 186.566 95.2866C187.074 92.7514 188.438 90.4467 189.019 87.9253C190.125 83.1154 188.283 78.1672 186.475 73.5763L181.072 59.8748C180.247 57.7798 179.308 55.5443 177.416 54.3573C176.136 53.5576 174.587 53.3502 173.087 53.205C168.261 52.7717 163.26 52.9146 158.767 54.7261C150.581 58.0241 145.448 66.1551 141.376 74.0418C140.156 76.4041 138.951 78.9139 139.002 81.5782C139.029 83.0394 139.433 84.4614 139.763 85.8857C141.102 91.6843 141.175 97.6927 141.243 103.646C141.296 108.214 141.061 112.519 139.079 116.679C141.794 117.223 145.732 118.691 148.419 117.617C151.923 116.22 154.08 111.917 154.521 108.361Z" fill="#454B69"/>
<g opacity="0.1">
<path opacity="0.1" d="M140.821 103.627C140.83 102.982 140.83 102.331 140.821 101.674C140.752 95.7658 140.679 89.8027 139.339 84.0477C139.039 82.9278 138.806 81.7913 138.639 80.6441C138.592 81.038 138.571 81.4346 138.577 81.8312C138.605 83.2814 139.009 84.6927 139.339 86.1063C140.672 91.827 140.755 97.7535 140.821 103.627Z" fill="black"/>
<path opacity="0.1" d="M188.65 88.1215C188.95 86.785 189.05 85.4113 188.947 84.0454C188.902 84.7248 188.803 85.3994 188.65 86.0629C188.069 88.5789 186.703 90.8457 186.196 93.3687C185.977 94.4815 185.915 95.6195 186.013 96.7494C186.049 96.3056 186.11 95.8642 186.196 95.4273C186.703 92.9043 188.069 90.6284 188.65 88.1215Z" fill="black"/>
<path opacity="0.1" d="M180.983 82.5701C181.095 82.2452 181.155 81.9049 181.162 81.5614C181.162 80.6899 180.759 79.8733 180.359 79.1002C177.911 74.3608 174.869 69.292 169.773 67.6863C168.378 67.2471 166.834 67.0687 165.697 66.1469C165.404 65.895 165.165 65.5871 164.993 65.2415C164.821 64.8959 164.72 64.5193 164.695 64.134C162.215 68.6859 157.956 72.1672 153.34 74.6124C151.511 75.5845 149.527 76.4789 148.279 78.1349C147.105 79.6903 146.764 81.7146 146.968 83.6726C147.083 82.416 147.536 81.2139 148.279 80.1935C149.527 78.5375 151.508 77.6431 153.34 76.671C157.956 74.2258 162.215 70.7445 164.695 66.1926C164.72 66.578 164.821 66.9545 164.993 67.3001C165.165 67.6458 165.404 67.9536 165.697 68.2055C166.84 69.1205 168.378 69.3057 169.773 69.7449C174.86 71.3461 177.911 76.4194 180.359 81.1588C180.607 81.6105 180.816 82.0827 180.983 82.5701V82.5701Z" fill="black"/>
<path opacity="0.1" d="M182.33 106.695C180.134 104.636 178.924 101.754 178.005 98.8903C177.453 97.2817 177.085 95.6158 176.907 93.9245C176.694 96.2736 177.277 98.6776 178.005 100.949C178.92 103.813 180.134 106.699 182.33 108.753C184.526 110.807 187.932 111.828 190.633 110.501C190.308 109.945 189.986 109.38 189.666 108.811C187.156 109.517 184.274 108.511 182.33 106.695Z" fill="black"/>
<path opacity="0.1" d="M154.122 106.345C153.681 109.874 151.521 114.145 148.006 115.54C145.565 116.508 142.091 115.396 139.439 114.781C139.211 115.423 138.95 116.052 138.657 116.668C141.375 117.207 145.316 118.665 148.006 117.599C151.521 116.203 153.681 111.933 154.122 108.403C154.213 107.52 154.23 106.631 154.172 105.746C154.159 105.945 154.138 106.146 154.122 106.345Z" fill="black"/>
</g>
<path d="M181.726 164.089C178.296 163.562 174.815 162.545 171.413 163.229C169.441 163.624 167.639 164.575 166 165.723C166.901 166.421 167.954 167.045 168.527 168.017C168.882 168.689 169.149 169.402 169.322 170.139C169.681 171.429 170.043 172.745 170.099 174.086C170.154 175.428 169.877 176.825 169.051 177.907C173.376 178.32 177.568 177.288 181.786 176.279C182.269 176.197 182.728 176.018 183.134 175.752C183.8 175.245 183.996 174.342 184 173.519C184 172.048 183.574 170.614 183.141 169.204C182.626 167.511 182.244 165.77 181.726 164.089Z" fill="white"/>
<path d="M205.676 125.145C207.48 125.372 208.88 126.776 209.911 128.219C212.802 132.236 214.049 137.106 215.438 141.81C217.163 147.66 219.192 153.417 221.524 159.083C222.026 160.391 222.637 161.659 223.35 162.873C223.931 163.81 224.637 164.711 224.893 165.775C225.515 168.348 223.315 170.767 221.021 172.201C219.798 172.996 218.463 173.617 217.056 174.044C215.687 174.439 214.259 174.588 212.84 174.738L199.78 176.1C193.768 176.731 187.703 177.361 181.689 176.753C181.31 175.483 182.054 174.584 182 173.261C181.962 172.315 181.529 171.434 181.143 170.563C180.432 169.011 179.962 167.366 179.748 165.682C179.68 165.062 179.656 164.427 179.412 163.851C179.167 163.274 178.642 162.757 178 162.716C181.529 162.378 184.209 161.736 187.738 161.395C189.049 161.268 190.411 161.125 191.529 160.454C192.914 159.621 193.691 158.119 194.307 156.662C195.834 153.054 196.818 149.078 196.015 145.257C195.357 142.123 193.519 139.205 193.528 136.007C193.528 134.103 194.201 132.259 194.997 130.516C195.839 128.673 196.938 126.79 198.787 125.855C200.636 124.92 203.589 124.872 205.676 125.145Z" fill="#5271FF"/>
<path opacity="0.08" d="M205.676 125.145C207.48 125.372 208.88 126.776 209.911 128.219C212.802 132.236 214.049 137.106 215.438 141.81C217.163 147.66 219.192 153.417 221.524 159.083C222.026 160.391 222.637 161.659 223.35 162.873C223.931 163.81 224.637 164.711 224.893 165.775C225.515 168.348 223.315 170.767 221.021 172.201C219.798 172.996 218.463 173.617 217.056 174.044C215.687 174.439 214.259 174.588 212.84 174.738L199.78 176.1C193.768 176.731 187.703 177.361 181.689 176.753C181.31 175.483 182.054 174.584 182 173.261C181.962 172.315 181.529 171.434 181.143 170.563C180.432 169.011 179.962 167.366 179.748 165.682C179.68 165.062 179.656 164.427 179.412 163.851C179.167 163.274 178.642 162.757 178 162.716C181.529 162.378 184.209 161.736 187.738 161.395C189.049 161.268 190.411 161.125 191.529 160.454C192.914 159.621 193.691 158.119 194.307 156.662C195.834 153.054 196.818 149.078 196.015 145.257C195.357 142.123 193.519 139.205 193.528 136.007C193.528 134.103 194.201 132.259 194.997 130.516C195.839 128.673 196.938 126.79 198.787 125.855C200.636 124.92 203.589 124.872 205.676 125.145Z" fill="black"/>
<path d="M126.662 121.963C127.461 119.963 128.274 117.897 128.296 115.727C128.32 113.38 127.415 111.152 126.723 108.924C125.868 106.198 125.299 103.381 125.025 100.525C124.969 100.251 125.008 99.9649 125.135 99.7192C125.318 99.4477 125.671 99.392 125.981 99.32C127.505 98.9533 128.657 97.6559 129.608 96.3492C131.084 94.3311 132.33 92.1375 133.321 89.8133C134.05 88.1028 135.036 86.0162 136.816 86C136.099 89.5463 135.212 93.0517 134.156 96.5024C136.016 96.0011 137.785 95.2723 139.646 94.7709C140.01 94.6497 140.391 94.5963 140.773 94.6131C141.887 94.7361 142.57 96.326 141.923 97.2892C142.832 98.4125 144.345 98.7143 145.534 99.4848C146.723 100.255 147.578 102.163 146.521 103.131C146.314 103.319 146.052 103.451 145.902 103.693C145.391 104.524 146.642 105.478 146.538 106.462C146.455 107.267 145.475 107.643 144.733 107.429C143.99 107.216 143.411 106.631 142.751 106.202C142.09 105.772 141.227 105.505 140.586 105.951C140.414 108.135 140.229 110.361 139.333 112.35C139.005 113.076 138.584 113.756 138.32 114.511C138.067 115.333 137.91 116.185 137.853 117.048L137.054 124.751C133.239 125.556 129.819 124.352 126.662 121.963Z" fill="#EFB7B9"/>
<path d="M124.892 128.476L124.123 123.514C124.049 123.11 124.008 122.701 124 122.291C124 121.142 124.531 120.046 125.044 119C129.301 120.894 133.902 121.567 138.598 121.57C139.218 121.57 139.924 121.514 140.31 121.052C141.109 121.928 141.133 123.337 140.793 124.449C140.453 125.562 139.799 126.564 139.365 127.649C139.145 128.198 138.967 128.798 138.547 129.221C137.896 129.89 136.84 130.004 135.88 130C134.87 129.994 133.863 129.902 132.87 129.726C130.299 129.271 127.463 128.037 124.892 128.476Z" fill="white"/>
<path d="M140.63 128.354C137.443 128.001 134.276 127.502 131.131 126.859C129.588 126.544 128.032 126.193 126.459 126.254C125.435 126.295 124.335 126.494 123.434 126C124.311 128.907 124.365 131.971 123.315 134.823C122.694 136.523 121.747 138.107 121.291 139.856C120.342 143.515 121.645 147.505 120.458 151.099C120.333 151.569 120.086 151.999 119.742 152.35C119.379 152.674 118.883 152.841 118.548 153.193C118.055 153.709 118.025 154.486 118.022 155.191L118.001 161.434C117.987 165.408 118.041 169.622 120.195 172.99C122.652 176.841 127.824 178.838 132.327 177.666C133.524 177.368 134.645 176.834 135.621 176.096C137.185 174.886 138.18 173.137 139.155 171.433C140.319 169.394 141.482 167.309 141.857 165.014C142.122 163.389 141.973 161.73 141.782 160.097C140.73 151.033 138.448 142.047 138.939 132.949C139.012 131.286 139.602 129.684 140.63 128.354V128.354Z" fill="#5271FF"/>
<path d="M153.336 166.985C151.708 167.074 150.068 167.162 148.447 166.985C147.275 166.852 146.132 166.58 144.97 166.394C141.796 165.91 138.549 166.08 135.452 166.893C132.355 167.706 129.48 169.143 127.026 171.104C126.126 171.83 125.217 172.943 125.714 173.959C126.248 175.052 127.881 175.021 129.139 174.818C127.781 175.43 126.582 176.316 125.625 177.414C125.274 177.819 124.941 178.299 125.009 178.823C125.152 179.919 126.726 180.118 127.891 180.023C127.511 180.408 127.766 181.09 128.249 181.351C128.732 181.612 129.331 181.559 129.877 181.464C131.084 181.255 132.25 180.874 133.335 180.333C133.115 180.875 133.497 181.51 134.038 181.78C134.579 182.05 135.238 182.03 135.845 181.937C138.707 181.495 141.097 179.614 143.89 178.874C148.355 177.695 153.027 179.576 157.668 179.709C159.121 179.751 160.611 179.611 161.934 179.045C163.558 178.348 164.868 177.04 166.583 176.575C168.487 176.061 170.673 176.652 172.416 175.765C173.684 175.121 172.54 170.157 172.217 169.201C171.624 167.452 171.029 166.293 169.054 166.115C164.057 165.653 158.371 166.711 153.336 166.985Z" fill="#EFB7B9"/>
<path d="M166 165.796C166 165.796 173.152 171.632 169.026 178L177 175.346V169.775C177 169.51 173.972 165.532 173.972 165.532L170.395 165L166 165.796Z" fill="white"/>
<path d="M88.0377 165H90.9623C92.5636 165 94.0993 165.551 95.2316 166.533C96.3639 167.514 97 168.845 97 170.233V178H82V170.233C82 169.545 82.1562 168.865 82.4596 168.23C82.763 167.595 83.2077 167.019 83.7684 166.533C84.329 166.047 84.9946 165.661 85.7272 165.398C86.4597 165.135 87.2448 165 88.0377 165Z" fill="#3F3D56"/>
<path opacity="0.1" d="M88.0377 165H90.9623C92.5636 165 94.0993 165.551 95.2316 166.533C96.3639 167.514 97 168.845 97 170.233V178H82V170.233C82 169.545 82.1562 168.865 82.4596 168.23C82.763 167.595 83.2077 167.019 83.7684 166.533C84.329 166.047 84.9946 165.661 85.7272 165.398C86.4597 165.135 87.2448 165 88.0377 165Z" fill="black"/>
<path d="M89.5 167C90.3284 167 91 166.776 91 166.5C91 166.224 90.3284 166 89.5 166C88.6716 166 88 166.224 88 166.5C88 166.776 88.6716 167 89.5 167Z" fill="#3F3D56"/>
<path d="M89.5 166C90.3284 166 91 165.552 91 165C91 164.448 90.3284 164 89.5 164C88.6716 164 88 164.448 88 165C88 165.552 88.6716 166 89.5 166Z" fill="#3F3D56"/>
<path d="M89.5 165C90.3284 165 91 164.552 91 164C91 163.448 90.3284 163 89.5 163C88.6716 163 88 163.448 88 164C88 164.552 88.6716 165 89.5 165Z" fill="#3F3D56"/>
<path d="M89.5 164C90.3284 164 91 163.328 91 162.5C91 161.672 90.3284 161 89.5 161C88.6716 161 88 161.672 88 162.5C88 163.328 88.6716 164 89.5 164Z" fill="#3F3D56"/>
<path d="M89.5 162C90.3284 162 91 161.552 91 161C91 160.448 90.3284 160 89.5 160C88.6716 160 88 160.448 88 161C88 161.552 88.6716 162 89.5 162Z" fill="#3F3D56"/>
<path d="M89.5 161C90.3284 161 91 160.328 91 159.5C91 158.672 90.3284 158 89.5 158C88.6716 158 88 158.672 88 159.5C88 160.328 88.6716 161 89.5 161Z" fill="#3F3D56"/>
<path d="M89.5 159C90.3284 159 91 158.552 91 158C91 157.448 90.3284 157 89.5 157C88.6716 157 88 157.448 88 158C88 158.552 88.6716 159 89.5 159Z" fill="#3F3D56"/>
<path d="M91 160C91.5523 160 92 159.328 92 158.5C92 157.672 91.5523 157 91 157C90.4477 157 90 157.672 90 158.5C90 159.328 90.4477 160 91 160Z" fill="#3F3D56"/>
<path d="M92.5 159C93.3284 159 94 158.552 94 158C94 157.448 93.3284 157 92.5 157C91.6716 157 91 157.448 91 158C91 158.552 91.6716 159 92.5 159Z" fill="#3F3D56"/>
<path d="M93.5 159C94.3284 159 95 158.328 95 157.5C95 156.672 94.3284 156 93.5 156C92.6716 156 92 156.672 92 157.5C92 158.328 92.6716 159 93.5 159Z" fill="#3F3D56"/>
<path d="M89.5 158C90.3284 158 91 157.328 91 156.5C91 155.672 90.3284 155 89.5 155C88.6716 155 88 155.672 88 156.5C88 157.328 88.6716 158 89.5 158Z" fill="#3F3D56"/>
<path d="M89.5 156C90.3284 156 91 155.552 91 155C91 154.448 90.3284 154 89.5 154C88.6716 154 88 154.448 88 155C88 155.552 88.6716 156 89.5 156Z" fill="#3F3D56"/>
<path d="M89.5 155C90.3284 155 91 154.552 91 154C91 153.448 90.3284 153 89.5 153C88.6716 153 88 153.448 88 154C88 154.552 88.6716 155 89.5 155Z" fill="#3F3D56"/>
<path d="M89.5 153C90.3284 153 91 152.776 91 152.5C91 152.224 90.3284 152 89.5 152C88.6716 152 88 152.224 88 152.5C88 152.776 88.6716 153 89.5 153Z" fill="#3F3D56"/>
<path d="M94.8827 148.738C94.5595 148.776 94.2363 148.804 93.913 148.821C94.2135 148.606 94.4925 148.373 94.7472 148.121C94.5677 147.676 94.3038 147.256 93.9652 146.878C93.6441 147.026 93.289 147.117 92.9225 147.147C92.6019 147.185 92.2787 147.213 91.9554 147.232C92.3803 146.948 92.7765 146.522 93.1936 146.166C92.2592 145.473 91.062 145.064 89.8028 145.007C88.5436 144.95 87.2988 145.249 86.2769 145.854C85.255 146.458 84.5181 147.332 84.1897 148.328C83.8613 149.325 83.9614 150.383 84.4731 151.326C84.9848 152.269 85.8771 153.04 87.0005 153.508C88.1239 153.977 89.4101 154.116 90.6437 153.902C91.8773 153.687 92.9832 153.132 93.7763 152.33C94.5694 151.528 95.0014 150.527 95 149.495C95.0001 149.235 94.9722 148.976 94.9166 148.721L94.8827 148.738Z" fill="#5271FF"/>
<path d="M97.9768 153.684C97.7221 153.904 97.4346 154.038 97.1368 154.075C96.8896 154.126 96.6404 154.165 96.3912 154.188C96.656 153.855 96.9032 153.496 97.1307 153.113C96.5285 152.893 95.8894 152.996 95.3384 153.401C94.7873 153.806 94.3639 154.484 94.1509 155.302C93.938 156.121 93.9508 157.021 94.1868 157.827C94.4228 158.634 94.8651 159.288 95.4272 159.661C95.9894 160.035 96.6309 160.102 97.2263 159.849C97.8218 159.596 98.3285 159.041 98.6472 158.293C98.9659 157.544 99.0739 156.657 98.9499 155.803C98.8259 154.949 98.4789 154.191 97.9768 153.676V153.684Z" fill="#5271FF"/>
<path d="M87.5 160C88.3284 160 89 159.328 89 158.5C89 157.672 88.3284 157 87.5 157C86.6716 157 86 157.672 86 158.5C86 159.328 86.6716 160 87.5 160Z" fill="#3F3D56"/>
<path d="M86 159C86.5523 159 87 158.552 87 158C87 157.448 86.5523 157 86 157C85.4477 157 85 157.448 85 158C85 158.552 85.4477 159 86 159Z" fill="#3F3D56"/>
<path d="M85 159C85.5523 159 86 158.328 86 157.5C86 156.672 85.5523 156 85 156C84.4477 156 84 156.672 84 157.5C84 158.328 84.4477 159 85 159Z" fill="#3F3D56"/>
<path d="M80.2279 153.684C80.5335 153.904 80.8785 154.038 81.2359 154.075C81.5325 154.126 81.8316 154.165 82.1306 154.188C81.8122 153.856 81.5155 153.497 81.2431 153.113C81.9658 152.893 82.7327 152.996 83.3939 153.401C84.0552 153.806 84.5633 154.484 84.8189 155.302C85.0744 156.121 85.0591 157.021 84.7759 157.827C84.4926 158.634 83.9618 159.288 83.2873 159.661C82.6128 160.035 81.843 160.102 81.1284 159.849C80.4138 159.596 79.8059 159.041 79.4234 158.293C79.0409 157.544 78.9114 156.657 79.0601 155.803C79.2089 154.949 79.6253 154.191 80.2279 153.676V153.684Z" fill="#5271FF"/>
<path d="M88.042 166H90.9652C92.5658 166 94.1007 166.551 95.2325 167.533C96.3642 168.514 97 169.845 97 171.233V178.113C97 178.348 96.8922 178.574 96.7002 178.74C96.5083 178.906 96.248 179 95.9765 179H83.0235C82.752 179 82.4917 178.906 82.2998 178.74C82.1078 178.574 82 178.348 82 178.113V171.233C82 170.545 82.1563 169.864 82.4601 169.229C82.7638 168.593 83.209 168.016 83.7701 167.53C84.3312 167.044 84.9974 166.659 85.7304 166.397C86.4634 166.134 87.2489 165.999 88.042 166V166Z" fill="#3F3D56"/>
<g opacity="0.1">
<path opacity="0.1" d="M93.8298 148.718C93.7148 148.841 93.5926 148.957 93.4639 149.066C93.5942 149.066 93.7223 149.045 93.8527 149.031C93.8481 148.926 93.8413 148.821 93.8298 148.718Z" fill="black"/>
<path opacity="0.1" d="M91.7578 147.359C92.0437 147.341 92.3251 147.311 92.6087 147.27C92.8632 147.238 93.1119 147.17 93.3475 147.069C93.2318 146.84 93.0988 146.621 92.9495 146.412C92.8073 146.499 92.6532 146.565 92.4921 146.607C92.2678 146.877 92.0222 147.129 91.7578 147.359Z" fill="black"/>
<path opacity="0.1" d="M84.7696 149.8C84.7679 148.933 85.0001 148.081 85.4417 147.335C85.8834 146.589 86.5181 145.975 87.2791 145.559C88.0401 145.143 88.8992 144.941 89.7658 144.972C90.6324 145.003 91.4746 145.268 92.2035 145.738L92.2767 145.66C91.801 145.237 91.2462 144.912 90.6443 144.704C90.0425 144.496 89.4054 144.409 88.7699 144.448C88.1343 144.488 87.5128 144.653 86.9413 144.933C86.3697 145.214 85.8593 145.605 85.4395 146.084C85.0197 146.563 84.6988 147.12 84.4953 147.723C84.2918 148.326 84.2097 148.964 84.2537 149.599C84.2978 150.235 84.4671 150.855 84.7519 151.424C85.0367 151.994 85.4314 152.501 85.9133 152.918C85.1735 152.047 84.768 150.942 84.7696 149.8Z" fill="black"/>
</g>
<g opacity="0.1">
<path opacity="0.1" d="M95.7378 155.031C96.0214 155.013 96.3051 154.983 96.5864 154.942C96.9255 154.91 97.2528 154.801 97.5425 154.622C97.8637 154.858 98.1315 155.16 98.3285 155.506C98.5255 155.853 98.6474 156.238 98.6862 156.635C98.6973 156.535 98.7026 156.435 98.7022 156.335C98.7044 155.891 98.602 155.452 98.4033 155.055C98.2046 154.657 97.9152 154.312 97.5585 154.048C97.2686 154.226 96.9414 154.335 96.6024 154.365L96.3737 154.395C96.1785 154.623 95.9659 154.836 95.7378 155.031Z" fill="black"/>
<path opacity="0.1" d="M95.8516 154.061C95.9465 154.062 96.0412 154.069 96.1353 154.082C96.2839 153.924 96.4303 153.755 96.579 153.59C96.1585 153.478 95.7178 153.464 95.291 153.549C94.8642 153.634 94.4627 153.817 94.1177 154.082C93.7727 154.348 93.4934 154.689 93.3015 155.079C93.1095 155.47 93.01 155.9 93.0107 156.335C93.0107 156.431 93.0107 156.525 93.0245 156.619C93.0948 155.918 93.423 155.268 93.9454 154.795C94.4679 154.323 95.1472 154.061 95.8516 154.061V154.061Z" fill="black"/>
</g>
<g opacity="0.1">
<path opacity="0.1" d="M82.3267 155.031C82.0431 155.013 81.7595 154.983 81.4781 154.942C81.139 154.91 80.8118 154.801 80.522 154.622C80.2009 154.858 79.9331 155.16 79.736 155.506C79.539 155.853 79.4171 156.238 79.3784 156.635C79.3673 156.535 79.3619 156.435 79.3623 156.335C79.3602 155.891 79.4626 155.452 79.6613 155.055C79.8599 154.657 80.1493 154.312 80.506 154.048C80.7959 154.226 81.1232 154.335 81.4621 154.365L81.6909 154.395C81.8848 154.624 82.0975 154.837 82.3267 155.031V155.031Z" fill="black"/>
<path opacity="0.1" d="M82.2122 154.061C82.1166 154.062 82.0211 154.069 81.9263 154.082C81.7799 153.924 81.6335 153.755 81.4849 153.59C81.9054 153.478 82.3461 153.464 82.7729 153.549C83.1997 153.634 83.6012 153.817 83.9462 154.082C84.2911 154.348 84.5704 154.689 84.7624 155.079C84.9544 155.47 85.0538 155.9 85.0531 156.335C85.0531 156.431 85.0531 156.525 85.0394 156.619C84.9691 155.918 84.6409 155.268 84.1184 154.795C83.596 154.323 82.9167 154.061 82.2122 154.061V154.061Z" fill="black"/>
</g>
<path d="M75.9984 182H52.0186C51.7484 182 51.4894 181.904 51.2983 181.733C51.1073 181.561 51 181.329 51 181.087V170.913C51 170.759 51.0434 170.608 51.1263 170.473C51.2092 170.338 51.3289 170.224 51.4742 170.141C51.6195 170.059 51.7856 170.011 51.9572 170.002C52.1288 169.992 52.3002 170.022 52.4555 170.088C59.3451 173.019 66.7673 174.024 75.5272 170.134C75.6825 170.066 75.8547 170.034 76.0276 170.041C76.2006 170.049 76.3685 170.095 76.5158 170.177C76.6631 170.258 76.7848 170.372 76.8694 170.508C76.9541 170.643 76.999 170.796 76.9999 170.951V181.072C77.0021 181.191 76.978 181.311 76.9289 181.422C76.8798 181.534 76.8067 181.635 76.7137 181.722C76.6207 181.808 76.5097 181.877 76.387 181.925C76.2642 181.972 76.1322 181.998 75.9984 182V182Z" fill="#5271FF"/>
<path opacity="0.1" d="M75.9984 182H52.0186C51.7484 182 51.4894 181.904 51.2983 181.733C51.1073 181.561 51 181.329 51 181.087V170.913C51 170.759 51.0434 170.608 51.1263 170.473C51.2092 170.338 51.3289 170.224 51.4742 170.141C51.6195 170.059 51.7856 170.011 51.9572 170.002C52.1288 169.992 52.3002 170.022 52.4555 170.088C59.3451 173.019 66.7673 174.024 75.5272 170.134C75.6825 170.066 75.8547 170.034 76.0276 170.041C76.2006 170.049 76.3685 170.095 76.5158 170.177C76.6631 170.258 76.7848 170.372 76.8694 170.508C76.9541 170.643 76.999 170.796 76.9999 170.951V181.072C77.0021 181.191 76.978 181.311 76.9289 181.422C76.8798 181.534 76.8067 181.635 76.7137 181.722C76.6207 181.808 76.5097 181.877 76.387 181.925C76.2642 181.972 76.1322 181.998 75.9984 182V182Z" fill="black"/>
<path d="M63.5 175C64.3284 175 65 174.105 65 173C65 171.895 64.3284 171 63.5 171C62.6716 171 62 171.895 62 173C62 174.105 62.6716 175 63.5 175Z" fill="#3F3D56"/>
<path d="M63.5 172C64.3284 172 65 171.328 65 170.5C65 169.672 64.3284 169 63.5 169C62.6716 169 62 169.672 62 170.5C62 171.328 62.6716 172 63.5 172Z" fill="#3F3D56"/>
<path d="M63.5 170C64.3284 170 65 169.105 65 168C65 166.895 64.3284 166 63.5 166C62.6716 166 62 166.895 62 168C62 169.105 62.6716 170 63.5 170Z" fill="#3F3D56"/>
<path d="M63.5 168C64.3284 168 65 167.328 65 166.5C65 165.672 64.3284 165 63.5 165C62.6716 165 62 165.672 62 166.5C62 167.328 62.6716 168 63.5 168Z" fill="#3F3D56"/>
<path d="M63.5 166C64.3284 166 65 165.328 65 164.5C65 163.672 64.3284 163 63.5 163C62.6716 163 62 163.672 62 164.5C62 165.328 62.6716 166 63.5 166Z" fill="#3F3D56"/>
<path d="M63.5 164C64.3284 164 65 163.105 65 162C65 160.895 64.3284 160 63.5 160C62.6716 160 62 160.895 62 162C62 163.105 62.6716 164 63.5 164Z" fill="#3F3D56"/>
<path d="M63.5 162C64.3284 162 65 161.105 65 160C65 158.895 64.3284 158 63.5 158C62.6716 158 62 158.895 62 160C62 161.105 62.6716 162 63.5 162Z" fill="#3F3D56"/>
<path d="M68.6027 144.876C68.7867 144.632 68.955 144.375 69.1067 144.109L65.5431 143.504L69.3975 143.533C69.7693 142.701 69.9722 141.8 69.9936 140.885C70.0149 139.969 69.8544 139.059 69.5217 138.21L64.352 140.978L69.1208 137.348C68.6743 136.551 68.0735 135.858 67.3559 135.311C66.6384 134.764 65.8194 134.376 64.9499 134.17C64.0805 133.964 63.1793 133.945 62.3025 134.114C61.4257 134.283 60.592 134.637 59.8535 135.153C59.1149 135.67 58.4873 136.337 58.0097 137.115C57.5321 137.892 57.2147 138.763 57.0774 139.673C56.9401 140.582 56.9858 141.511 57.2116 142.402C57.4374 143.292 57.8385 144.125 58.3899 144.849C58.1002 145.227 57.8517 145.637 57.649 146.071L62.2724 148.578L57.3489 146.86C57.0038 147.916 56.9189 149.044 57.1019 150.142C57.2849 151.24 57.7299 152.274 58.3969 153.15C57.6432 154.139 57.1743 155.327 57.0439 156.578C56.9135 157.829 57.1268 159.093 57.6595 160.225C58.1922 161.356 59.0227 162.311 60.0561 162.978C61.0895 163.646 62.2841 164 63.5033 164C64.7225 164 65.9171 163.646 66.9505 162.978C67.9839 162.311 68.8145 161.356 69.3471 160.225C69.8798 159.093 70.0931 157.829 69.9627 156.578C69.8323 155.327 69.3634 154.139 68.6097 153.15C69.5102 151.969 69.9998 150.509 69.9998 149.006C69.9998 147.502 69.5102 146.043 68.6097 144.861L68.6027 144.876Z" fill="#5271FF"/>
<path opacity="0.1" d="M57 150.092C56.9979 151.486 57.488 152.841 58.391 153.936C57.6369 154.853 57.1678 155.955 57.0373 157.116C56.9068 158.276 57.1203 159.448 57.6532 160.498C58.1861 161.548 59.0171 162.433 60.051 163.052C61.085 163.672 62.2802 164 63.5 164C64.7198 164 65.915 163.672 66.949 163.052C67.9829 162.433 68.8139 161.548 69.3468 160.498C69.8797 159.448 70.0932 158.276 69.9627 157.116C69.8322 155.955 69.3631 154.853 68.609 153.936C69.4792 152.879 57 149.394 57 150.092Z" fill="black"/>
<path d="M75.9986 183H52.0186C51.7484 183 51.4894 182.9 51.2983 182.723C51.1073 182.545 51 182.304 51 182.053V170.947C51 170.787 51.0434 170.63 51.1263 170.49C51.2092 170.35 51.3289 170.232 51.4742 170.147C51.6195 170.061 51.7856 170.011 51.9572 170.002C52.1288 169.992 52.3002 170.023 52.4555 170.091C59.3451 173.13 64.8087 176.672 75.5273 170.139C76.163 169.752 77 170.281 77 170.986V182.049C77.0013 182.298 76.8969 182.537 76.7095 182.716C76.522 182.894 76.2666 182.996 75.9986 183Z" fill="#5271FF"/>
<path d="M241 178.739L207.86 182.798L206.202 183L190 174.988V173.113L240.632 168L241 178.739Z" fill="#9C9CA1"/>
<path d="M199 176.901L235 173L234.631 179.11L206.59 181L199 176.901Z" fill="#939498"/>
<path opacity="0.4" d="M208 180.975V182.806L206.33 183L190 175.706V174L205.586 180.969C205.586 180.969 207.629 181.13 208 180.975Z" fill="black"/>
<path d="M214.413 147.069L207.05 181.347C206.975 181.69 206.985 182.046 207.076 182.385C207.168 182.724 207.34 183.036 207.577 183.294C207.814 183.552 208.109 183.75 208.438 183.869C208.767 183.989 209.12 184.027 209.466 183.981L256.054 177.79C256.46 177.736 256.843 177.569 257.158 177.307C257.474 177.046 257.71 176.7 257.839 176.31L267.89 145.881C268.001 145.543 268.029 145.183 267.97 144.833C267.912 144.482 267.77 144.151 267.556 143.867C267.342 143.584 267.062 143.357 266.741 143.207C266.421 143.056 266.068 142.986 265.714 143.002L216.443 145.351C215.964 145.374 215.505 145.554 215.139 145.865C214.772 146.175 214.517 146.598 214.413 147.069V147.069Z" fill="#3F3D56"/>
<path d="M239.423 160.014C239.538 158.921 239.062 157.975 238.36 157.902C237.657 157.828 236.995 158.654 236.88 159.747C236.765 160.84 237.241 161.786 237.944 161.86C238.646 161.934 239.308 161.107 239.423 160.014Z" fill="white"/>
</svg>
