<svg width="501" height="286" viewBox="0 0 501 286" fill="none" xmlns="http://www.w3.org/2000/svg">
<path d="M345.574 90.0233C367.575 90.0233 385.411 72.0426 385.411 49.8623C385.411 27.682 367.575 9.70129 345.574 9.70129C323.573 9.70129 305.737 27.682 305.737 49.8623C305.737 72.0426 323.573 90.0233 345.574 90.0233Z" fill="#F5F5F5"/>
<path d="M355.674 78.3486C359.36 78.3486 362.349 75.3604 362.349 71.6743C362.349 67.9882 359.36 65 355.674 65C351.988 65 349 67.9882 349 71.6743C349 75.3604 351.988 78.3486 355.674 78.3486Z" fill="#72351C"/>
<path d="M345.698 181.966C367.699 181.966 385.535 163.986 385.535 141.805C385.535 119.625 367.699 101.644 345.698 101.644C323.696 101.644 305.861 119.625 305.861 141.805C305.861 163.986 323.696 181.966 345.698 181.966Z" fill="#F5F5F5"/>
<path d="M344.203 124C334.702 124 327 135.313 327 149.269V167H331.12L333.505 160.431L332.909 167H359.392L361.56 161.028L361.018 167H364V153.078C364 137.019 355.137 124 344.203 124Z" fill="#2F2E41"/>
<g opacity="0.5">
<path opacity="0.5" d="M154.281 93.3512C176.757 93.3512 194.978 74.9821 194.978 52.3228C194.978 29.6635 176.757 11.2944 154.281 11.2944C131.804 11.2944 113.583 29.6635 113.583 52.3228C113.583 74.9821 131.804 93.3512 154.281 93.3512Z" fill="url(#paint0_linear)"/>
</g>
<path d="M154.281 92.2606C176.282 92.2606 194.118 74.2799 194.118 52.0996C194.118 29.9193 176.282 11.9386 154.281 11.9386C132.28 11.9386 114.444 29.9193 114.444 52.0996C114.444 74.2799 132.28 92.2606 154.281 92.2606Z" fill="#F5F5F5"/>
<path d="M154.393 92.374C162.178 92.3869 169.794 90.0893 176.292 85.7678C174.824 77.6818 169.237 77.218 169.237 77.218H138.436C138.436 77.218 133.169 77.6535 131.518 85.0952C138.215 89.8441 146.206 92.3867 154.393 92.374Z" fill="#5271FF"/>
<path d="M153.976 69.0186C163.729 69.0186 171.636 61.0474 171.636 51.2145C171.636 41.3816 163.729 33.4104 153.976 33.4104C144.222 33.4104 136.315 41.3816 136.315 51.2145C136.315 61.0474 144.222 69.0186 153.976 69.0186Z" fill="#333333"/>
<path opacity="0.1" d="M147.771 67.3618H160.093V77.2994C160.093 78.9463 159.444 80.5258 158.289 81.6903C157.134 82.8548 155.567 83.5091 153.934 83.5091C152.3 83.5091 150.733 82.8548 149.578 81.6903C148.423 80.5258 147.774 78.9463 147.774 77.2994V67.3618H147.771Z" fill="black"/>
<path d="M148.947 66.9015H158.917C159.229 66.9015 159.528 67.0264 159.748 67.2489C159.969 67.4713 160.093 67.7729 160.093 68.0875V76.8391C160.093 78.486 159.444 80.0654 158.289 81.23C157.134 82.3945 155.567 83.0487 153.933 83.0487C152.3 83.0487 150.733 82.3945 149.578 81.23C148.423 80.0654 147.774 78.486 147.774 76.8391V68.0875C147.774 67.7735 147.897 67.4724 148.117 67.2501C148.337 67.0278 148.635 66.9024 148.947 66.9015Z" fill="#BE7C5E"/>
<path opacity="0.1" d="M147.795 72.0526C151.766 73.549 156.138 73.5615 160.117 72.088V70.5621H147.795V72.0526Z" fill="black"/>
<path d="M153.976 72.8847C163.729 72.8847 171.636 64.9135 171.636 55.0806C171.636 45.2477 163.729 37.2765 153.976 37.2765C144.222 37.2765 136.315 45.2477 136.315 55.0806C136.315 64.9135 144.222 72.8847 153.976 72.8847Z" fill="#BE7C5E"/>
<path d="M143.275 47.738C143.483 46.9698 143.742 46.1237 144.427 45.7236C144.968 45.405 145.639 45.4545 146.264 45.4864C151.145 45.7555 155.984 44.6332 160.732 43.4614C163.447 42.7922 166.351 41.978 168.107 39.7724C169.862 37.5668 167.573 30.6349 164.9 29.8171C163.145 29.2754 161.108 30.2844 159.443 29.4914C158.702 29.1374 158.158 28.4753 157.519 27.9585C156.209 26.8964 154.527 26.468 152.897 26.0644C150.994 25.59 148.936 25.1262 147.128 25.8874C145.723 26.4751 144.698 27.7177 143.367 28.4541C140.835 29.8702 137.748 29.2117 134.847 29.2046C133.867 29.2046 132.698 29.4029 132.308 30.3092C132.045 30.9252 132.256 31.6262 132.284 32.2953C132.368 34.4195 130.63 36.0728 129.172 37.6057C127.715 39.1387 126.338 41.3266 127.258 43.2312C127.61 43.957 128.252 44.5058 128.617 45.2244C129.246 46.4706 128.93 47.9752 129.158 49.3524C129.387 50.3974 129.774 51.4005 130.307 52.3262C131.388 54.4504 136.821 65.8855 139.318 62.979C140.526 61.5628 140.722 57.4703 141.21 55.6293C141.885 52.9836 142.573 50.3531 143.275 47.738Z" fill="#333333"/>
<path d="M141.41 57.5375C142.318 57.5375 143.054 56.1475 143.054 54.4327C143.054 52.718 142.318 51.3279 141.41 51.3279C140.502 51.3279 139.767 52.718 139.767 54.4327C139.767 56.1475 140.502 57.5375 141.41 57.5375Z" fill="#BE7C5E"/>
<g opacity="0.5">
<path opacity="0.5" d="M248.521 182.648C270.997 182.648 289.218 164.279 289.218 141.619C289.218 118.96 270.997 100.591 248.521 100.591C226.044 100.591 207.824 118.96 207.824 141.619C207.824 164.279 226.044 182.648 248.521 182.648Z" fill="url(#paint1_linear)"/>
</g>
<path d="M248.598 181.518C270.599 181.518 288.435 163.538 288.435 141.357C288.435 119.177 270.599 101.196 248.598 101.196C226.597 101.196 208.761 119.177 208.761 141.357C208.761 163.538 226.597 181.518 248.598 181.518Z" fill="#F5F5F5"/>
<path d="M248.633 181.678C256.413 181.688 264.024 179.39 270.518 175.072C269.05 166.986 263.463 166.522 263.463 166.522H232.672C232.672 166.522 227.405 166.957 225.754 174.399C232.452 179.148 240.444 181.691 248.633 181.678Z" fill="#5271FF"/>
<path d="M248.213 159.898C258.833 159.898 267.443 151.218 267.443 140.511C267.443 129.804 258.833 121.125 248.213 121.125C237.592 121.125 228.982 129.804 228.982 140.511C228.982 151.218 237.592 159.898 248.213 159.898Z" fill="#F55F44"/>
<path opacity="0.1" d="M242.007 156.658H254.329V166.596C254.329 168.243 253.68 169.822 252.525 170.987C251.37 172.151 249.803 172.806 248.17 172.806C246.536 172.806 244.97 172.151 243.814 170.987C242.659 169.822 242.01 168.243 242.01 166.596V156.658H242.007Z" fill="black"/>
<path d="M243.183 156.198H253.153C253.307 156.198 253.46 156.229 253.603 156.289C253.746 156.348 253.876 156.435 253.985 156.546C254.094 156.656 254.181 156.786 254.24 156.93C254.299 157.074 254.329 157.228 254.329 157.384V166.136C254.329 166.951 254.17 167.759 253.86 168.512C253.551 169.266 253.097 169.95 252.525 170.527C251.953 171.103 251.274 171.561 250.527 171.873C249.78 172.185 248.979 172.345 248.17 172.345C247.361 172.345 246.56 172.185 245.813 171.873C245.065 171.561 244.386 171.103 243.814 170.527C243.242 169.95 242.789 169.266 242.479 168.512C242.17 167.759 242.01 166.951 242.01 166.136V157.384C242.01 157.07 242.134 156.768 242.355 156.546C242.575 156.323 242.875 156.198 243.187 156.198H243.183Z" fill="#FDA57D"/>
<path opacity="0.1" d="M242.032 161.349C246.003 162.846 250.375 162.858 254.354 161.385V159.859H242.032V161.349Z" fill="black"/>
<path d="M248.212 162.181C257.966 162.181 265.872 154.21 265.872 144.377C265.872 134.544 257.966 126.573 248.212 126.573C238.459 126.573 230.552 134.544 230.552 144.377C230.552 154.21 238.459 162.181 248.212 162.181Z" fill="#FDA57D"/>
<path d="M248.188 127.957C252.113 127.957 255.295 124.749 255.295 120.792C255.295 116.834 252.113 113.626 248.188 113.626C244.262 113.626 241.08 116.834 241.08 120.792C241.08 124.749 244.262 127.957 248.188 127.957Z" fill="#F55F44"/>
<path d="M248.188 118.441C250.765 118.441 252.855 116.335 252.855 113.736C252.855 111.138 250.765 109.031 248.188 109.031C245.61 109.031 243.521 111.138 243.521 113.736C243.521 116.335 245.61 118.441 248.188 118.441Z" fill="#F55F44"/>
<path d="M245.104 124.722C243.437 123.967 242.121 122.595 241.431 120.889C240.742 119.182 240.73 117.274 241.399 115.559C241.35 115.658 241.301 115.761 241.255 115.864C240.873 116.722 240.663 117.649 240.636 118.589C240.609 119.53 240.766 120.467 241.098 121.347C241.43 122.226 241.931 123.031 242.571 123.716C243.212 124.4 243.98 124.951 244.832 125.336C245.684 125.721 246.603 125.933 247.536 125.961C248.469 125.988 249.398 125.83 250.271 125.495C251.143 125.16 251.942 124.655 252.621 124.009C253.3 123.363 253.846 122.589 254.228 121.73C254.273 121.627 254.316 121.525 254.358 121.419C253.533 123.063 252.111 124.324 250.387 124.939C248.664 125.554 246.772 125.476 245.104 124.722Z" fill="#F55F44"/>
<path opacity="0.1" d="M235.637 128.184C235.637 128.184 243.078 143.407 264.082 134.556L259.193 126.828L250.53 123.691L235.637 128.184Z" fill="black"/>
<path d="M235.637 127.957C235.637 127.957 243.078 143.181 264.082 134.33L259.193 126.601L250.53 123.465L235.637 127.957Z" fill="#F55F44"/>
<path d="M241.372 122.413C245.951 122.05 250.551 122.05 255.13 122.413C255.13 122.413 244.968 123.366 241.372 122.413Z" fill="#333333"/>
<path d="M249.255 108.744C248.902 108.731 248.549 108.759 248.202 108.826H248.472C249.621 108.863 250.717 109.327 251.548 110.128C252.378 110.93 252.886 112.013 252.973 113.169C253.06 114.325 252.721 115.472 252.019 116.391C251.318 117.31 250.305 117.936 249.174 118.147C250.411 118.159 251.602 117.674 252.484 116.8C253.367 115.927 253.869 114.735 253.88 113.488C253.891 112.241 253.411 111.041 252.544 110.151C251.677 109.262 250.496 108.756 249.259 108.744H249.255Z" fill="#F55F44"/>
<path d="M230.548 147.464C231.456 147.464 232.192 146.074 232.192 144.359C232.192 142.645 231.456 141.255 230.548 141.255C229.641 141.255 228.905 142.645 228.905 144.359C228.905 146.074 229.641 147.464 230.548 147.464Z" fill="#FDA57D"/>
<path d="M265.872 147.464C266.78 147.464 267.516 146.074 267.516 144.359C267.516 142.645 266.78 141.255 265.872 141.255C264.965 141.255 264.229 142.645 264.229 144.359C264.229 146.074 264.965 147.464 265.872 147.464Z" fill="#FDA57D"/>
<path d="M234.523 128.407L237.968 126.616L238.744 129.487L236.634 130.935L234.523 128.407Z" fill="#F55F44"/>
<g opacity="0.5">
<path opacity="0.5" d="M248.482 91.3366C270.959 91.3366 289.18 72.9676 289.18 50.3083C289.18 27.6489 270.959 9.27991 248.482 9.27991C226.006 9.27991 207.785 27.6489 207.785 50.3083C207.785 72.9676 226.006 91.3366 248.482 91.3366Z" fill="url(#paint2_linear)"/>
</g>
<path d="M248.483 90.2462C270.484 90.2462 288.32 72.2655 288.32 50.0852C288.32 27.9049 270.484 9.92419 248.483 9.92419C226.482 9.92419 208.646 27.9049 208.646 50.0852C208.646 72.2655 226.482 90.2462 248.483 90.2462Z" fill="#F5F5F5"/>
<path d="M232.943 50.4429C232.943 50.4429 228.427 72.8741 225.962 71.6315C225.962 71.6315 249.736 92.3351 270.729 71.6315C270.729 71.6315 267.031 55.8241 261.694 50.4429H232.943Z" fill="#333333"/>
<path d="M248.595 90.3666C256.379 90.3795 263.996 88.082 270.494 83.7605C269.026 75.6745 263.439 75.2107 263.439 75.2107H232.634C232.634 75.2107 227.366 75.6461 225.716 83.0878C232.414 87.8374 240.406 90.3801 248.595 90.3666Z" fill="#5271FF"/>
<path d="M248.174 67.0042C257.927 67.0042 265.834 59.033 265.834 49.2001C265.834 39.3672 257.927 31.396 248.174 31.396C238.42 31.396 230.513 39.3672 230.513 49.2001C230.513 59.033 238.42 67.0042 248.174 67.0042Z" fill="#333333"/>
<path opacity="0.1" d="M241.968 65.3474H254.291V75.285C254.291 76.93 253.643 78.5079 252.49 79.6721C251.338 80.8363 249.774 81.4918 248.142 81.4946C246.508 81.4946 244.942 80.8404 243.786 79.6759C242.631 78.5113 241.982 76.9319 241.982 75.285V65.3474H241.968Z" fill="black"/>
<path d="M243.145 64.8872H253.115C253.427 64.8872 253.726 65.0122 253.946 65.2346C254.167 65.457 254.291 65.7587 254.291 66.0732V74.8248C254.291 76.4698 253.643 78.0477 252.491 79.2119C251.338 80.3761 249.774 81.0316 248.142 81.0344C246.508 81.0344 244.942 80.3802 243.787 79.2157C242.631 78.0511 241.982 76.4717 241.982 74.8248V66.0697C241.983 65.7582 242.106 65.4595 242.323 65.2383C242.541 65.017 242.836 64.8909 243.145 64.8872Z" fill="#BE7C5E"/>
<path opacity="0.1" d="M241.993 70.0383C245.964 71.5346 250.336 71.5472 254.315 70.0737V68.5479H241.993V70.0383Z" fill="black"/>
<path d="M248.174 70.8667C257.927 70.8667 265.834 62.8956 265.834 53.0626C265.834 43.2297 257.927 35.2585 248.174 35.2585C238.42 35.2585 230.513 43.2297 230.513 53.0626C230.513 62.8956 238.42 70.8667 248.174 70.8667Z" fill="#BE7C5E"/>
<path d="M231.293 46.3007H264.97C264.97 46.3007 262.094 32.5927 249.364 33.4671C236.634 34.3416 231.293 46.3007 231.293 46.3007Z" fill="#333333"/>
<path d="M230.878 55.4098C231.786 55.4098 232.521 54.0198 232.521 52.305C232.521 50.5903 231.786 49.2002 230.878 49.2002C229.97 49.2002 229.234 50.5903 229.234 52.305C229.234 54.0198 229.97 55.4098 230.878 55.4098Z" fill="#BE7C5E"/>
<path d="M265.377 55.4098C266.285 55.4098 267.021 54.0198 267.021 52.305C267.021 50.5903 266.285 49.2002 265.377 49.2002C264.47 49.2002 263.734 50.5903 263.734 52.305C263.734 54.0198 264.47 55.4098 265.377 55.4098Z" fill="#BE7C5E"/>
<path opacity="0.1" d="M231.293 46.761H264.97C264.97 46.761 262.094 33.053 249.364 33.9275C236.634 34.8019 231.293 46.761 231.293 46.761Z" fill="black"/>
<g opacity="0.5">
<path opacity="0.5" d="M345.697 183.057C368.174 183.057 386.394 164.688 386.394 142.028C386.394 119.369 368.174 101 345.697 101C323.221 101 305 119.369 305 142.028C305 164.688 323.221 183.057 345.697 183.057Z" fill="url(#paint3_linear)"/>
</g>
<path d="M345.809 182.087C353.594 182.1 361.21 179.802 367.709 175.481C366.241 167.395 360.653 166.931 360.653 166.931H329.849C329.849 166.931 324.581 167.366 322.931 174.808C329.629 179.558 337.621 182.1 345.809 182.087V182.087Z" fill="#5271FF"/>
<path d="M345.388 158.724C355.142 158.724 363.049 150.753 363.049 140.92C363.049 131.087 355.142 123.116 345.388 123.116C335.635 123.116 327.728 131.087 327.728 140.92C327.728 150.753 335.635 158.724 345.388 158.724Z" fill="#333333"/>
<path opacity="0.1" d="M339.183 157.068H351.506V167.005C351.506 168.65 350.858 170.228 349.705 171.392C348.552 172.556 346.988 173.212 345.357 173.215C343.723 173.215 342.156 172.56 341.001 171.396C339.846 170.231 339.197 168.652 339.197 167.005V157.068H339.183Z" fill="black"/>
<path d="M340.36 156.607H350.329C350.641 156.607 350.941 156.732 351.161 156.955C351.382 157.177 351.506 157.479 351.506 157.793V166.545C351.506 168.19 350.858 169.768 349.705 170.932C348.553 172.096 346.989 172.752 345.357 172.755C343.723 172.755 342.157 172.1 341.001 170.936C339.846 169.771 339.197 168.192 339.197 166.545V157.79C339.198 157.478 339.321 157.18 339.538 156.958C339.756 156.737 340.051 156.611 340.36 156.607Z" fill="#FDB797"/>
<path opacity="0.1" d="M339.208 161.758C343.179 163.255 347.55 163.267 351.53 161.794V160.268H339.208V161.758Z" fill="black"/>
<path d="M345.388 162.587C355.142 162.587 363.049 154.616 363.049 144.783C363.049 134.95 355.142 126.979 345.388 126.979C335.635 126.979 327.728 134.95 327.728 144.783C327.728 154.616 335.635 162.587 345.388 162.587Z" fill="#FDB797"/>
<path d="M328.508 138.021H362.185C362.185 138.021 359.309 124.313 346.579 125.187C333.849 126.062 328.508 138.021 328.508 138.021Z" fill="#333333"/>
<path d="M328.093 147.13C329 147.13 329.736 145.74 329.736 144.025C329.736 142.31 329 140.92 328.093 140.92C327.185 140.92 326.449 142.31 326.449 144.025C326.449 145.74 327.185 147.13 328.093 147.13Z" fill="#FDB797"/>
<path d="M362.592 147.13C363.5 147.13 364.236 145.74 364.236 144.025C364.236 142.31 363.5 140.92 362.592 140.92C361.685 140.92 360.949 142.31 360.949 144.025C360.949 145.74 361.685 147.13 362.592 147.13Z" fill="#FDB797"/>
<g opacity="0.5">
<path opacity="0.5" d="M345.497 91.1561C367.973 91.1561 386.194 72.7871 386.194 50.1277C386.194 27.4684 367.973 9.09937 345.497 9.09937C323.021 9.09937 304.8 27.4684 304.8 50.1277C304.8 72.7871 323.021 91.1561 345.497 91.1561Z" fill="url(#paint4_linear)"/>
</g>
<path d="M345.609 90.186C353.394 90.1989 361.01 87.9014 367.508 83.5798C366.037 75.4903 360.453 75.0265 360.453 75.0265H329.652C329.652 75.0265 324.384 75.4619 322.734 82.9036C329.43 87.6538 337.421 90.1977 345.609 90.186Z" fill="#5271FF"/>
<path d="M345 71C357.15 71 367 61.1503 367 49C367 36.8497 357.15 27 345 27C332.85 27 323 36.8497 323 49C323 61.1503 332.85 71 345 71Z" fill="#72351C"/>
<path opacity="0.1" d="M338.982 65.1633H351.305V75.1009C351.306 75.9173 351.148 76.7259 350.839 77.4805C350.53 78.2351 350.077 78.9209 349.505 79.4987C348.933 80.0764 348.253 80.5348 347.505 80.8475C346.757 81.1602 345.955 81.3212 345.145 81.3212C343.512 81.3212 341.945 80.667 340.79 79.5024C339.635 78.3379 338.986 76.7584 338.986 75.1115V65.1633H338.982Z" fill="black"/>
<path d="M340.149 64.703H350.118C350.43 64.703 350.729 64.828 350.95 65.0504C351.171 65.2728 351.295 65.5745 351.295 65.889V74.6406C351.295 76.2875 350.646 77.8669 349.491 79.0315C348.335 80.196 346.769 80.8502 345.135 80.8502C343.502 80.8502 341.935 80.196 340.78 79.0315C339.625 77.8669 338.976 76.2875 338.976 74.6406V65.889C338.976 65.5745 339.1 65.2728 339.32 65.0504C339.541 64.828 339.84 64.703 340.152 64.703H340.149Z" fill="#FDA57D"/>
<path opacity="0.1" d="M338.997 69.8542C342.968 71.3506 347.34 71.3631 351.32 69.8896V68.3638H338.997V69.8542Z" fill="black"/>
<path opacity="0.1" d="M332.612 36.6887C332.612 36.6887 340.054 51.9119 361.057 43.0612L356.169 35.3327L347.505 32.196L332.612 36.6887Z" fill="black"/>
<path d="M345.192 70.6861C354.945 70.6861 362.852 62.7149 362.852 52.882C362.852 43.049 354.945 35.0779 345.192 35.0779C335.438 35.0779 327.531 43.049 327.531 52.882C327.531 62.7149 335.438 70.6861 345.192 70.6861Z" fill="#FDA57D"/>
<path d="M332.612 36.4658C332.612 36.4658 340.054 51.689 361.057 42.8383L356.169 35.1098L347.505 31.9731L332.612 36.4658Z" fill="#72351C"/>
<path d="M327.524 55.9693C328.432 55.9693 329.168 54.5792 329.168 52.8645C329.168 51.1497 328.432 49.7596 327.524 49.7596C326.617 49.7596 325.881 51.1497 325.881 52.8645C325.881 54.5792 326.617 55.9693 327.524 55.9693Z" fill="#FDA57D"/>
<path d="M362.849 55.9693C363.756 55.9693 364.492 54.5792 364.492 52.8645C364.492 51.1497 363.756 49.7596 362.849 49.7596C361.941 49.7596 361.205 51.1497 361.205 52.8645C361.205 54.5792 361.941 55.9693 362.849 55.9693Z" fill="#FDA57D"/>
<g opacity="0.5">
<path opacity="0.5" d="M153.989 179.961C176.466 179.961 194.686 161.592 194.686 138.932C194.686 116.273 176.466 97.9038 153.989 97.9038C131.513 97.9038 113.292 116.273 113.292 138.932C113.292 161.592 131.513 179.961 153.989 179.961Z" fill="url(#paint5_linear)"/>
</g>
<path d="M154.067 178.831C176.068 178.831 193.904 160.851 193.904 138.67C193.904 116.49 176.068 98.5093 154.067 98.5093C132.066 98.5093 114.23 116.49 114.23 138.67C114.23 160.851 132.066 178.831 154.067 178.831Z" fill="#F5F5F5"/>
<path d="M154.101 178.99C161.885 179.003 169.5 176.705 175.997 172.384C174.529 164.298 168.942 163.834 168.942 163.834H138.127C138.127 163.834 132.859 164.27 131.208 171.712C137.91 176.464 145.908 179.007 154.101 178.99Z" fill="#5271FF"/>
<path d="M153.68 157.211C164.301 157.211 172.91 148.531 172.91 137.824C172.91 127.117 164.301 118.438 153.68 118.438C143.06 118.438 134.45 127.117 134.45 137.824C134.45 148.531 143.06 157.211 153.68 157.211Z" fill="#333333"/>
<path opacity="0.1" d="M147.475 153.971H159.798V163.909C159.798 165.556 159.149 167.135 157.994 168.3C156.838 169.464 155.272 170.119 153.638 170.119C152.005 170.119 150.438 169.464 149.283 168.3C148.128 167.135 147.479 165.556 147.479 163.909V153.971H147.475Z" fill="black"/>
<path d="M148.652 153.511H158.621C158.933 153.511 159.232 153.636 159.453 153.858C159.674 154.081 159.798 154.383 159.798 154.697V163.456C159.798 165.103 159.149 166.682 157.994 167.847C156.838 169.011 155.272 169.665 153.638 169.665C152.829 169.666 152.028 169.506 151.28 169.194C150.532 168.882 149.853 168.425 149.28 167.848C148.708 167.271 148.254 166.587 147.944 165.833C147.635 165.079 147.475 164.272 147.475 163.456V154.694C147.475 154.379 147.599 154.077 147.82 153.855C148.04 153.633 148.34 153.508 148.652 153.508V153.511Z" fill="#FDB797"/>
<path opacity="0.1" d="M147.5 158.662C151.471 160.159 155.843 160.171 159.823 158.698V157.161H147.5V158.662Z" fill="black"/>
<path d="M153.68 159.494C163.434 159.494 171.341 151.523 171.341 141.69C171.341 131.857 163.434 123.886 153.68 123.886C143.927 123.886 136.02 131.857 136.02 141.69C136.02 151.523 143.927 159.494 153.68 159.494Z" fill="#FDB797"/>
<path opacity="0.1" d="M141.105 125.493C141.105 125.493 148.546 140.716 169.55 131.866L164.662 124.137L155.998 121.001L141.105 125.493Z" fill="black"/>
<path d="M141.105 125.27C141.105 125.27 148.546 140.493 169.55 131.643L164.662 123.914L155.998 120.778L141.105 125.27Z" fill="#333333"/>
<path d="M136.013 144.777C136.92 144.777 137.656 143.387 137.656 141.672C137.656 139.958 136.92 138.568 136.013 138.568C135.105 138.568 134.369 139.958 134.369 141.672C134.369 143.387 135.105 144.777 136.013 144.777Z" fill="#FDB797"/>
<path d="M171.337 144.777C172.245 144.777 172.981 143.387 172.981 141.672C172.981 139.958 172.245 138.568 171.337 138.568C170.43 138.568 169.694 139.958 169.694 141.672C169.694 143.387 170.43 144.777 171.337 144.777Z" fill="#FDB797"/>
<g opacity="0.5">
<path opacity="0.5" d="M154.281 272.196C176.757 272.196 194.978 253.827 194.978 231.167C194.978 208.508 176.757 190.139 154.281 190.139C131.804 190.139 113.583 208.508 113.583 231.167C113.583 253.827 131.804 272.196 154.281 272.196Z" fill="url(#paint6_linear)"/>
</g>
<path d="M154.281 271.105C176.282 271.105 194.118 253.124 194.118 230.944C194.118 208.764 176.282 190.783 154.281 190.783C132.28 190.783 114.444 208.764 114.444 230.944C114.444 253.124 132.28 271.105 154.281 271.105Z" fill="#F5F5F5"/>
<path d="M176.317 234.555C176.317 249.347 166.744 265.812 154.934 265.812C143.124 265.812 133.562 249.347 133.562 234.555C133.562 219.764 143.134 212.251 154.944 212.251C166.754 212.251 176.317 219.767 176.317 234.555Z" fill="#FDD835"/>
<path d="M154.393 271.229C162.178 271.242 169.794 268.944 176.292 264.623C174.824 256.537 169.237 256.073 169.237 256.073H138.436C138.436 256.073 133.169 256.509 131.518 263.95C138.215 268.699 146.206 271.242 154.393 271.229Z" fill="#5271FF"/>
<path opacity="0.1" d="M147.771 246.206H160.093V256.144C160.093 257.791 159.444 259.37 158.289 260.535C157.134 261.699 155.567 262.354 153.934 262.354C152.3 262.354 150.733 261.699 149.578 260.535C148.423 259.37 147.774 257.791 147.774 256.144V246.206H147.771Z" fill="black"/>
<path d="M148.947 245.746H158.917C159.229 245.746 159.528 245.871 159.748 246.093C159.969 246.316 160.093 246.618 160.093 246.932V255.684C160.093 257.331 159.444 258.91 158.289 260.075C157.134 261.239 155.567 261.893 153.933 261.893C152.3 261.893 150.733 261.239 149.578 260.075C148.423 258.91 147.774 257.331 147.774 255.684V246.932C147.774 246.618 147.897 246.317 148.117 246.095C148.337 245.872 148.635 245.747 148.947 245.746Z" fill="#FDB797"/>
<path opacity="0.1" d="M147.795 250.897C151.766 252.394 156.138 252.406 160.117 250.933V249.407H147.795V250.897Z" fill="black"/>
<path d="M153.976 251.729C163.729 251.729 171.636 243.758 171.636 233.925C171.636 224.092 163.729 216.121 153.976 216.121C144.222 216.121 136.315 224.092 136.315 233.925C136.315 243.758 144.222 251.729 153.976 251.729Z" fill="#FDB797"/>
<path d="M136.681 236.269C137.588 236.269 138.324 234.879 138.324 233.164C138.324 231.449 137.588 230.059 136.681 230.059C135.773 230.059 135.037 231.449 135.037 233.164C135.037 234.879 135.773 236.269 136.681 236.269Z" fill="#FDB797"/>
<path d="M171.179 236.269C172.087 236.269 172.823 234.879 172.823 233.164C172.823 231.449 172.087 230.059 171.179 230.059C170.271 230.059 169.536 231.449 169.536 233.164C169.536 234.879 170.271 236.269 171.179 236.269Z" fill="#FDB797"/>
<path opacity="0.1" d="M138.327 224.267C138.327 224.267 148.311 238.042 171.207 233.337C171.207 233.337 173.764 230.201 167.541 220.571C161.318 210.942 143.992 212.51 138.327 224.267Z" fill="black"/>
<path d="M138.327 224.044C138.327 224.044 148.311 237.819 171.207 233.114C171.207 233.114 173.764 229.978 167.541 220.348C161.318 210.719 143.992 212.287 138.327 224.044Z" fill="#FDD835"/>
<g opacity="0.5">
<path opacity="0.5" d="M250.962 276.901C273.438 276.901 291.659 258.532 291.659 235.872C291.659 213.213 273.438 194.844 250.962 194.844C228.485 194.844 210.265 213.213 210.265 235.872C210.265 258.532 228.485 276.901 250.962 276.901Z" fill="url(#paint7_linear)"/>
</g>
<path d="M251.042 275.771C273.044 275.771 290.879 257.79 290.879 235.61C290.879 213.43 273.044 195.449 251.042 195.449C229.041 195.449 211.206 213.43 211.206 235.61C211.206 257.79 229.041 275.771 251.042 275.771Z" fill="#F5F5F5"/>
<path d="M272.959 239.568C272.959 252.929 263.439 259.504 251.074 259.504C238.709 259.504 228.192 252.929 228.192 239.568C228.192 226.207 238.214 215.378 250.576 215.378C262.937 215.378 272.959 226.197 272.959 239.568Z" fill="#333333"/>
<path d="M251.074 275.931C258.86 275.944 266.477 273.647 272.976 269.324C271.509 261.238 265.921 260.775 265.921 260.775H235.117C235.117 260.775 229.849 261.21 228.199 268.652C234.896 273.401 242.886 275.943 251.074 275.931Z" fill="#5271FF"/>
<path opacity="0.1" d="M244.451 250.901H256.774V260.838C256.775 261.656 256.617 262.465 256.307 263.221C255.997 263.977 255.542 264.663 254.969 265.241C254.395 265.819 253.714 266.277 252.964 266.589C252.215 266.901 251.411 267.06 250.6 267.058C248.967 267.058 247.4 266.404 246.245 265.24C245.09 264.075 244.441 262.496 244.441 260.849V250.901H244.451Z" fill="black"/>
<path d="M245.624 250.451H255.594C255.906 250.451 256.205 250.576 256.426 250.799C256.647 251.021 256.771 251.323 256.771 251.637V260.389C256.771 261.205 256.611 262.013 256.301 262.768C255.99 263.522 255.536 264.207 254.963 264.783C254.39 265.36 253.709 265.817 252.961 266.129C252.212 266.44 251.41 266.6 250.6 266.598C248.967 266.598 247.4 265.944 246.245 264.78C245.09 263.615 244.441 262.036 244.441 260.389V251.634C244.441 251.319 244.565 251.017 244.785 250.795C245.006 250.573 245.305 250.448 245.617 250.448L245.624 250.451Z" fill="#FDA57D"/>
<path opacity="0.1" d="M244.476 255.602C248.447 257.099 252.819 257.111 256.798 255.638V254.112H244.476V255.602Z" fill="black"/>
<path d="M250.656 256.431C260.41 256.431 268.317 248.459 268.317 238.627C268.317 228.794 260.41 220.822 250.656 220.822C240.903 220.822 232.996 228.794 232.996 238.627C232.996 248.459 240.903 256.431 250.656 256.431Z" fill="#FDA57D"/>
<path opacity="0.1" d="M230.302 239.791C230.302 239.791 241.3 238.446 249.616 227.698C249.616 227.698 260.615 239.905 268.277 238.559C268.277 238.559 272.72 233.854 268.277 229.153C263.835 224.451 260.39 218.514 254.504 219.297C248.619 220.079 241.395 220.415 238.287 223.216C235.18 226.016 230.302 239.791 230.302 239.791Z" fill="black"/>
<path d="M230.302 239.568C230.302 239.568 241.3 238.223 249.616 227.475C249.616 227.475 260.615 239.682 268.277 238.336C268.277 238.336 272.72 233.631 268.277 228.93C263.835 224.228 260.39 218.291 254.504 219.074C248.619 219.856 241.409 220.178 238.301 223.01C235.194 225.843 230.302 239.568 230.302 239.568Z" fill="#333333"/>
<path d="M232.989 241.717C233.896 241.717 234.632 240.327 234.632 238.612C234.632 236.898 233.896 235.508 232.989 235.508C232.081 235.508 231.345 236.898 231.345 238.612C231.345 240.327 232.081 241.717 232.989 241.717Z" fill="#FDA57D"/>
<path d="M268.313 241.717C269.221 241.717 269.956 240.327 269.956 238.612C269.956 236.898 269.221 235.508 268.313 235.508C267.405 235.508 266.669 236.898 266.669 238.612C266.669 240.327 267.405 241.717 268.313 241.717Z" fill="#FDA57D"/>
<path d="M136.5 117C139.538 117 142 119.462 142 122.5C142 125.538 139.538 128 136.5 128C133.462 128 131 125.538 131 122.5C131 119.462 133.462 117 136.5 117Z" fill="#2F2E41"/>
<path d="M170.5 117C173.538 117 176 119.462 176 122.5C176 125.538 173.538 128 170.5 128C167.462 128 165 125.538 165 122.5C165 119.462 167.462 117 170.5 117Z" fill="#2F2E41"/>
<defs>
<linearGradient id="paint0_linear" x1="154.281" y1="93.3512" x2="154.281" y2="11.298" gradientUnits="userSpaceOnUse">
<stop stop-color="#808080" stop-opacity="0.25"/>
<stop offset="0.54" stop-color="#808080" stop-opacity="0.12"/>
<stop offset="1" stop-color="#808080" stop-opacity="0.1"/>
</linearGradient>
<linearGradient id="paint1_linear" x1="31551.2" y1="40325.6" x2="31551.2" y2="21307.3" gradientUnits="userSpaceOnUse">
<stop stop-color="#808080" stop-opacity="0.25"/>
<stop offset="0.54" stop-color="#808080" stop-opacity="0.12"/>
<stop offset="1" stop-color="#808080" stop-opacity="0.1"/>
</linearGradient>
<linearGradient id="paint2_linear" x1="31542.2" y1="19070.2" x2="31542.2" y2="51.1289" gradientUnits="userSpaceOnUse">
<stop stop-color="#808080" stop-opacity="0.25"/>
<stop offset="0.54" stop-color="#808080" stop-opacity="0.12"/>
<stop offset="1" stop-color="#808080" stop-opacity="0.1"/>
</linearGradient>
<linearGradient id="paint3_linear" x1="31639.4" y1="19162" x2="31639.4" y2="142.849" gradientUnits="userSpaceOnUse">
<stop stop-color="#808080" stop-opacity="0.25"/>
<stop offset="0.54" stop-color="#808080" stop-opacity="0.12"/>
<stop offset="1" stop-color="#808080" stop-opacity="0.1"/>
</linearGradient>
<linearGradient id="paint4_linear" x1="54125.2" y1="19027.4" x2="54125.2" y2="9.09937" gradientUnits="userSpaceOnUse">
<stop stop-color="#808080" stop-opacity="0.25"/>
<stop offset="0.54" stop-color="#808080" stop-opacity="0.12"/>
<stop offset="1" stop-color="#808080" stop-opacity="0.1"/>
</linearGradient>
<linearGradient id="paint5_linear" x1="9546.08" y1="39700.1" x2="9546.08" y2="20681.8" gradientUnits="userSpaceOnUse">
<stop stop-color="#808080" stop-opacity="0.25"/>
<stop offset="0.54" stop-color="#808080" stop-opacity="0.12"/>
<stop offset="1" stop-color="#808080" stop-opacity="0.1"/>
</linearGradient>
<linearGradient id="paint6_linear" x1="9613.93" y1="61170.6" x2="9613.93" y2="42152.3" gradientUnits="userSpaceOnUse">
<stop stop-color="#808080" stop-opacity="0.25"/>
<stop offset="0.54" stop-color="#808080" stop-opacity="0.12"/>
<stop offset="1" stop-color="#808080" stop-opacity="0.1"/>
</linearGradient>
<linearGradient id="paint7_linear" x1="32119.3" y1="62265.8" x2="32119.3" y2="43247.5" gradientUnits="userSpaceOnUse">
<stop stop-color="#808080" stop-opacity="0.25"/>
<stop offset="0.54" stop-color="#808080" stop-opacity="0.12"/>
<stop offset="1" stop-color="#808080" stop-opacity="0.1"/>
</linearGradient>
</defs>
</svg>
