<svg width="322" height="234" viewBox="0 0 322 234" fill="none" xmlns="http://www.w3.org/2000/svg">
<g opacity="0.5">
<path opacity="0.5" d="M201.853 32.8327L115.154 33.0439C114.686 33.0449 114.223 33.1382 113.791 33.3183C113.359 33.4984 112.967 33.7619 112.637 34.0936C112.307 34.4254 112.045 34.8189 111.867 35.2517C111.69 35.6846 111.599 36.1482 111.6 36.6162L111.994 198.773C111.995 199.241 112.088 199.704 112.268 200.136C112.448 200.568 112.712 200.96 113.044 201.29C113.375 201.62 113.769 201.882 114.202 202.06C114.634 202.238 115.098 202.329 115.566 202.327L202.265 202.116C202.733 202.115 203.197 202.022 203.629 201.841C204.061 201.661 204.453 201.397 204.783 201.065C205.113 200.733 205.375 200.339 205.552 199.906C205.73 199.473 205.821 199.009 205.819 198.541L205.425 36.3841C205.424 35.9164 205.33 35.4535 205.15 35.0219C204.97 34.5902 204.706 34.1983 204.375 33.8686C204.043 33.5388 203.65 33.2776 203.217 33.0998C202.784 32.9221 202.321 32.8313 201.853 32.8327V32.8327Z" fill="url(#paint0_linear)"/>
</g>
<path d="M200.598 35.0466L116.42 35.2523C114.456 35.2571 112.868 36.8533 112.872 38.8176L113.258 196.484C113.263 198.448 114.859 200.037 116.823 200.032L201 199.826C202.965 199.821 204.553 198.225 204.548 196.261L204.163 38.5945C204.158 36.6303 202.562 35.0418 200.598 35.0466Z" fill="white"/>
<path opacity="0.4" d="M181.964 39.0392C181.702 40.7902 180.816 42.3903 179.468 43.5503C178.119 44.7102 176.396 45.3534 174.611 45.3635L142.749 45.4393C140.965 45.4361 139.241 44.8006 137.888 43.6475C136.535 42.4945 135.643 40.8998 135.372 39.1515L118.496 39.1933C118.036 39.1943 117.581 39.2852 117.156 39.4608C116.731 39.6363 116.345 39.8931 116.021 40.2165C115.696 40.5398 115.439 40.9234 115.264 41.3453C115.089 41.7672 114.999 42.2192 115 42.6755L115.366 192.534C115.367 192.99 115.459 193.442 115.636 193.863C115.813 194.284 116.073 194.667 116.399 194.989C116.726 195.311 117.113 195.566 117.539 195.739C117.964 195.913 118.421 196.001 118.881 196L199.504 195.807C199.964 195.806 200.419 195.715 200.844 195.539C201.269 195.364 201.655 195.107 201.979 194.784C202.304 194.46 202.561 194.077 202.736 193.655C202.911 193.233 203.001 192.781 203 192.325L202.634 42.4665C202.633 42.0102 202.541 41.5587 202.364 41.1375C202.187 40.7164 201.928 40.334 201.602 40.0121C201.276 39.6902 200.889 39.4351 200.463 39.2615C200.038 39.0878 199.582 38.999 199.122 39L181.964 39.0392Z" fill="#5271FF"/>
<path d="M167.339 41.1195L148.041 41.4092C147.753 41.4135 147.523 41.6505 147.527 41.9385L147.531 42.1679C147.535 42.4559 147.772 42.6859 148.06 42.6815L167.358 42.3918C167.646 42.3875 167.876 42.1506 167.872 41.8626L167.869 41.6331C167.864 41.3452 167.627 41.1152 167.339 41.1195Z" fill="#DBDBDB"/>
<path d="M172.199 42.3166C172.621 42.3103 172.958 41.9632 172.951 41.5413C172.945 41.1194 172.598 40.7825 172.176 40.7888C171.754 40.7952 171.417 41.1423 171.424 41.5642C171.43 41.9861 171.777 42.323 172.199 42.3166Z" fill="#DBDBDB"/>
<g opacity="0.5">
<path opacity="0.5" d="M169.364 152.944C169.366 148.494 168.215 144.119 166.024 140.245C163.833 136.372 160.676 133.131 156.862 130.84C153.047 128.548 148.703 127.283 144.255 127.168C139.806 127.053 135.403 128.092 131.475 130.184C127.547 132.276 124.227 135.349 121.839 139.104C119.451 142.859 118.076 147.169 117.848 151.613C117.62 156.058 118.546 160.485 120.537 164.466C122.528 168.446 125.515 171.842 129.209 174.325L129.224 174.44C130.066 175.247 131.06 175.879 132.147 176.299L132.181 176.185C133.388 177.228 138.47 178.878 144.309 178.862H144.436C148.134 178.862 152.149 178.211 155.68 176.299C155.68 176.299 155.711 176.231 155.758 176.104C156.652 175.684 157.473 175.122 158.188 174.44C158.202 174.341 158.216 174.244 158.23 174.148C161.665 171.78 164.473 168.613 166.413 164.919C168.352 161.226 169.365 157.116 169.364 152.944V152.944Z" fill="url(#paint1_linear)"/>
</g>
<path d="M143 178C156.807 178 168 166.807 168 153C168 139.193 156.807 128 143 128C129.193 128 118 139.193 118 153C118 166.807 129.193 178 143 178Z" fill="#F5F5F5"/>
<path d="M134.322 163C134.322 163 128.78 163.482 130.247 174.211C131.006 174.987 131.902 175.595 132.884 176L136 164.789L134.322 163Z" fill="#FDA57D"/>
<path d="M153.678 163C153.678 163 159.22 163.482 157.753 174.211C156.994 174.987 156.098 175.595 155.116 176L152 164.784L153.678 163Z" fill="#FDA57D"/>
<path d="M134.366 145.008C134.366 145.008 131.541 153.756 130 152.926C130 152.926 144.869 166.592 158 152.926C158 152.926 155.687 148.553 152.348 145L134.366 145.008Z" fill="#333333"/>
<path d="M144 156C150.075 156 155 151.075 155 145C155 138.925 150.075 134 144 134C137.925 134 133 138.925 133 145C133 151.075 137.925 156 144 156Z" fill="#333333"/>
<path opacity="0.1" d="M153.522 163H134.205L132.402 170.421C132.402 170.421 131.344 173.856 132.662 175.367C133.981 176.878 146.285 180.313 155.333 175.617C156.122 173.639 156.214 171.467 155.594 169.435C154.551 165.972 155.333 169.185 155.333 169.185L153.522 163Z" fill="black"/>
<path opacity="0.1" d="M153.525 163H134.205L132.402 170.421C132.402 170.421 131.344 173.856 132.662 175.367C133.981 176.878 146.286 180.313 155.333 175.617C156.122 173.639 156.214 171.467 155.594 169.435C154.551 165.972 155.333 169.185 155.333 169.185L153.525 163Z" fill="black"/>
<path d="M153.525 163H134.205L132.402 170.421C132.402 170.421 131.344 173.856 132.662 175.367C133.981 176.878 146.285 180.313 155.333 175.617C156.122 173.639 156.214 171.467 155.594 169.435C154.551 165.972 155.333 169.185 155.333 169.185L153.525 163Z" fill="#5271FF"/>
<path opacity="0.1" d="M140.005 157H147V164.445C147 164.78 146.94 165.113 146.823 165.423C146.707 165.733 146.536 166.014 146.32 166.252C146.104 166.489 145.849 166.677 145.567 166.805C145.285 166.934 144.983 167 144.678 167H142.322C141.706 167 141.115 166.731 140.68 166.252C140.245 165.772 140 165.123 140 164.445V157H140.005Z" fill="black"/>
<path d="M140.005 157H147V164.445C147 164.78 146.94 165.113 146.823 165.423C146.707 165.733 146.536 166.014 146.32 166.252C146.104 166.489 145.849 166.677 145.567 166.806C145.285 166.934 144.983 167 144.678 167H142.322C141.706 167 141.115 166.731 140.68 166.252C140.245 165.772 140 165.123 140 164.445V157H140.005Z" fill="#FDA57D"/>
<path opacity="0.1" d="M140 158.137C142.256 159.279 144.739 159.288 147 158.163V157H140V158.137Z" fill="black"/>
<path d="M144 159C150.075 159 155 153.851 155 147.5C155 141.149 150.075 136 144 136C137.925 136 133 141.149 133 147.5C133 153.851 137.925 159 144 159Z" fill="#FDA57D"/>
<path d="M133 143H155C155 143 153.122 134.481 144.806 135.025C136.49 135.569 133 143 133 143Z" fill="#333333"/>
<path d="M133 148C133.552 148 134 147.328 134 146.5C134 145.672 133.552 145 133 145C132.448 145 132 145.672 132 146.5C132 147.328 132.448 148 133 148Z" fill="#FDA57D"/>
<path d="M155 148C155.552 148 156 147.328 156 146.5C156 145.672 155.552 145 155 145C154.448 145 154 145.672 154 146.5C154 147.328 154.448 148 155 148Z" fill="#FDA57D"/>
<path opacity="0.1" d="M133 143H155C155 143 153.122 134.481 144.806 135.025C136.49 135.569 133 143 133 143Z" fill="black"/>
<g opacity="0.5">
<path opacity="0.5" d="M148.47 84.946C148.469 80.4957 149.619 76.1208 151.81 72.2472C154.001 68.3736 157.158 65.1333 160.973 62.8417C164.788 60.5501 169.131 59.2853 173.58 59.1703C178.028 59.0554 182.431 60.0943 186.359 62.1859C190.287 64.2775 193.607 67.3506 195.995 71.1059C198.383 74.8612 199.758 79.1708 199.986 83.6152C200.215 88.0596 199.288 92.4874 197.297 96.4675C195.306 100.448 192.319 103.844 188.626 106.327L188.61 106.442C187.77 107.256 186.776 107.895 185.687 108.322L185.653 108.207C184.446 109.25 179.364 110.901 173.526 110.885H173.398C169.7 110.885 165.685 110.233 162.154 108.322C162.154 108.322 162.123 108.254 162.076 108.127C161.182 107.706 160.361 107.145 159.646 106.463C159.632 106.364 159.618 106.267 159.604 106.171C156.166 103.801 153.356 100.631 151.417 96.933C149.477 93.2354 148.466 89.1215 148.47 84.946V84.946Z" fill="url(#paint2_linear)"/>
</g>
<path d="M174.5 110C188.031 110 199 98.8071 199 85C199 71.1929 188.031 60 174.5 60C160.969 60 150 71.1929 150 85C150 98.8071 160.969 110 174.5 110Z" fill="#F5F5F5"/>
<path d="M164.322 94C164.322 94 158.78 94.5193 160.247 106.078C161.007 106.912 161.903 107.565 162.884 108L166 95.9218L164.322 94Z" fill="#BE7C5E"/>
<path d="M183.678 94C183.678 94 189.22 94.5193 187.753 106.078C186.994 106.912 186.097 107.565 185.116 108L182 95.9218L183.678 94Z" fill="#BE7C5E"/>
<path d="M164.653 76.0134C164.653 76.0134 164.185 77.3902 163.524 78.9713C162.079 82.467 163.728 95.8339 167.184 97.2564C171.063 98.8698 176.163 99.8808 181.463 97.9259C186.066 96.2265 187.487 80.9854 184.23 77.288C183.848 76.8524 183.449 76.4195 183.032 76L164.653 76.0134Z" fill="#333333"/>
<path d="M174 87C180.075 87 185 82.0751 185 76C185 69.9249 180.075 65 174 65C167.925 65 163 69.9249 163 76C163 82.0751 167.925 87 174 87Z" fill="#333333"/>
<path opacity="0.1" d="M183.525 94H164.205L162.402 101.915C162.402 101.915 161.344 105.579 162.662 107.191C163.981 108.803 176.286 112.467 185.333 107.458C186.122 105.348 186.214 103.032 185.594 100.864C184.551 97.1704 185.333 100.597 185.333 100.597L183.525 94Z" fill="black"/>
<path opacity="0.1" d="M183.525 94H164.205L162.402 101.915C162.402 101.915 161.344 105.579 162.662 107.191C163.981 108.803 176.286 112.467 185.333 107.458C186.122 105.348 186.214 103.032 185.594 100.864C184.551 97.1704 185.333 100.597 185.333 100.597L183.525 94Z" fill="black"/>
<path d="M183.522 94H164.205L162.402 101.915C162.402 101.915 161.344 105.579 162.662 107.191C163.981 108.803 176.286 112.467 185.333 107.458C186.122 105.348 186.214 103.032 185.594 100.864C184.551 97.1704 185.333 100.597 185.333 100.597L183.522 94Z" fill="#F55F44"/>
<path opacity="0.1" d="M170.011 88H178V95.4449C178 96.1225 177.72 96.7724 177.223 97.2516C176.725 97.7308 176.05 98 175.347 98H172.653C171.95 98 171.275 97.7308 170.777 97.2516C170.28 96.7724 170 96.1225 170 95.4449V88H170.011Z" fill="black"/>
<path d="M170.011 88H178V95.4449C178 96.1225 177.72 96.7724 177.223 97.2516C176.725 97.7308 176.05 98 175.347 98H172.653C171.95 98 171.275 97.7308 170.777 97.2516C170.28 96.7724 170 96.1225 170 95.4449V88H170.011Z" fill="#BE7C5E"/>
<path opacity="0.1" d="M170 89.1375C172.578 90.2787 175.417 90.2877 178 89.163V88H170V89.1375Z" fill="black"/>
<path d="M174 89C180.075 89 185 84.0751 185 78C185 71.9249 180.075 67 174 67C167.925 67 163 71.9249 163 78C163 84.0751 167.925 89 174 89Z" fill="#BE7C5E"/>
<path d="M164 74H185C185 74 183.207 65.481 175.269 66.025C167.332 66.569 164 74 164 74Z" fill="#333333"/>
<path d="M163 80C163.552 80 164 78.8807 164 77.5C164 76.1193 163.552 75 163 75C162.448 75 162 76.1193 162 77.5C162 78.8807 162.448 80 163 80Z" fill="#BE7C5E"/>
<path d="M185 80C185.552 80 186 78.8807 186 77.5C186 76.1193 185.552 75 185 75C184.448 75 184 76.1193 184 77.5C184 78.8807 184.448 80 185 80Z" fill="#BE7C5E"/>
<path opacity="0.1" d="M164 74H185C185 74 183.207 65.481 175.269 66.025C167.332 66.569 164 74 164 74Z" fill="black"/>
<g opacity="0.5">
<path opacity="0.5" d="M59.3096 62.5894V99.8034H117.942C117.942 99.8034 122.27 108.322 129.712 110.799C129.712 110.799 127.336 104.765 129.816 99.8034H146.139V62.5894H59.3096Z" fill="url(#paint3_linear)"/>
</g>
<path d="M62 64V99.5263H119.857C119.857 99.5263 119.857 106.632 126.8 109C126.8 109 124.486 104.263 126.8 99.5263H143V64H62Z" fill="white"/>
<path d="M115 71H68V75H115V71Z" fill="#5271FF"/>
<path d="M132 77H68V83H132V77Z" fill="#5271FF"/>
<path d="M125 85H68V90H125V85Z" fill="#5271FF"/>
<g opacity="0.5">
<path opacity="0.5" d="M258.783 134.295V171.509H200.154C200.154 171.509 195.825 180.028 188.381 182.505C188.381 182.505 190.756 176.471 188.276 171.509H171.954V134.295H258.783Z" fill="url(#paint4_linear)"/>
</g>
<path d="M257 136V170.737H198.429C198.429 170.737 198.429 177.684 191.4 180C191.4 180 193.743 175.368 191.4 170.737H175V136H257Z" fill="white"/>
<path d="M231 143H184V147H231V143Z" fill="#5271FF"/>
<path d="M247 149H184V154H247V149Z" fill="#5271FF"/>
<path d="M240 157H184V162H240V157Z" fill="#5271FF"/>
<g opacity="0.5">
<path opacity="0.5" d="M80.6914 207.537H79.9092V211.97H80.6914V207.537Z" fill="#47E6B1"/>
<path opacity="0.5" d="M82.5166 210.144V209.362H78.0839V210.144H82.5166Z" fill="#47E6B1"/>
</g>
<g opacity="0.5">
<path opacity="0.5" d="M223.843 71.4261H223.061V75.8589H223.843V71.4261Z" fill="#47E6B1"/>
<path opacity="0.5" d="M225.668 74.0336V73.2514H221.235V74.0336H225.668Z" fill="#47E6B1"/>
</g>
<g opacity="0.5">
<path opacity="0.5" d="M240.53 180.941H239.748V185.373H240.53V180.941Z" fill="#47E6B1"/>
<path opacity="0.5" d="M242.355 183.548V182.766H237.923V183.548H242.355Z" fill="#47E6B1"/>
</g>
<g opacity="0.5">
<path opacity="0.5" d="M191.249 21.3624H190.467V25.7951H191.249V21.3624Z" fill="#47E6B1"/>
<path opacity="0.5" d="M193.074 23.9699V23.1877H188.641V23.9699H193.074Z" fill="#47E6B1"/>
</g>
<path opacity="0.5" d="M125.753 207.042C125.569 206.932 125.421 206.735 125.338 206.49C125.256 206.245 125.243 205.967 125.303 205.71C125.313 205.67 125.319 205.629 125.321 205.587V205.587C125.327 205.469 125.304 205.351 125.255 205.251C125.206 205.151 125.135 205.075 125.051 205.034C124.967 204.993 124.876 204.989 124.79 205.023C124.705 205.056 124.63 205.126 124.576 205.221V205.221C124.558 205.255 124.543 205.291 124.531 205.329C124.449 205.575 124.302 205.772 124.117 205.882C123.933 205.993 123.725 206.009 123.533 205.929C123.503 205.916 123.472 205.908 123.441 205.905V205.905C123.352 205.898 123.263 205.929 123.188 205.993C123.113 206.058 123.056 206.154 123.026 206.265C122.995 206.377 122.992 206.499 123.017 206.613C123.042 206.727 123.095 206.827 123.166 206.898V206.898C123.191 206.922 123.218 206.942 123.247 206.958C123.431 207.068 123.579 207.265 123.662 207.51C123.744 207.755 123.757 208.033 123.697 208.29C123.687 208.33 123.681 208.371 123.679 208.413V208.413C123.673 208.531 123.696 208.649 123.745 208.749C123.794 208.849 123.865 208.925 123.949 208.966C124.033 209.007 124.124 209.011 124.21 208.977C124.295 208.944 124.37 208.874 124.424 208.779V208.779C124.442 208.745 124.457 208.709 124.469 208.671C124.551 208.425 124.698 208.228 124.883 208.118C125.067 208.007 125.275 207.991 125.467 208.071C125.497 208.084 125.528 208.092 125.559 208.095V208.095C125.648 208.102 125.737 208.071 125.812 208.007C125.887 207.942 125.944 207.846 125.974 207.735C126.005 207.623 126.008 207.501 125.983 207.387C125.958 207.273 125.905 207.173 125.834 207.102V207.102C125.809 207.078 125.782 207.058 125.753 207.042V207.042Z" fill="#4D8AF0"/>
<path opacity="0.5" d="M73.5848 124.031C73.2781 123.921 73.0326 123.726 72.8945 123.482C72.7565 123.238 72.7355 122.962 72.8355 122.707C72.8515 122.667 72.8616 122.626 72.8655 122.584V122.584C72.8751 122.466 72.8365 122.349 72.7555 122.25C72.6745 122.15 72.5554 122.075 72.416 122.034C72.2766 121.993 72.1243 121.989 71.9819 122.023C71.8395 122.056 71.7144 122.126 71.6255 122.22V122.22C71.5954 122.254 71.5702 122.29 71.5506 122.328C71.4128 122.572 71.1676 122.767 70.8611 122.877C70.5546 122.987 70.2082 123.004 69.8873 122.924C69.8374 122.912 69.7859 122.904 69.7337 122.9C69.5854 122.893 69.438 122.924 69.3135 122.988C69.189 123.053 69.0939 123.147 69.0425 123.258C68.9912 123.369 68.9862 123.491 69.0284 123.604C69.0706 123.717 69.1576 123.817 69.2766 123.888V123.888C69.3185 123.912 69.3638 123.932 69.4115 123.948C69.7181 124.057 69.9637 124.253 70.1017 124.497C70.2398 124.741 70.2608 125.017 70.1607 125.272C70.1447 125.312 70.1347 125.353 70.1308 125.394V125.394C70.1151 125.515 70.1496 125.635 70.2291 125.738C70.3085 125.841 70.4284 125.921 70.5701 125.964C70.7118 126.007 70.8675 126.012 71.0129 125.977C71.1584 125.943 71.2855 125.871 71.3745 125.773V125.773C71.4046 125.74 71.4298 125.704 71.4494 125.666C71.5872 125.422 71.8324 125.226 72.1389 125.116C72.4454 125.006 72.7918 124.99 73.1127 125.069C73.1626 125.082 73.2141 125.09 73.2663 125.093V125.093C73.4146 125.101 73.562 125.07 73.6865 125.005C73.8111 124.941 73.9061 124.846 73.9575 124.735C74.0088 124.624 74.0138 124.503 73.9716 124.389C73.9294 124.276 73.8424 124.176 73.7234 124.106C73.6813 124.076 73.6347 124.051 73.5848 124.031V124.031Z" fill="#4D8AF0"/>
<path opacity="0.5" d="M101.751 147.031C101.567 146.921 101.42 146.726 101.337 146.482C101.254 146.238 101.241 145.962 101.301 145.707C101.311 145.667 101.317 145.626 101.319 145.584V145.584C101.325 145.466 101.302 145.349 101.253 145.25C101.205 145.15 101.133 145.075 101.05 145.034C100.966 144.993 100.875 144.989 100.789 145.023C100.704 145.056 100.629 145.126 100.575 145.22V145.22C100.557 145.254 100.542 145.29 100.53 145.328C100.448 145.572 100.301 145.767 100.117 145.877C99.9328 145.987 99.7249 146.004 99.5324 145.924C99.5025 145.912 99.4715 145.904 99.4402 145.9V145.9C99.3512 145.893 99.2628 145.924 99.1881 145.988C99.1134 146.053 99.0563 146.147 99.0255 146.258C98.9947 146.369 98.9917 146.491 99.017 146.604C99.0423 146.717 99.0946 146.817 99.166 146.888C99.1911 146.912 99.2183 146.932 99.2469 146.948C99.4309 147.057 99.5782 147.253 99.661 147.497C99.7439 147.741 99.7565 148.017 99.6964 148.272C99.6868 148.312 99.6808 148.353 99.6785 148.394V148.394C99.669 148.515 99.6898 148.635 99.7374 148.738C99.7851 148.841 99.857 148.921 99.9421 148.964C100.027 149.007 100.12 149.012 100.208 148.977C100.295 148.943 100.371 148.871 100.425 148.773V148.773C100.443 148.74 100.458 148.704 100.47 148.666C100.552 148.422 100.699 148.226 100.883 148.116C101.067 148.006 101.275 147.99 101.468 148.069C101.498 148.082 101.528 148.09 101.56 148.093V148.093C101.649 148.101 101.737 148.07 101.812 148.005C101.887 147.941 101.944 147.846 101.974 147.735C102.005 147.624 102.008 147.503 101.983 147.389C101.958 147.276 101.905 147.176 101.834 147.106V147.106C101.809 147.076 101.781 147.051 101.751 147.031V147.031Z" fill="#4D8AF0"/>
<path opacity="0.5" d="M263.751 208.539C263.567 208.402 263.42 208.158 263.337 207.853C263.254 207.547 263.241 207.203 263.301 206.883C263.311 206.834 263.317 206.782 263.319 206.73V206.73C263.325 206.583 263.302 206.436 263.253 206.312C263.205 206.188 263.133 206.093 263.05 206.042C262.966 205.991 262.875 205.986 262.789 206.028C262.704 206.07 262.629 206.157 262.575 206.275V206.275C262.557 206.317 262.542 206.362 262.53 206.41C262.448 206.715 262.301 206.959 262.117 207.097C261.933 207.234 261.725 207.255 261.532 207.155C261.502 207.139 261.472 207.129 261.44 207.126C261.351 207.116 261.263 207.154 261.188 207.235C261.113 207.316 261.056 207.434 261.026 207.573C260.995 207.712 260.992 207.863 261.017 208.005C261.042 208.147 261.095 208.271 261.166 208.36C261.191 208.39 261.218 208.415 261.247 208.434C261.431 208.571 261.578 208.816 261.661 209.121C261.744 209.426 261.756 209.771 261.696 210.09C261.687 210.14 261.681 210.191 261.678 210.243C261.669 210.393 261.69 210.544 261.737 210.673C261.785 210.802 261.857 210.901 261.942 210.955C262.027 211.009 262.12 211.015 262.208 210.972C262.295 210.928 262.371 210.839 262.425 210.717C262.443 210.675 262.458 210.63 262.47 210.582C262.552 210.277 262.699 210.033 262.883 209.895C263.067 209.758 263.275 209.737 263.468 209.836C263.498 209.852 263.528 209.862 263.56 209.866C263.649 209.876 263.737 209.837 263.812 209.757C263.887 209.676 263.944 209.558 263.974 209.419C264.005 209.28 264.008 209.129 263.983 208.987C263.958 208.845 263.905 208.721 263.834 208.632V208.632C263.809 208.595 263.781 208.564 263.751 208.539V208.539Z" fill="#4D8AF0"/>
<path opacity="0.5" d="M59.5 195C60.3284 195 61 194.328 61 193.5C61 192.672 60.3284 192 59.5 192C58.6716 192 58 192.672 58 193.5C58 194.328 58.6716 195 59.5 195Z" fill="#F55F44"/>
<path opacity="0.5" d="M236.5 40C237.328 40 238 39.3284 238 38.5C238 37.6716 237.328 37 236.5 37C235.672 37 235 37.6716 235 38.5C235 39.3284 235.672 40 236.5 40Z" fill="#4D8AF0"/>
<path opacity="0.5" d="M85.5 43C86.3284 43 87 42.3284 87 41.5C87 40.6716 86.3284 40 85.5 40C84.6716 40 84 40.6716 84 41.5C84 42.3284 84.6716 43 85.5 43Z" fill="#47E6B1"/>
<path opacity="0.5" d="M237.5 113C238.328 113 239 112.328 239 111.5C239 110.672 238.328 110 237.5 110C236.672 110 236 110.672 236 111.5C236 112.328 236.672 113 237.5 113Z" fill="#F55F44"/>
<defs>
<linearGradient id="paint0_linear" x1="121.828" y1="205.263" x2="195.593" y2="29.8906" gradientUnits="userSpaceOnUse">
<stop stop-color="#808080" stop-opacity="0.25"/>
<stop offset="0.54" stop-color="#808080" stop-opacity="0.12"/>
<stop offset="1" stop-color="#808080" stop-opacity="0.1"/>
</linearGradient>
<linearGradient id="paint1_linear" x1="27604.8" y1="35728.6" x2="27604.8" y2="25476" gradientUnits="userSpaceOnUse">
<stop stop-color="#808080" stop-opacity="0.25"/>
<stop offset="0.54" stop-color="#808080" stop-opacity="0.12"/>
<stop offset="1" stop-color="#808080" stop-opacity="0.1"/>
</linearGradient>
<linearGradient id="paint2_linear" x1="30947" y1="22186.5" x2="30947" y2="11929.7" gradientUnits="userSpaceOnUse">
<stop stop-color="#808080" stop-opacity="0.25"/>
<stop offset="0.54" stop-color="#808080" stop-opacity="0.12"/>
<stop offset="1" stop-color="#808080" stop-opacity="0.1"/>
</linearGradient>
<linearGradient id="paint3_linear" x1="32750.5" y1="20672.3" x2="32750.5" y2="11758.8" gradientUnits="userSpaceOnUse">
<stop stop-color="#808080" stop-opacity="0.25"/>
<stop offset="0.54" stop-color="#808080" stop-opacity="0.12"/>
<stop offset="1" stop-color="#808080" stop-opacity="0.1"/>
</linearGradient>
<linearGradient id="paint4_linear" x1="-286797" y1="34001.7" x2="-286797" y2="25088.2" gradientUnits="userSpaceOnUse">
<stop stop-color="#808080" stop-opacity="0.25"/>
<stop offset="0.54" stop-color="#808080" stop-opacity="0.12"/>
<stop offset="1" stop-color="#808080" stop-opacity="0.1"/>
</linearGradient>
</defs>
</svg>
