<svg width="1110" height="651" viewBox="0 0 1110 651" fill="none" xmlns="http://www.w3.org/2000/svg">
<g clip-path="url(#clip0)">
<path d="M226 257C226 274.94 221.728 292.623 213.538 308.585C205.347 324.546 193.474 338.328 178.9 348.79C174.92 351.662 170.754 354.268 166.43 356.59C142.743 369.269 115.322 373.118 89.06 367.45C83.4688 366.25 77.979 364.619 72.64 362.57C53.401 355.216 36.5377 342.744 23.8724 326.502C11.2071 310.259 3.22149 290.865 0.77859 270.413C-1.66431 249.962 1.52838 229.232 10.0116 210.464C18.4949 191.695 31.9461 175.602 48.9117 163.923C65.8772 152.245 85.7118 145.424 106.272 144.2C126.832 142.975 147.336 147.393 165.568 156.976C183.8 166.558 199.066 180.941 209.717 198.57C220.368 216.199 225.998 236.403 226 257V257Z" fill="#3F3D56"/>
<path d="M153.469 258.147L152.859 258.346L125.238 267.287C117.215 269.883 109.075 272.503 100.653 272.917C94.5519 273.216 88.6812 272.105 82.677 271.234C79.2828 270.74 75.7575 270.81 74.1901 267.246C72.0273 262.328 73.6004 254.46 73.5548 249.212C73.4956 244.064 73.1897 238.817 71.5705 233.921C71.2092 232.82 70.779 231.744 70.2824 230.698C68.9074 227.817 66.9428 224.887 67.4228 221.732C67.7997 219.229 69.6429 217.249 71.3692 215.413C74.7526 211.83 78.1687 207.86 79.0889 202.998C79.5435 200.638 79.382 198.178 79.895 195.829C80.8664 191.361 84.2341 187.696 88.2094 185.487C92.1848 183.277 96.7412 182.352 101.255 181.798C105.24 181.31 109.253 181.088 113.268 181.134C117.646 181.173 122.107 181.574 126.157 183.26C130.207 184.946 133.83 188.079 135.239 192.266C137.233 198.188 134.559 205.082 137.143 210.752C138.445 213.62 140.905 215.763 142.743 218.308C144.248 220.441 145.312 222.856 145.871 225.41C146.43 227.964 146.473 230.604 145.997 233.173C144.886 239.003 141.179 245.218 144.101 250.38C145.96 253.663 149.852 255.06 152.742 257.488C152.999 257.706 153.242 257.926 153.469 258.147Z" fill="#454B69"/>
<path d="M778 192C778.01 211.4 773.022 230.475 763.516 247.386C754.01 264.297 740.308 278.474 723.73 288.55C721.73 289.77 719.69 290.92 717.61 292.02C714.51 293.66 711.32 295.16 708.06 296.49V296.5C707.02 296.93 705.98 297.34 704.93 297.73C704.44 297.92 703.94 298.11 703.44 298.29C691.111 302.734 678.105 305.004 665 305C656.394 305.006 647.816 304.033 639.43 302.1C635.075 301.092 630.784 299.823 626.58 298.3H626.57C621.235 296.367 616.053 294.034 611.07 291.32C609.77 290.62 608.49 289.89 607.23 289.13C606.35 288.61 605.49 288.08 604.63 287.54C588.022 277.046 574.437 262.404 565.214 245.058C555.992 227.712 551.45 208.262 552.038 188.625C552.626 168.989 558.322 149.845 568.566 133.081C578.81 116.318 593.246 102.515 610.452 93.0334C627.658 83.5517 647.038 78.7192 666.681 79.0126C686.324 79.306 705.552 84.715 722.467 94.7063C739.381 104.697 753.4 118.926 763.138 135.987C772.876 153.049 777.999 172.355 778 192V192Z" fill="#3F3D56"/>
<path d="M662 191C679.121 191 693 176.225 693 158C693 139.775 679.121 125 662 125C644.879 125 631 139.775 631 158C631 176.225 644.879 191 662 191Z" fill="#2F2E41"/>
<path d="M871.698 18.2377H871.698C845.156 18.2377 823.64 42.1161 823.64 71.5717V108.995H835.149L841.813 95.1295L840.147 108.995H914.127L920.185 96.39L918.671 108.995H927V79.611C927 45.7155 902.24 18.2377 871.698 18.2377Z" fill="#2F2E41"/>
<path d="M588.429 651C876.413 651 1109.87 635.33 1109.87 616C1109.87 596.67 876.413 581 588.429 581C300.444 581 66.9865 596.67 66.9865 616C66.9865 635.33 300.444 651 588.429 651Z" fill="#3F3D56"/>
<path d="M237.146 603.521C236.917 603.146 231.506 594.111 229.63 575.35C227.909 558.137 229.016 529.123 244.062 488.651C272.568 411.98 237.493 350.118 237.135 349.502L238.865 348.498C238.956 348.654 248.007 364.427 253.353 389.542C260.418 422.84 257.846 457.461 245.937 489.349C217.48 565.889 238.637 602.122 238.853 602.479L237.146 603.521Z" fill="#3F3D56"/>
<path d="M226 345C233.18 345 239 339.18 239 332C239 324.82 233.18 319 226 319C218.82 319 213 324.82 213 332C213 339.18 218.82 345 226 345Z" fill="#5271FF"/>
<path d="M267 393C274.18 393 280 387.18 280 380C280 372.82 274.18 367 267 367C259.82 367 254 372.82 254 380C254 387.18 259.82 393 267 393Z" fill="#3F3D56"/>
<path d="M239 425C246.18 425 252 419.18 252 412C252 404.82 246.18 399 239 399C231.82 399 226 404.82 226 412C226 419.18 231.82 425 239 425Z" fill="#5271FF"/>
<path d="M273 452C280.18 452 286 446.18 286 439C286 431.82 280.18 426 273 426C265.82 426 260 431.82 260 439C260 446.18 265.82 452 273 452Z" fill="#5271FF"/>
<path d="M229 494C236.18 494 242 488.18 242 481C242 473.82 236.18 468 229 468C221.82 468 216 473.82 216 481C216 488.18 221.82 494 229 494Z" fill="#3F3D56"/>
<path d="M245 604C245 604 232 572 271 548L245 604Z" fill="#3F3D56"/>
<path d="M229.012 603.42C229.012 603.42 223.096 569.39 177.303 569.682L229.012 603.42Z" fill="#3F3D56"/>
<path d="M848.5 85.5C848.5 85.5 863.5 120.5 843.5 127.5L863.5 193.5L897.5 191.5L906.5 169.5L904.5 136.5L901.5 114.5C901.5 114.5 880.5 119.5 882.5 82.5L848.5 85.5Z" fill="#FFB8B8"/>
<path d="M840.5 126.5C840.5 126.5 807.5 123.5 810.5 147.5C813.5 171.5 816.5 176.5 816.5 176.5L819.5 212.5L801.5 223.5H784.5C784.5 223.5 732.5 235.5 758.5 248.5C784.5 261.5 793.5 238.5 793.5 238.5C793.5 238.5 841.5 238.5 844.5 230.5C847.5 222.5 840.5 126.5 840.5 126.5Z" fill="#FFB8B8"/>
<path d="M904.5 116.5C904.5 116.5 935.5 105.5 937.5 129.5C939.5 153.5 939.5 155.5 939.5 155.5L945.5 189.5C945.5 189.5 957.5 219.5 957.5 228.5C957.5 237.5 966.5 265.5 966.5 265.5C966.5 265.5 978.5 304.5 965.5 303.5C952.5 302.5 950.5 261.5 950.5 261.5L923.5 207.5L915.5 174.5L904.5 116.5Z" fill="#FFB8B8"/>
<path d="M845.5 122.5H837.5L836.5 164.5C836.5 164.5 823.5 182.5 839.5 198.5L843.5 224.5L916.5 221.5L921.5 194.5C921.5 194.5 931.5 172.5 917.5 152.5L904.5 111.5H897.5C897.5 111.5 913.713 171.278 879.5 172.5C851.5 173.5 845.5 122.5 845.5 122.5Z" fill="#5271FF"/>
<path d="M847.5 219.5L841.5 239.5C841.5 239.5 716.5 591.5 754.5 600.5C792.5 609.5 845.5 621.5 850.5 612.5C855.5 603.5 881.5 340.5 881.5 340.5C881.5 340.5 877.5 615.5 890.5 615.5C903.5 615.5 989.5 617.5 994.5 604.5C999.5 591.5 949.5 243.5 920.5 235.5L912.5 217.5L847.5 219.5Z" fill="#2F2E41"/>
<path d="M919.5 209.5L840.5 212.5C840.5 212.5 836.894 239.5 840.5 239.5C841.5 239.5 923.5 246.5 922.5 234.5C921.5 222.5 919.5 209.5 919.5 209.5Z" fill="#3F3D56"/>
<path d="M511 400C511.004 421.268 505.007 442.105 493.698 460.117C482.389 478.128 466.227 492.583 447.07 501.82C447.06 501.82 447.06 501.82 447.05 501.83C443.616 503.488 440.098 504.967 436.51 506.26C435.94 506.48 435.36 506.68 434.77 506.87C433.57 507.3 432.35 507.69 431.12 508.06C428.59 508.84 426.023 509.53 423.42 510.13H423.41L423.34 510.15L423.18 510.18C422.84 510.26 422.49 510.34 422.14 510.41C420.2 510.84 418.24 511.21 416.26 511.52C410.224 512.511 404.117 513.006 398 513C394.72 513 391.46 512.86 388.25 512.58C388.076 512.573 387.902 512.557 387.73 512.53C378.928 511.734 370.249 509.911 361.87 507.1C360.63 506.68 359.39 506.24 358.17 505.77C338.872 498.504 321.93 486.096 309.179 469.891C296.427 453.685 288.353 434.3 285.831 413.834C283.308 393.369 286.433 372.603 294.867 353.786C303.302 334.969 316.724 318.819 333.679 307.084C350.635 295.349 370.479 288.477 391.061 287.213C411.643 285.948 432.178 290.339 450.443 299.91C468.708 309.481 484.006 323.867 494.68 341.51C505.355 359.152 510.998 379.379 511 400V400Z" fill="#3F3D56"/>
<path d="M384.574 401.268C384.574 401.268 411.078 389.719 423.527 401.919C435.975 414.118 390.196 410.102 384.574 401.268Z" fill="#3F3D56"/>
<path d="M430.339 346.497C421.432 331.447 403.811 330.746 403.811 330.746C403.811 330.746 386.64 328.55 375.625 351.471C365.358 372.835 351.188 393.462 373.344 398.464L377.346 386.008L379.824 399.391C382.978 399.618 386.143 399.672 389.303 399.553C413.03 398.787 435.626 399.777 434.899 391.263C433.932 379.945 438.909 360.978 430.339 346.497Z" fill="#2F2E41"/>
<path d="M434.77 506.87C435.36 506.68 435.94 506.48 436.51 506.26L436.38 506.08L434.77 505.99L424.35 505.43H424.34L422.59 505.34L414.3 504.89L396.25 503.91L386.58 503.39L386.09 503.36H385.97L379.16 502.99L376.94 502.87L374.83 510.61C379.088 511.506 383.396 512.147 387.73 512.53C387.902 512.557 388.076 512.573 388.25 512.58C391.46 512.86 394.72 513 398 513C404.117 513.006 410.224 512.511 416.26 511.52C418.24 511.21 420.2 510.84 422.14 510.41C422.49 510.34 422.84 510.26 423.18 510.18L423.34 510.15L423.41 510.13H423.42C426.02 509.53 428.587 508.84 431.12 508.06L434.77 506.87Z" fill="#2F2E41"/>
<path d="M388.991 379.181C388.991 379.181 393.007 405.685 384.976 408.898C376.944 412.11 401.038 425.764 401.038 425.764H414.692L423.527 407.291C423.527 407.291 415.495 392.835 420.314 379.181C425.133 365.528 388.991 379.181 388.991 379.181Z" fill="#A0616A"/>
<path d="M434.77 506.87V412.91C434.77 412.91 433.75 403.26 425.66 405.77C424.833 406.034 424.03 406.369 423.26 406.77C421.921 407.494 420.643 408.327 419.44 409.26C418.98 409.61 418.51 409.99 418.02 410.4C417.98 410.43 417.94 410.47 417.9 410.5C402.64 423.35 395.42 414.52 393.81 412.91C393.22 412.33 391.68 410.68 389.95 408.82V408.81C389.2 408.01 388.42 407.17 387.68 406.35C385.39 403.88 383.37 401.67 383.37 401.67L375.34 408.09L377.3 456.77L377.76 468.25V468.26L377.91 471.83V471.85L379.16 502.99L379.35 507.69C382.069 508.554 384.829 509.282 387.62 509.87C388.44 510.04 389.31 510.21 390.2 510.37C397.16 511.63 405.92 512.28 411.48 509.29C412.603 508.688 413.782 508.195 415 507.82C417.419 507.093 419.935 506.746 422.46 506.79C423 506.8 423.53 506.82 424.06 506.85H424.07C426.454 507.019 428.816 507.424 431.12 508.06L434.77 506.87Z" fill="#3F3D56"/>
<path d="M396.25 503.91C394.433 506.242 392.408 508.404 390.2 510.37C389.52 510.99 388.84 511.59 388.15 512.18C388.01 512.3 387.87 512.41 387.73 512.53C378.928 511.734 370.249 509.911 361.87 507.1C360.63 506.68 359.39 506.24 358.17 505.77C358.942 503.815 359.548 501.797 359.98 499.74C365.51 473.82 349.43 434.48 348.03 428.17C347.52 425.9 349.4 422.75 352.41 419.4C358.98 412.11 370.93 403.87 375.34 401.67C378.684 400.174 382.429 399.829 385.99 400.69H386C387.117 400.919 388.211 401.247 389.27 401.67V401.68C389.28 401.83 389.39 402.97 389.58 404.92C389.68 405.99 389.8 407.29 389.95 408.81V408.82C390.22 411.66 390.56 415.2 390.96 419.24V419.25C393.37 444.14 397.73 487.46 399.43 494.83C400.06 497.56 398.66 500.72 396.25 503.91Z" fill="#D0CDE1"/>
<path d="M434.77 506.87C435.36 506.68 435.94 506.48 436.51 506.26C440.098 504.967 443.616 503.488 447.05 501.83C441.91 486.81 457.1 439.06 461.45 424.28V424.26C461.96 422.53 462.32 421.25 462.48 420.54C464.09 413.31 439.59 406.49 438.79 404.88C438.17 403.66 428.22 402.43 423.53 401.92C422.08 401.76 421.13 401.67 421.13 401.67C419.89 402.63 418.94 405.39 418.2 409.4C418.13 409.72 418.07 410.06 418.02 410.4C417.49 413.5 417.08 417.25 416.75 421.46C414.93 444.42 415.55 480.7 413.89 495.64C413.554 498.726 413.692 501.846 414.3 504.89C414.482 505.878 414.716 506.856 415 507.82C415.349 509.076 415.77 510.312 416.26 511.52C418.24 511.21 420.2 510.84 422.14 510.41C422.49 510.34 422.84 510.26 423.18 510.18L423.34 510.15L423.41 510.13H423.42C426.02 509.53 428.587 508.84 431.12 508.06L434.77 506.87Z" fill="#D0CDE1"/>
<path d="M428.747 371.551C429.634 371.551 430.353 370.113 430.353 368.339C430.353 366.564 429.634 365.126 428.747 365.126C427.86 365.126 427.141 366.564 427.141 368.339C427.141 370.113 427.86 371.551 428.747 371.551Z" fill="#A0616A"/>
<path d="M381.361 371.551C382.248 371.551 382.968 370.113 382.968 368.339C382.968 366.564 382.248 365.126 381.361 365.126C380.474 365.126 379.755 366.564 379.755 368.339C379.755 370.113 380.474 371.551 381.361 371.551Z" fill="#A0616A"/>
<path d="M434.77 506.87C435.36 506.68 435.94 506.48 436.51 506.26C440.098 504.967 443.616 503.488 447.05 501.83C447.049 501.835 447.05 501.841 447.052 501.846C447.053 501.851 447.056 501.856 447.06 501.86C447.058 501.846 447.062 501.832 447.07 501.82C453.07 470.14 459.43 436.25 461.45 424.28V424.26C461.8 422.18 462.02 420.77 462.08 420.14C462.88 412.11 442.8 412.11 442.8 412.11L439.6 428.28L434.77 452.71L433.11 461.1L424.34 505.43L424.06 506.85L423.41 510.13H423.42C426.02 509.53 428.587 508.84 431.12 508.06L434.77 506.87Z" fill="#D0CDE1"/>
<path d="M387.73 512.53C378.928 511.734 370.249 509.911 361.87 507.1C361.24 504.67 360.61 502.21 359.98 499.74C352.17 469.09 344.82 436.66 344.82 430.58C344.82 425.55 348.33 421.92 352.41 419.4C356.293 417.132 360.508 415.485 364.9 414.52C364.9 414.52 367.46 425.17 371.14 440.53C373.11 448.73 375.39 458.27 377.76 468.25V468.26C380.52 479.84 383.41 492 386.09 503.36C386.52 505.2 386.947 507.013 387.37 508.8V508.84C387.376 508.853 387.38 508.866 387.38 508.88C387.46 509.21 387.54 509.54 387.62 509.87C387.8 510.65 387.98 511.42 388.15 512.18C388.19 512.31 388.22 512.44 388.25 512.58C388.076 512.573 387.902 512.557 387.73 512.53V512.53Z" fill="#D0CDE1"/>
<path opacity="0.2" d="M369.314 438.213L387.385 508.883C387.385 508.883 378.952 447.047 369.314 438.213Z" fill="black"/>
<path opacity="0.2" d="M416.26 511.52L422.14 510.38V510.41C420.2 510.84 418.24 511.21 416.26 511.52Z" fill="black"/>
<path opacity="0.2" d="M439.6 428.28L434.77 452.71L433.11 461.1L424.35 505.43H424.34L424.07 506.85H424.06L423.42 510.13H423.41L423.34 510.15L423.18 510.18L422.14 510.38C422.23 509.26 422.34 508.06 422.46 506.79C422.5 506.32 422.54 505.84 422.59 505.34C424.47 484.91 428.48 449.62 434.77 434.84C436.25 431.36 437.86 429.02 439.6 428.28Z" fill="black"/>
<path d="M405.054 392.032C417.918 392.032 428.345 381.604 428.345 368.74C428.345 355.877 417.918 345.449 405.054 345.449C392.191 345.449 381.763 355.877 381.763 368.74C381.763 381.604 392.191 392.032 405.054 392.032Z" fill="#A0616A"/>
<path d="M426.401 345.046L408.992 335.927L384.951 339.657L379.977 361.626L392.359 361.15L395.818 353.079V361.017L401.531 360.797L404.847 347.947L406.92 361.626L427.23 361.212L426.401 345.046Z" fill="#2F2E41"/>
<path d="M105.873 249.631C120.226 249.631 131.862 237.996 131.862 223.643C131.862 209.289 120.226 197.654 105.873 197.654C91.5201 197.654 79.8845 209.289 79.8845 223.643C79.8845 237.996 91.5201 249.631 105.873 249.631Z" fill="#FFB8B8"/>
<path d="M95.7213 243.54C95.7213 243.54 98.9699 258.971 98.9699 260.595C98.9699 262.219 114.401 269.529 114.401 269.529L128.207 267.092L133.08 252.474C133.08 252.474 124.959 240.291 124.959 235.419L95.7213 243.54Z" fill="#FFB8B8"/>
<path d="M113 370C104.952 370.004 96.9266 369.15 89.0601 367.45C88.6701 359.5 91.5 350.5 91.5 350.5L88.4101 329.5L64.05 280.09L97.9 254.25C97.9 254.25 106.28 267.9 118.46 263.84C121.847 262.812 124.823 260.741 126.964 257.921C129.104 255.102 130.3 251.679 130.38 248.14L170.44 262.22L157 321.51L161.5 340.5L166.43 356.59C150.007 365.421 131.646 370.029 113 370Z" fill="#D0CDE1"/>
<path d="M49.0701 350.18L54.3001 306.08C53.4901 289.02 64.0501 280.09 64.0501 280.09H76.2301L85.1601 310.14L80.4901 327.76L74.6101 349.93L72.9801 352.37C72.9801 352.37 74.6101 354.8 73.7901 355.62C72.9801 356.43 72.1701 359.68 72.1701 359.68C72.1701 359.68 72.3401 360.84 72.6401 362.57C64.3186 359.392 56.406 355.233 49.0701 350.18Z" fill="#D0CDE1"/>
<path d="M198.87 330.45C192.975 337.344 186.27 343.502 178.9 348.79C177.79 346.821 176.86 344.756 176.12 342.62L163.52 318.37L155.01 302.01L156.63 259.78L170.44 262.22C170.44 262.22 178.56 270.34 181.81 280.09L188.31 309.32L198.86 330.44L198.87 330.45Z" fill="#D0CDE1"/>
<path d="M651.974 175.504C651.974 175.504 652.643 192.896 648.63 196.909C644.616 200.922 668.697 214.97 668.697 214.97L682.744 192.896C682.744 192.896 677.393 183.531 678.731 175.504L651.974 175.504Z" fill="#A0616A"/>
<path d="M663.68 185.203C676.98 185.203 687.761 174.422 687.761 161.122C687.761 147.823 676.98 137.042 663.68 137.042C650.381 137.042 639.599 147.823 639.599 161.122C639.599 174.422 650.381 185.203 663.68 185.203Z" fill="#A0616A"/>
<path d="M704.49 292.15C704.64 294.01 704.787 295.87 704.93 297.73C704.44 297.92 703.94 298.11 703.44 298.29C691.111 302.734 678.105 305.004 665 305C656.394 305.006 647.816 304.033 639.43 302.1C635.074 301.092 630.783 299.823 626.58 298.3L626.57 298.39C626.56 298.361 626.56 298.329 626.57 298.3C626.723 296.26 627.106 294.244 627.71 292.29V292.28C628.27 290.22 629.03 287.84 629.9 285.21C630.84 282.4 630.9 276.26 630.7 270.49C630.68 270.05 630.67 269.6 630.65 269.17C630.57 267.3 630.47 265.51 630.37 263.92C630.14 260.33 629.9 257.78 629.9 257.78L615.18 218.31L650.73 192.35C652.83 199.16 657.33 198.92 657.33 198.92C676.41 200.23 679.92 187.05 680.03 186.62V186.61L714.18 208.95L700.14 243.06C700.14 243.06 700.71 248.84 701.52 257.66C701.64 258.96 701.76 260.33 701.9 261.76C702.68 270.42 703.63 281.21 704.49 292.15Z" fill="#D0CDE1"/>
<path d="M631.57 264.13L630.87 269.21L630.7 270.49L627.73 292.19L627.71 292.28V292.29L626.58 298.3L626.57 298.39C626.56 298.361 626.56 298.329 626.57 298.3C621.235 296.367 616.053 294.034 611.07 291.32C609.77 290.62 608.49 289.89 607.23 289.13C608.061 286.541 609.042 284.004 610.17 281.53L612.21 265.65L612.84 260.79L630.37 263.92L631.57 264.13Z" fill="#A0616A"/>
<path d="M624.884 217.311L615.184 218.314C615.184 218.314 608.83 265.472 610.836 265.472C612.843 265.472 635.586 270.824 636.255 269.486C636.924 268.148 624.884 217.311 624.884 217.311Z" fill="#D0CDE1"/>
<path d="M723.73 288.55C721.73 289.77 719.69 290.92 717.61 292.02C714.51 293.66 711.32 295.16 708.06 296.49V296.5C707.02 296.93 705.98 297.34 704.93 297.73C704.44 297.92 703.94 298.11 703.44 298.29L704.49 292.15L699.73 261.9L699.13 258.11L701.52 257.66L723.88 253.43V280.86C723.88 280.86 723.94 283.83 723.73 288.55Z" fill="#A0616A"/>
<path d="M701.139 207.277L714.183 208.949C714.183 208.949 729.902 256.777 725.889 258.783C721.875 260.79 695.788 262.128 695.788 262.128L701.139 207.277Z" fill="#D0CDE1"/>
<path d="M186 204C204.225 204 219 189.225 219 171C219 152.775 204.225 138 186 138C167.775 138 153 152.775 153 171C153 189.225 167.775 204 186 204Z" fill="#5271FF"/>
<path d="M476 349C494.225 349 509 334.225 509 316C509 297.775 494.225 283 476 283C457.775 283 443 297.775 443 316C443 334.225 457.775 349 476 349Z" fill="#5271FF"/>
<path d="M747 145C765.225 145 780 130.225 780 112C780 93.7746 765.225 79 747 79C728.775 79 714 93.7746 714 112C714 130.225 728.775 145 747 145Z" fill="#5271FF"/>
<path d="M863.956 96.9533C879.474 96.9533 892.053 84.3735 892.053 68.8556C892.053 53.3377 879.474 40.7579 863.956 40.7579C848.438 40.7579 835.858 53.3377 835.858 68.8556C835.858 84.3735 848.438 96.9533 863.956 96.9533Z" fill="#FFB8B8"/>
<path d="M885.36 32.9294C883.047 29.8239 880.05 27.293 876.601 25.5331C873.152 23.7731 869.345 22.8314 865.473 22.781H864.529C846.338 22.781 831.59 39.2425 831.59 59.5488V59.5488H837.686L838.67 52.0558L840.114 59.5488H876.266L879.295 53.2095L878.538 59.5488H885.65C888.969 76.0309 884.2 92.5131 871.344 108.995H883.46L889.518 96.3167L888.003 108.995H911.098L915.642 79.8344C915.642 57.9957 902.953 39.4769 885.36 32.9294Z" fill="#2F2E41"/>
<path d="M892 36C901.941 36 910 27.9411 910 18C910 8.05887 901.941 0 892 0C882.059 0 874 8.05887 874 18C874 27.9411 882.059 36 892 36Z" fill="#2F2E41"/>
<path d="M645.295 158C657.111 149.664 660.644 147.671 674.188 150.891L675 130L640 137.763L645.295 158Z" fill="#2F2E41"/>
<path d="M100.321 260.2C100.794 253.116 97.6244 246.323 94.0935 240.179C92.4027 237.242 90.5987 234.319 89.6822 231.057C88.7656 227.794 88.8513 224.058 90.7737 221.274C92.4086 218.905 95.0931 217.558 97.5684 216.11C104.556 212.023 110.863 206.164 113.713 198.541C111.978 199.582 112.548 202.468 114.161 203.691C115.775 204.914 117.916 205.081 119.864 205.619C126.963 207.579 131.439 214.475 135.064 220.938C135.656 221.993 136.261 223.107 136.301 224.319C136.34 225.531 135.832 226.627 135.297 227.68C133.745 230.733 131.816 233.683 131.186 237.055C130.463 240.905 131.53 244.885 132.862 248.584C134.274 252.518 136.102 256.469 139.238 259.211C142.374 261.953 147.125 263.193 150.78 261.207C146.817 254.9 142.692 247.841 143.866 240.476C144.434 236.951 146.196 233.698 146.865 230.188C148.14 223.491 145.339 216.758 142.603 210.516L134.429 191.888C133.181 189.039 131.768 186.003 129.094 184.464C127.286 183.427 125.136 183.222 123.059 183.1C116.375 182.754 109.481 183.213 103.374 185.949C92.2479 190.929 85.589 202.42 80.3808 213.519C78.8201 216.844 77.2891 220.371 77.498 224.045C77.6123 226.061 78.245 228.002 78.7738 229.951C80.9258 237.884 81.3412 246.173 81.7474 254.386C82.0591 260.688 81.9595 266.643 79.4425 272.488C83.2183 273.097 88.73 274.917 92.3832 273.294C97.1456 271.183 99.8981 265.131 100.321 260.2Z" fill="#454B69"/>
</g>
<defs>
<clipPath id="clip0">
<rect width="1109.87" height="651" fill="white"/>
</clipPath>
</defs>
</svg>
