<svg width="498" height="293" viewBox="0 0 498 293" fill="none" xmlns="http://www.w3.org/2000/svg">
<g clip-path="url(#clip0)">
<path d="M391.132 8.2085H391.132C379.222 8.2085 369.568 18.9556 369.568 32.2129V49.0564H374.732L377.722 42.8157L376.975 49.0564H410.17L412.888 43.383L412.208 49.0564H415.946V35.8312C415.946 20.5756 404.836 8.2085 391.132 8.2085Z" fill="#2F2E41"/>
<path d="M264.028 293C393.247 293 498 285.947 498 277.247C498 268.547 393.247 261.495 264.028 261.495C134.81 261.495 30.0569 268.547 30.0569 277.247C30.0569 285.947 134.81 293 264.028 293Z" fill="#3F3D56"/>
<path d="M106.408 271.631C106.305 271.462 103.877 267.396 103.035 258.952C102.263 251.204 102.759 238.146 109.511 219.931C122.302 185.423 106.563 157.58 106.403 157.303L107.179 156.851C107.22 156.921 111.281 164.02 113.68 175.324C116.85 190.31 115.696 205.892 110.352 220.244C97.5837 254.693 107.076 271.001 107.174 271.162L106.408 271.631Z" fill="#3F3D56"/>
<path d="M101.406 155.276C104.628 155.276 107.24 152.657 107.24 149.425C107.24 146.194 104.628 143.574 101.406 143.574C98.1849 143.574 95.5733 146.194 95.5733 149.425C95.5733 152.657 98.1849 155.276 101.406 155.276Z" fill="#5271FF"/>
<path d="M119.803 176.88C123.025 176.88 125.636 174.261 125.636 171.029C125.636 167.798 123.025 165.178 119.803 165.178C116.582 165.178 113.97 167.798 113.97 171.029C113.97 174.261 116.582 176.88 119.803 176.88Z" fill="#3F3D56"/>
<path d="M107.239 191.283C110.461 191.283 113.073 188.663 113.073 185.432C113.073 182.2 110.461 179.581 107.239 179.581C104.018 179.581 101.406 182.2 101.406 185.432C101.406 188.663 104.018 191.283 107.239 191.283Z" fill="#5271FF"/>
<path d="M122.495 203.435C125.717 203.435 128.328 200.815 128.328 197.584C128.328 194.352 125.717 191.733 122.495 191.733C119.274 191.733 116.662 194.352 116.662 197.584C116.662 200.815 119.274 203.435 122.495 203.435Z" fill="#5271FF"/>
<path d="M102.753 222.338C105.974 222.338 108.586 219.718 108.586 216.487C108.586 213.256 105.974 210.636 102.753 210.636C99.531 210.636 96.9194 213.256 96.9194 216.487C96.9194 219.718 99.531 222.338 102.753 222.338Z" fill="#3F3D56"/>
<path d="M109.932 271.846C109.932 271.846 104.099 257.444 121.598 246.642L109.932 271.846Z" fill="#3F3D56"/>
<path d="M102.758 271.585C102.758 271.585 100.103 256.269 79.5563 256.4L102.758 271.585Z" fill="#3F3D56"/>
<path d="M380.723 38.4816C380.723 38.4816 387.453 54.2343 378.479 57.3848L387.453 87.0899L402.709 86.1897L406.747 76.288L405.85 61.4355L404.504 51.5338C404.504 51.5338 395.081 53.7842 395.979 37.1313L380.723 38.4816Z" fill="#FFB8B8"/>
<path d="M377.133 56.9349C377.133 56.9349 362.326 55.5846 363.672 66.3865C365.018 77.1883 366.364 79.4387 366.364 79.4387L367.71 95.6415L359.634 100.592H352.006C352.006 100.592 328.673 105.993 340.34 111.844C352.006 117.695 356.044 107.343 356.044 107.343C356.044 107.343 377.582 107.343 378.928 103.743C380.274 100.142 377.133 56.9349 377.133 56.9349Z" fill="#FFB8B8"/>
<path d="M405.85 52.4339C405.85 52.4339 419.76 47.4831 420.657 58.2849C421.555 69.0868 421.555 69.9869 421.555 69.9869L424.247 85.2895C424.247 85.2895 429.631 98.7918 429.631 102.843C429.631 106.893 433.67 119.495 433.67 119.495C433.67 119.495 439.054 137.048 433.221 136.598C427.388 136.148 426.49 117.695 426.49 117.695L414.375 93.3909L410.786 78.5384L405.85 52.4339Z" fill="#FFB8B8"/>
<path d="M379.377 55.1344H375.787L375.338 74.0377C375.338 74.0377 369.505 82.1391 376.684 89.3403L378.479 101.042L411.235 99.6921L413.478 87.54C413.478 87.54 417.965 77.6383 411.683 68.6368L405.85 50.1836H402.709C402.709 50.1836 409.984 77.0884 394.633 77.6383C382.069 78.0884 379.377 55.1344 379.377 55.1344Z" fill="#5271FF"/>
<path d="M380.274 98.7918L377.582 107.793C377.582 107.793 321.494 266.22 338.545 270.271C355.595 274.322 379.377 279.723 381.62 275.672C383.864 271.621 395.53 153.251 395.53 153.251C395.53 153.251 393.735 277.022 399.568 277.022C405.401 277.022 443.989 277.922 446.233 272.071C448.476 266.22 426.041 109.594 413.029 105.993L409.44 97.8916L380.274 98.7918Z" fill="#2F2E41"/>
<path d="M412.581 94.291L377.133 95.6412C377.133 95.6412 375.515 107.793 377.133 107.793C377.582 107.793 414.375 110.944 413.927 105.543C413.478 100.142 412.581 94.291 412.581 94.291Z" fill="#3F3D56"/>
<path d="M229.286 180.031C229.288 189.603 226.597 198.981 221.523 207.088C216.449 215.195 209.197 221.7 200.601 225.858C200.596 225.858 200.596 225.858 200.592 225.862C199.051 226.608 197.472 227.274 195.862 227.856C195.607 227.955 195.346 228.045 195.082 228.13C194.543 228.324 193.996 228.5 193.444 228.666C192.309 229.017 191.157 229.328 189.989 229.598H189.984L189.953 229.607L189.881 229.62C189.729 229.656 189.572 229.692 189.415 229.724C188.544 229.917 187.665 230.084 186.776 230.223C184.068 230.669 181.328 230.892 178.583 230.889C177.111 230.889 175.648 230.826 174.208 230.7C174.13 230.697 174.052 230.69 173.975 230.678C170.025 230.319 166.131 229.499 162.371 228.234C161.815 228.045 161.259 227.847 160.711 227.635C152.052 224.365 144.45 218.781 138.729 211.487C133.007 204.193 129.384 195.468 128.252 186.257C127.121 177.046 128.523 167.7 132.307 159.231C136.092 150.762 142.114 143.493 149.722 138.211C157.33 132.93 166.234 129.837 175.469 129.268C184.704 128.699 193.919 130.675 202.114 134.983C210.31 139.29 217.174 145.765 221.964 153.706C226.753 161.646 229.285 170.75 229.286 180.031Z" fill="#3F3D56"/>
<path d="M172.559 180.601C172.559 180.601 184.451 175.403 190.037 180.894C195.623 186.385 175.081 184.578 172.559 180.601Z" fill="#3F3D56"/>
<path d="M193.094 155.95C189.097 149.177 181.19 148.861 181.19 148.861C181.19 148.861 173.486 147.873 168.543 158.189C163.936 167.804 157.578 177.088 167.52 179.339L169.315 173.733L170.427 179.757C171.843 179.859 173.263 179.883 174.681 179.83C185.327 179.485 195.466 179.931 195.139 176.098C194.705 171.004 196.939 162.468 193.094 155.95Z" fill="#2F2E41"/>
<path d="M195.082 228.13C195.346 228.045 195.607 227.955 195.862 227.856L195.804 227.775L195.082 227.734L190.406 227.482H190.402L189.617 227.442L185.897 227.239L177.798 226.798L173.459 226.564L173.239 226.551H173.185L170.129 226.384L169.133 226.33L168.187 229.814C170.097 230.217 172.03 230.505 173.975 230.678C174.052 230.69 174.13 230.697 174.208 230.7C175.648 230.826 177.111 230.889 178.583 230.889C181.328 230.892 184.068 230.669 186.776 230.223C187.665 230.084 188.544 229.917 189.415 229.724C189.572 229.692 189.729 229.656 189.881 229.62L189.953 229.607L189.984 229.598H189.989C191.156 229.328 192.307 229.017 193.444 228.666L195.082 228.13Z" fill="#2F2E41"/>
<path d="M174.541 170.661C174.541 170.661 176.343 182.589 172.739 184.035C169.135 185.481 179.946 191.626 179.946 191.626H186.073L190.037 183.312C190.037 183.312 186.433 176.806 188.595 170.661C190.758 164.515 174.541 170.661 174.541 170.661Z" fill="#A0616A"/>
<path d="M195.082 228.131V185.841C195.082 185.841 194.624 181.498 190.994 182.628C190.623 182.747 190.263 182.897 189.917 183.078C189.316 183.404 188.743 183.778 188.203 184.199C187.997 184.356 187.786 184.527 187.566 184.712C187.548 184.725 187.53 184.743 187.512 184.757C180.665 190.54 177.425 186.566 176.703 185.841C176.438 185.58 175.747 184.838 174.971 184.001V183.996C174.634 183.636 174.284 183.258 173.952 182.889C172.925 181.777 172.018 180.782 172.018 180.782L168.415 183.672L169.295 205.582L169.501 210.749V210.753L169.569 212.36V212.369L170.129 226.384L170.215 228.5C171.434 228.889 172.673 229.216 173.925 229.481C174.293 229.557 174.684 229.634 175.083 229.706C178.206 230.273 182.137 230.565 184.631 229.22C185.135 228.949 185.664 228.727 186.211 228.558C187.296 228.231 188.425 228.075 189.558 228.095C189.8 228.099 190.038 228.108 190.276 228.122H190.281C191.35 228.197 192.41 228.38 193.444 228.666L195.082 228.131Z" fill="#3F3D56"/>
<path d="M177.798 226.798C176.982 227.848 176.074 228.821 175.083 229.706C174.778 229.985 174.473 230.255 174.163 230.52C174.1 230.574 174.038 230.624 173.975 230.678C170.025 230.319 166.131 229.499 162.371 228.234C161.815 228.045 161.259 227.847 160.711 227.635C161.058 226.755 161.329 225.847 161.523 224.921C164.005 213.255 156.79 195.549 156.161 192.709C155.933 191.688 156.776 190.27 158.127 188.762C161.075 185.481 166.437 181.772 168.415 180.782C169.916 180.109 171.596 179.954 173.194 180.341H173.199C173.7 180.444 174.191 180.592 174.666 180.782V180.787C174.67 180.854 174.72 181.367 174.805 182.245C174.85 182.727 174.904 183.312 174.971 183.996V184C175.092 185.279 175.245 186.872 175.424 188.69V188.695C176.506 199.897 178.462 219.394 179.225 222.711C179.507 223.94 178.879 225.362 177.798 226.798Z" fill="#D0CDE1"/>
<path d="M195.082 228.131C195.346 228.045 195.607 227.955 195.862 227.856C197.472 227.274 199.051 226.609 200.592 225.862C198.285 219.102 205.101 197.611 207.053 190.959V190.95C207.282 190.171 207.443 189.595 207.515 189.275C208.238 186.021 197.244 182.952 196.885 182.227C196.607 181.678 192.143 181.125 190.038 180.895C189.388 180.823 188.961 180.782 188.961 180.782C188.405 181.215 187.979 182.457 187.647 184.262C187.615 184.406 187.588 184.559 187.566 184.712C187.328 186.107 187.144 187.795 186.996 189.69C186.179 200.023 186.458 216.352 185.713 223.076C185.562 224.465 185.624 225.869 185.897 227.239C185.979 227.684 186.083 228.124 186.211 228.558C186.368 229.124 186.556 229.68 186.776 230.223C187.665 230.084 188.544 229.917 189.415 229.724C189.572 229.692 189.729 229.656 189.881 229.62L189.953 229.607L189.984 229.598H189.989C191.156 229.328 192.307 229.017 193.444 228.666L195.082 228.131Z" fill="#D0CDE1"/>
<path d="M192.379 167.227C192.777 167.227 193.1 166.579 193.1 165.781C193.1 164.982 192.777 164.335 192.379 164.335C191.981 164.335 191.658 164.982 191.658 165.781C191.658 166.579 191.981 167.227 192.379 167.227Z" fill="#A0616A"/>
<path d="M171.117 167.227C171.515 167.227 171.838 166.579 171.838 165.781C171.838 164.982 171.515 164.335 171.117 164.335C170.719 164.335 170.396 164.982 170.396 165.781C170.396 166.579 170.719 167.227 171.117 167.227Z" fill="#A0616A"/>
<path d="M195.082 228.13C195.346 228.045 195.607 227.955 195.862 227.856C197.472 227.274 199.051 226.608 200.592 225.862C200.591 225.865 200.592 225.867 200.593 225.869C200.593 225.872 200.595 225.874 200.596 225.876C200.596 225.869 200.597 225.863 200.601 225.858C203.293 211.599 206.147 196.346 207.053 190.959V190.95C207.21 190.013 207.309 189.379 207.336 189.095C207.695 185.481 198.685 185.481 198.685 185.481L197.249 192.759L195.082 203.754L194.337 207.53L190.402 227.482L190.276 228.121L189.984 229.598H189.989C191.156 229.328 192.307 229.017 193.444 228.666L195.082 228.13Z" fill="#D0CDE1"/>
<path d="M173.975 230.678C170.025 230.319 166.131 229.499 162.371 228.234C162.089 227.14 161.806 226.033 161.523 224.921C158.019 211.127 154.721 196.531 154.721 193.794C154.721 191.53 156.296 189.896 158.127 188.762C159.869 187.741 161.76 187 163.731 186.566C163.731 186.566 164.88 191.359 166.531 198.272C167.415 201.963 168.438 206.257 169.501 210.749V210.753C170.74 215.965 172.036 221.438 173.239 226.551C173.432 227.379 173.623 228.195 173.813 228.999V229.017C173.816 229.023 173.818 229.029 173.818 229.035C173.854 229.184 173.89 229.332 173.925 229.481C174.006 229.832 174.087 230.178 174.163 230.52C174.181 230.579 174.195 230.637 174.208 230.7C174.13 230.697 174.052 230.69 173.975 230.678Z" fill="#D0CDE1"/>
<path opacity="0.2" d="M165.712 197.229L173.82 229.036C173.82 229.036 170.036 201.206 165.712 197.229Z" fill="black"/>
<path opacity="0.2" d="M186.776 230.223L189.415 229.71V229.724C188.544 229.917 187.665 230.084 186.776 230.223Z" fill="black"/>
<path opacity="0.2" d="M197.249 192.759L195.082 203.754L194.337 207.53L190.406 227.482H190.402L190.281 228.121H190.276L189.989 229.598H189.985L189.953 229.607L189.881 229.62L189.415 229.71C189.455 229.206 189.504 228.666 189.558 228.094C189.576 227.883 189.594 227.667 189.617 227.442C190.46 218.247 192.259 202.363 195.082 195.711C195.746 194.145 196.468 193.092 197.249 192.759Z" fill="black"/>
<path d="M181.748 176.444C187.52 176.444 192.199 171.751 192.199 165.961C192.199 160.172 187.52 155.479 181.748 155.479C175.976 155.479 171.297 160.172 171.297 165.961C171.297 171.751 175.976 176.444 181.748 176.444Z" fill="#A0616A"/>
<path d="M191.327 155.297L183.515 151.193L172.728 152.872L170.496 162.759L176.052 162.545L177.604 158.913V162.485L180.167 162.386L181.655 156.603L182.585 162.759L191.699 162.573L191.327 155.297Z" fill="#2F2E41"/>
<path d="M101.406 115.67C101.406 123.744 99.4896 131.703 95.8146 138.887C92.1396 146.071 86.812 152.274 80.2726 156.982C78.4867 158.275 76.6175 159.448 74.6773 160.493C64.0491 166.199 51.745 167.932 39.9613 165.381C37.4525 164.841 34.9892 164.106 32.5936 163.184C23.9611 159.874 16.3945 154.261 10.7116 146.951C5.02863 139.64 1.44548 130.911 0.349348 121.707C-0.746785 112.502 0.68578 103.172 4.49223 94.7248C8.29868 86.2775 14.3343 79.0343 21.9467 73.778C29.5591 68.5217 38.4589 65.4521 47.6843 64.901C56.9097 64.3499 66.1098 66.3382 74.2904 70.6511C82.471 74.964 89.321 81.4374 94.1001 89.3717C98.8792 97.3061 101.406 106.4 101.406 115.67Z" fill="#3F3D56"/>
<path d="M47.5054 112.353C53.9457 112.353 59.1665 107.116 59.1665 100.656C59.1665 94.1964 53.9457 88.9595 47.5054 88.9595C41.0651 88.9595 35.8442 94.1964 35.8442 100.656C35.8442 107.116 41.0651 112.353 47.5054 112.353Z" fill="#FFB8B8"/>
<path d="M42.9503 109.612C42.9503 109.612 44.4079 116.557 44.4079 117.288C44.4079 118.019 51.3317 121.308 51.3317 121.308L57.5267 120.212L59.7132 113.632C59.7132 113.632 56.0691 108.149 56.0691 105.956L42.9503 109.612Z" fill="#FFB8B8"/>
<path d="M50.7032 166.528C47.0921 166.53 43.491 166.146 39.9613 165.381C39.7863 161.803 39.6697 157.86 39.6697 157.86L36.116 147.517L28.7393 126.062L43.9278 114.432C43.9278 114.432 47.688 120.576 53.1531 118.748C54.673 118.286 56.0084 117.353 56.9688 116.084C57.9293 114.816 58.4657 113.275 58.5017 111.682L76.4766 118.019L73.3716 143.291L73.1966 144.704L74.6773 160.493C67.3085 164.468 59.0699 166.542 50.7032 166.528Z" fill="#D0CDE1"/>
<path d="M37.3929 91.2324C37.3929 91.2324 41.0952 83.186 48.1914 85.0428C55.2876 86.8997 59.2986 89.685 59.6071 92.4703C59.9156 95.2556 59.4528 99.4335 59.4528 99.4335C59.4528 99.4335 58.6815 93.7082 53.745 94.9461C48.8085 96.184 41.0952 95.2556 41.0952 95.2556L39.8611 106.397C39.8611 106.397 38.4727 104.385 36.9301 105.623C35.3874 106.861 32.4564 93.7082 37.3929 91.2324Z" fill="#2F2E41"/>
<path d="M22.0178 157.608L24.3645 137.759C24.001 130.081 28.7393 126.062 28.7393 126.062H34.2045L38.2114 139.587L36.1159 147.517L33.4776 157.495L32.7462 158.594C32.7462 158.594 33.4776 159.687 33.1096 160.056C32.7462 160.421 32.3828 161.884 32.3828 161.884C32.3828 161.884 32.459 162.406 32.5936 163.184C28.8598 161.754 25.3094 159.882 22.0178 157.608Z" fill="#D0CDE1"/>
<path d="M89.2331 148.728C86.5879 151.831 83.5793 154.602 80.2726 156.982C79.7747 156.096 79.3572 155.167 79.0252 154.205L73.3715 143.291L69.5531 135.928L70.28 116.921L76.4766 118.019C76.4766 118.019 80.12 121.674 81.5783 126.062L84.4948 139.218L89.2286 148.723L89.2331 148.728Z" fill="#D0CDE1"/>
<path d="M349.089 86.4146C349.094 95.1459 346.856 103.731 342.59 111.343C338.325 118.954 332.177 125.335 324.738 129.87C323.841 130.419 322.926 130.936 321.992 131.431C320.601 132.169 319.17 132.845 317.707 133.443V133.448C317.241 133.641 316.774 133.826 316.303 134.001C316.083 134.087 315.859 134.172 315.634 134.253C310.102 136.253 304.266 137.275 298.386 137.273C294.525 137.276 290.676 136.838 286.913 135.968C284.959 135.514 283.033 134.943 281.147 134.258H281.143C278.749 133.388 276.424 132.338 274.188 131.116C273.604 130.801 273.03 130.473 272.465 130.131C272.07 129.897 271.684 129.658 271.298 129.415C263.846 124.692 257.75 118.102 253.612 110.295C249.474 102.488 247.436 93.7337 247.7 84.8958C247.964 76.0578 250.52 67.4415 255.116 59.8967C259.712 52.352 266.19 46.1395 273.91 41.872C281.631 37.6045 290.327 35.4295 299.141 35.5616C307.954 35.6936 316.582 38.1281 324.172 42.6249C331.761 47.1218 338.051 53.5255 342.421 61.2046C346.791 68.8837 349.089 77.5727 349.089 86.4146Z" fill="#3F3D56"/>
<path d="M292.542 78.9902C292.542 78.9902 292.842 86.8178 291.041 88.6242C289.24 90.4305 300.045 96.7528 300.045 96.7528L306.348 86.8178C306.348 86.8178 303.947 82.603 304.547 78.9902L292.542 78.9902Z" fill="#A0616A"/>
<path d="M297.794 83.3556C303.761 83.3556 308.599 78.5032 308.599 72.5174C308.599 66.5316 303.761 61.6792 297.794 61.6792C291.826 61.6792 286.989 66.5316 286.989 72.5174C286.989 78.5032 291.826 83.3556 297.794 83.3556Z" fill="#A0616A"/>
<path d="M316.105 131.49C316.173 132.327 316.238 133.164 316.303 134.002C316.083 134.087 315.859 134.173 315.634 134.254C310.102 136.254 304.266 137.275 298.386 137.274C294.525 137.276 290.676 136.839 286.913 135.968C284.959 135.515 283.033 134.943 281.147 134.258L281.143 134.299C281.138 134.285 281.138 134.271 281.143 134.258C281.211 133.34 281.383 132.433 281.654 131.553V131.549C281.905 130.621 282.246 129.55 282.637 128.367C283.059 127.102 283.085 124.338 282.996 121.741C282.987 121.543 282.982 121.341 282.973 121.147C282.937 120.306 282.892 119.5 282.848 118.784C282.744 117.169 282.637 116.021 282.637 116.021L276.032 98.2565L291.983 86.5725C292.925 89.6375 294.945 89.5295 294.945 89.5295C303.506 90.1191 305.081 84.1871 305.13 83.9935V83.989L320.453 94.0437L314.153 109.396C314.153 109.396 314.409 111.997 314.773 115.967C314.827 116.552 314.88 117.169 314.943 117.812C315.293 121.71 315.719 126.566 316.105 131.49Z" fill="#D0CDE1"/>
<path d="M283.386 118.879L283.072 121.165L282.996 121.741L281.663 131.508L281.654 131.548V131.553L281.147 134.258L281.143 134.298C281.138 134.285 281.138 134.271 281.143 134.258C278.749 133.388 276.424 132.338 274.188 131.116C273.604 130.801 273.03 130.473 272.465 130.131C272.837 128.966 273.278 127.823 273.784 126.71L274.699 119.563L274.982 117.375L282.848 118.784L283.386 118.879Z" fill="#A0616A"/>
<path d="M280.386 97.8066L276.034 98.2582C276.034 98.2582 273.182 119.483 274.083 119.483C274.983 119.483 285.188 121.892 285.488 121.289C285.788 120.687 280.386 97.8066 280.386 97.8066Z" fill="#D0CDE1"/>
<path d="M289.457 61.4074L287.509 60.6969C287.509 60.6969 291.582 56.6118 297.248 56.967L295.655 55.3685C295.655 55.3685 299.55 53.9476 303.092 57.6775C304.953 59.6382 307.107 61.9429 308.45 64.5392H310.536L309.665 66.2857L312.712 68.0322L309.585 67.7185C309.881 69.2264 309.779 70.7858 309.289 72.2419L308.581 74.1956C308.581 74.1956 305.748 68.512 305.748 67.8015V69.5777C305.748 69.5777 303.8 67.9791 303.8 66.9134L302.737 68.1567L302.206 66.203L295.655 68.1567L296.717 66.5582L292.644 67.0911L294.238 65.1373C294.238 65.1373 289.634 67.4463 289.457 69.4C289.28 71.3538 286.978 73.8404 286.978 73.8404L285.916 72.0642C285.916 72.0642 284.322 64.0716 289.457 61.4074Z" fill="#2F2E41"/>
<path d="M324.738 129.87C323.841 130.419 322.926 130.936 321.992 131.431C320.601 132.17 319.17 132.845 317.707 133.443V133.448C317.241 133.641 316.774 133.826 316.303 134.001C316.083 134.087 315.859 134.172 315.634 134.253L316.105 131.49L313.97 117.875L313.7 116.169L314.773 115.967L324.806 114.063V126.409C324.806 126.409 324.833 127.745 324.738 129.87Z" fill="#A0616A"/>
<path d="M314.602 93.2908L320.455 94.0434C320.455 94.0434 327.508 115.569 325.707 116.472C323.906 117.376 312.201 117.978 312.201 117.978L314.602 93.2908Z" fill="#D0CDE1"/>
<path d="M83.4584 91.8156C91.6361 91.8156 98.2655 85.1659 98.2655 76.9631C98.2655 68.7603 91.6361 62.1106 83.4584 62.1106C75.2806 62.1106 68.6512 68.7603 68.6512 76.9631C68.6512 85.1659 75.2806 91.8156 83.4584 91.8156Z" fill="#5271FF"/>
<path d="M213.582 157.077C221.759 157.077 228.389 150.427 228.389 142.224C228.389 134.022 221.759 127.372 213.582 127.372C205.404 127.372 198.775 134.022 198.775 142.224C198.775 150.427 205.404 157.077 213.582 157.077Z" fill="#5271FF"/>
<path d="M335.18 65.2612C343.357 65.2612 349.987 58.6115 349.987 50.4087C349.987 42.2059 343.357 35.5562 335.18 35.5562C327.002 35.5562 320.372 42.2059 320.372 50.4087C320.372 58.6115 327.002 65.2612 335.18 65.2612Z" fill="#5271FF"/>
<path d="M387.658 43.6365C394.621 43.6365 400.265 37.9746 400.265 30.9904C400.265 24.0061 394.621 18.3442 387.658 18.3442C380.695 18.3442 375.05 24.0061 375.05 30.9904C375.05 37.9746 380.695 43.6365 387.658 43.6365Z" fill="#FFB8B8"/>
<path d="M397.262 14.8207C396.224 13.423 394.879 12.2839 393.332 11.4918C391.784 10.6997 390.076 10.2758 388.339 10.2532H387.915C379.752 10.2532 373.135 17.6621 373.135 26.8015V26.8015H375.87L376.312 23.4291L376.96 26.8015H393.182L394.541 23.9484L394.201 26.8015H397.392C398.881 34.2197 396.742 41.638 390.973 49.0562H396.409L399.127 43.3499L398.448 49.0562H408.811L410.849 35.9316C410.849 26.1025 405.156 17.7676 397.262 14.8207Z" fill="#2F2E41"/>
<path d="M400.241 16.2028C404.702 16.2028 408.318 12.5757 408.318 8.10138C408.318 3.62711 404.702 0 400.241 0C395.781 0 392.165 3.62711 392.165 8.10138C392.165 12.5757 395.781 16.2028 400.241 16.2028Z" fill="#2F2E41"/>
</g>
<defs>
<clipPath id="clip0">
<rect width="498" height="293" fill="white"/>
</clipPath>
</defs>
</svg>
