<svg width="322" height="234" viewBox="0 0 322 234" fill="none" xmlns="http://www.w3.org/2000/svg">
<path d="M87 101.5C87 105.548 86.055 109.539 84.2431 113.141C82.4312 116.743 79.8046 119.853 76.5805 122.214C75.7001 122.862 74.7785 123.45 73.8219 123.974C68.582 126.835 62.5158 127.704 56.7061 126.425C55.4692 126.154 54.2548 125.786 53.0737 125.323C48.8176 123.664 45.0871 120.849 42.2853 117.184C39.4835 113.519 37.7169 109.142 37.1765 104.527C36.6361 99.9118 37.3423 95.2338 39.219 90.9984C41.0957 86.7631 44.0714 83.1314 47.8245 80.4959C51.5776 77.8605 55.9654 76.3214 60.5137 76.0451C65.0621 75.7688 69.5979 76.7657 73.6312 78.9281C77.6644 81.0906 81.0416 84.3363 83.3978 88.3145C85.754 92.2927 86.9996 96.8521 87 101.5V101.5Z" fill="#3F3D56"/>
<path d="M71.2914 101.723L71.1549 101.767L64.983 103.766C63.1904 104.347 61.3715 104.933 59.4896 105.025C58.1263 105.092 56.8145 104.844 55.4728 104.649C54.7144 104.538 53.9266 104.554 53.5764 103.757C53.0931 102.657 53.4446 100.898 53.4344 99.7248C53.4212 98.5737 53.3529 97.4004 52.9911 96.3056C52.9103 96.0595 52.8142 95.8188 52.7032 95.5849C52.396 94.9406 51.957 94.2855 52.0643 93.5801C52.1485 93.0204 52.5603 92.5777 52.9461 92.1671C53.7021 91.366 54.4654 90.4783 54.671 89.3911C54.7726 88.8635 54.7365 88.3134 54.8512 87.788C55.0682 86.789 55.8207 85.9696 56.709 85.4755C57.5973 84.9813 58.6155 84.7746 59.624 84.6508C60.5145 84.5416 61.4113 84.4919 62.3085 84.5023C63.2865 84.511 64.2835 84.6005 65.1884 84.9776C66.0933 85.3546 66.903 86.0551 67.2179 86.9914C67.6634 88.3155 67.0659 89.8571 67.6433 91.125C67.9342 91.7661 68.484 92.2454 68.8945 92.8145C69.2309 93.2914 69.4686 93.8315 69.5935 94.4025C69.7184 94.9735 69.728 95.5638 69.6216 96.1383C69.3735 97.4419 68.5451 98.8315 69.1981 99.9859C69.6135 100.72 70.483 101.032 71.1288 101.575C71.1864 101.624 71.2406 101.673 71.2914 101.723Z" fill="#454B69"/>
<path d="M211 87C211.002 91.292 209.877 95.5121 207.732 99.2535C205.587 102.995 202.495 106.131 198.754 108.361C198.303 108.631 197.842 108.885 197.373 109.128C196.673 109.491 195.954 109.823 195.218 110.117V110.119C194.983 110.215 194.749 110.305 194.512 110.392C194.401 110.434 194.288 110.476 194.175 110.515C191.393 111.499 188.459 112.001 185.501 112C183.56 112.001 181.624 111.786 179.732 111.358C178.749 111.135 177.78 110.855 176.832 110.518H176.83C175.626 110.09 174.457 109.574 173.332 108.973C173.039 108.819 172.75 108.657 172.466 108.489C172.267 108.374 172.073 108.257 171.879 108.137C168.131 105.816 165.066 102.576 162.985 98.7386C160.904 94.901 159.879 90.5978 160.011 86.2534C160.144 81.909 161.43 77.6736 163.741 73.9649C166.052 70.2563 169.31 67.2024 173.193 65.1047C177.075 63.007 181.448 61.9379 185.881 62.0028C190.313 62.0677 194.652 63.2644 198.469 65.4748C202.286 67.6853 205.449 70.8331 207.646 74.6078C209.844 78.3825 211 82.6537 211 87V87Z" fill="#3F3D56"/>
<path d="M185 87C188.866 87 192 83.6421 192 79.5C192 75.3579 188.866 72 185 72C181.134 72 178 75.3579 178 79.5C178 83.6421 181.134 87 185 87Z" fill="#2F2E41"/>
<path d="M231.694 48H231.694C225.788 48 221 53.262 221 59.7531V68H223.561L225.044 64.9444L224.673 68H241.136L242.484 65.2222L242.147 68H244V61.5247C244 54.0552 238.49 48 231.694 48Z" fill="#2F2E41"/>
<path d="M168.5 190C232.841 190 285 186.418 285 182C285 177.582 232.841 174 168.5 174C104.159 174 52 177.582 52 182C52 186.418 104.159 190 168.5 190Z" fill="#3F3D56"/>
<path d="M89.7267 179C89.6779 178.916 88.5278 176.897 88.1291 172.703C87.7634 168.856 87.9985 162.371 91.1966 153.326C97.2552 136.189 89.8003 122.362 89.7242 122.224L90.092 122C90.1113 122.035 92.0349 125.56 93.1713 131.174C94.6728 138.616 94.126 146.354 91.5951 153.481C85.5469 170.589 90.0434 178.687 90.0895 178.767L89.7267 179Z" fill="#3F3D56"/>
<path d="M87.5 121C88.8807 121 90 119.657 90 118C90 116.343 88.8807 115 87.5 115C86.1193 115 85 116.343 85 118C85 119.657 86.1193 121 87.5 121Z" fill="#5271FF"/>
<path d="M97 132C98.6569 132 100 130.657 100 129C100 127.343 98.6569 126 97 126C95.3431 126 94 127.343 94 129C94 130.657 95.3431 132 97 132Z" fill="#3F3D56"/>
<path d="M90 139C91.6569 139 93 137.657 93 136C93 134.343 91.6569 133 90 133C88.3431 133 87 134.343 87 136C87 137.657 88.3431 139 90 139Z" fill="#5271FF"/>
<path d="M98 145C99.6569 145 101 143.657 101 142C101 140.343 99.6569 139 98 139C96.3431 139 95 140.343 95 142C95 143.657 96.3431 145 98 145Z" fill="#5271FF"/>
<path d="M88 154C89.6569 154 91 152.881 91 151.5C91 150.119 89.6569 149 88 149C86.3431 149 85 150.119 85 151.5C85 152.881 86.3431 154 88 154Z" fill="#3F3D56"/>
<path d="M91.5185 179C91.5185 179 88.2778 172.143 98 167L91.5185 179Z" fill="#3F3D56"/>
<path d="M88 179C88 179 86.7414 170.931 77 171L88 179Z" fill="#3F3D56"/>
<path d="M226.19 62.6757C226.19 62.6757 229.762 70.5586 225 72.1351L229.762 87L237.857 86.5495L240 81.5946L239.524 74.1622L238.81 69.2072C238.81 69.2072 233.81 70.3333 234.286 62L226.19 62.6757Z" fill="#FFB8B8"/>
<path d="M224.94 72.0266C224.94 72.0266 217.57 71.3605 218.24 76.6896C218.91 82.0186 219.58 83.1289 219.58 83.1289L220.25 91.1224L216.229 93.5649H212.433C212.433 93.5649 200.819 96.2295 206.626 99.116C212.433 102.003 214.443 96.8956 214.443 96.8956C214.443 96.8956 225.163 96.8956 225.833 95.1192C226.503 93.3429 224.94 72.0266 224.94 72.0266Z" fill="#FFB8B8"/>
<path d="M239 69.5708C239 69.5708 245.935 67.0752 246.383 72.5201C246.83 77.9651 246.83 78.4188 246.83 78.4188L248.172 86.1324C248.172 86.1324 250.857 92.9385 250.857 94.9804C250.857 97.0222 252.87 103.375 252.87 103.375C252.87 103.375 255.555 112.223 252.647 111.996C249.738 111.769 249.291 102.467 249.291 102.467L243.251 90.2161L241.461 82.7293L239 69.5708Z" fill="#FFB8B8"/>
<path d="M226.142 71.4336H224.344L224.12 80.7257C224.12 80.7257 221.198 84.708 224.794 88.2478L225.693 94L242.099 93.3363L243.222 87.3628C243.222 87.3628 245.47 82.4956 242.323 78.0708L239.402 69H237.829C237.829 69 241.472 82.2252 233.783 82.4956C227.491 82.7168 226.142 71.4336 226.142 71.4336Z" fill="#5271FF"/>
<path d="M226.261 93.447L224.928 97.9173C224.928 97.9173 197.154 176.594 205.598 178.605C214.041 180.617 225.817 183.299 226.928 181.288C228.038 179.276 233.815 120.492 233.815 120.492C233.815 120.492 232.927 181.958 235.815 181.958C238.704 181.958 257.812 182.405 258.923 179.499C260.034 176.594 248.924 98.8113 242.481 97.0232L240.703 93L226.261 93.447Z" fill="#2F2E41"/>
<path d="M242.316 91L224.364 91.6556C224.364 91.6556 223.545 97.5564 224.364 97.5564C224.591 97.5564 243.225 99.0863 242.998 96.4637C242.771 93.8411 242.316 91 242.316 91Z" fill="#3F3D56"/>
<path d="M151 133.5C151.001 138.299 149.674 143.002 147.173 147.066C144.671 151.131 141.095 154.393 136.857 156.477C136.855 156.477 136.855 156.477 136.853 156.479C136.093 156.854 135.315 157.187 134.521 157.479C134.395 157.529 134.267 157.574 134.136 157.617C133.871 157.714 133.601 157.802 133.329 157.885C132.769 158.061 132.201 158.217 131.625 158.352H131.623L131.608 158.357L131.572 158.364C131.497 158.382 131.42 158.4 131.342 158.416C130.913 158.513 130.48 158.596 130.042 158.666C128.706 158.89 127.355 159.001 126.002 159C125.276 159 124.555 158.968 123.845 158.905C123.807 158.904 123.768 158.9 123.73 158.894C121.783 158.714 119.863 158.303 118.009 157.669C117.735 157.574 117.461 157.475 117.191 157.368C112.922 155.729 109.174 152.929 106.353 149.272C103.532 145.615 101.746 141.24 101.188 136.622C100.63 132.004 101.321 127.317 103.187 123.071C105.053 118.825 108.022 115.18 111.773 112.532C115.524 109.884 119.914 108.333 124.467 108.048C129.02 107.763 133.563 108.754 137.604 110.913C141.644 113.073 145.028 116.319 147.39 120.301C149.751 124.282 151 128.847 151 133.5V133.5Z" fill="#3F3D56"/>
<path d="M123 134.119C123 134.119 128.805 131.505 131.532 134.267C134.259 137.028 124.231 136.119 123 134.119Z" fill="#3F3D56"/>
<path d="M132.888 121.44C130.959 118.165 127.142 118.012 127.142 118.012C127.142 118.012 123.422 117.534 121.036 122.523C118.812 127.172 115.742 131.661 120.542 132.75L121.409 130.039L121.945 132.951C122.629 133.001 123.314 133.013 123.999 132.987C129.139 132.82 134.033 133.035 133.876 131.183C133.666 128.719 134.745 124.592 132.888 121.44Z" fill="#2F2E41"/>
<path d="M134.605 157.185C134.739 157.128 134.871 157.069 135 157.004L134.97 156.951L134.605 156.924L132.24 156.758H132.238L131.84 156.731L129.959 156.598L125.862 156.308L123.667 156.154L123.556 156.145H123.529L121.983 156.036L121.479 156L121 158.292C121.966 158.557 122.944 158.747 123.928 158.861C123.967 158.869 124.007 158.874 124.046 158.876C124.775 158.959 125.515 159 126.259 159C127.647 159.002 129.034 158.855 130.404 158.562C130.853 158.47 131.298 158.36 131.738 158.233C131.818 158.212 131.897 158.189 131.974 158.165L132.011 158.156L132.027 158.15H132.029C132.619 157.972 133.202 157.768 133.777 157.537L134.605 157.185Z" fill="#2F2E41"/>
<path d="M124.266 128.383C124.266 128.383 125.166 134.424 123.367 135.156C121.569 135.888 126.964 139 126.964 139H130.022L132 134.79C132 134.79 130.201 131.495 131.281 128.383C132.36 125.271 124.266 128.383 124.266 128.383Z" fill="#A0616A"/>
<path d="M134 157.003V136.458C134 136.458 133.777 134.348 132.007 134.897C131.826 134.954 131.651 135.027 131.482 135.115C131.189 135.273 130.91 135.456 130.647 135.66C130.546 135.736 130.443 135.819 130.336 135.909C130.327 135.915 130.319 135.924 130.31 135.931C126.972 138.741 125.392 136.81 125.04 136.458C124.911 136.331 124.574 135.97 124.196 135.563V135.561C124.032 135.386 123.861 135.203 123.699 135.023C123.198 134.483 122.757 134 122.757 134L121 135.404L121.429 146.048L121.529 148.559V148.561L121.562 149.341V149.346L121.836 156.155L121.877 157.183C122.472 157.372 123.076 157.531 123.686 157.659C123.866 157.697 124.056 157.734 124.251 157.769C125.773 158.044 127.689 158.186 128.905 157.533C129.151 157.401 129.409 157.293 129.675 157.211C130.204 157.052 130.755 156.976 131.307 156.986C131.425 156.988 131.541 156.992 131.657 156.999H131.659C132.181 157.036 132.698 157.125 133.202 157.264L134 157.003Z" fill="#3F3D56"/>
<path d="M125.29 157.004C124.903 157.544 124.472 158.045 124.002 158.5C123.857 158.643 123.712 158.782 123.565 158.919C123.535 158.947 123.505 158.972 123.475 159C121.6 158.816 119.751 158.394 117.966 157.743C117.702 157.646 117.438 157.544 117.178 157.435C117.342 156.982 117.471 156.515 117.564 156.039C118.742 150.038 115.316 140.93 115.018 139.469C114.909 138.944 115.31 138.215 115.951 137.439C117.35 135.751 119.896 133.844 120.836 133.334C121.548 132.988 122.346 132.908 123.105 133.107H123.107C123.345 133.16 123.578 133.236 123.803 133.334V133.337C123.806 133.371 123.829 133.635 123.869 134.087C123.891 134.334 123.916 134.635 123.948 134.987V134.99C124.006 135.647 124.078 136.467 124.163 137.402V137.404C124.677 143.167 125.606 153.196 125.968 154.902C126.102 155.534 125.804 156.266 125.29 157.004Z" fill="#D0CDE1"/>
<path d="M133.743 156.984C133.875 156.943 134.006 156.899 134.134 156.851C134.942 156.568 135.735 156.245 136.508 155.883C135.35 152.601 138.771 142.169 139.751 138.94V138.935C139.866 138.557 139.947 138.278 139.983 138.123C140.345 136.543 134.828 135.053 134.648 134.701C134.508 134.435 132.267 134.166 131.211 134.055C130.885 134.02 130.671 134 130.671 134C130.391 134.21 130.178 134.813 130.011 135.689C129.995 135.759 129.982 135.833 129.97 135.907C129.851 136.585 129.759 137.404 129.684 138.324C129.274 143.34 129.414 151.266 129.04 154.531C128.965 155.205 128.996 155.886 129.133 156.551C129.174 156.767 129.226 156.981 129.29 157.192C129.369 157.466 129.464 157.736 129.574 158C130.02 157.932 130.461 157.851 130.898 157.757C130.977 157.742 131.056 157.725 131.132 157.707L131.168 157.701L131.184 157.696H131.186C131.772 157.565 132.35 157.414 132.921 157.244L133.743 156.984Z" fill="#D0CDE1"/>
<path d="M132.5 127C132.776 127 133 126.776 133 126.5C133 126.224 132.776 126 132.5 126C132.224 126 132 126.224 132 126.5C132 126.776 132.224 127 132.5 127Z" fill="#A0616A"/>
<path d="M122.5 127C122.776 127 123 126.776 123 126.5C123 126.224 122.776 126 122.5 126C122.224 126 122 126.224 122 126.5C122 126.776 122.224 127 122.5 127Z" fill="#A0616A"/>
<path d="M134.349 157.268C134.471 157.226 134.591 157.181 134.708 157.131C135.45 156.841 136.178 156.509 136.888 156.137C136.888 156.138 136.888 156.14 136.888 156.141C136.888 156.142 136.889 156.143 136.89 156.144C136.889 156.141 136.89 156.138 136.892 156.135C138.132 149.024 139.447 141.418 139.865 138.731V138.727C139.937 138.26 139.983 137.944 139.995 137.802C140.161 136 136.009 136 136.009 136L135.347 139.629L134.349 145.112L134.006 146.996L132.192 156.945L132.134 157.264L132 158H132.002C132.54 157.865 133.07 157.71 133.594 157.535L134.349 157.268Z" fill="#D0CDE1"/>
<path d="M123.88 158.989C121.854 158.81 119.855 158.401 117.926 157.771C117.781 157.225 117.636 156.673 117.491 156.119C115.692 149.243 114 141.967 114 140.603C114 139.475 114.808 138.66 115.748 138.095C116.642 137.586 117.612 137.216 118.624 137C118.624 137 119.213 139.389 120.06 142.835C120.514 144.675 121.039 146.815 121.585 149.054V149.057C122.22 151.655 122.886 154.383 123.503 156.931C123.602 157.344 123.7 157.751 123.797 158.152V158.161C123.799 158.164 123.8 158.167 123.8 158.17C123.818 158.244 123.837 158.318 123.855 158.392C123.896 158.567 123.938 158.74 123.977 158.91C123.986 158.939 123.993 158.969 124 159C123.96 158.998 123.92 158.995 123.88 158.989V158.989Z" fill="#D0CDE1"/>
<path opacity="0.2" d="M120 142L124 158C124 158 122.133 144 120 142Z" fill="black"/>
<path opacity="0.2" d="M135 140L133.893 145.356L133.513 147.196L131.506 156.915H131.504L131.442 157.226H131.44L131.293 157.945H131.291L131.275 157.95L131.238 157.956L131 158C131.021 157.754 131.046 157.491 131.073 157.213C131.082 157.11 131.092 157.005 131.103 156.895C131.534 152.416 132.452 144.679 133.893 141.438C134.233 140.675 134.601 140.162 135 140Z" fill="black"/>
<path d="M127.5 132C130.538 132 133 129.538 133 126.5C133 123.462 130.538 121 127.5 121C124.462 121 122 123.462 122 126.5C122 129.538 124.462 132 127.5 132Z" fill="#A0616A"/>
<path d="M131.825 121.129L128.14 119L123.053 119.871L122 125L124.62 124.889L125.352 123.005V124.858L126.561 124.806L127.263 121.806L127.702 125L132 124.903L131.825 121.129Z" fill="#2F2E41"/>
<path d="M60.5 100C63.5376 100 66 97.3137 66 94C66 90.6863 63.5376 88 60.5 88C57.4624 88 55 90.6863 55 94C55 97.3137 57.4624 100 60.5 100Z" fill="#FFB8B8"/>
<path d="M58 98.6667C58 98.6667 58.7826 101.833 58.7826 102.167C58.7826 102.5 62.5 104 62.5 104L65.8261 103.5L67 100.5C67 100.5 65.0435 98 65.0435 97L58 98.6667Z" fill="#FFB8B8"/>
<path d="M62.0424 127C60.2269 127.001 58.4164 126.805 56.6419 126.414C56.5539 124.587 57.1923 122.519 57.1923 122.519L56.4953 117.694L51 106.341L58.6361 100.404C58.6361 100.404 60.5265 103.54 63.2741 102.607C64.0382 102.371 64.7096 101.895 65.1924 101.247C65.6753 100.6 65.945 99.8131 65.9631 99L75 102.235L71.9681 115.858L72.9833 120.222L74.0954 123.919C70.3907 125.948 66.2487 127.007 62.0424 127Z" fill="#D0CDE1"/>
<path d="M48 122.296L49.1593 112.672C48.9798 108.949 51.3206 107 51.3206 107H54.0205L56 113.558L54.9648 117.403L53.6614 122.242L53.3001 122.774C53.3001 122.774 53.6614 123.304 53.4796 123.483C53.3001 123.66 53.1205 124.369 53.1205 124.369C53.1205 124.369 53.1582 124.622 53.2247 125C51.3801 124.306 49.6261 123.399 48 122.296Z" fill="#D0CDE1"/>
<path d="M81 117.879C79.7903 119.428 78.4144 120.812 76.9022 122C76.6745 121.558 76.4836 121.094 76.3317 120.614L73.7462 115.165L72 111.489L72.3324 102L75.1662 102.548C75.1662 102.548 76.8324 104.373 77.4993 106.564L78.8331 113.131L80.9979 117.877L81 117.879Z" fill="#D0CDE1"/>
<path d="M182.879 83C182.879 83 183.033 86.9661 182.104 87.8814C181.176 88.7966 186.749 92 186.749 92L190 86.9661C190 86.9661 188.761 84.8305 189.071 83L182.879 83Z" fill="#A0616A"/>
<path d="M185.5 85C188.538 85 191 82.7614 191 80C191 77.2386 188.538 75 185.5 75C182.462 75 180 77.2386 180 80C180 82.7614 182.462 85 185.5 85Z" fill="#A0616A"/>
<path d="M194.749 109.178C194.784 109.586 194.818 109.995 194.851 110.403C194.737 110.445 194.621 110.487 194.505 110.526C191.641 111.502 188.619 112.001 185.574 112C183.575 112.001 181.582 111.788 179.634 111.363C178.622 111.142 177.625 110.863 176.648 110.529L176.646 110.548C176.644 110.542 176.644 110.535 176.646 110.529C176.682 110.081 176.771 109.638 176.911 109.209V109.207C177.041 108.754 177.218 108.231 177.42 107.654C177.638 107.037 177.652 105.688 177.606 104.421C177.601 104.325 177.599 104.226 177.594 104.131C177.575 103.721 177.552 103.327 177.529 102.978C177.476 102.19 177.42 101.63 177.42 101.63L174 92.9617L182.259 87.2606C182.747 88.7561 183.792 88.7034 183.792 88.7034C188.225 88.9911 189.041 86.0966 189.066 86.0022V86L197 90.9062L193.738 98.3972C193.738 98.3972 193.871 99.6665 194.059 101.604C194.087 101.889 194.115 102.19 194.147 102.504C194.328 104.406 194.549 106.775 194.749 109.178Z" fill="#D0CDE1"/>
<path d="M178 102.799L177.856 104.015L177.821 104.322L177.211 109.516L177.207 109.537V109.54L176.975 110.978L176.973 111C176.971 110.993 176.971 110.985 176.973 110.978C175.877 110.516 174.813 109.957 173.789 109.308C173.522 109.14 173.259 108.965 173 108.784C173.171 108.164 173.372 107.556 173.604 106.964L174.023 103.163L174.152 102L177.753 102.749L178 102.799Z" fill="#A0616A"/>
<path d="M176.353 93L174.101 93.2107C174.101 93.2107 172.625 103.112 173.091 103.112C173.557 103.112 178.838 104.236 178.994 103.955C179.149 103.674 176.353 93 176.353 93Z" fill="#D0CDE1"/>
<path d="M198.962 108.829C198.477 109.101 197.983 109.357 197.479 109.602C196.727 109.968 195.954 110.302 195.164 110.599V110.601C194.912 110.697 194.66 110.788 194.406 110.875C194.287 110.918 194.166 110.96 194.045 111L194.299 109.631L193.145 102.888L193 102.043L193.579 101.943L198.998 101V107.115C198.998 107.115 199.013 107.777 198.962 108.829Z" fill="#A0616A"/>
<path d="M193.218 90L196.187 90.3963C196.187 90.3963 199.764 101.732 198.851 102.207C197.937 102.683 192 103 192 103L193.218 90Z" fill="#D0CDE1"/>
<path d="M78.5 90C82.6421 90 86 86.6421 86 82.5C86 78.3579 82.6421 75 78.5 75C74.3579 75 71 78.3579 71 82.5C71 86.6421 74.3579 90 78.5 90Z" fill="#5271FF"/>
<path d="M143.5 122C147.642 122 151 118.642 151 114.5C151 110.358 147.642 107 143.5 107C139.358 107 136 110.358 136 114.5C136 118.642 139.358 122 143.5 122Z" fill="#5271FF"/>
<path d="M204 76C207.866 76 211 72.866 211 69C211 65.134 207.866 62 204 62C200.134 62 197 65.134 197 69C197 72.866 200.134 76 204 76Z" fill="#5271FF"/>
<path d="M230 66C233.314 66 236 63.0899 236 59.5C236 55.9102 233.314 53 230 53C226.686 53 224 55.9102 224 59.5C224 63.0899 226.686 66 230 66Z" fill="#FFB8B8"/>
<path d="M235.155 51.2365C234.632 50.5521 233.954 49.9944 233.175 49.6065C232.395 49.2186 231.534 49.0111 230.659 49H230.446C226.334 49 223 52.6278 223 57.1029V57.1029H224.378L224.6 55.4516L224.927 57.1029H233.099L233.784 55.7059L233.613 57.1029H235.22C235.971 60.7353 234.893 64.3676 231.986 68H234.725L236.095 65.2059L235.752 68H240.973L242 61.5735C242 56.7607 239.132 52.6795 235.155 51.2365Z" fill="#2F2E41"/>
<path d="M236 52C238.209 52 240 50.2091 240 48C240 45.7909 238.209 44 236 44C233.791 44 232 45.7909 232 48C232 50.2091 233.791 52 236 52Z" fill="#2F2E41"/>
<path d="M181.21 79C183.911 77.2136 184.719 76.7866 187.814 77.4766L188 73L180 74.6634L181.21 79Z" fill="#2F2E41"/>
<path d="M59.4154 102.182C59.5213 100.598 58.8129 99.0788 58.024 97.7048C57.6462 97.0481 57.2431 96.3945 57.0382 95.6651C56.8334 94.9356 56.8526 94.1 57.2821 93.4776C57.6475 92.948 58.2473 92.6467 58.8004 92.323C60.3617 91.409 61.771 90.099 62.408 88.3945C62.0202 88.6271 62.1477 89.2726 62.5082 89.546C62.8686 89.8194 63.3472 89.8568 63.7823 89.9771C65.3687 90.4155 66.3688 91.9574 67.1788 93.4026C67.3112 93.6383 67.4463 93.8875 67.4552 94.1585C67.464 94.4296 67.3505 94.6747 67.231 94.91C66.8841 95.5927 66.4532 96.2523 66.3123 97.0063C66.1509 97.8672 66.3893 98.7571 66.6867 99.5842C67.0024 100.464 67.4107 101.347 68.1115 101.961C68.8124 102.574 69.8739 102.851 70.6907 102.407C69.805 100.997 68.8834 99.4182 69.1457 97.7713C69.2725 96.983 69.6663 96.2557 69.8158 95.4708C70.1007 93.9734 69.4748 92.4678 68.8635 91.0721L67.0371 86.9067C66.7581 86.2698 66.4423 85.5909 65.8448 85.2467C65.4407 85.0149 64.9604 84.969 64.4964 84.9417C63.0027 84.8645 61.4622 84.9671 60.0977 85.5788C57.6116 86.6924 56.1236 89.2619 54.9599 91.7436C54.6111 92.487 54.269 93.2756 54.3157 94.0973C54.3412 94.5479 54.4826 94.9821 54.6008 95.4178C55.0816 97.1917 55.1744 99.0452 55.2652 100.882C55.3349 102.291 55.3126 103.622 54.7502 104.929C55.5939 105.065 56.8255 105.472 57.6418 105.109C58.706 104.637 59.321 103.284 59.4154 102.182Z" fill="#454B69"/>
</svg>
