<svg width="322" height="234" viewBox="0 0 322 234" fill="none" xmlns="http://www.w3.org/2000/svg">
<path d="M236.159 44H236.159C229.996 44 225 49.7882 225 56.9284V66H227.673L229.22 62.6389L228.833 66H246.011L247.418 62.9444L247.066 66H249V58.8771C249 50.6607 243.251 44 236.159 44Z" fill="#2F2E41"/>
<path d="M169 195C237.483 195 293 191.194 293 186.5C293 181.806 237.483 178 169 178C100.517 178 45 181.806 45 186.5C45 191.194 100.517 195 169 195Z" fill="#3F3D56"/>
<path d="M85.0144 183C84.9575 182.912 83.6158 180.786 83.1506 176.372C82.7239 172.322 82.9983 165.496 86.7293 155.974C93.7977 137.936 85.1004 123.381 85.0115 123.236L85.4406 123C85.4631 123.037 87.7074 126.748 89.0332 132.657C90.7849 140.49 90.1471 148.636 87.1943 156.138C80.138 174.146 85.384 182.671 85.4377 182.755L85.0144 183Z" fill="#3F3D56"/>
<path d="M82.5 122C84.433 122 86 120.433 86 118.5C86 116.567 84.433 115 82.5 115C80.567 115 79 116.567 79 118.5C79 120.433 80.567 122 82.5 122Z" fill="#5271FF"/>
<path d="M92.5 134C94.433 134 96 132.433 96 130.5C96 128.567 94.433 127 92.5 127C90.567 127 89 128.567 89 130.5C89 132.433 90.567 134 92.5 134Z" fill="#3F3D56"/>
<path d="M85.5 140C87.433 140 89 138.657 89 137C89 135.343 87.433 134 85.5 134C83.567 134 82 135.343 82 137C82 138.657 83.567 140 85.5 140Z" fill="#5271FF"/>
<path d="M94 147C95.6569 147 97 145.657 97 144C97 142.343 95.6569 141 94 141C92.3431 141 91 142.343 91 144C91 145.657 92.3431 147 94 147Z" fill="#5271FF"/>
<path d="M83 157C84.6569 157 86 155.657 86 154C86 152.343 84.6569 151 83 151C81.3431 151 80 152.343 80 154C80 155.657 81.3431 157 83 157Z" fill="#3F3D56"/>
<path d="M87.4444 183C87.4444 183 84.6667 175.571 93 170L87.4444 183Z" fill="#3F3D56"/>
<path d="M83 183C83 183 81.627 174.931 71 175L83 183Z" fill="#3F3D56"/>
<path d="M231.111 59.7297C231.111 59.7297 234.444 68.2432 230 69.9459L234.444 86L242 85.5135L244 80.1622L243.556 72.1351L242.889 66.7838C242.889 66.7838 238.222 68 238.667 59L231.111 59.7297Z" fill="#FFB8B8"/>
<path d="M228.889 69.0295C228.889 69.0295 221.168 68.292 221.87 74.192C222.572 80.0921 223.274 81.3212 223.274 81.3212L223.976 90.1713L219.764 92.8755H215.787C215.787 92.8755 203.62 95.8255 209.703 99.0213C215.787 102.217 217.892 96.563 217.892 96.563C217.892 96.563 229.123 96.563 229.825 94.5963C230.527 92.6296 228.889 69.0295 228.889 69.0295Z" fill="#FFB8B8"/>
<path d="M244 67.5974C244 67.5974 251.398 64.9857 251.875 70.6839C252.352 76.382 252.352 76.8569 252.352 76.8569L253.784 84.9293C253.784 84.9293 256.647 92.052 256.647 94.1888C256.647 96.3256 258.795 102.973 258.795 102.973C258.795 102.973 261.659 112.233 258.557 111.996C255.454 111.758 254.977 102.024 254.977 102.024L248.534 89.2029L246.625 81.3679L244 67.5974Z" fill="#FFB8B8"/>
<path d="M230.292 69.531H228.408L228.173 79.1947C228.173 79.1947 225.112 83.3363 228.879 87.0177L229.821 93L247.008 92.3097L248.185 86.0973C248.185 86.0973 250.54 81.0354 247.244 76.4336L244.183 67H242.535C242.535 67 246.352 80.7543 238.297 81.0354C231.705 81.2655 230.292 69.531 230.292 69.531Z" fill="#5271FF"/>
<path d="M230.88 92.4721L229.45 97.1935C229.45 97.1935 199.657 180.29 208.714 182.415C217.771 184.539 230.403 187.372 231.595 185.248C232.787 183.123 238.984 121.037 238.984 121.037C238.984 121.037 238.03 185.956 241.129 185.956C244.227 185.956 264.725 186.428 265.917 183.359C267.109 180.29 255.191 98.1378 248.279 96.2493L246.373 92L230.88 92.4721Z" fill="#2F2E41"/>
<path d="M247.316 90L229.364 90.6556C229.364 90.6556 228.545 96.5564 229.364 96.5564C229.591 96.5564 248.225 98.0863 247.998 95.4637C247.771 92.8411 247.316 90 247.316 90Z" fill="#3F3D56"/>
<path d="M150 135C150.001 140.082 148.595 145.06 145.943 149.364C143.291 153.668 139.501 157.122 135.009 159.329C135.006 159.329 135.006 159.329 135.004 159.331C134.199 159.727 133.374 160.081 132.533 160.39C132.399 160.442 132.263 160.49 132.125 160.535C131.843 160.638 131.557 160.731 131.269 160.82C130.675 161.006 130.073 161.171 129.463 161.314H129.461L129.444 161.319L129.407 161.326C129.327 161.345 129.245 161.364 129.163 161.381C128.708 161.484 128.248 161.572 127.784 161.646C126.369 161.883 124.937 162.001 123.502 162C122.733 162 121.969 161.967 121.216 161.9C121.175 161.898 121.134 161.894 121.094 161.888C119.03 161.697 116.995 161.262 115.03 160.59C114.739 160.49 114.448 160.385 114.162 160.272C109.637 158.536 105.664 155.572 102.674 151.7C99.684 147.827 97.7906 143.196 97.1991 138.306C96.6075 133.415 97.3403 128.454 99.3181 123.958C101.296 119.462 104.443 115.603 108.419 112.799C112.395 109.995 117.049 108.353 121.875 108.051C126.701 107.749 131.517 108.798 135.8 111.085C140.083 113.372 143.67 116.809 146.173 121.024C148.676 125.24 150 130.073 150 135V135Z" fill="#3F3D56"/>
<path d="M120 135.119C120 135.119 126.45 132.505 129.48 135.267C132.51 138.028 121.368 137.119 120 135.119Z" fill="#3F3D56"/>
<path d="M131.749 121.67C129.579 118.176 125.284 118.013 125.284 118.013C125.284 118.013 121.1 117.503 118.415 122.824C115.913 127.784 112.46 132.572 117.859 133.733L118.835 130.841L119.439 133.948C120.207 134.001 120.979 134.013 121.749 133.986C127.531 133.808 133.038 134.038 132.86 132.061C132.625 129.434 133.838 125.031 131.749 121.67Z" fill="#2F2E41"/>
<path d="M132.577 160.185C132.72 160.128 132.861 160.069 133 160.004L132.968 159.951L132.577 159.924L130.043 159.758H130.04L129.615 159.731L127.599 159.598L123.209 159.308L120.857 159.154L120.738 159.145H120.709L119.053 159.036L118.513 159L118 161.292C119.036 161.557 120.083 161.747 121.137 161.861C121.179 161.869 121.221 161.874 121.264 161.876C122.044 161.959 122.837 162 123.635 162C125.122 162.002 126.607 161.855 128.075 161.562C128.557 161.47 129.034 161.36 129.505 161.233C129.59 161.212 129.676 161.189 129.758 161.165L129.797 161.156L129.814 161.15H129.817C130.449 160.972 131.073 160.768 131.689 160.537L132.577 160.185Z" fill="#2F2E41"/>
<path d="M121.407 130.383C121.407 130.383 122.406 136.424 120.408 137.156C118.409 137.888 124.405 141 124.405 141H127.802L130 136.79C130 136.79 128.002 133.495 129.201 130.383C130.4 127.271 121.407 130.383 121.407 130.383Z" fill="#A0616A"/>
<path d="M133 160.879V137.765C133 137.765 132.743 135.391 130.701 136.009C130.492 136.074 130.289 136.156 130.095 136.255C129.757 136.433 129.434 136.637 129.131 136.867C129.015 136.953 128.896 137.047 128.772 137.148C128.762 137.155 128.752 137.165 128.742 137.172C124.89 140.333 123.068 138.161 122.662 137.765C122.513 137.622 122.124 137.216 121.688 136.759V136.756C121.498 136.56 121.301 136.353 121.115 136.151C120.537 135.544 120.027 135 120.027 135L118 136.579L118.495 148.554L118.611 151.378V151.381L118.649 152.259V152.264L118.964 159.924L119.012 161.081C119.698 161.293 120.395 161.472 121.099 161.617C121.306 161.659 121.526 161.7 121.751 161.74C123.507 162.05 125.718 162.21 127.122 161.474C127.405 161.326 127.703 161.205 128.01 161.112C128.621 160.934 129.256 160.848 129.893 160.859C130.029 160.862 130.163 160.866 130.297 160.874H130.299C130.901 160.915 131.497 161.015 132.079 161.172L133 160.879Z" fill="#3F3D56"/>
<path d="M123.161 159.851C122.704 160.432 122.194 160.971 121.638 161.461C121.467 161.616 121.296 161.766 121.122 161.913C121.087 161.943 121.052 161.97 121.016 162C118.8 161.801 116.615 161.347 114.505 160.646C114.193 160.541 113.881 160.432 113.574 160.315C113.768 159.827 113.921 159.324 114.03 158.811C115.422 152.349 111.373 142.54 111.021 140.967C110.893 140.401 111.366 139.616 112.124 138.78C113.778 136.963 116.787 134.908 117.897 134.36C118.739 133.987 119.682 133.901 120.578 134.116H120.581C120.862 134.173 121.137 134.254 121.404 134.36V134.362C121.407 134.4 121.434 134.684 121.482 135.17C121.507 135.437 121.537 135.761 121.575 136.14V136.143C121.643 136.851 121.729 137.733 121.83 138.741V138.743C122.436 144.949 123.534 155.749 123.962 157.587C124.121 158.268 123.768 159.055 123.161 159.851Z" fill="#D0CDE1"/>
<path d="M132.174 160.857C132.319 160.81 132.461 160.761 132.601 160.707C133.483 160.389 134.347 160.026 135.191 159.618C133.928 155.927 137.66 144.19 138.728 140.557V140.552C138.854 140.127 138.942 139.813 138.981 139.638C139.377 137.861 133.358 136.185 133.161 135.789C133.009 135.489 130.564 135.187 129.412 135.061C129.056 135.022 128.823 135 128.823 135C128.518 135.236 128.285 135.914 128.103 136.9C128.086 136.979 128.071 137.062 128.059 137.146C127.928 137.908 127.828 138.829 127.747 139.864C127.299 145.508 127.452 154.425 127.044 158.097C126.961 158.855 126.995 159.622 127.145 160.37C127.189 160.613 127.247 160.854 127.317 161.091C127.402 161.399 127.506 161.703 127.626 162C128.113 161.924 128.594 161.833 129.071 161.727C129.157 161.71 129.243 161.69 129.326 161.671L129.366 161.663L129.383 161.658H129.385C130.024 161.511 130.655 161.341 131.277 161.15L132.174 160.857Z" fill="#D0CDE1"/>
<path d="M119.5 128C119.776 128 120 127.776 120 127.5C120 127.224 119.776 127 119.5 127C119.224 127 119 127.224 119 127.5C119 127.776 119.224 128 119.5 128Z" fill="#A0616A"/>
<path d="M132.642 160.202C132.78 160.155 132.914 160.106 133.047 160.052C133.882 159.736 134.7 159.374 135.499 158.968C135.498 158.969 135.499 158.97 135.499 158.972C135.499 158.973 135.5 158.974 135.501 158.975C135.501 158.972 135.501 158.968 135.503 158.965C136.899 151.209 138.378 142.911 138.848 139.98V139.975C138.929 139.466 138.981 139.12 138.995 138.966C139.181 137 134.51 137 134.51 137L133.766 140.959L132.642 146.941L132.256 148.995L130.216 159.849L130.151 160.197L130 161H130.002C130.607 160.853 131.204 160.684 131.793 160.493L132.642 160.202Z" fill="#D0CDE1"/>
<path d="M120.88 161.988C118.854 161.793 116.855 161.347 114.926 160.659C114.781 160.064 114.636 159.462 114.491 158.857C112.692 151.356 111 143.419 111 141.931C111 140.7 111.808 139.811 112.748 139.194C113.642 138.639 114.612 138.236 115.624 138C115.624 138 116.213 140.607 117.06 144.366C117.514 146.373 118.039 148.708 118.585 151.15V151.153C119.22 153.987 119.886 156.963 120.503 159.743C120.602 160.194 120.7 160.638 120.797 161.075V161.085C120.799 161.088 120.8 161.091 120.8 161.094C120.818 161.175 120.837 161.256 120.855 161.337C120.896 161.528 120.938 161.716 120.977 161.902C120.986 161.934 120.993 161.966 121 162C120.96 161.998 120.92 161.994 120.88 161.988V161.988Z" fill="#D0CDE1"/>
<path opacity="0.2" d="M117 144L121 161C121 161 119.133 146.125 117 144Z" fill="black"/>
<path opacity="0.2" d="M128 162L129 161V161.026C128.67 161.403 128.337 161.728 128 162Z" fill="black"/>
<path opacity="0.2" d="M134 141L132.617 146.951L132.141 148.995L129.633 159.794H129.63L129.553 160.14H129.55L129.367 160.939H129.364L129.344 160.944L129.298 160.951L129 161C129.026 160.727 129.057 160.435 129.092 160.125C129.103 160.011 129.115 159.894 129.129 159.772C129.667 154.795 130.816 146.199 132.617 142.598C133.041 141.75 133.502 141.18 134 141Z" fill="black"/>
<path d="M125.5 133C128.538 133 131 130.538 131 127.5C131 124.462 128.538 122 125.5 122C122.462 122 120 124.462 120 127.5C120 130.538 122.462 133 125.5 133Z" fill="#A0616A"/>
<path d="M130.789 122.129L126.368 120L120.263 120.871L119 126L122.144 125.889L123.023 124.005V125.858L124.474 125.806L125.316 122.806L125.842 126L131 125.903L130.789 122.129Z" fill="#2F2E41"/>
<path d="M82 101C82 105.287 80.9983 109.512 79.0777 113.325C77.1571 117.139 74.3729 120.432 70.9554 122.932C70.0221 123.618 69.0452 124.241 68.0312 124.796C62.4769 127.825 56.0467 128.745 49.8885 127.391C48.5774 127.104 47.29 126.714 46.0381 126.225C41.5267 124.467 37.5723 121.487 34.6024 117.607C31.6325 113.726 29.7599 109.091 29.1871 104.205C28.6142 99.3183 29.3629 94.3652 31.3522 89.8807C33.3414 85.3962 36.4957 81.5509 40.474 78.7604C44.4523 75.9699 49.1033 74.3403 53.9246 74.0478C58.7458 73.7552 63.5538 74.8108 67.829 77.1004C72.1043 79.39 75.6841 82.8266 78.1817 87.0388C80.6793 91.251 81.9996 96.0787 82 101V101Z" fill="#3F3D56"/>
<path d="M54 99C57.3137 99 60 96.3137 60 93C60 89.6863 57.3137 87 54 87C50.6863 87 48 89.6863 48 93C48 96.3137 50.6863 99 54 99Z" fill="#FFB8B8"/>
<path d="M51 97.6667C51 97.6667 51.8696 100.833 51.8696 101.167C51.8696 101.5 56 103 56 103L59.6957 102.5L61 99.5C61 99.5 58.8261 97 58.8261 96L51 97.6667Z" fill="#FFB8B8"/>
<path d="M56.5025 128C54.6113 128.001 52.7255 127.798 50.877 127.393C50.7853 125.501 50.7242 123.417 50.7242 123.417L48.8631 117.948L45 106.603L52.9542 100.454C52.9542 100.454 54.9234 103.702 57.7855 102.736C58.5815 102.492 59.2808 101.999 59.7838 101.328C60.2868 100.657 60.5677 99.8422 60.5865 99L70 102.351L68.3739 115.713L68.2823 116.46L69.0577 124.809C65.1987 126.91 60.8841 128.007 56.5025 128V128Z" fill="#D0CDE1"/>
<path d="M48.532 87.5879C48.532 87.5879 50.6001 83.1243 54.564 84.1543C58.5279 85.1844 60.7684 86.7295 60.9408 88.2746C61.1131 89.8197 60.8546 92.1373 60.8546 92.1373C60.8546 92.1373 60.4237 88.9613 57.6662 89.648C54.9087 90.3347 50.6001 89.8197 50.6001 89.8197L49.9107 96C49.9107 96 49.1352 94.8841 48.2734 95.5708C47.4117 96.2575 45.7745 88.9613 48.532 87.5879Z" fill="#2F2E41"/>
<path d="M41 122.996L42.1593 112.302C41.9798 108.165 44.3206 106 44.3206 106H47.0205L49 113.287L47.9648 117.559L46.6614 122.935L46.3001 123.527C46.3001 123.527 46.6614 124.116 46.4796 124.315C46.3001 124.511 46.1205 125.299 46.1205 125.299C46.1205 125.299 46.1582 125.581 46.2247 126C44.3801 125.229 42.6261 124.221 41 122.996V122.996Z" fill="#D0CDE1"/>
<path d="M77 118.467C75.5215 120.171 73.8398 121.693 71.9916 123C71.7133 122.513 71.4799 122.003 71.2943 121.475L68.1343 115.481L66 111.438L66.4063 101L69.8698 101.603C69.8698 101.603 71.9063 103.61 72.7214 106.02L74.3516 113.244L76.9975 118.465L77 118.467Z" fill="#D0CDE1"/>
<path d="M214 85.5C214.002 90.0495 212.811 94.5228 210.539 98.4887C208.268 102.455 204.994 105.779 201.034 108.142C200.556 108.428 200.068 108.698 199.571 108.956C198.831 109.341 198.069 109.692 197.29 110.004V110.007C197.041 110.107 196.793 110.204 196.542 110.295C196.425 110.34 196.305 110.384 196.186 110.426C193.24 111.468 190.133 112.001 187.002 112C184.945 112.001 182.896 111.773 180.892 111.32C179.852 111.083 178.826 110.786 177.822 110.429H177.82C176.545 109.976 175.307 109.428 174.116 108.792C173.806 108.628 173.5 108.456 173.199 108.278C172.989 108.156 172.783 108.032 172.578 107.905C168.61 105.444 165.364 102.011 163.16 97.9429C160.957 93.875 159.872 89.3136 160.012 84.7086C160.153 80.1036 161.514 75.614 163.961 71.6828C166.409 67.7516 169.858 64.5146 173.969 62.291C178.08 60.0674 182.71 58.9342 187.403 59.003C192.096 59.0718 196.69 60.3403 200.732 62.6833C204.773 65.0264 208.122 68.3631 210.449 72.3643C212.776 76.3655 214 80.8929 214 85.5V85.5Z" fill="#3F3D56"/>
<path d="M183.879 81C183.879 81 184.033 85.4068 183.104 86.4237C182.176 87.4407 187.749 91 187.749 91L191 85.4068C191 85.4068 189.761 83.0339 190.071 81L183.879 81Z" fill="#A0616A"/>
<path d="M187 84C190.314 84 193 81.3137 193 78C193 74.6863 190.314 72 187 72C183.686 72 181 74.6863 181 78C181 81.3137 183.686 84 187 84Z" fill="#A0616A"/>
<path d="M196.749 108.961C196.784 109.401 196.818 109.841 196.851 110.281C196.737 110.326 196.621 110.37 196.505 110.413C193.641 111.464 190.619 112.001 187.574 112C185.575 112.002 183.582 111.771 181.634 111.314C180.622 111.076 179.625 110.776 178.648 110.415L178.646 110.437C178.644 110.43 178.644 110.422 178.646 110.415C178.682 109.933 178.771 109.456 178.911 108.994V108.992C179.041 108.504 179.218 107.942 179.42 107.32C179.638 106.655 179.652 105.203 179.606 103.838C179.601 103.734 179.599 103.628 179.594 103.526C179.575 103.084 179.552 102.66 179.529 102.284C179.476 101.435 179.42 100.832 179.42 100.832L176 91.4973L184.259 85.3576C184.747 86.9682 185.792 86.9114 185.792 86.9114C190.225 87.2212 191.041 84.1041 191.066 84.0024V84L199 89.2836L195.738 97.3508C195.738 97.3508 195.871 98.7178 196.059 100.804C196.087 101.111 196.115 101.435 196.147 101.773C196.328 103.822 196.549 106.374 196.749 108.961Z" fill="#D0CDE1"/>
<path d="M179 101.799L178.856 103.015L178.821 103.322L178.211 108.516L178.207 108.537V108.54L177.975 109.978L177.973 110C177.971 109.993 177.971 109.985 177.973 109.978C176.877 109.516 175.813 108.957 174.789 108.308C174.522 108.14 174.259 107.965 174 107.784C174.171 107.164 174.372 106.556 174.604 105.964L175.023 102.163L175.152 101L178.753 101.749L179 101.799Z" fill="#A0616A"/>
<path d="M177.794 91L175.917 91.2298C175.917 91.2298 174.687 102.032 175.076 102.032C175.464 102.032 179.865 103.257 179.995 102.951C180.124 102.644 177.794 91 177.794 91Z" fill="#D0CDE1"/>
<path d="M182.095 71.6323L181.014 71.223C181.014 71.223 183.274 68.8694 186.418 69.0741L185.534 68.1531C185.534 68.1531 187.696 67.3345 189.661 69.4834C190.694 70.613 191.89 71.9408 192.635 73.4366H193.792L193.309 74.4428L195 75.4491L193.264 75.2683C193.429 76.1371 193.372 77.0355 193.1 77.8744L192.707 79C192.707 79 191.135 75.7255 191.135 75.3161V76.3394C191.135 76.3394 190.054 75.4185 190.054 74.8045L189.465 75.5208L189.17 74.3952L185.534 75.5208L186.124 74.5998L183.864 74.9068L184.748 73.7812C184.748 73.7812 182.193 75.1115 182.095 76.2371C181.997 77.3627 180.719 78.7953 180.719 78.7953L180.13 77.772C180.13 77.772 179.245 73.1672 182.095 71.6323Z" fill="#2F2E41"/>
<path d="M200.962 107.829C200.477 108.101 199.983 108.357 199.479 108.602C198.727 108.968 197.954 109.302 197.164 109.599V109.601C196.912 109.697 196.66 109.788 196.406 109.875C196.287 109.918 196.166 109.96 196.045 110L196.299 108.631L195.145 101.888L195 101.043L195.579 100.943L200.998 100V106.115C200.998 106.115 201.013 106.777 200.962 107.829Z" fill="#A0616A"/>
<path d="M196.218 89L199.187 89.3659C199.187 89.3659 202.764 99.8293 201.851 100.268C200.937 100.707 195 101 195 101L196.218 89Z" fill="#D0CDE1"/>
<path d="M73.5 88C77.6421 88 81 84.4183 81 80C81 75.5817 77.6421 72 73.5 72C69.3579 72 66 75.5817 66 80C66 84.4183 69.3579 88 73.5 88Z" fill="#5271FF"/>
<path d="M142.5 123C146.642 123 150 119.418 150 115C150 110.582 146.642 107 142.5 107C138.358 107 135 110.582 135 115C135 119.418 138.358 123 142.5 123Z" fill="#5271FF"/>
<path d="M206.5 74C210.642 74 214 70.6421 214 66.5C214 62.3579 210.642 59 206.5 59C202.358 59 199 62.3579 199 66.5C199 70.6421 202.358 74 206.5 74Z" fill="#5271FF"/>
<path d="M235 63C238.866 63 242 59.866 242 56C242 52.134 238.866 49 235 49C231.134 49 228 52.134 228 56C228 59.866 231.134 63 235 63Z" fill="#FFB8B8"/>
<path d="M239.155 47.4719C238.632 46.7155 237.954 46.099 237.175 45.6703C236.395 45.2416 235.534 45.0123 234.659 45H234.446C230.334 45 227 49.0097 227 53.9559V53.9559H228.378L228.6 52.1307L228.927 53.9559H237.099L237.784 52.4118L237.613 53.9559H239.22C239.971 57.9706 238.893 61.9853 235.986 66H238.725L240.095 62.9118L239.752 66H244.973L246 58.897C246 53.5776 243.132 49.0668 239.155 47.4719Z" fill="#2F2E41"/>
<path d="M241 48C243.209 48 245 45.9853 245 43.5C245 41.0147 243.209 39 241 39C238.791 39 237 41.0147 237 43.5C237 45.9853 238.791 48 241 48Z" fill="#2F2E41"/>
</svg>
