<svg width="1040" height="666" viewBox="0 0 1040 666" fill="none" xmlns="http://www.w3.org/2000/svg">
<g clip-path="url(#clip0)">
<path d="M819.019 121.996C844.285 121.996 864.767 101.514 864.767 76.2475C864.767 50.9813 844.285 30.499 819.019 30.499C793.753 30.499 773.271 50.9813 773.271 76.2475C773.271 101.514 793.753 121.996 819.019 121.996Z" fill="#2F2E41"/>
<path d="M800.96 115.174C800.96 115.174 801.763 141.66 784.106 149.686C766.448 157.712 853.13 156.909 853.13 156.909C853.13 156.909 827.446 125.608 834.67 115.174L800.96 115.174Z" fill="#FFB8B8"/>
<path opacity="0.1" d="M800.96 115.174C800.96 115.174 801.763 141.66 784.106 149.686C766.448 157.712 853.13 156.909 853.13 156.909C853.13 156.909 827.446 125.608 834.67 115.174L800.96 115.174Z" fill="black"/>
<path d="M818.617 130.423C835.905 130.423 849.919 116.409 849.919 99.1217C849.919 81.8343 835.905 67.8201 818.617 67.8201C801.33 67.8201 787.316 81.8343 787.316 99.1217C787.316 116.409 801.33 130.423 818.617 130.423Z" fill="#FFB8B8"/>
<path d="M814.605 144.068L787.717 138.048L772.067 154.501L754.409 156.909L777.685 252.419L776.882 276.497C776.882 276.497 751.199 295.76 752.804 384.849C754.409 473.938 739.962 650.511 757.62 652.117C775.277 653.722 812.197 661.748 814.605 654.524C817.012 647.301 821.025 362.376 821.025 362.376C821.025 362.376 820.223 648.104 832.262 651.314C844.301 654.524 881.221 660.945 886.036 650.511C890.852 640.078 886.036 367.994 886.036 367.994C886.036 367.994 885.234 297.365 856.34 276.497L853.13 258.038L878.01 156.909H857.945L845.906 136.042L821.025 144.87L814.605 144.068Z" fill="#07007E"/>
<path d="M749.028 253.474L714.628 311.506C714.628 311.506 689.469 337.32 702.059 344.45C714.65 351.58 728.035 314.392 728.035 314.392L765.045 265.666L749.028 253.474Z" fill="#FFB8B8"/>
<path d="M889.947 254.707L917.764 316.167C917.764 316.167 939.934 344.588 926.637 350.292C913.34 355.996 904.12 317.563 904.12 317.563L872.688 265.066L889.947 254.707Z" fill="#FFB8B8"/>
<path d="M764.843 162.528L754.409 156.909C754.409 156.909 735.949 187.408 739.16 238.775C739.16 238.775 735.949 266.064 742.37 267.669C748.791 269.274 767.251 272.484 768.054 269.274C768.856 266.064 778.487 206.671 778.487 206.671L764.843 162.528Z" fill="#07007E"/>
<path d="M868.379 160.922L878.01 156.909C885.03 165.384 889.486 175.686 890.852 186.606C893.26 205.066 904.496 264.458 895.668 266.064C886.839 267.669 865.971 270.879 865.971 266.064C865.971 261.248 858.748 205.066 858.748 205.066L868.379 160.922Z" fill="#07007E"/>
<path d="M849.215 70.96L825.999 58.799L793.939 63.774L787.306 93.071L803.818 92.436L808.43 81.672V92.258L816.049 91.965L820.471 74.83L823.235 93.071L850.321 92.518L849.215 70.96Z" fill="#2F2E41"/>
<path d="M821.427 42.5381C831.622 42.5381 839.887 34.2733 839.887 24.0781C839.887 13.883 831.622 5.61823 821.427 5.61823C811.232 5.61823 802.967 13.883 802.967 24.0781C802.967 34.2733 811.232 42.5381 821.427 42.5381Z" fill="#2F2E41"/>
<path d="M798.151 18.4599C798.151 14.0506 799.73 9.78703 802.6 6.44019C805.471 3.09335 809.444 0.884227 813.802 0.21237C811.172 -0.190053 808.487 -0.0193498 805.929 0.71279C803.372 1.44493 801.002 2.72121 798.984 4.45421C796.966 6.1872 795.346 8.33598 794.235 10.7534C793.125 13.1707 792.55 15.7996 792.55 18.4599C792.55 21.1202 793.125 23.749 794.235 26.1664C795.346 28.5838 796.966 30.7325 798.984 32.4655C801.002 34.1985 803.372 35.4748 805.929 36.207C808.487 36.9391 811.172 37.1098 813.802 36.7074C809.444 36.0355 805.471 33.8264 802.6 30.4796C799.73 27.1327 798.151 22.8691 798.151 18.4599V18.4599Z" fill="#2F2E41"/>
<path d="M497.944 585.869C502.293 585.869 505.82 583.468 505.82 580.508C505.82 577.547 502.293 575.147 497.944 575.147C493.594 575.147 490.068 577.547 490.068 580.508C490.068 583.468 493.594 585.869 497.944 585.869Z" fill="white"/>
<path d="M497.944 580.508C497.944 580.508 535.353 645.506 534.368 654.887Z" fill="white"/>
<path d="M522.555 584.992V623.014C514.719 612.157 499.09 600.976 469.801 591.901L522.555 664.363V664.913C522.555 664.913 522.655 664.859 522.84 664.755L522.93 664.878C522.93 664.878 523.006 664.777 523.14 664.583C529.286 661.022 580.835 628.921 522.555 584.992Z" fill="#3F3D56"/>
<path d="M1040 663.458H493V665.458H1040V663.458Z" fill="#3F3D56"/>
<path d="M634 664.708H614.259V644.967H634V664.708ZM615.777 663.19H632.481V646.486H615.777V663.19Z" fill="#3F3D56"/>
<path d="M1002.31 644.182C1007.88 644.182 1012.39 639.67 1012.39 634.104C1012.39 628.537 1007.88 624.025 1002.31 624.025C996.744 624.025 992.231 628.537 992.231 634.104C992.231 639.67 996.744 644.182 1002.31 644.182Z" fill="white"/>
<path d="M1002.31 663.22C996.551 663.22 990.922 661.512 986.134 658.313C981.346 655.113 977.614 650.566 975.41 645.246C973.207 639.925 972.63 634.071 973.754 628.423C974.877 622.775 977.65 617.587 981.722 613.515C985.794 609.444 990.982 606.67 996.63 605.547C1002.28 604.424 1008.13 605 1013.45 607.204C1018.77 609.408 1023.32 613.139 1026.52 617.928C1029.72 622.716 1031.43 628.345 1031.43 634.104C1031.42 641.823 1028.35 649.224 1022.89 654.682C1017.43 660.141 1010.03 663.211 1002.31 663.22V663.22ZM1002.31 607.227C996.994 607.227 991.798 608.804 987.378 611.757C982.959 614.71 979.514 618.907 977.48 623.818C975.445 628.729 974.913 634.133 975.95 639.347C976.987 644.56 979.547 649.349 983.306 653.108C987.064 656.867 991.853 659.426 997.067 660.463C1002.28 661.5 1007.68 660.968 1012.6 658.934C1017.51 656.9 1021.7 653.455 1024.66 649.035C1027.61 644.615 1029.19 639.419 1029.19 634.104C1029.18 626.978 1026.34 620.147 1021.31 615.108C1016.27 610.07 1009.44 607.235 1002.31 607.227V607.227Z" fill="#2F2E41"/>
<path d="M709 40.1472H36V442.147H709V40.1472Z" fill="#C4DDFF"/>
<path opacity="0.1" d="M456.48 40.147L36 328.807V259.667L355.77 40.147H456.48Z" fill="black"/>
<path opacity="0.1" d="M658 40.147V47.137L82.6 442.147H36V405.007L567.48 40.147H658Z" fill="black"/>
<path d="M95.3765 371.147H93.3765V442.147H95.3765V371.147Z" fill="#3F3D56"/>
<path d="M94.5 396.147C108.307 396.147 119.5 384.954 119.5 371.147C119.5 357.34 108.307 346.147 94.5 346.147C80.6929 346.147 69.5 357.34 69.5 371.147C69.5 384.954 80.6929 396.147 94.5 396.147Z" fill="#5271FF"/>
<path d="M234.376 310.147H232.376V442.147H234.376V310.147Z" fill="#3F3D56"/>
<path d="M233.5 338.147C247.307 338.147 258.5 326.954 258.5 313.147C258.5 299.34 247.307 288.147 233.5 288.147C219.693 288.147 208.5 299.34 208.5 313.147C208.5 326.954 219.693 338.147 233.5 338.147Z" fill="#5271FF"/>
<path d="M373.376 199.147H371.376V442.147H373.376V199.147Z" fill="#3F3D56"/>
<path d="M372.5 224.147C386.307 224.147 397.5 212.954 397.5 199.147C397.5 185.34 386.307 174.147 372.5 174.147C358.693 174.147 347.5 185.34 347.5 199.147C347.5 212.954 358.693 224.147 372.5 224.147Z" fill="#5271FF"/>
<path d="M512.376 272.147H510.376V442.147H512.376V272.147Z" fill="#3F3D56"/>
<path d="M511.5 297.147C525.307 297.147 536.5 285.954 536.5 272.147C536.5 258.34 525.307 247.147 511.5 247.147C497.693 247.147 486.5 258.34 486.5 272.147C486.5 285.954 497.693 297.147 511.5 297.147Z" fill="#5271FF"/>
<path d="M651.376 127.147H649.376V442.147H651.376V127.147Z" fill="#3F3D56"/>
<path d="M650.5 152.147C664.307 152.147 675.5 140.954 675.5 127.147C675.5 113.34 664.307 102.147 650.5 102.147C636.693 102.147 625.5 113.34 625.5 127.147C625.5 140.954 636.693 152.147 650.5 152.147Z" fill="#5271FF"/>
<path d="M42 370.147H36V372.147H42V370.147Z" fill="#3F3D56"/>
<path d="M79.6001 372.147H70.1997V370.147H79.6001V372.147ZM60.7998 372.147H51.3999V370.147H60.7998V372.147Z" fill="#3F3D56"/>
<path d="M95 370.147H89V372.147H95V370.147Z" fill="#3F3D56"/>
<path d="M42 312.147H36V314.147H42V312.147Z" fill="#3F3D56"/>
<path d="M211.867 314.147H199.733V312.147H211.867V314.147ZM187.6 314.147H175.467V312.147H187.6V314.147ZM163.333 314.147H151.2V312.147H163.333V314.147ZM139.066 314.147H126.933V312.147H139.066V314.147ZM114.8 314.147H102.667V312.147H114.8V314.147ZM90.5332 314.147H78.3999V312.147H90.5332V314.147ZM66.2666 314.147H54.1333V312.147H66.2666V314.147Z" fill="#3F3D56"/>
<path d="M230 312.147H224V314.147H230V312.147Z" fill="#3F3D56"/>
<path d="M42 271.147H36V273.147H42V271.147Z" fill="#3F3D56"/>
<path d="M476.919 273.147H464.838V271.147H476.919V273.147ZM452.757 273.147H440.676V271.147H452.757L452.757 273.147ZM428.595 273.147H416.514V271.147H428.595L428.595 273.147ZM404.432 273.147H392.351V271.147H404.432L404.432 273.147ZM380.27 273.147H368.189V271.147H380.27L380.27 273.147ZM356.108 273.147H344.027V271.147H356.108L356.108 273.147ZM331.946 273.147H319.865V271.147H331.946L331.946 273.147ZM307.784 273.147H295.703V271.147H307.784L307.784 273.147ZM283.622 273.147H271.541V271.147H283.622L283.622 273.147ZM259.46 273.147H247.378V271.147H259.459L259.46 273.147ZM235.297 273.147H223.216V271.147H235.297L235.297 273.147ZM211.135 273.147H199.054V271.147H211.135L211.135 273.147ZM186.973 273.147H174.892V271.147H186.973L186.973 273.147ZM162.811 273.147H150.729V271.147H162.811L162.811 273.147ZM138.648 273.147H126.567V271.147H138.648L138.648 273.147ZM114.486 273.147H102.405V271.147H114.486L114.486 273.147ZM90.3243 273.147H78.2432V271.147H90.3242L90.3243 273.147ZM66.1622 273.147H54.0811V271.147H66.1621L66.1622 273.147Z" fill="#3F3D56"/>
<path d="M495 271.147H489V273.147H495V271.147Z" fill="#3F3D56"/>
<path d="M42 198.147H36V200.147H42V198.147Z" fill="#3F3D56"/>
<path d="M338.64 200.147H326.28V198.147H338.64V200.147ZM313.92 200.147H301.56V198.147H313.92V200.147ZM289.2 200.147H276.84V198.147H289.2V200.147ZM264.48 200.147H252.12V198.147H264.48L264.48 200.147ZM239.76 200.147H227.4V198.147H239.76V200.147ZM215.04 200.147H202.68V198.147H215.04L215.04 200.147ZM190.32 200.147H177.96V198.147H190.32L190.32 200.147ZM165.6 200.147H153.24V198.147H165.6V200.147ZM140.88 200.147H128.52V198.147H140.88L140.88 200.147ZM116.16 200.147H103.8V198.147H116.16V200.147ZM91.4399 200.147H79.0801V198.147H91.4399V200.147ZM66.7197 200.147H54.3599V198.147H66.7197V200.147Z" fill="#3F3D56"/>
<path d="M357 198.147H351V200.147H357V198.147Z" fill="#3F3D56"/>
<path d="M41.9966 128.127L35.9966 128.148L36.0034 130.148L42.0034 130.127L41.9966 128.127Z" fill="#3F3D56"/>
<path d="M53.8271 130.089L53.8203 128.089L65.644 128.05L65.6509 130.05L53.8271 130.089ZM77.4742 130.012L77.4673 128.012L89.291 127.974L89.2978 129.974L77.4742 130.012ZM101.121 129.935L101.114 127.935L112.938 127.897L112.945 129.897L101.121 129.935ZM124.769 129.859L124.762 127.859L136.585 127.82L136.592 129.82L124.769 129.859ZM148.416 129.781L148.409 127.781L160.232 127.743L160.239 129.743L148.416 129.781ZM172.063 129.705L172.056 127.705L183.879 127.666L183.886 129.666L172.063 129.705ZM195.71 129.628L195.703 127.628L207.527 127.589L207.533 129.589L195.71 129.628ZM219.357 129.551L219.35 127.551L231.173 127.512L231.18 129.512L219.357 129.551ZM243.004 129.474L242.997 127.474L254.82 127.435L254.827 129.435L243.004 129.474ZM266.651 129.397L266.644 127.397L278.467 127.359L278.474 129.359L266.651 129.397ZM290.298 129.32L290.291 127.32L302.114 127.281L302.121 129.281L290.298 129.32ZM313.945 129.243L313.938 127.243L325.762 127.205L325.769 129.205L313.945 129.243ZM337.592 129.166L337.585 127.166L349.409 127.128L349.416 129.128L337.592 129.166ZM361.239 129.09L361.232 127.09L373.056 127.051L373.063 129.051L361.239 129.09ZM384.887 129.012L384.88 127.012L396.703 126.974L396.71 128.974L384.887 129.012ZM408.534 128.936L408.527 126.936L420.35 126.897L420.357 128.897L408.534 128.936ZM432.181 128.859L432.174 126.859L443.997 126.82L444.004 128.82L432.181 128.859ZM455.828 128.782L455.821 126.782L467.644 126.743L467.651 128.743L455.828 128.782ZM479.474 128.705L479.468 126.705L491.291 126.666L491.297 128.666L479.474 128.705ZM503.121 128.628L503.116 126.628L514.939 126.59L514.945 128.59L503.121 128.628ZM526.768 128.551L526.762 126.551L538.586 126.512L538.592 128.512L526.768 128.551ZM550.415 128.474L550.41 126.474L562.233 126.436L562.239 128.436L550.415 128.474ZM574.062 128.397L574.056 126.397L585.88 126.359L585.886 128.359L574.062 128.397ZM597.709 128.32L597.703 126.32L609.527 126.282L609.533 128.282L597.709 128.32ZM621.357 128.243L621.351 126.243L633.174 126.205L633.18 128.205L621.357 128.243Z" fill="#3F3D56"/>
<path d="M650.997 126.148L644.997 126.166L645.003 128.166L651.003 128.148L650.997 126.148Z" fill="#3F3D56"/>
<path d="M20 118.147H0V138.147H20V118.147Z" fill="white"/>
<path d="M20 189.147H0V209.147H20V189.147Z" fill="white"/>
<path d="M20 262.147H0V282.147H20V262.147Z" fill="white"/>
<path d="M20 303.147H0V323.147H20V303.147Z" fill="white"/>
<path d="M20 361.147H0V381.147H20V361.147Z" fill="white"/>
<path d="M983.828 355.155L997.043 304.862L946.75 291.647L933.535 341.939L983.828 355.155Z" fill="white"/>
<path d="M923.167 345.43C922.33 343.209 922.171 340.79 922.709 338.478C923.247 336.167 924.458 334.067 926.19 332.443C927.921 330.82 930.095 329.747 932.437 329.36C934.778 328.972 937.182 329.288 939.344 330.266C941.507 331.245 943.33 332.843 944.584 334.858C945.838 336.873 946.467 339.214 946.39 341.586C946.313 343.958 945.535 346.255 944.153 348.184C942.772 350.114 940.849 351.591 938.628 352.428C935.649 353.546 932.349 353.438 929.451 352.126C926.552 350.814 924.292 348.406 923.167 345.43V345.43ZM943.754 337.672C943.056 335.822 941.826 334.219 940.218 333.068C938.61 331.916 936.696 331.268 934.719 331.204C932.743 331.14 930.791 331.664 929.112 332.709C927.433 333.754 926.101 335.273 925.286 337.075C924.47 338.877 924.208 340.88 924.53 342.831C924.853 344.783 925.748 346.594 927.1 348.037C928.453 349.48 930.203 350.49 932.129 350.938C934.056 351.387 936.072 351.254 937.922 350.556C940.402 349.619 942.409 347.735 943.502 345.32C944.596 342.905 944.686 340.154 943.754 337.672V337.672Z" fill="#3F3D56"/>
<path d="M782 664.147C791.389 664.147 799 660.118 799 655.147C799 650.177 791.389 646.147 782 646.147C772.611 646.147 765 650.177 765 655.147C765 660.118 772.611 664.147 782 664.147Z" fill="#2F2E41"/>
<path d="M860 664.147C869.389 664.147 877 660.118 877 655.147C877 650.177 869.389 646.147 860 646.147C850.611 646.147 843 650.177 843 655.147C843 660.118 850.611 664.147 860 664.147Z" fill="#2F2E41"/>
<path d="M550.172 224.419C547.799 224.419 545.479 223.715 543.505 222.396C541.532 221.078 539.994 219.204 539.086 217.011C538.178 214.818 537.94 212.405 538.403 210.078C538.866 207.75 540.009 205.612 541.687 203.933C543.365 202.255 545.504 201.112 547.831 200.649C550.159 200.186 552.572 200.424 554.765 201.332C556.957 202.24 558.831 203.778 560.15 205.752C561.469 207.725 562.172 210.045 562.172 212.419C562.169 215.6 560.903 218.65 558.654 220.9C556.404 223.149 553.354 224.415 550.172 224.419ZM550.172 202.419C548.195 202.419 546.261 203.005 544.617 204.104C542.972 205.203 541.69 206.764 540.934 208.592C540.177 210.419 539.979 212.43 540.364 214.37C540.75 216.309 541.703 218.091 543.101 219.49C544.5 220.888 546.282 221.841 548.221 222.226C550.161 222.612 552.172 222.414 553.999 221.657C555.826 220.9 557.388 219.619 558.487 217.974C559.586 216.33 560.172 214.396 560.172 212.419C560.169 209.767 559.115 207.225 557.24 205.351C555.365 203.476 552.824 202.422 550.172 202.419Z" fill="white"/>
<path d="M283.172 405.419C280.799 405.419 278.479 404.715 276.506 403.396C274.532 402.078 272.994 400.204 272.086 398.011C271.178 395.818 270.94 393.405 271.403 391.078C271.866 388.75 273.009 386.612 274.687 384.933C276.365 383.255 278.504 382.112 280.831 381.649C283.159 381.186 285.572 381.424 287.765 382.332C289.957 383.24 291.831 384.778 293.15 386.752C294.469 388.725 295.172 391.045 295.172 393.419C295.169 396.6 293.903 399.65 291.654 401.9C289.404 404.149 286.354 405.415 283.172 405.419V405.419ZM283.172 383.419C281.195 383.419 279.261 384.005 277.617 385.104C275.972 386.203 274.69 387.764 273.934 389.592C273.177 391.419 272.979 393.43 273.365 395.37C273.75 397.309 274.703 399.091 276.101 400.49C277.5 401.888 279.282 402.841 281.221 403.226C283.161 403.612 285.172 403.414 286.999 402.657C288.826 401.901 290.388 400.619 291.487 398.974C292.586 397.33 293.172 395.396 293.172 393.419C293.169 390.767 292.115 388.225 290.24 386.351C288.365 384.476 285.824 383.422 283.172 383.419V383.419Z" fill="white"/>
<path d="M165.172 114.419C162.799 114.419 160.479 113.715 158.506 112.396C156.532 111.078 154.994 109.203 154.086 107.011C153.178 104.818 152.94 102.405 153.403 100.077C153.866 97.7497 155.009 95.6115 156.687 93.9333C158.365 92.2551 160.504 91.1122 162.831 90.6492C165.159 90.1861 167.572 90.4238 169.765 91.332C171.957 92.2403 173.831 93.7784 175.15 95.7517C176.469 97.7251 177.172 100.045 177.172 102.419C177.169 105.6 175.903 108.65 173.654 110.9C171.404 113.149 168.354 114.415 165.172 114.419V114.419ZM165.172 92.4186C163.195 92.4186 161.261 93.0051 159.617 94.1039C157.972 95.2027 156.69 96.7645 155.934 98.5917C155.177 100.419 154.979 102.43 155.365 104.369C155.75 106.309 156.703 108.091 158.101 109.49C159.5 110.888 161.282 111.841 163.221 112.226C165.161 112.612 167.172 112.414 168.999 111.657C170.826 110.9 172.388 109.619 173.487 107.974C174.586 106.33 175.172 104.396 175.172 102.419C175.169 99.7673 174.115 97.2255 172.24 95.3508C170.365 93.4761 167.824 92.4215 165.172 92.4186V92.4186Z" fill="white"/>
</g>
<defs>
<clipPath id="clip0">
<rect width="1040" height="665.498" fill="white"/>
</clipPath>
</defs>
</svg>
