<svg width="322" height="234" viewBox="0 0 322 234" fill="none" xmlns="http://www.w3.org/2000/svg">
<path d="M160.53 209.888C191.538 209.888 216.674 184.675 216.674 153.574C216.674 122.472 191.538 97.2592 160.53 97.2592C129.522 97.2592 104.386 122.472 104.386 153.574C104.386 184.675 129.522 209.888 160.53 209.888Z" fill="#F2F2F2"/>
<path d="M164.507 210.592C163.858 210.592 163.202 210.582 162.559 210.562L162.574 210.093C163.498 210.122 164.441 210.13 165.369 210.117L165.375 210.586C165.086 210.59 164.797 210.592 164.507 210.592ZM168.19 210.483L168.163 210.015C169.088 209.96 170.026 209.883 170.949 209.786L170.998 210.253C170.068 210.351 169.123 210.428 168.19 210.483H168.19ZM159.746 210.41C158.813 210.338 157.87 210.244 156.943 210.13L157 209.665C157.92 209.778 158.856 209.871 159.782 209.942L159.746 210.41ZM173.792 209.894L173.722 209.43C174.641 209.29 175.568 209.128 176.475 208.947L176.566 209.407C175.652 209.589 174.718 209.753 173.792 209.894H173.792ZM154.156 209.723C153.234 209.566 152.304 209.386 151.39 209.187L151.49 208.728C152.396 208.926 153.32 209.104 154.234 209.26L154.156 209.723ZM179.316 208.793L179.203 208.337C180.106 208.113 181.013 207.866 181.901 207.602L182.034 208.052C181.14 208.318 180.225 208.567 179.316 208.793ZM148.652 208.524C147.748 208.283 146.838 208.017 145.948 207.735L146.088 207.287C146.972 207.568 147.875 207.831 148.773 208.07L148.652 208.524ZM184.715 207.186L184.562 206.743C185.438 206.437 186.319 206.107 187.18 205.761L187.354 206.197C186.486 206.546 185.598 206.878 184.715 207.186V207.186ZM143.275 206.819C142.397 206.495 141.513 206.145 140.648 205.78L140.83 205.347C141.688 205.71 142.565 206.057 143.436 206.378L143.275 206.819ZM189.939 205.09L189.745 204.663C190.586 204.279 191.432 203.87 192.258 203.446L192.471 203.864C191.638 204.291 190.786 204.703 189.939 205.09V205.09ZM138.073 204.622C137.229 204.218 136.381 203.789 135.555 203.346L135.775 202.932C136.596 203.372 137.437 203.798 138.274 204.198L138.073 204.622ZM194.945 202.523L194.713 202.116C195.52 201.654 196.325 201.169 197.106 200.673L197.356 201.069C196.569 201.569 195.758 202.058 194.945 202.523V202.523ZM133.098 201.956C132.295 201.477 131.491 200.971 130.708 200.454L130.966 200.062C131.742 200.576 132.54 201.077 133.337 201.552L133.098 201.956ZM199.699 199.506L199.431 199.122C200.191 198.589 200.949 198.032 201.684 197.465L201.969 197.837C201.228 198.408 200.464 198.97 199.699 199.506H199.699ZM128.39 198.845C127.635 198.295 126.88 197.719 126.148 197.132L126.439 196.765C127.167 197.348 127.915 197.92 128.665 198.465L128.39 198.845ZM204.162 196.066L203.86 195.707C204.568 195.108 205.273 194.483 205.955 193.851L206.272 194.195C205.585 194.833 204.875 195.462 204.162 196.066ZM123.986 195.318C123.283 194.701 122.584 194.058 121.909 193.408L122.233 193.07C122.903 193.714 123.596 194.352 124.294 194.965L123.986 195.318ZM208.296 192.23L207.963 191.901C208.616 191.237 209.261 190.551 209.881 189.86L210.229 190.174C209.604 190.87 208.954 191.562 208.296 192.23V192.23ZM119.922 191.406C119.277 190.726 118.639 190.022 118.028 189.315L118.381 189.008C118.988 189.709 119.621 190.407 120.261 191.083L119.922 191.406ZM212.067 188.032L211.706 187.734C212.295 187.014 212.876 186.272 213.432 185.526L213.806 185.807C213.246 186.558 212.661 187.307 212.067 188.032V188.032ZM116.231 187.141C115.652 186.407 115.081 185.648 114.535 184.887L114.915 184.613C115.457 185.368 116.023 186.121 116.598 186.85L116.231 187.141ZM215.442 183.505L215.055 183.241C215.577 182.471 216.088 181.678 216.574 180.884L216.973 181.129C216.483 181.929 215.968 182.728 215.442 183.505V183.505ZM112.944 182.559C112.434 181.775 111.935 180.969 111.461 180.161L111.864 179.923C112.335 180.724 112.83 181.525 113.336 182.303L112.944 182.559ZM218.394 178.685L217.984 178.458C218.433 177.643 218.87 176.806 219.282 175.97L219.701 176.178C219.286 177.02 218.846 177.864 218.394 178.685H218.394ZM110.089 177.698C109.653 176.871 109.229 176.022 108.831 175.176L109.254 174.976C109.65 175.816 110.069 176.658 110.502 177.479L110.089 177.698ZM220.892 173.612L220.464 173.424C220.836 172.57 221.194 171.695 221.528 170.824L221.965 170.992C221.629 171.87 221.268 172.751 220.892 173.612V173.612ZM107.691 172.599C107.332 171.736 106.989 170.853 106.67 169.974L107.11 169.813C107.426 170.685 107.767 171.562 108.123 172.419L107.691 172.599ZM222.915 168.325L222.471 168.178C222.763 167.295 223.039 166.393 223.29 165.497L223.74 165.623C223.487 166.527 223.209 167.436 222.915 168.325V168.325ZM105.769 167.297C105.49 166.402 105.229 165.489 104.991 164.581L105.444 164.462C105.68 165.363 105.939 166.269 106.215 167.157L105.769 167.297ZM224.44 162.887L223.984 162.78C224.194 161.876 224.385 160.952 224.554 160.035L225.014 160.12C224.844 161.044 224.651 161.975 224.44 162.887V162.887ZM104.34 161.832C104.145 160.915 103.968 159.982 103.815 159.056L104.276 158.979C104.429 159.898 104.604 160.824 104.797 161.734L104.34 161.832ZM225.46 157.331L224.996 157.267C225.122 156.348 225.228 155.411 225.312 154.481L225.778 154.523C225.694 155.46 225.586 156.405 225.46 157.331H225.46ZM103.418 156.259C103.307 155.33 103.217 154.384 103.148 153.447L103.615 153.413C103.683 154.343 103.773 155.282 103.882 156.204L103.418 156.259ZM225.969 151.705L225.501 151.684C225.543 150.754 225.564 149.811 225.564 148.881H226.032C226.032 149.818 226.011 150.768 225.969 151.705V151.705ZM103.007 150.625C102.991 150.05 102.983 149.463 102.982 148.881C102.982 148.52 102.986 148.159 102.992 147.799L103.46 147.808C103.453 148.165 103.45 148.522 103.45 148.881C103.45 149.458 103.459 150.041 103.474 150.612L103.007 150.625ZM225.561 148.226C225.551 147.296 225.52 146.353 225.468 145.423L225.935 145.397C225.987 146.334 226.019 147.284 226.028 148.221L225.561 148.226ZM103.571 145.006L103.104 144.977C103.162 144.039 103.243 143.092 103.343 142.162L103.808 142.212C103.708 143.136 103.629 144.075 103.571 145.006ZM225.25 142.628C225.156 141.703 225.04 140.767 224.904 139.846L225.367 139.777C225.504 140.705 225.621 141.648 225.715 142.581L225.25 142.628ZM104.172 139.433L103.71 139.361C103.853 138.433 104.02 137.497 104.205 136.579L104.664 136.672C104.48 137.583 104.315 138.511 104.172 139.433ZM224.432 137.083C224.254 136.167 224.052 135.246 223.833 134.344L224.288 134.233C224.509 135.142 224.711 136.07 224.891 136.992L224.432 137.083ZM105.281 133.938L104.827 133.824C105.054 132.915 105.306 131.998 105.575 131.1L106.023 131.235C105.756 132.127 105.506 133.036 105.281 133.938ZM223.11 131.635C222.849 130.742 222.564 129.843 222.262 128.963L222.705 128.811C223.009 129.697 223.296 130.603 223.559 131.503L223.11 131.635ZM106.891 128.561L106.45 128.406C106.761 127.519 107.096 126.627 107.448 125.756L107.881 125.932C107.533 126.797 107.2 127.681 106.891 128.561ZM221.293 126.334C220.952 125.47 220.586 124.603 220.206 123.757L220.633 123.565C221.016 124.417 221.384 125.29 221.728 126.161L221.293 126.334ZM108.991 123.353L108.566 123.157C108.957 122.304 109.373 121.448 109.802 120.613L110.218 120.828C109.792 121.656 109.379 122.506 108.991 123.353ZM219.003 121.233C218.584 120.404 218.141 119.574 217.684 118.766L218.092 118.534C218.551 119.349 218.998 120.186 219.42 121.021L219.003 121.233ZM111.559 118.363L111.154 118.129C111.62 117.316 112.112 116.503 112.617 115.711L113.011 115.963C112.511 116.749 112.022 117.557 111.559 118.363ZM216.254 116.361C215.76 115.571 215.242 114.785 214.716 114.023L215.1 113.756C215.631 114.523 216.152 115.316 216.651 116.111L216.254 116.361ZM114.571 113.633L114.188 113.363C114.727 112.595 115.291 111.831 115.865 111.09L116.234 111.377C115.665 112.113 115.106 112.872 114.571 113.633ZM213.072 111.758C212.508 111.017 211.921 110.281 211.326 109.569L211.685 109.268C212.284 109.985 212.876 110.727 213.444 111.473L213.072 111.758ZM117.998 109.2L117.642 108.896C118.248 108.183 118.878 107.473 119.517 106.787L119.859 107.107C119.225 107.788 118.599 108.493 117.998 109.2ZM209.483 107.462C208.855 106.776 208.203 106.096 207.546 105.441L207.875 105.108C208.537 105.768 209.194 106.453 209.828 107.145L209.483 107.462ZM121.813 105.101L121.485 104.765C122.155 104.109 122.847 103.46 123.543 102.836L123.855 103.186C123.164 103.805 122.477 104.449 121.813 105.101ZM205.519 103.51C204.83 102.883 204.119 102.265 203.405 101.673L203.703 101.311C204.422 101.908 205.139 102.531 205.833 103.162L205.519 103.51ZM125.981 101.367L125.686 101.003C126.409 100.412 127.157 99.8293 127.908 99.2706L128.187 99.6476C127.441 100.202 126.699 100.781 125.981 101.367ZM201.21 99.9342C200.467 99.3729 199.702 98.8222 198.937 98.2973L199.201 97.9101C199.972 98.4388 200.743 98.9937 201.491 99.5593L201.21 99.9342ZM130.468 98.0312L130.207 97.6418C130.982 97.1192 131.779 96.6074 132.577 96.1203L132.82 96.5213C132.028 97.0046 131.237 97.5126 130.468 98.0312ZM196.592 96.7662C195.801 96.2753 194.989 95.7969 194.179 95.3439L194.406 94.9339C195.223 95.3904 196.041 95.8726 196.838 96.367L196.592 96.7662ZM135.238 95.1213L135.013 94.7095C135.832 94.2598 136.673 93.8235 137.51 93.4125L137.716 93.8342C136.885 94.2419 136.051 94.6749 135.238 95.1213V95.1213ZM191.702 94.034C190.87 93.6179 190.017 93.216 189.168 92.8394L189.357 92.4103C190.213 92.7897 191.072 93.1947 191.911 93.6139L191.702 94.034ZM140.249 92.6627L140.063 92.2321C140.919 91.8598 141.795 91.5028 142.666 91.1709L142.832 91.6097C141.968 91.939 141.099 92.2933 140.249 92.6627V92.6627ZM186.58 91.7629C185.714 91.426 184.827 91.1045 183.945 90.8075L184.094 90.3625C184.983 90.6619 185.876 90.9858 186.749 91.3255L186.58 91.7629ZM145.468 90.6749L145.322 90.229C146.211 89.9366 147.118 89.6613 148.018 89.411L148.143 89.8631C147.25 90.1116 146.35 90.3847 145.468 90.675V90.6749ZM181.275 89.9772C180.382 89.722 179.472 89.4844 178.569 89.271L178.677 88.8143C179.587 89.0293 180.504 89.2688 181.403 89.5258L181.275 89.9772ZM150.853 89.1758L150.749 88.7183C151.661 88.5094 152.589 88.3191 153.509 88.1528L153.592 88.6145C152.679 88.7797 151.758 88.9685 150.853 89.1758V89.1758ZM175.835 88.6908C174.924 88.5193 173.996 88.3667 173.076 88.2372L173.141 87.7725C174.068 87.903 175.003 88.0567 175.921 88.2295L175.835 88.6908ZM156.354 88.1801L156.292 87.715C157.218 87.591 158.16 87.4867 159.091 87.4054L159.132 87.8729C158.208 87.9538 157.273 88.0571 156.354 88.1801V88.1801ZM170.3 87.9109C169.378 87.8238 168.44 87.7567 167.512 87.7117L167.535 87.2428C168.47 87.2883 169.415 87.3559 170.344 87.4437L170.3 87.9109ZM161.922 87.6929L161.902 87.224C162.762 87.1881 163.638 87.1697 164.507 87.1695L164.719 87.1698L164.718 87.6391L164.507 87.6388C163.645 87.639 162.775 87.6572 161.922 87.6929V87.6929Z" fill="#3F3D56"/>
<path d="M161.758 212C182.946 212 200.123 211.055 200.123 209.888C200.123 208.722 182.946 207.776 161.758 207.776C140.569 207.776 123.393 208.722 123.393 209.888C123.393 211.055 140.569 212 161.758 212Z" fill="#3F3D56"/>
<path d="M164.516 53.3405C164.516 53.3405 160.947 57.278 160.769 60.1416C160.591 63.0053 154.468 70.1011 160.535 72.4278C160.535 72.4278 161.606 71.7119 162.676 72.4278C163.747 73.1437 170.918 71.6034 170.918 71.6034L164.516 53.3405Z" fill="#2F2E41"/>
<path d="M167.638 69.2283C167.638 69.2283 171.551 74.7227 168.029 75.9001C164.508 77.0775 170.377 100.625 170.377 100.625L185.245 77.4699C185.245 77.4699 177.42 68.8359 177.42 64.9113L167.638 69.2283Z" fill="#FFB9B9"/>
<path d="M202.853 97.0927C202.853 97.0927 207.939 102.195 206.374 103.372C204.809 104.549 189.158 112.006 189.158 112.399C189.158 112.791 186.811 114.753 186.811 114.753L184.072 110.436L194.636 103.764L202.853 97.0927Z" fill="#FFB9B9"/>
<path d="M146.901 94.3455C146.901 94.3455 142.988 100.625 146.119 103.372C149.249 106.119 158.639 113.576 158.639 113.576C158.639 113.576 156.593 119.95 158.594 120.295C160.595 120.64 163.726 111.614 163.334 110.829C162.943 110.044 152.518 103.242 152.518 103.242L146.901 94.3455Z" fill="#FFB9B9"/>
<path d="M143.303 190.259L140.414 200.972L146.028 201.206L148.389 192.613L143.303 190.259Z" fill="#FFB9B9"/>
<path d="M177.42 190.89V199.524H181.333L183.289 190.89H177.42Z" fill="#FFB9B9"/>
<path d="M170.377 71.5831C175.131 71.5831 178.985 67.7175 178.985 62.949C178.985 58.1806 175.131 54.315 170.377 54.315C165.623 54.315 161.769 58.1806 161.769 62.949C161.769 67.7175 165.623 71.5831 170.377 71.5831Z" fill="#FFB9B9"/>
<path d="M173.116 93.5607L168.03 75.9001C168.03 75.9001 158.639 74.7228 154.335 80.2171C150.031 85.7115 145.336 95.9154 145.336 95.9154C145.336 95.9154 147.684 99.4475 148.075 101.802C148.466 104.157 154.727 102.98 154.727 102.98C154.727 102.98 160.596 104.157 160.596 109.259C160.596 114.361 142.206 192.46 142.206 192.46C142.206 192.46 164.508 197.562 166.074 193.637C167.639 189.712 175.464 142.618 175.464 142.618L176.247 195.207C176.247 195.207 195.027 197.954 195.81 193.245C196.593 188.535 192.68 130.059 192.68 130.059C192.68 130.059 191.897 116.716 185.637 108.866C185.637 108.866 185.246 106.512 185.246 106.119C185.246 105.727 195.027 104.157 195.027 104.157C195.027 104.157 205.592 106.512 205.2 98.2701C204.809 90.0286 192.68 78.6473 188.376 77.47C184.072 76.2926 182.924 74.723 182.924 74.723L173.116 93.5607Z" fill="#2F2E41"/>
<path d="M141.115 198.86C141.115 198.86 142.374 198.152 139.244 199.329C136.114 200.507 129.185 203.787 129.185 203.787C129.185 203.787 117.556 205.087 127.729 209.796C127.729 209.796 135.554 210.351 135.554 209.566C135.554 208.781 138.293 207.603 139.075 208.781C139.858 209.958 147.666 209.654 147.687 208.546C147.712 207.305 146.905 198.573 146.905 198.573C146.905 198.573 141.898 201.607 141.115 198.86Z" fill="#2F2E41"/>
<path d="M182.507 197.169C182.507 197.169 175.855 194.422 175.464 195.992C175.073 197.562 174.29 203.448 174.29 204.233C174.29 205.018 172.725 210.905 178.203 211.69C183.68 212.475 184.854 207.373 184.463 206.981C184.072 206.588 182.507 197.169 182.507 197.169Z" fill="#2F2E41"/>
<path d="M171.217 50.0293C171.217 50.0293 177.422 43.7554 185.095 58.0737C185.095 58.0737 192.843 70.3216 182.672 73.9012C182.672 73.9012 173.866 72.1523 173.626 67.8377C173.626 67.8377 176.837 67.4798 174.339 64.7951C171.841 62.1104 169.521 60.8576 169.521 60.8576C169.521 60.8576 167.559 59.6047 167.559 58.3519C167.559 58.3519 167.559 60.4996 167.916 60.4996C167.916 60.4996 164.525 60.1417 164.347 58.7098C164.168 57.278 163.455 54.9513 163.455 54.9513C163.455 54.9513 164.525 49.045 171.217 50.0293Z" fill="#2F2E41"/>
<path d="M212.698 64.4091C216.057 64.4091 218.78 61.6777 218.78 58.3084C218.78 54.939 216.057 52.2076 212.698 52.2076C209.338 52.2076 206.615 54.939 206.615 58.3084C206.615 61.6777 209.338 64.4091 212.698 64.4091Z" fill="#F2F2F2"/>
<path d="M213.4 64.8783C211.873 64.8783 210.38 64.4242 209.111 63.5734C207.841 62.7225 206.852 61.5132 206.267 60.0983C205.683 58.6834 205.53 57.1265 205.828 55.6245C206.126 54.1224 206.861 52.7427 207.941 51.6598C209.02 50.5769 210.396 49.8394 211.893 49.5406C213.391 49.2419 214.943 49.3952 216.354 49.9813C217.764 50.5673 218.97 51.5598 219.818 52.8332C220.667 54.1065 221.119 55.6036 221.119 57.1351C221.117 59.188 220.303 61.1562 218.856 62.6078C217.408 64.0595 215.446 64.876 213.4 64.8783V64.8783ZM213.4 49.8611C211.965 49.8611 210.563 50.2877 209.371 51.087C208.178 51.8863 207.248 53.0223 206.7 54.3515C206.151 55.6806 206.007 57.1432 206.287 58.5542C206.567 59.9652 207.257 61.2613 208.272 62.2786C209.286 63.2958 210.578 63.9886 211.985 64.2693C213.391 64.55 214.85 64.4059 216.175 63.8554C217.5 63.3048 218.632 62.3725 219.429 61.1763C220.226 59.9801 220.651 58.5737 220.651 57.1351C220.649 55.2066 219.885 53.3577 218.525 51.9941C217.165 50.6304 215.322 49.8633 213.4 49.8611V49.8611Z" fill="#3F3D56"/>
<path d="M216.937 70.229H207.274C206.615 66.4056 206.615 62.497 207.274 58.6736H216.937C215.848 62.448 215.848 66.4546 216.937 70.229V70.229Z" fill="#FF6584"/>
<path d="M125.089 76.7279C128.448 76.7279 131.171 73.9965 131.171 70.6272C131.171 67.2578 128.448 64.5264 125.089 64.5264C121.73 64.5264 119.007 67.2578 119.007 70.6272C119.007 73.9965 121.73 76.7279 125.089 76.7279Z" fill="#F2F2F2"/>
<path d="M124.387 77.1972C122.86 77.1972 121.368 76.743 120.098 75.8922C118.829 75.0414 117.839 73.832 117.255 72.4171C116.671 71.0023 116.518 69.4453 116.816 67.9433C117.114 66.4413 117.849 65.0616 118.929 63.9786C120.008 62.8957 121.384 62.1583 122.881 61.8595C124.379 61.5607 125.931 61.7141 127.342 62.3001C128.752 62.8862 129.958 63.8787 130.806 65.152C131.654 66.4254 132.107 67.9225 132.107 69.4539C132.105 71.5069 131.291 73.475 129.844 74.9267C128.396 76.3783 126.434 77.1949 124.387 77.1972ZM124.387 62.18C122.953 62.18 121.551 62.6066 120.358 63.4059C119.166 64.2051 118.236 65.3412 117.687 66.6703C117.138 67.9995 116.995 69.462 117.275 70.873C117.555 72.284 118.245 73.5801 119.259 74.5974C120.274 75.6147 121.566 76.3075 122.973 76.5881C124.379 76.8688 125.837 76.7247 127.163 76.1742C128.488 75.6236 129.62 74.6913 130.417 73.4951C131.214 72.2989 131.639 70.8926 131.639 69.4539C131.637 67.5254 130.872 65.6766 129.513 64.3129C128.153 62.9492 126.31 62.1822 124.387 62.18V62.18Z" fill="#3F3D56"/>
<path d="M119.563 81.2521H129.226C129.885 77.4287 129.885 73.5201 129.226 69.6967H119.563C120.652 73.4711 120.652 77.4776 119.563 81.2521V81.2521Z" fill="#5271FF"/>
<path d="M161.232 36.0172C164.591 36.0172 167.314 33.2858 167.314 29.9165C167.314 26.5471 164.591 23.8157 161.232 23.8157C157.873 23.8157 155.15 26.5471 155.15 29.9165C155.15 33.2858 157.873 36.0172 161.232 36.0172Z" fill="white"/>
<path d="M161.934 36.4865C160.407 36.4865 158.914 36.0324 157.645 35.1815C156.375 34.3307 155.386 33.1214 154.802 31.7065C154.217 30.2916 154.064 28.7347 154.362 27.2326C154.66 25.7306 155.395 24.3509 156.475 23.2679C157.555 22.185 158.93 21.4476 160.428 21.1488C161.925 20.85 163.477 21.0034 164.888 21.5894C166.299 22.1755 167.504 23.168 168.353 24.4413C169.201 25.7147 169.654 27.2118 169.654 28.7432C169.651 30.7962 168.837 32.7643 167.39 34.216C165.943 35.6676 163.98 36.4842 161.934 36.4865V36.4865ZM161.934 21.4693C160.499 21.4693 159.097 21.8959 157.905 22.6952C156.712 23.4944 155.783 24.6305 155.234 25.9596C154.685 27.2888 154.541 28.7513 154.821 30.1623C155.101 31.5733 155.792 32.8694 156.806 33.8867C157.82 34.904 159.112 35.5968 160.519 35.8774C161.926 36.1581 163.384 36.0141 164.709 35.4635C166.034 34.913 167.167 33.9806 167.963 32.7844C168.76 31.5882 169.186 30.1819 169.186 28.7432C169.184 26.8147 168.419 24.9658 167.059 23.6022C165.7 22.2385 163.856 21.4715 161.934 21.4693V21.4693Z" fill="#3F3D56"/>
<path d="M156.525 40.1894H166.188C166.847 36.366 166.847 32.4574 166.188 28.634H156.525C157.614 32.4084 157.614 36.415 156.525 40.1894Z" fill="#5271FF"/>
<path d="M64.3733 149.643C72.4112 173.907 69.5883 196.689 69.5883 196.689C69.5883 196.689 53.7334 180.132 45.6955 155.868C37.6576 131.604 40.4806 108.822 40.4806 108.822C40.4806 108.822 56.3354 125.379 64.3733 149.643Z" fill="#5271FF"/>
<path d="M74.8034 149.643C66.7656 173.907 69.5885 196.689 69.5885 196.689C69.5885 196.689 85.4433 180.132 93.4812 155.868C101.519 131.604 98.6962 108.822 98.6962 108.822C98.6962 108.822 82.8413 125.379 74.8034 149.643Z" fill="#5271FF"/>
<path d="M78.0406 149.906C78.5794 175.468 69.1774 196.399 69.1774 196.399C69.1774 196.399 58.9019 175.885 58.3631 150.323C57.8243 124.76 67.2263 103.829 67.2263 103.829C67.2263 103.829 77.5018 124.343 78.0406 149.906Z" fill="#3F3D56"/>
<path d="M69.1721 197.939C81.7262 197.939 91.9033 197.379 91.9033 196.688C91.9033 195.997 81.7262 195.436 69.1721 195.436C56.618 195.436 46.4409 195.997 46.4409 196.688C46.4409 197.379 56.618 197.939 69.1721 197.939Z" fill="#3F3D56"/>
<path d="M68.2019 129.817C69.5798 129.817 70.6968 128.696 70.6968 127.314C70.6968 125.932 69.5798 124.812 68.2019 124.812C66.824 124.812 65.707 125.932 65.707 127.314C65.707 128.696 66.824 129.817 68.2019 129.817Z" fill="#5271FF"/>
<path d="M63.3504 148.724C64.1159 148.724 64.7364 148.102 64.7364 147.334C64.7364 146.566 64.1159 145.943 63.3504 145.943C62.5849 145.943 61.9644 146.566 61.9644 147.334C61.9644 148.102 62.5849 148.724 63.3504 148.724Z" fill="#5271FF"/>
<path d="M46.4407 134.96C47.2062 134.96 47.8268 134.338 47.8268 133.57C47.8268 132.802 47.2062 132.18 46.4407 132.18C45.6752 132.18 45.0547 132.802 45.0547 133.57C45.0547 134.338 45.6752 134.96 46.4407 134.96Z" fill="#3F3D56"/>
<path d="M95.3685 121.475C96.134 121.475 96.7545 120.853 96.7545 120.085C96.7545 119.317 96.134 118.695 95.3685 118.695C94.603 118.695 93.9824 119.317 93.9824 120.085C93.9824 120.853 94.603 121.475 95.3685 121.475Z" fill="#3F3D56"/>
<path d="M53.6483 148.029C54.4137 148.029 55.0343 147.406 55.0343 146.639C55.0343 145.871 54.4137 145.248 53.6483 145.248C52.8828 145.248 52.2622 145.871 52.2622 146.639C52.2622 147.406 52.8828 148.029 53.6483 148.029Z" fill="#3F3D56"/>
<path d="M82.7557 139.965C83.5212 139.965 84.1417 139.343 84.1417 138.575C84.1417 137.807 83.5212 137.185 82.7557 137.185C81.9902 137.185 81.3696 137.807 81.3696 138.575C81.3696 139.343 81.9902 139.965 82.7557 139.965Z" fill="#3F3D56"/>
<path d="M54.4798 168.465C55.2453 168.465 55.8658 167.843 55.8658 167.075C55.8658 166.307 55.2453 165.685 54.4798 165.685C53.7143 165.685 53.0938 166.307 53.0938 167.075C53.0938 167.843 53.7143 168.465 54.4798 168.465Z" fill="#3F3D56"/>
<path d="M84.1414 160.541C84.9069 160.541 85.5275 159.919 85.5275 159.151C85.5275 158.383 84.9069 157.761 84.1414 157.761C83.3759 157.761 82.7554 158.383 82.7554 159.151C82.7554 159.919 83.3759 160.541 84.1414 160.541Z" fill="#3F3D56"/>
<path d="M70.6971 161.931C71.4626 161.931 72.0831 161.309 72.0831 160.541C72.0831 159.773 71.4626 159.151 70.6971 159.151C69.9316 159.151 69.311 159.773 69.311 160.541C69.311 161.309 69.9316 161.931 70.6971 161.931Z" fill="#5271FF"/>
<path d="M253.383 165.82C259.992 185.77 257.671 204.503 257.671 204.503C257.671 204.503 244.635 190.889 238.026 170.938C231.417 150.987 233.738 132.255 233.738 132.255C233.738 132.255 246.774 145.869 253.383 165.82Z" fill="#5271FF"/>
<path d="M261.959 165.82C255.35 185.77 257.671 204.503 257.671 204.503C257.671 204.503 270.708 190.889 277.317 170.938C283.926 150.987 281.605 132.255 281.605 132.255C281.605 132.255 268.568 145.869 261.959 165.82Z" fill="#5271FF"/>
<path d="M264.621 166.035C265.064 187.054 257.334 204.264 257.334 204.264C257.334 204.264 248.885 187.397 248.442 166.378C247.999 145.36 255.729 128.15 255.729 128.15C255.729 128.15 264.178 145.017 264.621 166.035Z" fill="#3F3D56"/>
<path d="M257.329 205.53C267.651 205.53 276.019 205.069 276.019 204.501C276.019 203.933 267.651 203.472 257.329 203.472C247.007 203.472 238.639 203.933 238.639 204.501C238.639 205.069 247.007 205.53 257.329 205.53Z" fill="#3F3D56"/>
<path d="M256.531 149.517C257.664 149.517 258.583 148.596 258.583 147.46C258.583 146.323 257.664 145.402 256.531 145.402C255.398 145.402 254.48 146.323 254.48 147.46C254.48 148.596 255.398 149.517 256.531 149.517Z" fill="#5271FF"/>
<path d="M252.542 165.064C253.172 165.064 253.682 164.552 253.682 163.921C253.682 163.289 253.172 162.778 252.542 162.778C251.913 162.778 251.403 163.289 251.403 163.921C251.403 164.552 251.913 165.064 252.542 165.064Z" fill="#5271FF"/>
<path d="M238.639 153.747C239.268 153.747 239.778 153.235 239.778 152.604C239.778 151.972 239.268 151.461 238.639 151.461C238.009 151.461 237.499 151.972 237.499 152.604C237.499 153.235 238.009 153.747 238.639 153.747Z" fill="#3F3D56"/>
<path d="M278.869 142.659C279.498 142.659 280.008 142.147 280.008 141.516C280.008 140.884 279.498 140.372 278.869 140.372C278.239 140.372 277.729 140.884 277.729 141.516C277.729 142.147 278.239 142.659 278.869 142.659Z" fill="#3F3D56"/>
<path d="M244.565 164.492C245.194 164.492 245.705 163.98 245.705 163.349C245.705 162.718 245.194 162.206 244.565 162.206C243.936 162.206 243.425 162.718 243.425 163.349C243.425 163.98 243.936 164.492 244.565 164.492Z" fill="#3F3D56"/>
<path d="M268.498 157.862C269.127 157.862 269.638 157.35 269.638 156.719C269.638 156.088 269.127 155.576 268.498 155.576C267.869 155.576 267.358 156.088 267.358 156.719C267.358 157.35 267.869 157.862 268.498 157.862Z" fill="#3F3D56"/>
<path d="M245.249 181.296C245.878 181.296 246.389 180.784 246.389 180.153C246.389 179.522 245.878 179.01 245.249 179.01C244.62 179.01 244.109 179.522 244.109 180.153C244.109 180.784 244.62 181.296 245.249 181.296Z" fill="#3F3D56"/>
<path d="M269.638 174.78C270.267 174.78 270.777 174.268 270.777 173.637C270.777 173.006 270.267 172.494 269.638 172.494C269.008 172.494 268.498 173.006 268.498 173.637C268.498 174.268 269.008 174.78 269.638 174.78Z" fill="#3F3D56"/>
<path d="M258.583 175.923C259.212 175.923 259.723 175.412 259.723 174.78C259.723 174.149 259.212 173.637 258.583 173.637C257.954 173.637 257.443 174.149 257.443 174.78C257.443 175.412 257.954 175.923 258.583 175.923Z" fill="#5271FF"/>
</svg>
