<svg width="501" height="286" viewBox="0 0 501 286" fill="none" xmlns="http://www.w3.org/2000/svg">
<g clip-path="url(#clip0)">
<g opacity="0.5">
<path opacity="0.5" d="M311.65 17.0652L181.876 17.3824C181.175 17.384 180.482 17.524 179.836 17.7945C179.189 18.065 178.602 18.4607 178.108 18.9589C177.614 19.4572 177.223 20.0482 176.956 20.6983C176.69 21.3483 176.554 22.0447 176.556 22.7475L177.146 266.288C177.147 266.991 177.287 267.687 177.556 268.335C177.826 268.984 178.22 269.573 178.717 270.069C179.213 270.565 179.802 270.957 180.45 271.224C181.098 271.492 181.792 271.628 182.493 271.626L312.267 271.309C312.968 271.307 313.661 271.167 314.308 270.896C314.955 270.626 315.542 270.229 316.036 269.731C316.53 269.232 316.921 268.641 317.188 267.99C317.454 267.34 317.589 266.643 317.587 265.94L316.997 22.399C316.995 21.6965 316.855 21.0013 316.585 20.353C316.316 19.7048 315.921 19.1162 315.425 18.6209C314.928 18.1256 314.339 17.7333 313.692 17.4664C313.044 17.1995 312.35 17.0631 311.65 17.0652V17.0652Z" fill="url(#paint0_linear)"/>
</g>
<path d="M309.771 20.3903L183.771 20.6992C180.831 20.7064 178.453 23.1038 178.46 26.0539L179.037 262.85C179.044 265.8 181.433 268.186 184.374 268.179L310.373 267.87C313.314 267.863 315.691 265.465 315.684 262.515L315.107 25.7189C315.1 22.7688 312.711 20.3831 309.771 20.3903Z" fill="white"/>
<path opacity="0.4" d="M281.113 26.6637C280.725 29.2887 279.413 31.6875 277.415 33.4264C275.417 35.1653 272.865 36.1296 270.22 36.1447L223.021 36.2583C220.379 36.2535 217.825 35.3008 215.82 33.5722C213.816 31.8437 212.494 29.4531 212.093 26.8321L187.094 26.8948C186.413 26.8963 185.738 27.0326 185.109 27.2957C184.479 27.5589 183.908 27.9439 183.427 28.4286C182.946 28.9134 182.565 29.4884 182.306 30.1209C182.046 30.7534 181.914 31.431 181.915 32.115L182.458 256.772C182.459 257.456 182.595 258.134 182.858 258.765C183.12 259.397 183.504 259.97 183.988 260.453C184.471 260.936 185.045 261.318 185.676 261.578C186.306 261.838 186.982 261.971 187.664 261.969L307.096 261.679C307.777 261.677 308.452 261.541 309.081 261.278C309.71 261.015 310.282 260.63 310.763 260.145C311.244 259.66 311.625 259.085 311.884 258.453C312.144 257.82 312.276 257.143 312.275 256.459L311.732 31.8017C311.731 31.1177 311.595 30.4407 311.333 29.8094C311.07 29.1781 310.687 28.6048 310.204 28.1222C309.721 27.6396 309.147 27.2573 308.517 26.997C307.887 26.7366 307.211 26.6034 306.53 26.605L281.113 26.6637Z" fill="#5271FF"/>
<path d="M259.987 29.5111L231.101 29.9461C230.67 29.9526 230.326 30.3085 230.332 30.741L230.337 31.0856C230.344 31.5181 230.698 31.8635 231.129 31.857L260.016 31.4219C260.447 31.4154 260.791 31.0595 260.785 30.627L260.78 30.2824C260.773 29.8499 260.418 29.5046 259.987 29.5111Z" fill="#DBDBDB"/>
<path d="M267.262 31.309C267.894 31.2995 268.398 30.7781 268.388 30.1445C268.379 29.5108 267.859 29.0049 267.228 29.0144C266.596 29.0239 266.092 29.5453 266.102 30.1789C266.111 30.8125 266.631 31.3185 267.262 31.309Z" fill="#DBDBDB"/>
<g opacity="0.5">
<path opacity="0.5" d="M263.019 197.458C263.021 190.774 261.299 184.204 258.019 178.386C254.74 172.569 250.015 167.702 244.305 164.26C238.594 160.819 232.093 158.919 225.434 158.746C218.775 158.574 212.185 160.134 206.305 163.275C200.425 166.417 195.456 171.032 191.882 176.672C188.307 182.312 186.249 188.785 185.908 195.46C185.566 202.135 186.953 208.785 189.933 214.762C192.913 220.74 197.385 225.842 202.913 229.571L202.936 229.743C204.197 230.955 205.684 231.904 207.312 232.535L207.362 232.363C209.169 233.929 216.776 236.408 225.515 236.385H225.706C231.241 236.385 237.251 235.406 242.536 232.535C242.536 232.535 242.583 232.433 242.653 232.241C243.992 231.61 245.22 230.767 246.291 229.743C246.312 229.594 246.332 229.448 246.353 229.304C251.495 225.748 255.698 220.992 258.601 215.444C261.504 209.896 263.02 203.724 263.019 197.458V197.458Z" fill="url(#paint1_linear)"/>
</g>
<path d="M224.434 235.014C245.104 235.014 261.86 218.201 261.86 197.462C261.86 176.723 245.104 159.91 224.434 159.91C203.764 159.91 187.008 176.723 187.008 197.462C187.008 218.201 203.764 235.014 224.434 235.014Z" fill="#F5F5F5"/>
<path d="M210.138 212.904C210.138 212.904 201.219 213.636 203.581 229.935C204.802 231.113 206.244 232.037 207.823 232.653L212.838 215.621L210.138 212.904Z" fill="#FDA57D"/>
<path d="M239.074 212.904C239.074 212.904 247.993 213.636 245.631 229.935C244.41 231.113 242.968 232.037 241.389 232.653L236.374 215.614L239.074 212.904Z" fill="#FDA57D"/>
<path d="M210.523 186.192C210.523 186.192 206.281 198.582 203.966 197.407C203.966 197.407 226.299 216.765 246.021 197.407C246.021 197.407 242.547 191.212 237.532 186.18L210.523 186.192Z" fill="#333333"/>
<path d="M224.84 201.676C234.003 201.676 241.431 194.223 241.431 185.029C241.431 175.834 234.003 168.381 224.84 168.381C215.676 168.381 208.248 175.834 208.248 185.029C208.248 194.223 215.676 201.676 224.84 201.676Z" fill="#333333"/>
<path opacity="0.1" d="M238.902 212.904H209.969L207.268 224.519C207.268 224.519 205.684 229.896 207.659 232.261C209.634 234.626 228.064 240.003 241.615 232.653C242.797 229.557 242.934 226.157 242.005 222.976C240.444 217.556 241.615 222.584 241.615 222.584L238.902 212.904Z" fill="black"/>
<path opacity="0.1" d="M239.289 212.904H210.352L207.651 224.519C207.651 224.519 206.067 229.896 208.042 232.261C210.016 234.626 228.446 240.003 241.998 232.653C243.18 229.557 243.317 226.157 242.388 222.976C240.827 217.556 241.998 222.584 241.998 222.584L239.289 212.904Z" fill="black"/>
<path d="M239.074 212.904H210.137L207.436 224.519C207.436 224.519 205.852 229.896 207.827 232.261C209.802 234.626 228.232 240.003 241.783 232.653C242.965 229.557 243.102 226.157 242.173 222.976C240.612 217.556 241.783 222.584 241.783 222.584L239.074 212.904Z" fill="#5271FF"/>
<path opacity="0.1" d="M219.013 203.266H230.597V214.505C230.597 215.012 230.497 215.513 230.304 215.981C230.111 216.449 229.828 216.875 229.471 217.233C229.114 217.591 228.69 217.875 228.224 218.069C227.757 218.263 227.257 218.363 226.752 218.363H222.849C221.83 218.363 220.852 217.956 220.131 217.233C219.41 216.509 219.005 215.528 219.005 214.505V203.266H219.013Z" fill="black"/>
<path d="M219.013 202.839H230.597V214.078C230.597 214.585 230.497 215.087 230.304 215.555C230.111 216.023 229.828 216.448 229.471 216.806C229.114 217.164 228.69 217.448 228.224 217.642C227.757 217.836 227.257 217.936 226.752 217.936H222.849C221.83 217.936 220.852 217.529 220.131 216.806C219.41 216.083 219.005 215.101 219.005 214.078V202.839H219.013Z" fill="#FDA57D"/>
<path opacity="0.1" d="M219.036 204.511C222.767 205.91 226.874 205.921 230.612 204.543V203.117H219.036V204.511Z" fill="black"/>
<path d="M224.84 205.291C234.003 205.291 241.431 197.837 241.431 188.643C241.431 179.449 234.003 171.996 224.84 171.996C215.676 171.996 208.248 179.449 208.248 188.643C208.248 197.837 215.676 205.291 224.84 205.291Z" fill="#FDA57D"/>
<path d="M208.982 182.319H240.62C240.62 182.319 237.919 169.501 225.96 170.319C214.001 171.138 208.982 182.319 208.982 182.319Z" fill="#333333"/>
<path d="M208.595 190.836C209.447 190.836 210.137 189.537 210.137 187.934C210.137 186.332 209.447 185.032 208.595 185.032C207.744 185.032 207.054 186.332 207.054 187.934C207.054 189.537 207.744 190.836 208.595 190.836Z" fill="#FDA57D"/>
<path d="M241.002 190.836C241.854 190.836 242.544 189.537 242.544 187.934C242.544 186.332 241.854 185.032 241.002 185.032C240.151 185.032 239.46 186.332 239.46 187.934C239.46 189.537 240.151 190.836 241.002 190.836Z" fill="#FDA57D"/>
<path opacity="0.1" d="M208.982 182.749H240.62C240.62 182.749 237.919 169.932 225.96 170.75C214.001 171.569 208.982 182.749 208.982 182.749Z" fill="black"/>
<g opacity="0.5">
<path opacity="0.5" d="M231.744 95.3334C231.742 88.6496 233.464 82.0791 236.744 76.2614C240.023 70.4437 244.748 65.5771 250.458 62.1354C256.169 58.6937 262.67 56.794 269.329 56.6214C275.988 56.4488 282.578 58.0092 288.458 61.1505C294.338 64.2918 299.307 68.9072 302.881 74.5472C306.456 80.1872 308.514 86.6598 308.855 93.3348C309.197 100.01 307.81 106.66 304.83 112.637C301.85 118.615 297.378 123.717 291.85 127.446L291.827 127.618C290.569 128.841 289.082 129.801 287.452 130.442L287.401 130.269C285.594 131.836 277.987 134.315 269.248 134.291H269.057C263.522 134.291 257.512 133.312 252.227 130.442C252.227 130.442 252.18 130.34 252.11 130.148C250.771 129.517 249.543 128.673 248.472 127.649C248.452 127.501 248.431 127.354 248.41 127.211C243.264 123.652 239.058 118.89 236.155 113.337C233.251 107.783 231.738 101.605 231.744 95.3334V95.3334Z" fill="url(#paint2_linear)"/>
</g>
<path d="M270.325 132.889C290.995 132.889 307.751 116.077 307.751 95.3372C307.751 74.5979 290.995 57.7854 270.325 57.7854C249.655 57.7854 232.899 74.5979 232.899 95.3372C232.899 116.077 249.655 132.889 270.325 132.889Z" fill="#F5F5F5"/>
<path d="M255.654 109.639C255.654 109.639 246.735 110.371 249.097 126.67C250.318 127.846 251.76 128.767 253.339 129.38L258.355 112.349L255.654 109.639Z" fill="#BE7C5E"/>
<path d="M284.587 109.639C284.587 109.639 293.505 110.371 291.144 126.67C289.922 127.846 288.48 128.767 286.901 129.38L281.886 112.349L284.587 109.639Z" fill="#BE7C5E"/>
<path d="M256.036 82.9269C256.036 82.9269 255.349 84.932 254.378 87.2347C252.254 92.3257 254.678 111.793 259.756 113.864C265.454 116.214 272.948 117.687 280.734 114.84C287.498 112.365 289.586 90.1679 284.801 84.7832C284.239 84.1488 283.654 83.5183 283.041 82.9073L256.036 82.9269Z" fill="#333333"/>
<path d="M270.353 98.4153C279.516 98.4153 286.944 90.9619 286.944 81.7678C286.944 72.5736 279.516 65.1202 270.353 65.1202C261.19 65.1202 253.761 72.5736 253.761 81.7678C253.761 90.9619 261.19 98.4153 270.353 98.4153Z" fill="#333333"/>
<path opacity="0.1" d="M284.419 109.639H255.482L252.781 121.254C252.781 121.254 251.197 126.631 253.171 128.997C255.146 131.362 273.576 136.739 287.127 129.388C288.309 126.292 288.447 122.893 287.518 119.711C285.957 114.291 287.127 119.32 287.127 119.32L284.419 109.639Z" fill="black"/>
<path opacity="0.1" d="M284.801 109.639H255.864L253.163 121.254C253.163 121.254 251.579 126.631 253.554 128.997C255.529 131.362 273.959 136.739 287.51 129.388C288.692 126.292 288.829 122.893 287.9 119.711C286.339 114.291 287.51 119.32 287.51 119.32L284.801 109.639Z" fill="black"/>
<path d="M284.587 109.639H255.654L252.953 121.254C252.953 121.254 251.368 126.631 253.343 128.997C255.318 131.362 273.748 136.739 287.299 129.388C288.481 126.292 288.618 122.893 287.69 119.711C286.128 114.291 287.299 119.32 287.299 119.32L284.587 109.639Z" fill="#F55F44"/>
<path opacity="0.1" d="M264.525 100.005H276.102V111.244C276.102 112.268 275.697 113.249 274.976 113.972C274.255 114.695 273.277 115.102 272.257 115.102H268.354C267.335 115.102 266.357 114.695 265.636 113.972C264.915 113.249 264.51 112.268 264.51 111.244V100.005H264.525Z" fill="black"/>
<path d="M264.525 99.5745H276.102V110.814C276.102 111.837 275.697 112.818 274.976 113.541C274.255 114.265 273.277 114.671 272.257 114.671H268.354C267.335 114.671 266.357 114.265 265.636 113.541C264.915 112.818 264.51 111.837 264.51 110.814V99.5745H264.525Z" fill="#BE7C5E"/>
<path opacity="0.1" d="M264.553 101.247C268.284 102.645 272.391 102.657 276.129 101.278V99.8525H264.553V101.247Z" fill="black"/>
<path d="M270.353 102.026C279.516 102.026 286.944 94.5726 286.944 85.3785C286.944 76.1843 279.516 68.731 270.353 68.731C261.19 68.731 253.761 76.1843 253.761 85.3785C253.761 94.5726 261.19 102.026 270.353 102.026Z" fill="#BE7C5E"/>
<path d="M254.495 79.0578H286.133C286.133 79.0578 283.432 66.2402 271.473 67.0587C259.514 67.8772 254.495 79.0578 254.495 79.0578Z" fill="#333333"/>
<path d="M254.109 87.5716C254.96 87.5716 255.65 86.2723 255.65 84.6697C255.65 83.067 254.96 81.7678 254.109 81.7678C253.257 81.7678 252.567 83.067 252.567 84.6697C252.567 86.2723 253.257 87.5716 254.109 87.5716Z" fill="#BE7C5E"/>
<path d="M286.515 87.5716C287.366 87.5716 288.056 86.2723 288.056 84.6697C288.056 83.067 287.366 81.7678 286.515 81.7678C285.663 81.7678 284.973 83.067 284.973 84.6697C284.973 86.2723 285.663 87.5716 286.515 87.5716Z" fill="#BE7C5E"/>
<path opacity="0.1" d="M254.495 79.4884H286.133C286.133 79.4884 283.432 66.6709 271.473 67.4894C259.514 68.3079 254.495 79.4884 254.495 79.4884Z" fill="black"/>
<g opacity="0.5">
<path opacity="0.5" d="M98.2856 61.7562V117.647H186.048C186.048 117.647 192.527 130.441 203.666 134.162C203.666 134.162 200.111 125.1 203.822 117.647H228.255V61.7562H98.2856Z" fill="url(#paint3_linear)"/>
</g>
<path d="M101.798 63.6711V116.539H189.616C189.616 116.539 189.616 127.113 200.154 130.637C200.154 130.637 196.641 123.588 200.154 116.539H224.742V63.6711H101.798Z" fill="white"/>
<path d="M182.59 74.2448H112.336V81.2938H182.59V74.2448Z" fill="#5271FF"/>
<path d="M207.179 84.8184H112.336V91.8674H207.179V84.8184Z" fill="#5271FF"/>
<path d="M196.641 95.3921H112.336V102.441H196.641V95.3921Z" fill="#5271FF"/>
<g opacity="0.5">
<path opacity="0.5" d="M396.863 169.45V225.341H309.105C309.105 225.341 302.626 238.135 291.483 241.856C291.483 241.856 295.038 232.794 291.327 225.341H266.894V169.45H396.863Z" fill="url(#paint4_linear)"/>
</g>
<path d="M393.351 171.365V224.233H305.534C305.534 224.233 305.534 234.807 294.996 238.331C294.996 238.331 298.509 231.282 294.996 224.233H270.407V171.365H393.351Z" fill="white"/>
<path d="M355.102 181.939H284.849V188.988H355.102V181.939Z" fill="#5271FF"/>
<path d="M379.691 192.512H284.849V199.561H379.691V192.512Z" fill="#5271FF"/>
<path d="M369.153 203.086H284.849V210.135H369.153V203.086Z" fill="#5271FF"/>
<g opacity="0.5">
<path opacity="0.5" d="M130.29 279.45H129.119V286.108H130.29V279.45Z" fill="#47E6B1"/>
<path opacity="0.5" d="M133.022 283.366V282.192H126.387V283.366H133.022Z" fill="#47E6B1"/>
</g>
<g opacity="0.5">
<path opacity="0.5" d="M344.564 75.0281H343.393V81.6855H344.564V75.0281Z" fill="#47E6B1"/>
<path opacity="0.5" d="M347.296 78.9442V77.7694H340.661V78.9442H347.296Z" fill="#47E6B1"/>
</g>
<g opacity="0.5">
<path opacity="0.5" d="M369.543 239.506H368.372V246.163H369.543V239.506Z" fill="#47E6B1"/>
<path opacity="0.5" d="M372.275 243.422V242.247H365.64V243.422H372.275Z" fill="#47E6B1"/>
</g>
<g opacity="0.5">
<path opacity="0.5" d="M295.777 -0.161865H294.606V6.49557H295.777V-0.161865Z" fill="#47E6B1"/>
<path opacity="0.5" d="M298.509 3.75431V2.57947L291.874 2.57947V3.75431L298.509 3.75431Z" fill="#47E6B1"/>
</g>
<path opacity="0.5" d="M197.305 278.789C196.985 278.645 196.729 278.389 196.585 278.068C196.442 277.748 196.42 277.386 196.524 277.05C196.541 276.998 196.551 276.944 196.555 276.89V276.89C196.565 276.735 196.525 276.581 196.44 276.45C196.356 276.32 196.232 276.221 196.087 276.167C195.942 276.113 195.783 276.108 195.635 276.152C195.486 276.196 195.356 276.287 195.263 276.412V276.412C195.232 276.456 195.206 276.503 195.185 276.553C195.042 276.873 194.786 277.13 194.467 277.274C194.148 277.419 193.787 277.441 193.452 277.336C193.4 277.319 193.347 277.309 193.292 277.305V277.305C193.138 277.295 192.984 277.335 192.854 277.42C192.725 277.504 192.626 277.629 192.572 277.775C192.519 277.92 192.513 278.079 192.557 278.228C192.601 278.377 192.692 278.508 192.816 278.601V278.601C192.86 278.632 192.907 278.659 192.957 278.679C193.276 278.823 193.532 279.08 193.676 279.4C193.819 279.72 193.841 280.083 193.737 280.418C193.72 280.47 193.71 280.524 193.706 280.579V280.579C193.696 280.734 193.736 280.888 193.821 281.018C193.905 281.148 194.029 281.247 194.174 281.301C194.319 281.355 194.478 281.36 194.627 281.316C194.775 281.272 194.905 281.181 194.998 281.056V281.056C195.029 281.013 195.055 280.965 195.076 280.915C195.219 280.595 195.475 280.338 195.794 280.194C196.114 280.05 196.474 280.028 196.809 280.132C196.861 280.149 196.914 280.159 196.969 280.163V280.163C197.123 280.173 197.277 280.133 197.407 280.048C197.536 279.964 197.635 279.839 197.689 279.694C197.742 279.548 197.748 279.389 197.704 279.24C197.66 279.091 197.569 278.96 197.445 278.867V278.867C197.401 278.836 197.354 278.809 197.305 278.789V278.789Z" fill="#4D8AF0"/>
<path opacity="0.5" d="M118.932 154.51C118.613 154.366 118.357 154.11 118.213 153.789C118.069 153.469 118.048 153.107 118.152 152.771C118.168 152.719 118.179 152.665 118.183 152.611V152.611C118.193 152.456 118.153 152.302 118.068 152.171C117.984 152.041 117.86 151.942 117.715 151.888C117.57 151.834 117.411 151.829 117.262 151.873C117.114 151.917 116.984 152.008 116.891 152.133V152.133C116.86 152.177 116.834 152.224 116.813 152.274C116.67 152.594 116.414 152.851 116.095 152.995C115.775 153.14 115.414 153.162 115.08 153.057C115.028 153.04 114.975 153.03 114.92 153.026C114.766 153.016 114.612 153.056 114.482 153.141C114.353 153.225 114.254 153.35 114.2 153.496C114.147 153.641 114.141 153.8 114.185 153.949C114.229 154.098 114.32 154.229 114.444 154.322V154.322C114.488 154.353 114.535 154.38 114.584 154.4C114.904 154.544 115.16 154.801 115.304 155.121C115.447 155.441 115.469 155.804 115.365 156.139C115.348 156.191 115.338 156.245 115.334 156.3V156.3C115.318 156.457 115.354 156.616 115.436 156.751C115.519 156.886 115.644 156.99 115.792 157.047C115.939 157.104 116.101 157.11 116.253 157.065C116.404 157.02 116.537 156.925 116.63 156.797V156.797C116.661 156.753 116.687 156.706 116.708 156.656C116.851 156.335 117.107 156.079 117.426 155.934C117.745 155.79 118.106 155.768 118.441 155.873C118.493 155.889 118.546 155.9 118.601 155.904V155.904C118.755 155.914 118.909 155.874 119.038 155.789C119.168 155.704 119.267 155.58 119.321 155.434C119.374 155.288 119.379 155.129 119.335 154.98C119.292 154.831 119.201 154.701 119.077 154.608C119.033 154.569 118.984 154.536 118.932 154.51V154.51Z" fill="#4D8AF0"/>
<path opacity="0.5" d="M161.475 188.58C161.155 188.436 160.9 188.18 160.756 187.86C160.612 187.539 160.59 187.177 160.694 186.842C160.711 186.789 160.721 186.736 160.726 186.681V186.681C160.735 186.526 160.695 186.372 160.611 186.242C160.526 186.112 160.402 186.012 160.257 185.959C160.112 185.905 159.953 185.9 159.805 185.944C159.657 185.988 159.526 186.079 159.434 186.203V186.203C159.402 186.247 159.376 186.294 159.356 186.344C159.212 186.665 158.957 186.921 158.637 187.066C158.318 187.21 157.957 187.232 157.623 187.127C157.571 187.111 157.517 187.1 157.463 187.096V187.096C157.308 187.086 157.155 187.126 157.025 187.211C156.895 187.296 156.796 187.42 156.743 187.566C156.689 187.712 156.684 187.871 156.728 188.02C156.772 188.169 156.862 188.299 156.986 188.392C157.03 188.424 157.077 188.45 157.127 188.471C157.446 188.615 157.702 188.871 157.846 189.191C157.99 189.512 158.012 189.874 157.908 190.209C157.891 190.262 157.88 190.315 157.876 190.37V190.37C157.86 190.528 157.896 190.687 157.979 190.822C158.061 190.957 158.186 191.061 158.334 191.117C158.482 191.174 158.644 191.18 158.795 191.135C158.947 191.09 159.079 190.996 159.172 190.867V190.867C159.204 190.824 159.23 190.776 159.25 190.726C159.394 190.406 159.649 190.149 159.969 190.005C160.288 189.86 160.649 189.839 160.983 189.943C161.035 189.96 161.089 189.97 161.143 189.974V189.974C161.298 189.984 161.451 189.944 161.581 189.859C161.711 189.775 161.81 189.65 161.863 189.505C161.917 189.359 161.922 189.2 161.878 189.051C161.834 188.902 161.743 188.771 161.619 188.678V188.678C161.575 188.64 161.527 188.607 161.475 188.58V188.58Z" fill="#4D8AF0"/>
<path opacity="0.5" d="M404.241 281.001C403.921 280.857 403.665 280.601 403.521 280.28C403.378 279.96 403.356 279.598 403.46 279.262C403.477 279.21 403.487 279.156 403.491 279.102V279.102C403.501 278.947 403.461 278.793 403.377 278.663C403.292 278.532 403.168 278.433 403.023 278.379C402.878 278.326 402.719 278.321 402.571 278.365C402.422 278.409 402.292 278.5 402.199 278.624V278.624C402.168 278.668 402.142 278.715 402.121 278.765C401.978 279.086 401.722 279.342 401.403 279.487C401.084 279.631 400.723 279.653 400.388 279.548C400.336 279.532 400.283 279.521 400.228 279.517C400.074 279.507 399.92 279.547 399.79 279.632C399.661 279.717 399.562 279.841 399.508 279.987C399.455 280.133 399.449 280.292 399.493 280.441C399.537 280.59 399.628 280.72 399.752 280.813C399.796 280.845 399.843 280.871 399.893 280.892C400.212 281.036 400.468 281.292 400.612 281.612C400.756 281.933 400.777 282.295 400.673 282.63C400.657 282.682 400.646 282.736 400.642 282.791C400.626 282.949 400.662 283.108 400.744 283.243C400.827 283.378 400.952 283.482 401.1 283.538C401.247 283.595 401.41 283.601 401.561 283.556C401.713 283.511 401.845 283.417 401.938 283.288C401.969 283.245 401.995 283.197 402.016 283.147C402.159 282.827 402.415 282.57 402.734 282.426C403.054 282.281 403.414 282.26 403.749 282.364C403.801 282.381 403.854 282.391 403.909 282.395C404.063 282.405 404.217 282.365 404.347 282.28C404.476 282.196 404.575 282.071 404.629 281.926C404.682 281.78 404.688 281.621 404.644 281.472C404.6 281.323 404.509 281.192 404.385 281.099V281.099C404.341 281.061 404.293 281.028 404.241 281.001V281.001Z" fill="#4D8AF0"/>
<path opacity="0.5" d="M98.6758 260.261C99.9691 260.261 101.018 259.209 101.018 257.912C101.018 256.614 99.9691 255.562 98.6758 255.562C97.3824 255.562 96.334 256.614 96.334 257.912C96.334 259.209 97.3824 260.261 98.6758 260.261Z" fill="#F55F44"/>
<path opacity="0.5" d="M362.908 27.2512C364.202 27.2512 365.25 26.1993 365.25 24.9016C365.25 23.6039 364.202 22.5519 362.908 22.5519C361.615 22.5519 360.566 23.6039 360.566 24.9016C360.566 26.1993 361.615 27.2512 362.908 27.2512Z" fill="#4D8AF0"/>
<path opacity="0.5" d="M136.925 31.9506C138.219 31.9506 139.267 30.8986 139.267 29.6009C139.267 28.3032 138.219 27.2512 136.925 27.2512C135.632 27.2512 134.583 28.3032 134.583 29.6009C134.583 30.8986 135.632 31.9506 136.925 31.9506Z" fill="#47E6B1"/>
<path opacity="0.5" d="M365.249 137.686C366.543 137.686 367.591 136.634 367.591 135.337C367.591 134.039 366.543 132.987 365.249 132.987C363.956 132.987 362.908 134.039 362.908 135.337C362.908 136.634 363.956 137.686 365.249 137.686Z" fill="#F55F44"/>
</g>
<defs>
<linearGradient id="paint0_linear" x1="191.866" y1="276.036" x2="302.913" y2="12.9136" gradientUnits="userSpaceOnUse">
<stop stop-color="#808080" stop-opacity="0.25"/>
<stop offset="0.54" stop-color="#808080" stop-opacity="0.12"/>
<stop offset="1" stop-color="#808080" stop-opacity="0.1"/>
</linearGradient>
<linearGradient id="paint1_linear" x1="41329.4" y1="53628" x2="41329.4" y2="38229.7" gradientUnits="userSpaceOnUse">
<stop stop-color="#808080" stop-opacity="0.25"/>
<stop offset="0.54" stop-color="#808080" stop-opacity="0.12"/>
<stop offset="1" stop-color="#808080" stop-opacity="0.1"/>
</linearGradient>
<linearGradient id="paint2_linear" x1="46332.2" y1="33289.3" x2="46332.2" y2="17884.8" gradientUnits="userSpaceOnUse">
<stop stop-color="#808080" stop-opacity="0.25"/>
<stop offset="0.54" stop-color="#808080" stop-opacity="0.12"/>
<stop offset="1" stop-color="#808080" stop-opacity="0.1"/>
</linearGradient>
<linearGradient id="paint3_linear" x1="49031.8" y1="31015.1" x2="49031.8" y2="17628.1" gradientUnits="userSpaceOnUse">
<stop stop-color="#808080" stop-opacity="0.25"/>
<stop offset="0.54" stop-color="#808080" stop-opacity="0.12"/>
<stop offset="1" stop-color="#808080" stop-opacity="0.1"/>
</linearGradient>
<linearGradient id="paint4_linear" x1="-429279" y1="51034.3" x2="-429279" y2="37647.3" gradientUnits="userSpaceOnUse">
<stop stop-color="#808080" stop-opacity="0.25"/>
<stop offset="0.54" stop-color="#808080" stop-opacity="0.12"/>
<stop offset="1" stop-color="#808080" stop-opacity="0.1"/>
</linearGradient>
<clipPath id="clip0">
<rect width="501" height="286" fill="white"/>
</clipPath>
</defs>
</svg>
