<svg width="286" height="265" viewBox="0 0 286 265" fill="none" xmlns="http://www.w3.org/2000/svg">
<g clip-path="url(#clip0)">
<g opacity="0.5">
<path opacity="0.5" d="M199.721 15.947L79.3461 16.2407C78.6964 16.2421 78.0533 16.3717 77.4536 16.6221C76.8539 16.8725 76.3094 17.2388 75.8511 17.7C75.3929 18.1613 75.0299 18.7084 74.7829 19.3102C74.5359 19.9119 74.4097 20.5566 74.4116 21.2072L74.9583 246.653C74.9597 247.304 75.0892 247.947 75.3392 248.548C75.5893 249.148 75.9551 249.694 76.4157 250.153C76.8763 250.611 77.4227 250.975 78.0237 251.222C78.6246 251.47 79.2684 251.596 79.9181 251.594L200.293 251.3C200.943 251.299 201.586 251.169 202.186 250.919C202.786 250.668 203.331 250.301 203.789 249.84C204.248 249.378 204.611 248.831 204.857 248.228C205.104 247.626 205.23 246.981 205.228 246.33L204.681 20.8845C204.679 20.2342 204.549 19.5907 204.299 18.9906C204.049 18.3905 203.683 17.8457 203.222 17.3872C202.762 16.9287 202.215 16.5655 201.615 16.3184C201.014 16.0713 200.37 15.9451 199.721 15.947Z" fill="url(#paint0_linear)"/>
</g>
<path d="M197.977 19.0252L81.1035 19.3112C78.3763 19.3178 76.1709 21.5371 76.1775 24.268L76.7124 243.47C76.7191 246.201 78.9353 248.41 81.6626 248.403L198.536 248.117C201.264 248.111 203.469 245.891 203.462 243.16L202.928 23.9578C202.921 21.2269 200.705 19.0185 197.977 19.0252Z" fill="white"/>
<path opacity="0.4" d="M171.396 24.8325C171.035 27.2624 169.819 29.483 167.965 31.0927C166.112 32.7024 163.745 33.595 161.292 33.609L117.511 33.7141C115.06 33.7097 112.691 32.8278 110.832 31.2277C108.973 29.6275 107.747 27.4145 107.374 24.9883L84.1865 25.0463C83.5541 25.0478 82.9283 25.1739 82.3446 25.4175C81.761 25.6611 81.231 26.0175 80.7849 26.4662C80.3388 26.9149 79.9853 27.4473 79.7447 28.0328C79.504 28.6183 79.3809 29.2455 79.3823 29.8787L79.8855 237.844C79.887 238.477 80.013 239.104 80.2565 239.689C80.5001 240.274 80.8563 240.805 81.3048 241.251C81.7533 241.698 82.2853 242.052 82.8704 242.293C83.4556 242.533 84.0824 242.656 84.715 242.654L195.496 242.386C196.129 242.385 196.754 242.259 197.338 242.015C197.922 241.771 198.452 241.415 198.898 240.966C199.344 240.518 199.697 239.985 199.938 239.4C200.179 238.814 200.302 238.187 200.3 237.554L199.797 29.5887C199.796 28.9555 199.67 28.3288 199.426 27.7444C199.183 27.16 198.827 26.6293 198.379 26.1826C197.931 25.7359 197.399 25.3819 196.815 25.1409C196.23 24.9 195.604 24.7767 194.971 24.7781L171.396 24.8325Z" fill="#5271FF"/>
<path d="M151.8 27.4682L125.006 27.871C124.606 27.877 124.287 28.2064 124.293 28.6068L124.298 28.9258C124.304 29.3262 124.633 29.6459 125.032 29.6398L151.827 29.2371C152.227 29.2311 152.546 28.9016 152.54 28.5013L152.535 28.1823C152.529 27.7819 152.2 27.4622 151.8 27.4682Z" fill="#DBDBDB"/>
<path d="M158.548 29.1326C159.134 29.1238 159.602 28.6411 159.593 28.0546C159.584 27.468 159.102 26.9997 158.516 27.0085C157.93 27.0173 157.463 27.4999 157.472 28.0865C157.48 28.673 157.962 29.1414 158.548 29.1326Z" fill="#DBDBDB"/>
<g opacity="0.5">
<path opacity="0.5" d="M154.612 182.937C154.614 176.75 153.017 170.667 149.975 165.282C146.933 159.897 142.55 155.392 137.253 152.206C131.957 149.02 125.926 147.261 119.75 147.101C113.573 146.942 107.46 148.386 102.006 151.294C96.5521 154.202 91.943 158.474 88.6274 163.695C85.3118 168.916 83.4027 174.908 83.0859 181.087C82.7691 187.266 84.0554 193.422 86.8196 198.955C89.5838 204.489 93.7317 209.211 98.8595 212.663L98.8812 212.823C100.05 213.945 101.43 214.823 102.94 215.408L102.987 215.248C104.663 216.698 111.719 218.993 119.825 218.971H120.002C125.136 218.971 130.711 218.065 135.613 215.408C135.613 215.408 135.656 215.313 135.721 215.136C136.963 214.552 138.102 213.771 139.096 212.823C139.115 212.685 139.134 212.55 139.153 212.417C143.923 209.125 147.821 204.722 150.514 199.586C153.207 194.451 154.613 188.737 154.612 182.937Z" fill="url(#paint1_linear)"/>
</g>
<path d="M118.822 217.702C137.994 217.702 153.537 202.139 153.537 182.941C153.537 163.742 137.994 148.179 118.822 148.179C99.6493 148.179 84.1068 163.742 84.1068 182.941C84.1068 202.139 99.6493 217.702 118.822 217.702Z" fill="#F5F5F5"/>
<path d="M105.561 197.235C105.561 197.235 97.2883 197.913 99.4786 213C100.611 214.091 101.949 214.947 103.414 215.516L108.066 199.75L105.561 197.235Z" fill="#FDA57D"/>
<path d="M132.402 197.235C132.402 197.235 140.674 197.913 138.484 213C137.351 214.091 136.013 214.947 134.548 215.516L129.896 199.743L132.402 197.235Z" fill="#FDA57D"/>
<path d="M105.919 172.507C105.919 172.507 101.984 183.977 99.837 182.89C99.837 182.89 120.552 200.809 138.846 182.89C138.846 182.89 135.624 177.155 130.972 172.497L105.919 172.507Z" fill="#333333"/>
<path d="M119.198 186.841C127.698 186.841 134.588 179.942 134.588 171.431C134.588 162.92 127.698 156.02 119.198 156.02C110.699 156.02 103.808 162.92 103.808 171.431C103.808 179.942 110.699 186.841 119.198 186.841Z" fill="#333333"/>
<path opacity="0.1" d="M132.242 197.235H105.405L102.9 207.987C102.9 207.987 101.43 212.964 103.262 215.154C105.094 217.343 122.189 222.321 134.758 215.516C135.855 212.651 135.982 209.504 135.12 206.559C133.672 201.541 134.758 206.196 134.758 206.196L132.242 197.235Z" fill="black"/>
<path opacity="0.1" d="M132.601 197.235H105.76L103.255 207.987C103.255 207.987 101.785 212.964 103.617 215.154C105.448 217.343 122.544 222.321 135.113 215.516C136.21 212.651 136.337 209.504 135.475 206.559C134.027 201.541 135.113 206.196 135.113 206.196L132.601 197.235Z" fill="black"/>
<path d="M132.402 197.235H105.561L103.055 207.987C103.055 207.987 101.586 212.964 103.417 215.154C105.249 217.343 122.344 222.321 134.914 215.516C136.01 212.651 136.138 209.504 135.276 206.559C133.828 201.541 134.914 206.196 134.914 206.196L132.402 197.235Z" fill="#5271FF"/>
<path opacity="0.1" d="M113.793 188.313H124.538V198.717C124.538 199.186 124.446 199.651 124.267 200.084C124.088 200.517 123.825 200.911 123.494 201.242C123.163 201.574 122.77 201.837 122.337 202.016C121.904 202.196 121.441 202.288 120.972 202.288H117.352C116.406 202.288 115.499 201.912 114.83 201.242C114.162 200.573 113.786 199.664 113.786 198.717V188.313H113.793Z" fill="black"/>
<path d="M113.793 187.918H124.538V198.322C124.538 198.791 124.446 199.255 124.267 199.689C124.088 200.122 123.825 200.516 123.494 200.847C123.163 201.179 122.77 201.442 122.337 201.621C121.904 201.801 121.441 201.893 120.972 201.893H117.352C116.406 201.893 115.499 201.517 114.83 200.847C114.162 200.177 113.786 199.269 113.786 198.322V187.918H113.793Z" fill="#FDA57D"/>
<path opacity="0.1" d="M113.815 189.466C117.276 190.761 121.085 190.771 124.553 189.495V188.175H113.815V189.466Z" fill="black"/>
<path d="M119.198 190.187C127.698 190.187 134.588 183.288 134.588 174.777C134.588 166.266 127.698 159.366 119.198 159.366C110.699 159.366 103.808 166.266 103.808 174.777C103.808 183.288 110.699 190.187 119.198 190.187Z" fill="#FDA57D"/>
<path d="M104.489 168.922H133.835C133.835 168.922 131.33 157.057 120.237 157.815C109.145 158.572 104.489 168.922 104.489 168.922Z" fill="#333333"/>
<path d="M104.131 176.807C104.92 176.807 105.561 175.604 105.561 174.121C105.561 172.637 104.92 171.434 104.131 171.434C103.341 171.434 102.701 172.637 102.701 174.121C102.701 175.604 103.341 176.807 104.131 176.807Z" fill="#FDA57D"/>
<path d="M134.19 176.807C134.98 176.807 135.62 175.604 135.62 174.121C135.62 172.637 134.98 171.434 134.19 171.434C133.4 171.434 132.76 172.637 132.76 174.121C132.76 175.604 133.4 176.807 134.19 176.807Z" fill="#FDA57D"/>
<path opacity="0.1" d="M104.489 169.321H133.835C133.835 169.321 131.33 157.456 120.237 158.213C109.145 158.971 104.489 169.321 104.489 169.321Z" fill="black"/>
<g opacity="0.5">
<path opacity="0.5" d="M125.603 88.3999C125.6 82.2127 127.198 76.1303 130.24 70.7449C133.282 65.3595 137.665 60.8545 142.961 57.6685C148.258 54.4825 154.288 52.724 160.465 52.5642C166.642 52.4044 172.755 53.8488 178.209 56.7567C183.663 59.6647 188.272 63.9371 191.587 69.1581C194.903 74.379 196.812 80.3707 197.129 86.5497C197.446 92.7288 196.159 98.8847 193.395 104.418C190.631 109.952 186.483 114.674 181.355 118.126L181.334 118.286C180.167 119.418 178.788 120.306 177.275 120.9L177.228 120.74C175.552 122.19 168.496 124.485 160.39 124.463H160.213C155.079 124.463 149.504 123.557 144.602 120.9C144.602 120.9 144.559 120.805 144.493 120.628C143.252 120.044 142.112 119.263 141.119 118.315C141.1 118.177 141.081 118.042 141.061 117.909C136.288 114.614 132.387 110.206 129.694 105.065C127.001 99.9246 125.597 94.2051 125.603 88.3999Z" fill="url(#paint2_linear)"/>
</g>
<path d="M161.389 123.165C180.562 123.165 196.104 107.602 196.104 88.4034C196.104 69.205 180.562 53.6416 161.389 53.6416C142.217 53.6416 126.674 69.205 126.674 88.4034C126.674 107.602 142.217 123.165 161.389 123.165Z" fill="#F5F5F5"/>
<path d="M147.781 101.643C147.781 101.643 139.508 102.32 141.699 117.408C142.832 118.497 144.169 119.349 145.634 119.917L150.286 104.151L147.781 101.643Z" fill="#BE7C5E"/>
<path d="M174.618 101.643C174.618 101.643 182.89 102.32 180.7 117.408C179.567 118.497 178.229 119.349 176.765 119.917L172.113 104.151L174.618 101.643Z" fill="#BE7C5E"/>
<path d="M148.135 76.9151C148.135 76.9151 147.498 78.7712 146.597 80.9028C144.627 85.6155 146.876 103.636 151.586 105.554C156.871 107.729 163.822 109.092 171.045 106.457C177.319 104.166 179.256 83.618 174.817 78.6334C174.296 78.0462 173.753 77.4625 173.184 76.897L148.135 76.9151Z" fill="#333333"/>
<path d="M161.415 91.2528C169.914 91.2528 176.805 84.3533 176.805 75.8422C176.805 67.3312 169.914 60.4316 161.415 60.4316C152.915 60.4316 146.025 67.3312 146.025 75.8422C146.025 84.3533 152.915 91.2528 161.415 91.2528Z" fill="#333333"/>
<path opacity="0.1" d="M174.462 101.643H147.621L145.116 112.395C145.116 112.395 143.646 117.372 145.478 119.562C147.31 121.751 164.405 126.729 176.975 119.924C178.071 117.059 178.198 113.912 177.337 110.967C175.889 105.949 176.975 110.604 176.975 110.604L174.462 101.643Z" fill="black"/>
<path opacity="0.1" d="M174.817 101.643H147.976L145.471 112.395C145.471 112.395 144.001 117.372 145.833 119.562C147.665 121.751 164.76 126.729 177.33 119.924C178.426 117.059 178.553 113.912 177.692 110.967C176.243 105.949 177.33 110.604 177.33 110.604L174.817 101.643Z" fill="black"/>
<path d="M174.618 101.643H147.781L145.275 112.395C145.275 112.395 143.806 117.372 145.637 119.562C147.469 121.751 164.564 126.729 177.134 119.924C178.23 117.059 178.358 113.912 177.496 110.967C176.048 105.949 177.134 110.604 177.134 110.604L174.618 101.643Z" fill="#F55F44"/>
<path opacity="0.1" d="M156.01 92.7246H166.747V103.129C166.747 104.076 166.372 104.984 165.703 105.654C165.034 106.323 164.127 106.7 163.181 106.7H159.561C158.615 106.7 157.708 106.323 157.04 105.654C156.371 104.984 155.995 104.076 155.995 103.129V92.7246H156.01Z" fill="black"/>
<path d="M156.01 92.3259H166.747V102.73C166.747 103.677 166.372 104.585 165.703 105.255C165.034 105.925 164.127 106.301 163.181 106.301H159.561C158.615 106.301 157.708 105.925 157.04 105.255C156.371 104.585 155.995 103.677 155.995 102.73V92.3259H156.01Z" fill="#BE7C5E"/>
<path opacity="0.1" d="M156.035 93.8738C159.496 95.1686 163.305 95.1789 166.773 93.9028V92.5833H156.035V93.8738Z" fill="black"/>
<path d="M161.415 94.5954C169.914 94.5954 176.805 87.6958 176.805 79.1848C176.805 70.6737 169.914 63.7742 161.415 63.7742C152.915 63.7742 146.025 70.6737 146.025 79.1848C146.025 87.6958 152.915 94.5954 161.415 94.5954Z" fill="#BE7C5E"/>
<path d="M146.705 73.3335H176.051C176.051 73.3335 173.546 61.4683 162.454 62.226C151.361 62.9836 146.705 73.3335 146.705 73.3335Z" fill="#333333"/>
<path d="M146.347 81.2148C147.137 81.2148 147.777 80.0121 147.777 78.5285C147.777 77.045 147.137 75.8423 146.347 75.8423C145.557 75.8423 144.917 77.045 144.917 78.5285C144.917 80.0121 145.557 81.2148 146.347 81.2148Z" fill="#BE7C5E"/>
<path d="M176.406 81.2148C177.196 81.2148 177.836 80.0121 177.836 78.5285C177.836 77.045 177.196 75.8423 176.406 75.8423C175.616 75.8423 174.976 77.045 174.976 78.5285C174.976 80.0121 175.616 81.2148 176.406 81.2148Z" fill="#BE7C5E"/>
<path opacity="0.1" d="M146.705 73.7322H176.051C176.051 73.7322 173.546 61.867 162.454 62.6246C151.361 63.3823 146.705 73.7322 146.705 73.7322Z" fill="black"/>
<g opacity="0.5">
<path opacity="0.5" d="M1.81015 57.3176V109.056H83.2162C83.2162 109.056 89.2259 120.899 99.5582 124.343C99.5582 124.343 96.2601 115.955 99.703 109.056H122.366V57.3176H1.81015Z" fill="url(#paint3_linear)"/>
</g>
<path d="M5.06842 59.0903V108.03H86.5251C86.5251 108.03 86.5251 117.818 96.3 121.081C96.3 121.081 93.0417 114.555 96.3 108.03H119.108V59.0903H5.06842Z" fill="white"/>
<path d="M80.0086 68.8782H14.8432V75.4035H80.0086V68.8782Z" fill="#5271FF"/>
<path d="M102.816 78.6663H14.8432V85.1916H102.816V78.6663Z" fill="#5271FF"/>
<path d="M93.0417 88.4541H14.8432V94.9794H93.0417V88.4541Z" fill="#5271FF"/>
<g opacity="0.5">
<path opacity="0.5" d="M278.763 157.01V208.748H197.361C197.361 208.748 191.351 220.592 181.015 224.036C181.015 224.036 184.313 215.647 180.87 208.748H158.207V157.01H278.763Z" fill="url(#paint4_linear)"/>
</g>
<path d="M275.505 158.782V207.722H194.048C194.048 207.722 194.048 217.51 184.273 220.773C184.273 220.773 187.531 214.248 184.273 207.722H161.465V158.782H275.505Z" fill="white"/>
<path d="M240.026 168.571H174.86V175.096H240.026V168.571Z" fill="#5271FF"/>
<path d="M262.834 178.358H174.86V184.884H262.834V178.358Z" fill="#5271FF"/>
<path d="M253.059 188.146H174.86V194.672H253.059V188.146Z" fill="#5271FF"/>
<g opacity="0.5">
<path opacity="0.5" d="M31.4966 258.837H30.4105V265H31.4966V258.837Z" fill="#47E6B1"/>
<path opacity="0.5" d="M34.0308 262.462V261.375H27.8763V262.462H34.0308Z" fill="#47E6B1"/>
</g>
<g opacity="0.5">
<path opacity="0.5" d="M230.251 69.6033H229.165V75.766H230.251V69.6033Z" fill="#47E6B1"/>
<path opacity="0.5" d="M232.785 73.2284V72.1409H226.631V73.2284H232.785Z" fill="#47E6B1"/>
</g>
<g opacity="0.5">
<path opacity="0.5" d="M253.421 221.86H252.335V228.023H253.421V221.86Z" fill="#47E6B1"/>
<path opacity="0.5" d="M255.955 225.486V224.398H249.801V225.486H255.955Z" fill="#47E6B1"/>
</g>
<g opacity="0.5">
<path opacity="0.5" d="M184.997 0H183.911V6.16279H184.997V0Z" fill="#47E6B1"/>
<path opacity="0.5" d="M187.531 3.62515V2.5376L181.377 2.5376V3.62515L187.531 3.62515Z" fill="#47E6B1"/>
</g>
<path opacity="0.5" d="M93.6572 258.225C93.3608 258.091 93.1235 257.854 92.9901 257.558C92.8567 257.261 92.8364 256.926 92.9331 256.615C92.9486 256.567 92.9583 256.517 92.9621 256.467C92.9713 256.323 92.934 256.18 92.8557 256.06C92.7775 255.939 92.6624 255.847 92.5277 255.798C92.393 255.748 92.2458 255.743 92.1082 255.784C91.9705 255.825 91.8497 255.909 91.7637 256.024C91.7346 256.065 91.7103 256.109 91.6913 256.155C91.5582 256.451 91.3212 256.689 91.025 256.823C90.7288 256.956 90.394 256.977 90.0839 256.88C90.0357 256.864 89.9859 256.855 89.9355 256.851C89.7922 256.842 89.6498 256.879 89.5294 256.957C89.4091 257.036 89.3172 257.151 89.2676 257.286C89.2179 257.421 89.2131 257.568 89.2539 257.706C89.2947 257.844 89.3788 257.965 89.4938 258.051C89.5343 258.08 89.578 258.104 89.6241 258.123C89.9205 258.257 90.1577 258.494 90.2912 258.79C90.4246 259.087 90.4449 259.422 90.3482 259.733C90.3327 259.781 90.323 259.831 90.3192 259.881C90.31 260.025 90.3473 260.168 90.4256 260.288C90.5038 260.409 90.6189 260.501 90.7536 260.55C90.8883 260.6 91.0355 260.605 91.1731 260.564C91.3108 260.523 91.4316 260.439 91.5176 260.324C91.5467 260.283 91.571 260.239 91.59 260.193C91.7231 259.897 91.9601 259.659 92.2563 259.525C92.5525 259.392 92.8873 259.371 93.1974 259.468C93.2455 259.484 93.2954 259.493 93.3458 259.497C93.4891 259.506 93.6315 259.469 93.7519 259.391C93.8722 259.312 93.9641 259.197 94.0137 259.062C94.0634 258.927 94.0682 258.78 94.0274 258.642C93.9866 258.504 93.9025 258.383 93.7875 258.297C93.747 258.268 93.7033 258.244 93.6572 258.225Z" fill="#4D8AF0"/>
<path opacity="0.5" d="M20.9616 143.18C20.6652 143.046 20.4279 142.809 20.2945 142.512C20.1611 142.216 20.1408 141.881 20.2375 141.57C20.253 141.522 20.2627 141.472 20.2665 141.421C20.2757 141.278 20.2384 141.135 20.1601 141.015C20.0819 140.894 19.9668 140.802 19.8321 140.753C19.6974 140.703 19.5502 140.698 19.4126 140.739C19.2749 140.78 19.1541 140.864 19.0681 140.979C19.039 141.02 19.0147 141.063 18.9957 141.11C18.8626 141.406 18.6256 141.644 18.3294 141.778C18.0332 141.911 17.6984 141.931 17.3883 141.835C17.3402 141.819 17.2903 141.809 17.2399 141.806C17.0966 141.796 16.9542 141.834 16.8338 141.912C16.7135 141.991 16.6216 142.106 16.572 142.241C16.5223 142.376 16.5175 142.523 16.5583 142.661C16.5991 142.799 16.6832 142.92 16.7982 143.006C16.8387 143.035 16.8824 143.059 16.9285 143.078C17.2249 143.211 17.4622 143.449 17.5956 143.745C17.729 144.042 17.7493 144.377 17.6526 144.688C17.6371 144.736 17.6274 144.786 17.6236 144.836C17.6085 144.982 17.6419 145.129 17.7186 145.254C17.7954 145.38 17.9112 145.476 18.0482 145.528C18.1852 145.581 18.3356 145.586 18.4761 145.545C18.6167 145.503 18.7395 145.416 18.8256 145.297C18.8547 145.256 18.879 145.212 18.898 145.166C19.0311 144.869 19.2681 144.632 19.5643 144.498C19.8605 144.365 20.1953 144.344 20.5054 144.441C20.5536 144.457 20.6034 144.466 20.6538 144.47C20.7971 144.479 20.9395 144.442 21.0599 144.364C21.1802 144.285 21.2721 144.17 21.3217 144.035C21.3714 143.9 21.3762 143.753 21.3354 143.615C21.2947 143.477 21.2105 143.356 21.0955 143.27C21.0549 143.234 21.0099 143.204 20.9616 143.18Z" fill="#4D8AF0"/>
<path opacity="0.5" d="M60.4228 174.719C60.1265 174.585 59.8892 174.348 59.7558 174.051C59.6223 173.755 59.6021 173.42 59.6987 173.109C59.7142 173.061 59.7239 173.011 59.7277 172.96C59.7369 172.817 59.6996 172.674 59.6214 172.554C59.5431 172.433 59.428 172.341 59.2933 172.292C59.1586 172.242 59.0115 172.237 58.8738 172.278C58.7361 172.319 58.6153 172.403 58.5294 172.518C58.5003 172.559 58.476 172.603 58.457 172.649C58.3239 172.945 58.0868 173.183 57.7907 173.317C57.4945 173.45 57.1597 173.471 56.8496 173.374C56.8014 173.358 56.7516 173.348 56.7011 173.345C56.5579 173.335 56.4154 173.373 56.2951 173.451C56.1747 173.53 56.0829 173.645 56.0332 173.78C55.9836 173.915 55.9788 174.062 56.0195 174.2C56.0603 174.338 56.1445 174.459 56.2595 174.545C56.2999 174.574 56.3437 174.598 56.3898 174.617C56.6861 174.75 56.9234 174.988 57.0568 175.284C57.1902 175.581 57.2105 175.916 57.1138 176.227C57.0984 176.275 57.0886 176.325 57.0849 176.375C57.0697 176.521 57.1031 176.668 57.1799 176.793C57.2566 176.919 57.3725 177.015 57.5095 177.067C57.6464 177.12 57.7968 177.125 57.9374 177.084C58.0779 177.042 58.2008 176.955 58.2868 176.836C58.3159 176.795 58.3402 176.751 58.3592 176.705C58.4923 176.409 58.7294 176.171 59.0255 176.037C59.3217 175.904 59.6565 175.883 59.9666 175.98C60.0148 175.996 60.0646 176.005 60.1151 176.009C60.2583 176.018 60.4008 175.981 60.5211 175.903C60.6415 175.824 60.7333 175.709 60.783 175.574C60.8326 175.439 60.8374 175.292 60.7966 175.154C60.7559 175.016 60.6717 174.895 60.5567 174.809C60.5161 174.774 60.4711 174.743 60.4228 174.719Z" fill="#4D8AF0"/>
<path opacity="0.5" d="M285.605 260.273C285.309 260.14 285.072 259.902 284.938 259.606C284.805 259.309 284.785 258.974 284.881 258.663C284.897 258.615 284.907 258.565 284.91 258.515C284.92 258.371 284.882 258.229 284.804 258.108C284.726 257.988 284.611 257.896 284.476 257.846C284.341 257.796 284.194 257.791 284.056 257.832C283.919 257.873 283.798 257.957 283.712 258.072C283.683 258.113 283.659 258.157 283.64 258.203C283.506 258.5 283.269 258.737 282.973 258.871C282.677 259.004 282.342 259.025 282.032 258.928C281.984 258.912 281.934 258.903 281.884 258.899C281.74 258.89 281.598 258.927 281.478 259.005C281.357 259.084 281.265 259.199 281.216 259.334C281.166 259.469 281.161 259.616 281.202 259.754C281.243 259.892 281.327 260.013 281.442 260.099C281.483 260.128 281.526 260.152 281.572 260.171C281.869 260.305 282.106 260.542 282.239 260.839C282.373 261.135 282.393 261.47 282.296 261.781C282.281 261.829 282.271 261.879 282.267 261.93C282.252 262.076 282.286 262.223 282.362 262.348C282.439 262.473 282.555 262.569 282.692 262.622C282.829 262.674 282.979 262.68 283.12 262.638C283.261 262.596 283.383 262.509 283.469 262.39C283.499 262.349 283.523 262.306 283.542 262.259C283.675 261.963 283.912 261.725 284.208 261.592C284.504 261.458 284.839 261.438 285.149 261.534C285.197 261.55 285.247 261.56 285.298 261.563C285.441 261.573 285.583 261.535 285.704 261.457C285.824 261.379 285.916 261.263 285.966 261.128C286.015 260.994 286.02 260.846 285.979 260.708C285.939 260.571 285.854 260.45 285.739 260.364C285.699 260.328 285.654 260.297 285.605 260.273Z" fill="#4D8AF0"/>
<path opacity="0.5" d="M2.17218 241.074C3.37184 241.074 4.34436 240.1 4.34436 238.899C4.34436 237.697 3.37184 236.724 2.17218 236.724C0.972518 236.724 0 237.697 0 238.899C0 240.1 0.972518 241.074 2.17218 241.074Z" fill="#F55F44"/>
<path opacity="0.5" d="M247.266 25.3763C248.466 25.3763 249.439 24.4025 249.439 23.2012C249.439 21.9999 248.466 21.0261 247.266 21.0261C246.067 21.0261 245.094 21.9999 245.094 23.2012C245.094 24.4025 246.067 25.3763 247.266 25.3763Z" fill="#4D8AF0"/>
<path opacity="0.5" d="M37.6511 29.7264C38.8508 29.7264 39.8233 28.7526 39.8233 27.5513C39.8233 26.35 38.8508 25.3762 37.6511 25.3762C36.4514 25.3762 35.4789 26.35 35.4789 27.5513C35.4789 28.7526 36.4514 29.7264 37.6511 29.7264Z" fill="#47E6B1"/>
<path opacity="0.5" d="M249.439 127.606C250.638 127.606 251.611 126.632 251.611 125.431C251.611 124.23 250.638 123.256 249.439 123.256C248.239 123.256 247.266 124.23 247.266 125.431C247.266 126.632 248.239 127.606 249.439 127.606Z" fill="#F55F44"/>
</g>
<defs>
<linearGradient id="paint0_linear" x1="88.6127" y1="255.676" x2="191.264" y2="11.9554" gradientUnits="userSpaceOnUse">
<stop stop-color="#808080" stop-opacity="0.25"/>
<stop offset="0.54" stop-color="#808080" stop-opacity="0.12"/>
<stop offset="1" stop-color="#808080" stop-opacity="0.1"/>
</linearGradient>
<linearGradient id="paint1_linear" x1="38246.6" y1="49643.6" x2="38246.6" y2="35389.4" gradientUnits="userSpaceOnUse">
<stop stop-color="#808080" stop-opacity="0.25"/>
<stop offset="0.54" stop-color="#808080" stop-opacity="0.12"/>
<stop offset="1" stop-color="#808080" stop-opacity="0.1"/>
</linearGradient>
<linearGradient id="paint2_linear" x1="42887.1" y1="30816.1" x2="42887.1" y2="16556.1" gradientUnits="userSpaceOnUse">
<stop stop-color="#808080" stop-opacity="0.25"/>
<stop offset="0.54" stop-color="#808080" stop-opacity="0.12"/>
<stop offset="1" stop-color="#808080" stop-opacity="0.1"/>
</linearGradient>
<linearGradient id="paint3_linear" x1="45391.1" y1="28710.8" x2="45391.1" y2="16318.4" gradientUnits="userSpaceOnUse">
<stop stop-color="#808080" stop-opacity="0.25"/>
<stop offset="0.54" stop-color="#808080" stop-opacity="0.12"/>
<stop offset="1" stop-color="#808080" stop-opacity="0.1"/>
</linearGradient>
<linearGradient id="paint4_linear" x1="-398276" y1="47242.6" x2="-398276" y2="34850.2" gradientUnits="userSpaceOnUse">
<stop stop-color="#808080" stop-opacity="0.25"/>
<stop offset="0.54" stop-color="#808080" stop-opacity="0.12"/>
<stop offset="1" stop-color="#808080" stop-opacity="0.1"/>
</linearGradient>
<clipPath id="clip0">
<rect width="286" height="265" fill="white"/>
</clipPath>
</defs>
</svg>
