<svg width="322" height="234" viewBox="0 0 322 234" fill="none" xmlns="http://www.w3.org/2000/svg">
<path d="M59.3746 128.07C61.4628 128.07 63.1555 126.375 63.1555 124.284C63.1555 122.193 61.4628 120.498 59.3746 120.498C57.2865 120.498 55.5938 122.193 55.5938 124.284C55.5938 126.375 57.2865 128.07 59.3746 128.07Z" fill="#5271FF"/>
<path d="M75.9523 159.228C78.0404 159.228 79.7332 157.533 79.7332 155.442C79.7332 153.352 78.0404 151.657 75.9523 151.657C73.8641 151.657 72.1714 153.352 72.1714 155.442C72.1714 157.533 73.8641 159.228 75.9523 159.228Z" fill="#5271FF"/>
<path d="M63.1554 151.366C65.2435 151.366 66.9363 149.671 66.9363 147.58C66.9363 145.489 65.2435 143.794 63.1554 143.794C61.0673 143.794 59.3745 145.489 59.3745 147.58C59.3745 149.671 61.0673 151.366 63.1554 151.366Z" fill="#5271FF"/>
<path d="M214.476 218.633H150.121C150.121 218.633 148.817 199.477 156.535 199.259C164.253 199.041 163.383 207.749 173.058 195.776C182.733 183.803 194.474 184.456 195.996 191.531C197.518 198.606 193.061 204.266 201.214 202.524C209.367 200.783 221.107 205.354 214.476 218.633Z" fill="#5271FF"/>
<path d="M181.212 218.638L180.995 218.629C181.501 206.016 184.14 197.913 186.264 193.336C188.57 188.366 190.792 186.354 190.814 186.334L190.959 186.497C190.937 186.516 188.74 188.508 186.453 193.445C184.34 198.002 181.717 206.073 181.212 218.638Z" fill="#F2F2F2"/>
<path d="M204.504 218.664L204.295 218.603C206.808 209.966 212.726 204.512 212.786 204.458L212.932 204.62C209.006 208.531 206.11 213.357 204.504 218.664V218.664Z" fill="#F2F2F2"/>
<path d="M160.257 218.648L160.042 218.618C160.743 213.89 160.001 209.059 157.912 204.76C157.055 202.957 155.921 201.3 154.551 199.849L154.701 199.692C156.089 201.161 157.238 202.838 158.107 204.664C160.215 209.002 160.965 213.876 160.257 218.648V218.648Z" fill="#F2F2F2"/>
<path d="M223.21 218.924H143.179L143.161 218.653C143.115 217.978 142.094 202.05 147.248 196.367C147.76 195.766 148.391 195.28 149.102 194.939C149.812 194.597 150.586 194.409 151.374 194.385C154.734 194.289 156.845 195.549 158.548 196.561C161.758 198.467 163.878 199.727 171.588 190.186C179.941 179.85 188.952 177.626 194.133 178.862C197.48 179.662 199.787 181.92 200.462 185.059C201.102 188.031 200.898 190.823 200.734 193.067C200.559 195.468 200.421 197.364 201.406 198.224C202.228 198.941 203.869 199.006 206.57 198.429C212.063 197.255 219.728 198.259 223.575 203.237C225.645 205.914 227.276 210.782 223.29 218.763L223.21 218.924ZM143.726 218.342H222.85C225.82 212.308 225.912 207.211 223.115 203.593C219.586 199.027 212.181 197.825 206.691 198.998C203.757 199.625 202.008 199.522 201.024 198.663C199.82 197.612 199.967 195.588 200.154 193.025C200.315 190.818 200.515 188.072 199.894 185.181C199.268 182.271 197.119 180.174 193.998 179.429C188.983 178.231 180.223 180.427 172.041 190.552C164.015 200.484 161.597 199.049 158.251 197.062C156.527 196.038 154.57 194.877 151.39 194.967C150.681 194.99 149.985 195.161 149.345 195.469C148.706 195.778 148.139 196.217 147.679 196.758C143.047 201.866 143.612 216.189 143.726 218.342Z" fill="#CFCCE0"/>
<path d="M238.937 218.559H124.132V219.142H238.937V218.559Z" fill="#CFCCE0"/>
<path d="M116.82 156.718C116.922 157.426 116.926 158.145 116.832 158.854C116.812 159.015 116.788 159.172 116.759 159.329L116.759 159.33C116.422 161.008 115.748 162.599 114.778 164.009C114.715 164.1 114.679 164.148 114.679 164.148L114.543 164.044C113.466 163.183 112.532 162.157 111.776 161.003C111.71 160.898 111.643 160.793 111.58 160.684C111.018 159.765 110.639 158.747 110.465 157.684L110.462 157.668C110.445 157.555 110.431 157.442 110.42 157.329C110.332 156.336 110.417 155.335 110.672 154.371C110.702 154.251 110.734 154.133 110.768 154.016C111.155 152.721 111.741 151.493 112.504 150.377C112.567 150.286 112.604 150.238 112.604 150.238C112.604 150.238 112.652 150.273 112.739 150.342C113.786 151.179 114.698 152.171 115.442 153.286C115.508 153.385 115.572 153.487 115.636 153.59C116.072 154.293 116.408 155.052 116.635 155.848C116.673 155.986 116.708 156.128 116.737 156.271C116.77 156.418 116.797 156.567 116.82 156.718Z" fill="#CFCCE0"/>
<path d="M152.088 171.452C152.546 172.001 152.926 172.611 153.218 173.264C153.286 173.411 153.347 173.559 153.405 173.707L153.406 173.708C153.998 175.313 154.258 177.022 154.172 178.732C154.165 178.843 154.16 178.902 154.16 178.902L153.99 178.885C152.622 178.718 151.289 178.335 150.04 177.75C149.929 177.696 149.817 177.641 149.707 177.581C148.747 177.095 147.89 176.427 147.185 175.614L147.175 175.602C147.101 175.514 147.029 175.425 146.961 175.335C146.365 174.536 145.913 173.639 145.625 172.685C145.588 172.567 145.553 172.449 145.521 172.332C145.172 171.026 145.027 169.673 145.091 168.322C145.098 168.211 145.103 168.152 145.103 168.152C145.103 168.152 145.163 168.156 145.273 168.169C146.603 168.331 147.899 168.697 149.117 169.254C149.225 169.305 149.333 169.357 149.442 169.412C150.181 169.781 150.865 170.251 151.475 170.809C151.58 170.907 151.684 171.009 151.784 171.115C151.889 171.223 151.99 171.335 152.088 171.452Z" fill="#CFCCE0"/>
<path d="M157.348 103.675L155.888 128.032C155.888 128.032 151.023 141.672 157.348 141.672C163.673 141.672 159.781 127.058 159.781 127.058L165.619 103.188L157.348 103.675Z" fill="#FFB9B9"/>
<path d="M204.542 100.752L206.001 125.109C206.001 125.109 210.867 138.749 204.542 138.749C198.217 138.749 202.109 124.135 202.109 124.135L196.271 100.265L204.542 100.752Z" fill="#FFB9B9"/>
<path d="M175.349 204.026L176.322 216.205C176.322 216.205 172.43 225.947 178.755 226.922C178.818 226.932 178.881 226.941 178.943 226.95C179.727 227.058 180.526 226.978 181.274 226.718C182.021 226.458 182.697 226.025 183.246 225.453C183.794 224.882 184.2 224.188 184.429 223.43C184.659 222.671 184.706 221.869 184.567 221.089L183.621 215.717C183.621 215.717 184.107 205.975 181.188 204.026C178.269 202.077 175.349 204.026 175.349 204.026Z" fill="#2F2E41"/>
<path d="M184.594 193.309C184.594 193.309 183.621 196.232 184.107 199.155C184.594 202.078 185.08 210.359 185.08 210.359C185.08 210.359 185.08 219.127 188.486 219.127C189.702 219.127 190.732 218.071 191.554 216.713C192.405 215.273 192.954 213.674 193.169 212.015C193.385 210.356 193.261 208.67 192.807 207.06L190.919 200.129V194.77L184.594 193.309Z" fill="#2F2E41"/>
<path d="M166.592 104.162C166.592 104.162 155.888 118.289 161.727 139.236C167.565 160.183 168.052 166.029 168.052 166.029L171.457 205.975C171.457 205.975 177.296 207.923 182.161 205L180.702 166.516V143.133L183.621 168.952V194.77C183.621 194.77 190.432 201.59 195.298 195.258L196.271 166.516C196.271 166.516 199.19 126.571 197.244 122.673C195.298 118.776 190.919 105.136 190.919 105.136L166.592 104.162Z" fill="#2F2E41"/>
<path d="M176.281 38.4333C176.281 38.4333 171.334 36.6639 168.153 43.7413C164.972 50.8186 160.024 58.6037 160.024 58.6037L162.851 59.3114C162.851 59.3114 163.558 54.3573 165.325 53.6496L164.618 60.0192C164.618 60.0192 185.824 67.4504 195.366 59.3114L195.013 56.8344C195.013 56.8344 196.427 57.1882 196.427 59.3114L197.487 58.2498C197.487 58.2498 196.427 56.1266 193.246 53.2957C191.158 51.4376 190.441 47.9026 190.194 45.6924C190.009 43.8469 189.272 42.1004 188.078 40.6819C185.965 38.229 182.113 35.622 176.281 38.4333Z" fill="#2F2E41"/>
<path d="M178.755 61.7806C183.861 61.7806 188 57.6367 188 52.5249C188 47.4131 183.861 43.2692 178.755 43.2692C173.65 43.2692 169.511 47.4131 169.511 52.5249C169.511 57.6367 173.65 61.7806 178.755 61.7806Z" fill="#FFB9B9"/>
<path d="M176.323 58.3706L173.404 70.062L182.161 95.3934L188.973 68.6006C188.973 68.6006 182.648 64.2163 184.107 58.3706L176.323 58.3706Z" fill="#FFB9B9"/>
<path d="M200.163 125.109C200.163 125.109 186.053 130.468 183.134 122.186C180.215 113.905 180.702 107.572 180.702 107.572C180.702 107.572 176.323 124.622 169.025 124.622C161.727 124.622 157.834 122.186 157.834 122.186C157.834 122.186 163.186 105.136 168.052 102.213C168.052 102.213 168.076 102.155 168.12 102.048C168.392 101.366 169.356 98.6621 168.679 96.2849C168.542 95.7958 168.33 95.3308 168.052 94.9063C166.106 91.9834 164.159 91.0091 164.646 83.702L160.754 70.062L174.177 66.9638L181.188 89.0606L187.571 67.4266L199.19 69.0877C199.19 69.0877 200.163 86.6249 195.298 92.9577C194.533 93.9553 193.952 95.0822 193.585 96.2849C192.738 98.9739 192.938 101.804 193.395 104.065H193.4C193.706 105.606 194.179 107.108 194.811 108.546L200.163 125.109Z" fill="#CFCCE0"/>
<path d="M196.271 69.5749L199.19 69.0878C199.19 69.0878 200.406 68.8442 202.596 70.5492C205.392 72.7265 205.515 102.213 205.515 102.213L196.271 102.701V69.5749Z" fill="#CFCCE0"/>
<path d="M163.186 71.0363L160.754 70.0621C160.754 70.0621 159.78 69.5749 159.294 72.4978C158.807 75.4206 156.375 105.623 156.375 105.623L166.592 105.136V83.2149L163.186 71.0363Z" fill="#CFCCE0"/>
<path d="M168.063 53.8724C168.063 53.8724 170.891 49.9799 173.365 49.2722C175.839 48.5644 176.192 45.0258 176.192 45.0258C176.192 45.0258 182.554 52.1031 186.441 52.457C190.329 52.8108 186.795 43.9642 186.795 43.9642L179.726 42.1948L173.011 42.9026L167.71 46.4412L168.063 53.8724Z" fill="#2F2E41"/>
<path d="M181.431 101.97C183.043 101.97 184.35 100.661 184.35 99.0469C184.35 97.4327 183.043 96.1241 181.431 96.1241C179.819 96.1241 178.512 97.4327 178.512 99.0469C178.512 100.661 179.819 101.97 181.431 101.97Z" fill="#2F2E41"/>
<path d="M231.619 57.5703C229.099 50.463 229.206 42.6869 231.921 35.652C234.636 28.6171 239.779 22.7893 246.417 19.2254C253.056 15.6615 260.75 14.5976 268.104 16.2265C275.459 17.8553 281.987 22.0692 286.505 28.1039C291.023 34.1387 293.231 41.5946 292.729 49.1197C292.228 56.6448 289.049 63.7407 283.771 69.1207C278.492 74.5007 271.462 77.8084 263.957 78.4441C256.451 79.0799 248.966 77.0014 242.86 72.5858C242.017 74.0461 240.825 75.2742 239.391 76.1603C237.958 77.0463 236.327 77.5626 234.645 77.6629C232.964 77.7632 231.283 77.4444 229.755 76.735C228.226 76.0257 226.897 74.9479 225.887 73.5981C224.876 72.2484 224.216 70.6689 223.965 69.0009C223.714 67.3329 223.879 65.6286 224.447 64.0405C225.015 62.4525 225.968 61.0302 227.219 59.901C228.471 58.7718 229.982 57.971 231.619 57.5703V57.5703Z" fill="#5271FF"/>
<path d="M249.456 49.3719C251.469 49.3719 253.101 47.7379 253.101 45.7223C253.101 43.7066 251.469 42.0726 249.456 42.0726C247.443 42.0726 245.811 43.7066 245.811 45.7223C245.811 47.7379 247.443 49.3719 249.456 49.3719Z" fill="#CFCCE0"/>
<path d="M261.892 49.3719C263.905 49.3719 265.537 47.7379 265.537 45.7223C265.537 43.7066 263.905 42.0726 261.892 42.0726C259.879 42.0726 258.247 43.7066 258.247 45.7223C258.247 47.7379 259.879 49.3719 261.892 49.3719Z" fill="#CFCCE0"/>
<path d="M274.328 49.3719C276.341 49.3719 277.973 47.7379 277.973 45.7223C277.973 43.7066 276.341 42.0726 274.328 42.0726C272.315 42.0726 270.683 43.7066 270.683 45.7223C270.683 47.7379 272.315 49.3719 274.328 49.3719Z" fill="#CFCCE0"/>
<path d="M228.503 71.3216C226.168 70.7221 224.097 69.367 222.611 67.4671C221.125 65.5672 220.307 63.2289 220.286 60.8159C220.264 58.4028 221.039 56.0501 222.49 54.1235C223.942 52.197 225.988 50.8046 228.312 50.1628C225.736 42.6732 225.916 34.5087 228.82 27.1404C231.724 19.7721 237.161 13.6845 244.151 9.97442C251.141 6.26433 259.224 5.17571 266.945 6.9047C274.665 8.63369 281.515 13.0666 286.261 19.4047C291.006 25.7429 293.334 33.5695 292.827 41.4744C292.319 49.3793 289.008 56.8427 283.491 62.5199C277.974 68.1972 270.613 71.7149 262.735 72.4393C254.856 73.1637 246.979 71.0472 240.521 66.471C239.292 68.4527 237.465 69.9911 235.304 70.8632C233.143 71.7353 230.761 71.8959 228.503 71.3216V71.3216ZM267.861 7.61168C262.12 6.13814 256.086 6.25603 250.407 7.95272C244.727 9.64941 239.615 12.861 235.619 17.2435C231.623 21.6261 228.892 27.0145 227.72 32.8317C226.548 38.6489 226.978 44.6757 228.965 50.2668L229.073 50.5706L228.76 50.6475C227.097 51.0546 225.561 51.8682 224.289 53.0155C223.017 54.1628 222.05 55.6079 221.472 57.2216C220.895 58.8353 220.727 60.5671 220.982 62.262C221.237 63.957 221.908 65.562 222.935 66.9336C223.962 68.3051 225.312 69.4004 226.865 70.1212C228.418 70.842 230.126 71.1659 231.835 71.064C233.544 70.962 235.201 70.4374 236.657 69.537C238.114 68.6365 239.325 67.3885 240.182 65.9046L240.343 65.625L240.604 65.8141C244.499 68.6326 248.968 70.556 253.691 71.447C258.414 72.338 263.275 72.1747 267.928 70.9688C272.581 69.7629 276.911 67.5441 280.609 64.4705C284.307 61.397 287.282 57.5444 289.323 53.1874C291.363 48.8304 292.419 44.0764 292.414 39.2642C292.408 34.452 291.343 29.7002 289.293 25.3476C287.244 20.9949 284.26 17.1487 280.556 14.083C276.851 11.0173 272.516 8.80768 267.861 7.61168V7.61168Z" fill="#CFCCE0"/>
<path d="M64.3613 201.313C64.2945 201.204 62.7208 198.573 62.1752 193.109C61.6747 188.097 61.9965 179.648 66.3727 167.863C74.6633 145.536 64.4621 127.522 64.3579 127.342L64.8612 127.05C64.8876 127.095 67.5199 131.688 69.0749 139.002C71.1296 148.698 70.3814 158.78 66.918 168.066C58.6417 190.354 64.7947 200.905 64.8578 201.01L64.3613 201.313Z" fill="#CFCCE0"/>
<path d="M61.1196 126.322C60.3143 126.322 59.527 126.083 58.8574 125.635C58.1879 125.187 57.666 124.551 57.3578 123.806C57.0496 123.061 56.969 122.241 57.1261 121.45C57.2832 120.659 57.671 119.933 58.2404 119.363C58.8099 118.793 59.5354 118.404 60.3252 118.247C61.1151 118.09 61.9338 118.17 62.6778 118.479C63.4218 118.788 64.0577 119.31 64.5051 119.981C64.9525 120.651 65.1913 121.439 65.1913 122.246C65.1901 123.326 64.7607 124.363 63.9974 125.127C63.2341 125.891 62.1991 126.321 61.1196 126.322V126.322ZM61.1196 118.751C60.4293 118.751 59.7545 118.956 59.1806 119.34C58.6067 119.724 58.1593 120.27 57.8952 120.908C57.631 121.547 57.5619 122.249 57.6966 122.927C57.8313 123.605 58.1636 124.228 58.6517 124.716C59.1398 125.205 59.7617 125.538 60.4387 125.673C61.1157 125.808 61.8174 125.738 62.4552 125.474C63.0929 125.209 63.638 124.762 64.0215 124.187C64.4049 123.612 64.6096 122.937 64.6096 122.246C64.6086 121.319 64.2405 120.431 63.5863 119.776C62.932 119.121 62.0449 118.752 61.1196 118.751Z" fill="#CFCCE0"/>
<path d="M73.0441 140.009C75.1322 140.009 76.825 138.314 76.825 136.223C76.825 134.132 75.1322 132.438 73.0441 132.438C70.9559 132.438 69.2632 134.132 69.2632 136.223C69.2632 138.314 70.9559 140.009 73.0441 140.009Z" fill="#CFCCE0"/>
<path d="M64.9003 149.618C64.095 149.618 63.3078 149.379 62.6382 148.931C61.9686 148.483 61.4467 147.847 61.1386 147.102C60.8304 146.357 60.7497 145.537 60.9069 144.746C61.064 143.956 61.4518 143.229 62.0212 142.659C62.5906 142.089 63.3161 141.7 64.106 141.543C64.8958 141.386 65.7145 141.467 66.4585 141.775C67.2025 142.084 67.8384 142.606 68.2859 143.277C68.7333 143.947 68.9721 144.735 68.9721 145.542C68.9709 146.623 68.5415 147.659 67.7781 148.423C67.0148 149.187 65.9799 149.617 64.9003 149.618V149.618ZM64.9003 142.047C64.2101 142.047 63.5353 142.252 62.9614 142.636C62.3874 143.02 61.9401 143.566 61.676 144.204C61.4118 144.843 61.3427 145.546 61.4774 146.223C61.612 146.901 61.9444 147.524 62.4325 148.013C62.9206 148.501 63.5425 148.834 64.2195 148.969C64.8965 149.104 65.5982 149.035 66.2359 148.77C66.8736 148.506 67.4187 148.058 67.8022 147.483C68.1857 146.908 68.3904 146.233 68.3904 145.542C68.3894 144.615 68.0213 143.727 67.367 143.072C66.7127 142.417 65.8256 142.048 64.9003 142.047Z" fill="#CFCCE0"/>
<path d="M74.789 157.481C73.9837 157.481 73.1965 157.242 72.5269 156.794C71.8573 156.346 71.3354 155.709 71.0272 154.964C70.719 154.219 70.6384 153.4 70.7955 152.609C70.9526 151.818 71.3404 151.092 71.9099 150.521C72.4793 149.951 73.2048 149.563 73.9947 149.406C74.7845 149.248 75.6032 149.329 76.3472 149.638C77.0912 149.946 77.7271 150.469 78.1745 151.139C78.6219 151.81 78.8607 152.598 78.8607 153.404C78.8595 154.485 78.4302 155.521 77.6668 156.286C76.9035 157.05 75.8685 157.48 74.789 157.481V157.481ZM74.789 149.91C74.0987 149.91 73.424 150.115 72.85 150.499C72.2761 150.883 71.8288 151.428 71.5646 152.067C71.3005 152.705 71.2314 153.408 71.366 154.086C71.5007 154.764 71.8331 155.386 72.3212 155.875C72.8093 156.364 73.4311 156.697 74.1081 156.831C74.7851 156.966 75.4869 156.897 76.1246 156.633C76.7623 156.368 77.3074 155.92 77.6909 155.346C78.0744 154.771 78.2791 154.095 78.2791 153.404C78.278 152.478 77.91 151.589 77.2557 150.934C76.6014 150.279 75.7143 149.911 74.789 149.91V149.91Z" fill="#CFCCE0"/>
<path d="M217.59 188.057C219.678 188.057 221.371 186.362 221.371 184.271C221.371 182.181 219.678 180.486 217.59 180.486C215.502 180.486 213.809 182.181 213.809 184.271C213.809 186.362 215.502 188.057 217.59 188.057Z" fill="#5271FF"/>
<path d="M216.427 186.31C215.622 186.31 214.834 186.071 214.165 185.623C213.495 185.175 212.973 184.538 212.665 183.793C212.357 183.048 212.276 182.228 212.433 181.438C212.591 180.647 212.978 179.92 213.548 179.35C214.117 178.78 214.843 178.392 215.633 178.235C216.422 178.077 217.241 178.158 217.985 178.467C218.729 178.775 219.365 179.298 219.813 179.968C220.26 180.638 220.499 181.427 220.499 182.233C220.498 183.314 220.068 184.35 219.305 185.114C218.541 185.879 217.506 186.309 216.427 186.31V186.31ZM216.427 178.739C215.737 178.739 215.062 178.944 214.488 179.328C213.914 179.711 213.467 180.257 213.203 180.896C212.938 181.534 212.869 182.237 213.004 182.915C213.139 183.593 213.471 184.215 213.959 184.704C214.447 185.193 215.069 185.525 215.746 185.66C216.423 185.795 217.125 185.726 217.763 185.461C218.4 185.197 218.945 184.749 219.329 184.174C219.712 183.6 219.917 182.924 219.917 182.233C219.916 181.307 219.548 180.418 218.894 179.763C218.239 179.108 217.352 178.74 216.427 178.739Z" fill="#CFCCE0"/>
<path d="M109.69 209.315C111.778 209.315 113.47 207.62 113.47 205.529C113.47 203.438 111.778 201.743 109.69 201.743C107.601 201.743 105.909 203.438 105.909 205.529C105.909 207.62 107.601 209.315 109.69 209.315Z" fill="#5271FF"/>
<path d="M108.526 207.568C107.721 207.568 106.934 207.328 106.264 206.88C105.595 206.433 105.073 205.796 104.765 205.051C104.456 204.306 104.376 203.486 104.533 202.695C104.69 201.905 105.078 201.178 105.647 200.608C106.217 200.038 106.942 199.65 107.732 199.492C108.522 199.335 109.34 199.416 110.085 199.724C110.829 200.033 111.464 200.555 111.912 201.226C112.359 201.896 112.598 202.684 112.598 203.491C112.597 204.572 112.167 205.608 111.404 206.372C110.641 207.136 109.606 207.566 108.526 207.568V207.568ZM108.526 199.996C107.836 199.996 107.161 200.201 106.587 200.585C106.013 200.969 105.566 201.515 105.302 202.153C105.038 202.792 104.969 203.495 105.103 204.172C105.238 204.85 105.57 205.473 106.058 205.962C106.547 206.45 107.168 206.783 107.845 206.918C108.522 207.053 109.224 206.984 109.862 206.719C110.5 206.455 111.045 206.007 111.428 205.432C111.812 204.857 112.016 204.182 112.016 203.491C112.015 202.564 111.647 201.676 110.993 201.021C110.339 200.366 109.452 199.997 108.526 199.996Z" fill="#CFCCE0"/>
<path d="M61.9923 169.42C64.0804 169.42 65.7732 167.725 65.7732 165.634C65.7732 163.544 64.0804 161.849 61.9923 161.849C59.9042 161.849 58.2114 163.544 58.2114 165.634C58.2114 167.725 59.9042 169.42 61.9923 169.42Z" fill="#CFCCE0"/>
<path d="M66.6455 201.452C66.6455 201.452 62.8646 192.134 74.2072 185.145L66.6455 201.452Z" fill="#CFCCE0"/>
<path d="M61.9953 201.283C61.9953 201.283 60.2746 191.374 46.9565 191.459L61.9953 201.283Z" fill="#CFCCE0"/>
<path d="M91.0759 200.87H30V201.452H91.0759V200.87Z" fill="#CFCCE0"/>
</svg>
