<svg width="322" height="234" viewBox="0 0 322 234" fill="none" xmlns="http://www.w3.org/2000/svg">
<path opacity="0.1" d="M50.7592 34.5256C49.0415 35.237 47.2785 36.1501 46.3345 37.7508C45.3347 39.4416 45.4543 41.5413 45.6405 43.4976C47.2625 60.4648 51.5357 78.5097 44.1567 93.879C40.5748 101.335 34.5839 107.31 29.8187 114.082C25.0536 120.853 21.4558 129.308 23.6682 137.274C26.3699 147.008 36.4532 152.404 43.2499 159.895C47.6986 164.792 50.8177 170.744 54.9686 175.896C59.1195 181.048 64.8073 185.587 71.4339 185.89C80.9641 186.328 88.7181 178.112 98.0622 176.209C107.635 174.261 117.274 179.219 125.036 185.155C132.798 191.09 139.858 198.281 148.902 201.986C158.889 206.082 170.148 205.456 180.662 207.916C190.235 210.159 199.047 214.93 208.551 217.472C218.055 220.015 229.194 219.861 236.557 213.366C246.154 204.872 245.398 189.741 251.528 178.505C257.221 168.065 268.365 161.833 275.866 152.603C289.364 135.992 288.923 110.602 277.462 92.5358C266.001 74.4697 245.241 63.5307 224.014 60.6825C214.441 59.4004 204.584 59.5756 195.38 56.6584C170.746 48.8543 156.087 20.8924 130.937 15.0739C114.95 11.3815 99.4024 17.7761 85.7851 25.6465C73.9653 32.479 63.0603 29.4317 50.7592 34.5256Z" fill="#5271FF"/>
<path d="M74.7658 89.3397C74.7658 89.3397 65.6902 97.8897 55.9499 98.1445C51.8597 98.2258 47.9062 99.6295 44.6832 102.145C43.1598 103.347 41.7499 104.686 40.4712 106.145" stroke="#535461" stroke-width="2" stroke-miterlimit="10"/>
<path d="M34.3285 106.355C35.6368 105.691 40.6306 106.132 40.6306 106.132C40.6306 106.132 38.0407 110.419 36.7324 111.082C36.4191 111.268 36.0709 111.387 35.7095 111.432C35.3482 111.478 34.9813 111.449 34.6316 111.347C34.2819 111.245 33.957 111.073 33.6768 110.84C33.3967 110.608 33.1674 110.321 33.0031 109.996C32.8388 109.672 32.7431 109.317 32.7218 108.954C32.7006 108.591 32.7542 108.227 32.8795 107.886C33.0048 107.545 33.199 107.232 33.4501 106.969C33.7012 106.706 34.0038 106.497 34.3392 106.355H34.3285Z" fill="#5271FF"/>
<path d="M39.5857 98.7763C41.0456 98.9302 44.997 102.009 44.997 102.009C44.997 102.009 40.4765 104.202 39.0299 104.051C38.3532 103.949 37.7419 103.59 37.3233 103.049C36.9047 102.509 36.7111 101.828 36.7827 101.148C36.8543 100.469 37.1856 99.843 37.7077 99.4012C38.2298 98.9594 38.9025 98.7355 39.5857 98.7763V98.7763Z" fill="#5271FF"/>
<path d="M52.0517 92.6684C53.2323 93.5364 55.0884 98.187 55.0884 98.187C55.0884 98.187 50.0866 97.8074 48.906 96.9421C48.3738 96.5129 48.0278 95.8954 47.94 95.2182C47.8521 94.5409 48.0292 93.8559 48.4343 93.3055C48.8393 92.7552 49.4413 92.3819 50.1151 92.2632C50.7888 92.1446 51.4824 92.2897 52.0517 92.6684V92.6684Z" fill="#5271FF"/>
<path d="M62.5255 90.1706C63.8364 90.8262 66.453 95.0972 66.453 95.0972C66.453 95.0972 61.4592 95.567 60.1482 94.9114C59.8175 94.7672 59.5196 94.5573 59.2727 94.2945C59.0258 94.0317 58.8351 93.7215 58.7122 93.3827C58.5893 93.044 58.5367 92.6838 58.5577 92.3241C58.5788 91.9644 58.6729 91.6128 58.8345 91.2906C58.996 90.9684 59.2216 90.6825 59.4975 90.4501C59.7733 90.2177 60.0936 90.0439 60.4389 89.9391C60.7843 89.8343 61.1474 89.8008 61.5061 89.8406C61.8648 89.8804 62.2116 89.9927 62.5255 90.1706V90.1706Z" fill="#5271FF"/>
<path d="M47.7754 106.843C48.2115 105.444 46.9351 100.603 46.9351 100.603C46.9351 100.603 43.1379 103.873 42.7018 105.272C42.5789 105.609 42.526 105.968 42.5462 106.327C42.5664 106.686 42.6593 107.037 42.8193 107.358C42.9792 107.68 43.203 107.966 43.477 108.199C43.7509 108.432 44.0694 108.607 44.4131 108.713C44.7568 108.82 45.1186 108.856 45.4765 108.818C45.8344 108.781 46.1811 108.672 46.4954 108.497C46.8098 108.322 47.0853 108.085 47.3053 107.801C47.5253 107.517 47.6853 107.191 47.7754 106.843V106.843Z" fill="#5271FF"/>
<path d="M59.9892 103.756C59.9892 102.291 57.3168 98.0543 57.3168 98.0543C57.3168 98.0543 54.6736 102.301 54.6763 103.772C54.6784 104.476 54.9606 105.15 55.4607 105.647C55.9609 106.143 56.6381 106.421 57.3434 106.418C58.0486 106.416 58.7241 106.135 59.2213 105.635C59.7185 105.136 59.9966 104.46 59.9945 103.756H59.9892Z" fill="#5271FF"/>
<path d="M71.447 99.1479C71.6916 97.7039 69.7771 93.0771 69.7771 93.0771C69.7771 93.0771 66.4505 96.8252 66.2085 98.2693C66.1268 98.9467 66.3096 99.6296 66.7189 100.176C67.1282 100.723 67.7326 101.091 68.4067 101.204C69.0807 101.318 69.7726 101.167 70.3388 100.785C70.9049 100.403 71.3018 99.8173 71.447 99.1505V99.1479Z" fill="#5271FF"/>
<path d="M86.5591 66.6973C86.5591 66.6973 75.6274 60.7036 72.378 51.5219C71.043 47.6609 68.4892 44.3366 65.1 42.0482C63.4827 40.9739 61.7702 40.0498 59.9839 39.2875" stroke="#535461" stroke-width="2" stroke-miterlimit="10"/>
<path d="M57.9095 33.5142C58.9439 34.5521 60.0581 39.4336 60.0581 39.4336C60.0581 39.4336 55.176 38.2922 54.1416 37.2516C53.6848 36.7452 53.4406 36.0829 53.4595 35.4017C53.4785 34.7205 53.7591 34.0727 54.2433 33.5924C54.7276 33.1121 55.3783 32.8361 56.0608 32.8215C56.7432 32.807 57.4052 33.055 57.9095 33.5142V33.5142Z" fill="#5271FF"/>
<path d="M66.7508 36.1765C67.054 37.6099 65.3335 42.311 65.3335 42.311C65.3335 42.311 61.8581 38.7036 61.5549 37.2675C61.4649 36.9202 61.4464 36.5583 61.5005 36.2037C61.5545 35.849 61.68 35.509 61.8694 35.2041C62.0587 34.8992 62.308 34.6358 62.6022 34.4298C62.8964 34.2238 63.2294 34.0794 63.581 34.0055C63.9326 33.9315 64.2956 33.9294 64.6481 33.9994C65.0005 34.0694 65.3351 34.21 65.6316 34.4126C65.9281 34.6153 66.1804 34.8759 66.3732 35.1786C66.566 35.4813 66.6954 35.8199 66.7535 36.1739L66.7508 36.1765Z" fill="#5271FF"/>
<path d="M76.4037 46.1546C75.9411 47.5429 72.0774 50.7362 72.0774 50.7362C72.0774 50.7362 70.902 45.8706 71.3647 44.4796C71.5872 43.8108 72.0668 43.2577 72.6978 42.9418C73.3289 42.626 74.0599 42.5733 74.7298 42.7954C75.3998 43.0175 75.954 43.4962 76.2704 44.1262C76.5868 44.7562 76.6395 45.4858 76.417 46.1546H76.4037Z" fill="#5271FF"/>
<path d="M82.0091 55.3257C81.7884 56.7724 78.5204 60.5709 78.5204 60.5709C78.5204 60.5709 76.5367 55.9734 76.7574 54.5267C76.7941 54.1692 76.9033 53.8228 77.0781 53.5086C77.253 53.1945 77.4899 52.919 77.7746 52.699C78.0593 52.4789 78.3858 52.3189 78.7343 52.2286C79.0827 52.1382 79.446 52.1195 79.8019 52.1735C80.1579 52.2274 80.4991 52.353 80.805 52.5426C81.1109 52.7321 81.3751 52.9817 81.5815 53.2762C81.7878 53.5707 81.9322 53.904 82.0057 54.2558C82.0792 54.6077 82.0804 54.9707 82.0091 55.323V55.3257Z" fill="#5271FF"/>
<path d="M61.5766 46.4386C63.0444 46.4227 67.2671 43.7205 67.2671 43.7205C67.2671 43.7205 62.9833 41.1191 61.5154 41.135C60.8102 41.1431 60.1371 41.4305 59.6441 41.9341C59.1512 42.4376 58.8788 43.116 58.8869 43.82C58.895 44.524 59.1829 45.1959 59.6874 45.688C60.1918 46.1801 60.8713 46.452 61.5766 46.4439V46.4386Z" fill="#5271FF"/>
<path d="M68.267 57.0935C69.6604 56.6396 72.8806 52.8013 72.8806 52.8013C72.8806 52.8013 68.0117 51.5989 66.6183 52.0528C66.2745 52.1507 65.954 52.3169 65.6759 52.5414C65.3979 52.7658 65.1681 53.0439 65.0002 53.3591C64.8323 53.6743 64.7299 54.02 64.6989 54.3756C64.668 54.7312 64.7092 55.0894 64.8202 55.4287C64.9311 55.7681 65.1094 56.0816 65.3445 56.3505C65.5796 56.6195 65.8667 56.8383 66.1884 56.994C66.5102 57.1497 66.8601 57.239 67.2173 57.2565C67.5744 57.2741 67.9314 57.2196 68.267 57.0962V57.0935Z" fill="#5271FF"/>
<path d="M76.1911 66.5593C77.643 66.347 81.4668 63.1085 81.4668 63.1085C81.4668 63.1085 76.8718 61.1018 75.4226 61.3141C75.0657 61.3509 74.7199 61.4593 74.4061 61.633C74.0923 61.8066 73.8169 62.0419 73.5966 62.3246C73.3762 62.6072 73.2155 62.9315 73.124 63.2779C73.0325 63.6242 73.0122 63.9855 73.0643 64.3398C73.1164 64.6942 73.2397 65.0344 73.427 65.34C73.6143 65.6455 73.8615 65.91 74.1539 66.1176C74.4463 66.3253 74.7778 66.4717 75.1283 66.548C75.4789 66.6244 75.8413 66.6291 76.1938 66.562L76.1911 66.5593Z" fill="#5271FF"/>
<path d="M161.788 212.129C214.951 212.129 258.048 169.108 258.048 116.038C258.048 62.9686 214.951 19.9473 161.788 19.9473C108.625 19.9473 65.5278 62.9686 65.5278 116.038C65.5278 169.108 108.625 212.129 161.788 212.129Z" fill="url(#paint0_linear)"/>
<path d="M161.788 210.536C214.07 210.536 256.452 168.228 256.452 116.038C256.452 63.8483 214.07 21.54 161.788 21.54C109.506 21.54 67.1235 63.8483 67.1235 116.038C67.1235 168.228 109.506 210.536 161.788 210.536Z" fill="#5271FF"/>
<path d="M161.788 191.159C203.349 191.159 237.041 157.526 237.041 116.038C237.041 74.5501 203.349 40.9174 161.788 40.9174C120.227 40.9174 86.5352 74.5501 86.5352 116.038C86.5352 157.526 120.227 191.159 161.788 191.159Z" fill="#DDE1EC"/>
<path opacity="0.3" d="M163.915 54.1896H159.661V120.551H163.915V54.1896Z" fill="#535461"/>
<g opacity="0.1">
<path opacity="0.1" d="M226.404 114.445H166.308V119.754H226.404V114.445Z" fill="black"/>
<path opacity="0.1" d="M123.88 94.5833L121.413 99.2864L159.226 119.053L161.693 114.35L123.88 94.5833Z" fill="black"/>
<path opacity="0.1" d="M161.787 125.063C166.193 125.063 169.765 121.498 169.765 117.1C169.765 112.702 166.193 109.137 161.787 109.137C157.382 109.137 153.81 112.702 153.81 117.1C153.81 121.498 157.382 125.063 161.787 125.063Z" fill="black"/>
</g>
<path d="M226.405 113.384H166.309V118.693H226.405V113.384Z" fill="#535461"/>
<path d="M161.71 113.295L123.897 93.5276L121.43 98.2307L159.243 117.998L161.71 113.295Z" fill="#535461"/>
<path d="M161.788 124.001C166.194 124.001 169.765 120.436 169.765 116.038C169.765 111.64 166.194 108.075 161.788 108.075C157.382 108.075 153.811 111.64 153.811 116.038C153.811 120.436 157.382 124.001 161.788 124.001Z" fill="#535461"/>
<g opacity="0.1">
<path opacity="0.1" d="M92.3794 125.063C92.3794 83.5743 126.07 49.9425 167.632 49.9425C179.298 49.9322 190.805 52.6334 201.244 57.8324C211.682 63.0313 220.764 70.585 227.771 79.8952C214.965 56.6635 190.235 40.9174 161.782 40.9174C120.22 40.9174 86.5294 74.5492 86.5294 116.038C86.5049 132.337 91.8151 148.197 101.652 161.206C95.5515 150.134 92.3614 137.699 92.3794 125.063V125.063Z" fill="black"/>
</g>
<path d="M231.318 60.7779C230.425 59.9205 222.905 65.5559 222.905 65.5559C222.905 65.5559 220.227 66.0443 220.865 67.8785C221.504 69.7127 218.06 79.9854 218.06 79.9854L216.659 78.0291C216.794 75.733 216.161 74.1058 215.544 73.0918C215.494 73.0095 215.443 72.9299 215.393 72.8556L215.638 72.7706C215.544 71.5177 213.537 69.6092 212.47 68.6748C212.47 68.5395 212.47 68.4094 212.47 68.2714C212.537 66.7743 213.138 65.1949 212.47 63.8384C211.715 62.2909 209.506 61.5132 209.319 59.8143C209.208 58.8003 209.894 57.8845 210.197 56.9077C210.92 54.5718 209.418 52.1881 207.982 50.176C207.496 49.4217 206.904 48.7405 206.224 48.1533C205.577 47.681 204.866 47.3021 204.113 47.0279C202.01 46.1784 199.858 45.7511 197.688 45.1697C195.606 44.6176 193.687 44.3548 191.573 45.0476C191.071 45.1827 190.613 45.4451 190.243 45.8095C189.74 46.3722 189.674 47.1739 189.344 47.8454C188.812 48.9258 187.666 49.5708 186.653 50.2636C185.64 50.9564 184.624 51.9067 184.619 53.1012C184.619 54.7974 186.56 55.8645 187.209 57.4439C187.815 58.9145 187.209 60.5522 186.871 62.1024C186.73 62.6035 186.716 63.1317 186.831 63.6394C186.965 64.0177 187.167 64.3685 187.427 64.6746C187.828 65.2055 188.259 65.6992 188.687 66.2036L188.491 66.2805C184.922 65.9142 182.627 70.4374 182.627 70.4374C182.792 70.4719 182.949 70.5117 183.103 70.5568L182.952 70.7533C181.873 72.1512 180.992 73.6901 180.332 75.3269L177.407 79.2395C177.407 79.2395 176.769 69.4552 178.301 67.2547C179.833 65.0542 176.9 63.7084 176.9 63.7084C176.9 63.7084 170.518 56.6157 169.632 57.2262C168.747 57.8368 171.799 65.5426 174.477 66.7663C174.477 66.7663 174.743 69.211 174.211 70.801C173.889 71.8071 172.172 82.4195 172.172 82.4195C172.172 82.4195 170.643 91.3464 177.655 86.9321C182.21 84.0706 185.153 79.144 186.653 76.0489C186.758 75.8312 186.856 75.6233 186.948 75.4251C187.018 75.7534 187.065 76.0859 187.089 76.4205L187.355 86.6481C187.423 89.1778 186.869 91.6856 185.744 93.9531L182.619 100.279L182.968 100.385L182.758 100.687C180.699 103.711 177.2 110.509 184.404 113.973L193.976 115.197L193.466 117.641C193.466 117.641 189.514 125.1 188.366 130.237C187.652 133.382 186.538 136.423 185.05 139.286L185.345 139.442C185.284 139.511 185.22 139.583 185.159 139.657C184.578 140.309 184.195 141.112 184.053 141.972L182.755 143.809C182.755 143.809 182.244 151.39 183.265 153.227C183.824 154.23 185.677 154.867 187.254 155.239C189.594 155.794 191.482 153.381 190.24 151.393L190.224 151.366H190.2C189.935 150.132 189.121 146.301 189.387 144.847C189.461 144.433 189.53 144.021 189.565 143.602C189.629 143.051 189.797 142.517 190.059 142.028C190.102 141.945 190.147 141.866 190.192 141.786L190.331 141.845C190.759 142.028 191.182 142.2 191.583 142.352C190.961 142.917 190.52 144.088 191.051 146.495C191.051 146.495 191.102 152.518 191.562 153.466C192.022 154.413 197.17 155.666 198.063 154.689C198.957 153.713 197.489 150.347 197.489 150.347L197.444 150.379C197.149 148.428 196.784 144.934 197.681 143.559C198.042 143.005 198.393 142.431 198.707 141.895L198.901 141.563C200.566 142.391 202.326 143.015 203.289 142.582C203.289 142.582 207.495 132.798 207.24 131.577C206.985 130.356 213.742 116.534 213.742 116.534C213.742 116.534 219.477 110.164 212.468 105.773C210.242 104.374 208.62 103.435 207.442 102.8L206.456 97.6507C205.948 94.951 206.039 92.1732 206.721 89.5122L207.785 85.4615L207.873 85.1165C207.873 85.1165 210.551 79.6138 210.423 77.0443C210.413 76.8447 210.436 76.6448 210.489 76.4524C210.519 76.5745 210.551 76.7019 210.585 76.8346C211.289 79.5052 212.216 82.1122 213.356 84.628C215.39 89.2096 218.408 88.8459 220.062 88.1956C220.416 88.0588 220.731 87.8363 220.977 87.5481C221.224 87.2599 221.394 86.915 221.474 86.5445C222.07 83.6937 223.705 75.7065 223.809 73.5006C223.902 71.7758 224.115 70.0595 224.447 68.3643C228.643 65.9142 232.212 61.6353 231.318 60.7779Z" fill="url(#paint1_linear)"/>
<path d="M200.103 139.142C200.103 139.142 199.542 140.265 198.773 141.614C198.473 142.145 198.138 142.715 197.795 143.265C196.579 145.205 197.795 151.387 197.795 151.387L195.135 151.751L192.476 150.424L191.99 145.938V142.657L195.021 139.272L196.351 137.807L200.103 139.142Z" fill="#F8BDC5"/>
<g opacity="0.1">
<path opacity="0.1" d="M200.103 139.142C200.103 139.142 199.542 140.265 198.773 141.614C197.599 140.987 196.465 140.291 195.375 139.527L195.141 139.363L195.016 139.272L196.346 137.807L200.103 139.142Z" fill="black"/>
</g>
<path d="M213.103 116.468C213.103 116.468 206.666 130.168 206.91 131.381C207.155 132.594 203.145 142.293 203.145 142.293C202.23 142.723 200.55 142.105 198.965 141.285C197.77 140.649 196.615 139.939 195.508 139.161L195.274 138.996L195.133 138.896L205.7 109.675L196.351 102.83L195.66 102.323L191.479 99.2435L204.243 101.548C204.243 101.548 204.687 101.492 207.035 102.803C208.163 103.432 209.729 104.375 211.894 105.792C218.565 110.164 213.103 116.468 213.103 116.468Z" fill="#5E52AD"/>
<g opacity="0.03">
<path opacity="0.03" d="M213.103 116.468C213.103 116.468 206.666 130.168 206.91 131.381C207.155 132.594 203.145 142.293 203.145 142.293C202.23 142.723 200.55 142.105 198.965 141.285C197.77 140.649 196.615 139.939 195.508 139.161L195.274 138.996L195.133 138.896L205.7 109.675L196.351 102.83L195.66 102.323L191.479 99.2435L204.243 101.548C204.243 101.548 204.687 101.492 207.035 102.803C208.163 103.432 209.729 104.375 211.894 105.792C218.565 110.164 213.103 116.468 213.103 116.468Z" fill="black"/>
</g>
<path d="M193.546 141.566C193.546 141.566 190.387 141.08 191.482 146.174C191.482 146.174 191.53 152.147 191.969 153.076C192.408 154.005 197.314 155.258 198.162 154.289C199.01 153.32 197.614 149.986 197.614 149.986C197.614 149.986 194.032 152.592 193.059 149.803C192.086 147.013 193.546 141.566 193.546 141.566Z" fill="#5D3E53"/>
<path d="M191.357 140.597C191.012 140.925 190.732 141.313 190.53 141.744C190.279 142.231 190.119 142.76 190.059 143.305C190.027 143.719 189.961 144.13 189.892 144.539C189.588 146.267 190.751 151.387 190.751 151.387L186.134 152.115L184.435 150.296L184.071 146.296C184.524 144.925 184.77 143.493 184.799 142.049C184.799 141.006 185.331 140.074 185.863 139.395C186.224 138.941 186.637 138.532 187.094 138.176C187.094 138.176 192.33 139.748 191.357 140.597Z" fill="#F8BDC5"/>
<g opacity="0.1">
<path opacity="0.1" d="M191.357 140.597C191.012 140.925 190.732 141.314 190.53 141.744C188.64 140.892 186.653 139.817 185.93 139.418L185.874 139.389C186.235 138.936 186.648 138.527 187.105 138.171C187.105 138.171 192.33 139.748 191.357 140.597Z" fill="black"/>
</g>
<path d="M206.299 112.832C206.299 112.832 203.264 118.531 201.318 123.258C200.042 126.364 197.404 133.759 195.734 138.468L195.489 139.164C194.755 141.247 194.266 142.657 194.266 142.657C193.942 142.659 193.621 142.612 193.311 142.516C193.024 142.439 192.702 142.336 192.359 142.208L191.974 142.062C191.591 141.914 191.176 141.741 190.78 141.561C188.849 140.701 186.791 139.58 186.044 139.172L185.762 139.015C187.187 136.165 188.251 133.148 188.929 130.035C190.022 124.944 193.787 117.559 193.787 117.559L194.274 115.133L185.164 113.92C178.301 110.496 181.635 103.745 183.595 100.749C183.929 100.228 184.29 99.7259 184.677 99.2435L191.966 100.836C191.966 100.836 193.115 101.202 195.667 102.331L196.84 102.861C198.271 103.517 200.031 104.361 202.158 105.444C209.333 109.065 206.299 112.832 206.299 112.832Z" fill="#5E52AD"/>
<path d="M190.706 151.024C190.966 151.461 191.09 151.965 191.064 152.473C191.037 152.98 190.86 153.469 190.556 153.876C190.252 154.284 189.834 154.593 189.354 154.763C188.874 154.934 188.355 154.959 187.861 154.835C186.369 154.466 184.601 153.835 184.069 152.839C183.098 151.021 183.582 143.504 183.582 143.504L184.858 141.624C184.858 141.624 184.191 149.93 185.771 150.649C187.35 151.369 190.69 150.986 190.69 150.986L190.706 151.024Z" fill="#5D3E53"/>
<path d="M191.998 45.5865C191.513 45.7213 191.072 45.9824 190.721 46.3431C190.243 46.9005 190.19 47.6968 189.865 48.3631C189.36 49.4249 188.27 50.0752 187.302 50.7521C186.334 51.429 185.369 52.3819 185.363 53.5658C185.363 55.2487 187.225 56.3052 187.831 57.8686C188.408 59.3286 187.831 60.9505 187.509 62.4874C187.375 62.985 187.362 63.5075 187.472 64.011C187.599 64.3846 187.792 64.7325 188.041 65.0383C189.214 66.631 190.671 68.0431 191.455 69.8561C192.051 71.2338 192.216 72.7548 192.373 74.2492C192.599 76.3993 192.825 78.5892 192.415 80.7128C192.375 80.8398 192.375 80.976 192.415 81.103C192.485 81.2248 192.595 81.3186 192.726 81.3684C193.5 81.7437 194.342 81.959 195.201 82.0012C196.06 82.0435 196.919 81.9119 197.726 81.6144C198.533 81.3168 199.272 80.8595 199.897 80.2698C200.523 79.6802 201.022 78.9704 201.366 78.1831C201.898 76.9806 202.102 75.5287 203.155 74.7483C203.278 74.6468 203.426 74.5799 203.584 74.5545C203.832 74.5613 204.072 74.6417 204.275 74.7854C205.642 75.5234 207.298 75.5446 208.822 75.242C209.742 75.0588 210.683 74.7323 211.292 74.0156C212.492 72.5928 211.824 70.4666 211.904 68.6112C211.968 67.1274 212.539 65.5612 211.904 64.2181C211.186 62.6838 209.077 61.914 208.902 60.2364C208.795 59.233 209.45 58.3226 209.739 57.3563C210.428 55.039 208.997 52.6766 207.631 50.6831C207.171 49.9394 206.608 49.2647 205.958 48.679C205.345 48.213 204.668 47.8375 203.948 47.5641C201.946 46.7226 199.903 46.2979 197.832 45.7246C195.848 45.1592 194.021 44.8964 191.998 45.5865Z" fill="#85555C"/>
<path d="M202.169 80.2164H195.122V68.8182C195.332 67.7235 195.454 66.6141 195.489 65.5002C195.489 65.1259 195.489 64.7437 195.489 64.3588C195.423 62.9997 195.141 61.6433 194.402 60.8151C192.458 58.6331 200.717 58.9968 200.717 58.9968C200.971 59.9987 201.299 60.9801 201.701 61.9326C202.299 63.4188 203.095 64.8179 204.068 66.0921C204.923 67.2259 206.019 68.1569 207.277 68.8182C212.127 71.2444 202.169 80.2164 202.169 80.2164Z" fill="#F8BDC5"/>
<g opacity="0.1">
<path opacity="0.1" d="M201.693 61.9326C200.978 62.8638 200.021 63.5821 198.926 64.0097C197.831 64.4373 196.64 64.558 195.481 64.3588C195.415 62.9997 195.133 61.6433 194.394 60.8151C192.45 58.6331 200.709 58.9968 200.709 58.9968C200.963 59.9987 201.292 60.9801 201.693 61.9326V61.9326Z" fill="black"/>
</g>
<path d="M196.58 64.0933C200.135 64.0933 203.018 61.2161 203.018 57.6669C203.018 54.1177 200.135 51.2405 196.58 51.2405C193.024 51.2405 190.142 54.1177 190.142 57.6669C190.142 61.2161 193.024 64.0933 196.58 64.0933Z" fill="#F8BDC5"/>
<path d="M223.301 68.6987C222.985 70.3804 222.782 72.0813 222.695 73.79C222.596 75.9746 221.038 83.8954 220.469 86.7224C220.397 87.0849 220.237 87.4241 220.002 87.7098C219.767 87.9956 219.466 88.219 219.124 88.3602C217.544 89.0052 214.672 89.3662 212.742 84.8245C211.653 82.3254 210.77 79.7421 210.101 77.1001C209.864 76.212 209.687 75.3093 209.569 74.3978L213.824 72.0938C214.224 72.4678 214.564 72.9022 214.829 73.3812C215.417 74.3872 216.02 76.0011 215.893 78.276L217.222 80.2164C217.222 80.2164 220.501 70.0313 219.881 68.213C219.262 66.3947 221.825 65.9089 221.825 65.9089C221.825 65.9089 228.991 60.3346 229.842 61.1814C230.693 62.0281 227.308 66.2726 223.301 68.6987Z" fill="#F8BDC5"/>
<path d="M188.443 73.5484C188.111 74.4968 187.729 75.4272 187.299 76.3356C185.869 79.4068 183.066 84.2989 178.726 87.1285C172.047 91.4924 173.504 82.6425 173.504 82.6425C173.504 82.6425 175.139 72.1203 175.448 71.1249C175.934 69.5482 175.69 67.1247 175.69 67.1247C173.139 65.9116 170.225 58.2747 171.073 57.6669C171.922 57.059 177.987 64.0933 177.987 64.0933C177.987 64.0933 180.782 65.4205 179.317 67.6104C177.851 69.8003 178.466 79.4917 178.466 79.4917L181.276 75.6189C181.902 74.0029 182.741 72.478 183.773 71.0851C184.305 70.3604 184.677 69.9225 184.677 69.9225L188.443 73.5484Z" fill="#F8BDC5"/>
<g opacity="0.1">
<path opacity="0.1" d="M214.832 73.3812C213.938 73.7103 210.479 75.1039 210.096 77.0974C209.859 76.2093 209.681 75.3066 209.564 74.3952L213.819 72.0911C214.222 72.4653 214.564 72.9007 214.832 73.3812Z" fill="black"/>
</g>
<g opacity="0.1">
<path opacity="0.1" d="M188.443 73.5484C188.111 74.4968 187.729 75.4272 187.299 76.3356C187.135 75.1358 186.456 72.0672 183.773 71.0771C184.305 70.3525 184.678 69.9145 184.678 69.9145L188.443 73.5484Z" fill="black"/>
</g>
<g opacity="0.1">
<path opacity="0.1" d="M202.169 80.2164H195.123V68.8182C195.332 67.7235 195.455 66.6141 195.49 65.5002C196.939 66.8964 196.58 69.0598 196.58 69.0598L200.345 77.554L202.169 70.0446L201.563 69.0757L204.062 66.1081C204.918 67.2419 206.014 68.1728 207.272 68.8342C212.128 71.2444 202.169 80.2164 202.169 80.2164Z" fill="black"/>
</g>
<g opacity="0.1">
<path opacity="0.1" d="M207.147 103.491C207.147 103.491 201.627 103.053 196.838 102.846L196.357 102.824C195.676 102.798 195.027 102.777 194.391 102.761C189.743 102.649 184.486 101.027 183.593 100.743C183.928 100.225 184.29 99.7242 184.678 99.2435L191.966 100.836C191.966 100.836 193.115 101.202 195.668 102.331L191.48 99.2435L204.243 101.548C204.243 101.548 204.688 101.492 207.036 102.803L207.147 103.491Z" fill="black"/>
</g>
<path d="M202.169 70.517L201.562 69.5482L204.259 66.3283C204.259 66.3283 209.819 69.0491 211.276 68.4519C211.276 68.4519 214.8 71.3718 214.919 73.06C214.919 73.06 209.819 74.7562 209.939 77.3071C210.058 79.858 207.519 85.3076 207.519 85.3076L206.455 89.6662C205.801 92.3076 205.71 95.057 206.189 97.7357L207.16 103.132C207.16 103.132 199.507 102.527 194.396 102.405C189.285 102.283 183.465 100.345 183.465 100.345L186.445 94.0832C187.52 91.8234 188.047 89.3426 187.982 86.8419L187.716 76.7045C187.716 76.7045 187.475 71.6133 183.462 70.7639C183.462 70.7639 185.648 66.2779 189.046 66.6416C189.046 66.6416 193.997 64.5791 195.468 65.9726C196.938 67.3662 196.577 69.5508 196.577 69.5508L200.342 78.045L202.169 70.517Z" fill="#ED677B"/>
<g opacity="0.1">
<path opacity="0.1" d="M191.934 56.3423C192.91 56.3423 193.676 55.3097 194.652 55.3628C195.157 55.3894 195.59 55.7106 196.008 55.9999C197.585 57.0904 199.341 57.8987 201.196 58.3889C201.916 58.58 202.679 58.7234 203.403 58.5482C204.126 58.373 204.804 57.8049 204.886 57.0643C204.907 56.7379 204.863 56.4107 204.759 56.1008C203.94 53.2532 202.088 50.8124 199.563 49.2549C198.552 48.6365 197.319 48.164 196.199 48.5515C195.189 48.8992 194.537 49.8442 193.806 50.622C193.255 51.2043 192.629 51.7113 191.945 52.1297C191.413 52.4509 190.615 52.6606 190.309 53.2499C189.732 54.3488 190.639 56.3317 191.934 56.3423Z" fill="black"/>
</g>
<path d="M191.934 56.1008C192.91 56.1008 193.676 55.0682 194.652 55.1213C195.157 55.1478 195.59 55.469 196.008 55.7584C197.585 56.8488 199.341 57.6572 201.196 58.1474C201.916 58.3385 202.679 58.4818 203.403 58.3066C204.126 58.1314 204.804 57.5634 204.886 56.8228C204.907 56.4964 204.863 56.1692 204.759 55.8592C203.94 53.0116 202.088 50.5709 199.563 49.0134C198.552 48.3949 197.319 47.9225 196.199 48.31C195.189 48.6577 194.537 49.6027 193.806 50.3805C193.255 50.9628 192.629 51.4698 191.945 51.8882C191.413 52.2094 190.615 52.4191 190.309 53.0084C189.732 54.1179 190.639 56.0875 191.934 56.1008Z" fill="#85555C"/>
<path opacity="0.05" d="M188.99 83.7919C188.99 83.7919 194.941 85.9739 198.829 84.2777L200.773 84.3998C200.773 84.3998 204.004 86.6614 207.421 85.65" fill="black"/>
<path opacity="0.05" d="M217.169 80.1554C217.169 80.1554 216.199 82.4595 216.683 83.1868Z" fill="black"/>
<path opacity="0.05" d="M178.423 79.428C178.423 79.428 178.91 81.7321 178.423 82.4594Z" fill="black"/>
<path d="M279.156 131.93C279.156 131.93 268.03 143.036 274.311 159.515C280.592 175.994 263.547 203.399 263.547 203.399C263.547 203.399 263.73 203.372 264.079 203.314C286.928 199.287 298.28 173.202 285.575 153.821C280.839 146.615 276.962 138.163 279.156 131.93Z" fill="#5271FF"/>
<path opacity="0.1" d="M279.156 132.116C279.156 132.116 268.03 143.222 274.311 159.701C280.592 176.18 263.547 203.582 263.547 203.582C263.547 203.582 263.73 203.555 264.079 203.497C286.928 199.47 298.28 173.385 285.575 154.005C280.839 146.8 276.962 138.349 279.156 132.116Z" fill="black"/>
<path d="M279.156 131.93C279.156 131.93 272.875 145.542 279.156 156.648C285.436 167.755 280.219 198.92 263.544 203.399" stroke="#535461" stroke-miterlimit="10"/>
<path d="M298.972 176.849C298.972 176.849 286.277 174.831 285.12 186.187C283.964 197.543 260.702 199.117 260.702 199.117L261.138 199.406C280.337 211.988 298.692 207.42 295.924 190.713C294.903 184.504 294.988 178.266 298.972 176.849Z" fill="#5271FF"/>
<path d="M298.971 176.849C298.971 176.849 289.117 179.007 289.93 187.952C290.744 196.898 275.305 207.619 260.712 199.12" stroke="#535461" stroke-miterlimit="10"/>
<path d="M287.803 199.531C287.803 199.531 277.805 197.535 275.138 194.872C272.471 192.21 260.473 187.554 259.141 190.891C257.808 194.227 241.144 205.53 252.474 207.526C263.805 209.522 279.137 210.181 282.469 208.853C285.801 207.526 287.803 199.531 287.803 199.531Z" fill="#A8A8A8"/>
<path opacity="0.2" d="M252.475 206.281C263.808 208.277 279.137 208.936 282.469 207.609C285.009 206.595 286.772 201.726 287.469 199.459L287.801 199.528C287.801 199.528 285.801 207.513 282.469 208.843C279.137 210.173 263.805 209.509 252.475 207.516C249.204 206.94 248.268 205.586 248.622 203.874C248.898 204.991 250.039 205.851 252.475 206.281Z" fill="black"/>
<defs>
<linearGradient id="paint0_linear" x1="161.788" y1="212.129" x2="161.788" y2="19.9473" gradientUnits="userSpaceOnUse">
<stop stop-color="#808080" stop-opacity="0.25"/>
<stop offset="0.54" stop-color="#808080" stop-opacity="0.12"/>
<stop offset="1" stop-color="#808080" stop-opacity="0.1"/>
</linearGradient>
<linearGradient id="paint1_linear" x1="46558.2" y1="66046.1" x2="46558.2" y2="19886.7" gradientUnits="userSpaceOnUse">
<stop stop-color="#808080" stop-opacity="0.25"/>
<stop offset="0.54" stop-color="#808080" stop-opacity="0.12"/>
<stop offset="1" stop-color="#808080" stop-opacity="0.1"/>
</linearGradient>
</defs>
</svg>
