<svg width="813" height="709" viewBox="0 0 813 709" fill="none" xmlns="http://www.w3.org/2000/svg">
<g clip-path="url(#clip0)">
<path d="M812.097 8.30336V239.693C803.311 241.585 794.216 244.356 788.117 250.948C779.864 259.849 779.239 273.196 779.067 285.357L777.113 426.106C776.959 436.873 776.714 448.055 771.918 457.699C764.778 472.06 749.15 480.019 739.123 492.533C722.038 513.848 723.803 544.508 729.929 571.139C736.056 597.769 745.729 624.699 741.54 651.728C738.038 674.311 725.414 693.38 708.582 709.045H21.5725C8.21568 694.612 -1.89245 677.951 0.297491 659.071C2.79511 637.511 21.0567 620.687 25.4185 599.426C30.5042 574.661 15.9438 550.584 10.9395 525.819C4.20681 492.741 14.6407 458.813 24.957 426.713C28.9206 414.353 33.1014 401.64 41.4902 391.743C51.716 379.718 67.6519 372.574 74.7737 358.484C84.6285 338.98 73.6154 314.523 80.7191 293.85C88.4654 271.303 114.202 261.252 137.223 255.041C177.09 244.272 217.728 236.598 258.774 232.087C271.036 230.737 283.904 229.479 294.184 222.642C302.438 217.146 308.121 208.616 313.188 200.068C336.436 160.245 356.01 109.872 400.56 98.2458C430.794 90.35 462.91 103.987 493.822 99.4049C550.336 91.0019 581.013 28.0521 630.522 0H780.633C791.148 2.64404 801.636 5.41182 812.097 8.30336Z" fill="#5271FF"/>
<path opacity="0.7" d="M812.097 8.30336V239.693C803.311 241.585 794.216 244.356 788.117 250.948C779.864 259.849 779.239 273.196 779.067 285.357L777.113 426.106C776.959 436.873 776.714 448.055 771.918 457.699C764.778 472.06 749.15 480.019 739.123 492.533C722.038 513.848 723.803 544.508 729.929 571.139C736.056 597.769 745.73 624.699 741.54 651.728C738.038 674.311 725.414 693.38 708.582 709.045H21.5725C8.21568 694.612 -1.89245 677.951 0.297491 659.071C2.79511 637.511 21.0567 620.687 25.4185 599.426C30.5042 574.661 15.9438 550.584 10.9395 525.819C4.20681 492.741 14.6407 458.813 24.957 426.713C28.9206 414.353 33.1014 401.64 41.4902 391.743C51.716 379.718 67.6519 372.574 74.7737 358.484C84.6285 338.98 73.6154 314.522 80.7191 293.85C88.4654 271.303 114.202 261.252 137.223 255.041C177.09 244.272 217.728 236.598 258.774 232.087C271.036 230.737 283.904 229.479 294.185 222.642C302.438 217.146 308.121 208.616 313.188 200.068C336.436 160.245 356.01 109.872 400.56 98.2458C430.794 90.35 462.91 103.987 493.822 99.4049C550.336 91.0019 581.013 28.0521 630.522 0H780.633C791.148 2.64404 801.636 5.41182 812.097 8.30336Z" fill="black"/>
<path d="M114.393 477.973C113.996 480.008 114.017 482.103 114.456 484.13C115.995 489.681 122.474 492.044 128.148 492.995C136.157 494.335 144.726 494.453 152.002 490.84C154.836 489.319 157.517 487.53 160.011 485.498L170.236 477.692C171.944 476.573 173.391 475.1 174.481 473.373C175.185 471.892 175.567 470.277 175.603 468.637C175.875 464.448 175.297 460.246 173.905 456.285C172.512 452.325 170.334 448.687 167.5 445.59C164.667 442.493 161.237 440.002 157.416 438.266C153.596 436.53 149.464 435.585 145.269 435.487C144.146 435.403 143.018 435.554 141.957 435.931C140.773 436.547 139.714 437.379 138.835 438.385C133.297 443.763 126.103 444.723 122.546 451.813C118.408 460.025 115.654 468.863 114.393 477.973Z" fill="#FFC095"/>
<path d="M154.599 275.858C148.12 279.607 142.889 285.194 138.31 291.116C134.835 295.643 131.596 300.506 130.6 306.092C129.152 314.242 132.311 323.903 126.809 330.07C124.329 332.841 120.528 334.208 118.203 337.124C116.538 339.206 115.814 341.868 115.135 344.449C113.841 349.339 112.529 354.337 112.873 359.381C113.343 366.299 116.881 372.7 117.596 379.6C118.447 387.75 115.289 395.809 112.167 403.433L106.04 418.518C111.642 416.544 117.804 417.387 123.696 417.74C144.591 418.989 166.019 413.882 186.263 419.234C188.688 419.877 191.077 420.664 193.502 421.208C206.407 424.078 219.746 420.049 232.324 416.055C234.134 415.494 236.279 414.362 236.043 412.506C235.884 411.784 235.534 411.118 235.03 410.577C225.537 398.371 217.791 383.412 219.827 368.019C221.637 354.636 230.686 342.095 228.306 328.811C226.931 321.16 221.972 314.758 218.198 307.94C215.89 303.72 214.026 299.247 211.348 295.263C208.669 291.279 205.131 287.72 201.665 284.27C198.199 280.82 194.552 277.207 190.299 274.618C180.725 268.777 164.164 270.344 154.599 275.858Z" fill="#D67820"/>
<path d="M161.685 386.083C161.73 388.146 161.319 390.193 160.481 392.078C159.323 394.233 157.133 395.609 155.052 396.877C145.067 402.944 135.022 408.914 124.917 414.788C130.845 430.063 136.944 445.638 147.432 458.251C167.341 482.129 201.131 491.582 231.899 487.154C236.523 486.484 241.382 485.398 244.704 482.12C247.418 479.476 248.676 475.781 249.635 472.159C252.814 460.042 253.173 447.357 250.685 435.08C248.875 426.405 245.256 417.423 237.736 412.75C234.881 411.135 231.843 409.87 228.686 408.983L203.113 400.671C201.855 400.263 200.479 399.765 199.864 398.579C199.502 397.668 199.408 396.672 199.593 395.709L201.565 375.064C201.982 370.735 202.28 365.954 199.701 362.459C197.556 359.544 193.891 358.222 190.407 357.271C185.095 355.822 167.63 350.525 163.54 355.523C161.431 358.113 162.635 367.602 162.463 370.916L161.685 386.083Z" fill="#FFC095"/>
<path d="M233.844 408.83C243.708 411.211 254.468 415.032 259.047 424.096C261.762 429.529 261.762 435.795 261.707 441.835L260.802 534.421L235.808 535.444C238.754 519.173 240.568 502.717 241.238 486.195C241.648 479.283 241.464 472.348 240.686 465.468C238.704 450.5 232.089 436.692 224.243 423.96C222.433 421.054 212.787 410.378 214.289 406.937C216.117 402.89 230.08 407.924 233.844 408.83Z" fill="#FFC095"/>
<path opacity="0.05" d="M253.256 456.268C254.957 459.691 255.735 463.512 256.504 467.225C257.328 471.227 258.151 475.284 257.943 479.367C257.718 482.177 257.249 484.961 256.54 487.689L253.826 499.741C252.722 504.558 251.545 509.538 248.541 513.45C248.264 513.889 247.855 514.228 247.373 514.419C246.938 514.513 246.484 514.475 246.07 514.31C243.084 513.342 240.939 510.589 239.917 507.619C238.894 504.649 238.849 501.443 238.867 498.292C238.93 484.972 240.016 471.616 238.795 458.324C238.451 454.575 235.302 445.167 241.618 445.583C246.224 445.873 251.419 452.556 253.256 456.268Z" fill="black"/>
<path d="M255.047 622.118C255.047 622.553 255.047 623.024 254.984 623.431C254.984 624.545 254.893 625.659 254.848 626.8C253.871 652.244 254.061 684.28 246.152 708.946H125.641C125.252 707.732 124.926 706.492 124.601 705.269C119.542 686.145 114.447 666.551 116.094 646.838C116.264 644.231 116.645 641.642 117.234 639.096C117.234 638.951 117.307 638.806 117.352 638.662C117.69 637.316 118.208 636.021 118.89 634.813C119.096 634.446 119.329 634.095 119.587 633.763C119.732 633.582 119.886 633.401 120.04 633.238C120.519 632.717 121.09 632.287 121.723 631.97C124.872 630.431 133.234 632.477 137.93 633.238C138.555 633.337 139.116 633.41 139.595 633.455L152.69 634.623L156.065 634.922L181.747 637.213L185.195 637.521C193.258 638.218 201.348 638.788 209.429 638.254C225.637 637.176 238.722 621.774 254.948 622.073L255.047 622.118Z" fill="#0E0D15"/>
<path opacity="0.05" d="M125.135 516.411C125.913 518.874 125.831 521.518 126.04 524.09C126.754 532.384 130.628 540.09 131.94 548.311C134.003 561.242 129.623 574.227 125.605 586.695C121.587 599.164 117.949 611.859 118.366 624.871C118.655 633.02 120.791 641.45 126.42 647.309C134.338 655.558 146.898 656.744 158.319 657.423L199.511 659.877C207.574 660.357 215.71 660.837 223.682 659.56C231.655 658.283 239.564 655.087 245.111 649.219C248.357 645.646 250.844 641.45 252.423 636.887C253.991 632.771 254.836 628.415 254.92 624.011C254.92 618.795 253.672 613.679 252.622 608.572C248.097 586.405 247.853 563.605 247.645 540.977C247.554 530.564 247.464 520.051 249.735 509.891C250.912 504.631 252.703 499.515 253.925 494.263C257.97 476.85 254.613 456.513 240.975 444.959C239.799 443.963 238.261 442.985 236.813 443.564C235.745 443.99 235.175 445.122 234.641 446.145C232.088 450.985 228.517 455.214 224.174 458.54C219.831 461.867 214.819 464.212 209.484 465.414C203.773 466.663 197.846 466.546 192.018 466.111C184.399 465.55 176.707 464.418 169.712 461.357C162.717 458.297 156.4 453.099 153.269 446.127C145.441 451.868 146.428 463.784 142.021 472.431C139.179 478 134.157 481.984 128.89 485.108C124.8 487.544 116.284 489.038 113.506 492.986C107.769 501.271 122.927 509.403 125.135 516.411Z" fill="black"/>
<path d="M125.135 514.147C125.913 516.61 125.831 519.254 126.04 521.826C126.754 530.12 130.628 537.826 131.94 546.048C134.003 558.978 129.623 571.963 125.605 584.431C121.587 596.9 117.949 609.595 118.366 622.607C118.655 630.756 120.791 639.186 126.42 645.045C134.419 653.312 146.971 654.489 158.391 655.123L199.584 657.577C207.647 658.057 215.782 658.537 223.755 657.26C231.727 655.983 239.636 652.787 245.183 646.919C248.429 643.345 250.917 639.15 252.495 634.587C254.064 630.471 254.909 626.114 254.993 621.71C254.993 616.495 253.744 611.379 252.694 606.272C248.17 584.105 247.925 561.305 247.717 538.677C247.627 528.264 247.536 517.751 249.808 507.591C250.984 502.33 252.776 497.214 253.998 491.963C258.043 474.55 254.685 454.213 241.048 442.659C239.871 441.662 238.333 440.685 236.885 441.264C235.817 441.69 235.247 442.822 234.713 443.845C232.166 448.693 228.597 452.931 224.254 456.265C219.911 459.6 214.896 461.952 209.556 463.159C203.846 464.408 197.919 464.291 192.091 463.856C184.471 463.295 176.779 462.163 169.784 459.102C162.789 456.042 156.473 450.844 153.341 443.872C145.514 449.613 146.5 461.529 142.093 470.176C139.252 475.745 134.229 479.729 128.962 482.853C124.872 485.289 116.357 486.783 113.579 490.731C107.769 499.007 122.927 507.139 125.135 514.147Z" fill="#CFCCE0"/>
<path opacity="0.05" d="M226.75 536.767C226.75 534.349 227.908 532.094 229.103 529.993C230.75 527.114 232.517 524.307 234.406 521.572C235.761 519.352 237.553 517.43 239.672 515.922C241.871 514.546 244.812 514.111 247.057 515.379C247.548 515.769 248.136 516.02 248.758 516.103C249.663 516.103 250.26 515.198 251.065 514.854C252.513 514.184 254.178 515.252 255.192 516.493C256.205 517.733 257.002 519.209 258.459 519.924C258.984 520.178 259.572 520.296 260.106 520.531C261.961 521.346 262.947 523.347 263.78 525.203C264.44 526.431 264.826 527.787 264.911 529.178C264.911 531.605 263.101 533.588 261.391 535.327L257.011 539.854C255.9 541.12 254.603 542.21 253.165 543.087C252.441 543.52 251.63 543.784 250.79 543.861C249.951 543.938 249.105 543.825 248.314 543.531C247.93 543.283 247.476 543.166 247.02 543.196C246.679 543.317 246.387 543.545 246.188 543.847C245.219 545.037 244.312 546.276 243.473 547.56C242.763 548.917 241.735 550.082 240.478 550.956C239.138 551.698 237.12 551.454 236.514 550.05C236.441 549.773 236.301 549.518 236.107 549.308C235.555 548.873 234.849 549.579 234.206 549.851C233.13 550.313 231.863 549.407 231.492 548.293C231.236 547.144 231.305 545.947 231.691 544.834C230.885 544.183 229.709 544.572 228.668 544.626C226.524 544.744 226.958 543.368 227.012 542.118C227.148 540.28 226.768 538.577 226.75 536.767Z" fill="black"/>
<path opacity="0.05" d="M163.549 356.583C162.02 358.448 162.228 363.926 162.391 368.091C162.889 368.553 163.386 368.997 163.902 369.441C171.798 376.023 181.681 379.749 191.955 380.017C194.007 380.18 196.069 379.87 197.982 379.111C199.379 378.419 200.613 377.437 201.602 376.232V376.123C202.018 371.795 202.317 367.014 199.737 363.519C197.593 360.603 193.928 359.281 190.444 358.33C185.114 356.881 167.639 351.584 163.549 356.583Z" fill="black"/>
<path opacity="0.03" d="M132.7 470.539C132.211 474.813 130.338 478.779 128.492 482.663L117.795 505.156C116.094 502.249 114.33 499.062 114.728 495.72C115.015 494.084 115.562 492.503 116.348 491.039L125.696 471.191C126.401 469.697 128.8 461.33 130.41 461.23C132.817 461.131 132.872 469.063 132.7 470.539Z" fill="black"/>
<path opacity="0.05" d="M161.377 312.512C155.875 321.341 154.853 332.551 157.477 342.62C159.441 350.172 163.35 358.013 160.708 365.384C158.717 370.917 153.17 376.431 155.921 381.629C156.536 382.788 157.531 383.747 157.893 385.006C158.509 387.152 157.124 389.28 156.165 391.29C151.152 401.758 157.142 413.792 160.074 425.02C162.246 433.332 162.689 441.98 163.124 450.564L157.694 436.683C155.449 448.33 150.595 459.318 143.496 468.818C147.483 468.863 151.444 469.473 155.26 470.629C152.436 470.289 149.587 471.024 147.28 472.689C144.973 474.353 143.376 476.825 142.806 479.614C142.236 482.402 142.735 485.303 144.204 487.74C145.673 490.177 148.005 491.972 150.735 492.769C145.179 494 139.442 490.215 136.781 485.181C134.121 480.146 133.913 474.197 134.229 468.511L129.705 468.882C134.228 458.006 136.152 446.224 135.324 434.473C134.953 429.276 133.243 423.136 128.266 421.606L126.773 435.397L120.728 423.154C120.336 422.078 119.593 421.166 118.619 420.565C117.878 420.333 117.122 420.152 116.357 420.021C113.977 419.288 113.054 416.182 113.796 413.81C114.538 411.437 116.447 409.636 118.266 407.933C124.42 402.174 130.555 396.035 133.885 388.293C136.98 381.103 137.424 373.09 137.749 365.266C138.136 356.097 138.437 346.921 138.654 337.739C138.808 330.496 138.908 323.197 140.464 316.134C143.179 304.173 150.419 293.062 161.07 286.95C171.721 280.838 185.621 280.286 196.1 286.633C202.434 290.455 207.113 296.358 211.683 302.136L224.795 318.706C227.51 322.138 230.279 325.669 231.537 329.853C233.854 337.567 230.632 345.816 226.705 352.87C222.777 359.924 218.062 366.869 217.103 374.865C215.999 384.11 220.117 393.083 224.135 401.477C229.238 412.144 234.424 422.946 242.107 431.929C246.016 436.501 250.74 440.938 251.844 446.851C251.011 447.532 250.03 448.007 248.98 448.238C247.93 448.469 246.84 448.45 245.799 448.182C248.9 460.582 251.385 473.12 253.255 485.796C242.125 478.45 231.332 470.632 220.877 462.344C220.442 464.403 219.494 466.319 218.123 467.914C216.752 469.509 215 470.733 213.031 471.472C212.714 467.958 213.936 464.499 214.108 460.977C214.28 457.455 212.922 453.344 209.583 452.284C207.629 451.668 205.312 452.194 203.656 450.989C202.443 450.084 201.973 448.544 201.575 447.087L194.027 419.36C189.441 419.141 184.887 420.24 180.906 422.53C186.583 419.359 190.802 414.101 192.67 407.87L176.969 407.625C181.114 403.702 185.129 399.648 189.014 395.465C194.67 389.38 200.072 382.987 204.19 375.77C215.746 355.55 215.909 329.282 204.597 308.918C202.724 305.54 200.489 302.253 197.358 300.035C186.037 292.166 167.585 302.561 161.377 312.512Z" fill="black"/>
<path opacity="0.05" d="M132.256 605.692L142.048 618.904C145.993 624.228 149.966 629.606 154.943 633.98C165.395 643.189 179.376 647.327 190.57 655.712C197.547 660.934 203.247 667.675 207.239 675.424C209.194 679.227 210.361 684.669 206.886 687.196C203.8 689.405 199.556 687.449 196.317 685.484L178.779 674.881C173.675 671.793 168.481 668.633 164.572 664.124C161.513 660.592 159.368 656.373 156.816 652.452C152.909 646.449 148.042 641.129 142.41 636.706C138.962 633.989 135.17 631.608 132.302 628.303C127.659 623.014 125.695 615.925 124.302 609.016C123.84 606.716 120.356 592.192 123.044 592.01C124.573 591.857 130.89 603.845 132.256 605.692Z" fill="black"/>
<path opacity="0.1" d="M124.673 514.301C124.673 514.301 163.703 532.982 207.819 516.565H214.045C214.045 516.565 232.713 526.752 246.848 514.863L247.835 549.634L132.003 546.012L124.673 514.301Z" fill="black"/>
<path d="M341.613 264.485C340.428 263.842 339.107 263.181 337.785 263.453C334.672 264.096 333.786 269.339 330.6 269.194C329.071 269.121 327.976 267.745 326.6 267.057C325.225 266.368 322.899 267.247 323.442 268.678C320.854 271.122 316.927 264.376 313.922 266.278C313.253 266.704 312.882 267.482 312.23 267.926C311.126 268.687 309.624 268.306 308.393 267.781C307.162 267.256 305.85 266.604 304.547 266.876C303.244 267.147 302.384 269.103 303.47 269.891L293.371 269.837C293.113 270.542 293.004 271.293 293.051 272.043C293.097 272.792 293.299 273.524 293.643 274.192L286.277 274.473C286.247 275.799 286.612 277.104 287.326 278.221C285.31 277.925 283.255 278.044 281.287 278.57C279.319 279.096 277.478 280.019 275.879 281.282L279.001 283.691C275.847 283.856 272.748 284.586 269.852 285.846L271.463 288.562C269.679 288.563 267.958 289.217 266.624 290.402C265.29 291.586 264.436 293.219 264.223 294.991L267.083 296.069C265.395 296.545 263.826 297.37 262.477 298.489C261.127 299.609 260.027 300.999 259.246 302.57L261.445 303.548C259.814 307.221 256.847 310.134 253.147 311.697C254.818 312.143 256.298 313.122 257.364 314.484C258.43 315.846 259.024 317.519 259.056 319.249C256.649 317.764 253.301 319.865 252.568 322.591C251.835 325.316 252.921 328.195 254.215 330.74C255.113 328.909 255.315 326.814 254.785 324.845C255.492 325.224 256.106 325.755 256.583 326.399C257.061 327.044 257.39 327.787 257.546 328.574C257.703 329.361 257.684 330.172 257.489 330.951C257.295 331.729 256.931 332.455 256.423 333.076C255.726 333.628 255.116 334.281 254.613 335.014C253.708 336.825 255.273 338.781 256.703 340.175C254.432 341.271 251.961 342.575 251.084 344.938C250.423 346.749 250.812 348.678 251.192 350.534C251.572 352.39 251.907 354.382 251.192 356.112C250.477 357.841 248.115 359 246.586 357.923C246.456 358.791 246.614 359.679 247.036 360.449C247.457 361.219 248.119 361.83 248.92 362.188C249.722 362.547 250.618 362.633 251.473 362.433C252.328 362.233 253.094 361.759 253.654 361.083C254.604 359.924 256.115 358.059 257.02 359.272C253.346 362.043 253.473 368.499 257.264 371.116C256.052 370.437 254.549 371.587 253.925 372.809C252.812 374.865 252.703 377.617 254.215 379.401C255.726 381.185 259.011 381.284 260.214 379.274C258.947 381.873 262.631 384.436 265.463 383.874C268.295 383.313 270.603 381.158 273.399 380.442C276.196 379.727 280.087 381.62 279.363 384.417C278.234 383.887 276.988 383.653 275.743 383.738C275.127 383.801 274.555 384.088 274.138 384.546C273.72 385.004 273.486 385.6 273.481 386.219C275.535 387.976 277.842 389.841 280.548 389.796C283.254 389.751 285.86 386.6 284.331 384.363C285.118 382.978 287.417 384.064 287.896 385.586C288.376 387.107 288.005 388.836 288.656 390.294C288.946 390.82 289.358 391.269 289.857 391.603C290.356 391.937 290.927 392.146 291.524 392.214C292.12 392.281 292.724 392.205 293.285 391.99C293.846 391.776 294.347 391.43 294.747 390.982C295.453 391.806 296.774 391.535 297.805 391.191C303.968 389.135 310.972 386.219 312.728 379.962C313.271 378.007 313.262 375.815 314.538 374.204C315.485 373.107 316.75 372.332 318.157 371.985C324.374 370.093 331.071 372.202 336.989 374.883C342.907 377.563 348.753 380.895 355.187 381.583C359.404 382.036 363.839 381.357 367.766 382.951C368.742 383.477 369.806 383.818 370.906 383.956C372.01 383.956 373.241 383.123 373.114 382.027C373.033 381.339 372.481 380.814 372.155 380.216C371.979 379.849 371.878 379.449 371.86 379.042C371.841 378.635 371.904 378.228 372.046 377.846C372.188 377.464 372.406 377.115 372.685 376.819C372.965 376.523 373.302 376.286 373.675 376.123C373.562 377.018 373.684 377.927 374.028 378.76C374.372 379.594 374.928 380.323 375.639 380.877C376.373 381.4 377.271 381.64 378.168 381.552C379.064 381.463 379.899 381.053 380.517 380.397C381.657 379.003 381.114 376.513 379.412 375.942C381.029 375.026 382.22 373.51 382.728 371.723C383.236 369.935 383.02 368.019 382.127 366.389C386.48 363.854 387.494 357.044 384.055 353.359C386.009 352.378 387.577 350.767 388.506 348.786C389.435 346.806 389.671 344.57 389.177 342.439C390.987 341.733 392.796 340.945 394.018 339.433C395.24 337.92 395.403 335.458 393.937 334.217C395.771 329.402 396.801 324.318 396.986 319.168C397.041 317.683 396.507 315.682 395.032 315.763C396.28 313.653 397.52 310.937 396.154 308.899C395.62 308.112 394.76 307.568 394.344 306.726C393.276 304.716 395.068 302.199 394.425 300.026C393.846 298.043 391.593 297.182 389.828 296.105C387.213 294.52 385.304 292.03 382.842 290.201C380.381 288.372 376.942 287.249 374.336 288.834C374.011 286.295 373.125 283.861 371.741 281.709C370.357 279.556 368.51 277.74 366.336 276.392C361.811 273.676 360.237 269.664 354.111 268.904C352.129 268.659 349.703 269.402 347.83 268.768C345.613 267.935 343.695 265.608 341.613 264.485Z" fill="#8C5B79"/>
<path opacity="0.05" d="M332.401 324.094C330.455 326.031 332.048 329.807 330.193 331.827C329.288 332.814 327.741 333.121 327.026 334.262C326.121 335.738 327.026 337.758 326.447 339.396C325.696 341.389 322.981 341.977 322.031 343.924C320.854 346.296 322.691 350.018 320.411 351.367C319.56 351.874 318.329 351.811 317.795 352.644C317.262 353.477 317.795 354.563 317.795 355.55C317.795 357.361 315.886 358.484 314.637 359.815C313.388 361.146 313.235 364.017 315.053 364.153C314.11 365.684 312.702 366.874 311.036 367.548C312.737 368.553 312.339 371.17 311.117 372.764C309.895 374.358 308.049 375.326 307.226 377.137C306.791 378.043 306.638 379.057 306.221 379.972C304.792 383.123 300.412 384.092 297.281 382.625C294.149 381.158 292.195 377.898 291.236 374.575C289.118 367.249 290.982 359.272 289.19 351.865C288.159 347.573 285.915 343.48 286.086 339.07C286.231 335.557 287.896 332.316 289.616 329.246C293.876 321.605 298.578 314.219 303.697 307.125C308.601 300.324 314.556 293.37 322.745 291.632C327.587 290.609 332.618 291.559 337.405 292.818C351.423 296.512 364.979 303.077 375.06 313.499C378.177 316.539 380.641 320.184 382.299 324.211C383.829 328.277 384.046 332.977 382.182 336.888C381.114 339.134 379.34 341.416 380.046 343.842C380.365 344.576 380.645 345.326 380.888 346.088C381.548 349.71 375.458 351.521 375.458 355.143C375.458 356.139 375.947 357.099 375.82 358.086C375.557 360.096 373.105 360.929 371.956 362.613C370.336 365.067 371.757 369.015 369.458 370.844C368.354 371.75 366.535 371.922 366.119 373.28C365.848 374.185 366.363 375.091 366.318 375.996C366.237 377.626 364.508 378.613 363.603 379.926C362.698 381.239 363.386 383.929 364.888 383.295L360.717 386.238L361.821 388.519C360.916 390.43 357.993 390.602 356.5 389.135C355.006 387.668 354.834 385.242 355.513 383.258C356.322 381.323 357.447 379.536 358.843 377.97C361.453 374.629 363.85 371.127 366.019 367.485C367.829 364.47 369.513 361.083 369.042 357.606C368.662 354.79 366.897 351.983 367.829 349.293L370.843 348.207L365.748 342.213L368.291 341.606C367.451 340.883 366.825 339.943 366.481 338.889C366.334 338.364 366.399 337.801 366.661 337.322C366.923 336.844 367.362 336.486 367.884 336.327C369.395 331.863 360.644 328.177 362.97 324.012H360.671C360.637 321.744 359.722 319.577 358.119 317.973C356.325 316.278 353.979 315.287 351.513 315.184C348.554 315.012 340.654 315.473 338.184 317.42C336.718 318.57 337.414 319.965 336.437 321.214C335.387 322.754 333.632 322.862 332.401 324.094Z" fill="black"/>
<path d="M379.177 445.737C378.684 448.969 377.579 452.076 375.919 454.892C373.973 457.627 371.393 459.849 368.399 461.366C366.399 462.48 364.273 463.431 362.191 464.336L347.323 470.801C342.725 473.354 337.347 474.118 332.22 472.947L304.692 469.099C301.398 468.637 298.068 468.193 294.738 467.551C292.638 467.17 290.548 466.727 288.503 466.201C284.164 465.143 279.986 463.511 276.078 461.348C267.454 456.422 264.06 446.688 264.947 436.782C265.789 427.356 269.589 420.411 276.467 413.909L278.367 412.098L278.539 411.944L283.154 407.571L289.896 401.232C292.941 398.52 295.73 395.535 298.231 392.313C303.76 384.725 305.723 372.9 313.126 366.824C319.406 361.671 333.668 369.097 339.423 372.972C340.372 373.516 341.164 374.295 341.722 375.236C342.145 376.318 342.267 377.494 342.075 378.64C341.418 385.771 339.39 392.708 336.102 399.068C335.46 400.309 334.754 401.658 334.989 403.034C335.069 403.49 335.242 403.925 335.496 404.311C336.285 405.338 337.313 406.156 338.491 406.693C340.108 407.528 341.766 408.28 343.459 408.947C349.577 411.374 356.074 412.931 362.164 415.503C369.929 418.79 377.494 424.431 379.521 432.617C380.625 436.9 380.055 441.427 379.177 445.737Z" fill="#C6866B"/>
<path d="M343.495 408.938C344.672 413.122 350.491 433.205 354.029 434.211C355.359 434.591 361.187 446.154 368.363 461.375C382.598 491.555 402.099 536.096 402.099 536.096L319.306 534.122L283.317 533.217L288.511 466.165L289.543 452.855L298.891 449.604L302.556 448.327L301.986 427.383C301.986 427.383 293.941 406.937 278.521 411.89L283.136 407.517C290.729 407.435 299.09 412.361 307.072 427.383C307.072 427.383 353.45 489.636 348.925 431.911C348.925 431.911 341.007 407.01 333.089 403.043L335.514 404.257L343.495 408.938Z" fill="#252036"/>
<path opacity="0.05" d="M338.175 392.105C339.294 388.439 340.031 384.668 340.374 380.85C340.566 379.704 340.444 378.527 340.021 377.445C339.463 376.505 338.671 375.725 337.722 375.182C331.967 371.306 317.714 363.881 311.425 369.033C310.759 369.593 310.133 370.198 309.552 370.844C316.073 381.288 326.296 388.882 338.175 392.105Z" fill="black"/>
<path d="M306.04 355.777C309.932 373.307 325.488 387.224 343.143 390.593C347.043 391.344 351.785 391.317 354.156 388.121C355.685 386.056 355.739 383.249 356.871 380.877C357.839 378.831 359.585 377.255 361.079 375.598C363.117 373.274 364.907 370.743 366.418 368.046C371.576 359.127 374.87 348.85 373.983 338.581C373.45 334.009 372.508 329.494 371.169 325.09C369.73 319.792 368.01 314.088 363.567 310.873C353.821 303.82 337.731 306.156 327.596 310.801C317.017 315.654 309.497 325.66 306.601 336.789C304.907 342.983 304.715 349.493 306.04 355.777V355.777Z" fill="#C6866B"/>
<path d="M332.401 322.962C330.456 324.899 332.048 328.675 330.193 330.695C329.288 331.682 327.741 331.989 327.026 333.13C326.121 334.606 327.026 336.626 326.447 338.265C325.696 340.257 322.981 340.845 322.031 342.792C320.854 345.164 322.691 348.886 320.411 350.235C319.56 350.742 318.329 350.679 317.795 351.512C317.262 352.345 317.795 353.431 317.795 354.418C317.795 356.229 315.886 357.352 314.637 358.683C313.388 360.014 313.235 362.885 315.053 363.021C314.11 364.552 312.702 365.742 311.036 366.416C312.737 367.421 312.339 370.038 311.117 371.632C309.895 373.226 308.095 374.285 307.235 376.06C306.8 376.965 306.647 377.979 306.23 378.894C304.801 382.045 300.421 383.014 297.29 381.547C294.159 380.08 292.204 376.82 291.245 373.497C289.127 366.172 290.991 358.194 289.199 350.787C288.168 346.495 285.924 342.403 286.096 337.993C286.24 334.48 287.905 331.238 289.625 328.168C293.885 320.527 298.587 313.141 303.706 306.047C308.61 299.247 314.565 292.293 322.755 290.554C327.596 289.531 332.627 290.482 337.414 291.74C351.432 295.435 364.988 302 375.069 312.422C378.186 315.461 380.65 319.107 382.308 323.134C383.838 327.199 384.055 331.899 382.191 335.811C381.123 338.056 379.349 340.338 380.055 342.765C380.374 343.498 380.655 344.248 380.897 345.01C381.557 348.632 375.467 350.443 375.467 354.065C375.467 355.061 375.956 356.021 375.829 357.008C375.567 359.018 373.114 359.851 371.965 361.536C370.345 363.989 371.766 367.937 369.467 369.767C368.363 370.672 366.544 370.844 366.128 372.202C365.857 373.108 366.372 374.013 366.327 374.919C366.246 376.549 364.517 377.536 363.612 378.849C362.707 380.162 363.395 382.851 364.897 382.217L360.726 385.16L361.83 387.442C360.925 389.352 358.002 389.524 356.509 388.057C355.015 386.591 354.844 384.164 355.522 382.181C356.331 380.245 357.457 378.458 358.852 376.893C361.462 373.552 363.859 370.049 366.029 366.407C367.838 363.392 369.522 360.005 369.051 356.528C368.671 353.712 366.906 350.905 367.838 348.216L370.852 347.129L365.757 341.135L368.3 340.528C367.46 339.805 366.834 338.866 366.49 337.812C366.343 337.286 366.408 336.724 366.67 336.245C366.932 335.766 367.371 335.409 367.893 335.249C369.404 330.785 360.653 327.1 362.979 322.935H360.68C360.646 320.666 359.731 318.5 358.129 316.895C356.334 315.2 353.988 314.21 351.522 314.106C348.563 313.934 340.663 314.396 338.193 316.343C336.727 317.493 337.424 318.887 336.446 320.137C335.387 321.622 333.632 321.73 332.401 322.962Z" fill="#8C5B79"/>
<path d="M562.834 659.189C561.757 664.622 558.4 670.227 555.459 674.863C555.025 675.542 554.608 676.221 554.183 676.9L553.522 677.987C548.716 685.915 544.628 694.258 541.306 702.915C540.528 704.934 539.795 706.963 539.125 709H502.611C500.149 705.242 498.991 700.959 498.086 696.776C496.631 689.819 495.846 682.739 495.742 675.633C495.667 671.027 495.881 666.421 496.385 661.842C496.385 661.425 496.484 661.009 496.539 660.583C497.244 655.304 498.891 649.717 504.222 646.485C504.646 646.223 505.084 645.985 505.534 645.769C505.653 645.7 505.777 645.639 505.905 645.588C508.334 644.534 510.871 643.748 513.47 643.243C517.216 642.41 521.011 641.728 524.854 641.197L526.067 641.043C528.196 640.765 530.338 640.539 532.492 640.364C533.713 640.255 534.935 640.164 536.166 640.092C542.681 639.721 549.74 639.911 554.952 642.971C559.142 645.453 561.468 648.35 562.508 651.456C562.563 651.61 562.617 651.773 562.662 651.936C563.299 654.305 563.358 656.792 562.834 659.189V659.189Z" fill="#0E0D15"/>
<path d="M617.709 658.962C614.181 661.899 611.49 665.716 609.909 670.027C609.728 670.471 609.565 670.933 609.411 671.368C607.357 677.326 606.769 683.945 606.407 690.166C606.045 696.386 605.674 702.725 605.312 709H541.659C541.505 706.972 541.378 704.943 541.306 702.915C541.088 697.717 541.11 692.517 541.369 687.313C541.446 683.834 541.929 680.376 542.808 677.009C542.916 676.647 543.025 676.284 543.152 675.922C543.278 675.56 543.505 674.953 543.704 674.473C546.563 667.709 552.844 662.847 559.703 660.23C560.735 659.841 561.775 659.497 562.834 659.189C568.798 657.45 575.114 656.988 581.349 656.789C591.439 656.463 608.787 654.408 617.709 658.962Z" fill="#0E0D15"/>
<path d="M543.387 407.634C543.506 410.238 543.185 412.843 542.437 415.34C540.935 419.532 537.17 422.584 533.016 424.196C528.863 425.807 524.32 426.007 519.877 426.007C514.13 425.925 507.606 425.626 503.588 429.71C500.982 432.327 500.095 436.139 499.316 439.752C496.502 452.773 493.76 466.79 498.945 479.059C502.23 486.847 508.511 493.131 515.786 497.423C523.062 501.715 531.315 504.114 539.64 505.572C542.949 506.169 546.305 506.469 549.667 506.469C561.142 506.36 571.856 501.036 582.1 495.902C584.375 494.917 586.456 493.534 588.245 491.818C589.848 489.863 591.075 487.628 591.864 485.226C597.372 471.209 602.344 456.999 606.778 442.595C607.954 438.774 609.103 434.862 609.031 430.824C608.959 426.785 607.484 422.675 604.298 420.248C599.439 416.626 592.652 418.038 586.607 418.736C586.18 418.871 585.728 418.904 585.287 418.831C584.845 418.759 584.427 418.583 584.066 418.318C583.706 418.054 583.413 417.707 583.211 417.308C583.009 416.908 582.905 416.467 582.906 416.019C581.187 409.457 580.974 402.591 582.281 395.935C583.105 391.788 584.462 387.279 582.525 383.521C579.865 378.36 572.843 377.798 567.033 377.925L557.079 378.142C555.611 378.046 554.144 378.34 552.825 378.994C550.599 380.37 549.079 382.616 546.753 384.001C544.808 385.169 543.586 385.024 542.781 387.297C541.975 389.57 543.106 394.152 543.197 396.624C543.342 400.318 543.405 403.988 543.387 407.634Z" fill="#354EC1"/>
<path opacity="0.05" d="M515.596 471.526C516.958 473.51 518.612 475.278 520.501 476.768C524.428 479.557 529.758 479.702 534.374 478.308C538.989 476.913 543.052 474.17 547.043 471.462L579.693 449.296C584.217 446.235 588.742 443.148 593.909 441.373C595.222 440.797 596.686 440.663 598.081 440.992C599.403 441.589 600.521 442.562 601.294 443.79C605.61 449.377 610.008 455.109 612.153 461.828C614.18 468.067 614.162 474.758 614.089 481.314C613.993 490.272 613.839 499.231 613.628 508.189C613.51 513.251 613.356 518.376 611.89 523.22C609.827 530.057 605.23 536.042 604.017 543.078C602.76 550.367 605.303 557.71 607.637 564.746C617.091 593.581 623.123 623.429 625.609 653.674C625.835 656.481 625.998 659.487 624.596 661.923C623.483 663.87 621.528 665.183 619.591 666.324C594.796 680.966 563.974 679.834 535.432 676.112C529.596 675.352 523.442 674.365 518.935 670.58C515.741 667.863 513.732 664.087 511.904 660.339C503.171 642.41 496.629 622.842 497.425 602.921C497.839 596.394 498.616 589.895 499.751 583.453C501.561 571.845 503.141 560.209 504.493 548.547C505.497 540.044 506.357 531.207 503.588 523.093C500.801 514.681 494.321 507.827 491.751 499.315C487.978 486.774 493.244 473.183 498.33 461.801C499.959 458.179 508.284 427.392 509.859 427.138C514.474 426.305 511.904 466.672 515.596 471.526Z" fill="black"/>
<path d="M518.676 429.547C520.038 431.532 525.678 438.379 527.568 439.87C531.495 442.659 529.544 442.52 535.472 445.347C541.399 448.173 545.351 450.284 560.17 450.284L579.693 448.173C584.217 445.113 588.742 442.025 593.909 440.25C595.222 439.674 596.686 439.54 598.081 439.87C599.403 440.467 600.52 441.44 601.293 442.668C605.61 448.255 610.008 453.986 612.153 460.705C614.18 466.944 614.162 473.636 614.089 480.191C613.993 489.15 613.839 498.108 613.628 507.066C613.51 512.128 613.356 517.253 611.89 522.098C609.827 528.934 605.23 534.919 604.017 541.955C602.759 549.244 605.302 556.588 607.637 563.623C617.091 592.459 623.123 622.307 625.609 652.552C625.835 655.359 625.998 658.365 624.596 660.801C623.482 662.748 621.528 664.061 619.591 665.202C594.796 679.843 563.974 678.712 535.432 674.99C529.605 674.229 523.424 673.233 518.899 669.448C515.705 666.732 513.696 662.956 511.868 659.207C503.135 641.278 496.592 621.711 497.389 601.79C497.803 595.262 498.579 588.763 499.715 582.322C501.524 570.713 503.105 559.078 504.456 547.415C505.461 538.913 506.321 530.075 503.551 521.962C500.701 513.55 494.213 506.695 491.652 498.193C487.878 485.652 493.145 472.06 498.23 460.678C499.859 457.056 508.185 426.269 509.759 426.016C514.474 425.174 514.984 424.685 518.676 429.547Z" fill="#213CBB"/>
<path opacity="0.05" d="M633.021 423.037C632.514 427.917 631.546 432.934 628.75 436.972C624.714 442.794 617.655 445.574 611.022 448.046L589.828 455.915C585.79 457.544 581.626 458.841 577.376 459.791C575.343 460.184 573.283 460.426 571.214 460.515C563.148 460.717 555.137 459.14 547.749 455.897C538.428 451.976 530.066 446.109 522.067 439.915C517.153 436.103 512.33 432.128 508.321 427.383C505.226 423.761 502.538 419.288 502.755 414.498C502.979 412.193 503.515 409.93 504.348 407.77C507.39 398.532 509.619 389.046 511.009 379.419C512.488 369.18 512.973 358.821 512.456 348.488C512.266 344.693 511.932 340.89 512.456 337.124C514.266 323.614 518.881 314.323 529.65 306.02C531.94 304.263 541.306 302.045 544.075 301.239L544.591 301.112C549.559 300.089 559.314 303.512 563.911 305.078C572.739 308.05 580.434 313.679 585.942 321.196C591.449 328.712 594.501 337.747 594.679 347.066C594.751 350.416 594.634 354.228 596.606 356.764C596.855 357.096 597.141 357.4 597.457 357.669C598.561 358.575 599.973 359.127 601.131 360.005C604.334 362.441 604.859 367.068 604.325 371.052C603.792 375.037 602.461 379.003 602.986 382.987C603.108 383.877 603.314 384.753 603.601 385.604C604.742 389.026 607.04 392.06 609.285 394.948L618.379 406.72C620.035 408.857 621.872 411.12 624.433 411.926L624.696 412.008C626.243 412.424 627.917 412.27 629.392 412.913C632.994 414.335 633.419 419.179 633.021 423.037Z" fill="black"/>
<path d="M407.737 298.36C396.072 306.165 392.796 321.441 387.946 334.579C386.073 339.65 383.838 344.63 382.77 349.973C381.421 356.619 381.973 363.483 381.865 370.265C381.442 384.526 377.927 398.525 371.563 411.292C365.198 424.059 356.137 435.29 345.007 444.207L411.791 464.128C416.026 465.476 420.334 466.579 424.695 467.433C431.03 468.547 437.473 468.61 443.898 468.665L484.783 469.027C487.869 469.027 491.48 468.827 493.217 466.31C493.995 465.014 494.356 463.509 494.249 462C494.104 453.715 487.806 446.978 484.711 439.299C479.734 426.949 491.109 415.603 490.683 402.292C490.484 396.107 490.276 386.962 490.683 380.787C491.588 366.489 491.733 353.432 490.104 339.188C488.294 323.197 474.186 311.86 461.201 302.353C447.084 292.021 423.175 288.064 407.737 298.36Z" fill="#D94B25"/>
<path d="M422.759 364.315L422.478 411.012C414.877 411.411 407.333 412.554 399.955 414.425C393.786 415.965 388.411 419.747 384.876 425.034C381.341 430.322 379.9 436.737 380.833 443.03L389.675 503.263L485.263 508.922V450.627C483.891 444.067 480.048 438.288 474.532 434.488C469.015 430.688 462.249 429.158 455.635 430.217L451.889 430.815L460.377 382.145L422.759 364.315Z" fill="#FFC095"/>
<path d="M390.242 417.698C390.242 417.698 393.48 456.186 395.181 464.109C396.883 472.032 387.412 492.515 382.317 489.681C377.222 486.847 377.793 556.461 377.793 556.461L476.213 546.835L478.476 532.683C478.476 532.683 503.932 521.925 480.738 478.915L470.266 430.535C470.266 430.535 484.693 491.273 427.784 464.109L405.511 408.168L390.242 417.698Z" fill="#4C4465"/>
<path opacity="0.05" d="M477.625 531.84C477.625 531.84 458.395 533.543 456.694 529.577L453.301 529.006C453.301 529.006 447.645 541.457 394.48 528.436L377.729 527.865L374.11 536.377L477.779 539.773L477.625 531.84Z" fill="black"/>
<path opacity="0.05" d="M423.718 395.736C424.869 396.54 426.107 397.208 427.41 397.728C430.632 398.978 434.17 399.086 437.618 399.177C443.835 399.34 450.577 399.358 455.581 395.664C457.847 393.931 459.64 391.654 460.794 389.044L461.499 384.979L423.881 367.177L423.718 395.736Z" fill="black"/>
<path d="M400.353 339.107C399.211 348.441 400.298 357.913 403.522 366.746C406.747 375.58 412.018 383.522 418.904 389.923C421.028 392.007 423.519 393.68 426.252 394.858C429.473 396.107 433.012 396.216 436.46 396.307C442.676 396.47 449.418 396.488 454.422 392.793C460.359 388.42 461.915 380.361 463.028 373.072L466.503 350.335C467.517 343.716 468.458 336.589 465.436 330.613C460.277 320.381 440.351 310.937 429.13 312.114C414.424 313.68 402.289 324.619 400.353 339.107Z" fill="#FFC095"/>
<path opacity="0.05" d="M414.895 332.053C411.701 338.817 409.465 346.36 410.66 353.785C411.682 360.123 415.112 365.701 418.56 371.079C426.36 383.231 434.912 395.709 436.487 410.07C437.048 415.204 436.65 420.565 434.414 425.21C432.179 429.855 427.89 433.694 422.795 434.527C421.394 434.833 419.932 434.671 418.632 434.065C417.031 433.16 416.162 431.449 415.347 429.828C411.429 422.022 392.851 419.786 384.29 421.524C383.096 421.769 393.385 416.091 392.181 415.919C388.67 415.403 388.027 410.649 388.281 407.109L393.213 338.781C393.493 334.914 393.783 330.993 395.023 327.317C399.547 314.079 415.176 308.039 429.157 307.641C433.495 307.459 437.839 307.842 442.079 308.782C451.834 311.091 460.35 317.284 466.947 324.836C471.472 330.043 475.308 336.091 476.811 342.837C478.53 350.561 477.127 358.602 475.842 366.38C469.797 403.098 466.494 441.472 477.752 476.931C467.046 479.105 455.318 471.499 452.911 460.85C451.952 456.594 452.332 452.166 452.712 447.829C454.169 431.222 455.626 414.606 458.142 398.136C460.087 385.585 462.667 373.063 462.847 360.358C462.992 350 461.21 338.925 454.205 331.292C442.812 318.796 423.03 314.848 414.895 332.053Z" fill="black"/>
<path d="M414.895 330.957C411.701 337.721 409.465 345.264 410.66 352.689C411.682 359.027 415.112 364.605 418.56 369.984C426.36 382.136 434.912 394.613 436.487 408.974C437.048 414.109 436.65 419.469 434.414 424.114C432.179 428.759 427.89 432.599 422.795 433.432C421.394 433.738 419.932 433.575 418.632 432.97C417.031 432.064 416.162 430.353 415.347 428.732C411.429 420.927 392.851 418.69 384.29 420.429C383.096 420.673 393.385 414.996 392.181 414.824C388.67 414.308 388.027 409.554 388.281 406.013L393.213 337.685C393.493 333.819 393.783 329.898 395.023 326.221C399.547 312.983 415.176 306.944 429.157 306.545C433.495 306.363 437.839 306.747 442.079 307.686C451.834 309.995 460.35 316.189 466.947 323.74C471.472 328.947 475.308 334.996 476.811 341.742C478.53 349.465 477.127 357.506 475.842 365.284C469.797 402.002 466.494 440.377 477.752 475.836C467.046 478.009 455.318 470.403 452.911 459.754C451.952 455.499 452.332 451.071 452.712 446.733C454.169 430.127 455.626 413.511 458.142 397.04C460.087 384.49 462.667 371.967 462.847 359.263C462.992 348.904 461.21 337.83 454.205 330.197C442.812 317.665 423.03 313.753 414.895 330.957Z" fill="#D94B25"/>
<path d="M532.491 539.546H185.195V709H532.491V539.546Z" fill="#F3F0DD"/>
<path d="M105.407 423.417C102.466 424.929 99.4615 426.459 97.1721 428.85C94.8826 431.24 93.3532 434.582 92.1497 437.814C89.2086 445.728 87.3806 454.004 85.5617 462.263C79.0733 491.673 72.5668 521.255 71.1552 551.336C70.8022 558.761 70.7841 566.294 72.6211 573.493C74.6301 581.353 78.7928 588.479 83.1817 595.306C97.3794 617.365 114.486 637.406 134.039 654.888C135.245 655.853 136.295 656.999 137.152 658.283C137.78 659.517 138.286 660.809 138.663 662.141C142.283 672.473 152.382 678.874 161.784 684.479C165.558 686.725 169.44 689.007 173.775 689.74C176.01 690.111 178.3 690.066 180.444 690.917C183.72 692.23 185.874 695.445 189.023 697.066C192.172 698.687 197.421 696.776 196.57 693.344C199.52 695.617 204.253 690.8 201.927 687.911C204.253 689.405 207.475 686.933 207.773 684.181C208.072 681.428 206.515 678.847 205.058 676.52C199.955 668.543 194.679 660.384 187.023 654.788C178.833 648.839 168.581 646.367 160.147 640.771C151.948 635.338 145.903 627.27 140.129 619.302C128.317 603.003 116.906 586.427 105.896 569.572C104.448 567.354 102.973 565.045 102.475 562.464C101.977 559.884 102.475 557.031 103.072 554.405C108.453 529.29 116.079 504.71 125.859 480.961C128.366 474.529 131.392 468.312 134.908 462.371C139.776 454.484 146.093 447.548 150.78 439.553C155.468 431.557 158.5 421.914 155.92 413.004C153.414 404.329 142.346 395.12 134.302 401.73C129.777 405.416 126.646 410.45 121.705 413.964C116.507 417.504 111.061 420.664 105.407 423.417Z" fill="#FFC095"/>
<path d="M390.661 590.833C388.593 585.924 385.59 581.465 381.819 577.704C380.063 575.945 378.152 574.348 376.109 572.932L375.937 572.805C370.472 569.077 364.195 566.713 357.629 565.911C351.064 565.109 344.402 565.893 338.202 568.196C337.924 568.293 337.643 568.401 337.36 568.522C337.088 568.621 336.817 568.739 336.555 568.848C327.91 572.498 320.766 578.986 316.299 587.242C311.832 595.498 310.308 605.03 311.977 614.268C313.647 623.506 318.412 631.9 325.486 638.067C332.561 644.234 341.523 647.807 350.898 648.196V668.778H328.636V672.237H350.898V694.512H354.364V672.237H376.616V668.778H354.355V648.178C361.014 647.893 367.505 646 373.275 642.661C379.044 639.322 383.92 634.635 387.487 629.001C391.054 623.367 393.206 616.953 393.758 610.307C394.311 603.661 393.248 596.979 390.661 590.833V590.833ZM352.653 644.773C343.671 644.766 334.984 641.561 328.146 635.731C321.309 629.902 316.768 621.829 315.334 612.956C313.901 604.083 315.669 594.989 320.323 587.301C324.977 579.613 332.212 573.833 340.735 570.994L341.432 570.758C345.067 569.635 348.849 569.065 352.653 569.065C358.829 569.056 364.912 570.571 370.363 573.475L370.544 573.575C377.969 577.563 383.851 583.917 387.256 591.631C390.661 599.345 391.394 607.975 389.339 616.153C387.284 624.331 382.559 631.588 375.913 636.773C369.267 641.958 361.081 644.774 352.653 644.773V644.773Z" fill="#5271FF"/>
<path d="M151.016 316.75C147.722 325.307 149.523 334.86 151.369 343.915C152.427 349.067 153.513 354.301 156.02 358.928C158.046 362.533 160.725 365.73 163.92 368.354C171.816 374.936 181.699 378.662 191.973 378.93C194.025 379.093 196.087 378.783 198 378.025C200.407 376.92 202.072 374.692 203.629 372.592C207.565 367.159 211.538 361.726 214.244 355.641C219.103 344.675 219.583 332.343 219.981 320.327C220.161 318.557 219.977 316.77 219.438 315.075C218.991 314.066 218.406 313.125 217.7 312.277C210.461 302.815 196.606 287.629 183.485 292.057C171.268 296.114 155.902 304.046 151.016 316.75Z" fill="#FFC095"/>
<path opacity="0.05" d="M186.109 691.47C184.01 690.628 181.675 690.673 179.44 690.293C175.105 689.568 171.223 687.277 167.449 685.032C158.038 679.427 147.957 673.025 144.328 662.693C143.951 661.361 143.445 660.069 142.817 658.836C141.959 657.551 140.91 656.406 139.704 655.44C120.151 637.958 103.044 617.917 88.8467 595.859C84.4577 589.031 80.295 581.905 78.2861 574.046C76.4762 566.847 76.4762 559.313 76.8201 551.888C78.2318 521.808 84.7382 492.225 91.2266 462.815C93.0365 454.566 94.8464 446.29 97.8146 438.367C99.0181 435.134 100.448 431.892 102.837 429.402C105.226 426.912 108.131 425.482 111.072 423.969C116.723 421.213 122.166 418.05 127.361 414.507C132.302 410.994 135.46 405.959 139.957 402.274C140.951 401.457 142.094 400.841 143.324 400.463C141.785 399.981 140.149 399.894 138.568 400.21C136.986 400.527 135.51 401.236 134.274 402.274C129.75 405.959 126.619 410.994 121.678 414.507C116.483 418.05 111.04 421.213 105.389 423.969C102.448 425.482 99.4435 427.012 97.154 429.402C94.8645 431.793 93.3351 435.134 92.1316 438.367C89.1905 446.281 87.3626 454.557 85.5436 462.815C79.1005 492.225 72.5578 521.799 71.1461 551.897C70.7932 559.322 70.7751 566.856 72.6121 574.055C74.6211 581.914 78.7838 589.041 83.1727 595.868C97.3704 617.926 114.477 637.968 134.03 655.449C135.236 656.415 136.286 657.56 137.143 658.845C137.771 660.078 138.277 661.37 138.654 662.702C142.274 673.034 152.373 679.436 161.775 685.041C165.549 687.286 169.431 689.568 173.766 690.302C176.001 690.673 178.291 690.628 180.435 691.479C183.711 692.792 185.865 696.006 189.014 697.627C189.881 698.016 190.823 698.211 191.774 698.197C192.725 698.183 193.661 697.96 194.516 697.546C191.457 695.87 189.331 692.765 186.109 691.47Z" fill="black"/>
<path d="M161.377 311.381C155.875 320.209 154.853 331.419 157.477 341.488C159.441 349.04 163.35 356.882 160.708 364.252C158.717 369.785 153.17 375.299 155.921 380.497C156.536 381.656 157.531 382.616 157.893 383.874C158.509 386.02 157.124 388.148 156.165 390.158C151.152 400.626 157.142 412.66 160.074 423.888C162.246 432.2 162.689 440.848 163.124 449.432L157.694 435.551C155.457 447.196 150.612 458.183 143.523 467.687C147.51 467.731 151.471 468.341 155.287 469.498C152.463 469.157 149.615 469.893 147.307 471.557C145 473.221 143.403 475.693 142.833 478.482C142.263 481.27 142.762 484.171 144.231 486.608C145.7 489.045 148.032 490.84 150.762 491.637C145.206 492.868 139.469 489.083 136.808 484.049C134.148 479.014 133.94 473.065 134.256 467.379L129.732 467.75C134.255 456.874 136.18 445.092 135.351 433.341C134.98 428.144 133.27 422.004 128.293 420.474L126.8 434.265L120.728 422.023C120.336 420.947 119.593 420.034 118.619 419.433C117.878 419.201 117.122 419.02 116.357 418.89C113.977 418.156 113.054 415.05 113.796 412.678C114.538 410.306 116.447 408.504 118.266 406.801C124.42 401.042 130.555 394.903 133.885 387.161C136.98 379.972 137.424 371.958 137.749 364.135C138.136 354.965 138.437 345.789 138.654 336.608C138.808 329.364 138.908 322.065 140.464 315.003C143.179 303.041 150.419 291.931 161.07 285.819C171.721 279.706 185.621 279.154 196.1 285.502C202.434 289.323 207.113 295.227 211.683 301.004L224.795 317.574C227.51 321.006 230.279 324.537 231.537 328.721C233.854 336.436 230.632 344.685 226.705 351.738C222.777 358.792 218.063 365.737 217.103 373.733C215.999 382.978 220.117 391.951 224.135 400.345C229.238 411.012 234.424 421.814 242.107 430.797C246.016 435.37 250.74 439.806 251.844 445.719C251.011 446.4 250.03 446.875 248.98 447.106C247.93 447.337 246.84 447.318 245.799 447.05C248.918 459.45 251.412 471.985 253.283 484.655C242.152 477.315 231.356 469.498 220.895 461.203C220.459 463.266 219.51 465.184 218.135 466.782C216.761 468.379 215.005 469.603 213.031 470.34C212.714 466.826 213.936 463.367 214.108 459.845C214.28 456.323 212.922 452.212 209.583 451.152C207.629 450.537 205.312 451.062 203.656 449.857C202.443 448.952 201.973 447.413 201.575 445.955L194.027 418.229C189.441 418.009 184.887 419.108 180.906 421.398C186.583 418.227 190.803 412.969 192.67 406.738L176.969 406.493C181.114 402.57 185.129 398.516 189.014 394.333C194.67 388.248 200.072 381.855 204.19 374.638C215.746 354.419 215.909 328.15 204.597 307.786C202.724 304.408 200.489 301.121 197.358 298.903C186.037 291.034 167.585 301.429 161.377 311.381Z" fill="#D67820"/>
<path opacity="0.05" d="M228.415 535.064C228.415 532.646 229.573 530.392 230.768 528.291C232.415 525.411 234.182 522.604 236.071 519.87C237.426 517.649 239.218 515.727 241.337 514.22C243.536 512.843 246.477 512.409 248.722 513.676C249.213 514.067 249.801 514.317 250.423 514.401C251.328 514.401 251.925 513.495 252.73 513.151C254.178 512.481 255.843 513.549 256.857 514.79C257.87 516.031 258.667 517.506 260.124 518.222C260.649 518.475 261.237 518.593 261.771 518.828C263.626 519.643 264.612 521.645 265.445 523.501C266.105 524.728 266.491 526.085 266.576 527.476C266.576 529.903 264.766 531.886 263.056 533.624L258.676 538.152C257.564 539.418 256.268 540.507 254.83 541.384C254.106 541.817 253.295 542.081 252.455 542.158C251.616 542.235 250.769 542.122 249.979 541.828C249.595 541.581 249.141 541.463 248.685 541.493C248.344 541.614 248.052 541.843 247.853 542.145C246.884 543.334 245.977 544.573 245.138 545.857C244.428 547.215 243.4 548.38 242.143 549.253C240.803 549.996 238.785 549.751 238.179 548.348C238.106 548.07 237.966 547.815 237.772 547.605C237.22 547.17 236.514 547.877 235.871 548.148C234.795 548.61 233.528 547.705 233.157 546.591C232.901 545.442 232.97 544.244 233.356 543.132C232.55 542.48 231.374 542.869 230.333 542.924C228.189 543.041 228.623 541.665 228.677 540.415C228.849 538.586 228.46 536.875 228.415 535.064Z" fill="black"/>
<path d="M227.881 536.196C227.881 533.778 229.039 531.524 230.234 529.423C231.881 526.544 233.648 523.736 235.537 521.002C236.892 518.782 238.684 516.859 240.803 515.352C243.002 513.975 245.943 513.541 248.188 514.808C248.679 515.199 249.267 515.449 249.889 515.533C250.794 515.533 251.391 514.627 252.196 514.283C253.644 513.613 255.309 514.682 256.323 515.922C257.336 517.163 258.133 518.639 259.59 519.354C260.115 519.607 260.703 519.725 261.237 519.961C263.092 520.776 264.078 522.777 264.911 524.633C265.571 525.86 265.957 527.217 266.042 528.608C266.042 531.035 264.232 533.018 262.522 534.756L258.142 539.284C257.031 540.55 255.734 541.64 254.296 542.516C253.572 542.949 252.761 543.214 251.921 543.29C251.082 543.367 250.236 543.254 249.445 542.96C249.061 542.713 248.607 542.595 248.151 542.625C247.81 542.746 247.518 542.975 247.319 543.277C246.35 544.466 245.444 545.705 244.604 546.99C243.894 548.347 242.866 549.512 241.609 550.385C240.269 551.128 238.251 550.883 237.645 549.48C237.572 549.203 237.432 548.948 237.238 548.737C236.686 548.303 235.98 549.009 235.338 549.28C234.261 549.742 232.994 548.837 232.623 547.723C232.367 546.574 232.436 545.376 232.822 544.264C232.016 543.612 230.84 544.001 229.799 544.056C227.655 544.174 228.089 542.797 228.143 541.548C228.279 539.718 227.899 538.007 227.881 536.196Z" fill="#FFC095"/>
<path opacity="0.05" d="M379.774 490.532L324.98 532.99L286.973 562.41C263.78 583.915 256.432 553.355 256.432 553.355L262.087 464.499C261.879 441.735 265.617 428.46 270.494 420.791C274.521 414.453 279.327 411.953 283.326 411.084L283.996 410.957C286.493 410.495 289.063 410.613 291.507 411.301C307.796 417.685 307.235 435.849 304.529 448.517C303.582 453.008 302.253 457.409 300.556 461.674C300.607 463.264 300.549 464.855 300.384 466.437C299.271 480.87 293.769 519.408 293.769 519.408L359.377 474.695L379.774 490.532Z" fill="black"/>
<path d="M378.073 490.532L323.279 532.99L285.272 562.41C262.079 583.915 254.73 553.355 254.73 553.355L260.386 464.499C260.178 441.735 263.916 428.46 268.793 420.791C272.82 414.453 277.625 411.953 281.625 411.084L282.295 410.957C284.792 410.495 287.361 410.613 289.806 411.301C306.095 417.685 305.534 435.849 302.828 448.517C301.88 453.008 300.551 457.409 298.855 461.674C298.905 463.264 298.848 464.855 298.683 466.437C297.57 480.87 292.068 519.408 292.068 519.408L357.676 474.695L378.073 490.532Z" fill="#C6866B"/>
<path opacity="0.05" d="M361.386 460.252C361.386 460.252 331.976 528.735 336.5 560.997C336.5 560.997 329.713 580.81 384.009 571.755L460.929 554.777L481.86 559.875L486.385 565.534V581.38C486.385 581.38 492.611 585.907 494.303 581.38C495.995 576.853 494.303 564.963 494.303 564.963L498.267 571.755L499.968 585.337C499.968 585.337 504.493 588.733 506.194 585.337L503.923 565.48C503.923 565.48 512.972 584.16 516.935 582.458C520.899 580.755 511.841 559.25 511.841 559.25C513.609 559.248 515.346 559.718 516.873 560.611C518.4 561.503 519.662 562.787 520.528 564.33C522.338 567.472 524.673 570.668 526.546 569.446C529.939 567.182 526.546 560.952 526.546 560.952L518.628 549.633C507.609 541.182 494.159 536.514 480.277 536.323L378.924 534.919C378.924 534.919 393.068 501.525 394.199 485.117C394.199 485.117 394.769 474.93 407.212 468.139C419.655 461.348 376.091 400.825 361.386 460.252Z" fill="black"/>
<path d="M403.239 424.024C403.239 424.024 374.96 400.816 360.255 460.243C360.255 460.243 330.845 528.726 335.369 560.988C335.369 560.988 328.582 580.8 382.878 571.746L459.798 554.768L480.729 559.866L485.254 565.525V581.371C485.254 581.371 491.48 585.898 493.172 581.371C494.864 576.843 493.172 564.954 493.172 564.954L497.136 571.746L498.837 585.328C498.837 585.328 503.362 588.724 505.063 585.328L502.791 565.48C502.791 565.48 511.841 584.16 515.804 582.458C519.768 580.755 510.755 559.295 510.755 559.295C512.523 559.293 514.26 559.763 515.787 560.656C517.314 561.549 518.576 562.832 519.442 564.375C521.252 567.517 523.587 570.713 525.46 569.491C528.854 567.227 525.46 560.997 525.46 560.997L517.542 549.679C506.523 541.227 493.073 536.559 479.191 536.368L377.838 534.964C377.838 534.964 391.982 501.57 393.113 485.162C393.113 485.162 393.683 474.976 406.126 468.184C418.569 461.393 403.239 424.024 403.239 424.024Z" fill="#FFC095"/>
<path opacity="0.05" d="M592.724 429.121C592.724 429.121 632.885 399.693 634.578 455.154L636.849 570.007L572.363 639.096C572.363 639.096 568.4 652.117 556.527 653.249L543.514 669.095C543.514 669.095 537.288 669.665 538.419 667.392C539.55 665.12 547.468 649.844 547.468 649.844L530.501 672.481C530.501 672.481 525.406 670.779 527.107 669.086C527.107 669.086 521.452 675.316 520.32 669.656C519.189 663.997 520.32 665.129 520.32 665.129C520.32 665.129 512.963 670.788 514.665 662.865C516.366 654.942 531.071 629.47 532.763 629.47C534.455 629.47 554.255 627.768 554.255 627.768L608.552 561.55C608.552 561.55 590.453 484.583 585.358 457.418C580.263 430.253 592.724 429.121 592.724 429.121Z" fill="black"/>
<path d="M593.855 429.121C593.855 429.121 634.016 399.693 635.708 455.154L637.98 570.007L573.494 639.096C573.494 639.096 569.53 652.117 557.658 653.249L544.645 669.095C544.645 669.095 538.419 669.665 539.55 667.392C540.681 665.12 548.599 649.844 548.599 649.844L531.632 672.481C531.632 672.481 526.537 670.779 528.238 669.086C528.238 669.086 522.582 675.316 521.451 669.656C520.32 663.997 521.451 665.129 521.451 665.129C521.451 665.129 514.094 670.788 515.795 662.865C517.497 654.942 532.202 629.47 533.894 629.47C535.586 629.47 555.386 627.768 555.386 627.768L609.682 561.55C609.682 561.55 591.584 484.583 586.489 457.418C581.394 430.253 593.855 429.121 593.855 429.121Z" fill="#FDBE92"/>
<path d="M635.708 455.154C634.016 399.693 593.855 429.121 593.855 429.121C593.855 429.121 581.394 430.253 586.488 457.418C591.583 484.583 609.682 561.55 609.682 561.55L555.386 627.768C564.122 633.953 573.494 639.096 573.494 639.096L637.979 570.007L635.708 455.154Z" fill="#354EC1"/>
<path d="M633.021 421.334C632.514 426.215 631.546 431.231 628.749 435.27C624.713 441.092 617.655 443.872 611.022 446.344L589.837 454.222C585.799 455.851 581.634 457.147 577.385 458.097C575.352 458.49 573.292 458.733 571.223 458.822C563.157 459.024 555.146 457.447 547.758 454.204C538.437 450.283 530.075 444.415 522.076 438.222C517.162 434.41 512.338 430.435 508.33 425.69C505.235 422.068 502.547 417.595 502.764 412.805C502.988 410.5 503.524 408.237 504.357 406.077C507.399 396.839 509.627 387.352 511.017 377.726C512.497 367.486 512.982 357.127 512.465 346.794C512.275 343 511.94 339.197 512.465 335.43C514.275 321.92 518.89 312.63 529.659 304.327C531.948 302.57 541.315 300.352 544.084 299.546L544.599 299.419C549.568 298.396 559.323 301.818 563.92 303.385C572.748 306.357 580.443 311.986 585.95 319.502C591.458 327.018 594.51 336.054 594.688 345.373C594.76 348.723 594.642 352.535 596.615 355.07C596.864 355.403 597.149 355.707 597.466 355.976C598.57 356.881 599.981 357.434 601.14 358.312C604.343 360.748 604.868 365.375 604.334 369.359C603.8 373.343 602.47 377.309 602.995 381.294C603.116 382.183 603.322 383.06 603.61 383.91C604.75 387.333 607.049 390.367 609.293 393.255L618.388 405.026C620.044 407.163 621.881 409.427 624.442 410.233L624.704 410.315C626.252 410.731 627.926 410.577 629.401 411.22C632.993 412.633 633.419 417.486 633.021 421.334Z" fill="#F3F0DD"/>
<path opacity="0.05" d="M522.293 341.226C518.365 348.768 517.099 357.434 516.936 365.936C516.845 370.292 517.044 374.72 518.429 378.849C519.681 382.158 521.305 385.315 523.27 388.257L531.903 402.31C533.071 404.212 534.338 406.213 536.328 407.227C538.319 408.241 540.971 408.078 543.333 407.788C548.952 407.1 554.662 406.222 559.703 403.65C566.2 400.336 571.006 394.532 575.621 388.882C577.107 387.492 578.231 385.76 578.895 383.836C579.559 381.912 579.743 379.855 579.431 377.844L578.435 355.406C578.453 353.124 578.114 350.854 577.431 348.678C575.458 343.381 569.911 340.528 565.187 337.441C558.228 332.913 550.373 325.533 541.378 326.05C533.125 326.52 525.885 334.335 522.293 341.226Z" fill="black"/>
<path d="M522.293 340.094C518.365 347.636 517.099 356.302 516.936 364.804C516.845 369.16 517.044 373.588 518.429 377.717C519.683 381.017 521.307 384.164 523.27 387.098L531.903 401.151C533.071 403.052 534.338 405.053 536.328 406.068C538.319 407.082 540.971 406.919 543.333 406.629C548.952 405.941 554.662 405.063 559.703 402.491C566.2 399.177 571.006 393.373 575.621 387.722C577.107 386.333 578.231 384.6 578.895 382.676C579.559 380.753 579.743 378.696 579.431 376.684L578.444 354.237C578.462 351.956 578.123 349.686 577.44 347.509C575.467 342.212 569.92 339.36 565.196 336.272C558.237 331.745 550.382 324.365 541.387 324.881C533.125 325.388 525.885 333.203 522.293 340.094Z" fill="#FDBE92"/>
<g opacity="0.1">
<path opacity="0.1" d="M544.13 398.606C547.172 389.368 549.401 379.882 550.791 370.255C552.093 361.232 552.626 352.114 552.383 343C552.217 349.28 551.685 355.544 550.791 361.762C549.401 371.388 547.172 380.875 544.13 390.113C543.297 392.273 542.761 394.536 542.538 396.84C542.481 398.432 542.711 400.021 543.216 401.531C543.488 400.517 543.814 399.512 544.13 398.606Z" fill="white"/>
<path opacity="0.1" d="M643.194 367.149C642.722 369.325 642.594 371.562 642.814 373.778C642.935 374.668 643.141 375.544 643.429 376.395C644.569 379.817 646.868 382.851 649.112 385.739L658.207 397.511C659.863 399.647 661.7 401.911 664.261 402.717L664.523 402.799C666.071 403.215 667.745 403.061 669.22 403.704C670.064 404.096 670.802 404.683 671.375 405.417C671.948 406.15 672.338 407.01 672.514 407.924C672.631 407.082 672.731 406.249 672.821 405.406C673.219 401.549 672.821 396.705 669.202 395.211C667.727 394.595 666.052 394.749 664.505 394.305L664.243 394.224C661.682 393.418 659.845 391.154 658.189 389.017L649.094 377.246C646.85 374.357 644.569 371.324 643.411 367.901C643.339 367.657 643.257 367.403 643.194 367.149Z" fill="white"/>
<path opacity="0.1" d="M552.212 327.914C554.021 314.405 558.637 305.114 569.405 296.811C571.695 295.054 581.061 292.836 583.83 292.03L584.346 291.903C589.314 290.88 599.069 294.303 603.666 295.869C612.494 298.841 620.189 304.47 625.697 311.986C631.205 319.503 634.256 328.538 634.434 337.857C634.507 341.207 634.389 345.019 636.362 347.555C636.611 347.887 636.896 348.191 637.212 348.46C638.316 349.366 639.728 349.918 640.886 350.796C642.322 351.943 643.334 353.536 643.764 355.324C643.882 354.681 643.99 354.029 644.081 353.386C644.615 349.402 644.081 344.775 640.886 342.339C639.728 341.433 638.316 340.954 637.212 340.003C636.896 339.733 636.611 339.43 636.362 339.097C634.389 336.562 634.497 332.759 634.434 329.399C634.256 320.081 631.205 311.045 625.697 303.529C620.189 296.013 612.494 290.384 603.666 287.412C599.069 285.845 589.314 282.432 584.346 283.446L583.83 283.573C581.061 284.378 571.695 286.597 569.405 288.354C558.6 296.657 553.958 305.947 552.212 319.457C551.891 322.553 551.861 325.673 552.121 328.775C552.157 328.476 552.175 328.195 552.212 327.914Z" fill="white"/>
</g>
<path d="M657.019 59.518C653.572 59.518 653.572 64.8694 657.019 64.8694C660.467 64.8694 660.467 59.518 657.019 59.518Z" fill="white"/>
<path d="M527.043 207.928C523.596 207.928 523.596 213.28 527.043 213.28C530.491 213.28 530.491 207.928 527.043 207.928Z" fill="white"/>
<path d="M36.2245 461.9C32.7767 461.9 32.7767 467.252 36.2245 467.252C39.6723 467.252 39.6723 461.9 36.2245 461.9Z" fill="white"/>
<path d="M387.901 149.786C384.453 149.786 384.453 155.138 387.901 155.138C391.349 155.138 391.349 149.786 387.901 149.786Z" fill="white"/>
<path d="M766.345 203.609H765.947C765.467 203.609 765.006 203.418 764.667 203.078C764.328 202.739 764.137 202.278 764.137 201.798V201.4H763.142V201.798C763.142 202.278 762.951 202.739 762.611 203.078C762.272 203.418 761.812 203.609 761.332 203.609H760.934V204.605H761.422C761.902 204.605 762.363 204.796 762.702 205.135C763.041 205.475 763.232 205.936 763.232 206.416V206.814H764.137V206.416C764.137 205.936 764.328 205.475 764.667 205.135C765.006 204.796 765.467 204.605 765.947 204.605H766.345V203.609Z" fill="white"/>
<path d="M654.721 103.389H654.323C653.843 103.389 653.383 103.198 653.043 102.859C652.704 102.519 652.513 102.058 652.513 101.578V101.18H651.518V101.578C651.518 102.058 651.327 102.519 650.988 102.859C650.648 103.198 650.188 103.389 649.708 103.389H649.31V104.385H649.708C650.188 104.385 650.648 104.576 650.988 104.915C651.327 105.255 651.518 105.716 651.518 106.196V106.594H652.513V106.196C652.513 105.716 652.704 105.255 653.043 104.915C653.383 104.576 653.843 104.385 654.323 104.385H654.721V103.389Z" fill="white"/>
<path d="M85.1544 402.491H84.7563C84.2762 402.491 83.8159 402.3 83.4765 401.961C83.1371 401.621 82.9464 401.16 82.9464 400.68V400.282H81.9509V400.68C81.9509 401.16 81.7603 401.621 81.4209 401.961C81.0814 402.3 80.6211 402.491 80.1411 402.491H79.7429V403.487H80.1411C80.6211 403.487 81.0814 403.678 81.4209 404.018C81.7603 404.357 81.9509 404.818 81.9509 405.298V405.697H82.9464V405.298C82.9464 404.818 83.1371 404.357 83.4765 404.018C83.8159 403.678 84.2762 403.487 84.7563 403.487H85.1544V402.491Z" fill="white"/>
<path d="M402.425 236.496H402.027C401.547 236.496 401.087 236.305 400.747 235.966C400.408 235.626 400.217 235.166 400.217 234.685V234.287H399.222V234.685C399.222 235.166 399.031 235.626 398.692 235.966C398.352 236.305 397.892 236.496 397.412 236.496H397.014V237.492H397.412C397.892 237.492 398.352 237.683 398.692 238.023C399.031 238.362 399.222 238.823 399.222 239.303V239.702H400.217V239.303C400.217 238.823 400.408 238.362 400.747 238.023C401.087 237.683 401.547 237.492 402.027 237.492H402.425V236.496Z" fill="white"/>
<path d="M792.045 217.653L791.738 217.399C791.375 217.096 791.146 216.663 791.099 216.192C791.051 215.722 791.19 215.252 791.484 214.882L791.738 214.574L790.968 213.95L790.715 214.257C790.412 214.62 789.979 214.849 789.509 214.897C789.039 214.944 788.569 214.806 788.199 214.511L787.892 214.257L787.267 215.027L787.575 215.281C787.937 215.584 788.166 216.017 788.214 216.488C788.261 216.958 788.123 217.428 787.828 217.798L787.575 218.106L788.344 218.731L788.597 218.423C788.901 218.06 789.334 217.831 789.804 217.783C790.274 217.736 790.744 217.874 791.113 218.169L791.421 218.423L792.045 217.653Z" fill="white"/>
<path d="M526.754 153.39L526.446 153.137C526.084 152.833 525.855 152.4 525.808 151.93C525.76 151.459 525.899 150.989 526.193 150.619L526.446 150.312L525.677 149.687L525.424 149.995C525.121 150.357 524.688 150.587 524.218 150.634C523.748 150.681 523.278 150.543 522.908 150.248L522.6 149.995L521.976 150.764L522.284 151.018C522.646 151.321 522.875 151.755 522.923 152.225C522.97 152.695 522.832 153.165 522.537 153.535L522.284 153.843L523.053 154.468L523.306 154.16C523.61 153.797 524.043 153.568 524.513 153.521C524.983 153.473 525.453 153.612 525.822 153.906L526.13 154.16L526.754 153.39Z" fill="white"/>
<path d="M704.89 528.997L704.583 528.744C704.221 528.44 703.991 528.007 703.944 527.537C703.897 527.066 704.035 526.596 704.329 526.227L704.583 525.919L703.814 525.294L703.56 525.602C703.257 525.964 702.824 526.194 702.354 526.241C701.884 526.288 701.414 526.15 701.044 525.855L700.737 525.602L700.112 526.371L700.42 526.625C700.782 526.928 701.011 527.362 701.059 527.832C701.106 528.302 700.968 528.773 700.673 529.142L700.42 529.45L701.189 530.075L701.443 529.767C701.746 529.405 702.179 529.175 702.649 529.128C703.119 529.08 703.589 529.219 703.958 529.513L704.266 529.767L704.89 528.997Z" fill="white"/>
<path d="M712.393 61.0573L710.854 59.518L712.393 57.9787L711.696 57.2724L710.148 58.8117L708.61 57.2724L707.904 57.9787L709.452 59.518L707.904 61.0573L708.61 61.7636L710.148 60.2152L711.696 61.7636L712.393 61.0573Z" fill="white"/>
<path d="M767.919 69.9312C767.731 69.9517 767.557 70.0412 767.43 70.1824C767.303 70.3236 767.233 70.5066 767.233 70.6963C767.233 70.886 767.303 71.069 767.43 71.2102C767.557 71.3514 767.731 71.4409 767.919 71.4614C768.108 71.4409 768.282 71.3514 768.409 71.2102C768.535 71.069 768.605 70.886 768.605 70.6963C768.605 70.5066 768.535 70.3236 768.409 70.1824C768.282 70.0412 768.108 69.9517 767.919 69.9312V69.9312Z" fill="white"/>
<path d="M699.118 129.594C698.929 129.614 698.755 129.704 698.628 129.845C698.502 129.986 698.432 130.169 698.432 130.359C698.432 130.549 698.502 130.732 698.628 130.873C698.755 131.014 698.929 131.104 699.118 131.124C699.306 131.104 699.48 131.014 699.607 130.873C699.733 130.732 699.804 130.549 699.804 130.359C699.804 130.169 699.733 129.986 699.607 129.845C699.48 129.704 699.306 129.614 699.118 129.594V129.594Z" fill="white"/>
<path d="M609.673 115.822C609.485 115.842 609.31 115.932 609.184 116.073C609.057 116.214 608.987 116.397 608.987 116.587C608.987 116.776 609.057 116.959 609.184 117.101C609.31 117.242 609.485 117.331 609.673 117.352C609.862 117.331 610.036 117.242 610.163 117.101C610.289 116.959 610.359 116.776 610.359 116.587C610.359 116.397 610.289 116.214 610.163 116.073C610.036 115.932 609.862 115.842 609.673 115.822V115.822Z" fill="white"/>
<path d="M452.567 127.982H451.418C451.23 128.003 451.056 128.092 450.929 128.233C450.802 128.375 450.732 128.558 450.732 128.747C450.732 128.937 450.802 129.12 450.929 129.261C451.056 129.402 451.23 129.492 451.418 129.512H452.567C452.756 129.492 452.93 129.402 453.057 129.261C453.183 129.12 453.253 128.937 453.253 128.747C453.253 128.558 453.183 128.375 453.057 128.233C452.93 128.092 452.756 128.003 452.567 127.982V127.982Z" fill="white"/>
<path d="M433.075 225.975C432.887 225.995 432.712 226.085 432.586 226.226C432.459 226.367 432.389 226.55 432.389 226.74C432.389 226.929 432.459 227.112 432.586 227.254C432.712 227.395 432.887 227.484 433.075 227.505C433.264 227.484 433.438 227.395 433.564 227.254C433.691 227.112 433.761 226.929 433.761 226.74C433.761 226.55 433.691 226.367 433.564 226.226C433.438 226.085 433.264 225.995 433.075 225.975V225.975Z" fill="white"/>
<path d="M592.47 261.551C592.282 261.572 592.108 261.661 591.981 261.802C591.855 261.944 591.785 262.127 591.785 262.316C591.785 262.506 591.855 262.689 591.981 262.83C592.108 262.972 592.282 263.061 592.47 263.082C592.659 263.061 592.833 262.972 592.96 262.83C593.086 262.689 593.156 262.506 593.156 262.316C593.156 262.127 593.086 261.944 592.96 261.802C592.833 261.661 592.659 261.572 592.47 261.551V261.551Z" fill="white"/>
<path d="M605.085 194.998C604.897 195.018 604.723 195.108 604.596 195.249C604.469 195.39 604.399 195.573 604.399 195.763C604.399 195.952 604.469 196.135 604.596 196.277C604.723 196.418 604.897 196.507 605.085 196.528C605.274 196.507 605.448 196.418 605.575 196.277C605.701 196.135 605.771 195.952 605.771 195.763C605.771 195.573 605.701 195.39 605.575 195.249C605.448 195.108 605.274 195.018 605.085 194.998V194.998Z" fill="white"/>
<path d="M711.732 208.77C711.543 208.791 711.369 208.88 711.243 209.021C711.116 209.163 711.046 209.346 711.046 209.535C711.046 209.725 711.116 209.908 711.243 210.049C711.369 210.19 711.543 210.28 711.732 210.3C711.92 210.28 712.094 210.19 712.221 210.049C712.348 209.908 712.418 209.725 712.418 209.535C712.418 209.346 712.348 209.163 712.221 209.021C712.094 208.88 711.92 208.791 711.732 208.77V208.77Z" fill="white"/>
<path d="M701.407 439.399C701.218 439.419 701.044 439.509 700.917 439.65C700.791 439.791 700.721 439.974 700.721 440.164C700.721 440.354 700.791 440.537 700.917 440.678C701.044 440.819 701.218 440.909 701.407 440.929C701.595 440.909 701.769 440.819 701.896 440.678C702.023 440.537 702.093 440.354 702.093 440.164C702.093 439.974 702.023 439.791 701.896 439.65C701.769 439.509 701.595 439.419 701.407 439.399Z" fill="white"/>
<path d="M117.723 313.182C117.535 313.203 117.36 313.292 117.234 313.434C117.107 313.575 117.037 313.758 117.037 313.947C117.037 314.137 117.107 314.32 117.234 314.461C117.36 314.603 117.535 314.692 117.723 314.713C117.911 314.692 118.086 314.603 118.212 314.461C118.339 314.32 118.409 314.137 118.409 313.947C118.409 313.758 118.339 313.575 118.212 313.434C118.086 313.292 117.911 313.203 117.723 313.182V313.182Z" fill="white"/>
<path d="M61.5355 445.14C61.347 445.16 61.1728 445.25 61.0462 445.391C60.9196 445.532 60.8496 445.715 60.8496 445.905C60.8496 446.095 60.9196 446.278 61.0462 446.419C61.1728 446.56 61.347 446.649 61.5355 446.67C61.724 446.649 61.8982 446.56 62.0248 446.419C62.1514 446.278 62.2214 446.095 62.2214 445.905C62.2214 445.715 62.1514 445.532 62.0248 445.391C61.8982 445.25 61.724 445.16 61.5355 445.14V445.14Z" fill="white"/>
<path d="M249.599 391.209C249.411 391.229 249.237 391.319 249.11 391.46C248.984 391.601 248.914 391.784 248.914 391.974C248.914 392.163 248.984 392.346 249.11 392.488C249.237 392.629 249.411 392.718 249.599 392.739C249.788 392.718 249.962 392.629 250.089 392.488C250.215 392.346 250.285 392.163 250.285 391.974C250.285 391.784 250.215 391.601 250.089 391.46C249.962 391.319 249.788 391.229 249.599 391.209Z" fill="white"/>
<path d="M676.186 476.117C675.998 476.137 675.824 476.227 675.697 476.368C675.57 476.509 675.5 476.692 675.5 476.882C675.5 477.071 675.57 477.254 675.697 477.396C675.824 477.537 675.998 477.626 676.186 477.647C676.375 477.626 676.549 477.537 676.676 477.396C676.802 477.254 676.872 477.071 676.872 476.882C676.872 476.692 676.802 476.509 676.676 476.368C676.549 476.227 676.375 476.137 676.186 476.117Z" fill="white"/>
<path d="M650.956 561.034C650.768 561.054 650.594 561.144 650.467 561.285C650.34 561.426 650.271 561.609 650.271 561.799C650.271 561.988 650.34 562.171 650.467 562.313C650.594 562.454 650.768 562.543 650.956 562.564C651.145 562.543 651.319 562.454 651.446 562.313C651.572 562.171 651.642 561.988 651.642 561.799C651.642 561.609 651.572 561.426 651.446 561.285C651.319 561.144 651.145 561.054 650.956 561.034Z" fill="white"/>
<path d="M473.209 258.11C473.02 258.131 472.846 258.22 472.72 258.362C472.593 258.503 472.523 258.686 472.523 258.875C472.523 259.065 472.593 259.248 472.72 259.389C472.846 259.531 473.02 259.62 473.209 259.641C473.397 259.62 473.572 259.531 473.698 259.389C473.825 259.248 473.895 259.065 473.895 258.875C473.895 258.686 473.825 258.503 473.698 258.362C473.572 258.22 473.397 258.131 473.209 258.11V258.11Z" fill="white"/>
<path d="M364.273 227.124C364.084 227.145 363.91 227.235 363.783 227.376C363.657 227.517 363.587 227.7 363.587 227.89C363.587 228.079 363.657 228.262 363.783 228.404C363.91 228.545 364.084 228.634 364.273 228.655C364.461 228.634 364.635 228.545 364.762 228.404C364.889 228.262 364.959 228.079 364.959 227.89C364.959 227.7 364.889 227.517 364.762 227.376C364.635 227.235 364.461 227.145 364.273 227.124Z" fill="white"/>
<path d="M239.274 258.11C239.086 258.131 238.911 258.22 238.785 258.362C238.658 258.503 238.588 258.686 238.588 258.875C238.588 259.065 238.658 259.248 238.785 259.389C238.911 259.531 239.086 259.62 239.274 259.641C239.463 259.62 239.637 259.531 239.763 259.389C239.89 259.248 239.96 259.065 239.96 258.875C239.96 258.686 239.89 258.503 239.763 258.362C239.637 258.22 239.463 258.131 239.274 258.11Z" fill="white"/>
<path d="M766.77 130.744H765.621C765.114 130.744 764.629 130.945 764.271 131.304C763.913 131.662 763.711 132.148 763.711 132.655C763.711 133.161 763.913 133.647 764.271 134.006C764.629 134.364 765.114 134.565 765.621 134.565H766.77C767.277 134.565 767.762 134.364 768.12 134.006C768.478 133.647 768.68 133.161 768.68 132.655C768.68 132.148 768.478 131.662 768.12 131.304C767.762 130.945 767.277 130.744 766.77 130.744V130.744Z" fill="white"/>
<path d="M656.685 193.848C654.224 193.848 654.224 197.669 656.685 197.669C659.146 197.669 659.164 193.848 656.685 193.848Z" fill="white"/>
<path d="M569.576 258.11C567.114 258.11 567.114 261.931 569.576 261.931C572.037 261.931 572.001 258.11 569.576 258.11Z" fill="white"/>
<path d="M657.834 402.681C655.373 402.681 655.373 406.503 657.834 406.503C660.296 406.503 660.296 402.681 657.834 402.681Z" fill="white"/>
<path d="M747.278 376.295C744.816 376.295 744.816 380.116 747.278 380.116C749.739 380.116 749.739 376.295 747.278 376.295Z" fill="white"/>
<path d="M671.598 628.728H670.448C669.942 628.728 669.456 628.929 669.098 629.288C668.74 629.646 668.539 630.132 668.539 630.639C668.539 631.145 668.74 631.631 669.098 631.99C669.456 632.348 669.942 632.549 670.448 632.549H671.598C672.104 632.549 672.59 632.348 672.948 631.99C673.306 631.631 673.507 631.145 673.507 630.639C673.507 630.132 673.306 629.646 672.948 629.288C672.59 628.929 672.104 628.728 671.598 628.728V628.728Z" fill="white"/>
<path d="M69.5624 642.501C67.101 642.501 67.101 646.322 69.5624 646.322C72.0238 646.322 72.0238 642.501 69.5624 642.501Z" fill="white"/>
<path d="M625.673 300.107L687.978 237.764" stroke="url(#paint0_linear)" stroke-miterlimit="10" stroke-linecap="round"/>
<path d="M548.455 148.636L610.759 86.2934" stroke="url(#paint1_linear)" stroke-miterlimit="10" stroke-linecap="round"/>
<path opacity="0.1" d="M743.785 334.697H724.781C728.736 333.637 731.55 331.075 731.55 328.023C731.55 324.972 728.736 322.409 724.781 321.35H733.079C738.97 321.35 743.785 318.117 743.785 314.169C743.785 310.221 738.97 306.989 733.079 306.989H665.806C659.915 306.989 655.101 310.221 655.101 314.169C655.101 317.185 657.915 319.783 661.87 320.843H653.572C647.68 320.843 642.866 324.075 642.866 328.023C642.866 331.971 647.68 335.204 653.572 335.204H672.575C668.621 336.263 665.806 338.826 665.806 341.877C665.806 345.825 670.621 349.058 676.512 349.058H743.794C749.685 349.058 754.499 345.825 754.499 341.877C754.499 337.929 749.658 334.697 743.785 334.697Z" fill="white"/>
<path opacity="0.1" d="M521.27 187.817H496.095C501.334 186.758 505.063 184.195 505.063 181.144C505.063 178.092 501.334 175.53 496.095 174.47H507.09C514.89 174.47 521.279 171.238 521.279 167.29C521.279 163.342 514.899 160.109 507.09 160.109H417.918C410.117 160.109 403.728 163.342 403.728 167.29C403.728 170.305 407.456 172.904 412.696 173.963H401.71C393.91 173.963 387.521 177.196 387.521 181.144C387.521 185.092 393.901 188.324 401.71 188.324H426.885C421.646 189.384 417.918 191.946 417.918 194.998C417.918 198.946 424.297 202.178 432.107 202.178H521.27C529.071 202.178 535.46 198.946 535.46 194.998C535.46 191.05 529.071 187.817 521.27 187.817Z" fill="white"/>
</g>
<defs>
<linearGradient id="paint0_linear" x1="625.22" y1="268.931" x2="688.43" y2="268.931" gradientUnits="userSpaceOnUse">
<stop stop-color="white"/>
<stop offset="0.77" stop-color="white" stop-opacity="0.15"/>
</linearGradient>
<linearGradient id="paint1_linear" x1="38278.4" y1="8173.44" x2="42630.4" y2="8173.44" gradientUnits="userSpaceOnUse">
<stop stop-color="white"/>
<stop offset="0.77" stop-color="white" stop-opacity="0.15"/>
</linearGradient>
<clipPath id="clip0">
<rect width="812.098" height="709" fill="white"/>
</clipPath>
</defs>
</svg>
