<svg width="267" height="260" viewBox="0 0 267 260" fill="none" xmlns="http://www.w3.org/2000/svg">
<g clip-path="url(#clip0)">
<g opacity="0.5">
<path opacity="0.5" d="M39.8398 81.7974C61.6863 81.7974 79.3963 63.9635 79.3963 41.9643C79.3963 19.965 61.6863 2.1311 39.8398 2.1311C17.9933 2.1311 0.283264 19.965 0.283264 41.9643C0.283264 63.9635 17.9933 81.7974 39.8398 81.7974Z" fill="url(#paint0_linear)"/>
</g>
<path d="M39.84 80.7387C61.2246 80.7387 78.5603 63.2818 78.5603 41.7477C78.5603 20.2135 61.2246 2.75659 39.84 2.75659C18.4554 2.75659 1.11969 20.2135 1.11969 41.7477C1.11969 63.2818 18.4554 80.7387 39.84 80.7387Z" fill="#F5F5F5"/>
<path d="M39.9491 80.8487C47.5156 80.8613 54.9183 78.6307 61.2343 74.435C59.8076 66.5845 54.377 66.1343 54.377 66.1343H24.4391C24.4391 66.1343 19.3192 66.557 17.715 73.7819C24.2241 78.3925 31.991 80.8611 39.9491 80.8487Z" fill="#5271FF"/>
<path d="M39.5429 58.1737C49.0231 58.1737 56.7083 50.4347 56.7083 40.8882C56.7083 31.3417 49.0231 23.6028 39.5429 23.6028C30.0627 23.6028 22.3775 31.3417 22.3775 40.8882C22.3775 50.4347 30.0627 58.1737 39.5429 58.1737Z" fill="#333333"/>
<path opacity="0.1" d="M33.5115 56.5652H45.4887V66.2133C45.4887 67.8122 44.8579 69.3456 43.7352 70.4763C42.6124 71.6069 41.0896 72.242 39.5018 72.242C37.914 72.242 36.3912 71.6069 35.2684 70.4763C34.1456 69.3456 33.5149 67.8122 33.5149 66.2133V56.5652H33.5115Z" fill="black"/>
<path d="M34.6551 56.1184H44.3454C44.6487 56.1184 44.9395 56.2397 45.154 56.4557C45.3684 56.6716 45.4889 56.9645 45.4889 57.2699V65.7665C45.4889 67.3654 44.8581 68.8989 43.7354 70.0295C42.6126 71.1601 41.0898 71.7953 39.502 71.7953C37.9142 71.7953 36.3914 71.1601 35.2686 70.0295C34.1458 68.8989 33.5151 67.3654 33.5151 65.7665V57.2699C33.5151 56.9651 33.6351 56.6727 33.8488 56.4569C34.0625 56.241 34.3524 56.1193 34.6551 56.1184Z" fill="#BE7C5E"/>
<path opacity="0.1" d="M33.5355 61.1194C37.3955 62.5722 41.6446 62.5844 45.5127 61.1538V59.6724H33.5355V61.1194Z" fill="black"/>
<path d="M39.5429 61.9271C49.0231 61.9271 56.7083 54.1881 56.7083 44.6416C56.7083 35.0952 49.0231 27.3562 39.5429 27.3562C30.0627 27.3562 22.3775 35.0952 22.3775 44.6416C22.3775 54.1881 30.0627 61.9271 39.5429 61.9271Z" fill="#BE7C5E"/>
<path d="M29.1426 37.5131C29.344 36.7672 29.5966 35.9457 30.2622 35.5573C30.7879 35.248 31.4398 35.2961 32.0474 35.327C36.7918 35.5883 41.4953 34.4987 46.1101 33.361C48.7485 32.7114 51.5713 31.9208 53.278 29.7795C54.9846 27.6381 52.7591 20.9082 50.1616 20.1142C48.455 19.5883 46.4753 20.5679 44.8574 19.798C44.1372 19.4543 43.6081 18.8115 42.9869 18.3097C41.7138 17.2786 40.0788 16.8627 38.495 16.4708C36.645 16.0102 34.6449 15.56 32.887 16.299C31.5217 16.8695 30.525 18.076 29.2314 18.7909C26.7704 20.1658 23.7701 19.5265 20.9508 19.5196C19.9985 19.5196 18.8618 19.7121 18.483 20.592C18.227 21.19 18.4318 21.8706 18.4591 22.5202C18.541 24.5825 16.8514 26.1877 15.4349 27.6759C14.0184 29.1642 12.6804 31.2884 13.5747 33.1376C13.916 33.8422 14.5406 34.375 14.8956 35.0727C15.5066 36.2826 15.1994 37.7434 15.4213 39.0804C15.6434 40.095 16.0199 41.0689 16.5374 41.9676C17.5887 44.0299 22.869 55.1319 25.2959 52.31C26.4701 50.9352 26.6612 46.9618 27.1356 45.1745C27.791 42.6058 28.46 40.052 29.1426 37.5131Z" fill="#333333"/>
<path d="M27.3301 47.0271C28.2123 47.0271 28.9275 45.6775 28.9275 44.0127C28.9275 42.3479 28.2123 40.9983 27.3301 40.9983C26.4479 40.9983 25.7327 42.3479 25.7327 44.0127C25.7327 45.6775 26.4479 47.0271 27.3301 47.0271Z" fill="#BE7C5E"/>
<g opacity="0.5">
<path opacity="0.5" d="M131.439 168.493C153.285 168.493 170.995 150.659 170.995 128.66C170.995 106.66 153.285 88.8264 131.439 88.8264C109.592 88.8264 91.8822 106.66 91.8822 128.66C91.8822 150.659 109.592 168.493 131.439 168.493Z" fill="url(#paint1_linear)"/>
</g>
<path d="M131.514 167.396C152.898 167.396 170.234 149.939 170.234 128.405C170.234 106.871 152.898 89.4141 131.514 89.4141C110.129 89.4141 92.7936 106.871 92.7936 128.405C92.7936 149.939 110.129 167.396 131.514 167.396Z" fill="#F5F5F5"/>
<path d="M131.548 167.551C139.11 167.561 146.507 165.33 152.819 161.137C151.393 153.287 145.962 152.836 145.962 152.836H116.034C116.034 152.836 110.915 153.259 109.31 160.484C115.82 165.095 123.589 167.564 131.548 167.551Z" fill="#5271FF"/>
<path d="M131.138 146.406C141.461 146.406 149.83 137.979 149.83 127.584C149.83 117.189 141.461 108.762 131.138 108.762C120.816 108.762 112.447 117.189 112.447 127.584C112.447 137.979 120.816 146.406 131.138 146.406Z" fill="#F55F44"/>
<path opacity="0.1" d="M125.107 143.26H137.084V152.909C137.084 154.508 136.454 156.041 135.331 157.172C134.208 158.302 132.685 158.937 131.097 158.937C129.51 158.937 127.987 158.302 126.864 157.172C125.741 156.041 125.111 154.508 125.111 152.909V143.26H125.107Z" fill="black"/>
<path d="M126.251 142.814H135.941C136.091 142.814 136.24 142.844 136.378 142.901C136.517 142.959 136.643 143.044 136.749 143.151C136.856 143.258 136.94 143.385 136.997 143.525C137.055 143.664 137.084 143.814 137.084 143.965V152.462C137.084 153.254 136.929 154.037 136.629 154.769C136.328 155.5 135.887 156.165 135.331 156.725C134.775 157.285 134.115 157.729 133.388 158.032C132.662 158.335 131.884 158.491 131.097 158.491C130.311 158.491 129.533 158.335 128.806 158.032C128.08 157.729 127.42 157.285 126.864 156.725C126.308 156.165 125.867 155.5 125.566 154.769C125.265 154.037 125.11 153.254 125.11 152.462V143.965C125.11 143.66 125.231 143.367 125.445 143.151C125.66 142.935 125.951 142.814 126.254 142.814H126.251Z" fill="#FDA57D"/>
<path opacity="0.1" d="M125.131 147.815C128.991 149.268 133.24 149.28 137.108 147.849V146.368H125.131V147.815Z" fill="black"/>
<path d="M131.138 148.622C140.618 148.622 148.304 140.883 148.304 131.337C148.304 121.79 140.618 114.052 131.138 114.052C121.658 114.052 113.973 121.79 113.973 131.337C113.973 140.883 121.658 148.622 131.138 148.622Z" fill="#FDA57D"/>
<path d="M131.114 115.396C134.93 115.396 138.023 112.281 138.023 108.439C138.023 104.597 134.93 101.482 131.114 101.482C127.299 101.482 124.206 104.597 124.206 108.439C124.206 112.281 127.299 115.396 131.114 115.396Z" fill="#F55F44"/>
<path d="M131.115 106.156C133.62 106.156 135.651 104.111 135.651 101.588C135.651 99.0657 133.62 97.0205 131.115 97.0205C128.609 97.0205 126.578 99.0657 126.578 101.588C126.578 104.111 128.609 106.156 131.115 106.156Z" fill="#F55F44"/>
<path d="M128.118 112.254C126.497 111.522 125.218 110.189 124.548 108.533C123.877 106.876 123.866 105.023 124.517 103.359C124.469 103.455 124.421 103.555 124.377 103.654C124.005 104.488 123.801 105.387 123.774 106.3C123.748 107.214 123.901 108.123 124.224 108.977C124.546 109.831 125.033 110.613 125.656 111.277C126.279 111.942 127.025 112.476 127.853 112.85C128.681 113.224 129.574 113.43 130.481 113.457C131.388 113.483 132.291 113.33 133.139 113.005C133.987 112.679 134.763 112.189 135.423 111.562C136.083 110.935 136.614 110.183 136.985 109.35C137.03 109.25 137.071 109.15 137.112 109.047C136.31 110.644 134.928 111.868 133.253 112.465C131.578 113.062 129.739 112.987 128.118 112.254Z" fill="#F55F44"/>
<path opacity="0.1" d="M118.915 115.616C118.915 115.616 126.148 130.395 146.563 121.803L141.812 114.299L133.391 111.254L118.915 115.616Z" fill="black"/>
<path d="M118.915 115.395C118.915 115.395 126.148 130.175 146.563 121.582L141.812 114.079L133.391 111.034L118.915 115.395Z" fill="#F55F44"/>
<path d="M124.489 110.013C128.94 109.66 133.411 109.66 137.862 110.013C137.862 110.013 127.984 110.938 124.489 110.013Z" fill="#333333"/>
<path d="M132.152 96.7421C131.809 96.7294 131.465 96.7559 131.128 96.8211H131.391C132.508 96.8571 133.573 97.3075 134.38 98.0858C135.188 98.864 135.681 99.9153 135.766 101.038C135.851 102.16 135.52 103.274 134.839 104.166C134.157 105.059 133.173 105.666 132.074 105.871C133.276 105.882 134.433 105.412 135.291 104.563C136.149 103.715 136.637 102.558 136.647 101.348C136.658 100.137 136.191 98.9719 135.349 98.1082C134.506 97.2444 133.358 96.753 132.156 96.7421H132.152Z" fill="#F55F44"/>
<path d="M113.969 134.334C114.852 134.334 115.567 132.985 115.567 131.32C115.567 129.655 114.852 128.305 113.969 128.305C113.087 128.305 112.372 129.655 112.372 131.32C112.372 132.985 113.087 134.334 113.969 134.334Z" fill="#FDA57D"/>
<path d="M148.304 134.334C149.186 134.334 149.901 132.985 149.901 131.32C149.901 129.655 149.186 128.305 148.304 128.305C147.421 128.305 146.706 129.655 146.706 131.32C146.706 132.985 147.421 134.334 148.304 134.334Z" fill="#FDA57D"/>
<path d="M117.833 115.832L121.182 114.093L121.936 116.88L119.885 118.286L117.833 115.832Z" fill="#F55F44"/>
<g opacity="0.5">
<path opacity="0.5" d="M131.401 79.8416C153.248 79.8416 170.958 62.0077 170.958 40.0085C170.958 18.0092 153.248 0.175293 131.401 0.175293C109.555 0.175293 91.8446 18.0092 91.8446 40.0085C91.8446 62.0077 109.555 79.8416 131.401 79.8416Z" fill="url(#paint2_linear)"/>
</g>
<path d="M131.401 78.7829C152.786 78.7829 170.122 61.326 170.122 39.7918C170.122 18.2577 152.786 0.800781 131.401 0.800781C110.017 0.800781 92.6809 18.2577 92.6809 39.7918C92.6809 61.326 110.017 78.7829 131.401 78.7829Z" fill="#F5F5F5"/>
<path d="M116.297 40.1392C116.297 40.1392 111.908 61.917 109.512 60.7105C109.512 60.7105 132.62 80.811 153.024 60.7105C153.024 60.7105 149.43 45.3636 144.242 40.1392H116.297Z" fill="#333333"/>
<path d="M131.51 78.8998C139.077 78.9123 146.48 76.6817 152.796 72.486C151.369 64.6356 145.938 64.1853 145.938 64.1853H115.997C115.997 64.1853 110.877 64.6081 109.273 71.833C115.783 76.4442 123.551 78.9128 131.51 78.8998Z" fill="#5271FF"/>
<path d="M131.101 56.2181C140.581 56.2181 148.266 48.4791 148.266 38.9327C148.266 29.3862 140.581 21.6472 131.101 21.6472C121.621 21.6472 113.936 29.3862 113.936 38.9327C113.936 48.4791 121.621 56.2181 131.101 56.2181Z" fill="#333333"/>
<path opacity="0.1" d="M125.07 54.6094H137.047V64.2575C137.047 65.8546 136.417 67.3865 135.297 68.5168C134.176 69.6471 132.656 70.2835 131.07 70.2862C129.482 70.2862 127.96 69.6511 126.837 68.5204C125.714 67.3898 125.083 65.8564 125.083 64.2575V54.6094H125.07Z" fill="black"/>
<path d="M126.213 54.1626H135.903C136.207 54.1626 136.497 54.2839 136.712 54.4998C136.926 54.7158 137.047 55.0087 137.047 55.314V63.8107C137.047 65.4078 136.417 66.9397 135.297 68.07C134.176 69.2003 132.656 69.8367 131.07 69.8394C129.482 69.8394 127.959 69.2043 126.837 68.0737C125.714 66.943 125.083 65.4096 125.083 63.8107V55.3106C125.084 55.0082 125.203 54.7183 125.414 54.5034C125.626 54.2886 125.913 54.1662 126.213 54.1626Z" fill="#BE7C5E"/>
<path opacity="0.1" d="M125.093 59.1636C128.953 60.6164 133.202 60.6285 137.07 59.198V57.7166H125.093V59.1636Z" fill="black"/>
<path d="M131.101 59.9681C140.581 59.9681 148.266 52.2291 148.266 42.6827C148.266 33.1362 140.581 25.3972 131.101 25.3972C121.621 25.3972 113.936 33.1362 113.936 42.6827C113.936 52.2291 121.621 59.9681 131.101 59.9681Z" fill="#BE7C5E"/>
<path d="M114.693 36.1175H147.427C147.427 36.1175 144.631 22.8089 132.258 23.6579C119.885 24.5068 114.693 36.1175 114.693 36.1175Z" fill="#333333"/>
<path d="M114.29 44.9614C115.173 44.9614 115.888 43.6118 115.888 41.947C115.888 40.2822 115.173 38.9326 114.29 38.9326C113.408 38.9326 112.693 40.2822 112.693 41.947C112.693 43.6118 113.408 44.9614 114.29 44.9614Z" fill="#BE7C5E"/>
<path d="M147.823 44.9614C148.705 44.9614 149.42 43.6118 149.42 41.947C149.42 40.2822 148.705 38.9326 147.823 38.9326C146.94 38.9326 146.225 40.2822 146.225 41.947C146.225 43.6118 146.94 44.9614 147.823 44.9614Z" fill="#BE7C5E"/>
<path opacity="0.1" d="M114.693 36.5646H147.427C147.427 36.5646 144.631 23.2559 132.258 24.1049C119.885 24.9539 114.693 36.5646 114.693 36.5646Z" fill="black"/>
<g opacity="0.5">
<path opacity="0.5" d="M225.697 79.6663C247.543 79.6663 265.253 61.8324 265.253 39.8332C265.253 17.8339 247.543 0 225.697 0C203.85 0 186.14 17.8339 186.14 39.8332C186.14 61.8324 203.85 79.6663 225.697 79.6663Z" fill="url(#paint3_linear)"/>
</g>
<path d="M225.772 78.5666C247.156 78.5666 264.492 61.1097 264.492 39.5755C264.492 18.0414 247.156 0.584473 225.772 0.584473C204.387 0.584473 187.051 18.0414 187.051 39.5755C187.051 61.1097 204.387 78.5666 225.772 78.5666Z" fill="#F5F5F5"/>
<path d="M225.806 78.7245C233.372 78.737 240.775 76.5064 247.091 72.3108C245.661 64.4569 240.233 64.0066 240.233 64.0066H210.296C210.296 64.0066 205.176 64.4294 203.571 71.6543C210.08 76.266 217.847 78.7358 225.806 78.7245Z" fill="#5271FF"/>
<path d="M225.399 57.5758C235.722 57.5758 244.091 49.149 244.091 38.754C244.091 28.359 235.722 19.9321 225.399 19.9321C215.077 19.9321 206.708 28.359 206.708 38.754C206.708 49.149 215.077 57.5758 225.399 57.5758Z" fill="#72351C"/>
<path opacity="0.1" d="M219.365 54.4307H231.342V64.0788C231.343 64.8713 231.189 65.6564 230.889 66.389C230.589 67.1217 230.148 67.7875 229.592 68.3484C229.036 68.9093 228.376 69.3543 227.649 69.6579C226.921 69.9616 226.142 70.1178 225.355 70.1178C223.767 70.1178 222.244 69.4827 221.122 68.3521C219.999 67.2214 219.368 65.688 219.368 64.0891V54.4307H219.365Z" fill="black"/>
<path d="M220.498 53.9839H230.188C230.492 53.9839 230.782 54.1052 230.997 54.3211C231.211 54.5371 231.332 54.83 231.332 55.1353V63.632C231.332 65.2309 230.701 66.7643 229.578 67.895C228.455 69.0256 226.933 69.6607 225.345 69.6607C223.757 69.6607 222.234 69.0256 221.111 67.895C219.989 66.7643 219.358 65.2309 219.358 63.632V55.1353C219.358 54.83 219.478 54.5371 219.693 54.3211C219.907 54.1052 220.198 53.9839 220.501 53.9839H220.498Z" fill="#FDA57D"/>
<path opacity="0.1" d="M219.379 58.9849C223.239 60.4377 227.488 60.4498 231.356 59.0193V57.5378H219.379V58.9849Z" fill="black"/>
<path d="M225.4 59.7928C234.88 59.7928 242.565 52.0539 242.565 42.5074C242.565 32.9609 234.88 25.2219 225.4 25.2219C215.919 25.2219 208.234 32.9609 208.234 42.5074C208.234 52.0539 215.919 59.7928 225.4 59.7928Z" fill="#FDA57D"/>
<path opacity="0.1" d="M213.173 26.7858C213.173 26.7858 220.406 41.5656 240.821 32.9727L236.069 25.4694L227.649 22.4241L213.173 26.7858Z" fill="black"/>
<path d="M213.173 26.5693C213.173 26.5693 220.406 41.349 240.821 32.7561L236.069 25.2528L227.649 22.2075L213.173 26.5693Z" fill="#72351C"/>
<path d="M213.108 25.569C213.596 24.0487 214.439 22.6685 215.566 21.5441C218.942 18.1826 224.478 17.4745 227.318 13.6387C227.472 13.9101 227.568 14.2112 227.6 14.5224C227.631 14.8335 227.598 15.1479 227.501 15.4452C227.405 15.7426 227.248 16.0162 227.04 16.2485C226.832 16.4808 226.578 16.6666 226.294 16.794C229.024 16.7768 232.168 16.5362 233.704 14.2814C234.084 15.1724 234.205 16.1538 234.054 17.1114C233.902 18.0691 233.484 18.9637 232.847 19.6915C235.257 19.8015 237.831 21.4479 237.988 23.8745C238.09 25.49 237.087 27.0195 235.766 27.9475C234.445 28.8756 232.854 29.2915 231.284 29.6352C226.703 30.6663 210.118 34.9318 213.108 25.569Z" fill="#72351C"/>
<path d="M242.565 42.6584H242.111L233.257 50.6017C224.724 46.5802 218.464 50.6017 218.464 50.6017L209.18 42.9919L208.244 43.1087C208.371 47.6456 210.265 51.9503 213.516 55.0933C216.768 58.2363 221.116 59.9653 225.623 59.9071C230.13 59.8489 234.433 58.0081 237.604 54.7821C240.774 51.5562 242.557 47.204 242.568 42.6653L242.565 42.6584ZM225.376 53.6402C222.037 53.6402 219.331 52.9527 219.331 52.1175C219.331 51.2823 222.037 50.5948 225.376 50.5948C228.714 50.5948 231.421 51.2823 231.421 52.1175C231.421 52.9527 228.714 53.6402 225.372 53.6402H225.376Z" fill="#72351C"/>
<path d="M208.227 45.5046C209.109 45.5046 209.825 44.155 209.825 42.4902C209.825 40.8254 209.109 39.4758 208.227 39.4758C207.345 39.4758 206.63 40.8254 206.63 42.4902C206.63 44.155 207.345 45.5046 208.227 45.5046Z" fill="#FDA57D"/>
<path d="M242.562 45.5046C243.444 45.5046 244.159 44.155 244.159 42.4902C244.159 40.8254 243.444 39.4758 242.562 39.4758C241.679 39.4758 240.964 40.8254 240.964 42.4902C240.964 44.155 241.679 45.5046 242.562 45.5046Z" fill="#FDA57D"/>
<g opacity="0.5">
<path opacity="0.5" d="M39.5565 165.884C61.403 165.884 79.1131 148.05 79.1131 126.051C79.1131 104.051 61.403 86.2175 39.5565 86.2175C17.7101 86.2175 0 104.051 0 126.051C0 148.05 17.7101 165.884 39.5565 165.884Z" fill="url(#paint4_linear)"/>
</g>
<path d="M39.6317 164.787C61.0163 164.787 78.352 147.33 78.352 125.796C78.352 104.262 61.0163 86.8052 39.6317 86.8052C18.2471 86.8052 0.911438 104.262 0.911438 125.796C0.911438 147.33 18.2471 164.787 39.6317 164.787Z" fill="#F5F5F5"/>
<path d="M39.6657 164.942C47.231 164.954 54.6325 162.723 60.9475 158.528C59.5208 150.678 54.0902 150.228 54.0902 150.228H24.1387C24.1387 150.228 19.0187 150.65 17.4145 157.875C23.9284 162.489 31.7017 164.958 39.6657 164.942Z" fill="#5271FF"/>
<path d="M39.2561 143.797C49.579 143.797 57.9473 135.37 57.9473 124.975C57.9473 114.58 49.579 106.153 39.2561 106.153C28.9333 106.153 20.565 114.58 20.565 124.975C20.565 135.37 28.9333 143.797 39.2561 143.797Z" fill="#333333"/>
<path opacity="0.1" d="M33.225 140.652H45.2022V150.3C45.2022 151.899 44.5714 153.432 43.4487 154.563C42.3259 155.694 40.8031 156.329 39.2153 156.329C37.6275 156.329 36.1047 155.694 34.9819 154.563C33.8592 153.432 33.2284 151.899 33.2284 150.3V140.652H33.225Z" fill="black"/>
<path d="M34.3684 140.205H44.0587C44.362 140.205 44.6528 140.326 44.8673 140.542C45.0817 140.758 45.2022 141.051 45.2022 141.356V149.86C45.2022 151.459 44.5714 152.992 43.4487 154.123C42.3259 155.253 40.8031 155.889 39.2153 155.889C38.4288 155.889 37.6499 155.733 36.9232 155.431C36.1964 155.128 35.536 154.684 34.9797 154.124C34.4234 153.564 33.9821 152.899 33.681 152.168C33.3799 151.436 33.225 150.652 33.225 149.86V141.353C33.225 141.047 33.3454 140.755 33.5599 140.539C33.7743 140.323 34.0652 140.201 34.3684 140.201V140.205Z" fill="#FDB797"/>
<path opacity="0.1" d="M33.2487 145.206C37.1087 146.659 41.3578 146.671 45.2259 145.24V143.749H33.2487V145.206Z" fill="black"/>
<path d="M39.256 146.014C48.7362 146.014 56.4214 138.275 56.4214 128.728C56.4214 119.182 48.7362 111.443 39.256 111.443C29.7758 111.443 22.0906 119.182 22.0906 128.728C22.0906 138.275 29.7758 146.014 39.256 146.014Z" fill="#FDB797"/>
<path opacity="0.1" d="M27.0331 113.003C27.0331 113.003 34.2658 127.783 54.6807 119.19L49.9294 111.687L41.5088 108.642L27.0331 113.003Z" fill="black"/>
<path d="M27.0331 112.787C27.0331 112.787 34.2658 127.567 54.6807 118.974L49.9294 111.47L41.5088 108.425L27.0331 112.787Z" fill="#333333"/>
<path d="M26.9682 111.783C27.4558 110.263 28.2986 108.883 29.4258 107.758C32.8015 104.397 38.3378 103.689 41.1777 99.8528C41.332 100.124 41.4281 100.425 41.4597 100.736C41.4913 101.048 41.4578 101.362 41.3613 101.659C41.2648 101.957 41.1075 102.23 40.8995 102.463C40.6915 102.695 40.4374 102.881 40.1537 103.008C42.8843 102.991 46.028 102.75 47.5639 100.496C47.9441 101.387 48.0654 102.368 47.9137 103.326C47.7621 104.283 47.3437 105.178 46.7072 105.906C49.117 106.016 51.6906 107.662 51.8476 110.089C51.95 111.704 50.9465 113.234 49.6256 114.162C48.3046 115.09 46.7106 115.512 45.1405 115.863C40.5599 116.887 23.9782 121.153 26.9682 111.783Z" fill="#333333"/>
<path d="M22.0839 131.726C22.9662 131.726 23.6813 130.376 23.6813 128.711C23.6813 127.046 22.9662 125.697 22.0839 125.697C21.2017 125.697 20.4865 127.046 20.4865 128.711C20.4865 130.376 21.2017 131.726 22.0839 131.726Z" fill="#FDB797"/>
<path d="M56.4182 131.726C57.3004 131.726 58.0156 130.376 58.0156 128.711C58.0156 127.046 57.3004 125.697 56.4182 125.697C55.536 125.697 54.8208 127.046 54.8208 128.711C54.8208 130.376 55.536 131.726 56.4182 131.726Z" fill="#FDB797"/>
<g opacity="0.5">
<path opacity="0.5" d="M227.171 170.301C249.017 170.301 266.728 152.467 266.728 130.467C266.728 108.468 249.017 90.6343 227.171 90.6343C205.324 90.6343 187.614 108.468 187.614 130.467C187.614 152.467 205.324 170.301 227.171 170.301Z" fill="url(#paint5_linear)"/>
</g>
<path d="M227.171 169.242C248.556 169.242 265.891 151.785 265.891 130.251C265.891 108.717 248.556 91.2598 227.171 91.2598C205.787 91.2598 188.451 108.717 188.451 130.251C188.451 151.785 205.787 169.242 227.171 169.242Z" fill="#F5F5F5"/>
<path d="M227.28 169.359C234.847 169.371 242.25 167.141 248.566 162.945C247.139 155.095 241.708 154.645 241.708 154.645H211.767C211.767 154.645 206.647 155.067 205.043 162.292C211.553 166.903 219.321 169.372 227.28 169.359Z" fill="#5271FF"/>
<path opacity="0.1" d="M220.839 145.068H232.817V154.716C232.817 156.315 232.186 157.849 231.063 158.979C229.94 160.11 228.417 160.745 226.83 160.745C226.043 160.746 225.264 160.59 224.538 160.287C223.811 159.985 223.15 159.541 222.594 158.981C222.038 158.421 221.596 157.756 221.295 157.024C220.994 156.293 220.839 155.508 220.839 154.716V145.068Z" fill="black"/>
<path d="M221.983 144.622H231.673C231.976 144.622 232.267 144.743 232.482 144.959C232.696 145.175 232.817 145.468 232.817 145.773V154.27C232.817 155.869 232.186 157.402 231.063 158.533C229.94 159.663 228.417 160.298 226.83 160.298C226.043 160.299 225.264 160.143 224.538 159.84C223.811 159.538 223.15 159.094 222.594 158.534C222.038 157.974 221.596 157.309 221.295 156.578C220.994 155.846 220.839 155.062 220.839 154.27V145.773C220.839 145.468 220.96 145.175 221.174 144.959C221.389 144.743 221.68 144.622 221.983 144.622Z" fill="#FDB797"/>
<path opacity="0.1" d="M220.863 149.623C224.723 151.076 228.972 151.088 232.841 149.657V148.176H220.863V149.623Z" fill="black"/>
<path d="M226.871 150.43C236.351 150.43 244.036 142.692 244.036 133.145C244.036 123.599 236.351 115.86 226.871 115.86C217.391 115.86 209.705 123.599 209.705 133.145C209.705 142.692 217.391 150.43 226.871 150.43Z" fill="#FDB797"/>
<path d="M210.06 135.42C210.942 135.42 211.657 134.071 211.657 132.406C211.657 130.741 210.942 129.392 210.06 129.392C209.178 129.392 208.463 130.741 208.463 132.406C208.463 134.071 209.178 135.42 210.06 135.42Z" fill="#FDB797"/>
<path d="M243.592 135.42C244.475 135.42 245.19 134.071 245.19 132.406C245.19 130.741 244.475 129.392 243.592 129.392C242.71 129.392 241.995 130.741 241.995 132.406C241.995 134.071 242.71 135.42 243.592 135.42Z" fill="#FDB797"/>
<path d="M222.269 133.228H217.897C217.077 133.228 216.412 133.897 216.412 134.723V135.431C216.412 136.256 217.077 136.926 217.897 136.926H222.269C223.089 136.926 223.754 136.256 223.754 135.431V134.723C223.754 133.897 223.089 133.228 222.269 133.228Z" stroke="#333333" stroke-width="2" stroke-miterlimit="10"/>
<path d="M231.475 136.922H235.848C236.668 136.922 237.333 136.253 237.333 135.427V134.719C237.333 133.893 236.668 133.224 235.848 133.224H231.475C230.655 133.224 229.991 133.893 229.991 134.719V135.427C229.991 136.253 230.655 136.922 231.475 136.922Z" stroke="#333333" stroke-width="2" stroke-miterlimit="10"/>
<path d="M223.475 133.585C223.475 133.585 225.802 132.313 230.13 133.585" stroke="#333333" stroke-width="2" stroke-miterlimit="10"/>
<path d="M238.739 120.617L242.951 130.471C242.951 130.471 248.101 123.934 238.739 120.617Z" fill="#858585"/>
<path d="M237.333 135.077L243.62 129.423" stroke="#333333" stroke-width="2" stroke-linecap="round" stroke-linejoin="round"/>
<path d="M215.01 120.617L210.798 130.471C210.798 130.471 205.647 123.934 215.01 120.617Z" fill="#858585"/>
<path d="M216.412 135.077L210.04 129.423" stroke="#333333" stroke-width="2" stroke-linecap="round" stroke-linejoin="round"/>
<g opacity="0.5">
<path opacity="0.5" d="M39.8398 255.432C61.6863 255.432 79.3963 237.598 79.3963 215.599C79.3963 193.6 61.6863 175.766 39.8398 175.766C17.9933 175.766 0.283264 193.6 0.283264 215.599C0.283264 237.598 17.9933 255.432 39.8398 255.432Z" fill="url(#paint6_linear)"/>
</g>
<path d="M39.84 254.373C61.2246 254.373 78.5603 236.917 78.5603 215.382C78.5603 193.848 61.2246 176.391 39.84 176.391C18.4554 176.391 1.11969 193.848 1.11969 215.382C1.11969 236.917 18.4554 254.373 39.84 254.373Z" fill="#F5F5F5"/>
<path d="M61.2581 218.888C61.2581 233.249 51.9535 249.235 40.4746 249.235C28.9957 249.235 19.7014 233.249 19.7014 218.888C19.7014 204.528 29.006 197.234 40.4848 197.234C51.9637 197.234 61.2581 204.531 61.2581 218.888Z" fill="#FDD835"/>
<path d="M39.9491 254.494C47.5156 254.506 54.9183 252.276 61.2343 248.08C59.8076 240.23 54.377 239.779 54.377 239.779H24.4391C24.4391 239.779 19.3192 240.202 17.715 247.427C24.2241 252.038 31.991 254.506 39.9491 254.494Z" fill="#5271FF"/>
<path opacity="0.1" d="M33.5115 230.2H45.4887V239.848C45.4887 241.447 44.8579 242.98 43.7352 244.111C42.6124 245.242 41.0896 245.877 39.5018 245.877C37.914 245.877 36.3912 245.242 35.2684 244.111C34.1456 242.98 33.5149 241.447 33.5149 239.848V230.2H33.5115Z" fill="black"/>
<path d="M34.6551 229.753H44.3454C44.6487 229.753 44.9395 229.874 45.154 230.09C45.3684 230.306 45.4889 230.599 45.4889 230.905V239.401C45.4889 241 44.8581 242.534 43.7354 243.664C42.6126 244.795 41.0898 245.43 39.502 245.43C37.9142 245.43 36.3914 244.795 35.2686 243.664C34.1458 242.534 33.5151 241 33.5151 239.401V230.905C33.5151 230.6 33.6351 230.307 33.8488 230.092C34.0625 229.876 34.3524 229.754 34.6551 229.753Z" fill="#FDB797"/>
<path opacity="0.1" d="M33.5355 234.754C37.3955 236.207 41.6446 236.219 45.5127 234.789V233.307H33.5355V234.754Z" fill="black"/>
<path d="M39.5429 235.562C49.0231 235.562 56.7083 227.823 56.7083 218.276C56.7083 208.73 49.0231 200.991 39.5429 200.991C30.0627 200.991 22.3775 208.73 22.3775 218.276C22.3775 227.823 30.0627 235.562 39.5429 235.562Z" fill="#FDB797"/>
<path d="M22.7325 220.552C23.6147 220.552 24.3299 219.202 24.3299 217.537C24.3299 215.873 23.6147 214.523 22.7325 214.523C21.8503 214.523 21.1351 215.873 21.1351 217.537C21.1351 219.202 21.8503 220.552 22.7325 220.552Z" fill="#FDB797"/>
<path d="M56.2645 220.552C57.1467 220.552 57.8619 219.202 57.8619 217.537C57.8619 215.873 57.1467 214.523 56.2645 214.523C55.3822 214.523 54.6671 215.873 54.6671 217.537C54.6671 219.202 55.3822 220.552 56.2645 220.552Z" fill="#FDB797"/>
<path opacity="0.1" d="M24.3333 208.9C24.3333 208.9 34.0373 222.274 56.2919 217.706C56.2919 217.706 58.7767 214.66 52.7284 205.311C46.6801 195.962 29.8389 197.485 24.3333 208.9Z" fill="black"/>
<path d="M24.3333 208.683C24.3333 208.683 34.0373 222.057 56.2919 217.489C56.2919 217.489 58.7767 214.444 52.7284 205.095C46.6801 195.746 29.8389 197.268 24.3333 208.683Z" fill="#FDD835"/>
<g opacity="0.5">
<path opacity="0.5" d="M133.811 260C155.657 260 173.367 242.166 173.367 220.167C173.367 198.168 155.657 180.334 133.811 180.334C111.964 180.334 94.2543 198.168 94.2543 220.167C94.2543 242.166 111.964 260 133.811 260Z" fill="url(#paint7_linear)"/>
</g>
<path d="M133.89 258.903C155.274 258.903 172.61 241.447 172.61 219.912C172.61 198.378 155.274 180.921 133.89 180.921C112.505 180.921 95.1693 198.378 95.1693 219.912C95.1693 241.447 112.505 258.903 133.89 258.903Z" fill="#F5F5F5"/>
<path d="M155.192 223.755C155.192 236.727 145.938 243.11 133.92 243.11C121.902 243.11 111.679 236.727 111.679 223.755C111.679 210.783 121.421 200.269 133.435 200.269C145.45 200.269 155.192 210.773 155.192 223.755Z" fill="#333333"/>
<path d="M133.92 259.058C141.488 259.071 148.892 256.841 155.209 252.644C153.782 244.794 148.352 244.344 148.352 244.344H118.41C118.41 244.344 113.29 244.767 111.686 251.991C118.195 256.602 125.962 259.071 133.92 259.058Z" fill="#5271FF"/>
<path opacity="0.1" d="M127.483 234.758H139.46V244.406C139.461 245.199 139.307 245.986 139.006 246.719C138.705 247.453 138.263 248.119 137.705 248.68C137.148 249.241 136.486 249.686 135.757 249.989C135.028 250.292 134.248 250.447 133.459 250.445C131.872 250.445 130.349 249.81 129.226 248.679C128.103 247.548 127.473 246.015 127.473 244.416V234.758H127.483Z" fill="black"/>
<path d="M128.623 234.321H138.313C138.616 234.321 138.907 234.442 139.122 234.658C139.336 234.874 139.457 235.167 139.457 235.473V243.969C139.457 244.762 139.301 245.547 139 246.279C138.698 247.011 138.256 247.676 137.699 248.236C137.142 248.796 136.481 249.24 135.754 249.542C135.026 249.844 134.247 249.999 133.459 249.998C131.872 249.998 130.349 249.363 129.226 248.232C128.103 247.102 127.473 245.568 127.473 243.969V235.469C127.473 235.164 127.593 234.871 127.807 234.655C128.022 234.439 128.313 234.318 128.616 234.318L128.623 234.321Z" fill="#FDA57D"/>
<path opacity="0.1" d="M127.507 239.322C131.367 240.775 135.616 240.787 139.484 239.356V237.875H127.507V239.322Z" fill="black"/>
<path d="M133.514 240.126C142.994 240.126 150.679 232.387 150.679 222.841C150.679 213.294 142.994 205.555 133.514 205.555C124.034 205.555 116.349 213.294 116.349 222.841C116.349 232.387 124.034 240.126 133.514 240.126Z" fill="#FDA57D"/>
<path opacity="0.1" d="M113.73 223.972C113.73 223.972 124.421 222.666 132.504 212.23C132.504 212.23 143.194 224.082 150.642 222.776C150.642 222.776 154.96 218.208 150.642 213.643C146.324 209.079 142.975 203.314 137.255 204.074C131.534 204.834 124.513 205.16 121.492 207.879C118.472 210.598 113.73 223.972 113.73 223.972Z" fill="black"/>
<path d="M113.73 223.755C113.73 223.755 124.421 222.449 132.504 212.014C132.504 212.014 143.194 223.865 150.642 222.559C150.642 222.559 154.96 217.991 150.642 213.427C146.324 208.862 142.975 203.098 137.255 203.857C131.534 204.617 124.527 204.93 121.506 207.68C118.485 210.429 113.73 223.755 113.73 223.755Z" fill="#333333"/>
<path d="M116.342 225.842C117.224 225.842 117.939 224.492 117.939 222.827C117.939 221.162 117.224 219.813 116.342 219.813C115.46 219.813 114.744 221.162 114.744 222.827C114.744 224.492 115.46 225.842 116.342 225.842Z" fill="#FDA57D"/>
<path d="M150.676 225.842C151.558 225.842 152.273 224.492 152.273 222.827C152.273 221.162 151.558 219.813 150.676 219.813C149.794 219.813 149.079 221.162 149.079 222.827C149.079 224.492 149.794 225.842 150.676 225.842Z" fill="#FDA57D"/>
</g>
<defs>
<linearGradient id="paint0_linear" x1="39.8398" y1="81.7974" x2="39.8398" y2="2.13454" gradientUnits="userSpaceOnUse">
<stop stop-color="#808080" stop-opacity="0.25"/>
<stop offset="0.54" stop-color="#808080" stop-opacity="0.12"/>
<stop offset="1" stop-color="#808080" stop-opacity="0.1"/>
</linearGradient>
<linearGradient id="paint1_linear" x1="30556.7" y1="39142.1" x2="30556.7" y2="20677.8" gradientUnits="userSpaceOnUse">
<stop stop-color="#808080" stop-opacity="0.25"/>
<stop offset="0.54" stop-color="#808080" stop-opacity="0.12"/>
<stop offset="1" stop-color="#808080" stop-opacity="0.1"/>
</linearGradient>
<linearGradient id="paint2_linear" x1="30548" y1="18505.9" x2="30548" y2="40.8052" gradientUnits="userSpaceOnUse">
<stop stop-color="#808080" stop-opacity="0.25"/>
<stop offset="0.54" stop-color="#808080" stop-opacity="0.12"/>
<stop offset="1" stop-color="#808080" stop-opacity="0.1"/>
</linearGradient>
<linearGradient id="paint3_linear" x1="52498.1" y1="18464.3" x2="52498.1" y2="0" gradientUnits="userSpaceOnUse">
<stop stop-color="#808080" stop-opacity="0.25"/>
<stop offset="0.54" stop-color="#808080" stop-opacity="0.12"/>
<stop offset="1" stop-color="#808080" stop-opacity="0.1"/>
</linearGradient>
<linearGradient id="paint4_linear" x1="9168.41" y1="38534.8" x2="9168.41" y2="20070.5" gradientUnits="userSpaceOnUse">
<stop stop-color="#808080" stop-opacity="0.25"/>
<stop offset="0.54" stop-color="#808080" stop-opacity="0.12"/>
<stop offset="1" stop-color="#808080" stop-opacity="0.1"/>
</linearGradient>
<linearGradient id="paint5_linear" x1="52841.4" y1="39562.9" x2="52841.4" y2="21098.6" gradientUnits="userSpaceOnUse">
<stop stop-color="#808080" stop-opacity="0.25"/>
<stop offset="0.54" stop-color="#808080" stop-opacity="0.12"/>
<stop offset="1" stop-color="#808080" stop-opacity="0.1"/>
</linearGradient>
<linearGradient id="paint6_linear" x1="9234.36" y1="59379.8" x2="9234.36" y2="40915.5" gradientUnits="userSpaceOnUse">
<stop stop-color="#808080" stop-opacity="0.25"/>
<stop offset="0.54" stop-color="#808080" stop-opacity="0.12"/>
<stop offset="1" stop-color="#808080" stop-opacity="0.1"/>
</linearGradient>
<linearGradient id="paint7_linear" x1="31109" y1="60443.1" x2="31109" y2="41978.8" gradientUnits="userSpaceOnUse">
<stop stop-color="#808080" stop-opacity="0.25"/>
<stop offset="0.54" stop-color="#808080" stop-opacity="0.12"/>
<stop offset="1" stop-color="#808080" stop-opacity="0.1"/>
</linearGradient>
<clipPath id="clip0">
<rect width="266.724" height="260" fill="white"/>
</clipPath>
</defs>
</svg>
