<svg width="322" height="234" viewBox="0 0 322 234" fill="none" xmlns="http://www.w3.org/2000/svg">
<path opacity="0.1" d="M42.0247 66.0025C42.446 68.6952 43.5225 71.2961 43.5318 74.0195C43.567 82.9185 32.851 88.3842 31.2105 97.1275C30.237 102.315 32.7597 107.616 36.3169 111.485C39.8741 115.355 44.4094 118.144 48.5868 121.327C60.1447 130.151 69.0536 142.025 74.327 155.636C75.3825 158.371 76.2905 161.191 76.59 164.11C76.8077 166.232 76.7047 168.404 77.1985 170.477C79.1526 178.703 89.0612 181.896 97.4392 182.429C110.933 183.273 124.439 181 136.928 175.784C139.737 174.605 142.636 173.266 145.65 173.598C148.061 173.865 150.212 175.178 152.327 176.374C158.557 179.897 165.188 182.647 172.074 184.565C175.889 185.626 179.893 186.433 183.789 185.744C195.491 183.665 201.709 169.366 213.19 166.239C221.133 164.077 229.398 167.854 236.522 172.002C243.646 176.15 250.999 180.927 259.222 180.939C270.193 180.953 279.213 172.587 286.655 164.466C288.215 162.761 289.802 160.979 290.546 158.783C292.056 154.327 289.61 149.321 285.995 146.326C282.379 143.332 277.82 141.846 273.465 140.134C266.083 137.233 259.038 133.526 252.457 129.08C248.197 126.203 244.072 122.95 241.158 118.705C238.652 115.046 237.147 110.804 235.466 106.691C231.783 97.6863 226.574 88.5351 217.875 84.3096C210.772 80.8576 202.523 81.2443 194.639 81.1523C183.022 81.0227 171.11 79.615 160.811 74.2011C152.112 69.629 144.967 62.4113 136.14 58.0891C122.098 51.2204 106.047 52.5668 90.917 52.8262C83.6459 52.9512 75.0034 53.6821 68.0201 51.2817C62.8552 49.5062 60.1967 45.8773 54.2642 47.3392C46.1506 49.3317 40.7282 57.6954 42.0247 66.0025Z" fill="#5271FF"/>
<path d="M257.024 130.393C256.657 129.175 256.696 127.871 257.133 126.677C257.834 124.859 259.54 123.547 260.14 121.69C261.256 118.239 258.249 115.009 256.405 111.881C254.713 108.979 253.946 105.628 254.208 102.276C254.495 98.678 255.964 95.2366 256.076 91.629C256.176 88.2673 255.09 84.9969 254.019 81.8109C253.134 79.1778 252.233 76.5142 250.736 74.1763C247.907 69.7557 242.88 66.9773 237.711 66.5182C235.271 66.3003 232.885 67.0968 230.487 66.7852C227.158 66.3542 224.011 65.4874 220.616 65.3797C217.392 65.2836 213.827 65.6936 211.63 68.0643C209.951 69.8799 209.415 72.5013 207.878 74.441C205.698 77.1936 201.885 78.1377 199.473 80.6865C198.431 81.8129 197.7 83.1923 197.35 84.6888C197.001 86.1852 197.047 87.7472 197.482 89.2207C197.816 90.3077 198.362 91.3174 198.717 92.3973C200.209 96.9093 198.25 101.735 197.066 106.336C196.933 106.712 196.909 107.118 196.996 107.507C197.183 108.07 197.771 108.365 198.259 108.697C199.856 109.789 200.671 111.766 200.828 113.699C200.984 115.632 200.538 117.557 200.099 119.445C198.981 124.246 197.582 129.388 193.896 132.581C193.226 130.979 192.435 129.431 191.528 127.952C189.273 124.283 187.604 119.752 187.576 115.416C187.574 115.403 187.574 115.39 187.576 115.376C187.576 115.142 187.587 114.908 187.601 114.674C187.893 109.557 190.097 104.621 190.048 99.5284C190.048 99.116 190.037 98.703 190.013 98.2891C189.726 93.9294 187.639 89.8977 185.246 86.2479C183.46 83.5234 181.447 80.8926 178.87 78.9084C174.884 75.8653 169.82 74.5441 164.845 73.846C159.87 73.1479 155.343 72.4919 150.328 72.1546C144.935 71.7915 139 71.5877 134.737 74.9189C129.178 79.2622 128.87 87.6512 124.633 93.2969C122.111 96.6563 118.095 99.2519 116.767 103.068C116.408 102.132 116.108 101.173 115.87 100.198C115.856 100.133 115.842 100.07 115.828 100.004C117.431 95.3993 117.803 90.4539 116.909 85.6599C117.015 84.8835 117.069 84.1009 117.07 83.3173C117.097 82.4645 117.005 81.6123 116.797 80.7849C116.197 78.5031 114.542 76.6782 112.943 74.947C112.36 74.2861 111.728 73.6713 111.052 73.108C106.866 68.0201 101.015 64.5907 94.5422 63.4322C88.0696 62.2737 81.3973 63.4617 75.717 66.784C70.0368 70.1062 65.7184 75.3464 63.5332 81.5685C61.3481 87.7907 61.4384 94.5897 63.7881 100.751C63.5826 102.349 62.9663 103.902 61.834 105.029C61.318 105.542 60.6503 106.184 60.7623 106.84C60.7276 107.027 60.7538 107.22 60.837 107.39C60.9518 107.595 61.1115 107.77 61.304 107.903C62.9373 109.156 64.9715 109.764 67.0216 109.613C68.7516 114.715 72.1433 119.084 76.6499 122.015C76.6499 122.172 76.6445 122.323 76.6336 122.47C76.6336 122.73 76.6126 122.988 76.6009 123.25C76.6009 123.308 76.6009 123.367 76.6009 123.426C76.6009 123.405 76.6009 123.381 76.6009 123.358C76.6009 123.334 68.4715 133.991 60.9585 134.387C56.9474 134.598 53.4477 137.313 50.7955 140.417C47.611 144.142 45.6452 148.424 45.4771 149.609C45.1666 151.783 43 162.349 43 162.349H105.416C104.678 166.153 103.683 171 103.683 171H204.726C204.493 167.741 204.234 164.729 203.993 162.178H216.696L216.682 162.255H275.283L279 156.658C278.078 140.351 268.492 131.386 257.024 130.393ZM111.129 112.176C112.447 112.888 113.863 113.4 115.331 113.694C115.968 113.825 116.681 113.907 117.225 113.549C117.585 113.276 117.852 112.897 117.988 112.464L118.016 112.535C119.592 116.517 121.051 120.626 121.334 124.904C121.359 125.307 121.376 125.71 121.378 126.115C121.384 128.555 120.882 130.97 119.905 133.204C114.626 130.418 109.536 127.288 104.666 123.833L104.337 123.693C104.337 123.718 104.451 124.011 104.587 124.506C104.62 124.625 104.655 124.756 104.69 124.897C104.356 123.815 104.052 122.709 103.786 121.582C103.756 121.448 103.725 121.315 103.695 121.181C106.874 118.84 109.428 115.747 111.129 112.176V112.176Z" fill="url(#paint0_linear)"/>
<path d="M219.518 67.0127C216.315 66.9173 212.771 67.3197 210.592 69.6369C208.923 71.4096 208.391 73.9733 206.864 75.8694C204.698 78.561 200.912 79.4823 198.513 81.9739C197.478 83.075 196.751 84.4233 196.404 85.8862C196.057 87.349 196.101 88.8759 196.534 90.3164C196.866 91.3773 197.408 92.366 197.761 93.4199C199.244 97.8401 197.309 102.546 196.112 107.043C195.978 107.412 195.955 107.811 196.044 108.193C196.227 108.742 196.814 109.03 197.297 109.356C198.883 110.424 199.694 112.355 199.837 114.241C199.981 116.128 199.55 118.012 199.114 119.857C197.957 124.743 196.496 130.003 192.478 133.081C190.782 134.395 188.515 135.461 188.072 137.554C187.554 140.006 189.924 142.091 192.198 143.201C198.874 146.458 206.624 146.504 213.926 147.956C220.356 149.235 226.77 151.66 233.279 150.831C236.179 150.464 238.953 149.456 241.698 148.458L258.791 142.24C259.274 142.094 259.728 141.868 260.134 141.572C261.164 140.725 261.199 139.115 260.638 137.913C260.077 136.71 259.06 135.789 258.164 134.802C256.213 132.646 254.729 129.6 255.794 126.906C256.501 125.129 258.185 123.847 258.781 122.021C259.889 118.648 256.896 115.488 255.082 112.431C253.403 109.598 252.642 106.326 252.9 103.054C253.185 99.536 254.644 96.172 254.75 92.6452C254.849 89.3603 253.772 86.1638 252.707 83.0487C251.828 80.4757 250.932 77.8724 249.446 75.5855C246.634 71.2654 241.641 68.5504 236.505 68.0991C234.08 67.8874 231.712 68.6644 229.329 68.362C226.019 67.9595 222.89 67.1127 219.518 67.0127Z" fill="#F7D6C8"/>
<path d="M224.603 159C224.603 159 205.636 146.93 213.012 133.016C214.719 129.8 215.473 126.757 215.627 123.978C215.668 123.246 215.668 122.512 215.627 121.78C215.627 121.745 215.627 121.71 215.627 121.675C215.603 121.297 215.57 120.926 215.528 120.56C214.649 113.215 210 108.428 210 108.428C210 108.428 241.46 99.1086 236.193 107.51C233.748 111.41 234.479 115.235 236.116 119.193C236.289 119.61 236.474 120.031 236.665 120.45C238.556 124.624 241.181 128.948 241.914 133.637C243.418 143.262 224.603 159 224.603 159Z" fill="#EFB7B9"/>
<path opacity="0.1" d="M236.4 107.58C233.936 111.556 234.673 115.455 236.323 119.491C233.264 121.516 229.753 122.707 226.121 122.952C222.489 123.198 218.856 122.49 215.565 120.894C214.686 113.396 210 108.515 210 108.515C210 108.515 241.712 99.0119 236.4 107.58Z" fill="black"/>
<path d="M224.5 123C236.374 123 246 113.374 246 101.5C246 89.6259 236.374 80 224.5 80C212.626 80 203 89.6259 203 101.5C203 113.374 212.626 123 224.5 123Z" fill="#EFB7B9"/>
<path opacity="0.1" d="M224.424 159C224.424 159 205.272 147.105 212.72 133.393C214.443 130.223 215.204 127.224 215.361 124.486C215.796 127.872 218.155 132.083 222.449 137.91C224.312 140.448 225.113 143.996 225.367 147.541L225.793 147.848L227.889 146.593C228.122 142.671 228.923 138.708 230.819 135.898C235.8 128.516 236.983 124.825 236.615 121C238.524 125.113 241.174 129.374 241.915 133.995C243.422 143.49 224.424 159 224.424 159Z" fill="black"/>
<path d="M255.063 130.714C243.628 129.883 236.394 121 236.394 121C237.003 125.161 236.013 128.886 230.681 136.879C228.793 139.714 227.992 143.718 227.759 147.697L225.659 148.968L225.232 148.657C224.977 145.07 224.177 141.474 222.308 138.908C216.977 131.592 214.606 126.791 215.225 122.98C215.225 122.98 209.36 132.505 197.937 133.269C186.513 134.032 176.917 142.109 176 156.893L179.655 161.923H215.703L215.689 162H273.331L277 156.505C276.083 140.365 266.498 131.545 255.063 130.714Z" fill="#5271FF"/>
<path opacity="0.05" d="M255.063 130.714C243.628 129.883 236.394 121 236.394 121C237.003 125.161 236.013 128.886 230.681 136.879C228.793 139.714 227.992 143.718 227.759 147.697L225.659 148.968L225.232 148.657C224.977 145.07 224.177 141.474 222.308 138.908C216.977 131.592 214.606 126.791 215.225 122.98C215.225 122.98 209.36 132.505 197.937 133.269C186.513 134.032 176.917 142.109 176 156.893L179.655 161.923H215.703L215.689 162H273.331L277 156.505C276.083 140.365 266.498 131.545 255.063 130.714Z" fill="black"/>
<path opacity="0.1" d="M239.148 90.2277C238.203 92.5435 236.525 94.499 234.691 96.216C232.158 98.5902 228.973 100.681 225.489 100.52C227.388 98.7689 228.763 96.5334 229.462 94.0593C227.264 95.3271 225.603 97.3341 223.504 98.7633C221.406 100.193 218.44 100.929 216.389 99.437C220.114 97.5829 223.209 94.6886 225.291 91.1119C220.309 92.3914 217.752 97.9446 213.264 100.438C211.161 101.608 208.701 102.047 206.291 101.996C204.577 101.961 202.668 101.566 201.713 100.157C201.155 99.3387 201.025 98.3095 201.004 97.32C200.9 92.8335 202.746 88.4313 205.589 84.9389C208.432 81.4466 212.206 78.7916 216.242 76.7308C217.679 75.9963 219.177 75.3273 220.777 75.0934C222.767 74.8081 224.794 75.2268 226.746 75.6712C229.285 76.2466 231.837 76.8782 234.174 78.0104C239.163 80.4548 241.342 84.8851 239.148 90.2277Z" fill="black"/>
<path d="M239.148 90.2277C238.203 92.5435 236.525 94.499 234.691 96.216C232.158 98.5902 228.973 100.681 225.489 100.52C227.388 98.7689 228.763 96.5334 229.462 94.0593C227.264 95.3271 225.603 97.3341 223.504 98.7633C221.406 100.193 218.44 100.929 216.389 99.437C220.114 97.5829 223.209 94.6886 225.291 91.1119C220.309 92.3914 217.752 97.9446 213.264 100.438C211.161 101.608 208.701 102.047 206.291 101.996C204.577 101.961 202.668 101.566 201.713 100.157C201.155 99.3387 201.025 98.3095 201.004 97.32C200.9 92.8335 202.746 88.4313 205.589 84.9389C208.432 81.4466 212.206 78.7916 216.242 76.7308C217.679 75.9963 219.177 75.3273 220.777 75.0934C222.767 74.8081 224.794 75.2268 226.746 75.6712C229.285 76.2466 231.837 76.8782 234.174 78.0104C239.163 80.4501 241.342 84.8851 239.148 90.2277Z" fill="#F7D6C8"/>
<path d="M90.5 119C105.688 119 118 106.688 118 91.5C118 76.3122 105.688 64 90.5 64C75.3122 64 63 76.3122 63 91.5C63 106.688 75.3122 119 90.5 119Z" fill="#C3705A"/>
<path d="M115 144.535C115 144.535 89.8812 151.056 89.2591 151.672C88.637 152.288 68.1147 153.38 74.0892 140.648C76.2842 135.974 77.1974 129.625 77.4744 123.462C77.4861 123.2 77.4979 122.941 77.5073 122.681C77.8852 112.35 76.5424 102.764 76.5424 102.764C76.5424 102.764 105.652 91.1077 103.509 108.82C102.973 113.226 103.417 117.653 104.389 121.816C104.713 123.205 105.093 124.563 105.516 125.881C108.915 136.5 115 144.535 115 144.535Z" fill="#ECB4B6"/>
<path opacity="0.1" d="M104 121.384C100.257 124.23 95.7551 125.836 91.0973 125.988C86.4396 126.14 81.8476 124.83 77.9355 122.234C78.302 112.098 77 102.693 77 102.693C77 102.693 105.225 91.2569 103.146 108.635C102.63 112.959 103.06 117.302 104 121.384Z" fill="black"/>
<path d="M90.5 126C103.479 126 114 115.479 114 102.5C114 89.5213 103.479 79 90.5 79C77.5213 79 67 89.5213 67 102.5C67 115.479 77.5213 126 90.5 126Z" fill="#ECB4B6"/>
<path opacity="0.1" d="M115 144.415C115 144.415 89.8812 151.04 89.2591 151.666C88.637 152.293 68.1147 153.402 74.0892 140.465C76.2842 135.715 77.1974 129.263 77.4744 123C77.7092 126.273 79.5262 134.199 79.7586 136.836C79.7734 136.991 79.8032 137.143 79.8478 137.291C80.1882 138.463 81.4018 139.815 82.8644 141.096L82.9512 141.171C84.7705 142.742 87.0279 143.677 89.3971 143.84C91.7663 144.003 94.1244 143.385 96.1304 142.077C98.2183 140.723 100.222 139.236 102.131 137.624C104.863 135.301 105.715 132.171 105.821 129.406C105.865 128.078 105.762 126.75 105.516 125.446C108.915 136.249 115 144.415 115 144.415Z" fill="black"/>
<path d="M147 162H44C44 162 46.1559 151.706 46.4625 149.586C46.63 148.426 48.5853 144.251 51.7531 140.626C54.3901 137.611 57.8692 134.955 61.8578 134.748C69.3231 134.363 77.4064 124 77.4064 124C77.5856 127.015 79.4773 134.89 79.7155 137.474C79.7304 137.622 79.7604 137.768 79.8052 137.91C80.1472 139.035 81.3666 140.331 82.8361 141.561L82.9234 141.633C84.7508 143.141 87.0189 144.039 89.3994 144.195C91.78 144.352 94.1495 143.76 96.1652 142.505C98.2627 141.205 100.276 139.778 102.194 138.232C104.94 136.003 105.796 133 105.902 130.346C105.956 128.585 105.739 126.827 105.258 125.13C105.124 124.647 105.022 124.364 105.008 124.339L105.336 124.475C105.336 124.475 119.283 134.449 132.06 138.527C133.557 139.006 134.97 139.71 136.249 140.614C137.285 141.351 138.238 142.193 139.094 143.126C140.823 145.05 142.254 147.214 143.339 149.549C146.302 155.723 147 162 147 162Z" fill="#5271FF"/>
<path opacity="0.05" d="M147 162H44C44 162 46.1559 151.706 46.4625 149.586C46.63 148.426 48.5853 144.251 51.7531 140.626C54.3901 137.611 57.8692 134.955 61.8578 134.748C69.3231 134.363 77.4064 124 77.4064 124C77.5856 127.015 79.4773 134.89 79.7155 137.474C79.7304 137.622 79.7604 137.768 79.8052 137.91C80.1472 139.035 81.3666 140.331 82.8361 141.561L82.9234 141.633C84.7508 143.141 87.0189 144.039 89.3994 144.195C91.78 144.352 94.1495 143.76 96.1652 142.505C98.2627 141.205 100.276 139.778 102.194 138.232C104.94 136.003 105.796 133 105.902 130.346C105.956 128.585 105.739 126.827 105.258 125.13C105.124 124.647 105.022 124.364 105.008 124.339L105.336 124.475C105.336 124.475 119.283 134.449 132.06 138.527C133.557 139.006 134.97 139.71 136.249 140.614C137.285 141.351 138.238 142.193 139.094 143.126C140.823 145.05 142.254 147.214 143.339 149.549C146.302 155.723 147 162 147 162Z" fill="black"/>
<path opacity="0.1" d="M101.82 94.4557C102.429 96.7874 103.225 99.3779 105.317 100.593C105.598 100.726 105.856 100.902 106.083 101.113C106.599 101.67 106.442 102.54 106.364 103.295C106.097 105.888 107.217 108.516 109.054 110.374C110.891 112.232 113.376 113.368 115.942 113.89C116.569 114.019 117.275 114.1 117.816 113.748C118.181 113.471 118.45 113.087 118.584 112.65C119.299 110.759 118.996 108.635 118.399 106.704C117.802 104.773 116.921 102.931 116.469 100.961C115.393 96.2861 116.818 91.4549 117.46 86.7006C117.673 85.1197 117.797 83.4899 117.387 81.9486C116.794 79.7149 115.159 77.9242 113.58 76.229C112.73 75.3173 111.86 74.3893 110.769 73.7924C107.55 72.0413 103.406 73.5966 99.9687 72.3211C98.5936 71.8105 97.4245 70.8778 96.115 70.2226C93.3341 68.8236 90.0379 68.7467 86.99 69.3832C83.9421 70.0198 81.0863 71.3278 78.2586 72.6243L76.0963 73.5989C73.0507 74.9979 69.7873 76.5788 68.1474 79.505C66.402 82.6201 66.887 86.6073 65.1416 89.7224C64.6122 90.6551 63.8742 91.5505 63.736 92.623C63.6423 93.3972 63.8812 94.1713 64.1038 94.9197C64.6473 96.7408 65.1205 98.6131 65.0784 100.516C65.0362 102.418 64.4271 104.368 63.073 105.706C62.5014 106.27 61.7376 106.993 62.089 107.714C62.2043 107.915 62.3647 108.087 62.5576 108.217C63.6697 109.058 64.977 109.605 66.3583 109.809C67.7397 110.013 69.1504 109.866 70.4596 109.383C71.4858 108.994 72.4557 108.369 73.0367 107.448C73.4229 106.773 73.7026 106.043 73.866 105.284C74.6063 102.54 75.3513 99.7486 75.2927 96.9063C75.2599 95.2742 74.96 93.628 75.199 92.0098C75.438 90.3916 76.3868 88.7245 77.9681 88.2791C79.1395 87.9457 80.3928 88.3491 81.6158 88.3374C83.3775 88.3234 85.5375 86.3788 87.1704 86.9501C88.576 87.4444 89.6888 90.1212 90.8508 91.1471C93.798 93.7656 97.9118 95.1343 101.82 94.4557Z" fill="black"/>
<path d="M101.82 94.4674C102.43 96.7991 103.227 99.3896 105.32 100.604C105.596 100.735 105.851 100.907 106.077 101.113C106.593 101.67 106.436 102.54 106.358 103.295C106.091 105.888 107.211 108.516 109.049 110.374C110.887 112.232 113.373 113.368 115.94 113.89C116.568 114.019 117.274 114.1 117.815 113.748C118.181 113.471 118.45 113.087 118.584 112.65C119.299 110.759 118.996 108.635 118.399 106.704C117.801 104.773 116.92 102.931 116.467 100.961C115.392 96.2861 116.817 91.4549 117.459 86.7006C117.672 85.1197 117.796 83.4899 117.386 81.9486C116.793 79.7149 115.157 77.9242 113.577 76.229C112.727 75.3173 111.857 74.3893 110.765 73.7924C107.544 72.0413 103.398 73.5966 99.9594 72.3211C98.5835 71.8105 97.4139 70.8778 96.1037 70.2226C93.3215 68.8236 90.0236 68.7467 86.9742 69.3832C83.9248 70.0198 81.0676 71.3278 78.2385 72.6242L76.1032 73.6036C73.0562 75.0026 69.7911 76.5834 68.1504 79.5097C66.4042 82.6248 66.8894 86.612 65.1432 89.7271C64.6135 90.6598 63.8751 91.5551 63.7368 92.6277C63.6431 93.4018 63.8822 94.1759 64.1048 94.9244C64.6486 96.7454 65.1221 98.6178 65.0799 100.52C65.0377 102.423 64.4283 104.372 63.0735 105.711C62.5016 106.275 61.7375 106.998 62.0891 107.718C62.2044 107.92 62.3648 108.092 62.5579 108.222C63.6705 109.063 64.9785 109.61 66.3605 109.814C67.7425 110.018 69.1539 109.871 70.4638 109.388C71.4904 108.998 72.4608 108.374 73.0421 107.453C73.4285 106.778 73.7084 106.048 73.8718 105.289C74.6125 102.544 75.3579 99.7533 75.2993 96.911C75.2665 95.2788 74.9664 93.6327 75.2055 92.0145C75.4446 90.3963 76.3939 88.7291 77.976 88.2838C79.1479 87.9504 80.4019 88.3537 81.6254 88.3421C83.388 88.3281 85.5491 86.3835 87.1828 86.9547C88.5891 87.4491 89.7025 90.1258 90.8651 91.1518C93.7949 93.7796 97.9108 95.1483 101.82 94.4674Z" fill="#C3705A"/>
<path d="M180 104H126V150H180V104Z" fill="#463A3E"/>
<path opacity="0.05" d="M180 104H126V150H180V104Z" fill="black"/>
<path d="M172 170H127C127.581 166.666 129.28 163.013 132.591 159.074C135.205 155.977 137.343 152.496 138.932 148.748C139.359 147.746 139.742 146.743 140.08 145.737C141.074 142.749 141.751 139.662 142.098 136.527C142.098 136.439 142.119 136.35 142.128 136.261C142.36 134.095 142.453 131.916 142.408 129.738C142.408 129.582 142.408 129.43 142.408 129.271C142.247 123.927 141.378 118.629 139.825 113.521L139.768 113.338C139.279 111.771 138.92 110.89 138.92 110.89C138.92 110.89 139.814 110.397 141.288 109.671L141.411 109.61C146.832 106.961 159.664 101.433 165.321 105.372L165.413 105.435C167.392 106.87 168.457 109.502 167.957 113.887C167.957 113.904 167.957 113.923 167.957 113.939C167.957 114.021 167.939 114.1 167.932 114.172C167.629 117.195 167.485 120.232 167.502 123.27C167.502 123.421 167.502 123.573 167.502 123.737C167.502 124.449 167.51 125.17 167.525 125.9C167.525 125.998 167.525 126.096 167.525 126.194C167.571 128.554 167.674 130.991 167.819 133.462C168.019 136.889 168.304 140.38 168.632 143.804C168.772 145.269 168.923 146.725 169.091 148.157C169.109 148.325 169.128 148.498 169.146 148.664C169.339 150.409 169.539 152.119 169.743 153.778L169.757 153.885C170.537 160.473 171.401 166.225 172 170Z" fill="#C17174"/>
<path opacity="0.1" d="M167.879 114.07C167.879 114.087 167.879 114.106 167.879 114.122C167.557 117.284 167.404 120.461 167.422 123.64C167.422 123.795 167.422 123.949 167.422 124.116C164.416 127.751 160.382 130.3 155.899 131.398C151.416 132.495 146.715 132.085 142.469 130.227C142.469 130.067 142.469 129.912 142.469 129.751C142.308 124.242 141.425 118.782 139.843 113.523C139.356 111.926 139 111.029 139 111.029C139 111.029 139.888 110.527 141.355 109.787C146.695 107.098 159.725 101.292 165.348 105.461C167.315 106.922 168.374 109.604 167.879 114.07Z" fill="black"/>
<path d="M151 131C163.15 131 173 121.15 173 109C173 96.8497 163.15 87 151 87C138.85 87 129 96.8497 129 109C129 121.15 138.85 131 151 131Z" fill="#C17174"/>
<path opacity="0.1" d="M152 170H104C104 170 106.157 159.851 106.464 157.761C106.632 156.618 108.589 152.502 111.759 148.928C115.831 145.781 120.874 144.047 126.082 144.004C135.262 143.872 137.934 146.934 138.659 149.197C138.912 149.956 138.977 150.763 138.848 151.55L140.585 153.988L152 170Z" fill="black"/>
<path d="M152 170H104C104 170 106.157 159.851 106.464 157.761C106.632 156.618 108.589 152.502 111.759 148.928C115.831 145.781 120.874 144.047 126.082 144.004C135.262 143.872 137.934 146.933 138.659 149.197C138.912 149.956 138.977 150.763 138.848 151.55L140.585 153.988L152 170Z" fill="#5271FF"/>
<path opacity="0.1" d="M204 170H154C156.384 165.013 162.634 151.718 162.981 148.643C163.115 147.453 164.406 146.337 166.114 145.389C166.654 145.085 167.209 144.81 167.778 144.563L167.881 144.517C168.194 144.382 168.511 144.256 168.832 144.141C173.156 142.585 177.909 142.622 182.208 144.245C186.312 145.779 191.595 147.845 195.707 149.78L195.739 149.797C196.795 150.295 197.779 150.782 198.645 151.25C200.377 152.184 201.642 153.037 202.127 153.72C202.35 154.034 202.597 155.448 202.867 157.641C203.226 160.608 203.617 165.009 204 170Z" fill="black"/>
<path d="M204 170H154C156.384 165.013 162.634 151.718 162.981 148.643C163.115 147.453 164.406 146.337 166.114 145.389C166.654 145.085 167.209 144.81 167.778 144.563L167.881 144.517C168.194 144.382 168.511 144.256 168.832 144.141C173.156 142.585 177.909 142.622 182.208 144.245C186.312 145.779 191.595 147.845 195.707 149.78L195.739 149.797C196.795 150.295 197.779 150.782 198.645 151.25C200.377 152.184 201.642 153.037 202.127 153.72C202.35 154.034 202.597 155.448 202.867 157.641C203.228 160.608 203.617 165.011 204 170Z" fill="#5271FF"/>
<path opacity="0.1" d="M196 145.553C196 146.272 195.98 146.991 195.941 147.711C195.919 148.062 195.893 148.413 195.861 148.763C195.84 149.016 195.814 149.266 195.788 149.516L195.756 149.806C195.372 153.206 194.665 156.587 194.58 160.004C194.58 160.165 194.58 160.326 194.58 160.488C194.564 163.696 195.086 166.855 195.793 170H166.951C166.904 169.418 166.881 168.831 166.888 168.253C166.888 167.732 166.921 167.21 166.975 166.687C167.419 162.382 169.631 158.353 169.965 154.076L169.979 153.88C170 153.559 170.012 153.237 170.007 152.914C170.007 152.886 170.007 152.858 170.007 152.827C169.971 151.413 169.752 150.01 169.356 148.651C169.337 148.583 169.318 148.516 169.3 148.448C168.897 147.1 168.426 145.773 167.889 144.473L167.786 144.213C167.003 142.268 166.18 140.339 165.623 138.405C165.18 136.965 164.952 135.468 164.944 133.962C164.944 133.693 164.96 133.424 164.982 133.155C165 132.935 165.026 132.716 165.059 132.494C165.11 132.147 165.18 131.802 165.266 131.462C165.736 129.62 166.74 127.892 167.701 126.18C168.771 124.274 169.791 122.39 169.974 120.386C169.997 120.132 170.006 119.878 170 119.624C169.993 119.296 169.961 118.969 169.906 118.646C169.659 117.224 168.923 115.945 168.319 114.634C168.258 114.5 168.197 114.367 168.138 114.231C168.138 114.21 168.12 114.189 168.113 114.168C166.937 111.468 166.256 108.587 165.539 105.72C165.508 105.596 165.478 105.472 165.445 105.35C165.268 104.649 165.087 103.948 164.895 103.246C163.841 99.4205 162.342 95.5553 159.488 92.7938C156.635 90.0322 152.084 88.6339 148.511 90.3923C145.42 91.9239 143.746 95.3519 142.992 98.7003C142.237 102.049 142.176 105.545 141.196 108.837C141.125 109.077 141.047 109.316 140.961 109.555C140.918 109.676 140.876 109.789 140.834 109.922C140.413 111.114 139.894 112.295 139.334 113.469L139.275 113.593C137.489 117.374 135.413 121.09 135.348 124.889V124.938C135.348 125.041 135.348 125.142 135.348 125.245C135.36 126.148 135.497 127.045 135.757 127.91C136.227 129.468 137.078 130.826 138.07 132.119C138.265 132.374 138.466 132.625 138.671 132.875C139.659 134.081 140.73 135.25 141.668 136.494L141.699 136.534C142.412 137.453 143.014 138.452 143.492 139.511C144.059 140.837 144.356 142.262 144.364 143.703C144.372 145.145 144.092 146.573 143.539 147.905C143.273 148.521 142.968 149.119 142.625 149.696C142.021 150.735 141.356 151.745 140.831 152.825C140.655 153.188 140.498 153.557 140.361 153.931C139.186 156.943 138.932 160.275 137.973 163.383C137.23 165.769 136.075 168.007 134.558 169.998H104C104.355 168.27 106.116 159.709 106.393 157.787C106.56 156.618 108.508 152.409 111.665 148.754C111.4 148.962 111.143 149.173 110.897 149.383C108.906 151.071 107.181 153.046 105.779 155.243C105.848 155.032 105.918 154.82 105.989 154.609C106.419 153.333 106.884 152.068 107.357 150.819C108.725 147.223 110.248 143.554 112.975 140.827C114.514 139.289 116.388 138.103 117.854 136.497C120.44 133.67 121.51 129.753 121.479 125.914C121.479 125.516 121.463 125.121 121.437 124.726C121.157 120.517 119.711 116.488 118.146 112.567C117.304 110.462 116.411 108.25 116.451 106.019C116.454 105.706 116.476 105.394 116.519 105.084C117.166 100.461 121.867 97.6925 124.69 93.9629C128.888 88.4141 129.194 80.1669 134.701 75.9065C138.932 72.6329 144.809 72.834 150.152 73.1894C155.121 73.5215 159.606 74.1645 164.537 74.852C169.469 75.5394 174.473 76.8302 178.429 79.8536C180.984 81.8037 182.978 84.3876 184.748 87.0649C187.117 90.6519 189.188 94.613 189.472 98.8944C189.494 99.2007 189.505 99.5047 189.505 99.8064C189.555 104.81 187.371 109.66 187.082 114.685C187.07 114.919 187.061 115.153 187.058 115.387C187.057 115.399 187.057 115.411 187.058 115.424C187.007 119.78 188.687 124.354 190.974 128.051C194.224 133.319 195.962 139.372 196 145.553V145.553Z" fill="black"/>
<path d="M196 145.629C196 146.245 195.976 146.863 195.941 147.476C195.919 147.825 195.893 148.175 195.861 148.525C195.83 148.874 195.795 149.221 195.756 149.564C195.373 152.954 194.666 156.325 194.581 159.731C194.581 159.992 194.581 160.255 194.581 160.517C194.598 163.713 195.143 166.865 195.861 170H166.999C166.945 169.42 166.912 168.834 166.908 168.259C166.902 167.636 166.931 167.013 166.995 166.394C167.439 162.102 169.649 158.085 169.982 153.821C170.006 153.509 170.022 153.197 170.025 152.889C170.025 152.817 170.025 152.742 170.025 152.67C169.994 151.161 169.758 149.663 169.322 148.217C168.92 146.873 168.449 145.551 167.913 144.254C167.1 142.228 166.229 140.216 165.646 138.193C165.236 136.851 165.008 135.461 164.968 134.059C164.961 133.689 164.974 133.319 165.005 132.95C165.024 132.731 165.05 132.512 165.083 132.29C165.134 131.944 165.203 131.601 165.289 131.262C165.759 129.425 166.762 127.702 167.723 125.996C168.794 124.093 169.818 122.21 169.999 120.21C170.013 120.058 170.02 119.904 170.025 119.743C170.036 119.315 170.004 118.886 169.931 118.464C169.684 117.046 168.949 115.771 168.345 114.463C168.284 114.33 168.223 114.197 168.164 114.062C166.973 111.353 166.285 108.467 165.567 105.577C165.36 104.751 165.148 103.926 164.925 103.108C163.873 99.2939 162.375 95.4404 159.523 92.6872C156.672 89.934 152.131 88.5679 148.564 90.3304C145.475 91.8573 143.803 95.2749 143.049 98.6132C142.295 101.952 142.234 105.437 141.254 108.719C141.146 109.08 141.019 109.442 140.9 109.801C140.463 111.029 139.918 112.249 139.345 113.461C137.51 117.328 135.375 121.133 135.42 125.028V125.077C135.432 125.978 135.57 126.872 135.828 127.735C136.298 129.287 137.148 130.642 138.14 131.931C138.335 132.184 138.536 132.435 138.741 132.684C139.739 133.901 140.822 135.078 141.766 136.332C142.479 137.248 143.08 138.245 143.558 139.3C144.125 140.622 144.421 142.043 144.429 143.48C144.437 144.917 144.157 146.341 143.605 147.669C143.339 148.283 143.034 148.88 142.692 149.455C142.088 150.49 141.423 151.497 140.9 152.574C140.723 152.935 140.566 153.304 140.43 153.677C139.255 156.679 139.002 160.001 138.043 163.1C137.262 165.601 136.026 167.939 134.396 169.998H104C104 169.998 106.147 159.652 106.452 157.521C106.605 156.456 108.251 152.859 110.952 149.448C111.187 149.136 111.455 148.823 111.72 148.515C109.512 150.248 107.597 152.321 106.05 154.656L105.841 154.982C106.33 153.493 106.868 152.022 107.42 150.572C108.787 146.986 110.309 143.328 113.033 140.61C114.572 139.076 116.444 137.894 117.91 136.293C120.418 133.549 121.503 129.765 121.531 126.035C121.531 125.537 121.531 125.04 121.489 124.546C121.21 120.35 119.765 116.333 118.201 112.423C117.4 110.414 116.557 108.32 116.507 106.19C116.496 105.779 116.519 105.368 116.575 104.961C117.224 100.378 121.921 97.6294 124.742 93.8995C128.937 88.3675 129.242 80.1452 134.746 75.8977C138.974 72.634 144.845 72.8345 150.184 73.1888C155.15 73.5199 159.631 74.161 164.559 74.8463C169.487 75.5317 174.494 76.8162 178.443 79.8212C180.996 81.7771 182.988 84.3414 184.756 87.013C187.124 90.5891 189.193 94.5382 189.477 98.8067C189.505 99.2123 189.516 99.6172 189.51 100.021C189.47 104.901 187.37 109.642 187.088 114.552C187.07 114.883 187.06 115.212 187.065 115.545C187.064 115.557 187.064 115.57 187.065 115.582C187.093 119.834 188.747 124.268 190.978 127.861C194.282 133.206 196.021 139.359 196 145.629V145.629Z" fill="#463A3E"/>
<defs>
<linearGradient id="paint0_linear" x1="160.995" y1="170.995" x2="160.995" y2="62.9995" gradientUnits="userSpaceOnUse">
<stop stop-color="#808080" stop-opacity="0.25"/>
<stop offset="0.54" stop-color="#808080" stop-opacity="0.12"/>
<stop offset="1" stop-color="#808080" stop-opacity="0.1"/>
</linearGradient>
</defs>
</svg>
