<svg width="322" height="234" viewBox="0 0 322 234" fill="none" xmlns="http://www.w3.org/2000/svg">
<path d="M311 21.17H11.1279V213.221H311V21.17Z" fill="#E6E6E6"/>
<path d="M302.425 45.2581H19.7026V201.86H302.425V45.2581Z" fill="white"/>
<path d="M310.872 21H11V33.7397H310.872V21Z" fill="#5271FF"/>
<path d="M20.4672 29.8744C21.7712 29.8744 22.8284 28.8172 22.8284 27.5132C22.8284 26.2091 21.7712 25.152 20.4672 25.152C19.1631 25.152 18.106 26.2091 18.106 27.5132C18.106 28.8172 19.1631 29.8744 20.4672 29.8744Z" fill="white"/>
<path d="M29.4296 29.8744C30.7336 29.8744 31.7908 28.8172 31.7908 27.5132C31.7908 26.2091 30.7336 25.152 29.4296 25.152C28.1255 25.152 27.0684 26.2091 27.0684 27.5132C27.0684 28.8172 28.1255 29.8744 29.4296 29.8744Z" fill="white"/>
<path d="M38.392 29.8744C39.696 29.8744 40.7532 28.8172 40.7532 27.5132C40.7532 26.2091 39.696 25.152 38.392 25.152C37.0879 25.152 36.0308 26.2091 36.0308 27.5132C36.0308 28.8172 37.0879 29.8744 38.392 29.8744Z" fill="white"/>
<path d="M109.785 58.1384H54.4888V118.13H109.785V58.1384Z" fill="#E6E6E6"/>
<path d="M188.711 58.1384H133.415V118.13H188.711V58.1384Z" fill="#E6E6E6"/>
<path d="M267.638 58.1384H212.342V118.13H267.638V58.1384Z" fill="#E6E6E6"/>
<path d="M109.785 128.989H54.4888V188.98H109.785V128.989Z" fill="#E6E6E6"/>
<path d="M93.5192 96.8688L93.2978 96.94L83.2869 100.143C80.3792 101.073 77.429 102.012 74.3785 102.166C72.1686 102.278 70.0433 101.887 67.8695 101.583C66.6407 101.41 65.3639 101.438 64.7992 100.172C64.0201 98.4241 64.5964 95.6244 64.5843 93.7581C64.5672 91.9273 64.4608 90.0613 63.8785 88.3213C63.7486 87.9302 63.5937 87.5477 63.4147 87.1761C62.9192 86.1525 62.2101 85.1121 62.3866 83.9896C62.5252 83.0992 63.1944 82.3934 63.8212 81.739C65.0495 80.4618 66.2901 79.0469 66.6274 77.317C66.794 76.4773 66.7376 75.6026 66.9254 74.7665C67.2809 73.1766 68.5037 71.8704 69.9453 71.0811C71.3869 70.2919 73.0379 69.9592 74.6729 69.7585C76.1166 69.5814 77.5703 69.4991 79.0245 69.5121C80.6097 69.5223 82.2251 69.661 83.6904 70.2573C85.1557 70.8536 86.4653 71.9647 86.9722 73.4528C87.6893 75.5572 86.7151 78.0114 87.6462 80.026C88.1152 81.0447 89.0045 81.8049 89.6678 82.7086C90.2112 83.4659 90.5944 84.324 90.7947 85.2318C90.995 86.1396 91.0083 87.0785 90.8338 87.9927C90.4267 90.0671 89.0788 92.2805 90.1329 94.1141C90.8034 95.2801 92.2115 95.7738 93.2562 96.6348C93.3493 96.7121 93.437 96.7901 93.5192 96.8688Z" fill="#F7D6C8"/>
<path d="M98 157.802C98 165.977 92.2582 170 84.8008 170C77.3434 170 71 165.977 71 157.802C71 149.627 77.0447 143 84.5 143C91.9553 143 98 149.62 98 157.802Z" fill="#333333"/>
<path d="M188.711 128.989H133.415V188.98H188.711V128.989Z" fill="#E6E6E6"/>
<path d="M267.638 128.989H212.342V188.98H267.638V128.989Z" fill="#E6E6E6"/>
<path d="M258 156.657C258 167.703 251.059 180 242.496 180C233.933 180 227 167.703 227 156.657C227 145.61 233.941 140 242.504 140C251.067 140 258 145.613 258 156.657Z" fill="#85555C"/>
<path d="M75.9673 94.4135C81.1297 94.4135 85.3146 90.2286 85.3146 85.0663C85.3146 79.9039 81.1297 75.7191 75.9673 75.7191C70.805 75.7191 66.6201 79.9039 66.6201 85.0663C66.6201 90.2286 70.805 94.4135 75.9673 94.4135Z" fill="#FFB9B9"/>
<path d="M72.3164 92.2227C72.3164 92.2227 73.4848 97.7726 73.4848 98.3568C73.4848 98.941 79.0347 101.57 79.0347 101.57L84.0004 100.694L85.7531 95.4358C85.7531 95.4358 82.832 91.0543 82.832 89.3017L72.3164 92.2227Z" fill="#FFB9B9"/>
<path d="M105.615 115.883L103.28 105.366C102.109 101.86 99.1903 98.9417 99.1903 98.9417L84.7853 93.8757H84.7816C84.7536 95.149 84.3243 96.381 83.5551 97.3961C82.7859 98.4112 81.7159 99.1576 80.4976 99.529C76.1144 100.986 73.0968 96.0746 73.0968 96.0746L60.9201 105.366C60.9201 105.366 57.1243 108.582 57.418 114.716L57.0142 118.13H106.738L105.615 115.883Z" fill="#5271FF"/>
<path d="M154.683 99.0716C161.69 99.0716 167.37 93.0419 167.37 85.6038C167.37 78.1657 161.69 72.136 154.683 72.136C147.676 72.136 141.996 78.1657 141.996 85.6038C141.996 93.0419 147.676 99.0716 154.683 99.0716Z" fill="#2F2E41"/>
<path d="M165.94 105.984C169.626 105.984 172.614 102.996 172.614 99.31C172.614 95.6239 169.626 92.6357 165.94 92.6357C162.254 92.6357 159.266 95.6239 159.266 99.31C159.266 102.996 162.254 105.984 165.94 105.984Z" fill="#2F2E41"/>
<path d="M161.292 90.3713L164.867 99.6674L155.809 103.482L155.014 101.679L152.233 95.3771L161.292 90.3713Z" fill="#9F616A"/>
<path d="M154.141 96.4496C158.551 96.4496 162.126 92.8744 162.126 88.4642C162.126 84.054 158.551 80.4789 154.141 80.4789C149.73 80.4789 146.155 84.054 146.155 88.4642C146.155 92.8744 149.73 96.4496 154.141 96.4496Z" fill="#9F616A"/>
<path d="M147.614 87.5884C152.633 84.2392 154.133 83.4386 159.886 84.7323L160.231 76.3394L145.365 79.458L147.614 87.5884Z" fill="#2F2E41"/>
<path d="M179.883 106.577L179.662 106.603C179.657 106.595 179.651 106.588 179.644 106.581C178.77 105.707 174.6 104.118 171.491 103.016H171.487C169.512 102.315 167.967 101.812 167.967 101.812L164.208 97.9468C163.26 99.0114 161.26 99.8337 159.358 100.414C157.902 100.854 156.422 101.207 154.924 101.471H154.92L154.142 103.956C154.142 103.956 145.32 110.634 144.608 111.346H144.604V111.353C144.548 111.434 144.524 111.534 144.538 111.632V111.651C144.093 113.782 143.865 115.953 143.855 118.13H182.269V115.876C182.269 112.778 179.883 106.577 179.883 106.577Z" fill="#575A89"/>
<path d="M250.52 118.13H231.527L230.48 107.811L230.418 107.183L230.289 105.939L229.765 100.737L229.107 106.324L227.72 118.13H224.269L224.398 114.455L224.526 110.729L224.581 109.228L225.29 88.8023C225.235 85.5655 226.259 82.4026 228.201 79.812C229.278 78.4089 230.669 77.2769 232.262 76.5063C233.855 75.7358 235.605 75.348 237.375 75.3738C239.18 75.3679 240.961 75.7801 242.58 76.5782C244.199 77.3762 245.612 78.5384 246.706 79.9735C248.713 82.5901 249.786 85.8025 249.757 89.0996L250.084 101.464L250.52 118.13Z" fill="#2F2E41"/>
<path d="M237.375 96.1115C241.989 96.1115 245.729 92.3711 245.729 87.7571C245.729 83.143 241.989 79.4026 237.375 79.4026C232.76 79.4026 229.02 83.143 229.02 87.7571C229.02 92.3711 232.76 96.1115 237.375 96.1115Z" fill="#FBBEBE"/>
<path d="M233.197 93.7246C233.197 93.7246 235.584 101.781 233.197 104.168C230.81 106.555 230.213 107.45 230.213 107.45L237.076 116.699L249.011 102.079C249.011 102.079 240.656 99.692 242.745 93.1278L233.197 93.7246Z" fill="#FBBEBE"/>
<path d="M258.971 118.13H251.922L251.805 116.922L251.698 115.806L254.943 115.399L258.857 114.911L258.901 116.162L258.971 118.13Z" fill="#FBBEBE"/>
<path d="M259.454 116.103C259.454 116.103 258.261 108.643 257.366 105.66C256.47 102.676 255.575 102.676 255.575 102.676H255.575L255.575 102.675C254.522 101.621 251.989 101.434 250.083 101.464C248.747 101.478 247.719 101.596 247.719 101.596L237.077 112.822L231.717 105.696V105.693C231.235 105.73 230.757 105.812 230.289 105.939C229.887 106.041 229.492 106.17 229.107 106.324C227.447 107.033 225.918 108.015 224.581 109.228H224.577C223.806 109.922 223.351 110.432 223.351 110.432C222.171 112.886 221.281 115.469 220.701 118.13H254.804L254.881 116.596V116.593L259.454 116.103Z" fill="#5271FF"/>
<path d="M230.363 86.4144C235.759 83.5053 237.975 83.6285 244.685 86.4144L246.475 82.0527C246.474 81.2314 246.148 80.4441 245.567 79.8633C244.986 79.2826 244.199 78.9559 243.378 78.955H231.372C230.551 78.9559 229.763 79.2826 229.183 79.8633C228.602 80.4441 228.275 81.2314 228.274 82.0527L230.363 86.4144Z" fill="#2F2E41"/>
<path d="M78.1835 162.781C78.1835 162.781 79.0719 170.185 75.8142 170.777C72.5564 171.369 78.7758 181.439 78.7758 181.439L93.5839 183.216L90.0299 171.369C90.0299 171.369 87.6606 170.481 89.1414 164.557C90.6222 158.634 78.1835 162.781 78.1835 162.781Z" fill="#9F616A"/>
<path d="M84.8473 167.667C89.7542 167.667 93.7321 163.689 93.7321 158.782C93.7321 153.875 89.7542 149.898 84.8473 149.898C79.9403 149.898 75.9624 153.875 75.9624 158.782C75.9624 163.689 79.9403 167.667 84.8473 167.667Z" fill="#9F616A"/>
<path d="M69.5542 188.98C71.1254 182.802 73.295 174.48 73.295 174.48C73.295 174.48 74.1393 174.652 75.4682 174.847C77.4094 175.136 79.3656 175.314 81.3271 175.379C83.8381 175.449 86.4812 175.284 88.5259 174.575C89.2968 174.328 90.0168 173.944 90.6514 173.441C90.9188 173.226 91.1581 172.978 91.3636 172.703C94.9172 167.964 96.3966 186.029 96.3966 186.029L96.6719 188.98L69.5542 188.98Z" fill="#5271FF"/>
<path d="M80.9971 174.774C78.9707 172.457 77.7666 169.08 77.7115 168.929V168.926C77.7115 168.926 74.4811 167.075 73.5927 168.852C72.7043 170.629 64.4115 175.071 63.5231 175.071C63.516 175.074 63.5086 175.077 63.5011 175.078C63.1487 175.196 58.7361 176.8 57.6018 182.773C57.2937 184.828 57.1293 186.902 57.1099 188.98H81.2614C81.511 186.363 81.6983 183.914 81.7717 181.8C81.8781 178.852 81.7753 176.561 81.3275 175.379C81.2559 175.159 81.1438 174.953 80.9971 174.774Z" fill="#2F2E41"/>
<path d="M101.764 176.44C101.749 176.37 101.738 176.312 101.727 176.257C101.688 176.099 101.621 175.95 101.529 175.816C101.527 175.813 101.526 175.809 101.525 175.805C99.8145 173.155 88.8125 169.506 88.8125 169.506L88.4014 170.926C88.4014 170.926 88.4528 172.329 88.5262 174.575C88.5996 176.679 88.6877 179.52 88.7721 182.64C88.8309 184.678 88.8823 186.836 88.93 188.98H105.387C104.465 184.723 103.254 180.533 101.764 176.44Z" fill="#2F2E41"/>
<path d="M255.74 188.98L256.999 182.828L258.17 182.332L258.178 182.336C258.284 182.376 259.558 182.916 259.558 184.961C259.558 185.372 259.496 186.851 259.393 188.98H255.74Z" fill="#575A89"/>
<path d="M242.515 167.49C248.162 167.49 252.741 162.912 252.741 157.264C252.741 151.617 248.162 147.038 242.515 147.038C236.867 147.038 232.289 151.617 232.289 157.264C232.289 162.912 236.867 167.49 242.515 167.49Z" fill="#FFB8B8"/>
<path d="M248.906 163.229L248.053 180.698L234.845 173.029L236.549 163.229H248.906Z" fill="#FFB8B8"/>
<path d="M252.741 181.55L251.875 188.98H244.94L237.415 174.52L235.293 170.449L234.276 169.785L235.454 169.517L236.383 170.188L246.776 177.718L248.442 172.714L248.486 172.586L248.905 171.326L252.741 181.55Z" fill="#5271FF"/>
<path d="M258.178 182.336L258.17 182.332L252.741 177.288V173.882L248.549 170.578L248.486 172.586L248.053 186.238L241.082 176.649L236.383 170.189L235.539 169.032L235.744 167.949L233.142 170.897L223.722 177.964L222.914 178.569C221.988 179.496 221.133 180.493 220.359 181.55C220.106 181.928 218.953 184.939 217.452 188.98H259.393C259.496 186.851 259.558 185.372 259.558 184.961C259.558 182.916 258.284 182.376 258.178 182.336Z" fill="#2F2E41"/>
<path d="M160.222 146.032C153.293 146.032 147.675 152.266 147.675 159.956V169.726H150.68L152.42 166.106L151.985 169.726H171.299L172.881 166.435L172.485 169.726H174.66V162.055C174.66 153.206 168.196 146.032 160.222 146.032Z" fill="#2F2E41"/>
<path d="M150.096 188.98H141.936L141.859 182.325C141.855 182.255 141.855 182.189 141.855 182.119L143.489 180.28L143.518 180.247L149.755 184.197L150.096 188.98Z" fill="#D0CDE1"/>
<path d="M159.112 168.361C164.045 168.361 168.044 164.362 168.044 159.429C168.044 154.496 164.045 150.497 159.112 150.497C154.179 150.497 150.18 154.496 150.18 159.429C150.18 164.362 154.179 168.361 159.112 168.361Z" fill="#FBBEBE"/>
<path d="M153.991 164.788C153.991 164.788 156.611 178.365 155.42 179.794C154.229 181.223 168.044 177.174 168.044 177.174C168.044 177.174 163.518 167.885 165.9 162.645L153.991 164.788Z" fill="#FBBEBE"/>
<path d="M178.224 173.97H178.22C178.009 173.525 177.646 173.17 177.196 172.971C175.445 172.233 173.936 171.668 172.695 171.238C170.5 170.485 168.106 170.56 165.962 171.448C165.753 171.532 165.548 171.624 165.346 171.727C165.346 171.727 156.612 173.39 155.573 173.18C155.496 173.166 155.416 173.155 155.339 173.147C155.182 173.125 155.023 173.111 154.865 173.107C152.833 173.013 150.817 173.513 149.065 174.546C146.198 176.209 141.947 179.157 141.859 182.027L141.778 182.119L141.859 188.98H180.191C180.268 182.406 180.312 177.464 180.312 177.13C180.312 176.091 178.224 173.97 178.224 173.97Z" fill="#5271FF"/>
<path d="M163.789 149.868C163.185 149.057 162.403 148.396 161.502 147.937C160.602 147.477 159.608 147.231 158.597 147.218H158.35C153.601 147.218 149.751 151.516 149.751 156.817V156.817H151.342L151.599 154.861L151.976 156.817H161.415L162.205 155.162L162.008 156.817H163.865C164.731 161.12 163.486 165.423 160.13 169.726H163.293L164.874 166.416L164.479 169.726H170.508L171.694 162.113C171.694 156.412 168.382 151.577 163.789 149.868Z" fill="#2F2E41"/>
<path d="M165.522 150.669C168.117 150.669 170.221 148.565 170.221 145.97C170.221 143.374 168.117 141.271 165.522 141.271C162.927 141.271 160.823 143.374 160.823 145.97C160.823 148.565 162.927 150.669 165.522 150.669Z" fill="#2F2E41"/>
<path d="M74.1291 96.8341C74.2845 94.2516 73.0507 91.7938 71.6816 89.5737C71.026 88.5127 70.3273 87.4573 69.9659 86.2738C69.6045 85.0902 69.6239 83.7288 70.3474 82.705C70.9627 81.834 71.9821 81.3295 72.9214 80.7895C75.5726 79.265 77.958 77.0989 79.0185 74.3078C78.3599 74.6957 78.588 75.7442 79.2078 76.1813C79.8277 76.6184 80.6454 76.6683 81.3903 76.8543C84.106 77.5321 85.8382 80.0209 87.2444 82.3564C87.4744 82.7374 87.709 83.1402 87.7285 83.5815C87.7479 84.0228 87.558 84.4246 87.3576 84.8106C86.7764 85.9307 86.051 87.0149 85.8226 88.2463C85.5607 89.6523 85.982 91.0964 86.5031 92.4369C87.0562 93.8628 87.7675 95.2925 88.9739 96.2751C90.1804 97.2577 91.9973 97.6853 93.3849 96.9431C91.8501 94.6662 90.2512 92.1162 90.6727 89.4277C90.8766 88.1406 91.5374 86.947 91.7802 85.665C92.2427 83.2193 91.1498 80.7812 90.0838 78.5217L86.8986 71.7785C86.4121 70.7474 85.862 69.6487 84.8363 69.1018C84.1427 68.7334 83.3218 68.6696 82.529 68.6358C79.9774 68.5442 77.3487 68.7466 75.0286 69.7742C70.8014 71.6451 68.3018 75.8646 66.3544 79.9336C65.7708 81.1525 65.1993 82.445 65.2921 83.7823C65.343 84.5158 65.5913 85.2197 65.8 85.9268C66.6494 88.8053 66.8376 91.8223 67.0219 94.8116C67.1634 97.1054 67.1467 99.2747 66.2072 101.417C67.65 101.619 69.7594 102.254 71.1475 101.644C72.957 100.851 73.9855 98.6324 74.1291 96.8341Z" fill="#F7D6C8"/>
<path d="M74.6264 156.219C74.6264 156.219 80.4451 155.923 85.2245 150.508C85.2245 150.508 90.5137 157.443 94.5834 157.019C94.5834 157.019 97.0961 154.68 94.9508 152.001C92.8056 149.322 91.2314 146.023 88.1153 146.214C84.9992 146.406 81.207 146.301 79.467 147.692C77.7271 149.084 74.6264 156.219 74.6264 156.219Z" fill="#333333"/>
<path d="M234 148.483C234 148.483 239.679 156.045 252.704 153.462C252.704 153.462 254.158 151.741 250.619 146.455C247.079 141.169 237.222 142.03 234 148.483Z" fill="#85555C"/>
</svg>
