<svg width="411" height="359" viewBox="0 0 411 359" fill="none" xmlns="http://www.w3.org/2000/svg">
<g clip-path="url(#clip0)">
<path d="M411 4.20438V121.368C406.553 122.326 401.95 123.729 398.863 127.067C394.686 131.574 394.37 138.332 394.283 144.489L393.294 215.758C393.216 221.209 393.093 226.871 390.665 231.754C387.052 239.026 379.142 243.056 374.068 249.393C365.421 260.186 366.314 275.71 369.415 289.194C372.515 302.679 377.411 316.314 375.291 330C373.518 341.435 367.129 351.091 358.611 359.023H10.9182C4.1583 351.715 -0.957387 343.278 0.150936 333.719C1.41497 322.802 10.6571 314.283 12.8646 303.518C15.4385 290.978 8.06949 278.787 5.53683 266.247C2.12943 249.498 7.40999 232.318 12.631 216.065C14.637 209.806 16.7529 203.369 20.9984 198.358C26.1736 192.269 34.2387 188.652 37.8431 181.517C42.8305 171.641 37.2568 159.258 40.852 148.79C44.7724 137.374 57.7975 132.284 69.4486 129.139C89.6249 123.686 110.191 119.8 130.965 117.516C137.171 116.833 143.683 116.196 148.886 112.734C153.063 109.951 155.939 105.632 158.504 101.304C170.269 81.1395 180.176 55.6335 202.722 49.7465C218.023 45.7484 234.277 52.6533 249.922 50.3334C278.523 46.0785 294.049 14.2041 319.105 0H395.076C400.397 1.3388 405.706 2.74026 411 4.20438Z" fill="#5271FF"/>
<path opacity="0.7" d="M411 4.20438V121.368C406.553 122.326 401.95 123.729 398.863 127.067C394.686 131.574 394.37 138.332 394.283 144.489L393.294 215.758C393.216 221.209 393.093 226.871 390.665 231.754C387.052 239.026 379.142 243.056 374.068 249.393C365.421 260.186 366.314 275.71 369.415 289.194C372.515 302.679 377.411 316.314 375.291 330C373.518 341.435 367.129 351.091 358.611 359.023H10.9182C4.1583 351.715 -0.957387 343.278 0.150936 333.719C1.41497 322.802 10.6571 314.283 12.8646 303.518C15.4385 290.978 8.06949 278.787 5.53683 266.247C2.12943 249.498 7.40999 232.318 12.631 216.065C14.637 209.806 16.7529 203.369 20.9984 198.358C26.1736 192.269 34.2387 188.651 37.8431 181.517C42.8305 171.641 37.2568 159.258 40.852 148.79C44.7724 137.374 57.7975 132.284 69.4486 129.139C89.6249 123.686 110.191 119.8 130.965 117.516C137.171 116.833 143.683 116.196 148.886 112.734C153.063 109.951 155.939 105.632 158.504 101.304C170.269 81.1395 180.176 55.6335 202.722 49.7465C218.023 45.7484 234.277 52.6533 249.922 50.3334C278.523 46.0785 294.049 14.2041 319.105 0H395.076C400.397 1.3388 405.706 2.74026 411 4.20438Z" fill="black"/>
<path d="M57.8936 242.02C57.6925 243.051 57.7034 244.112 57.9257 245.138C58.7042 247.948 61.9834 249.145 64.855 249.627C68.9081 250.305 73.2452 250.365 76.9274 248.535C78.3615 247.765 79.7188 246.859 80.9806 245.83L86.1558 241.878C87.0199 241.311 87.7524 240.565 88.3038 239.691C88.6602 238.941 88.8538 238.124 88.8717 237.293C89.0093 235.172 88.717 233.044 88.0124 231.039C87.3077 229.033 86.2052 227.191 84.7712 225.623C83.3371 224.055 81.6012 222.794 79.6677 221.915C77.7341 221.036 75.643 220.557 73.52 220.508C72.9518 220.465 72.3808 220.541 71.8438 220.732C71.2443 221.044 70.7084 221.466 70.2638 221.975C67.4609 224.698 63.8199 225.184 62.0201 228.774C59.9258 232.932 58.5316 237.408 57.8936 242.02Z" fill="#FFC095"/>
<path d="M78.242 139.68C74.9628 141.578 72.3156 144.407 69.9982 147.406C68.2396 149.698 66.6 152.16 66.0962 154.989C65.3634 159.115 66.9618 164.008 64.1773 167.13C62.9224 168.533 60.9988 169.225 59.8218 170.702C58.9791 171.756 58.6127 173.104 58.2693 174.411C57.6143 176.887 56.9503 179.418 57.1243 181.971C57.3624 185.474 59.1532 188.716 59.515 192.209C59.9455 196.336 58.3471 200.417 56.7671 204.277L53.6665 211.916C56.5014 210.916 59.6203 211.342 62.6018 211.521C73.1767 212.154 84.0217 209.568 94.2669 212.278C95.4943 212.603 96.7033 213.002 97.9307 213.277C104.462 214.731 111.212 212.69 117.578 210.668C118.494 210.384 119.58 209.811 119.461 208.871C119.38 208.506 119.203 208.168 118.948 207.895C114.143 201.714 110.223 194.14 111.254 186.345C112.169 179.569 116.749 173.219 115.545 166.493C114.849 162.618 112.339 159.377 110.429 155.924C109.261 153.788 108.318 151.523 106.962 149.505C105.607 147.488 103.816 145.686 102.062 143.939C100.308 142.192 98.462 140.363 96.3095 139.052C91.464 136.095 83.0829 136.888 78.242 139.68Z" fill="#D67820"/>
<path d="M81.8281 195.492C81.851 196.536 81.643 197.573 81.219 198.527C80.6328 199.619 79.5245 200.316 78.4711 200.957C73.418 204.029 68.3344 207.052 63.2202 210.026C66.22 217.761 69.3068 225.647 74.6149 232.034C84.6905 244.125 101.792 248.911 117.363 246.669C119.703 246.33 122.163 245.78 123.844 244.12C125.218 242.781 125.854 240.91 126.34 239.076C127.948 232.941 128.13 226.518 126.871 220.301C125.955 215.909 124.123 211.361 120.317 208.995C118.873 208.177 117.335 207.537 115.737 207.087L102.795 202.878C102.158 202.672 101.462 202.42 101.151 201.819C100.967 201.358 100.92 200.854 101.013 200.366L102.012 189.912C102.222 187.721 102.373 185.3 101.068 183.53C99.9826 182.054 98.1278 181.384 96.3646 180.903C93.6762 180.169 84.8371 177.487 82.767 180.018C81.6999 181.329 82.309 186.134 82.222 187.812L81.8281 195.492Z" fill="#FFC095"/>
<path d="M118.348 207.01C123.34 208.216 128.785 210.15 131.103 214.74C132.477 217.491 132.477 220.664 132.449 223.722L131.991 270.603L119.342 271.121C120.832 262.882 121.751 254.549 122.089 246.183C122.297 242.683 122.204 239.172 121.81 235.688C120.807 228.11 117.459 221.118 113.488 214.671C112.573 213.199 107.69 207.794 108.451 206.051C109.376 204.002 116.442 206.551 118.348 207.01Z" fill="#FFC095"/>
<path opacity="0.05" d="M128.172 231.03C129.033 232.763 129.427 234.698 129.816 236.578C130.233 238.604 130.649 240.658 130.544 242.726C130.43 244.149 130.193 245.559 129.834 246.94L128.46 253.042C127.901 255.482 127.306 258.003 125.786 259.984C125.645 260.206 125.439 260.378 125.195 260.474C124.974 260.522 124.745 260.503 124.535 260.419C123.024 259.929 121.938 258.535 121.421 257.031C120.903 255.527 120.881 253.904 120.89 252.309C120.922 245.564 121.471 238.801 120.853 232.071C120.679 230.173 119.085 225.409 122.282 225.62C124.613 225.767 127.242 229.15 128.172 231.03Z" fill="black"/>
<path d="M129.078 315.008C129.078 315.228 129.078 315.466 129.046 315.672C129.046 316.236 129.001 316.8 128.978 317.378C128.483 330.262 128.579 346.483 124.576 358.972H63.5866C63.3896 358.358 63.2248 357.73 63.0599 357.111C60.4998 347.428 57.9213 337.506 58.7548 327.524C58.8408 326.204 59.0338 324.893 59.3319 323.604C59.3319 323.531 59.3685 323.458 59.3914 323.384C59.5625 322.703 59.8244 322.047 60.17 321.436C60.2742 321.25 60.3921 321.072 60.5227 320.904C60.5959 320.812 60.6738 320.72 60.7517 320.638C60.9944 320.374 61.2831 320.156 61.6035 319.996C63.1973 319.216 67.4291 320.253 69.806 320.638C70.122 320.688 70.406 320.725 70.6487 320.748L77.2757 321.339L78.984 321.491L91.9816 322.651L93.7265 322.806C97.8072 323.16 101.902 323.448 105.991 323.178C114.194 322.632 120.816 314.833 129.028 314.985L129.078 315.008Z" fill="#0E0D15"/>
<path opacity="0.05" d="M63.33 261.483C63.7239 262.73 63.6826 264.069 63.788 265.371C64.1498 269.571 66.11 273.473 66.774 277.636C67.8182 284.183 65.6016 290.758 63.5682 297.071C61.5347 303.385 59.6936 309.813 59.9043 316.402C60.0508 320.528 61.1317 324.797 63.9803 327.763C67.9877 331.94 74.3445 332.54 80.1243 332.884L100.972 334.127C105.052 334.37 109.17 334.613 113.205 333.966C117.239 333.32 121.242 331.701 124.05 328.73C125.692 326.921 126.951 324.796 127.75 322.486C128.544 320.402 128.972 318.196 129.014 315.966C129.014 313.325 128.382 310.735 127.851 308.149C125.561 296.925 125.437 285.38 125.332 273.922C125.286 268.65 125.24 263.326 126.39 258.182C126.985 255.518 127.892 252.928 128.51 250.269C130.558 241.452 128.858 231.154 121.957 225.304C121.361 224.799 120.583 224.304 119.85 224.598C119.309 224.813 119.021 225.386 118.751 225.904C117.459 228.355 115.652 230.496 113.454 232.181C111.256 233.865 108.719 235.052 106.019 235.661C103.129 236.294 100.129 236.234 97.1796 236.014C93.3234 235.73 89.4305 235.157 85.8903 233.607C82.3501 232.057 79.1534 229.425 77.5687 225.895C73.6072 228.802 74.1064 234.836 71.876 239.214C70.4379 242.034 67.8961 244.051 65.2306 245.633C63.1605 246.867 58.8509 247.623 57.4449 249.622C54.5413 253.817 62.2125 257.935 63.33 261.483Z" fill="black"/>
<path d="M63.3301 260.337C63.724 261.584 63.6827 262.923 63.7881 264.225C64.1499 268.425 66.1101 272.326 66.7742 276.49C67.8184 283.037 65.6017 289.612 63.5683 295.925C61.5348 302.239 59.6937 308.667 59.9044 315.255C60.0509 319.382 61.1318 323.65 63.9804 326.617C68.029 330.803 74.3813 331.399 80.161 331.72L101.009 332.962C105.089 333.205 109.206 333.448 113.241 332.802C117.276 332.155 121.279 330.537 124.086 327.566C125.729 325.756 126.988 323.632 127.787 321.321C128.581 319.237 129.008 317.031 129.051 314.801C129.051 312.16 128.419 309.57 127.888 306.984C125.598 295.76 125.474 284.215 125.369 272.757C125.323 267.485 125.277 262.162 126.427 257.017C127.022 254.354 127.929 251.763 128.547 249.104C130.594 240.287 128.895 229.989 121.993 224.139C121.398 223.634 120.619 223.139 119.887 223.433C119.346 223.648 119.058 224.221 118.787 224.739C117.498 227.194 115.692 229.34 113.494 231.029C111.296 232.717 108.758 233.908 106.055 234.519C103.166 235.152 100.166 235.092 97.2164 234.872C93.3602 234.588 89.4673 234.015 85.9271 232.465C82.3868 230.915 79.1901 228.284 77.6055 224.753C73.6439 227.66 74.1431 233.694 71.9127 238.072C70.4747 240.892 67.9328 242.91 65.2674 244.491C63.1973 245.725 58.8877 246.481 57.4816 248.48C54.5414 252.671 62.2126 256.788 63.3301 260.337Z" fill="#CFCCE0"/>
<path opacity="0.05" d="M114.757 271.79C114.757 270.566 115.344 269.424 115.948 268.361C116.782 266.903 117.676 265.481 118.632 264.097C119.318 262.972 120.225 261.999 121.297 261.236C122.41 260.539 123.899 260.319 125.035 260.96C125.283 261.158 125.581 261.285 125.896 261.327C126.354 261.327 126.656 260.869 127.063 260.695C127.796 260.355 128.639 260.896 129.152 261.524C129.665 262.153 130.068 262.9 130.805 263.262C131.071 263.391 131.368 263.45 131.639 263.569C132.578 263.982 133.077 264.995 133.498 265.935C133.832 266.557 134.028 267.243 134.071 267.948C134.071 269.177 133.155 270.181 132.289 271.061L130.072 273.354C129.51 273.995 128.854 274.546 128.126 274.99C127.76 275.21 127.349 275.343 126.924 275.382C126.499 275.421 126.071 275.364 125.671 275.215C125.477 275.09 125.247 275.03 125.016 275.045C124.844 275.107 124.696 275.223 124.595 275.376C124.104 275.978 123.646 276.605 123.221 277.255C122.862 277.943 122.341 278.533 121.705 278.975C121.027 279.351 120.006 279.227 119.699 278.516C119.662 278.376 119.591 278.247 119.493 278.14C119.214 277.92 118.856 278.278 118.531 278.415C117.986 278.649 117.345 278.191 117.157 277.627C117.028 277.045 117.063 276.438 117.258 275.875C116.85 275.545 116.255 275.742 115.728 275.77C114.643 275.829 114.863 275.133 114.89 274.5C114.959 273.569 114.766 272.707 114.757 271.79Z" fill="black"/>
<path opacity="0.05" d="M82.7718 180.554C81.9978 181.499 82.1031 184.273 82.1856 186.382C82.4375 186.616 82.6894 186.84 82.9504 187.065C86.9466 190.398 91.9485 192.284 97.1479 192.42C98.1863 192.503 99.2297 192.346 100.198 191.962C100.905 191.611 101.53 191.114 102.03 190.504V190.449C102.241 188.257 102.392 185.836 101.087 184.066C100.001 182.59 98.1463 181.921 96.3831 181.439C93.6856 180.706 84.8419 178.024 82.7718 180.554Z" fill="black"/>
<path opacity="0.03" d="M67.159 238.256C66.9117 240.42 65.9637 242.428 65.0294 244.395L59.616 255.784C58.755 254.312 57.8619 252.698 58.0634 251.006C58.2089 250.178 58.4856 249.377 58.8832 248.636L63.6142 238.586C63.9714 237.829 65.1851 233.593 66.0003 233.542C67.2186 233.492 67.246 237.508 67.159 238.256Z" fill="black"/>
<path opacity="0.05" d="M81.6724 158.24C78.8878 162.71 78.3703 168.386 79.6985 173.485C80.6923 177.309 82.6708 181.279 81.3335 185.011C80.3259 187.813 77.5185 190.605 78.9107 193.237C79.2222 193.823 79.726 194.309 79.9091 194.947C80.2206 196.033 79.5199 197.111 79.0344 198.129C76.4972 203.429 79.529 209.522 81.0129 215.208C82.1121 219.417 82.3365 223.795 82.5563 228.142L79.8084 221.113C78.6721 227.011 76.2153 232.574 72.6226 237.385C74.6405 237.407 76.6451 237.716 78.5764 238.302C77.1472 238.13 75.7056 238.502 74.5379 239.345C73.3702 240.187 72.5619 241.439 72.2735 242.851C71.9851 244.263 72.2377 245.732 72.9811 246.966C73.7246 248.2 74.9045 249.109 76.2865 249.512C73.4745 250.136 70.5708 248.219 69.2244 245.67C67.8779 243.121 67.7726 240.108 67.9329 237.229L65.6429 237.417C67.9323 231.91 68.9062 225.944 68.487 219.994C68.2992 217.363 67.4336 214.254 64.9147 213.479L64.1591 220.462L61.0997 214.263C60.9015 213.718 60.5256 213.256 60.0326 212.952C59.6575 212.835 59.275 212.743 58.8877 212.677C57.6832 212.305 57.216 210.733 57.5916 209.531C57.9671 208.33 58.9335 207.418 59.854 206.556C62.9683 203.64 66.0734 200.531 67.7588 196.611C69.3251 192.971 69.5495 188.913 69.7144 184.952C69.9098 180.309 70.0625 175.663 70.1724 171.013C70.2502 167.346 70.3006 163.65 71.0884 160.074C72.4623 154.017 76.1262 148.391 81.5167 145.297C86.9071 142.202 93.9418 141.922 99.2453 145.136C102.451 147.071 104.819 150.06 107.132 152.986L113.768 161.376C115.142 163.114 116.543 164.902 117.18 167.02C118.352 170.926 116.722 175.103 114.734 178.675C112.747 182.247 110.361 185.763 109.875 189.812C109.316 194.493 111.4 199.037 113.434 203.287C116.017 208.688 118.641 214.158 122.529 218.706C124.508 221.021 126.898 223.268 127.457 226.262C127.036 226.606 126.539 226.847 126.008 226.964C125.476 227.081 124.925 227.071 124.398 226.936C125.967 233.214 127.225 239.563 128.172 245.982C122.538 242.262 117.076 238.303 111.785 234.107C111.565 235.149 111.085 236.119 110.391 236.927C109.697 237.735 108.811 238.354 107.814 238.728C107.654 236.949 108.272 235.198 108.359 233.414C108.446 231.631 107.759 229.549 106.069 229.013C105.08 228.701 103.908 228.967 103.069 228.357C102.456 227.899 102.218 227.119 102.016 226.381L98.1965 212.342C95.8752 212.231 93.5706 212.788 91.5557 213.947C94.4288 212.341 96.5644 209.679 97.5095 206.524L89.5635 206.4C91.661 204.413 93.693 202.361 95.6592 200.242C98.5216 197.161 101.256 193.924 103.34 190.27C109.188 180.032 109.271 166.731 103.546 156.42C102.598 154.709 101.466 153.045 99.8819 151.922C94.1525 147.938 84.8142 153.201 81.6724 158.24Z" fill="black"/>
<path opacity="0.05" d="M66.9343 306.691L71.8897 313.38C73.8865 316.076 75.8971 318.799 78.416 321.014C83.7057 325.677 90.7816 327.772 96.4469 332.018C99.9779 334.662 102.863 338.075 104.883 341.999C105.872 343.925 106.463 346.68 104.704 347.959C103.143 349.078 100.995 348.088 99.3551 347.093L90.4793 341.724C87.8963 340.161 85.2675 338.56 83.289 336.277C81.741 334.489 80.6556 332.352 79.364 330.367C77.3865 327.327 74.9233 324.634 72.0729 322.394C70.328 321.018 68.409 319.813 66.9572 318.139C64.6078 315.462 63.6139 311.872 62.9087 308.373C62.6751 307.209 60.9118 299.854 62.272 299.763C63.046 299.685 66.2428 305.755 66.9343 306.691Z" fill="black"/>
<path opacity="0.1" d="M63.0967 260.415C63.0967 260.415 82.8496 269.874 105.176 261.561H108.327C108.327 261.561 117.775 266.719 124.929 260.699L125.428 278.305L66.8064 276.471L63.0967 260.415Z" fill="black"/>
<path d="M172.889 133.921C172.289 133.596 171.621 133.261 170.952 133.398C169.377 133.724 168.928 136.379 167.316 136.305C166.542 136.269 165.987 135.572 165.291 135.223C164.595 134.875 163.418 135.32 163.693 136.044C162.383 137.282 160.395 133.866 158.875 134.829C158.536 135.044 158.348 135.439 158.019 135.663C157.46 136.049 156.7 135.856 156.077 135.59C155.454 135.324 154.79 134.994 154.13 135.132C153.471 135.269 153.036 136.259 153.585 136.658L148.474 136.631C148.344 136.988 148.288 137.368 148.312 137.748C148.336 138.127 148.438 138.498 148.612 138.836L144.884 138.978C144.869 139.65 145.053 140.311 145.415 140.876C144.395 140.726 143.355 140.786 142.358 141.053C141.362 141.319 140.431 141.787 139.621 142.426L141.201 143.646C139.605 143.73 138.037 144.099 136.571 144.737L137.386 146.112C136.484 146.113 135.612 146.444 134.937 147.044C134.262 147.644 133.83 148.47 133.722 149.368L135.17 149.913C134.316 150.155 133.522 150.572 132.839 151.139C132.155 151.706 131.599 152.41 131.204 153.205L132.316 153.7C131.491 155.56 129.989 157.035 128.117 157.827C128.962 158.053 129.712 158.548 130.251 159.238C130.791 159.928 131.091 160.775 131.107 161.651C129.889 160.899 128.195 161.963 127.824 163.343C127.453 164.723 128.002 166.181 128.657 167.469C129.112 166.542 129.214 165.481 128.946 164.484C129.303 164.676 129.614 164.945 129.856 165.271C130.098 165.598 130.264 165.974 130.343 166.372C130.423 166.771 130.413 167.182 130.314 167.576C130.216 167.97 130.032 168.338 129.775 168.652C129.422 168.932 129.114 169.262 128.859 169.633C128.401 170.55 129.193 171.54 129.917 172.247C128.767 172.801 127.517 173.462 127.073 174.658C126.738 175.575 126.935 176.552 127.127 177.492C127.32 178.432 127.489 179.44 127.127 180.316C126.766 181.192 125.57 181.779 124.796 181.233C124.731 181.673 124.81 182.122 125.024 182.512C125.237 182.902 125.572 183.211 125.978 183.393C126.383 183.574 126.837 183.618 127.27 183.517C127.702 183.416 128.09 183.176 128.373 182.833C128.854 182.246 129.619 181.302 130.077 181.916C128.217 183.319 128.282 186.588 130.201 187.913C129.587 187.569 128.827 188.152 128.511 188.771C127.947 189.811 127.892 191.205 128.657 192.108C129.422 193.012 131.084 193.062 131.694 192.044C131.052 193.36 132.916 194.658 134.35 194.373C135.783 194.089 136.951 192.998 138.366 192.636C139.782 192.274 141.751 193.232 141.385 194.649C140.813 194.38 140.183 194.261 139.553 194.305C139.241 194.336 138.952 194.482 138.74 194.714C138.529 194.945 138.411 195.247 138.408 195.561C139.447 196.45 140.615 197.395 141.984 197.372C143.354 197.349 144.673 195.753 143.899 194.621C144.297 193.92 145.461 194.47 145.703 195.24C145.946 196.01 145.758 196.886 146.088 197.624C146.235 197.89 146.443 198.118 146.696 198.287C146.948 198.456 147.237 198.562 147.539 198.596C147.841 198.63 148.147 198.591 148.43 198.483C148.714 198.374 148.968 198.199 149.17 197.973C149.527 198.39 150.196 198.252 150.718 198.078C153.837 197.037 157.382 195.561 158.27 192.393C158.545 191.402 158.541 190.293 159.186 189.477C159.666 188.921 160.306 188.529 161.018 188.353C164.165 187.395 167.554 188.463 170.549 189.821C173.544 191.178 176.503 192.865 179.759 193.213C181.893 193.443 184.137 193.099 186.125 193.906C186.619 194.172 187.158 194.345 187.714 194.415C188.273 194.415 188.896 193.993 188.832 193.438C188.791 193.09 188.511 192.824 188.346 192.521C188.257 192.335 188.206 192.133 188.197 191.927C188.187 191.721 188.219 191.515 188.291 191.321C188.363 191.128 188.473 190.951 188.615 190.801C188.756 190.651 188.927 190.531 189.116 190.449C189.059 190.902 189.12 191.362 189.294 191.784C189.469 192.206 189.749 192.575 190.11 192.856C190.481 193.121 190.935 193.242 191.389 193.197C191.843 193.153 192.265 192.945 192.578 192.613C193.155 191.907 192.88 190.646 192.019 190.357C192.837 189.893 193.44 189.126 193.697 188.221C193.954 187.315 193.845 186.345 193.393 185.52C195.596 184.236 196.109 180.788 194.369 178.922C195.358 178.425 196.151 177.61 196.621 176.607C197.091 175.604 197.211 174.472 196.961 173.393C197.877 173.035 198.793 172.636 199.411 171.871C200.029 171.105 200.112 169.858 199.37 169.23C200.298 166.791 200.82 164.217 200.913 161.61C200.941 160.858 200.671 159.844 199.924 159.886C200.556 158.817 201.184 157.442 200.492 156.41C200.222 156.011 199.787 155.736 199.576 155.31C199.036 154.292 199.942 153.017 199.617 151.917C199.324 150.913 198.184 150.477 197.291 149.932C195.967 149.129 195.001 147.868 193.755 146.942C192.509 146.016 190.769 145.448 189.45 146.25C189.286 144.965 188.837 143.732 188.137 142.642C187.436 141.552 186.502 140.633 185.401 139.95C183.112 138.575 182.315 136.544 179.214 136.159C178.211 136.035 176.984 136.411 176.036 136.09C174.914 135.668 173.943 134.49 172.889 133.921Z" fill="#8C5B79"/>
<path opacity="0.05" d="M168.227 164.104C167.242 165.085 168.048 166.997 167.11 168.019C166.652 168.519 165.868 168.675 165.507 169.253C165.049 170 165.507 171.023 165.214 171.852C164.833 172.861 163.459 173.159 162.979 174.145C162.383 175.346 163.313 177.231 162.159 177.914C161.728 178.171 161.105 178.138 160.835 178.56C160.565 178.982 160.835 179.532 160.835 180.032C160.835 180.949 159.869 181.518 159.237 182.191C158.605 182.865 158.527 184.319 159.448 184.388C158.97 185.163 158.258 185.766 157.414 186.107C158.275 186.616 158.074 187.941 157.455 188.748C156.837 189.555 155.903 190.045 155.486 190.962C155.266 191.421 155.188 191.934 154.978 192.398C154.254 193.993 152.037 194.484 150.453 193.741C148.868 192.998 147.879 191.348 147.393 189.665C146.322 185.956 147.265 181.916 146.358 178.166C145.836 175.993 144.7 173.92 144.787 171.687C144.861 169.908 145.703 168.267 146.574 166.713C148.73 162.844 151.109 159.104 153.7 155.512C156.182 152.069 159.196 148.547 163.34 147.667C165.791 147.149 168.337 147.63 170.76 148.268C177.854 150.138 184.715 153.462 189.816 158.74C191.394 160.279 192.641 162.124 193.48 164.164C194.254 166.222 194.364 168.602 193.421 170.582C192.88 171.72 191.983 172.875 192.34 174.104C192.501 174.475 192.643 174.855 192.766 175.241C193.1 177.075 190.018 177.992 190.018 179.826C190.018 180.33 190.265 180.816 190.201 181.316C190.068 182.334 188.827 182.755 188.246 183.608C187.426 184.851 188.145 186.85 186.982 187.776C186.423 188.234 185.502 188.322 185.292 189.009C185.154 189.468 185.415 189.926 185.392 190.385C185.351 191.21 184.476 191.71 184.018 192.375C183.56 193.039 183.908 194.401 184.669 194.08L182.557 195.57L183.116 196.726C182.658 197.693 181.179 197.78 180.423 197.038C179.668 196.295 179.581 195.066 179.924 194.062C180.333 193.082 180.903 192.177 181.609 191.384C182.93 189.693 184.143 187.919 185.241 186.075C186.157 184.548 187.009 182.833 186.771 181.073C186.579 179.647 185.685 178.226 186.157 176.864L187.682 176.314L185.104 173.278L186.391 172.971C185.966 172.605 185.649 172.129 185.475 171.596C185.401 171.329 185.433 171.045 185.566 170.802C185.699 170.56 185.921 170.379 186.185 170.298C186.95 168.038 182.521 166.172 183.698 164.063H182.535C182.517 162.914 182.054 161.817 181.243 161.005C180.335 160.146 179.148 159.645 177.9 159.592C176.402 159.505 172.404 159.739 171.154 160.725C170.412 161.307 170.764 162.013 170.27 162.646C169.738 163.425 168.85 163.48 168.227 164.104Z" fill="black"/>
<path d="M191.9 225.698C191.651 227.334 191.091 228.907 190.251 230.333C189.266 231.718 187.96 232.843 186.446 233.611C185.433 234.175 184.357 234.657 183.304 235.115L175.779 238.389C173.452 239.681 170.73 240.068 168.135 239.475L154.203 237.527C152.536 237.293 150.851 237.068 149.166 236.743C148.103 236.55 147.045 236.325 146.01 236.06C143.814 235.524 141.7 234.697 139.722 233.602C135.357 231.108 133.64 226.179 134.089 221.163C134.515 216.39 136.438 212.874 139.919 209.582L140.881 208.665L140.968 208.587L143.303 206.372L146.715 203.163C148.256 201.789 149.668 200.278 150.933 198.647C153.732 194.804 154.726 188.816 158.472 185.74C161.65 183.131 168.868 186.891 171.781 188.853C172.261 189.128 172.662 189.523 172.944 189.999C173.158 190.547 173.22 191.143 173.123 191.723C172.791 195.334 171.764 198.846 170.1 202.067C169.775 202.695 169.418 203.378 169.537 204.075C169.577 204.306 169.665 204.526 169.793 204.722C170.192 205.242 170.713 205.656 171.309 205.927C172.127 206.35 172.967 206.731 173.824 207.069C176.919 208.298 180.208 209.086 183.29 210.389C187.22 212.053 191.048 214.909 192.074 219.054C192.633 221.223 192.344 223.515 191.9 225.698Z" fill="#C6866B"/>
<path d="M173.842 207.065C174.437 209.183 177.382 219.352 179.173 219.861C179.846 220.054 182.795 225.909 186.427 233.616C193.631 248.898 203.501 271.451 203.501 271.451L161.6 270.451L143.386 269.993L146.015 236.041L146.537 229.302L151.268 227.656L153.123 227.009L152.834 216.404C152.834 216.404 148.763 206.051 140.958 208.559L143.294 206.345C147.137 206.304 151.368 208.798 155.408 216.404C155.408 216.404 178.88 247.926 176.59 218.697C176.59 218.697 172.582 206.088 168.575 204.08L169.802 204.694L173.842 207.065Z" fill="#252036"/>
<path opacity="0.05" d="M171.149 198.541C171.715 196.685 172.088 194.775 172.262 192.842C172.359 192.262 172.297 191.666 172.083 191.118C171.8 190.642 171.4 190.247 170.92 189.972C168.007 188.01 160.794 184.25 157.611 186.859C157.274 187.142 156.957 187.449 156.663 187.776C159.963 193.064 165.137 196.909 171.149 198.541Z" fill="black"/>
<path d="M154.886 180.146C156.855 189.023 164.728 196.07 173.663 197.776C175.637 198.156 178.037 198.142 179.237 196.524C180.011 195.478 180.038 194.057 180.611 192.856C181.101 191.82 181.985 191.022 182.74 190.183C183.772 189.006 184.678 187.725 185.443 186.359C188.053 181.843 189.72 176.639 189.271 171.44C189.002 169.124 188.525 166.838 187.847 164.608C187.119 161.926 186.249 159.037 184 157.41C179.067 153.838 170.924 155.021 165.795 157.373C160.441 159.831 156.635 164.897 155.17 170.532C154.312 173.668 154.215 176.965 154.886 180.146Z" fill="#C6866B"/>
<path d="M168.227 163.531C167.242 164.512 168.048 166.424 167.109 167.446C166.651 167.946 165.868 168.102 165.506 168.68C165.048 169.427 165.506 170.449 165.213 171.279C164.833 172.288 163.459 172.586 162.978 173.572C162.383 174.773 163.313 176.657 162.159 177.341C161.728 177.597 161.105 177.565 160.835 177.987C160.565 178.409 160.835 178.959 160.835 179.459C160.835 180.376 159.869 180.944 159.237 181.618C158.605 182.292 158.527 183.746 159.447 183.815C158.97 184.59 158.257 185.192 157.414 185.534C158.275 186.043 158.073 187.368 157.455 188.175C156.837 188.982 155.925 189.518 155.49 190.417C155.271 190.875 155.193 191.389 154.982 191.852C154.258 193.447 152.042 193.938 150.457 193.195C148.872 192.453 147.883 190.802 147.398 189.119C146.326 185.41 147.27 181.371 146.363 177.62C145.841 175.447 144.705 173.375 144.792 171.142C144.865 169.363 145.708 167.721 146.578 166.167C148.734 162.298 151.114 158.558 153.704 154.966C156.187 151.523 159.2 148.002 163.345 147.121C165.795 146.603 168.341 147.085 170.764 147.722C177.858 149.593 184.719 152.917 189.821 158.194C191.399 159.733 192.645 161.579 193.485 163.618C194.259 165.677 194.369 168.056 193.425 170.037C192.885 171.174 191.987 172.329 192.344 173.558C192.506 173.93 192.648 174.309 192.77 174.695C193.105 176.529 190.022 177.446 190.022 179.28C190.022 179.784 190.27 180.27 190.206 180.77C190.073 181.788 188.832 182.21 188.25 183.063C187.43 184.305 188.149 186.304 186.986 187.23C186.427 187.689 185.507 187.776 185.296 188.464C185.159 188.922 185.42 189.381 185.397 189.839C185.356 190.664 184.481 191.164 184.023 191.829C183.565 192.494 183.913 193.855 184.673 193.535L182.562 195.025L183.121 196.18C182.663 197.147 181.183 197.235 180.428 196.492C179.672 195.749 179.585 194.52 179.928 193.516C180.338 192.536 180.907 191.631 181.614 190.839C182.934 189.147 184.147 187.374 185.246 185.529C186.162 184.002 187.013 182.288 186.775 180.527C186.583 179.101 185.69 177.68 186.162 176.318L187.687 175.768L185.108 172.733L186.395 172.426C185.97 172.059 185.653 171.584 185.479 171.05C185.405 170.784 185.438 170.499 185.57 170.257C185.703 170.014 185.925 169.833 186.189 169.753C186.954 167.492 182.525 165.626 183.702 163.517H182.539C182.522 162.368 182.059 161.271 181.247 160.459C180.339 159.601 179.152 159.099 177.904 159.047C176.407 158.96 172.408 159.193 171.158 160.179C170.416 160.761 170.769 161.468 170.274 162.1C169.738 162.852 168.85 162.907 168.227 163.531Z" fill="#8C5B79"/>
<path d="M284.848 333.778C284.303 336.529 282.604 339.367 281.116 341.715C280.896 342.059 280.685 342.403 280.47 342.746L280.135 343.297C277.703 347.311 275.634 351.536 273.953 355.919C273.559 356.941 273.188 357.968 272.849 359H254.369C253.124 357.097 252.537 354.929 252.079 352.81C251.343 349.288 250.946 345.703 250.893 342.105C250.855 339.772 250.964 337.44 251.218 335.122C251.218 334.911 251.269 334.7 251.296 334.484C251.653 331.811 252.487 328.983 255.185 327.346C255.399 327.213 255.621 327.092 255.849 326.983C255.909 326.948 255.972 326.918 256.036 326.892C257.266 326.358 258.55 325.96 259.865 325.704C261.761 325.282 263.682 324.937 265.627 324.668L266.24 324.59C267.318 324.45 268.402 324.335 269.492 324.246C270.11 324.191 270.728 324.145 271.351 324.109C274.649 323.921 278.221 324.017 280.859 325.567C282.98 326.823 284.157 328.29 284.683 329.863C284.711 329.941 284.738 330.023 284.761 330.106C285.083 331.305 285.113 332.565 284.848 333.778Z" fill="#0E0D15"/>
<path d="M312.62 333.664C310.835 335.151 309.473 337.083 308.672 339.266C308.581 339.491 308.498 339.725 308.42 339.945C307.381 342.962 307.083 346.313 306.9 349.463C306.717 352.613 306.529 355.823 306.346 359H274.131C274.053 357.973 273.989 356.946 273.953 355.919C273.843 353.287 273.853 350.654 273.985 348.019C274.024 346.257 274.268 344.506 274.713 342.801C274.768 342.618 274.823 342.435 274.887 342.251C274.951 342.068 275.065 341.761 275.166 341.518C276.613 338.093 279.792 335.631 283.263 334.305C283.786 334.108 284.312 333.934 284.848 333.778C287.866 332.898 291.063 332.664 294.218 332.563C299.325 332.398 308.104 331.357 312.62 333.664Z" fill="#0E0D15"/>
<path d="M275.006 206.404C275.067 207.723 274.904 209.042 274.525 210.306C273.765 212.429 271.86 213.974 269.758 214.79C267.656 215.606 265.357 215.707 263.108 215.707C260.2 215.666 256.898 215.515 254.864 217.582C253.545 218.907 253.096 220.838 252.702 222.667C251.278 229.26 249.89 236.358 252.515 242.57C254.177 246.513 257.356 249.695 261.038 251.869C264.72 254.042 268.897 255.257 273.11 255.995C274.785 256.297 276.483 256.449 278.185 256.449C283.992 256.394 289.415 253.698 294.599 251.098C295.75 250.6 296.803 249.9 297.709 249.03C298.52 248.041 299.141 246.909 299.541 245.693C302.328 238.595 304.844 231.4 307.088 224.107C307.684 222.172 308.265 220.191 308.229 218.146C308.192 216.102 307.445 214.02 305.833 212.791C303.374 210.957 299.939 211.672 296.88 212.026C296.664 212.094 296.435 212.111 296.212 212.074C295.988 212.037 295.777 211.948 295.594 211.814C295.412 211.68 295.263 211.505 295.161 211.303C295.059 211.1 295.006 210.877 295.007 210.65C294.137 207.327 294.029 203.851 294.691 200.481C295.107 198.381 295.794 196.097 294.814 194.195C293.468 191.581 289.914 191.297 286.973 191.361L281.936 191.471C281.193 191.423 280.45 191.571 279.783 191.902C278.656 192.599 277.887 193.736 276.71 194.438C275.725 195.029 275.107 194.956 274.7 196.107C274.292 197.257 274.864 199.577 274.91 200.829C274.983 202.7 275.016 204.558 275.006 206.404Z" fill="#354EC1"/>
<path opacity="0.05" d="M260.942 238.756C261.631 239.761 262.468 240.656 263.424 241.41C265.411 242.823 268.109 242.896 270.445 242.19C272.78 241.484 274.837 240.094 276.856 238.724L293.381 227.5C295.671 225.95 297.96 224.387 300.576 223.488C301.24 223.196 301.981 223.129 302.687 223.295C303.356 223.597 303.921 224.09 304.313 224.712C306.497 227.541 308.723 230.443 309.808 233.845C310.834 237.004 310.825 240.393 310.789 243.712C310.74 248.248 310.662 252.784 310.555 257.32C310.495 259.883 310.418 262.478 309.676 264.931C308.631 268.393 306.305 271.423 305.691 274.986C305.055 278.677 306.342 282.395 307.523 285.958C312.308 300.558 315.361 315.672 316.619 330.986C316.733 332.407 316.816 333.93 316.106 335.163C315.542 336.149 314.553 336.814 313.573 337.391C301.024 344.805 285.425 344.232 270.981 342.348C268.027 341.962 264.912 341.463 262.631 339.546C261.015 338.171 259.998 336.259 259.073 334.361C254.653 325.282 251.342 315.374 251.745 305.288C251.955 301.982 252.348 298.691 252.922 295.43C253.838 289.552 254.638 283.66 255.322 277.755C255.83 273.45 256.266 268.975 254.864 264.867C253.453 260.607 250.174 257.137 248.874 252.827C246.964 246.477 249.629 239.595 252.203 233.831C253.028 231.998 257.241 216.409 258.038 216.28C260.374 215.859 259.073 236.298 260.942 238.756Z" fill="black"/>
<path d="M262.5 217.5C263.189 218.505 266.044 221.972 267 222.727C268.988 224.139 268 224.069 271 225.5C274 226.931 276 228 283.5 228L293.38 226.931C295.67 225.381 297.96 223.818 300.575 222.919C301.239 222.628 301.98 222.56 302.686 222.727C303.356 223.029 303.921 223.522 304.312 224.143C306.497 226.972 308.723 229.875 309.808 233.277C310.834 236.436 310.825 239.824 310.788 243.143C310.739 247.679 310.661 252.215 310.555 256.751C310.495 259.314 310.417 261.91 309.675 264.362C308.631 267.824 306.304 270.855 305.691 274.417C305.054 278.108 306.341 281.826 307.523 285.389C312.307 299.99 315.36 315.103 316.618 330.418C316.733 331.839 316.815 333.361 316.105 334.594C315.542 335.58 314.553 336.245 313.573 336.823C301.024 344.237 285.425 343.663 270.98 341.779C268.031 341.394 264.903 340.89 262.613 338.973C260.996 337.598 259.979 335.686 259.054 333.787C254.635 324.709 251.323 314.801 251.726 304.714C251.936 301.409 252.329 298.118 252.903 294.857C253.819 288.979 254.619 283.087 255.303 277.182C255.812 272.877 256.247 268.402 254.845 264.294C253.403 260.034 250.119 256.564 248.823 252.258C246.913 245.908 249.579 239.026 252.152 233.263C252.977 231.429 257.19 215.84 257.987 215.712C260.373 215.285 260.631 215.038 262.5 217.5Z" fill="#213CBB"/>
<path opacity="0.05" d="M320.37 214.203C320.113 216.675 319.623 219.215 318.208 221.26C316.165 224.208 312.593 225.615 309.236 226.867L298.51 230.851C296.466 231.676 294.359 232.333 292.208 232.814C291.179 233.013 290.137 233.135 289.089 233.18C285.007 233.283 280.953 232.484 277.214 230.842C272.497 228.857 268.265 225.886 264.216 222.75C261.729 220.819 259.288 218.807 257.259 216.404C255.693 214.57 254.333 212.305 254.443 209.88C254.556 208.713 254.827 207.567 255.249 206.473C256.788 201.796 257.916 196.992 258.62 192.118C259.368 186.933 259.614 181.688 259.352 176.456C259.256 174.535 259.087 172.609 259.352 170.702C260.268 163.861 262.604 159.157 268.054 154.952C269.213 154.063 273.953 152.94 275.354 152.532L275.615 152.467C278.13 151.949 283.067 153.682 285.393 154.476C289.861 155.98 293.755 158.831 296.543 162.636C299.33 166.442 300.875 171.017 300.965 175.736C301.001 177.432 300.942 179.363 301.94 180.646C302.066 180.815 302.211 180.968 302.371 181.105C302.93 181.563 303.644 181.843 304.23 182.288C305.852 183.521 306.117 185.864 305.847 187.881C305.577 189.899 304.903 191.907 305.169 193.924C305.231 194.375 305.335 194.819 305.481 195.249C306.058 196.982 307.221 198.518 308.357 199.981L312.959 205.941C313.798 207.023 314.727 208.17 316.023 208.578L316.156 208.619C316.939 208.83 317.787 208.752 318.533 209.077C320.356 209.797 320.571 212.25 320.37 214.203Z" fill="black"/>
<path d="M206.354 151.073C200.451 155.026 198.793 162.76 196.338 169.413C195.39 171.981 194.259 174.502 193.718 177.208C193.036 180.573 193.315 184.048 193.26 187.482C193.046 194.703 191.267 201.792 188.046 208.256C184.825 214.721 180.24 220.408 174.606 224.923L208.406 235.01C210.549 235.692 212.729 236.251 214.937 236.683C218.142 237.247 221.403 237.279 224.655 237.307L245.347 237.49C246.908 237.49 248.736 237.389 249.615 236.115C250.009 235.458 250.191 234.696 250.137 233.932C250.064 229.737 246.876 226.326 245.31 222.438C242.791 216.184 248.548 210.439 248.333 203.699C248.232 200.568 248.127 195.937 248.333 192.81C248.791 185.57 248.864 178.959 248.04 171.747C247.124 163.65 239.984 157.91 233.412 153.095C226.267 147.864 214.167 145.86 206.354 151.073Z" fill="#D94B25"/>
<path d="M213.957 184.47L213.815 208.114C209.968 208.316 206.15 208.895 202.416 209.843C199.294 210.622 196.573 212.537 194.784 215.215C192.996 217.892 192.266 221.14 192.738 224.327L197.213 254.826L245.59 257.691V228.173C244.896 224.852 242.951 221.926 240.159 220.002C237.367 218.077 233.942 217.303 230.595 217.839L228.699 218.142L232.995 193.498L213.957 184.47Z" fill="#FFC095"/>
<path d="M197.5 211.5C197.5 211.5 199.139 230.988 200 235C200.861 239.012 196.068 249.383 193.49 247.948C190.911 246.513 191.2 281.762 191.2 281.762L241.01 276.888L242.155 269.722C242.155 269.722 255.038 264.275 243.3 242.497L238 218C238 218 245.301 248.754 216.5 235L205.228 206.675L197.5 211.5Z" fill="#4C4465"/>
<path opacity="0.05" d="M241.724 269.296C241.724 269.296 231.992 270.158 231.131 268.15L229.414 267.861C229.414 267.861 226.551 274.165 199.645 267.572L191.167 267.283L189.335 271.593L241.802 273.312L241.724 269.296Z" fill="black"/>
<path opacity="0.05" d="M214.442 200.38C215.025 200.787 215.652 201.125 216.311 201.388C217.941 202.021 219.732 202.076 221.477 202.122C224.623 202.205 228.035 202.214 230.568 200.343C231.715 199.466 232.622 198.313 233.206 196.992L233.563 194.933L214.525 185.919L214.442 200.38Z" fill="black"/>
<path d="M202.617 171.706C202.04 176.432 202.589 181.228 204.221 185.701C205.853 190.174 208.521 194.195 212.006 197.436C213.081 198.492 214.342 199.339 215.725 199.935C217.355 200.568 219.146 200.623 220.891 200.669C224.037 200.751 227.449 200.76 229.982 198.89C232.986 196.675 233.774 192.595 234.337 188.904L236.096 177.391C236.609 174.039 237.085 170.431 235.555 167.405C232.945 162.224 222.86 157.442 217.181 158.038C209.739 158.831 203.597 164.37 202.617 171.706Z" fill="#FFC095"/>
<path opacity="0.05" d="M209.977 168.134C208.36 171.559 207.229 175.378 207.834 179.138C208.351 182.347 210.087 185.172 211.832 187.895C215.78 194.048 220.108 200.366 220.904 207.638C221.188 210.237 220.987 212.952 219.856 215.304C218.724 217.656 216.554 219.6 213.975 220.022C213.266 220.177 212.526 220.094 211.868 219.788C211.058 219.329 210.618 218.463 210.206 217.642C208.223 213.69 198.82 212.557 194.488 213.438C193.883 213.561 199.091 210.687 198.482 210.6C196.705 210.338 196.379 207.931 196.508 206.138L199.004 171.541C199.146 169.583 199.292 167.598 199.92 165.736C202.21 159.033 210.119 155.975 217.195 155.773C219.391 155.681 221.589 155.875 223.735 156.351C228.672 157.52 232.982 160.656 236.32 164.48C238.61 167.116 240.552 170.179 241.312 173.595C242.182 177.506 241.473 181.577 240.822 185.515C237.763 204.107 236.091 223.538 241.789 241.493C236.371 242.593 230.435 238.742 229.217 233.35C228.731 231.195 228.924 228.953 229.116 226.757C229.853 218.348 230.591 209.935 231.864 201.595C232.849 195.24 234.154 188.899 234.246 182.466C234.319 177.221 233.417 171.614 229.872 167.749C224.106 161.422 214.094 159.423 209.977 168.134Z" fill="black"/>
<path d="M209.977 167.579C208.36 171.004 207.229 174.823 207.834 178.583C208.351 181.792 210.087 184.617 211.832 187.34C215.78 193.493 220.108 199.811 220.904 207.083C221.188 209.682 220.987 212.397 219.856 214.749C218.724 217.101 216.554 219.045 213.975 219.467C213.266 219.622 212.526 219.539 211.868 219.233C211.058 218.774 210.618 217.908 210.206 217.087C208.223 213.135 198.82 212.002 194.488 212.883C193.883 213.007 199.091 210.132 198.482 210.045C196.705 209.783 196.379 207.376 196.508 205.584L199.004 170.986C199.146 169.028 199.292 167.043 199.92 165.181C202.21 158.478 210.119 155.42 217.195 155.218C219.391 155.126 221.589 155.32 223.735 155.796C228.672 156.965 232.982 160.101 236.32 163.925C238.61 166.561 240.552 169.624 241.312 173.04C242.182 176.951 241.473 181.022 240.822 184.961C237.763 203.552 236.091 222.983 241.789 240.938C236.371 242.038 230.435 238.187 229.217 232.795C228.731 230.64 228.924 228.398 229.116 226.202C229.853 217.793 230.591 209.38 231.864 201.04C232.849 194.685 234.154 188.344 234.246 181.912C234.319 176.666 233.417 171.059 229.872 167.194C224.106 160.848 214.094 158.868 209.977 167.579Z" fill="#D94B25"/>
<path d="M269.492 273.198H93.7266V359H269.492V273.198Z" fill="#F3F0DD"/>
<path d="M53.346 214.396C51.8576 215.161 50.3371 215.936 49.1784 217.147C48.0197 218.357 47.2457 220.049 46.6366 221.686C45.1481 225.693 44.223 229.884 43.3024 234.065C40.0187 248.957 36.7258 263.936 36.0113 279.167C35.8327 282.927 35.8236 286.741 36.7533 290.386C37.77 294.366 39.8767 297.975 42.0979 301.432C49.2833 312.601 57.941 322.749 67.8367 331.6C68.4468 332.089 68.9781 332.669 69.4121 333.32C69.73 333.944 69.9861 334.598 70.177 335.273C72.0089 340.504 77.12 343.746 81.8785 346.584C83.7883 347.721 85.753 348.876 87.9468 349.248C89.078 349.436 90.2367 349.413 91.3221 349.844C92.98 350.509 94.07 352.136 95.6638 352.957C97.2576 353.778 99.9139 352.81 99.4834 351.073C100.976 352.223 103.372 349.784 102.195 348.322C103.372 349.078 105.002 347.826 105.153 346.433C105.304 345.039 104.517 343.732 103.779 342.554C101.196 338.514 98.5262 334.383 94.6517 331.55C90.5069 328.538 85.3179 327.286 81.0495 324.452C76.9002 321.702 73.8409 317.616 70.9189 313.582C64.9407 305.329 59.1655 296.935 53.5933 288.401C52.8606 287.278 52.1141 286.109 51.8622 284.802C51.6103 283.495 51.8622 282.051 52.1644 280.721C54.8875 268.004 58.747 255.558 63.6965 243.533C64.9655 240.276 66.4972 237.128 68.2763 234.12C70.7403 230.127 73.937 226.615 76.3094 222.566C78.6817 218.518 80.216 213.635 78.9107 209.123C77.6421 204.731 72.041 200.068 67.9695 203.415C65.6796 205.281 64.0949 207.83 61.5943 209.609C58.9639 211.402 56.2073 213.002 53.346 214.396Z" fill="#FFC095"/>
<path d="M197.712 299.167C196.666 296.681 195.146 294.423 193.238 292.519C192.349 291.628 191.381 290.819 190.348 290.102L190.261 290.038C187.495 288.151 184.318 286.954 180.995 286.548C177.672 286.142 174.301 286.538 171.163 287.704C171.022 287.753 170.88 287.808 170.737 287.869C170.599 287.92 170.462 287.98 170.329 288.035C165.954 289.883 162.339 293.168 160.078 297.348C157.817 301.528 157.046 306.355 157.891 311.033C158.736 315.711 161.147 319.961 164.728 323.084C168.308 326.206 172.844 328.015 177.588 328.212V338.634H166.322V340.385H177.588V351.664H179.342V340.385H190.604V338.634H179.338V328.203C182.708 328.059 185.993 327.1 188.913 325.41C191.833 323.719 194.301 321.346 196.106 318.493C197.911 315.64 199 312.393 199.28 309.027C199.559 305.662 199.022 302.279 197.712 299.167V299.167ZM178.477 326.479C173.931 326.475 169.534 324.852 166.074 321.901C162.613 318.949 160.315 314.861 159.59 310.368C158.864 305.876 159.759 301.271 162.115 297.378C164.47 293.485 168.132 290.559 172.445 289.121L172.798 289.002C174.637 288.433 176.552 288.144 178.477 288.145C181.602 288.14 184.681 288.907 187.439 290.377L187.531 290.428C191.289 292.447 194.266 295.665 195.989 299.571C197.712 303.476 198.083 307.846 197.043 311.987C196.003 316.128 193.612 319.803 190.248 322.428C186.885 325.054 182.742 326.479 178.477 326.479V326.479Z" fill="#5271FF"/>
<path d="M76.4284 160.385C74.7614 164.718 75.6727 169.555 76.607 174.14C77.1429 176.749 77.6925 179.399 78.9611 181.742C79.9864 183.568 81.3422 185.186 82.9593 186.515C86.9555 189.848 91.9574 191.734 97.1568 191.87C98.1952 191.953 99.2386 191.796 100.207 191.412C101.425 190.852 102.268 189.724 103.056 188.661C105.048 185.91 107.058 183.159 108.428 180.078C110.887 174.525 111.13 168.281 111.331 162.197C111.423 161.301 111.329 160.395 111.057 159.537C110.831 159.027 110.535 158.55 110.177 158.121C106.513 153.329 99.5017 145.64 92.8609 147.882C86.6781 149.936 78.9015 153.953 76.4284 160.385Z" fill="#FFC095"/>
<path opacity="0.05" d="M94.1893 350.124C93.1268 349.697 91.9452 349.72 90.814 349.528C88.6202 349.161 86.6555 348.001 84.7457 346.864C79.9826 344.026 74.8807 340.784 73.0441 335.553C72.8533 334.878 72.5971 334.224 72.2793 333.6C71.8453 332.949 71.314 332.369 70.7038 331.88C60.8082 323.028 52.1505 312.881 44.9651 301.711C42.7439 298.254 40.6372 294.646 39.6204 290.666C38.7045 287.021 38.7045 283.207 38.8785 279.447C39.5929 264.216 42.8859 249.237 46.1696 234.345C47.0856 230.168 48.0015 225.978 49.5037 221.966C50.1129 220.329 50.8365 218.687 52.0456 217.427C53.2546 216.166 54.7248 215.441 56.2132 214.676C59.073 213.28 61.8281 211.679 64.4569 209.884C66.9575 208.105 68.5559 205.556 70.8321 203.69C71.3349 203.276 71.9136 202.965 72.5358 202.773C71.7569 202.529 70.9291 202.485 70.1287 202.645C69.3284 202.806 68.5812 203.165 67.9559 203.69C65.666 205.556 64.0814 208.105 61.5808 209.884C58.952 211.679 56.1969 213.28 53.3371 214.676C51.8486 215.441 50.3281 216.216 49.1694 217.427C48.0107 218.637 47.2367 220.329 46.6276 221.966C45.1391 225.973 44.214 230.164 43.2935 234.345C40.0326 249.237 36.7214 264.211 36.0069 279.452C35.8283 283.211 35.8192 287.026 36.7489 290.671C37.7656 294.651 39.8723 298.259 42.0935 301.716C49.279 312.885 57.9366 323.033 67.8323 331.885C68.4424 332.374 68.9738 332.954 69.4078 333.604C69.7256 334.229 69.9817 334.883 70.1726 335.557C72.0045 340.789 77.1156 344.03 81.8741 346.868C83.7839 348.005 85.7486 349.161 87.9424 349.532C89.0736 349.72 90.2323 349.697 91.3177 350.128C92.9756 350.793 94.0656 352.421 95.6594 353.241C96.0984 353.439 96.5752 353.537 97.0563 353.53C97.5374 353.523 98.011 353.41 98.444 353.2C96.896 352.352 95.8197 350.779 94.1893 350.124Z" fill="black"/>
<path d="M81.6724 157.667C78.8878 162.137 78.3703 167.813 79.6985 172.912C80.6923 176.735 82.6708 180.706 81.3335 184.438C80.3259 187.239 77.5185 190.032 78.9107 192.663C79.2222 193.25 79.726 193.736 79.9092 194.374C80.2206 195.46 79.5199 196.538 79.0344 197.556C76.4972 202.856 79.529 208.949 81.0129 214.634C82.1121 218.843 82.3365 223.222 82.5563 227.568L79.8084 220.54C78.6762 226.436 76.2241 232 72.6364 236.812C74.6543 236.834 76.6588 237.143 78.5902 237.729C77.161 237.556 75.7193 237.929 74.5516 238.771C73.384 239.614 72.5756 240.866 72.2872 242.278C71.9988 243.69 72.2514 245.159 72.9949 246.393C73.7383 247.627 74.9182 248.536 76.3002 248.939C73.4882 249.562 70.5846 247.646 69.2381 245.097C67.8916 242.547 67.7863 239.535 67.9466 236.656L65.6567 236.844C67.9461 231.337 68.9199 225.371 68.5008 219.421C68.313 216.789 67.4474 213.681 64.9285 212.906L64.1728 219.889L61.0997 213.69C60.9015 213.145 60.5256 212.683 60.0326 212.379C59.6575 212.261 59.275 212.169 58.8877 212.103C57.6832 211.732 57.216 210.159 57.5916 208.958C57.9671 207.757 58.9335 206.845 59.854 205.983C62.9683 203.067 66.0734 199.958 67.7588 196.038C69.3251 192.397 69.5495 188.34 69.7144 184.378C69.9098 179.735 70.0625 175.089 70.1724 170.44C70.2503 166.772 70.3006 163.077 71.0884 159.501C72.4623 153.444 76.1262 147.818 81.5167 144.723C86.9071 141.629 93.9418 141.349 99.2453 144.563C102.451 146.498 104.819 149.487 107.132 152.412L113.768 160.803C115.142 162.54 116.543 164.329 117.18 166.447C118.352 170.353 116.722 174.53 114.734 178.102C112.747 181.673 110.361 185.19 109.875 189.238C109.316 193.92 111.4 198.463 113.434 202.714C116.017 208.115 118.641 213.584 122.529 218.133C124.508 220.448 126.898 222.695 127.457 225.689C127.036 226.033 126.539 226.274 126.008 226.391C125.476 226.508 124.925 226.498 124.398 226.363C125.976 232.641 127.239 238.988 128.185 245.404C122.552 241.687 117.088 237.729 111.794 233.529C111.574 234.573 111.093 235.545 110.397 236.353C109.702 237.162 108.813 237.782 107.814 238.155C107.654 236.376 108.272 234.625 108.359 232.841C108.446 231.058 107.759 228.976 106.069 228.44C105.08 228.128 103.908 228.394 103.069 227.784C102.456 227.325 102.218 226.546 102.016 225.808L98.1965 211.769C95.8752 211.657 93.5706 212.214 91.5557 213.374C94.4288 211.768 96.5644 209.106 97.5095 205.951L89.5635 205.827C91.661 203.84 93.693 201.787 95.6592 199.669C98.5216 196.588 101.256 193.351 103.34 189.697C109.188 179.459 109.271 166.158 103.546 155.846C102.598 154.136 101.466 152.472 99.8819 151.349C94.1525 147.364 84.8142 152.628 81.6724 157.667Z" fill="#D67820"/>
<path opacity="0.05" d="M115.6 270.928C115.6 269.704 116.186 268.562 116.791 267.499C117.624 266.04 118.519 264.619 119.475 263.235C120.161 262.11 121.068 261.137 122.14 260.374C123.253 259.677 124.741 259.457 125.877 260.098C126.126 260.296 126.423 260.423 126.738 260.465C127.196 260.465 127.499 260.007 127.906 259.833C128.639 259.493 129.482 260.034 129.995 260.662C130.507 261.291 130.911 262.038 131.648 262.4C131.913 262.528 132.211 262.588 132.481 262.707C133.42 263.12 133.919 264.133 134.341 265.073C134.675 265.695 134.87 266.381 134.913 267.086C134.913 268.315 133.997 269.319 133.132 270.199L130.915 272.492C130.353 273.132 129.696 273.684 128.969 274.128C128.602 274.347 128.192 274.481 127.767 274.52C127.342 274.559 126.914 274.502 126.514 274.353C126.319 274.228 126.09 274.168 125.859 274.183C125.686 274.245 125.539 274.361 125.438 274.513C124.947 275.116 124.488 275.743 124.064 276.393C123.704 277.08 123.184 277.67 122.548 278.113C121.87 278.489 120.849 278.365 120.542 277.654C120.505 277.514 120.434 277.385 120.336 277.278C120.056 277.058 119.699 277.416 119.374 277.553C118.829 277.787 118.188 277.329 118 276.765C117.87 276.183 117.905 275.576 118.101 275.013C117.693 274.683 117.098 274.88 116.571 274.908C115.486 274.967 115.705 274.27 115.733 273.638C115.82 272.712 115.623 271.845 115.6 270.928Z" fill="black"/>
<path d="M115.33 271.501C115.33 270.277 115.916 269.135 116.52 268.072C117.354 266.614 118.248 265.192 119.204 263.808C119.89 262.683 120.797 261.71 121.87 260.947C122.982 260.25 124.471 260.03 125.607 260.672C125.855 260.87 126.153 260.996 126.468 261.038C126.926 261.038 127.228 260.58 127.636 260.406C128.368 260.066 129.211 260.607 129.724 261.236C130.237 261.864 130.64 262.611 131.377 262.973C131.643 263.102 131.941 263.161 132.211 263.28C133.15 263.693 133.649 264.706 134.07 265.646C134.404 266.268 134.6 266.955 134.643 267.659C134.643 268.888 133.727 269.892 132.861 270.772L130.645 273.065C130.082 273.706 129.426 274.258 128.698 274.702C128.332 274.921 127.921 275.055 127.496 275.093C127.071 275.132 126.643 275.075 126.243 274.926C126.049 274.801 125.819 274.742 125.588 274.757C125.416 274.818 125.268 274.934 125.167 275.087C124.677 275.689 124.218 276.316 123.793 276.967C123.434 277.654 122.914 278.244 122.277 278.686C121.599 279.062 120.578 278.938 120.271 278.227C120.234 278.087 120.164 277.958 120.065 277.851C119.786 277.631 119.429 277.989 119.103 278.127C118.558 278.36 117.917 277.902 117.729 277.338C117.6 276.756 117.635 276.15 117.83 275.586C117.423 275.256 116.827 275.454 116.301 275.481C115.215 275.541 115.435 274.844 115.462 274.211C115.531 273.285 115.339 272.418 115.33 271.501Z" fill="#FFC095"/>
<path opacity="0.05" d="M192.203 248.379L164.472 269.878L145.236 284.774C133.498 295.664 129.779 280.19 129.779 280.19L132.642 235.198C132.536 223.671 134.428 216.95 136.896 213.066C138.934 209.857 141.366 208.591 143.391 208.151L143.73 208.087C144.993 207.853 146.294 207.913 147.531 208.261C155.774 211.494 155.491 220.691 154.121 227.105C153.642 229.379 152.969 231.608 152.111 233.767C152.136 234.572 152.107 235.378 152.024 236.179C151.46 243.487 148.676 263.001 148.676 263.001L181.88 240.36L192.203 248.379Z" fill="black"/>
<path d="M191.341 248.379L163.61 269.878L144.375 284.774C132.637 295.664 128.918 280.19 128.918 280.19L131.78 235.198C131.675 223.671 133.567 216.95 136.035 213.066C138.073 209.857 140.505 208.591 142.529 208.151L142.868 208.087C144.132 207.853 145.432 207.913 146.669 208.261C154.913 211.494 154.629 220.691 153.26 227.105C152.78 229.379 152.108 231.608 151.249 233.767C151.275 234.572 151.246 235.378 151.162 236.179C150.599 243.487 147.814 263.001 147.814 263.001L181.018 240.36L191.341 248.379Z" fill="#C6866B"/>
<path opacity="0.05" d="M182.896 233.047C182.896 233.047 168.012 267.723 170.302 284.059C170.302 284.059 166.867 294.091 194.346 289.506L233.274 280.909L243.868 283.491L246.158 286.356V294.38C246.158 294.38 249.308 296.672 250.165 294.38C251.021 292.088 250.165 286.068 250.165 286.068L252.171 289.506L253.032 296.384C253.032 296.384 255.322 298.103 256.183 296.384L255.033 286.329C255.033 286.329 259.613 295.788 261.619 294.926C263.625 294.064 259.041 283.174 259.041 283.174C259.936 283.174 260.815 283.411 261.587 283.863C262.36 284.316 262.999 284.966 263.437 285.747C264.353 287.338 265.535 288.956 266.483 288.337C268.2 287.191 266.483 284.036 266.483 284.036L262.475 278.305C256.899 274.026 250.092 271.662 243.066 271.565L191.772 270.855C191.772 270.855 198.93 253.946 199.503 245.638C199.503 245.638 199.791 240.48 206.088 237.041C212.386 233.602 190.338 202.957 182.896 233.047Z" fill="black"/>
<path d="M204.078 214.703C204.078 214.703 189.766 202.952 182.324 233.043C182.324 233.043 167.439 267.719 169.729 284.055C169.729 284.055 166.294 294.087 193.773 289.502L232.702 280.905L243.295 283.486L245.585 286.352V294.376C245.585 294.376 248.736 296.668 249.593 294.376C250.449 292.083 249.593 286.063 249.593 286.063L251.599 289.502L252.46 296.379C252.46 296.379 254.75 298.098 255.611 296.379L254.461 286.329C254.461 286.329 259.041 295.788 261.047 294.926C263.053 294.064 258.491 283.197 258.491 283.197C259.386 283.197 260.265 283.434 261.038 283.886C261.811 284.339 262.449 284.989 262.888 285.77C263.804 287.361 264.985 288.979 265.934 288.36C267.651 287.214 265.934 284.059 265.934 284.059L261.926 278.328C256.35 274.049 249.543 271.685 242.517 271.588L191.222 270.878C191.222 270.878 198.381 253.969 198.953 245.661C198.953 245.661 199.242 240.503 205.539 237.064C211.836 233.625 204.078 214.703 204.078 214.703Z" fill="#FFC095"/>
<path opacity="0.05" d="M299.975 217.284C299.975 217.284 320.301 202.383 321.157 230.466L322.307 288.621L289.671 323.604C289.671 323.604 287.665 330.197 281.656 330.77L275.07 338.794C275.07 338.794 271.919 339.083 272.492 337.932C273.064 336.781 277.072 329.047 277.072 329.047L268.484 340.509C268.484 340.509 265.906 339.647 266.767 338.79C266.767 338.79 263.904 341.944 263.332 339.078C262.759 336.213 263.332 336.786 263.332 336.786C263.332 336.786 259.609 339.652 260.47 335.64C261.331 331.628 268.773 318.73 269.629 318.73C270.486 318.73 280.506 317.868 280.506 317.868L307.985 284.339C307.985 284.339 298.826 245.367 296.247 231.612C293.669 217.857 299.975 217.284 299.975 217.284Z" fill="black"/>
<path d="M300.548 217.284C300.548 217.284 320.873 202.383 321.729 230.466L322.879 288.621L290.243 323.604C290.243 323.604 288.237 330.197 282.228 330.77L275.642 338.794C275.642 338.794 272.491 339.083 273.064 337.932C273.636 336.781 277.644 329.047 277.644 329.047L269.057 340.509C269.057 340.509 266.478 339.647 267.339 338.79C267.339 338.79 264.477 341.944 263.904 339.078C263.332 336.213 263.904 336.786 263.904 336.786C263.904 336.786 260.181 339.651 261.042 335.64C261.903 331.628 269.345 318.73 270.202 318.73C271.058 318.73 281.079 317.868 281.079 317.868L308.558 284.339C308.558 284.339 299.398 245.367 296.82 231.612C294.241 217.857 300.548 217.284 300.548 217.284Z" fill="#FDBE92"/>
<path d="M321.729 230.466C320.873 202.383 300.548 217.284 300.548 217.284C300.548 217.284 294.241 217.857 296.82 231.612C299.398 245.367 308.558 284.339 308.558 284.339L281.079 317.868C285.5 321 290.243 323.604 290.243 323.604L322.879 288.621L321.729 230.466Z" fill="#354EC1"/>
<path d="M320.369 213.341C320.113 215.813 319.623 218.353 318.208 220.398C316.165 223.346 312.593 224.753 309.236 226.005L298.514 229.994C296.471 230.819 294.363 231.475 292.213 231.956C291.183 232.155 290.141 232.278 289.094 232.323C285.012 232.425 280.957 231.627 277.218 229.985C272.501 227.999 268.269 225.028 264.221 221.892C261.734 219.962 259.293 217.949 257.264 215.547C255.697 213.713 254.337 211.448 254.447 209.022C254.56 207.856 254.831 206.709 255.253 205.616C256.793 200.938 257.92 196.135 258.624 191.26C259.373 186.076 259.618 180.83 259.357 175.598C259.261 173.677 259.091 171.751 259.357 169.844C260.273 163.003 262.608 158.299 268.058 154.095C269.217 153.205 273.957 152.082 275.359 151.674L275.62 151.61C278.134 151.092 283.071 152.825 285.398 153.618C289.866 155.123 293.76 157.973 296.547 161.779C299.335 165.585 300.879 170.16 300.969 174.878C301.006 176.575 300.946 178.505 301.945 179.789C302.071 179.957 302.215 180.111 302.375 180.247C302.934 180.706 303.648 180.986 304.235 181.43C305.856 182.664 306.122 185.007 305.851 187.024C305.581 189.041 304.908 191.049 305.174 193.067C305.235 193.517 305.339 193.961 305.485 194.392C306.062 196.125 307.225 197.661 308.361 199.124L312.964 205.084C313.802 206.166 314.732 207.312 316.028 207.72L316.161 207.762C316.944 207.972 317.791 207.895 318.538 208.22C320.356 208.935 320.571 211.393 320.369 213.341Z" fill="#F3F0DD"/>
<path opacity="0.05" d="M264.331 172.778C262.343 176.598 261.702 180.985 261.619 185.291C261.574 187.496 261.674 189.738 262.375 191.829C263.009 193.505 263.831 195.103 264.825 196.593L269.194 203.708C269.785 204.671 270.426 205.684 271.434 206.198C272.441 206.711 273.783 206.629 274.979 206.482C277.823 206.134 280.713 205.689 283.264 204.387C286.552 202.709 288.984 199.77 291.32 196.909C292.072 196.205 292.64 195.328 292.977 194.354C293.313 193.38 293.406 192.338 293.248 191.32L292.744 179.958C292.753 178.803 292.581 177.654 292.236 176.552C291.237 173.87 288.43 172.425 286.039 170.862C282.517 168.569 278.542 164.833 273.989 165.094C269.813 165.332 266.149 169.289 264.331 172.778Z" fill="black"/>
<path d="M264.331 172.205C262.343 176.025 261.702 180.412 261.619 184.718C261.574 186.923 261.674 189.165 262.375 191.256C263.009 192.927 263.832 194.52 264.825 196.006L269.194 203.122C269.785 204.084 270.426 205.098 271.434 205.611C272.441 206.125 273.783 206.042 274.979 205.895C277.823 205.547 280.713 205.102 283.264 203.8C286.552 202.122 288.984 199.183 291.32 196.322C292.072 195.618 292.64 194.741 292.977 193.767C293.313 192.793 293.406 191.751 293.248 190.733L292.749 179.367C292.758 178.212 292.586 177.063 292.24 175.96C291.242 173.278 288.434 171.834 286.044 170.271C282.522 167.978 278.546 164.241 273.994 164.503C269.813 164.76 266.149 168.716 264.331 172.205Z" fill="#FDBE92"/>
<g opacity="0.1">
<path opacity="0.1" d="M275.383 201.833C276.922 197.155 278.05 192.352 278.753 187.478C279.413 182.909 279.682 178.292 279.559 173.677C279.475 176.857 279.206 180.029 278.753 183.177C278.05 188.051 276.922 192.855 275.383 197.532C274.961 198.626 274.69 199.772 274.577 200.939C274.548 201.745 274.664 202.549 274.92 203.314C275.057 202.8 275.222 202.292 275.383 201.833Z" fill="white"/>
<path opacity="0.1" d="M325.518 185.905C325.279 187.007 325.214 188.139 325.326 189.261C325.387 189.712 325.491 190.155 325.637 190.586C326.214 192.319 327.377 193.855 328.513 195.318L333.116 201.278C333.954 202.36 334.884 203.507 336.18 203.915L336.313 203.956C337.096 204.167 337.943 204.089 338.69 204.414C339.117 204.613 339.491 204.91 339.78 205.282C340.07 205.653 340.268 206.088 340.357 206.551C340.416 206.125 340.467 205.703 340.513 205.276C340.714 203.323 340.513 200.87 338.681 200.114C337.934 199.802 337.087 199.88 336.304 199.655L336.171 199.614C334.875 199.206 333.945 198.06 333.107 196.978L328.504 191.017C327.368 189.555 326.214 188.019 325.628 186.286C325.591 186.162 325.55 186.033 325.518 185.905Z" fill="white"/>
<path opacity="0.1" d="M279.472 166.038C280.388 159.198 282.724 154.494 288.174 150.289C289.333 149.4 294.073 148.276 295.474 147.868L295.735 147.804C298.25 147.286 303.187 149.019 305.513 149.812C309.981 151.317 313.875 154.168 316.663 157.973C319.45 161.779 320.995 166.354 321.085 171.073C321.121 172.769 321.062 174.699 322.06 175.983C322.186 176.152 322.331 176.305 322.491 176.442C323.049 176.9 323.764 177.18 324.35 177.625C325.077 178.205 325.589 179.012 325.807 179.917C325.866 179.592 325.921 179.261 325.967 178.936C326.237 176.919 325.967 174.576 324.35 173.342C323.764 172.884 323.049 172.641 322.491 172.159C322.331 172.023 322.186 171.869 322.06 171.701C321.062 170.417 321.117 168.491 321.085 166.79C320.995 162.072 319.45 157.497 316.663 153.691C313.875 149.885 309.981 147.035 305.513 145.53C303.187 144.737 298.25 143.008 295.735 143.522L295.474 143.586C294.073 143.994 289.333 145.117 288.174 146.007C282.706 150.211 280.356 154.915 279.472 161.756C279.31 163.324 279.295 164.903 279.426 166.474C279.445 166.323 279.454 166.181 279.472 166.038Z" fill="white"/>
</g>
<path d="M332.515 30.1367C330.77 30.1367 330.77 32.8464 332.515 32.8464C334.26 32.8464 334.26 30.1367 332.515 30.1367Z" fill="white"/>
<path d="M266.735 105.284C264.99 105.284 264.99 107.993 266.735 107.993C268.48 107.993 268.48 105.284 266.735 105.284Z" fill="white"/>
<path d="M18.3331 233.882C16.5882 233.882 16.5882 236.592 18.3331 236.592C20.078 236.592 20.078 233.882 18.3331 233.882Z" fill="white"/>
<path d="M196.315 75.844C194.57 75.844 194.57 78.5537 196.315 78.5537C198.06 78.5537 198.06 75.844 196.315 75.844Z" fill="white"/>
<path d="M387.844 103.097H387.643C387.4 103.097 387.167 103 386.995 102.828C386.823 102.656 386.727 102.423 386.727 102.18V101.978H386.223V102.18C386.223 102.423 386.126 102.656 385.955 102.828C385.783 103 385.55 103.097 385.307 103.097H385.105V103.601H385.353C385.596 103.601 385.829 103.698 386 103.87C386.172 104.042 386.269 104.275 386.269 104.518V104.72H386.727V104.518C386.727 104.275 386.823 104.042 386.995 103.87C387.167 103.698 387.4 103.601 387.643 103.601H387.844V103.097Z" fill="white"/>
<path d="M331.352 52.3507H331.151C330.908 52.3507 330.675 52.254 330.503 52.0821C330.331 51.9101 330.235 51.6769 330.235 51.4337V51.2319H329.731V51.4337C329.731 51.6769 329.634 51.9101 329.462 52.0821C329.291 52.254 329.058 52.3507 328.815 52.3507H328.613V52.855H328.815C329.058 52.855 329.291 52.9516 329.462 53.1236C329.634 53.2955 329.731 53.5288 329.731 53.772V53.9737H330.235V53.772C330.235 53.5288 330.331 53.2955 330.503 53.1236C330.675 52.9516 330.908 52.855 331.151 52.855H331.352V52.3507Z" fill="white"/>
<path d="M43.0962 203.8H42.8947C42.6517 203.8 42.4187 203.704 42.247 203.532C42.0752 203.36 41.9787 203.126 41.9787 202.883V202.681H41.4749V202.883C41.4749 203.126 41.3784 203.36 41.2066 203.532C41.0348 203.704 40.8019 203.8 40.5589 203.8H40.3574V204.304H40.5589C40.8019 204.304 41.0348 204.401 41.2066 204.573C41.3784 204.745 41.4749 204.978 41.4749 205.221V205.423H41.9787V205.221C41.9787 204.978 42.0752 204.745 42.247 204.573C42.4187 204.401 42.6517 204.304 42.8947 204.304H43.0962V203.8Z" fill="white"/>
<path d="M203.666 119.749H203.464C203.222 119.749 202.989 119.652 202.817 119.481C202.645 119.309 202.549 119.075 202.549 118.832V118.63H202.045V118.832C202.045 119.075 201.948 119.309 201.776 119.481C201.605 119.652 201.372 119.749 201.129 119.749H200.927V120.253H201.129C201.372 120.253 201.605 120.35 201.776 120.522C201.948 120.694 202.045 120.927 202.045 121.17V121.372H202.549V121.17C202.549 120.927 202.645 120.694 202.817 120.522C202.989 120.35 203.222 120.253 203.464 120.253H203.666V119.749Z" fill="white"/>
<path d="M400.851 110.208L400.696 110.08C400.512 109.926 400.396 109.707 400.372 109.468C400.348 109.23 400.418 108.992 400.567 108.805L400.696 108.649L400.306 108.333L400.178 108.489C400.025 108.672 399.805 108.788 399.568 108.812C399.33 108.836 399.092 108.766 398.905 108.617L398.749 108.489L398.433 108.878L398.589 109.007C398.772 109.16 398.888 109.38 398.912 109.618C398.936 109.856 398.866 110.094 398.717 110.281L398.589 110.437L398.978 110.754L399.106 110.598C399.26 110.414 399.479 110.298 399.717 110.274C399.955 110.25 400.193 110.32 400.38 110.469L400.535 110.598L400.851 110.208Z" fill="white"/>
<path d="M266.588 77.6687L266.432 77.5403C266.249 77.3866 266.133 77.1673 266.109 76.9291C266.085 76.691 266.155 76.4529 266.304 76.2657L266.432 76.1098L266.043 75.7935L265.915 75.9493C265.761 76.1329 265.542 76.249 265.304 76.273C265.066 76.297 264.829 76.2269 264.642 76.0777L264.486 75.9493L264.17 76.3391L264.326 76.4674C264.509 76.6211 264.625 76.8405 264.649 77.0786C264.673 77.3168 264.603 77.5549 264.454 77.7421L264.326 77.8979L264.715 78.2143L264.843 78.0584C264.997 77.8749 265.216 77.7587 265.454 77.7347C265.692 77.7108 265.929 77.7808 266.116 77.93L266.272 78.0584L266.588 77.6687Z" fill="white"/>
<path d="M356.742 267.856L356.587 267.728C356.403 267.574 356.287 267.355 356.263 267.117C356.239 266.878 356.309 266.64 356.458 266.453L356.587 266.297L356.197 265.981L356.069 266.137C355.916 266.32 355.697 266.437 355.459 266.461C355.221 266.485 354.983 266.414 354.796 266.265L354.64 266.137L354.324 266.527L354.48 266.655C354.663 266.809 354.779 267.028 354.803 267.266C354.827 267.504 354.757 267.742 354.608 267.93L354.48 268.085L354.869 268.402L354.997 268.246C355.151 268.062 355.37 267.946 355.608 267.922C355.846 267.898 356.084 267.968 356.271 268.118L356.426 268.246L356.742 267.856Z" fill="white"/>
<path d="M360.539 30.9163L359.761 30.1368L360.539 29.3574L360.187 28.9998L359.403 29.7792L358.625 28.9998L358.268 29.3574L359.051 30.1368L358.268 30.9163L358.625 31.2739L359.403 30.4899L360.187 31.2739L360.539 30.9163Z" fill="white"/>
<path d="M388.641 35.4094C388.546 35.4198 388.458 35.4651 388.393 35.5366C388.329 35.6081 388.294 35.7008 388.294 35.7969C388.294 35.8929 388.329 35.9856 388.393 36.0571C388.458 36.1286 388.546 36.1739 388.641 36.1843C388.736 36.1739 388.825 36.1286 388.889 36.0571C388.953 35.9856 388.988 35.8929 388.988 35.7969C388.988 35.7008 388.953 35.6081 388.889 35.5366C388.825 35.4651 388.736 35.4198 388.641 35.4094Z" fill="white"/>
<path d="M353.821 65.6194C353.725 65.6298 353.637 65.6751 353.573 65.7466C353.509 65.8181 353.474 65.9108 353.474 66.0068C353.474 66.1029 353.509 66.1955 353.573 66.267C353.637 66.3385 353.725 66.3838 353.821 66.3942C353.916 66.3838 354.004 66.3385 354.068 66.267C354.132 66.1955 354.168 66.1029 354.168 66.0068C354.168 65.9108 354.132 65.8181 354.068 65.7466C354.004 65.6751 353.916 65.6298 353.821 65.6194Z" fill="white"/>
<path d="M308.553 58.646C308.458 58.6564 308.37 58.7017 308.306 58.7732C308.241 58.8447 308.206 58.9374 308.206 59.0334C308.206 59.1295 308.241 59.2221 308.306 59.2936C308.37 59.3651 308.458 59.4104 308.553 59.4208C308.649 59.4104 308.737 59.3651 308.801 59.2936C308.865 59.2221 308.9 59.1295 308.9 59.0334C308.9 58.9374 308.865 58.8447 308.801 58.7732C308.737 58.7017 308.649 58.6564 308.553 58.646Z" fill="white"/>
<path d="M229.043 64.8035H228.461C228.366 64.8139 228.278 64.8592 228.214 64.9307C228.15 65.0022 228.114 65.0948 228.114 65.1909C228.114 65.2869 228.15 65.3796 228.214 65.4511C228.278 65.5226 228.366 65.5679 228.461 65.5783H229.043C229.138 65.5679 229.227 65.5226 229.291 65.4511C229.355 65.3796 229.39 65.2869 229.39 65.1909C229.39 65.0948 229.355 65.0022 229.291 64.9307C229.227 64.8592 229.138 64.8139 229.043 64.8035Z" fill="white"/>
<path d="M219.178 114.421C219.082 114.432 218.994 114.477 218.93 114.549C218.866 114.62 218.831 114.713 218.831 114.809C218.831 114.905 218.866 114.998 218.93 115.069C218.994 115.141 219.082 115.186 219.178 115.196C219.273 115.186 219.361 115.141 219.425 115.069C219.489 114.998 219.525 114.905 219.525 114.809C219.525 114.713 219.489 114.62 219.425 114.549C219.361 114.477 219.273 114.432 219.178 114.421Z" fill="white"/>
<path d="M299.847 132.436C299.752 132.446 299.664 132.491 299.599 132.563C299.535 132.634 299.5 132.727 299.5 132.823C299.5 132.919 299.535 133.012 299.599 133.083C299.664 133.155 299.752 133.2 299.847 133.21C299.942 133.2 300.031 133.155 300.095 133.083C300.159 133.012 300.194 132.919 300.194 132.823C300.194 132.727 300.159 132.634 300.095 132.563C300.031 132.491 299.942 132.446 299.847 132.436Z" fill="white"/>
<path d="M306.231 98.7363C306.136 98.7467 306.048 98.792 305.984 98.8635C305.92 98.935 305.884 99.0277 305.884 99.1238C305.884 99.2198 305.92 99.3125 305.984 99.384C306.048 99.4555 306.136 99.5008 306.231 99.5112C306.327 99.5008 306.415 99.4555 306.479 99.384C306.543 99.3125 306.579 99.2198 306.579 99.1238C306.579 99.0277 306.543 98.935 306.479 98.8635C306.415 98.792 306.327 98.7467 306.231 98.7363Z" fill="white"/>
<path d="M360.205 105.71C360.11 105.721 360.021 105.766 359.957 105.837C359.893 105.909 359.858 106.002 359.858 106.098C359.858 106.194 359.893 106.286 359.957 106.358C360.021 106.429 360.11 106.475 360.205 106.485C360.3 106.475 360.389 106.429 360.453 106.358C360.517 106.286 360.552 106.194 360.552 106.098C360.552 106.002 360.517 105.909 360.453 105.837C360.389 105.766 360.3 105.721 360.205 105.71Z" fill="white"/>
<path d="M354.979 222.488C354.884 222.499 354.796 222.544 354.732 222.615C354.668 222.687 354.632 222.78 354.632 222.876C354.632 222.972 354.668 223.064 354.732 223.136C354.796 223.207 354.884 223.253 354.979 223.263C355.075 223.253 355.163 223.207 355.227 223.136C355.291 223.064 355.327 222.972 355.327 222.876C355.327 222.78 355.291 222.687 355.227 222.615C355.163 222.544 355.075 222.499 354.979 222.488Z" fill="white"/>
<path d="M59.5791 158.579C59.4837 158.589 59.3955 158.635 59.3314 158.706C59.2674 158.778 59.2319 158.87 59.2319 158.966C59.2319 159.062 59.2674 159.155 59.3314 159.227C59.3955 159.298 59.4837 159.343 59.5791 159.354C59.6744 159.343 59.7626 159.298 59.8267 159.227C59.8908 159.155 59.9262 159.062 59.9262 158.966C59.9262 158.87 59.8908 158.778 59.8267 158.706C59.7626 158.635 59.6744 158.589 59.5791 158.579Z" fill="white"/>
<path d="M31.143 225.395C31.0476 225.405 30.9595 225.451 30.8954 225.522C30.8313 225.594 30.7959 225.686 30.7959 225.782C30.7959 225.879 30.8313 225.971 30.8954 226.043C30.9595 226.114 31.0476 226.16 31.143 226.17C31.2384 226.16 31.3266 226.114 31.3907 226.043C31.4547 225.971 31.4902 225.879 31.4902 225.782C31.4902 225.686 31.4547 225.594 31.3907 225.522C31.3266 225.451 31.2384 225.405 31.143 225.395Z" fill="white"/>
<path d="M126.321 198.087C126.226 198.098 126.138 198.143 126.074 198.215C126.01 198.286 125.974 198.379 125.974 198.475C125.974 198.571 126.01 198.664 126.074 198.735C126.138 198.807 126.226 198.852 126.321 198.862C126.417 198.852 126.505 198.807 126.569 198.735C126.633 198.664 126.668 198.571 126.668 198.475C126.668 198.379 126.633 198.286 126.569 198.215C126.505 198.143 126.417 198.098 126.321 198.087Z" fill="white"/>
<path d="M342.215 241.08C342.12 241.09 342.032 241.136 341.968 241.207C341.904 241.279 341.868 241.371 341.868 241.468C341.868 241.564 341.904 241.656 341.968 241.728C342.032 241.799 342.12 241.845 342.215 241.855C342.311 241.845 342.399 241.799 342.463 241.728C342.527 241.656 342.562 241.564 342.562 241.468C342.562 241.371 342.527 241.279 342.463 241.207C342.399 241.136 342.311 241.09 342.215 241.08Z" fill="white"/>
<path d="M329.447 284.078C329.351 284.088 329.263 284.133 329.199 284.205C329.135 284.276 329.1 284.369 329.1 284.465C329.1 284.561 329.135 284.654 329.199 284.725C329.263 284.797 329.351 284.842 329.447 284.852C329.542 284.842 329.63 284.797 329.694 284.725C329.758 284.654 329.794 284.561 329.794 284.465C329.794 284.369 329.758 284.276 329.694 284.205C329.63 284.133 329.542 284.088 329.447 284.078Z" fill="white"/>
<path d="M239.489 130.693C239.394 130.704 239.306 130.749 239.242 130.821C239.178 130.892 239.142 130.985 239.142 131.081C239.142 131.177 239.178 131.269 239.242 131.341C239.306 131.413 239.394 131.458 239.489 131.468C239.585 131.458 239.673 131.413 239.737 131.341C239.801 131.269 239.836 131.177 239.836 131.081C239.836 130.985 239.801 130.892 239.737 130.821C239.673 130.749 239.585 130.704 239.489 130.693Z" fill="white"/>
<path d="M184.357 115.004C184.262 115.014 184.174 115.059 184.11 115.131C184.046 115.202 184.01 115.295 184.01 115.391C184.01 115.487 184.046 115.58 184.11 115.651C184.174 115.723 184.262 115.768 184.357 115.779C184.453 115.768 184.541 115.723 184.605 115.651C184.669 115.58 184.704 115.487 184.704 115.391C184.704 115.295 184.669 115.202 184.605 115.131C184.541 115.059 184.453 115.014 184.357 115.004Z" fill="white"/>
<path d="M121.096 130.693C121 130.704 120.912 130.749 120.848 130.821C120.784 130.892 120.749 130.985 120.749 131.081C120.749 131.177 120.784 131.269 120.848 131.341C120.912 131.413 121 131.458 121.096 131.468C121.191 131.458 121.279 131.413 121.343 131.341C121.407 131.269 121.443 131.177 121.443 131.081C121.443 130.985 121.407 130.892 121.343 130.821C121.279 130.749 121.191 130.704 121.096 130.693Z" fill="white"/>
<path d="M388.06 66.2019H387.478C387.222 66.2019 386.976 66.3038 386.795 66.4853C386.614 66.6667 386.512 66.9128 386.512 67.1693C386.512 67.4259 386.614 67.672 386.795 67.8534C386.976 68.0348 387.222 68.1367 387.478 68.1367H388.06C388.316 68.1367 388.562 68.0348 388.743 67.8534C388.924 67.672 389.026 67.4259 389.026 67.1693C389.026 66.9128 388.924 66.6667 388.743 66.4853C388.562 66.3038 388.316 66.2019 388.06 66.2019Z" fill="white"/>
<path d="M332.346 98.1541C331.1 98.1541 331.1 100.089 332.346 100.089C333.592 100.089 333.601 98.1541 332.346 98.1541Z" fill="white"/>
<path d="M288.26 130.693C287.014 130.693 287.014 132.628 288.26 132.628C289.506 132.628 289.487 130.693 288.26 130.693Z" fill="white"/>
<path d="M332.927 203.896C331.682 203.896 331.682 205.831 332.927 205.831C334.173 205.831 334.173 203.896 332.927 203.896Z" fill="white"/>
<path d="M378.195 190.536C376.949 190.536 376.949 192.471 378.195 192.471C379.44 192.471 379.44 190.536 378.195 190.536Z" fill="white"/>
<path d="M339.893 318.354H339.312C339.055 318.354 338.81 318.456 338.628 318.638C338.447 318.819 338.345 319.065 338.345 319.322C338.345 319.579 338.447 319.825 338.628 320.006C338.81 320.187 339.055 320.289 339.312 320.289H339.893C340.15 320.289 340.395 320.187 340.577 320.006C340.758 319.825 340.86 319.579 340.86 319.322C340.86 319.065 340.758 318.819 340.577 318.638C340.395 318.456 340.15 318.354 339.893 318.354Z" fill="white"/>
<path d="M35.2053 325.328C33.9596 325.328 33.9596 327.263 35.2053 327.263C36.451 327.263 36.451 325.328 35.2053 325.328Z" fill="white"/>
<path d="M316.65 151.958L348.183 120.391" stroke="url(#paint0_linear)" stroke-miterlimit="10" stroke-linecap="round"/>
<path d="M277.571 75.2616L309.103 43.6943" stroke="url(#paint1_linear)" stroke-miterlimit="10" stroke-linecap="round"/>
<path opacity="0.1" d="M376.427 169.473H366.809C368.811 168.936 370.235 167.639 370.235 166.094C370.235 164.549 368.811 163.251 366.809 162.715H371.009C373.99 162.715 376.427 161.078 376.427 159.079C376.427 157.08 373.99 155.443 371.009 155.443H336.962C333.981 155.443 331.544 157.08 331.544 159.079C331.544 160.606 332.969 161.921 334.97 162.458H330.771C327.789 162.458 325.353 164.095 325.353 166.094C325.353 168.093 327.789 169.73 330.771 169.73H340.388C338.387 170.266 336.962 171.563 336.962 173.109C336.962 175.108 339.399 176.744 342.38 176.744H376.432C379.413 176.744 381.849 175.108 381.849 173.109C381.849 171.11 379.399 169.473 376.427 169.473Z" fill="white"/>
<path opacity="0.1" d="M263.813 95.1007H251.072C253.724 94.5643 255.611 93.2667 255.611 91.7216C255.611 90.1765 253.724 88.8789 251.072 88.3425H256.637C260.584 88.3425 263.818 86.7057 263.818 84.7066C263.818 82.7076 260.589 81.0708 256.637 81.0708H211.507C207.559 81.0708 204.326 82.7076 204.326 84.7066C204.326 86.2334 206.212 87.5493 208.864 88.0857H203.304C199.356 88.0857 196.123 89.7226 196.123 91.7216C196.123 93.7206 199.352 95.3575 203.304 95.3575H216.045C213.394 95.8939 211.507 97.1914 211.507 98.7365C211.507 100.736 214.736 102.372 218.688 102.372H263.813C267.761 102.372 270.994 100.736 270.994 98.7365C270.994 96.7375 267.761 95.1007 263.813 95.1007Z" fill="white"/>
</g>
<defs>
<linearGradient id="paint0_linear" x1="316.421" y1="136.172" x2="348.412" y2="136.172" gradientUnits="userSpaceOnUse">
<stop stop-color="white"/>
<stop offset="0.77" stop-color="white" stop-opacity="0.15"/>
</linearGradient>
<linearGradient id="paint1_linear" x1="19372.5" y1="4138.6" x2="21575.1" y2="4138.6" gradientUnits="userSpaceOnUse">
<stop stop-color="white"/>
<stop offset="0.77" stop-color="white" stop-opacity="0.15"/>
</linearGradient>
<clipPath id="clip0">
<rect width="411" height="359" fill="white"/>
</clipPath>
</defs>
</svg>
