<svg width="1191" height="803" viewBox="0 0 1191 803" fill="none" xmlns="http://www.w3.org/2000/svg">
<path d="M331.464 325.387C376.381 148.765 531.581 21.2694 713.753 16.1556C810.061 13.4522 911.405 45.3934 985.19 157.168C1117.09 356.976 977.085 495.05 879.477 560.66C832.32 592.421 789.83 630.612 753.236 674.125C687.305 752.363 560.468 849.584 409.412 697.253C299.927 586.843 301.546 443.034 331.464 325.387Z" fill="#F2F2F2"/>
<path d="M593 788C898.413 788 1146 773.673 1146 756C1146 738.327 898.413 724 593 724C287.587 724 40 738.327 40 756C40 773.673 287.587 788 593 788Z" fill="#3F3D56"/>
<path opacity="0.1" d="M173 760.428C237.617 760.428 290 754.16 290 746.428C290 738.696 237.617 732.428 173 732.428C108.383 732.428 56 738.696 56 746.428C56 754.16 108.383 760.428 173 760.428Z" fill="black"/>
<path opacity="0.1" d="M938 771C1002.62 771 1055 764.732 1055 757C1055 749.268 1002.62 743 938 743C873.383 743 821 749.268 821 757C821 764.732 873.383 771 938 771Z" fill="black"/>
<path d="M875.913 145.24C826.413 100.5 775.281 87 721.781 87C668.281 87 620.413 100.624 567.822 145.24C484.413 216 470.773 313.598 513.913 435.5C554.094 549.04 695.122 573.154 721.106 585.327C721.547 586.222 721.781 586.687 721.781 586.687C721.781 586.687 722.174 586.509 722.913 586.168C723.653 586.509 724.046 586.687 724.046 586.687C724.046 586.687 724.28 586.222 724.72 585.327C750.705 573.154 899.232 549.04 939.413 435.5C982.553 313.598 932.913 196.758 875.913 145.24Z" fill="#5271FF"/>
<path d="M785.913 358.929L734.304 457.077L731.868 392.887L754.913 331.929L731.352 379.284L728.06 292.541L758.913 210.929L727.368 274.328L722.913 156.929L715.528 351.517L647.913 222.929L715.136 361.856L711.32 462.398L656.913 358.929L711.004 470.718L702.913 683.929H742.913L734.603 464.969L785.913 358.929Z" fill="#3F3D56"/>
<path opacity="0.1" d="M914.913 714.164C914.913 776.358 828.222 757.12 722.078 757.12C615.933 757.12 530.53 776.358 530.53 714.164C530.53 651.97 617.21 638.443 723.354 638.443C829.498 638.443 914.913 651.97 914.913 714.164Z" fill="black"/>
<path d="M914.913 698.85C914.913 761.044 828.222 741.807 722.078 741.807C615.933 741.807 530.53 761.044 530.53 698.85C530.53 636.657 617.21 623.13 723.354 623.13C829.498 623.13 914.913 636.657 914.913 698.85Z" fill="#3F3D56"/>
<path d="M383.626 327.806C383.626 327.806 434.444 341.179 435.336 347.42C436.227 353.661 409.481 370.678 409.481 370.678L353.313 343.854L383.626 327.806Z" fill="#FEDDB6"/>
<path opacity="0.1" d="M383.626 327.806C383.626 327.806 434.444 341.179 435.336 347.42C436.227 353.661 409.481 370.678 409.481 370.678L353.313 343.854L383.626 327.806Z" fill="black"/>
<path d="M409.926 317.553C409.926 317.553 393.878 337.167 374.264 335.384C354.65 333.601 398.336 377.287 398.336 377.287L420.625 357.673C420.625 357.673 426.866 331.818 432.215 330.926C437.564 330.035 409.926 317.553 409.926 317.553Z" fill="#CF9595"/>
<path opacity="0.1" d="M409.926 317.553C409.926 317.553 393.878 337.167 374.264 335.384C354.65 333.601 398.336 377.287 398.336 377.287L420.625 357.673C420.625 357.673 426.866 331.818 432.215 330.926C437.564 330.035 409.926 317.553 409.926 317.553Z" fill="black"/>
<path d="M508.889 583.236C508.889 583.236 511.563 599.284 503.539 602.85C495.515 606.416 479.468 660.801 479.468 660.801L494.624 675.957L537.418 606.416C537.418 606.416 549.9 581.453 545.442 581.453C540.985 581.453 508.889 583.236 508.889 583.236Z" fill="#FFB9B9"/>
<path opacity="0.1" d="M508.889 583.236C508.889 583.236 511.563 599.284 503.539 602.85C495.515 606.416 479.468 660.801 479.468 660.801L494.624 675.957L537.418 606.416C537.418 606.416 549.9 581.453 545.442 581.453C540.985 581.453 508.889 583.236 508.889 583.236Z" fill="black"/>
<path d="M483.034 659.018L479.467 657.234C479.467 657.234 458.962 667.933 461.636 673.282C464.311 678.632 470.552 689.33 470.552 692.897C470.552 696.463 474.118 717.86 485.708 719.643C497.299 721.426 497.299 710.728 495.515 706.27C493.732 701.812 492.841 686.656 493.732 681.306C494.509 677.569 495.902 673.988 497.854 670.708L483.034 659.018Z" fill="#2F2E41"/>
<path d="M465.203 578.778C465.203 578.778 462.528 645.644 481.251 673.282C481.251 673.282 488.383 692.897 489.275 694.68C490.166 696.463 505.323 688.439 505.323 688.439C505.323 688.439 497.299 634.946 498.19 626.03C499.082 617.115 493.732 605.524 493.732 605.524L492.841 578.778H465.203Z" fill="#FFB9B9"/>
<path d="M507.106 683.981L488.489 692.78C488.489 692.78 490.166 706.27 491.058 708.944C491.949 711.619 478.576 731.233 492.841 733.016C507.106 734.799 521.37 733.016 517.804 728.559C514.238 724.101 508.889 704.487 509.78 699.137C510.672 693.788 507.106 683.981 507.106 683.981Z" fill="#2F2E41"/>
<path d="M469.66 330.035C469.66 330.035 458.07 329.143 456.287 363.022C455.191 382.621 455.191 402.266 456.287 421.865L484.817 422.756L482.142 369.263L469.66 330.035Z" fill="#FFB9B9"/>
<path d="M503.539 304.18C503.539 304.18 506.214 323.794 493.732 325.577C481.251 327.36 507.997 354.998 507.997 354.998L542.768 335.384C542.768 335.384 529.394 311.312 536.527 299.722C543.659 288.132 503.539 304.18 503.539 304.18Z" fill="#FFB9B9"/>
<path opacity="0.1" d="M503.539 304.18C503.539 304.18 506.214 323.794 493.732 325.577C481.251 327.36 507.997 354.998 507.997 354.998L542.768 335.384C542.768 335.384 529.394 311.312 536.527 299.722C543.659 288.132 503.539 304.18 503.539 304.18Z" fill="black"/>
<path d="M432.215 343.408C449.449 343.408 463.42 329.438 463.42 312.204C463.42 294.97 449.449 281 432.215 281C414.982 281 401.011 294.97 401.011 312.204C401.011 329.438 414.982 343.408 432.215 343.408Z" fill="#CF9595"/>
<path d="M516.021 314.879C533.255 314.879 547.226 300.908 547.226 283.674C547.226 266.441 533.255 252.47 516.021 252.47C498.788 252.47 484.817 266.441 484.817 283.674C484.817 300.908 498.788 314.879 516.021 314.879Z" fill="#FFB9B9"/>
<path d="M338.602 393.335C338.602 393.335 337.711 426.323 338.602 431.672C339.494 437.021 333.253 482.49 333.253 482.49L352.867 468.225C352.867 468.225 368.023 420.082 361.783 407.6C355.542 395.118 338.602 393.335 338.602 393.335Z" fill="#CF9595"/>
<path d="M441.131 407.6C441.131 407.6 437.564 434.346 449.155 436.13C460.745 437.913 463.42 415.624 463.42 415.624L458.962 393.335L441.131 407.6Z" fill="#CF9595"/>
<path d="M415.336 305.363C416.941 306.821 418.55 308.414 420.618 309.069C424.082 310.165 428.3 308.459 431.254 310.573C434.063 312.584 434.285 317.173 437.359 318.751C438.64 319.28 440.031 319.49 441.412 319.364L452.28 319.235C452.01 319.925 451.891 320.664 451.931 321.403C451.97 322.142 452.166 322.864 452.507 323.521C452.847 324.178 453.324 324.755 453.905 325.213C454.486 325.672 455.159 326.001 455.877 326.178C457.015 326.393 458.441 326.34 459.005 327.351C459.613 328.443 459.327 330.618 460.544 330.33C461.959 327.908 463.924 325.851 466.28 324.328C467.608 323.471 469.117 322.725 469.91 321.357C471.003 319.471 470.366 317.114 470.288 314.935C470.046 308.156 475.522 301.816 474.129 295.176C473.706 293.52 473.072 291.925 472.242 290.431L465.289 276.553C464.06 274.1 462.631 271.455 460.094 270.411C456.254 268.831 452.135 271.645 448.046 272.365C443.398 273.184 438.777 271.24 434.237 269.95C429.697 268.661 424.277 268.196 420.761 271.344C419.332 272.623 418.342 274.411 416.674 275.357C413.828 276.971 409.333 276.025 407.883 278.958C407.172 280.396 407.641 282.153 407.177 283.689C406.545 285.784 404.406 286.959 402.62 288.224C400.834 289.489 399.1 291.585 399.828 293.649C400.138 294.528 400.857 295.219 401.146 296.105C401.68 297.735 400.647 299.408 399.849 300.927C397.192 305.993 401.565 306.974 404.878 304.699C408.914 301.928 411.275 301.674 415.336 305.363Z" fill="#3F3D56"/>
<path d="M494.624 319.336C494.624 319.336 496.407 337.167 510.672 337.167C524.937 337.167 538.165 325.258 538.165 325.258C538.165 325.258 563.273 331.818 563.273 335.384C563.273 338.95 542.768 364.805 542.768 364.805C542.768 364.805 533.852 432.563 537.418 436.13C540.985 439.696 578.43 567.188 572.189 577.887C565.948 588.585 568.623 588.585 526.72 591.26C484.817 593.935 481.251 602.85 463.42 589.477C445.589 576.103 442.914 568.079 435.781 567.188C428.649 566.296 420.625 468.226 427.757 454.852C434.89 441.479 447.372 424.54 451.829 420.973C456.287 417.407 466.843 383.424 466.843 383.424L466.986 328.252L494.624 319.336Z" fill="#FF6584"/>
<path d="M555.25 333.601C555.25 333.601 575.755 330.926 569.514 352.324C563.273 373.721 554.358 412.949 540.093 414.732C525.828 416.515 542.768 363.022 542.768 363.022L555.25 333.601Z" fill="#FFB9B9"/>
<path d="M511.264 250.474C521.094 248.311 531.512 247.812 541.113 250.835C550.713 253.858 559.392 260.769 562.937 270.189C566.482 279.609 563.985 291.425 555.916 297.441C551.712 300.575 546.34 302.064 542.631 305.771C538.631 309.769 536.679 316.194 531.359 318.111C530.183 314.172 530.06 309.994 531.002 305.992C531.67 303.908 532.145 301.766 532.423 299.595C532.531 297.409 531.752 294.991 529.841 293.925C527.809 292.792 525.291 293.518 522.971 293.346C517.199 292.92 513.463 287.132 511.294 281.767C509.126 276.401 507.184 270.309 502.178 267.405C497.464 264.669 492.236 265.927 487.208 266.628C486.452 263.866 494.205 257.856 496.482 256.313C500.998 253.455 506.013 251.473 511.264 250.474Z" fill="#564B3D"/>
<path d="M550.792 393.335C550.792 393.335 542.768 357.673 542.768 353.215C542.768 348.757 538.31 327.36 540.985 322.011C543.659 316.662 549.9 286.349 540.093 289.023C530.286 291.698 525.828 330.035 525.828 330.035C525.828 330.035 527.611 352.324 525.828 359.456C524.045 366.588 524.937 413.841 531.177 414.732C537.418 415.624 550.792 411.166 550.792 393.335Z" fill="#FFB9B9"/>
<path d="M559.261 283.228C570.094 283.228 578.876 274.447 578.876 263.614C578.876 252.782 570.094 244 559.261 244C548.429 244 539.647 252.782 539.647 263.614C539.647 274.447 548.429 283.228 559.261 283.228Z" fill="#564A3D"/>
<path d="M348.855 343.854C348.855 343.854 331.47 369.263 331.47 398.684C331.47 398.684 352.867 397.793 365.349 415.624C377.83 433.455 348.855 343.854 348.855 343.854Z" fill="#FEDDB6"/>
<path d="M346.626 652.777C346.626 652.777 360 681.306 360 695.571C360 709.836 387.638 698.246 387.638 698.246C387.638 698.246 369.807 651.885 371.59 645.644C373.373 639.403 346.626 652.777 346.626 652.777Z" fill="#CF9595"/>
<path d="M395.662 650.994C395.662 650.994 399.409 704.112 394.86 708.757C390.312 713.402 412.601 710.728 412.601 710.728C412.601 710.728 412.601 670.608 419.733 654.56L395.662 650.994Z" fill="#CF9595"/>
<path d="M357.325 464.659C357.325 464.659 330.578 477.141 330.578 482.49C330.578 487.84 326.12 514.586 324.337 517.261C322.554 519.936 322.554 544.008 324.337 547.574C326.12 551.14 329.687 660.801 343.06 660.801C356.433 660.801 375.156 654.56 376.047 649.211C376.047 649.211 363.566 600.175 368.023 587.694C372.481 575.212 374.264 534.2 383.18 528.851C392.095 523.502 392.095 534.2 392.095 534.2L390.312 609.091C390.312 609.091 388.529 657.235 392.095 658.126C395.662 659.018 418.842 662.584 421.517 659.018C424.191 655.452 433.107 606.416 433.107 601.067C433.107 595.718 442.022 538.658 442.914 532.417C443.805 526.176 446.48 472.683 440.239 469.117C433.998 465.551 357.325 464.659 357.325 464.659Z" fill="#AAC9F5"/>
<path d="M371.59 694.68C371.59 694.68 362.674 687.547 357.325 700.921C354.252 708.784 349.364 715.811 343.06 721.426C343.06 721.426 339.494 730.342 354.65 728.559C369.807 726.776 395.662 710.728 395.662 710.728C395.662 710.728 389.3 694.432 386.24 694.556C383.18 694.68 381.397 700.921 371.59 694.68Z" fill="#2F2E41"/>
<path d="M409.035 704.487C409.035 704.487 395.67 700.921 392.991 704.487C390.312 708.053 386.746 728.559 391.204 731.233C395.661 733.908 415.276 733.017 417.95 731.233C420.625 729.45 417.95 717.86 417.95 717.86L409.035 704.487Z" fill="#2F2E41"/>
<path d="M393.878 349.649C393.878 349.649 380.505 338.059 384.071 328.252C384.071 328.252 343.951 341.625 344.843 352.324C345.735 363.022 361.782 407.6 361.782 407.6C361.782 407.6 335.928 457.527 349.301 468.225C362.674 478.924 359.108 466.442 382.288 474.466C405.469 482.49 415.276 478.924 424.191 477.141C433.107 475.358 434.89 476.249 441.131 476.249C447.372 476.249 443.805 458.418 441.131 448.611C438.456 438.804 434.89 424.539 437.565 420.973C440.239 417.407 463.419 354.998 463.419 354.998C463.419 354.998 445.415 340.585 424.105 345.563C424.105 345.563 409.035 357.673 393.878 349.649Z" fill="#FEDDB6"/>
<path d="M454.504 357.673C454.504 356.781 463.42 354.998 463.42 354.998C463.42 354.998 468.769 390.66 466.094 397.793C463.42 404.925 441.131 412.949 437.564 412.058C433.998 411.166 454.504 357.673 454.504 357.673Z" fill="#FEDDB6"/>
<path d="M434.876 290.29C446.474 290.29 455.876 280.888 455.876 269.29C455.876 257.692 446.474 248.29 434.876 248.29C423.278 248.29 413.876 257.692 413.876 269.29C413.876 280.888 423.278 290.29 434.876 290.29Z" fill="#3F3D56"/>
<path d="M332.101 238.311C335.535 241.172 339.006 244.073 341.426 247.499C344.586 251.972 345.79 257.122 346.213 262.208C346.569 266.49 346.314 271.04 343.352 274.668C341.213 277.288 337.773 279.276 336.345 282.17C334.768 285.366 336.007 289.002 338.036 292.042C340.065 295.082 342.857 297.803 344.661 300.927C345.965 303.136 346.728 305.621 346.889 308.18C347.05 310.74 346.604 313.301 345.586 315.655C343.686 320.048 339.786 324.339 341.03 328.87C342.039 332.544 346.335 336.218 344.024 339.523C342.736 341.365 339.815 342.131 337.116 342.307C330.517 342.738 323.722 340.445 319.643 336.41C315.606 332.416 313.615 326.593 307.462 324.845C305.203 324.203 302.695 324.248 300.432 323.616C298.338 323.026 296.469 321.82 295.069 320.154C293.669 318.489 292.802 316.441 292.58 314.276C291.888 307.802 295.979 301.602 300.724 296.24C304.152 292.378 307.887 288.799 311.89 285.538C317.55 280.912 324.024 276.591 327.281 270.742C331.021 264.026 329.71 255.785 323.976 249.969C321.851 247.815 319.181 245.98 317.36 243.666C315.17 240.88 311.354 230.912 315.884 228.548C320.834 225.965 329.347 236.016 332.101 238.311Z" fill="#3F3D56"/>
<path d="M284.033 646.104L275.118 704.055C275.118 704.055 290.274 740.608 303.648 740.608C317.021 740.608 325.045 738.825 325.045 737.042C325.045 735.259 316.129 724.56 311.672 722.777C307.214 720.994 302.756 701.38 302.756 696.031C302.756 690.681 307.214 646.104 307.214 646.104H284.033Z" fill="#A0616A"/>
<path opacity="0.1" d="M284.033 646.104L275.118 704.055C275.118 704.055 290.274 740.608 303.648 740.608C317.021 740.608 325.045 738.825 325.045 737.042C325.045 735.259 316.129 724.56 311.672 722.777C307.214 720.994 302.756 701.38 302.756 696.031C302.756 690.681 307.214 646.104 307.214 646.104H284.033Z" fill="black"/>
<path d="M306.322 701.38C306.322 701.38 277.793 696.922 275.118 695.139C272.443 693.356 263.528 729.909 277.793 740.608C292.057 751.307 301.864 749.523 304.539 749.523C307.214 749.523 320.587 749.523 323.262 747.74C325.936 745.957 327.72 735.259 325.045 730.801C322.37 726.343 311.672 721.885 310.78 717.428C309.888 712.97 306.322 701.38 306.322 701.38Z" fill="#2F2E41"/>
<path opacity="0.1" d="M306.322 701.38C306.322 701.38 277.793 696.922 275.118 695.139C272.443 693.356 263.528 729.909 277.793 740.608C292.057 751.307 301.864 749.523 304.539 749.523C307.214 749.523 320.587 749.523 323.262 747.74C325.936 745.957 327.72 735.259 325.045 730.801C322.37 726.343 311.672 721.885 310.78 717.428C309.888 712.97 306.322 701.38 306.322 701.38Z" fill="black"/>
<path d="M263.528 648.778C263.528 648.778 264.419 685.332 249.263 690.681C234.106 696.03 266.202 718.319 266.202 718.319L280.467 706.729L291.166 642.537L263.528 648.778Z" fill="#A0616A"/>
<path d="M255.504 677.308C255.504 677.308 258.437 702.819 280.597 696.75C280.597 696.75 283.142 729.909 286.708 734.367C290.274 738.825 300.081 752.198 284.033 752.198C267.985 752.198 257.287 751.306 251.938 745.066C246.588 738.825 234.106 724.56 230.54 722.777C226.974 720.994 242.13 682.657 244.805 682.657C247.48 682.657 255.504 677.308 255.504 677.308Z" fill="#2F2E41"/>
<path d="M243.914 464.227C243.914 464.227 239.456 486.516 251.046 512.371C262.636 538.226 273.335 599.743 267.985 608.658C262.636 617.574 252.829 655.019 262.636 660.368C272.443 665.718 340.201 669.284 344.659 663.935C349.117 658.585 344.659 601.526 336.635 593.502C328.611 585.478 342.876 498.106 342.876 498.106L338.418 477.6L243.914 464.227Z" fill="#3F3D56"/>
<path d="M309.888 298.398C327.122 298.398 341.093 284.427 341.093 267.194C341.093 249.96 327.122 235.989 309.888 235.989C292.655 235.989 278.684 249.96 278.684 267.194C278.684 284.427 292.655 298.398 309.888 298.398Z" fill="#A0616A"/>
<path d="M290.274 277.892C290.274 277.892 278.684 306.422 262.636 309.988C246.588 313.554 242.13 365.264 242.13 365.264L315.238 351L337.527 341.193C337.527 341.193 339.31 319.795 331.286 315.338C323.262 310.88 307.214 312.663 307.214 312.663C307.214 312.663 307.214 294.832 315.238 291.266C323.262 287.699 290.274 277.892 290.274 277.892Z" fill="#A0616A"/>
<path d="M290.274 343.867C290.274 343.867 288.491 309.097 262.636 313.554C262.636 313.554 257.287 311.771 245.697 328.711L242.13 321.578C242.13 321.578 257.287 307.551 266.202 308.77C275.118 309.988 280.467 304.639 299.19 343.867L325.045 340.301L322.37 309.097H325.045L332.177 335.843C332.177 335.843 341.984 335.843 342.876 343.867V351.891C342.876 351.891 358.032 362.59 355.358 385.77C352.683 408.951 351.791 429.456 351.791 429.456C351.791 429.456 348.225 459.769 351.791 470.468C355.358 481.166 375.863 509.696 359.815 512.371C343.767 515.045 337.527 515.045 337.527 515.045L333.96 491.865C333.96 491.865 336.635 501.672 319.696 502.564C302.756 503.455 252.829 489.19 252.829 487.407C252.829 485.624 254.612 467.793 250.154 471.359C245.697 474.926 243.914 493.648 237.673 493.648C231.432 493.648 247.48 420.541 247.48 420.541L242.13 365.265V359.024C242.13 359.024 276.901 362.59 290.274 343.867Z" fill="#D0CDE1"/>
<path d="M260.853 318.012C260.853 318.012 242.13 334.06 240.347 384.879C238.564 435.697 297.407 478.492 297.407 478.492C297.407 478.492 313.455 531.985 325.045 519.503C336.635 507.021 309.888 466.01 309.888 466.01L268.877 411.625L281.359 332.277C281.359 332.277 281.359 313.554 260.853 318.012Z" fill="#A0616A"/>
<path d="M245.052 345.14C245.052 345.14 237.673 346.542 235.89 358.132C234.106 369.722 243.022 380.421 247.48 380.421C251.938 380.421 295.624 372.397 300.973 365.264C306.322 358.132 320.587 360.807 320.587 360.807L290.274 344.759C290.274 344.759 268.109 364.955 243.084 357.086L245.052 345.14Z" fill="#D0CDE1"/>
<path d="M344.661 300.927C342.857 297.803 340.065 295.082 338.036 292.042C336.482 289.947 335.645 287.407 335.651 284.799C332.795 288.983 328.962 292.408 324.484 294.778C320.006 297.147 315.018 298.389 309.952 298.396C307.218 304.857 307.214 313.554 307.214 313.554C307.214 313.554 312.446 323.387 306.312 324.579C306.7 324.654 307.085 324.738 307.462 324.845C313.615 326.593 315.606 332.416 319.643 336.41C323.722 340.445 330.517 342.738 337.116 342.307C339.815 342.131 342.736 341.365 344.024 339.523C346.335 336.219 342.039 332.544 341.03 328.87C339.786 324.339 343.686 320.048 345.586 315.655C346.603 313.301 347.05 310.74 346.889 308.18C346.728 305.621 345.965 303.136 344.661 300.927V300.927Z" fill="#3F3D56"/>
<path d="M279.368 224.32C276.152 225.732 273.149 227.587 270.447 229.83C263.656 235.218 257.757 241.979 254.529 250.024C251.302 258.069 250.972 267.49 254.786 275.274C256.483 278.737 259.018 282.088 258.88 285.942C258.705 290.852 254.28 294.475 249.954 296.803C245.628 299.131 240.738 301.1 238.093 305.24C233.668 312.165 237.57 321.685 234.585 329.341C233.571 331.94 231.751 334.651 232.708 337.271C238.775 337.9 244.691 335 249.533 331.292C254.374 327.583 258.521 323.014 263.474 319.456C270.147 314.663 278.255 311.715 283.769 305.624C286.508 302.538 288.446 298.827 289.416 294.817C290.385 290.807 290.355 286.62 289.329 282.624C288.76 280.498 287.9 278.393 287.96 276.193C288.061 272.57 290.618 269.5 293.335 267.1C296.051 264.7 299.136 262.555 300.947 259.416C302.767 256.261 303.077 252.485 304.205 249.022C305.332 245.559 307.844 242.028 311.474 241.73C313.683 241.549 315.782 242.614 317.743 243.65L328.044 249.089C329.081 249.788 330.319 250.124 331.566 250.046C333.838 249.637 334.675 246.788 334.582 244.481C334.275 236.876 328.905 230.12 322.206 226.506C315.978 223.147 308.638 222.038 301.631 222.049C294.218 222.061 286.364 221.437 279.368 224.32Z" fill="#3F3D56"/>
</svg>
